<svg width="60" height="60" fill="none" xmlns="http://www.w3.org/2000/svg" viewBox="0 0 60 60"><g clip-path="url(#a)"><path d="M29.937 20.328c6.613 0 11.975-1.714 11.975-3.829 0-2.114-5.362-3.828-11.975-3.828-6.614 0-11.975 1.714-11.975 3.828 0 2.115 5.361 3.829 11.975 3.829Z" fill="#353535"/><path d="M38.294 28.8C41.17 26.135 43 22.836 43 18.352c0-.544-.077-1.843-.077-1.96 0-2.56-5.814-4.633-12.986-4.633-7.173 0-12.986 2.07-12.986 4.632 0 .118-.12 1.417-.12 1.961 0 4.618 1.937 8.018 4.958 10.681l-2.861 7.372a.516.516 0 0 0 .94.425l3.271-6.755c1.977 1.332 4.296 2.098 6.776 2.098.285 0 .563-.011.84-.03l.247 6.412a.516.516 0 1 0 1.031-.012l.106-6.58A12.26 12.26 0 0 0 36.9 29.93l3.356 7.664a.516.516 0 0 0 .956-.389L38.294 28.8Zm-8.76-6.908c-4.359 0-8.173-.744-10.268-1.856 3.418 1.088 7.835 1.743 12.66 1.743h.515c-.93.072-1.904.113-2.907.113Zm.403-1.565c-6.614 0-11.975-1.714-11.975-3.828s5.361-3.828 11.975-3.828c6.613 0 11.976 1.713 11.976 3.828 0 2.115-5.362 3.828-11.976 3.828Z" fill="#B51629"/><path d="M29.534 21.892c1 0 1.977-.04 2.907-.114h-.516c-4.824 0-9.241-.657-12.659-1.746 2.095 1.116 5.909 1.86 10.268 1.86ZM34.143 12.913l3.546 6.498c.395-.108.766-.223 1.114-.346l-3.245-5.946a30.028 30.028 0 0 0-1.415-.206ZM37.999 13.672l2.516 4.609c.336-.194.643-.434.911-.714l-1.807-3.312a13.222 13.222 0 0 0-1.62-.583ZM30.569 12.67l4.014 7.355c.413-.056.813-.119 1.2-.19L31.9 12.719c-.436-.023-.88-.039-1.33-.047ZM24.083 13.14l3.901 7.147c.435.022.878.036 1.327.043l-4.024-7.377c-.413.055-.814.117-1.204.187ZM18.547 15.342l1.897 3.476c.523.216 1.058.4 1.604.55l-2.57-4.716c-.34.189-.653.42-.931.69ZM21.054 13.892l3.28 6.009c.454.076.925.142 1.412.198l-3.57-6.546c-.398.105-.772.219-1.122.339ZM27.315 12.751l4.12 7.548c.428-.017.849-.041 1.262-.071l-4.114-7.542c-.43.017-.852.039-1.268.065Z" fill="#161616"/><path d="M42.632 11.235c-2.785-3.646-7.354-5.973-12.471-5.973h-.492c-5.117 0-9.685 2.327-12.471 5.973-1.524 1.996-.077 2.063.485 2.205 3.524.888 7.612 1.396 11.973 1.396h.519c4.36 0 8.448-.508 11.972-1.396.562-.143 2.01-.209.485-2.205Z" fill="#B51629"/><path d="M24.716 17.407c-1.191-.475 0-1.643.507-2.79v-.006a46.61 46.61 0 0 1-7.587-1.22c-.11-.028-.256-.053-.406-.09-2.747.726-4.784-1.634-4.551-2.832.273-1.391 3.304-.174 5.505-.143 2.2.03 3.004-2.119 3.863-3.635.859-1.517-1.071-1.635-.995-2.031.075-.396-.363-1.584-1.096-1.73-.735-.147-.694.465-.694.465s-.398-1.143-1.277-.953c-.88.189-.53.658-1.316 1.186-.529.357-1.245-.407-1.518-1.039 0 0-1.05-2.309-2.97-1.361-.286.214-.527.428-.665.652-.553.908-.556 1.603-.556 1.603s-.367-.311-1.116.374c-.749.686.796 2.35 2 2.814 1.203.465 1.328-.692 1.405-.743.52-.35 1.163 0 1.163 0s0 .536.903.578a1.977 1.977 0 0 0 1.464-.578s-.137.562.518.905c.655.342 1.714-.214 1.511.818-.203 1.033-3.016.852-4.498.561-1.483-.29-3.421-.899-4.761 0-1.34.9-.548 2.314-1.206 2.532-.659.219-.882 1.017-.724 1.85.157.834 1.293.562 1.293.562s-.142 1.148.215 1.687c.357.54.758.429.758.429.245.73 1.5.221 1.5.221 1.084 1.116 4.647.03 4.911.424.264.393 1.152.366 1.696-.67.544-1.038 1.18-.287 1.18-.287s.888 2.22 2.767.624c1.879-1.597 1.16.428 1.045 1.007-.114.58-.235 2.122 1.137 2.39 1.372.27 3.095-2.08 3.095-2.08s-1.31.98-2.5.506Z" fill="#EFEFEF"/><path d="M9.59 9.692s-.188-.428.483-.88c.327-.22 3.063-.172 2.415-.247 0 0-2.492.637-2.898 1.127Z" fill="#C4C4C4"/><path d="M6.595 9.645a.51.51 0 0 0 .168.234.655.655 0 0 0 .578.109c.315-.082 1.62-1.41 1.033-1.526-.468-.091-1.964.58-1.779 1.183ZM8.655 2.858s-.353 1.713.297 1.278c.65-.436.78-2.366-.297-1.278Z" fill="#EFEFEF"/><path d="M29.915 4.304c1.948 0 3.527-.324 3.527-.724 0-.4-1.58-.724-3.527-.724-1.948 0-3.527.325-3.527.724 0 .4 1.579.724 3.527.724Z" fill="#161616"/><path d="M33.9 4.039a.458.458 0 1 0 0-.917.458.458 0 0 0 0 .917ZM25.935 4.039a.458.458 0 1 0 0-.917.458.458 0 0 0 0 .917Z" fill="#161616"/><path d="M26.84 6.728h-.421a.525.525 0 0 1-.524-.561l.215-3.004a.525.525 0 0 1 1.046 0l.214 3.004a.525.525 0 0 1-.53.56ZM33.416 6.728h-.428a.525.525 0 0 1-.524-.561l.215-3.004a.525.525 0 0 1 1.046 0l.215 3.004a.525.525 0 0 1-.524.56Z" fill="#161616"/><path d="M17.9 13.64c-.185.08-.298.142-.298.142l.143-.18-.053-.012c-.552.373-2.578 1.63-4.12 1.086-1.431-.505-3.927-1.46-2.894-4.26 0 0-1.5 2.515.561 3.882 2.062 1.367 3.733 1.114 5.036.708 1.303-.406 2.184-1.295 3.196-.938 1.013.357 1.27.791 1.27.791a4.047 4.047 0 0 0-.28-.677 42.035 42.035 0 0 1-2.561-.543Z" fill="#C4C4C4"/><path d="M5.835 48.055c0-2.11-2.658-2.356-3.262-2.57-.137-.048-.455-.18-.51-.314a.183.183 0 0 1-.009-.062c0-.255.04-.507.774-.507.642 0 1.013.261 1.356.409.117.059.246.092.377.098H4.6a.919.919 0 0 0 .422-1.735 6.852 6.852 0 0 0-.864-.379c-1.901-.663-3.943.09-3.943 2.099V45.115a.05.05 0 0 1 0 .01c.01 1.34 1.128 1.988 2.444 2.285.293.062 1.22.278 1.326.563.01.026.015.054.015.082 0 .407-.48.507-.887.507-.68 0-1.176-.234-1.689-.572l-.004.007a.918.918 0 1 0-.893 1.6c.801.506 1.599.801 2.586.801 1.718 0 2.723-1.056 2.724-2.342h-.001ZM15.472 42.753a3.39 3.39 0 0 0-2.44 1.025 3.411 3.411 0 0 0-4.087-.6.918.918 0 0 0-1.706.473v5.672a.919.919 0 1 0 1.838 0v-3.285c0-1.634 2.46-2.02 2.968-.423.044.138.066.283.066.428v3.285a.919.919 0 0 0 1.837 0v-3.285c0-1.633 2.46-2.025 2.968-.424.044.137.066.28.066.424v3.29a.919.919 0 0 0 1.837 0v-3.285c0-1.821-1.49-3.295-3.347-3.295ZM28.031 46.637c0-.515-.106-1.026-.31-1.5a3.86 3.86 0 0 0-1.419-1.686 3.92 3.92 0 0 0-2.174-.65 3.96 3.96 0 0 0-1.514.298 3.897 3.897 0 0 0-1.718 1.386 3.788 3.788 0 0 0-.673 2.155c0 2.115 1.743 3.84 3.904 3.84 2.153 0 3.902-1.713 3.904-3.835v-.008Zm-1.837 0c0 1.115-.933 2.003-2.07 2.003-1.139 0-2.06-.898-2.06-2.001-.001-.266.053-.529.159-.772.156-.36.414-.666.741-.882.168-.11.35-.196.543-.255.47-.14.974-.115 1.428.072.367.149.684.4.913.724a1.936 1.936 0 0 1 .347 1.111h-.001ZM34.8 45.036a.92.92 0 0 0 1.442-1.08.917.917 0 0 0-.215-.286c-2.499-2.246-6.59-.531-6.59 2.838 0 .519.107 1.032.313 1.507.302.691.798 1.28 1.428 1.693.318.209.664.37 1.027.48a4.017 4.017 0 0 0 2.577-.086 3.946 3.946 0 0 0 1.19-.708.919.919 0 1 0-1.228-1.366 2.116 2.116 0 0 1-.61.357 2.182 2.182 0 0 1-1.589-.023 2.091 2.091 0 0 1-.92-.735 1.965 1.965 0 0 1-.35-1.116c0-1.773 2.198-2.668 3.524-1.475ZM44.07 48.704l-2.41-2.642 1.928-1.695a.919.919 0 1 0-1.214-1.379l-2.62 2.306-.008.007-.01.008-.156.139v-4.461a.92.92 0 1 0-1.837 0V49.324a.918.918 0 1 0 1.837 0V47.9l.706-.621 2.433 2.664a.919.919 0 0 0 1.357-1.24h-.005ZM49.41 42.749h-.004c-2.013 0-3.685 1.722-3.685 3.837-.002.495.082.987.25 1.453.126.345.303.669.525.961.17.222.365.423.582.598.34.271.724.48 1.137.614.444.144.908.217 1.375.214a4.015 4.015 0 0 0 2.582-.983l.02-.018.012-.01a.916.916 0 0 0-.199-1.532.917.917 0 0 0-1.024.162 2.157 2.157 0 0 1-1.385.54 2.453 2.453 0 0 1-.919-.163 1.675 1.675 0 0 1-.941-.928 2.33 2.33 0 0 1-.182-.908c0-1.111.857-2 1.849-2 .814 0 1.417.42 1.709 1.082h-2.07a.918.918 0 0 0 0 1.837h3.177a.917.917 0 0 0 .918-.918c0-2.142-1.547-3.838-3.727-3.838ZM59.354 43.174c-1.35-.474-2.398-.38-3.166.025a.918.918 0 0 0-1.643.564v5.578a.92.92 0 0 0 1.838 0V46.153c0-.247.13-1.19.844-1.41.467-.143 1.078.007 1.54.172h.004a.917.917 0 0 0 1.23-.933.92.92 0 0 0-.646-.81l-.001.002Z" fill="#8A141D"/><path d="m14.21 55.17-.269.28c-.227-.217-.447-.326-.66-.326a.5.5 0 0 0-.458.277.416.416 0 0 0-.036.174c.003.111.046.217.122.298.08.1.247.214.5.348.312.16.524.317.636.467.108.15.165.33.163.514a.913.913 0 0 1-.281.676.956.956 0 0 1-.703.279c-.186 0-.37-.041-.54-.121a1.128 1.128 0 0 1-.423-.338l.264-.3c.215.242.442.363.682.363a.61.61 0 0 0 .428-.162.5.5 0 0 0 .06-.7c-.076-.096-.252-.212-.526-.351-.294-.148-.494-.298-.6-.45a.833.833 0 0 1-.16-.505.822.822 0 0 1 .253-.617.884.884 0 0 1 .639-.245c.299 0 .601.146.908.44ZM17.691 56.993l.35.188a1.824 1.824 0 0 1-.398.55c-.15.136-.324.244-.514.316a1.813 1.813 0 0 1-.642.109c-.531 0-.947-.174-1.245-.522a1.757 1.757 0 0 1-.45-1.179 1.74 1.74 0 0 1 .38-1.106c.321-.412.752-.618 1.294-.618a1.607 1.607 0 0 1 1.329.633c.238.297.357.668.357 1.112h-2.928c-.005.347.125.682.363.935a1.152 1.152 0 0 0 .865.364c.165 0 .33-.03.485-.087.145-.053.28-.131.4-.231.14-.136.26-.292.354-.464Zm0-.877a1.385 1.385 0 0 0-.244-.536 1.149 1.149 0 0 0-.425-.324 1.302 1.302 0 0 0-.556-.124 1.19 1.19 0 0 0-.823.31c-.167.15-.293.375-.378.674h2.426ZM18.77 56.66v-.393c.023-.166.07-.327.137-.48.139-.34.325-.59.56-.748.234-.16.428-.239.582-.238.13.005.258.043.369.113l-.215.35c-.184-.067-.367-.012-.548.164-.17.159-.3.357-.376.577-.052.184-.078.53-.078 1.037v1.103h-.428l-.003-1.485ZM20.465 54.897h.446l1.092 2.373 1.081-2.373h.45L22.04 58.16h-.071l-1.505-3.262ZM26.919 56.993l.35.188a1.822 1.822 0 0 1-.398.55c-.15.136-.324.244-.514.316a1.814 1.814 0 0 1-.643.109c-.531 0-.947-.174-1.246-.522a1.785 1.785 0 0 1-.071-2.285c.321-.412.752-.618 1.294-.618a1.607 1.607 0 0 1 1.328.633c.238.297.357.668.357 1.112H24.45c-.005.347.125.682.363.935a1.154 1.154 0 0 0 .865.364 1.377 1.377 0 0 0 .885-.318 1.97 1.97 0 0 0 .357-.464Zm0-.877a1.382 1.382 0 0 0-.245-.536c-.114-.14-.26-.251-.424-.324a1.302 1.302 0 0 0-.557-.124 1.19 1.19 0 0 0-.823.31c-.167.15-.293.375-.378.674h2.427ZM27.996 56.66v-.393c.022-.166.069-.327.137-.48.139-.34.325-.59.559-.748.233-.16.427-.239.582-.238.131.004.258.043.37.113l-.215.35c-.184-.067-.367-.012-.548.164-.17.159-.3.357-.377.577-.05.184-.077.53-.077 1.037v1.103H28l-.003-1.485ZM31.519 56.89v-.521c.036-.444.129-.77.28-.976.124-.187.293-.341.49-.448.133-.086.322-.131.568-.137.165.001.328.031.482.09a.921.921 0 0 1 .377.237c.112.135.203.285.271.446a1.52 1.52 0 0 1 .313-.446c.093-.075.193-.14.3-.193.084-.053.276-.098.58-.134.228 0 .452.059.651.17a.942.942 0 0 1 .438.477c.085.205.127.51.127.917v1.781h-.429v-1.781c0-.349-.025-.589-.075-.72a.643.643 0 0 0-.255-.314.773.773 0 0 0-.437-.12c-.321.022-.595.177-.823.467-.09.122-.157.395-.203.817v1.654h-.42v-1.675c0-.392-.043-.66-.13-.801a1.126 1.126 0 0 0-.312-.339.77.77 0 0 0-.452-.126.84.84 0 0 0-.5.148.97.97 0 0 0-.329.444c-.08.198-.11.518-.095.962v1.383h-.416l-.001-1.263ZM38.816 54.73a1.621 1.621 0 0 1 1.248.545 1.753 1.753 0 0 1-.027 2.371c-.317.34-.724.51-1.221.51-.498 0-.906-.17-1.224-.51a1.75 1.75 0 0 1-.025-2.368 1.614 1.614 0 0 1 1.249-.547Zm0 .41a1.206 1.206 0 0 0-.896.388 1.29 1.29 0 0 0-.374.933c-.001.232.058.46.17.662.108.198.268.361.463.473a1.318 1.318 0 0 0 1.277 0 1.19 1.19 0 0 0 .458-.472c.112-.203.171-.43.17-.662a1.291 1.291 0 0 0-.375-.934 1.203 1.203 0 0 0-.893-.387ZM44.45 55.492l-.334.208a1.393 1.393 0 0 0-1.177-.576 1.364 1.364 0 0 0-.992.384 1.255 1.255 0 0 0-.391.932 1.328 1.328 0 0 0 .681 1.163 1.51 1.51 0 0 0 1.885-.399l.333.214a1.564 1.564 0 0 1-.628.543 2.031 2.031 0 0 1-.9.192c-.514 0-.94-.163-1.28-.49a1.593 1.593 0 0 1-.51-1.193c-.002-.31.081-.615.24-.882.156-.267.382-.486.654-.633.285-.153.604-.231.928-.227.211 0 .422.033.623.098.184.057.357.143.513.257.144.111.264.25.354.409ZM45.246 53.63h.423v2.575l1.507-1.313h.618L46.43 56.13l1.47 2.022h-.595L46.019 56.4l-.35.285v1.466h-.423v-4.52Z" fill="#575756"/></g><defs><clipPath id="a"><path fill="#fff" transform="translate(0 .001)" d="M0 0h60v60H0z"/></clipPath></defs></svg>