<svg width="60" height="60" viewBox="0 0 60 60" fill="none" xmlns="http://www.w3.org/2000/svg">
<path d="M60 30C60 31.1452 59.9359 32.2754 59.811 33.3871C54.5503 22.3032 43.2856 14.6429 30.2381 14.6429C24.2563 14.6429 18.6492 16.253 13.8236 19.065C13.8143 18.7429 13.8096 18.4196 13.8096 18.0952C13.8096 12.5144 15.1959 7.25852 17.6418 2.65559C21.4104 0.949709 25.5943 0 30 0C46.5686 0 60 13.4315 60 30Z" fill="url(#paint0_linear_1092_15212)"/>
<path d="M46.4208 18.9313C52.2275 22.2516 56.9235 27.3037 59.8108 33.3872C58.1282 48.3611 45.4233 60 29.9999 60C21.4138 60 13.6702 56.393 8.20166 50.6117C9.98631 50.914 11.82 51.0714 13.6904 51.0714C31.5324 51.0714 46.0408 36.7467 46.4208 18.9313Z" fill="url(#paint1_linear_1092_15212)"/>
<path d="M30.2211 46.5813C20.4122 40.9062 13.8095 30.2746 13.8095 18.0952C13.8095 12.5144 15.1959 7.25851 17.6418 2.65558C7.23804 7.36493 0 17.8372 0 30C0 37.9825 3.11765 45.2367 8.20175 50.6116C9.98641 50.914 11.8201 51.0714 13.6905 51.0714C19.7203 51.0714 25.3694 49.4353 30.2211 46.5813Z" fill="url(#paint2_linear_1092_15212)"/>
<path fill-rule="evenodd" clip-rule="evenodd" d="M23.8268 21.0782C25.6289 18.1466 29.4664 17.231 32.398 19.0331C35.3296 20.8353 36.2452 24.6728 34.443 27.6044L31.9511 31.658L30.4299 30.7229L32.9218 26.6692C34.2075 24.5778 33.5543 21.8401 31.4628 20.5544C29.3714 19.2687 26.6337 19.9219 25.348 22.0134L23.0467 25.7569C23.8398 26.412 24.3452 27.4029 24.3452 28.5119C24.3452 30.4843 22.7463 32.0833 20.7738 32.0833C18.8014 32.0833 17.2024 30.4843 17.2024 28.5119C17.2024 26.5394 18.8014 24.9404 20.7738 24.9404C20.9934 24.9404 21.2084 24.9603 21.417 24.9982L23.8268 21.0782ZM18.9881 28.5119C18.9881 27.5257 19.7876 26.7262 20.7738 26.7262C21.76 26.7262 22.5595 27.5257 22.5595 28.5119C22.5595 29.4981 21.76 30.2976 20.7738 30.2976C19.7876 30.2976 18.9881 29.4981 18.9881 28.5119Z" fill="url(#paint3_linear_1092_15212)"/>
<path fill-rule="evenodd" clip-rule="evenodd" d="M40.1786 23.75C38.2061 23.75 36.6072 25.349 36.6072 27.3214C36.6072 28.3431 37.0362 29.2646 37.7239 29.9155L35.4273 33.8934C34.1998 36.0195 31.4811 36.7479 29.355 35.5204C27.2289 34.2929 26.5005 31.5743 27.728 29.4482L30.1072 25.3274L28.5607 24.4345L26.1815 28.5553C24.4609 31.5355 25.482 35.3463 28.4622 37.0669C31.4424 38.7875 35.2531 37.7664 36.9737 34.7862L39.2865 30.7805C39.5716 30.8538 39.8705 30.8928 40.1786 30.8928C42.151 30.8928 43.75 29.2938 43.75 27.3214C43.75 25.349 42.151 23.75 40.1786 23.75ZM38.3929 27.3214C38.3929 26.3352 39.1924 25.5357 40.1786 25.5357C41.1648 25.5357 41.9643 26.3352 41.9643 27.3214C41.9643 28.3076 41.1648 29.1071 40.1786 29.1071C39.1924 29.1071 38.3929 28.3076 38.3929 27.3214Z" fill="url(#paint4_linear_1092_15212)"/>
<defs>
<linearGradient id="paint0_linear_1092_15212" x1="60" y1="28.1548" x2="18.6905" y2="10.4762" gradientUnits="userSpaceOnUse">
<stop stop-color="#EBD7C0"/>
<stop offset="0.362044" stop-color="#F97C19"/>
<stop offset="1" stop-color="#DD5300"/>
</linearGradient>
<linearGradient id="paint1_linear_1092_15212" x1="12.1428" y1="52.5595" x2="53.6309" y2="25.2976" gradientUnits="userSpaceOnUse">
<stop stop-color="#EBD7C0"/>
<stop offset="0.336378" stop-color="#F97C19"/>
<stop offset="0.897915" stop-color="#DD5300"/>
</linearGradient>
<linearGradient id="paint2_linear_1092_15212" x1="15.1105" y1="2.65558" x2="15.1105" y2="51.0714" gradientUnits="userSpaceOnUse">
<stop stop-color="#EBD7C0"/>
<stop offset="0.372839" stop-color="#F97C19"/>
<stop offset="0.895376" stop-color="#DD5300"/>
</linearGradient>
<linearGradient id="paint3_linear_1092_15212" x1="17.1429" y1="29.8809" x2="43.6905" y2="27.4405" gradientUnits="userSpaceOnUse">
<stop offset="0.144247" stop-color="#FB7E1C"/>
<stop offset="0.869343" stop-color="#DF5203"/>
</linearGradient>
<linearGradient id="paint4_linear_1092_15212" x1="17.1429" y1="29.8809" x2="43.6905" y2="27.4405" gradientUnits="userSpaceOnUse">
<stop offset="0.144247" stop-color="#FB7E1C"/>
<stop offset="0.869343" stop-color="#DF5203"/>
</linearGradient>
</defs>
</svg>
