<?xml version="1.0" encoding="UTF-8"?>
<!DOCTYPE svg PUBLIC "-//W3C//DTD SVG 1.1//EN" "http://www.w3.org/Graphics/SVG/1.1/DTD/svg11.dtd">
<svg xmlns="http://www.w3.org/2000/svg" version="1.1" width="115px" height="115px" style="shape-rendering:geometricPrecision; text-rendering:geometricPrecision; image-rendering:optimizeQuality; fill-rule:evenodd; clip-rule:evenodd" xmlns:xlink="http://www.w3.org/1999/xlink">
<g><path style="opacity:1" fill="#e96407" d="M 43.5,-0.5 C 48.5,-0.5 53.5,-0.5 58.5,-0.5C 58.9175,0.221579 59.5842,0.721579 60.5,1C 55.7503,9.16817 50.7503,17.1682 45.5,25C 43.9419,25.21 42.6085,25.71 41.5,26.5C 35.9617,27.9351 30.6283,29.9351 25.5,32.5C 24.5386,30.7354 24.2053,28.7354 24.5,26.5C 24.5,25.1667 24.5,23.8333 24.5,22.5C 25.1667,20.1667 25.8333,17.8333 26.5,15.5C 27.4411,11.6754 28.7745,8.00871 30.5,4.5C 34.6255,2.23691 38.9588,0.570243 43.5,-0.5 Z"/></g>
<g><path style="opacity:1" fill="#f57716" d="M 58.5,-0.5 C 59.8333,-0.5 61.1667,-0.5 62.5,-0.5C 67.7913,0.709626 72.7913,2.70963 77.5,5.5C 76.0991,8.63394 74.4325,11.6339 72.5,14.5C 72.8457,15.6956 73.3457,15.6956 74,14.5C 75.5,12.1667 77,9.83333 78.5,7.5C 78.8333,7.66667 79.1667,7.83333 79.5,8C 75.6227,13.5847 72.1227,19.4181 69,25.5C 67.9887,26.3366 66.8221,26.67 65.5,26.5C 57.4963,25.2174 49.4963,25.2174 41.5,26.5C 42.6085,25.71 43.9419,25.21 45.5,25C 50.7503,17.1682 55.7503,9.16817 60.5,1C 59.5842,0.721579 58.9175,0.221579 58.5,-0.5 Z"/></g>
<g><path style="opacity:1" fill="#fd8525" d="M 77.5,5.5 C 81.7321,7.40019 85.3988,10.0669 88.5,13.5C 86.6124,17.6056 84.4458,21.6056 82,25.5C 80.9509,27.6175 79.4509,29.2842 77.5,30.5C 73.3528,29.3398 69.3528,28.0065 65.5,26.5C 66.8221,26.67 67.9887,26.3366 69,25.5C 72.1227,19.4181 75.6227,13.5847 79.5,8C 79.1667,7.83333 78.8333,7.66667 78.5,7.5C 77,9.83333 75.5,12.1667 74,14.5C 73.3457,15.6956 72.8457,15.6956 72.5,14.5C 74.4325,11.6339 76.0991,8.63394 77.5,5.5 Z"/></g>
<g><path style="opacity:1" fill="#edcba3" d="M 30.5,4.5 C 28.7745,8.00871 27.4411,11.6754 26.5,15.5C 22.5483,16.1958 18.5483,16.6958 14.5,17C 13.6266,18.045 12.6266,18.8783 11.5,19.5C 12.8823,16.6057 14.8823,14.1057 17.5,12C 21.4802,8.84539 25.8136,6.34539 30.5,4.5 Z"/></g>
<g><path style="opacity:1" fill="#f8943b" d="M 88.5,13.5 C 91.9031,15.8998 94.5698,18.8998 96.5,22.5C 96.3215,25.2165 95.8215,27.8832 95,30.5C 93.2226,33.0594 91.7226,35.7261 90.5,38.5C 87.9128,36.0408 84.9128,34.3742 81.5,33.5C 80.1283,32.4884 78.795,31.4884 77.5,30.5C 79.4509,29.2842 80.9509,27.6175 82,25.5C 84.4458,21.6056 86.6124,17.6056 88.5,13.5 Z"/></g>
<g><path style="opacity:1" fill="#f0b576" d="M 26.5,15.5 C 25.8333,17.8333 25.1667,20.1667 24.5,22.5C 19.1554,22.6865 13.8221,23.0199 8.5,23.5C 8.73758,21.5956 9.73758,20.2623 11.5,19.5C 12.6266,18.8783 13.6266,18.045 14.5,17C 18.5483,16.6958 22.5483,16.1958 26.5,15.5 Z"/></g>
<g><path style="opacity:1" fill="#f3a85d" d="M 24.5,22.5 C 24.5,23.8333 24.5,25.1667 24.5,26.5C 18.0824,26.81 11.7491,27.4767 5.5,28.5C 5.74973,26.326 6.74973,24.6594 8.5,23.5C 13.8221,23.0199 19.1554,22.6865 24.5,22.5 Z"/></g>
<g><path style="opacity:1" fill="#f2a559" d="M 96.5,22.5 C 98.9236,25.0078 100.59,28.0078 101.5,31.5C 100.627,35.7887 98.6271,39.4554 95.5,42.5C 94.1667,41.5 92.8333,40.5 91.5,39.5C 91.5,38.8333 91.1667,38.5 90.5,38.5C 91.7226,35.7261 93.2226,33.0594 95,30.5C 95.8215,27.8832 96.3215,25.2165 96.5,22.5 Z"/></g>
<g><path style="opacity:1" fill="#f7963e" d="M 24.5,26.5 C 24.2053,28.7354 24.5386,30.7354 25.5,32.5C 24.7659,33.7079 24.4326,35.0413 24.5,36.5C 17.4145,34.2533 10.0812,33.92 2.5,35.5C 2.93482,32.8427 3.93482,30.5093 5.5,28.5C 11.7491,27.4767 18.0824,26.81 24.5,26.5 Z"/></g>
<g><path style="opacity:1" fill="#f17917" d="M 46.5,30.5 C 57.9004,29.2534 63.4004,34.2534 63,45.5C 61.4912,49.1939 59.4912,52.5272 57,55.5C 55.605,55.2196 54.4383,54.5529 53.5,53.5C 56.4925,49.2128 57.9925,44.5462 58,39.5C 54.0612,33.5148 49.7279,33.1815 45,38.5C 43.9605,40.7463 42.7938,42.913 41.5,45C 44.3525,49.2647 43.6858,52.9313 39.5,56C 31.4899,56.6583 28.6565,53.1583 31,45.5C 32.9162,44.0722 35.0829,43.0722 37.5,42.5C 39.5598,37.6768 42.5598,33.6768 46.5,30.5 Z M 35.5,47.5 C 37.9118,47.6941 38.9118,49.0274 38.5,51.5C 35.0464,51.7332 34.0464,50.3999 35.5,47.5 Z"/></g>
<g><path style="opacity:1" fill="#e65f03" d="M 81.5,33.5 C 84.9128,34.3742 87.9128,36.0408 90.5,38.5C 91.1667,38.5 91.5,38.8333 91.5,39.5C 90.3396,52.6603 90.173,65.9936 91,79.5C 91.6976,82.0037 92.5309,84.337 93.5,86.5C 90.0519,91.2869 85.7186,94.9536 80.5,97.5C 78.2648,95.9081 76.5981,93.7415 75.5,91C 74.255,83.4317 72.255,76.0984 69.5,69C 70.4138,67.5936 71.0805,66.0936 71.5,64.5C 73.7571,60.3171 75.7571,55.9838 77.5,51.5C 79.9626,45.8659 81.296,39.8659 81.5,33.5 Z"/></g>
<g><path style="opacity:1" fill="#edb171" d="M 101.5,31.5 C 103.277,34.5046 104.277,37.8379 104.5,41.5C 104.845,45.1151 104.178,48.4484 102.5,51.5C 99.9362,48.7198 97.6029,45.7198 95.5,42.5C 98.6271,39.4554 100.627,35.7887 101.5,31.5 Z"/></g>
<g><path style="opacity:1" fill="#e66605" d="M 77.5,51.5 C 75.3264,53.6836 72.6597,55.0169 69.5,55.5C 68.3924,58.0591 67.0591,60.3924 65.5,62.5C 63.744,61.4479 63.0773,59.7812 63.5,57.5C 63.8769,55.742 64.5435,54.0754 65.5,52.5C 62.6228,43.8799 65.6228,40.3799 74.5,42C 77.1856,44.5463 78.1856,47.713 77.5,51.5 Z M 70.5,45.5 C 72.1042,46.287 72.7709,47.6203 72.5,49.5C 68.4366,49.384 67.7699,48.0507 70.5,45.5 Z"/></g>
<g><path style="opacity:1" fill="#f88625" d="M 24.5,36.5 C 25.4222,40.1119 26.0889,43.7785 26.5,47.5C 18.5705,46.8477 10.5705,47.0143 2.5,48C 0.623028,51.4935 -0.0436386,55.3268 0.5,59.5C 0.166667,59.5 -0.166667,59.5 -0.5,59.5C -0.5,54.8333 -0.5,50.1667 -0.5,45.5C 0.284188,42.1995 1.28419,38.8661 2.5,35.5C 10.0812,33.92 17.4145,34.2533 24.5,36.5 Z"/></g>
<g><path style="opacity:1" fill="#e05800" d="M 91.5,39.5 C 92.8333,40.5 94.1667,41.5 95.5,42.5C 97.6029,45.7198 99.9362,48.7198 102.5,51.5C 103.263,53.3684 104.263,55.0351 105.5,56.5C 105.198,68.0904 101.198,78.0904 93.5,86.5C 92.5309,84.337 91.6976,82.0037 91,79.5C 90.173,65.9936 90.3396,52.6603 91.5,39.5 Z"/></g>
<g><path style="opacity:1" fill="#ebc395" d="M 104.5,41.5 C 106.246,46.4483 106.579,51.4483 105.5,56.5C 104.263,55.0351 103.263,53.3684 102.5,51.5C 104.178,48.4484 104.845,45.1151 104.5,41.5 Z"/></g>
<g><path style="opacity:1" fill="#f37311" d="M 26.5,47.5 C 28.4608,52.0986 30.4608,56.7653 32.5,61.5C 31.0915,60.9386 29.5915,60.6052 28,60.5C 19.179,61.3658 10.3456,62.0325 1.5,62.5C 1.5,63.5 1.5,64.5 1.5,65.5C 0.538616,63.7354 0.205283,61.7354 0.5,59.5C -0.0436386,55.3268 0.623028,51.4935 2.5,48C 10.5705,47.0143 18.5705,46.8477 26.5,47.5 Z"/></g>
<g><path style="opacity:1" fill="#f27816" d="M 63.5,57.5 C 63.0773,59.7812 63.744,61.4479 65.5,62.5C 58.0437,69.4571 51.2104,68.7904 45,60.5C 43.3692,53.1123 45.2025,46.779 50.5,41.5C 51.9019,41.8655 52.9019,42.6988 53.5,44C 51.6929,47.78 50.0263,51.6133 48.5,55.5C 50.3824,61.9411 54.3824,63.7744 60.5,61C 61.6364,59.8549 62.6364,58.6883 63.5,57.5 Z"/></g>
<g><path style="opacity:1" fill="#e45d02" d="M 32.5,61.5 C 37.8507,69.1831 44.5173,75.5165 52.5,80.5C 52.6309,81.3764 52.2975,82.0431 51.5,82.5C 48.6416,83.6609 45.975,84.9943 43.5,86.5C 42.209,86.2627 41.209,86.596 40.5,87.5C 37.0172,88.0101 33.6838,88.6768 30.5,89.5C 28.5,89.5 26.5,89.5 24.5,89.5C 21.1667,89.5 17.8333,89.5 14.5,89.5C 7.65231,82.9545 3.31898,74.9545 1.5,65.5C 1.5,64.5 1.5,63.5 1.5,62.5C 10.3456,62.0325 19.179,61.3658 28,60.5C 29.5915,60.6052 31.0915,60.9386 32.5,61.5 Z"/></g>
<g><path style="opacity:1" fill="#f57614" d="M 71.5,64.5 C 71.0805,66.0936 70.4138,67.5936 69.5,69C 72.255,76.0984 74.255,83.4317 75.5,91C 76.5981,93.7415 78.2648,95.9081 80.5,97.5C 75.2308,101.459 69.2308,103.792 62.5,104.5C 60.8333,104.5 59.1667,104.5 57.5,104.5C 56.2716,99.7502 55.2716,94.9169 54.5,90C 55.3396,88.8288 56.1729,87.6621 57,86.5C 57.3333,87.1667 57.6667,87.8333 58,88.5C 58.3333,85.1667 58.6667,81.8333 59,78.5C 60.045,77.6266 60.8783,76.6266 61.5,75.5C 64.8617,71.8075 68.1951,68.1408 71.5,64.5 Z"/></g>
<g><path style="opacity:1" fill="#f98627" d="M 61.5,75.5 C 60.8783,76.6266 60.045,77.6266 59,78.5C 58.6667,81.8333 58.3333,85.1667 58,88.5C 57.6667,87.8333 57.3333,87.1667 57,86.5C 56.1729,87.6621 55.3396,88.8288 54.5,90C 55.2716,94.9169 56.2716,99.7502 57.5,104.5C 55.1667,104.5 52.8333,104.5 50.5,104.5C 47.742,98.5416 45.4087,92.5416 43.5,86.5C 45.975,84.9943 48.6416,83.6609 51.5,82.5C 52.2975,82.0431 52.6309,81.3764 52.5,80.5C 55.6612,79.0869 58.6612,77.4203 61.5,75.5 Z"/></g>
<g><path style="opacity:1" fill="#edd2b2" d="M 14.5,89.5 C 17.8333,89.5 21.1667,89.5 24.5,89.5C 24.916,92.5827 25.5826,95.5827 26.5,98.5C 21.9289,96.2624 17.9289,93.2624 14.5,89.5 Z"/></g>
<g><path style="opacity:1" fill="#f8953d" d="M 40.5,87.5 C 41.209,86.596 42.209,86.2627 43.5,86.5C 45.4087,92.5416 47.742,98.5416 50.5,104.5C 48.8333,104.5 47.1667,104.5 45.5,104.5C 43.6735,98.8569 42.0068,93.1903 40.5,87.5 Z"/></g>
<g><path style="opacity:1" fill="#f0be88" d="M 24.5,89.5 C 26.5,89.5 28.5,89.5 30.5,89.5C 31.675,89.281 32.675,89.6143 33.5,90.5C 34.8434,94.8613 36.1767,99.1946 37.5,103.5C 33.4069,102.618 29.7403,100.951 26.5,98.5C 25.5826,95.5827 24.916,92.5827 24.5,89.5 Z"/></g>
<g><path style="opacity:1" fill="#f4a75b" d="M 40.5,87.5 C 42.0068,93.1903 43.6735,98.8569 45.5,104.5C 47.1667,104.5 48.8333,104.5 50.5,104.5C 52.8333,104.5 55.1667,104.5 57.5,104.5C 59.1667,104.5 60.8333,104.5 62.5,104.5C 54.1994,105.959 45.866,105.626 37.5,103.5C 36.1767,99.1946 34.8434,94.8613 33.5,90.5C 32.675,89.6143 31.675,89.281 30.5,89.5C 33.6838,88.6768 37.0172,88.0101 40.5,87.5 Z"/></g>
</svg>
