<svg width="60" height="60" viewBox="0 0 60 60" fill="none" xmlns="http://www.w3.org/2000/svg">
<path d="M12.6875 3.36282C10.734 3.32041 8.91486 3.483 7.11218 3.81055C6.69508 3.88596 6.64089 3.84118 6.5537 3.43823C6.38403 2.67238 6.20965 1.91125 6.03999 1.1454C6.01643 1.04172 6.01407 0.933319 6.00229 0.824923C5.98108 0.645832 6.06355 0.556287 6.24029 0.523297C7.63767 0.275869 9.03033 0.0378672 10.4607 0.0355107C11.3703 0.0355107 12.2799 0.0143026 13.1895 0.000163912C14.7683 -0.0210442 16.3306 0.146264 17.8906 0.379553C20.7867 0.810784 23.5461 1.69681 26.1994 2.9151C27.3353 3.43823 28.4357 4.04148 29.5126 4.68008C29.522 4.68479 29.5291 4.68951 29.5385 4.69657C29.9297 4.96285 30.2855 4.97935 30.7168 4.70836C32.543 3.55605 34.4777 2.60876 36.5183 1.90182C38.625 1.17132 40.7647 0.558643 42.9915 0.2688C44.2687 0.101491 45.5412 0.0284413 46.8231 0.0496494C48.2888 0.0708575 49.7569 -0.004549 51.2226 0.110917C52.2005 0.186324 53.1667 0.318285 54.1163 0.565713C54.2671 0.605772 54.3261 0.669397 54.3119 0.829635C54.2884 1.09591 54.22 1.35041 54.1564 1.60491C53.9914 2.26 53.8147 2.91038 53.6545 3.56783C53.6003 3.7917 53.4989 3.87653 53.2633 3.82704C50.822 3.31334 48.3454 3.26385 45.8735 3.37932C43.5736 3.48536 41.3184 3.93544 39.1104 4.62117C37.6966 5.05947 36.3133 5.56611 34.9867 6.22591C34.4517 6.49219 33.9121 6.74669 33.3725 6.99883C33.1769 7.09073 33.1698 7.17556 33.3395 7.30752C35.1163 8.70726 36.6597 10.345 38.109 12.0652C39.061 13.1916 39.8669 14.4358 40.6351 15.7012C41.474 17.0844 42.2162 18.5172 42.8289 20.0112C43.7173 22.1815 44.3653 24.4248 44.7942 26.7318C45.11 28.4378 45.2796 30.151 45.3268 31.8853C45.4045 34.8309 45.0911 37.727 44.3418 40.5665C43.7479 42.8075 42.9632 44.9919 41.9099 47.068C40.7929 49.2689 39.4427 51.3119 37.8592 53.2018C36.483 54.8466 34.9984 56.3924 33.3041 57.7144C32.3474 58.4591 31.4143 59.2367 30.401 59.9059C30.2219 60.0237 30.0805 60.0379 29.8967 59.913C28.0257 58.6216 26.2254 57.2384 24.6041 55.6454C23.4165 54.479 22.3631 53.1947 21.3569 51.8657C20.0515 50.1408 18.9557 48.2933 18.0202 46.3516C16.8538 43.9362 16.0219 41.4007 15.5153 38.7638C15.2514 37.3924 15.0676 36.0091 14.9757 34.6094C14.8861 33.2497 14.8602 31.8924 14.9568 30.5351C15.0746 28.8856 15.3268 27.2573 15.6614 25.636C16.201 23.0204 17.0918 20.5414 18.2606 18.1472C19.5755 15.4538 21.2627 13.0196 23.2421 10.7786C24.2554 9.63334 25.3865 8.60829 26.5694 7.64214C27.2056 7.12137 27.2056 7.13786 26.4445 6.79382C25.6433 6.43092 24.8586 6.02561 24.0551 5.66979C22.5846 5.0147 21.0388 4.58582 19.4883 4.17109C18.2653 3.84354 17.0211 3.65031 15.7674 3.51128C14.707 3.39346 13.6443 3.31569 12.697 3.36282H12.6875ZM22.5846 19.7826C22.5634 20.0984 22.6082 20.4094 22.6459 20.7205C22.8156 22.1108 23.3151 23.3691 24.1446 24.4955C24.7502 25.3155 25.4147 26.0837 26.1052 26.8307C27.2363 28.0537 28.4546 29.1825 29.7742 30.1981C30.1512 30.488 30.1559 30.4691 30.5259 30.1816C32.1707 28.8926 33.6977 27.4811 35.055 25.8905C35.5875 25.2661 36.139 24.6487 36.5537 23.937C37.4232 22.4477 37.8615 20.8548 37.6801 19.1086C37.534 17.7113 37.0485 16.4482 36.2921 15.2841C35.5098 14.0823 34.546 13.0266 33.5445 12.0086C32.5619 11.0095 31.4779 10.1258 30.3657 9.27516C30.1889 9.14085 30.0499 9.16441 29.892 9.28695C28.8693 10.0764 27.8537 10.8752 26.9323 11.7801C25.9803 12.7132 25.1485 13.7477 24.3473 14.8152C23.2374 16.295 22.6106 17.9281 22.5846 19.7849V19.7826ZM41.9618 32.4014C41.9759 31.5389 41.9264 30.6812 41.8416 29.8234C41.7615 29.0152 41.7073 28.2046 41.5305 27.4128C41.2925 26.3453 41.137 25.2566 40.7859 24.2151C40.7529 24.1185 40.7859 23.97 40.6445 23.9559C40.5243 23.9441 40.4748 24.0713 40.4183 24.1609C40.1921 24.5261 39.9894 24.9079 39.7396 25.259C38.3634 27.2054 36.7728 28.9657 35.0762 30.6364C34.5672 31.136 34.004 31.5931 33.5822 32.1681C32.47 33.688 31.829 35.3658 31.8384 37.2934C31.8667 42.4399 31.8479 47.5864 31.8502 52.7329C31.8502 53.2112 31.8526 53.6919 31.8125 54.1703C31.8054 54.2434 31.7866 54.3376 31.8667 54.3847C31.9539 54.4366 32.0128 54.3588 32.067 54.3093C32.404 54.0101 32.7575 53.7344 33.0779 53.4162C33.7212 52.7729 34.3127 52.0825 34.916 51.4015C36.3393 49.7991 37.5481 48.0388 38.559 46.1584C40.8636 41.8696 41.917 37.2557 41.957 32.4014H41.9618ZM28.3909 38.1252C28.3556 37.5125 28.4451 36.8881 28.3603 36.2801C28.1011 34.3855 27.2999 32.7643 25.912 31.4258C24.5688 30.1298 23.2185 28.8337 22.0639 27.3562C21.2745 26.3477 20.4473 25.365 19.8441 24.2245C19.7922 24.1279 19.7475 23.9606 19.6202 23.9865C19.5048 24.0101 19.5071 24.1774 19.4788 24.2881C19.3351 24.8372 19.1866 25.3839 19.0523 25.9353C18.647 27.6037 18.4043 29.3003 18.3195 31.0087C18.2441 32.5216 18.2841 34.0368 18.4585 35.5496C18.68 37.4701 19.0382 39.3529 19.6179 41.198C20.3908 43.6605 21.5077 45.9604 22.8886 48.1331C24.3426 50.4235 26.0746 52.4854 28.1341 54.2646C28.1906 54.3141 28.2496 54.4012 28.332 54.3612C28.4404 54.307 28.3909 54.1868 28.3909 54.0949C28.3909 48.7717 28.3909 43.4508 28.3909 38.1276V38.1252Z" fill="url(#paint0_radial_427_4329)"/>
<defs>
<radialGradient id="paint0_radial_427_4329" cx="0" cy="0" r="1" gradientUnits="userSpaceOnUse" gradientTransform="translate(41 19.0001) rotate(110.41) scale(45.8803 65.8462)">
<stop stop-color="#2CF6EB"/>
<stop offset="0.630588" stop-color="#6833F8"/>
<stop offset="1" stop-color="#0658F8"/>
</radialGradient>
</defs>
</svg>
