<svg width="60" height="60" viewBox="0 0 60 60" fill="none" xmlns="http://www.w3.org/2000/svg">
<path fill-rule="evenodd" clip-rule="evenodd" d="M28.6536 1.95025C28.0118 2.05194 27.9328 2.23486 28.1454 3.12853C28.5064 4.64526 28.1133 5.73098 27.2033 5.73098C26.4086 5.73098 25.075 4.82708 24.8914 4.16372C24.6462 3.27792 24.5667 3.2266 23.6093 3.33475C22.3231 3.48005 22.2211 3.58741 22.5487 4.45022C22.7764 5.04999 23.1839 5.40717 23.9356 5.66597C25.2579 6.12107 25.653 6.5864 25.3643 7.34831C25.0169 8.26543 23.82 8.36492 21.7164 7.6515C20.2422 7.15154 19.5804 7.3025 18.4736 8.39121C17.207 9.63719 15.9563 9.71212 14.895 8.60562L14.4635 8.15587L14.3502 8.29582C14.2861 8.375 14.1915 8.68921 14.1321 9.01963C13.87 10.4821 13.3312 10.9156 12.112 10.645C11.2023 10.443 10.6971 10.569 10.6971 10.9976C10.6971 11.3058 11.2303 11.3524 12.4054 11.1468C12.7991 11.0779 13.2914 11.0207 13.4992 11.0196C13.707 11.0185 14.0611 10.9765 14.2863 10.9263C16.0561 10.5312 17.2087 10.7251 17.6037 11.4847C17.6555 11.5843 17.7948 12.0506 17.9134 12.5209C18.2938 14.0317 18.8522 14.6726 19.6569 14.5216C20.2126 14.4174 20.3312 14.0415 20.175 12.8788C20.0198 11.7233 20.1186 11.2838 20.6391 10.8136C21.6166 9.93046 23.1535 9.87993 24.4374 10.6887C24.9338 11.0014 25.1356 11.0632 25.8337 11.1163C27.2201 11.2219 28.1629 11.9265 28.584 13.172C28.8806 14.0489 28.7144 14.7607 27.9633 15.8301C27.0983 17.0622 27.3725 18.0736 28.9223 19.3665C30.8257 20.9542 30.8609 21.6395 29.2094 24.9361C28.4405 26.4713 28.3344 26.7666 28.2286 27.668C28.1154 28.6331 28.0647 28.7158 27.3584 29.0835C26.2574 29.6568 26.2493 30.0741 27.325 30.8077C28.1689 31.3832 28.4915 31.8434 28.3361 32.25C28.1355 32.7745 27.6258 32.7539 26.7197 32.1847C25.0619 31.1433 24.3941 30.9873 23.2566 31.3762C22.3712 31.6789 22.1528 32.0257 22.2833 32.9217C22.425 33.895 22.5706 34.0691 24.1092 35.1075C24.6114 35.4464 25.1639 35.8289 25.3371 35.9577C25.8276 36.3223 25.9104 36.3484 26.7512 36.4027C27.1855 36.4307 27.9057 36.5001 28.3515 36.5568C29.7157 36.7306 30.179 36.5162 29.5846 35.9863C28.9009 35.3766 29.273 34.6036 30.3115 34.4762C30.4847 34.455 30.8814 34.3507 31.1931 34.2445C31.7126 34.0672 31.8045 34.0545 32.2964 34.0915C32.6947 34.1214 33.0604 34.0973 33.7132 33.9983C34.743 33.842 36.1773 33.8571 37.9621 34.0428C38.5554 34.1047 39.5549 34.1532 40.2919 34.156L41.5828 34.1609L42.181 33.915C43.4642 33.3873 44.4311 33.516 45.2034 34.3171C45.8759 35.0147 45.7282 34.9737 47.7221 35.0176C50.0842 35.0695 50.1868 35.1145 50.8711 36.3963C51.1614 36.94 51.2792 37.0966 51.5337 37.2778C52.7732 38.1603 52.7989 38.6692 51.7179 40.9409C50.9404 42.5748 50.8206 42.8944 50.684 43.7005C50.5394 44.5531 50.4625 44.7248 49.9727 45.2863C49.4449 45.8916 49.4192 45.9451 49.2908 46.7104C49.0652 48.055 48.4456 48.751 45.9903 50.4179C45.4652 50.7743 44.7533 51.3301 44.387 51.6695C43.4896 52.5012 43.3945 52.5388 41.9291 52.6403C39.8164 52.7869 39.6363 52.8587 38.8304 53.8753C38.2146 54.6525 38.0671 54.7422 36.3564 55.381C33.6726 56.3831 33.0014 56.4944 32.548 56.0119C32.018 55.4476 32.5141 54.5418 34.5661 52.3271C35.7003 51.1031 36.495 50.1249 36.8172 49.5565L37.0491 49.1472L37.0705 48.2619C37.1013 46.9836 36.9616 46.6307 36.2691 46.2389C35.4366 45.7679 35.0286 45.4787 34.6121 45.0645C34.3593 44.8133 33.7593 44.2833 33.2787 43.8866C32.602 43.3279 32.3393 43.0659 32.1134 42.7245C31.8605 42.3424 31.7633 42.2529 31.3826 42.0528C30.4444 41.5591 30.2804 41.0672 30.4622 39.2928C30.5655 38.2848 30.508 38.2456 28.8633 38.2022C28.1706 38.1839 27.3613 38.134 27.0651 38.0913C26.389 37.9939 26.2662 38.026 25.8416 38.4104C24.7085 39.4366 22.7968 39.4568 19.3517 38.4789C17.0502 37.8256 16.3535 37.414 16.0183 36.5096C15.789 35.8906 15.5928 35.7143 14.8486 35.4579C13.791 35.0933 12.8186 34.0759 11.0211 31.4533C10.6888 30.9684 10.1929 30.3332 9.91913 30.0417C9.30913 29.3925 9.18351 29.1284 8.90236 27.9036C8.67568 26.9166 8.61916 26.7354 8.19193 25.6288C7.5887 24.0659 7.58161 23.0822 8.16391 21.7248C8.32337 21.3531 8.48205 20.8258 8.5828 20.3322C8.92692 18.6477 8.76934 18.2745 7.40766 17.5478C6.42269 17.0222 6.3602 17.0691 5.63087 18.8848C-0.416231 33.9361 6.94942 51.1726 21.6277 56.3194C39.8861 62.7216 58.3377 47.7012 56.8535 27.6437C55.7854 13.2109 44.4711 2.12734 30.5949 1.92097C29.7118 1.90774 28.8383 1.92097 28.6536 1.95025ZM32.0463 2.14482C42.1455 2.9305 51.5814 10.1214 54.1752 19.0087C54.3695 19.6744 54.2599 20.7718 54.0143 20.62C53.9872 20.6033 53.9321 20.753 53.8915 20.9526C53.8511 21.1522 53.7626 21.4425 53.6951 21.5979C53.6274 21.7531 53.5968 21.8885 53.6269 21.8984C53.7096 21.926 53.6367 22.3156 53.5381 22.3733C53.4909 22.4011 53.452 22.4577 53.4519 22.4993C53.4515 22.5408 53.4092 22.6558 53.3577 22.7546C53.3061 22.8535 53.2787 22.9582 53.2968 22.9874C53.3149 23.0167 53.2722 23.204 53.202 23.4037C53.1318 23.6034 53.0744 23.8118 53.0744 23.8669C53.0744 23.9219 53.001 24.1212 52.9113 24.3098C52.8217 24.4985 52.6814 24.7945 52.5997 24.9676C52.5179 25.1408 52.3934 25.5183 52.323 25.8065C52.1919 26.343 52.0932 26.5267 51.6803 27.0034C51.5148 27.1943 51.423 27.3775 51.3736 27.6154C51.2807 28.0625 50.5557 29.1957 50.5557 28.8937C50.5557 28.7461 49.9982 29.3593 49.8081 29.716C49.7045 29.9104 49.5471 30.1377 49.458 30.2213C49.369 30.3049 49.2963 30.3983 49.2963 30.4286C49.2963 30.5519 48.6019 31.5263 48.417 31.6627C48.3077 31.7431 48.1171 31.9698 47.9932 32.1664C47.6777 32.6671 47.5548 32.7882 47.1338 33.0127C46.9306 33.1208 46.7216 33.2748 46.6693 33.3546C46.617 33.4344 46.5474 33.4997 46.5149 33.4997C46.4821 33.4997 46.3507 33.584 46.2227 33.6868C45.9806 33.8813 45.7873 33.8905 45.5812 33.7174C44.8437 33.0983 43.1908 33.0744 41.8031 33.663C41.2347 33.9041 40.4265 33.9251 38.1439 33.7577C35.9758 33.5988 34.6368 33.5893 33.7748 33.7269C33.4149 33.7842 32.8137 33.824 32.3715 33.8198C31.6707 33.8128 31.5466 33.8295 31.0492 33.9973C30.7474 34.0992 30.3304 34.2014 30.1226 34.2243C29.1307 34.3339 28.7098 34.9738 29.0286 35.8879C29.1671 36.2853 29.0423 36.3012 27.2359 36.1165L26.0493 35.9951L24.969 35.2831C22.8445 33.8826 22.8048 33.8468 22.6263 33.1759C22.3719 32.2201 22.564 31.869 23.5016 31.5767C24.5215 31.2587 25.0873 31.4212 26.7221 32.5008C27.4649 32.9913 27.4759 33.0089 27.1474 33.1778C26.0735 33.7302 26.3073 35.1918 27.4708 35.1984C28.5643 35.2046 29.0168 34.1694 28.2911 33.3215L28.0634 33.0555L28.3216 32.7753C28.8203 32.2342 28.6464 31.4752 27.9062 30.9621C26.5151 29.9976 26.4581 29.7993 27.4281 29.294C28.1939 28.8951 28.3833 28.6075 28.3906 27.8326C28.3964 27.2061 28.5719 26.6847 29.2438 25.2968C30.9157 21.8428 30.9655 20.8508 29.5244 19.6832C27.541 18.0761 27.2149 17.2102 28.1031 15.9094C28.8812 14.7697 29.0312 14.2151 28.8006 13.3299C28.4359 11.9298 27.3829 11.0862 25.8408 10.9587C25.1258 10.8997 25.0218 10.8673 24.5242 10.549C23.4081 9.8349 22.1545 9.75525 21.0271 10.3267C20.1613 10.7654 19.8114 11.4935 19.9573 12.5527C20.1643 14.0552 20.0892 14.3261 19.4658 14.3261C18.7763 14.3261 18.3812 13.7653 18.0624 12.3339C17.7004 10.7086 16.9051 10.2913 14.7212 10.5803C13.8825 10.6913 13.8913 10.7048 14.1909 9.77886C14.5109 8.79011 14.483 8.81136 15.0505 9.12274C16.429 9.8793 17.3932 9.73227 18.5712 8.58594C19.729 7.45929 20.2531 7.34894 21.8902 7.88779C23.335 8.36319 24.0984 8.42742 24.7705 8.13021C25.4819 7.81553 25.8049 7.11313 25.5354 6.46786C25.3629 6.05511 25.0866 5.89092 23.7306 5.39505C23.1606 5.18663 22.661 4.54027 22.661 4.01102C22.661 3.70988 22.7474 3.66155 23.4819 3.55214C24.3861 3.41755 24.4949 3.47344 24.6767 4.16671C24.9607 5.2507 26.993 6.26432 27.8366 5.74279C28.3935 5.39867 28.6065 4.35246 28.3584 3.18079C28.1859 2.36615 28.2385 2.21739 28.7271 2.13742C29.1474 2.06878 31.1252 2.07303 32.0463 2.14482ZM26.2627 3.22487C26.1193 3.36828 26.1738 3.71224 26.3712 3.9098C26.7997 4.33814 27.1399 3.83896 26.7868 3.30012C26.6786 3.13498 26.3935 3.09405 26.2627 3.22487ZM20.0122 4.6832C17.9985 5.39411 16.0997 6.68778 16.0997 7.34878C16.0997 8.13855 16.8812 8.04694 17.7232 7.15846C18.5024 6.33626 19.4054 6.01859 20.8568 6.0559C21.8682 6.08203 21.877 6.06991 21.4355 5.25967C21.0077 4.47509 20.8185 4.39859 20.0122 4.6832ZM20.9868 4.94389C21.1601 5.1309 21.3645 5.63575 21.3171 5.75948C21.2908 5.82796 21.122 5.84511 20.5397 5.83866C19.2067 5.82402 18.3725 6.13225 17.588 6.92942C17.029 7.49723 16.7995 7.64804 16.5788 7.59263C15.7084 7.37428 17.7093 5.81473 19.9845 4.93838C20.4982 4.7405 20.7998 4.74208 20.9868 4.94389ZM21.8665 11.4294C21.2868 11.7181 21.2042 12.0108 21.3744 13.1706C21.617 14.8254 20.9412 15.7428 19.4797 15.7428C18.0598 15.7428 17.1078 14.8558 16.7094 13.1612C16.4339 11.9893 16.2394 11.9138 14.5866 12.3368C13.619 12.5845 13.4472 12.6154 11.755 12.8474C9.98194 13.0906 9.11881 13.6317 8.50063 14.8874C8.20436 15.4891 8.26591 15.6692 8.9425 16.1822C10.3701 17.2645 10.708 18.3297 10.3508 20.6228C10.3023 20.9345 10.231 21.4436 10.1923 21.7544C10.1537 22.065 10.0602 22.4617 9.98446 22.6359C9.75856 23.1565 9.79178 23.6689 10.0863 24.2032C10.2173 24.4407 10.3634 24.7845 10.4111 24.9673C10.5227 25.3961 10.6518 25.6412 10.9255 25.9442C11.0829 26.1185 11.1428 26.24 11.1328 26.3655C11.101 26.7669 11.1435 26.8903 11.4212 27.203C11.5771 27.3785 11.7046 27.5499 11.7046 27.5839C11.7046 27.6179 11.7995 27.6911 11.9157 27.7464C12.1315 27.8493 12.3343 28.1177 12.3343 28.3005C12.3343 28.3565 12.4122 28.4321 12.5073 28.4683C12.7747 28.5698 12.8881 28.7035 12.9331 28.9698C12.9557 29.1043 13.0249 29.2789 13.0864 29.3577C13.1481 29.4367 13.2641 29.6288 13.3444 29.7846C13.4828 30.0537 13.4922 30.06 13.5291 29.9106C13.561 29.7813 13.5754 29.7724 13.6092 29.8605C13.6319 29.9196 13.7617 30.0245 13.8977 30.094C14.0336 30.1634 14.3396 30.4299 14.5776 30.6865C14.8157 30.9429 15.1273 31.2257 15.2704 31.3148C15.4134 31.4039 15.5914 31.5754 15.666 31.6962C15.7405 31.8168 15.905 31.9765 16.0316 32.0513C16.1698 32.1327 16.2337 32.2042 16.1918 32.2302C16.1507 32.2557 16.2562 32.3584 16.4484 32.48C16.6279 32.5938 16.8445 32.7884 16.9296 32.9126C17.1921 33.2956 17.9622 33.6463 18.2764 33.5257C18.492 33.4429 18.9306 33.7746 19.2755 34.2813C19.6739 34.8669 19.9168 35.0321 20.3186 34.9907C20.7272 34.9485 20.6983 35.1229 20.6155 33.2027C20.5523 31.7371 20.621 31.3591 21.0367 30.8869C21.5019 30.3584 22.626 29.9063 23.7815 29.7829C24.7612 29.6782 24.8171 29.6534 25.1062 29.1957C25.4149 28.707 25.6836 28.4485 26.2284 28.1166C26.7682 27.7878 26.8608 27.6559 27.0427 26.9552C27.2275 26.2435 27.3894 25.8778 28.0948 24.5769C29.5978 21.8054 29.6291 21.3618 28.3935 20.3415C26.2837 18.5994 25.8714 17.048 27.055 15.3065C28.2377 13.5662 27.5735 12.302 25.4001 12.1564C24.5552 12.0997 24.4085 12.0566 23.9705 11.7351C23.3039 11.2457 22.4765 11.1254 21.8665 11.4294ZM23.3851 11.6219C23.5582 11.703 23.8558 11.8694 24.0463 11.992C24.4437 12.2477 24.8546 12.3426 25.5638 12.3426C26.6597 12.3426 27.5095 13.0548 27.5095 13.9733C27.5095 14.2604 27.384 14.5224 26.9231 15.1975C25.6652 17.0397 26.1481 18.8028 28.3934 20.5668C29.4361 21.386 29.3533 21.8979 27.6863 24.939C27.1425 25.9305 27.0493 26.1492 26.8456 26.9108C26.6783 27.5359 26.5571 27.7061 26.1204 27.9284C25.6398 28.173 25.2058 28.5602 24.9616 28.9623C24.6766 29.4316 24.633 29.4555 23.9757 29.506C22.4569 29.6228 21.2055 30.1086 20.3381 30.9185L20.0617 31.1765L19.8973 31.0283C19.8069 30.9466 19.5842 30.8127 19.4024 30.7307C19.1264 30.6064 19.0718 30.5546 19.0718 30.4178C19.0718 30.1642 17.9612 29.1112 17.831 29.2414C17.673 29.3994 16.5531 28.5897 16.5531 28.3173C16.5531 28.0955 16.166 27.7067 15.9451 27.7067C15.758 27.7067 15.145 27.2453 15.0428 27.0274C14.8758 26.6718 14.8564 26.456 14.9894 26.4351C15.0935 26.4187 15.0649 26.3609 14.7924 26.0381C14.617 25.8303 14.4243 25.5787 14.3642 25.4792C14.304 25.3796 14.1433 25.1543 14.0072 24.9785C13.8233 24.7411 13.7454 24.5689 13.7047 24.3094C13.6427 23.9131 13.5321 23.7357 13.5281 24.0262L13.5258 24.212L13.4403 24.0231C13.3934 23.9192 13.2567 23.7582 13.1366 23.6653C12.9857 23.5485 12.8848 23.3939 12.8098 23.1649C12.7502 22.9826 12.5564 22.6257 12.3793 22.3719L12.057 21.9105L12.1702 21.7191C12.2798 21.5337 12.2793 21.5186 12.1567 21.2327C12.0822 21.0589 12.0438 20.8668 12.0635 20.7653C12.0873 20.6422 12.0673 20.5816 11.9936 20.5534C11.9155 20.5234 11.8998 20.4646 11.9286 20.3105C11.9613 20.1359 11.9305 20.0653 11.7098 19.8102C11.4319 19.4891 11.4288 19.4748 11.4236 18.4443C11.4217 18.0555 11.4356 17.9848 11.4979 18.0665C11.6051 18.2071 11.5967 18.1202 11.473 17.8113C11.3863 17.5946 11.3598 17.5689 11.3252 17.6679C11.2882 17.7732 11.2693 17.7621 11.1744 17.5788C11.0463 17.3309 11.0806 16.7233 11.2506 16.2271C11.3505 15.9352 11.3493 15.9099 11.2152 15.5344C10.9885 14.8999 10.9718 14.606 11.1429 14.2526C11.2797 13.97 11.2925 13.9599 11.328 14.1062C11.3584 14.2313 11.3888 14.172 11.4776 13.8132C11.6103 13.2772 11.6319 13.2649 12.901 13.0023C14.0297 12.769 14.4298 12.6702 15.1034 12.4585C16.0593 12.1581 16.2516 12.2606 16.4791 13.1911C16.9433 15.0908 17.9963 15.9974 19.6484 15.9196C20.5312 15.8779 21.0265 15.5768 21.4164 14.8438C21.5658 14.563 21.5878 14.0796 21.5212 12.549C21.4773 11.538 22.3145 11.1216 23.3851 11.6219ZM7.80121 18.4032C8.14281 18.6357 8.26607 18.8503 8.26072 19.2036C8.25489 19.5905 8.06111 20.4028 7.94761 20.5163C7.90133 20.5626 7.86355 20.6499 7.86355 20.7105C7.86355 20.771 7.78232 20.9116 7.68299 21.0228L7.50227 21.2251L7.4626 21.0263C7.44072 20.9169 7.42278 20.7459 7.42278 20.6465C7.42278 20.53 7.39003 20.4654 7.331 20.4654C7.09204 20.4654 6.75705 18.5076 6.96107 18.3036C7.06276 18.2017 7.59861 18.2653 7.80121 18.4032ZM28.1122 33.5822C28.5058 33.9207 28.3366 34.676 27.8334 34.8268C27.1567 35.0295 26.6232 34.562 26.812 33.9319C26.9547 33.4553 27.7242 33.2483 28.1122 33.5822ZM33.5859 35.9012C33.3088 35.969 32.906 36.0457 32.6908 36.0717C32.4756 36.0976 32.2798 36.1387 32.2557 36.1628C32.1877 36.2308 32.4249 36.4583 32.5724 36.4666C32.6632 36.4718 32.6456 36.4871 32.5154 36.5159C32.2486 36.5749 33.0064 36.7497 33.7672 36.8046C34.3512 36.8468 34.7434 36.6772 34.6464 36.4244C34.6267 36.3734 34.7139 36.2903 34.8715 36.21C35.1601 36.0628 35.178 36.0199 35.0135 35.8708C34.8565 35.7288 34.2366 35.742 33.5859 35.9012ZM28.5296 38.7654C28.5684 38.7893 28.8653 38.8035 29.1893 38.7967C29.8508 38.7829 29.9174 38.8262 29.7727 39.1758L29.6916 39.3713L29.1613 39.3282C28.7532 39.2951 28.6416 39.3028 28.678 39.3616C28.7142 39.4203 28.5746 39.4291 28.07 39.3998C27.3805 39.3598 27.1136 39.3101 27.1627 39.2304C27.1791 39.2041 27.0866 39.1649 26.9574 39.1432C26.5983 39.0832 26.5265 39.0179 26.6123 38.8298L26.684 38.6725L27.5715 38.6971C28.0595 38.7106 28.4907 38.7413 28.5296 38.7654Z" fill="#6796B6"/>
<path fill-rule="evenodd" clip-rule="evenodd" d="M25.8722 0.108086C22.6294 0.722965 19.9363 1.48991 18.8598 2.10479C18.7166 2.18665 18.4436 2.30314 18.2532 2.3639C17.8522 2.49173 16.8882 2.96241 16.5215 3.2094C16.383 3.30259 16.0444 3.49921 15.7691 3.64608C15.1133 3.99603 12.877 5.48757 12.5546 5.78998C12.416 5.91985 12.2035 6.09175 12.0823 6.17203C11.9611 6.25216 11.5076 6.66035 11.0745 7.07908C10.6413 7.49782 10.1457 7.93985 9.97321 8.06138C9.80052 8.18291 9.55983 8.42266 9.4383 8.59409C9.31677 8.76552 8.94101 9.19448 8.60335 9.5471C8.26569 9.89988 7.98942 10.2169 7.98942 10.2517C7.98942 10.2865 7.82649 10.5007 7.62735 10.7281C7.06033 11.3752 6.00389 12.8619 5.72903 13.3999C5.66339 13.5284 5.51179 13.7787 5.39216 13.9563C5.12265 14.3564 4.02749 16.5642 3.80631 17.1534C3.71658 17.3924 3.58593 17.6803 3.51619 17.7934C3.33248 18.0904 2.42968 20.7969 2.12665 21.9591C1.71941 23.5201 1.44062 24.9909 1.44077 25.5779C1.44077 25.8244 1.34931 26.4204 1.22039 27.014L1 28.0288V29.8238C1 31.6697 1.0244 31.909 1.32633 33.0274C1.3638 33.166 1.41669 33.5485 1.44408 33.8775C1.56655 35.3535 1.7882 36.6821 2.0662 37.6055C2.13184 37.8235 2.20489 38.1011 2.22881 38.2223C2.52775 39.7433 4.63355 44.8237 5.37374 45.8099C5.45166 45.9138 5.58027 46.1263 5.65961 46.2821C5.89322 46.7415 7.17036 48.6101 7.49827 48.9721C7.6645 49.1557 7.80051 49.3306 7.80051 49.3608C7.80051 49.391 8.0272 49.6597 8.30425 49.958C8.58131 50.2564 8.808 50.5326 8.808 50.5718C8.808 50.6888 10.8908 52.7666 11.2323 52.9903C11.4054 53.1036 11.6604 53.3152 11.799 53.4601C11.9375 53.6053 12.1783 53.811 12.3342 53.9176C12.49 54.0242 12.734 54.2169 12.8763 54.3458C13.1753 54.6166 15.0671 55.8932 15.4845 56.1059C15.6392 56.1848 15.8509 56.3134 15.9548 56.3918C16.1724 56.5561 18.3618 57.639 18.9182 57.8577C19.1238 57.9384 19.5046 58.0889 19.7644 58.1922C21.4677 58.8686 23.1132 59.3502 24.8648 59.6848C25.2284 59.7542 25.6959 59.8471 25.9037 59.8912C26.4308 60.0031 32.5219 60.0461 33.1087 59.9422C33.3364 59.9017 33.8628 59.8482 34.2784 59.823C36.936 59.6625 42.7073 57.7207 44.4792 56.391C44.5831 56.3131 44.7956 56.1844 44.9515 56.1051C45.2222 55.9675 46.3835 55.2146 46.7146 54.9619C46.8011 54.896 46.9979 54.7507 47.152 54.6392C47.306 54.5276 47.5963 54.2877 47.7968 54.1059C47.9975 53.9241 48.1956 53.7753 48.237 53.7753C48.3556 53.7753 52.3664 49.7526 52.6316 49.3676C52.7628 49.1771 52.9339 48.9646 53.0118 48.8953C53.1385 48.7828 53.3534 48.4838 54.2874 47.121C54.4341 46.9069 54.6718 46.5386 54.8157 46.3025C55.1341 45.7795 56.8524 42.3401 56.8524 42.2256C56.8524 42.1806 56.9337 41.9627 57.0331 41.7414C57.1326 41.5202 57.3992 40.7583 57.6259 40.0483C58.3093 37.9078 58.3153 37.8859 58.7175 36.0184C58.7735 35.7587 58.8621 35.3761 58.9145 35.1683C58.967 34.9606 59.0321 34.3513 59.0595 33.8145C59.0957 33.101 59.1482 32.7032 59.2544 32.3348C59.4932 31.5068 59.4761 28.1001 59.2281 27.1247C59.1035 26.634 59.0562 26.2919 59.0562 25.8786C59.0562 25.4642 58.9973 25.0387 58.8406 24.3196C58.722 23.7756 58.606 23.2312 58.5829 23.11C58.3811 22.0534 57.3581 18.6875 57.069 18.1282C57.0183 18.0303 56.9059 17.7535 56.8193 17.5135C56.4103 16.3796 54.3118 12.5382 53.9269 12.2188C53.8694 12.171 53.6547 11.8733 53.4499 11.557C53.2451 11.2409 53.0028 10.9129 52.9115 10.828C52.8202 10.7433 52.6378 10.5181 52.5062 10.3276C52.3746 10.1371 52.0635 9.78292 51.8149 9.54049C51.5664 9.29807 51.2558 8.94387 51.1245 8.75339C50.872 8.38661 50.2316 7.74591 50.1176 7.74591C50.0803 7.74591 49.7175 7.42525 49.311 7.03343C48.9046 6.64146 48.4729 6.25452 48.3517 6.17361C48.2305 6.09254 48.018 5.92079 47.8795 5.79202C47.7409 5.66325 47.3867 5.39564 47.0924 5.19745C46.798 4.99942 46.4863 4.77069 46.3997 4.68946C46.3131 4.60823 46.0439 4.43161 45.8015 4.2967C45.3396 4.03995 44.8817 3.76541 44.3533 3.42853C43.9819 3.19177 42.5961 2.49315 42.3698 2.42845C42.2832 2.40373 41.9715 2.2737 41.6771 2.13958C40.5728 1.63631 39.2008 1.15146 37.962 0.826862C37.0416 0.585696 35.1838 0.190416 34.956 0.187583C34.8604 0.186323 34.6122 0.144292 34.4044 0.0940756C33.8595 -0.0375269 26.5767 -0.0255631 25.8722 0.108086ZM33.1844 1.7273C46.5319 3.39185 56.5109 14.3092 57.3624 28.1789C58.4947 46.6226 42.5207 61.2696 25.0851 57.775C7.88694 54.3282 -1.71296 35.1351 5.38192 18.3826C6.2057 16.437 6.33289 16.3663 7.62609 17.1325C9.13999 18.0295 9.36022 18.4843 9.06333 20.1002C8.89426 21.0204 8.77761 21.4463 8.54699 21.9859C8.01649 23.2271 8.05081 24.01 8.70992 25.6917C8.89977 26.1764 9.14519 26.9748 9.28073 27.5493C9.58911 28.8568 9.70025 29.0978 10.2717 29.7004C10.5291 29.9718 10.9623 30.5198 11.2345 30.918C13.0624 33.594 14.1078 34.7101 15.095 35.0394C15.941 35.3217 16.1579 35.5254 16.455 36.3161C16.7452 37.089 17.6381 37.5471 20.1107 38.1924C22.9945 38.9447 24.5551 38.9145 25.4669 38.0882C26.0739 37.538 26.1989 37.5112 27.3054 37.6938C27.7 37.7588 28.3574 37.7982 29.1494 37.804C30.9866 37.8174 30.9966 37.8294 30.8838 39.8909C30.8199 41.0601 30.8818 41.1983 31.6582 41.6194C32.1289 41.8747 32.2186 41.9537 32.484 42.3467C32.6603 42.6078 32.9712 42.9449 33.2467 43.1734C33.5025 43.3858 33.9101 43.7236 34.1525 43.9242C34.3949 44.1247 34.8058 44.4898 35.0655 44.7355C35.3525 45.007 35.801 45.3359 36.2089 45.5742C37.3977 46.2686 37.5842 46.6118 37.5842 48.104C37.5842 49.6685 37.1942 50.3288 34.7173 52.9567C33.3119 54.4478 32.7382 55.3323 32.9844 55.6291C33.2171 55.9093 33.6532 55.8214 35.6108 55.1001C37.6404 54.3522 37.824 54.2495 38.4343 53.5181C39.3223 52.4544 39.6375 52.3037 41.1972 52.198C43.1424 52.0659 43.2521 52.028 44.1751 51.1692C44.5264 50.8424 45.0787 50.3979 45.4021 50.1814C47.9012 48.5096 48.6409 47.7202 48.7931 46.5622C48.8871 45.8477 49.0083 45.5719 49.4524 45.0628C49.9662 44.4736 50.089 44.2176 50.2058 43.4922C50.3341 42.6944 50.3982 42.5195 51.1188 40.9988C52.2057 38.7056 52.2269 38.3835 51.3287 37.8073C50.9553 37.5679 50.7061 37.2523 50.3881 36.6166C49.8708 35.5822 49.4806 35.4408 47.2183 35.4682C45.7141 35.4865 45.6425 35.4627 44.9156 34.7036C44.3561 34.1191 44.1828 34.0385 43.5032 34.0466C43.0376 34.0521 42.8518 34.1007 41.9605 34.4507C41.4942 34.6338 39.9632 34.6497 38.4658 34.4869C36.0725 34.2267 34.6528 34.2067 33.5535 34.4179C33.1702 34.4916 32.85 34.5099 32.4209 34.4828C31.8831 34.4488 31.7781 34.4611 31.3819 34.6046C31.1395 34.6925 30.7053 34.8038 30.4173 34.8521C29.5636 34.995 29.4664 35.2562 30.0583 35.8172C31.0642 36.7707 30.3203 37.2094 28.1748 36.928C27.7644 36.8743 27.0343 36.8076 26.5523 36.7797L25.6759 36.7293L25.3175 36.4735C25.1204 36.3328 24.4917 35.8967 23.9202 35.5043C22.1997 34.3228 21.9566 33.9893 21.8637 32.6822C21.7776 31.468 22.6225 30.8321 24.3295 30.8261C25.1314 30.8233 25.2484 30.8672 26.5937 31.6774C27.4787 32.2103 27.6396 32.2762 27.8198 32.1797C28.1575 31.999 27.9174 31.6557 27.0124 31.0252C25.7252 30.1281 25.7742 29.4534 27.1772 28.7526C27.7166 28.4831 27.7973 28.3585 27.8567 27.7038C27.9381 26.8077 28.056 26.4642 28.8287 24.8731C30.4941 21.4441 30.4826 21.2608 28.4871 19.491C26.8424 18.032 26.6804 16.9542 27.8549 15.2846C29.0339 13.6088 27.9256 11.6337 25.7112 11.464C24.9265 11.4037 24.8201 11.3703 24.2074 10.9908C23.1073 10.3095 21.9769 10.3021 21.0464 10.9703C20.4803 11.3769 20.3821 11.8006 20.5644 13.0508C20.7577 14.377 20.2963 15.0492 19.3008 14.8916C18.4073 14.7504 17.9566 14.1976 17.6208 12.8313C17.1937 11.0926 16.5596 10.7781 14.5066 11.2861C13.4752 11.5413 11.2053 11.7751 10.6161 11.6867C9.89309 11.5783 9.88159 10.9374 10.5925 10.3649C10.862 10.148 11.3371 10.1099 12.312 10.2273C13.3239 10.3492 13.6063 10.0198 13.8144 8.47571C14.0093 7.02981 14.4754 6.83587 15.0418 7.96551C15.6901 9.2584 16.9952 9.35316 18.1272 8.18952C19.38 6.90183 20.1715 6.74457 22.1439 7.3914C23.7244 7.90963 24.3458 7.92631 24.8363 7.46382C25.4097 6.92292 25.0628 6.43083 23.8189 6.02075C22.8806 5.71142 22.5309 5.39108 22.1608 4.50213C21.6917 3.37517 21.9114 3.02994 23.1017 3.02444C23.3268 3.02349 23.6781 2.99531 23.8823 2.96178C24.6017 2.84403 25.056 3.09543 25.1478 3.6623C25.2569 4.33605 25.5402 4.64176 26.5465 5.17116C27.6983 5.77707 28.2686 4.74975 27.7364 3.02806C27.4606 2.13596 27.6161 1.76162 28.3003 1.6711C28.4714 1.64859 28.6538 1.61915 28.7058 1.60562C28.9545 1.54155 32.4582 1.63663 33.1844 1.7273ZM26.8846 2.66284C27.6972 3.21035 27.6771 4.72346 26.8572 4.72346C26.1885 4.72346 25.6833 4.16746 25.6833 3.43152C25.6833 2.64364 26.285 2.25875 26.8846 2.66284ZM21.1749 4.05569C21.4239 4.15959 21.6142 4.40201 21.9385 5.02712C22.2708 5.66798 22.6285 6.04358 23.1782 6.32882C23.8727 6.68947 23.9931 6.84532 23.7583 7.08018C23.6049 7.23351 23.3113 7.2014 22.1074 6.89963C19.9353 6.35511 19.282 6.47979 18.0359 7.67696C17.2584 8.42392 16.9275 8.57362 16.357 8.43682C15.3426 8.19345 15.1641 7.08695 16.0143 6.31292C17.4605 4.99658 20.3755 3.72164 21.1749 4.05569ZM49.5166 7.43107C49.6871 7.60423 49.8126 7.74591 49.7952 7.74591C49.7779 7.74591 49.6241 7.60423 49.4536 7.43107C49.2832 7.25791 49.1577 7.11623 49.175 7.11623C49.1923 7.11623 49.3461 7.25791 49.5166 7.43107ZM11.0748 7.32308C11.0748 7.33284 10.9119 7.49577 10.7128 7.68515L10.3507 8.02927L10.6948 7.6672C11.0147 7.3308 11.0748 7.27633 11.0748 7.32308ZM23.4795 10.9932C23.6353 11.0547 23.9711 11.2409 24.2255 11.4072C24.7229 11.7322 24.736 11.7357 25.7791 11.8254C27.2238 11.9496 27.9823 12.6807 27.9812 13.9482C27.9807 14.5918 27.9253 14.7333 27.3523 15.5539C26.2252 17.1679 26.6364 18.3434 29.0313 20.3531C30.0135 21.1774 29.9141 21.9831 28.4824 24.8037C27.7987 26.1507 27.6712 26.4513 27.5052 27.1067C27.2856 27.9733 27.1639 28.1695 26.6403 28.5005C26.16 28.8042 25.9004 29.0545 25.6355 29.4698C25.1917 30.1651 25.1173 30.2089 24.2363 30.2935C22.9509 30.417 21.746 30.9331 21.467 31.4799C21.2337 31.9372 21.3324 33.5129 21.6377 34.2029C21.819 34.6128 22.3054 35.0545 23.3765 35.7815C24.7531 36.7161 24.9277 36.8938 24.9277 37.3606C24.9277 38.4811 22.2735 38.3624 18.661 37.0804C17.4813 36.6618 17.3406 36.5522 16.9308 35.7351C16.5396 34.9547 16.3296 34.7753 15.4884 34.5018C14.4941 34.1787 13.3698 32.9846 11.6456 30.4204C11.4323 30.1031 11.0605 29.6272 10.8195 29.3627C10.3028 28.7959 10.1283 28.4525 9.94614 27.6437C9.81548 27.0633 9.56676 26.2776 9.09576 24.9572C8.6882 23.8151 8.69261 23.1217 9.11244 22.2666C9.39769 21.6854 9.75251 19.8526 9.75251 18.9598C9.75251 18.1562 9.22421 17.4102 8.25026 16.8386C6.80657 15.9914 6.80342 15.1076 8.23924 13.6584C9.39973 12.4872 9.79863 12.3282 12.0193 12.1516C13.0811 12.0672 13.9018 11.9402 14.6325 11.747C16.3119 11.3034 16.8732 11.5506 17.1807 12.8691C17.5575 14.4853 18.3666 15.3247 19.5517 15.3285C20.6993 15.3323 21.1673 14.537 20.9384 12.9722C20.8709 12.511 20.8588 12.2254 20.8984 12.0277C20.9298 11.8719 20.9565 11.7241 20.9581 11.6993C20.9956 11.0838 22.5825 10.6393 23.4795 10.9932ZM59.2911 29.9564C59.2774 30.087 59.2661 29.9956 59.2657 29.7531C59.2654 29.5107 59.2766 29.4038 59.2906 29.5156C59.3045 29.6273 59.3048 29.8257 59.2911 29.9564ZM27.318 33.9299C27.0098 34.1794 27.3564 34.5629 27.7344 34.3905C27.9294 34.3018 27.9491 33.9779 27.7654 33.8797C27.5908 33.7862 27.48 33.7986 27.318 33.9299ZM44.0028 34.7885C44.1011 34.8392 44.3334 35.0465 44.5192 35.2491C45.2872 36.0863 45.4728 36.1477 47.4072 36.202C49.3117 36.2556 49.359 36.2775 49.9012 37.3552C50.0657 37.6822 50.33 38.073 50.5535 38.3196C51.1598 38.9886 51.1813 38.8671 50.0293 41.2762C49.5486 42.2818 49.4763 42.4798 49.3888 43.0321C49.2723 43.7667 49.167 43.9941 48.6957 44.5287C48.2006 45.0902 48.0551 45.406 47.9408 46.1669C47.7678 47.3189 47.3299 47.7836 44.8142 49.4856C44.4443 49.7358 43.8694 50.1934 43.5366 50.5024C42.7901 51.1957 42.6684 51.2385 41.2049 51.3219C39.898 51.3964 39.6285 51.4472 39.0593 51.7267C38.6123 51.9459 38.5165 52.0341 37.6245 53.0463C37.1502 53.5844 36.4033 53.9642 35.8189 53.9642C35.3333 53.9642 35.3495 53.6873 35.8717 53.0666C36.0344 52.8733 36.4521 52.3788 36.8 51.968C38.3542 50.1321 38.497 49.7876 38.4505 47.9821C38.4019 46.0899 38.1979 45.76 36.504 44.8339C36.1901 44.6623 35.7857 44.3629 35.4784 44.0743C35.1993 43.8126 34.6079 43.3069 34.164 42.9508C33.5201 42.4343 33.301 42.2159 33.0795 41.8706C32.8069 41.4451 32.6336 41.297 32.0431 40.9851C31.5535 40.7265 31.465 40.4587 31.5146 39.3872C31.5521 38.5782 31.5384 38.4014 31.3492 37.2405C31.0482 35.3942 31.2322 35.0739 32.5936 35.0739C32.8311 35.0739 33.279 35.0179 33.5889 34.9494C34.2929 34.7937 35.9562 34.7776 37.2869 34.9135C40.9308 35.2855 41.4601 35.287 42.4707 34.9284C43.1638 34.6824 43.7026 34.6331 44.0028 34.7885Z" fill="#2F2C40"/>
<path fill-rule="evenodd" clip-rule="evenodd" d="M29.304 2.49902C28.788 2.53665 28.8009 2.50548 28.7962 3.73508C28.788 5.85064 28.1324 6.53525 26.5155 6.11604C26.2328 6.04285 25.9719 5.98287 25.9357 5.98287C25.8917 5.98287 25.8832 6.17602 25.9099 6.56532C26.0426 8.48599 24.6205 9.06451 21.794 8.23979C20.2416 7.78658 19.9272 7.86403 18.8514 8.96376C18.3546 9.47159 18.0475 9.73008 17.7652 9.87758C17.2915 10.125 17.2944 10.1002 17.694 10.4874C18.0996 10.8807 18.2223 11.1527 18.4106 12.0759C18.6482 13.2405 18.8544 13.7077 19.2125 13.893C19.6471 14.1177 19.7901 13.8502 19.6541 13.0659C19.5267 12.3321 19.5717 11.3828 19.7514 11.014C20.4708 9.53661 22.8624 9.17848 24.6605 10.2788C25.1559 10.582 25.2091 10.5995 25.7939 10.6524C27.4635 10.8032 28.5423 11.5983 29.0204 13.0308C29.3472 14.0098 29.172 14.8612 28.4146 15.9741C27.5685 17.2176 27.8125 17.9167 29.5861 19.3309C31.2013 20.6191 31.2362 21.815 29.7516 24.9873C29.4973 25.5306 29.2296 26.1026 29.1567 26.2585C28.8935 26.8208 28.8256 27.1147 28.7932 27.8327C28.7365 29.0878 28.6309 29.3129 27.9328 29.6668C27.6185 29.8261 27.5543 29.9073 27.6508 30.0236C27.739 30.1299 28.3147 30.4268 28.4855 30.454C29.2082 30.5695 29.6878 30.5993 30.8467 30.6009C31.5913 30.6018 32.2997 30.5771 32.4209 30.5461C32.8814 30.4283 33.1136 30.417 33.1136 30.5127C33.1136 30.6174 33.2434 30.6265 33.5544 30.5439C33.6756 30.5118 33.8952 30.4542 34.0424 30.4159C34.196 30.3761 34.31 30.3092 34.31 30.2588C34.31 30.1574 34.3644 30.1373 34.9973 30.0054C35.254 29.9518 35.7074 29.799 36.0047 29.6656C36.3021 29.5323 36.6162 29.4018 36.7027 29.3755C36.7893 29.3492 36.9664 29.2741 37.0963 29.2087C37.2938 29.109 37.3324 29.1048 37.3324 29.183C37.3324 29.3115 37.7477 29.069 37.7888 28.9166C37.8048 28.8573 38.0416 28.6826 38.315 28.5285C38.5885 28.3743 38.9782 28.1264 39.1811 27.9775C39.3996 27.8172 39.6191 27.7067 39.7194 27.7067C39.8349 27.7067 39.9673 27.625 40.1375 27.4486C40.2743 27.3066 40.5365 27.1048 40.7202 26.9999C40.9038 26.8952 41.173 26.6662 41.3184 26.491C41.4637 26.3158 41.74 26.0006 41.9324 25.7905C42.6771 24.9766 42.8106 24.7968 42.8106 24.6079C42.8106 24.3631 43.3716 23.4827 43.5032 23.5209C43.6281 23.5575 44.0122 22.9599 44.2952 22.2888C44.4149 22.005 44.5669 21.6968 44.6329 21.6041C44.699 21.5113 44.8289 21.1719 44.9214 20.85C45.0142 20.5281 45.1555 20.1185 45.2358 19.94C45.422 19.526 45.635 18.3338 45.5341 18.2713C45.4836 18.2402 45.4798 18.0933 45.521 17.7566C45.599 17.1196 45.6319 17.0022 45.7325 17.0022C45.9159 17.0022 45.9758 15.8765 45.8016 15.7024C45.7419 15.6427 45.7071 15.4877 45.7071 15.2818C45.707 14.7415 45.5823 13.5944 45.4811 13.2029C45.4195 12.9654 45.4072 12.8095 45.4461 12.7621C45.551 12.6346 45.3828 11.3981 45.2607 11.3981C45.1706 11.3981 45.019 11.0478 45.0529 10.9183C45.1351 10.6044 43.819 7.60366 43.6904 7.81177C43.6649 7.85317 43.5361 7.71842 43.3767 7.48339C43.2279 7.2641 43.0398 7.00468 42.9584 6.90676C42.8772 6.80885 42.8106 6.66245 42.8106 6.58122C42.8106 6.25961 41.7032 5.45787 40.3549 4.80364C38.2884 3.80088 36.2349 3.15578 33.8018 2.74507C32.8164 2.57868 30.1845 2.43464 29.304 2.49902ZM23.5267 4.00568C22.8667 4.2086 23.5918 5.1613 24.4083 5.16366C24.6532 5.16445 24.6512 5.17987 24.4573 4.81513C24.3716 4.65393 24.2833 4.4252 24.2609 4.30651C24.1911 3.93406 24.0062 3.85818 23.5267 4.00568ZM22.2443 12.0183C21.9864 12.1805 21.9516 12.3525 22.0361 13.0483C22.1953 14.3563 22.025 15.0014 21.2544 16.0108L20.8816 16.4991L20.926 16.8915C20.9783 17.3534 21.211 18.075 21.6327 19.0833C21.9566 19.8581 22.047 20.0192 22.4078 20.4654C22.5337 20.6213 22.7467 20.8875 22.881 21.057C23.0819 21.3108 23.1321 21.3454 23.1644 21.2533C23.21 21.1233 23.6231 21.5861 23.5913 21.7314C23.5688 21.8339 24.4308 22.4906 24.5356 22.4507C24.5797 22.434 24.8012 22.5471 25.0277 22.7022C25.3396 22.9158 25.4049 22.9841 25.2969 22.9841C25.0702 22.9841 25.2379 23.1011 25.7103 23.2725C25.9411 23.3564 26.257 23.4249 26.4124 23.4249C26.7194 23.4249 27.1316 23.5674 27.1316 23.6736C27.1316 23.7689 27.3602 23.755 27.5688 23.6472C27.9872 23.4307 28.7058 22.1884 28.7058 21.6812C28.7058 21.3641 28.7345 21.3989 27.6176 20.3582C25.761 18.6282 25.4274 16.8045 26.649 15.0627C27.336 14.0832 27.3725 13.6637 26.8192 13.1102C26.4579 12.7491 26.2972 12.6993 25.3371 12.6522C24.3814 12.6052 24.1723 12.5487 23.5184 12.1602C23.0506 11.8823 22.5495 11.8264 22.2443 12.0183Z" fill="#E1EAF0"/>
<path fill-rule="evenodd" clip-rule="evenodd" d="M19.9844 4.9383C17.7092 5.81465 15.7082 7.3742 16.5786 7.59254C16.7993 7.64795 17.0288 7.49715 17.5878 6.92934C18.3724 6.13216 19.2065 5.82394 20.5396 5.83858C21.3912 5.84802 21.4125 5.83433 21.2414 5.38647C21.0038 4.76451 20.7086 4.65919 19.9844 4.9383ZM22.2287 11.4913C21.6297 11.6344 21.4904 11.8427 21.5211 12.5489C21.5877 14.0795 21.5656 14.5629 21.4162 14.8437C21.0263 15.5767 20.5311 15.8778 19.6483 15.9195C17.9962 15.9973 16.9432 15.0907 16.4789 13.191C16.2515 12.2605 16.0591 12.158 15.1033 12.4584C14.4297 12.6701 14.0295 12.769 12.9008 13.0023C11.6317 13.2648 11.6101 13.2771 11.4774 13.8131C11.3886 14.1719 11.3583 14.2312 11.3279 14.1061C11.2923 13.9598 11.2795 13.9699 11.1427 14.2525C10.9716 14.6059 10.9883 14.8998 11.215 15.5343C11.3491 15.9098 11.3504 15.9351 11.2504 16.227C11.0804 16.7232 11.0461 17.3308 11.1742 17.5787C11.2692 17.762 11.288 17.7732 11.325 17.6678C11.3597 17.5688 11.3861 17.5945 11.4729 17.8113C11.5966 18.1201 11.6049 18.207 11.4977 18.0664C11.4354 17.9847 11.4215 18.0554 11.4234 18.4442C11.4286 19.4747 11.4318 19.489 11.7096 19.8102C11.9303 20.0652 11.9612 20.1359 11.9284 20.3104C11.8996 20.4646 11.9154 20.5233 11.9934 20.5533C12.0671 20.5815 12.0871 20.6421 12.0633 20.7652C12.0437 20.8668 12.0821 21.0588 12.1565 21.2326C12.2792 21.5185 12.2796 21.5336 12.1701 21.719L12.0569 21.9104L12.3791 22.3718C12.5562 22.6256 12.75 22.9825 12.8097 23.1648C12.8846 23.3938 12.9855 23.5484 13.1365 23.6652C13.2566 23.7581 13.3932 23.9191 13.4401 24.023L13.5256 24.2119L13.528 24.0262C13.5319 23.7356 13.6426 23.913 13.7046 24.3094C13.7452 24.5688 13.8231 24.741 14.007 24.9784C14.1432 25.1542 14.3039 25.3795 14.364 25.4791C14.4242 25.5786 14.6168 25.8302 14.7922 26.038C15.0647 26.3609 15.0933 26.4186 14.9893 26.435C14.8563 26.4559 14.8756 26.6718 15.0427 27.0274C15.1448 27.2452 15.7578 27.7066 15.945 27.7066C16.1658 27.7066 16.5529 28.0955 16.5529 28.3173C16.5529 28.5896 17.6728 29.3994 17.8309 29.2413C17.961 29.1111 19.0716 30.1641 19.0716 30.4177C19.0716 30.5545 19.1263 30.6063 19.4022 30.7307C19.584 30.8127 19.8068 30.9465 19.8971 31.0282L20.0615 31.1765L20.3379 30.9185C21.2053 30.1085 22.4568 29.6227 23.9756 29.5059C24.6328 29.4554 24.6764 29.4315 24.9615 28.9622C25.2056 28.5602 25.6396 28.1729 26.1202 27.9283C26.5569 27.706 26.6781 27.5358 26.8455 26.9107C27.0492 26.1491 27.1424 25.9305 27.6861 24.9389C28.2744 23.8656 28.8047 22.8112 28.8592 22.6062C28.8822 22.5197 28.7926 22.6472 28.6599 22.8896C27.9364 24.2124 26.9919 25.3768 26.6424 25.3768C26.3677 25.3768 25.364 25.0303 24.7872 24.7363C24.5009 24.5902 24.2345 24.4767 24.1955 24.4839C24.1564 24.4913 24.036 24.4147 23.9279 24.3136C23.688 24.0894 23.3176 23.8656 23.1867 23.8656C23.1337 23.8656 22.9566 23.731 22.7933 23.5665C22.6299 23.402 22.413 23.1937 22.311 23.1035C21.3667 22.2692 20.3976 20.9889 20.1057 20.1895C20.0283 19.9777 19.8822 19.6477 19.781 19.4563C19.6799 19.265 19.5486 18.9108 19.4893 18.6692C19.4301 18.4277 19.338 18.0926 19.2848 17.9246C19.1516 17.5044 19.1335 17.4095 19.0957 16.928C19.057 16.4338 19.0539 16.4368 19.8069 16.2396C21.3936 15.824 21.8995 14.8327 21.6351 12.6573C21.5312 11.8032 22.3044 11.3102 23.2905 11.602C23.4 11.6344 23.3904 11.6226 23.259 11.5633C22.9621 11.4293 22.5955 11.4037 22.2287 11.4913Z" fill="#8ED3B8"/>
<path fill-rule="evenodd" clip-rule="evenodd" d="M28.7058 1.60558C28.6538 1.61912 28.4714 1.64856 28.3002 1.67107C27.6161 1.76159 27.4606 2.13593 27.7364 3.02802C28.2686 4.74972 27.6983 5.77704 26.5464 5.17113C25.5402 4.64173 25.2569 4.33602 25.1478 3.66227C25.056 3.0954 24.6017 2.844 23.8823 2.96175C23.6781 2.99528 23.3267 3.02346 23.1016 3.0244C21.9114 3.02991 21.6916 3.37513 22.1607 4.5021C22.5308 5.39104 22.8806 5.71139 23.8188 6.02072C25.0628 6.4308 25.4097 6.92289 24.8362 7.46378C24.3457 7.92628 23.7244 7.9096 22.1439 7.39137C20.1714 6.74453 19.3799 6.9018 18.1272 8.18949C16.9952 9.35313 15.69 9.25836 15.0418 7.96548C14.4754 6.83584 14.0093 7.02978 13.8144 8.47567C13.6063 10.0198 13.3239 10.3491 12.312 10.2273C11.3371 10.1098 10.862 10.1479 10.5925 10.3649C9.88157 10.9374 9.89306 11.5783 10.6161 11.6867C11.2053 11.775 13.4751 11.5413 14.5065 11.2861C16.5596 10.7781 17.1937 11.0926 17.6208 12.8313C17.9565 14.1975 18.4072 14.7504 19.3007 14.8916C20.2963 15.0492 20.7577 14.377 20.5644 13.0508C20.3821 11.8005 20.4803 11.3769 21.0464 10.9703C21.9769 10.3021 23.1073 10.3095 24.2073 10.9908C24.82 11.3703 24.9264 11.4037 25.7112 11.464C27.9256 11.6337 29.0338 13.6088 27.8549 15.2845C26.6804 16.9541 26.8424 18.032 28.4871 19.4909C30.4826 21.2608 30.494 21.444 28.8287 24.8731C28.0559 26.4641 27.938 26.8076 27.8566 27.7038C27.7973 28.3585 27.7165 28.483 27.1772 28.7525C25.7741 29.4534 25.7252 30.1281 27.0124 31.0252C27.9174 31.6557 28.1575 31.999 27.8198 32.1797C27.6396 32.2762 27.4787 32.2102 26.5937 31.6774C25.2484 30.8671 25.1314 30.8232 24.3295 30.8261C22.6224 30.832 21.7776 31.468 21.8637 32.6822C21.9566 33.9892 22.1996 34.3228 23.9202 35.5042C24.4916 35.8967 25.1204 36.3327 25.3175 36.4735L25.6759 36.7293L26.5523 36.7797C27.0343 36.8075 27.7644 36.8743 28.1748 36.9279C30.3203 37.2094 31.0642 36.7707 30.0583 35.8172C29.4664 35.2562 29.5635 34.995 30.4172 34.8521C30.7053 34.8037 31.1395 34.6924 31.3819 34.6046C31.7781 34.461 31.8831 34.4487 32.4209 34.4828C32.85 34.5098 33.1702 34.4916 33.5535 34.4179C34.6527 34.2066 36.0725 34.2266 38.4658 34.4868C39.9631 34.6496 41.4942 34.6337 41.9605 34.4506C42.8518 34.1007 43.0375 34.0521 43.5032 34.0465C44.1828 34.0385 44.3561 34.1191 44.9155 34.7036C45.6425 35.4627 45.7141 35.4865 47.2183 35.4682C49.4805 35.4408 49.8708 35.5822 50.3881 36.6166C50.7061 37.2522 50.9552 37.5679 51.3286 37.8073C52.2269 38.3834 52.2056 38.7055 51.1188 40.9988C50.3981 42.5195 50.3341 42.6944 50.2058 43.4922C50.089 44.2176 49.9662 44.4735 49.4524 45.0627C49.0083 45.5718 48.8871 45.8476 48.7931 46.5622C48.6409 47.7201 47.9012 48.5096 45.4021 50.1814C45.0786 50.3978 44.5264 50.8424 44.175 51.1692C43.2521 52.0279 43.1424 52.0658 41.1971 52.1979C39.6374 52.3037 39.3223 52.4544 38.4343 53.518C37.824 54.2494 37.6404 54.3522 35.6108 55.1001C32.2534 56.3373 32.0319 55.8058 34.7173 52.9567C37.1941 50.3287 37.5842 49.6685 37.5842 48.1039C37.5842 46.6117 37.3977 46.2686 36.2088 45.5742C35.801 45.3359 35.3525 45.007 35.0655 44.7355C34.8058 44.4897 34.3949 44.1247 34.1525 43.9241C33.91 43.7236 33.5025 43.3858 33.2467 43.1734C32.9712 42.9448 32.6603 42.6078 32.484 42.3466C32.2186 41.9537 32.1288 41.8747 31.6582 41.6194C30.8818 41.1983 30.8199 41.06 30.8838 39.8909C30.9965 37.8293 30.9866 37.8174 29.1494 37.804C28.3574 37.7982 27.7 37.7588 27.3054 37.6938C26.1989 37.5112 26.0739 37.5379 25.4669 38.0881C24.5551 38.9144 22.9944 38.9446 20.1107 38.1923C17.6381 37.5471 16.7452 37.089 16.4549 36.3161C16.1579 35.5253 15.9409 35.3216 15.095 35.0394C14.1078 34.7101 13.0624 33.594 11.2344 30.918C10.9622 30.5197 10.529 29.9717 10.2717 29.7004C9.70022 29.0978 9.58908 28.8567 9.2807 27.5492C9.14516 26.9748 8.89974 26.1764 8.70989 25.6917C8.05078 24.01 8.01646 23.2271 8.54697 21.9859C8.77758 21.4462 8.89423 21.0204 9.0633 20.1001C9.36019 18.4842 9.13996 18.0294 7.62606 17.1325C6.33286 16.3663 6.20567 16.437 5.38189 18.3825C-1.71299 35.1351 7.88691 54.3281 25.0851 57.775C41.546 61.0742 56.9181 48.2225 57.3978 30.7606C57.8348 14.8532 45.838 1.8033 30.5948 1.60464C29.6078 1.59189 28.7577 1.5922 28.7058 1.60558ZM32.1092 1.76662C46.0787 2.84998 56.8034 14.5539 57.2061 29.1549C57.7172 47.6929 41.0926 61.7061 23.8258 57.2915C9.82946 53.7132 0.943458 39.2933 3.71309 24.6527C4.32372 21.4247 5.69894 17.4416 6.36356 16.976C6.76404 16.6956 8.55216 17.7603 8.87487 18.4713C9.13005 19.0332 8.88982 20.7122 8.39033 21.8573C7.79907 23.2128 7.83905 23.9923 8.59907 25.9314C8.75255 26.3231 8.9742 27.0617 9.09164 27.573C9.40679 28.9458 9.48912 29.1291 10.0768 29.7633C10.3535 30.0621 10.7527 30.5646 10.9635 30.8799C12.7968 33.6206 13.9926 34.896 15.0418 35.2297C15.8089 35.4739 15.983 35.6377 16.2652 36.3815C16.579 37.2083 17.2346 37.5764 19.6414 38.2767C22.6868 39.1631 24.621 39.1337 25.6844 38.1848C26.2014 37.7235 26.2415 37.7177 27.6038 37.9055C27.8463 37.9389 28.5471 37.9672 29.1613 37.9683L30.2779 37.9704L30.4712 38.1435C30.7266 38.3723 30.799 38.7074 30.7217 39.3026C30.5181 40.8704 30.6716 41.3165 31.584 41.8094C31.9459 42.0047 32.0599 42.1108 32.3264 42.499C32.4996 42.7514 32.7858 43.0753 32.9625 43.2189C33.7846 43.8871 34.4462 44.4559 34.9095 44.8927C35.2196 45.1852 35.673 45.5216 36.0842 45.7642C37.2599 46.4579 37.3638 46.6531 37.3638 48.1711V49.2101L37.1661 49.5882C36.8346 50.2222 35.831 51.4566 34.515 52.8496C32.8952 54.5643 32.438 55.3762 32.8568 55.7951C33.2039 56.1422 33.6046 56.0668 35.8841 55.2265C37.9401 54.4684 37.9853 54.4416 38.6876 53.5554C39.4355 52.6118 39.8035 52.4676 41.7401 52.3602C43.1373 52.2828 43.3532 52.1987 44.2427 51.3853C44.5806 51.0763 45.2962 50.52 45.833 50.1488C48.272 48.4622 48.8181 47.8495 49.0053 46.5906C49.1105 45.8835 49.225 45.6378 49.7033 45.0953C50.1675 44.5686 50.2837 44.3249 50.3931 43.6479C50.5348 42.7718 50.5841 42.6357 51.3409 41.0243C52.3934 38.7839 52.4383 38.3115 51.6499 37.767C51.0991 37.3865 50.9458 37.214 50.6511 36.6435C49.9958 35.3747 49.6809 35.2459 47.3127 35.2774C45.7977 35.2977 45.6891 35.2634 45.0733 34.5704C44.3939 33.806 43.4114 33.6429 42.3241 34.1141C41.4574 34.4897 40.5728 34.5271 38.1824 34.2891C35.8528 34.0571 34.5618 34.047 33.4984 34.2526C33.3118 34.2888 32.8081 34.3182 32.3788 34.3182C31.6956 34.3182 31.5535 34.3371 31.2372 34.4703C31.0387 34.5539 30.6552 34.6531 30.3851 34.6905C29.4039 34.827 29.241 35.2075 29.8707 35.8924C30.6211 36.7087 30.0303 37.0407 28.2965 36.7775C28.054 36.7406 27.4252 36.6833 26.8989 36.6501C25.7952 36.5804 25.6877 36.5453 25.0119 36.0333C24.7405 35.8277 24.1693 35.4266 23.7425 35.1419C22.4986 34.3124 22.2478 34.0187 22.0998 33.2179C21.8769 32.0127 22.1096 31.5379 23.0898 31.1969C24.4139 30.7365 25.0788 30.8797 26.8339 32.0037C27.3817 32.3546 27.6803 32.4503 27.8922 32.3428C28.3853 32.0927 28.142 31.618 27.1945 30.981C25.9654 30.1545 25.9753 29.5351 27.2279 28.906C27.8554 28.591 27.9273 28.4778 28.0155 27.6674C28.1148 26.755 28.1392 26.6867 28.9872 24.9361C30.6009 21.6051 30.6066 21.076 29.0423 19.7562C27.0746 18.0959 26.8148 17.1369 27.9017 15.5449C29.2262 13.605 28.1935 11.5298 25.8033 11.328C25.167 11.2741 25.0385 11.2423 24.6758 11.0488C23.3115 10.3209 22.7364 10.1829 21.9218 10.3875C20.7706 10.677 20.2845 11.2873 20.3539 12.3557C20.4727 14.1856 20.474 14.0592 20.3355 14.2794C19.9561 14.8822 19.0931 14.8951 18.4837 14.3071C18.1398 13.9753 17.9679 13.5972 17.7426 12.6769C17.5428 11.8611 17.4402 11.588 17.2538 11.3755C16.8681 10.9361 15.6965 10.8231 14.5065 11.1102C13.1831 11.4298 10.9622 11.6102 10.5375 11.4326C10.0886 11.2452 10.3598 10.5926 10.9862 10.3535C11.2547 10.2509 11.3035 10.251 11.923 10.3573C13.336 10.5994 13.7037 10.3017 13.942 8.72188C14.1451 7.37642 14.4338 7.2053 14.9081 8.14903C15.1561 8.6427 15.3964 8.84608 15.9269 9.01121C16.8834 9.30889 17.4163 9.13605 18.3205 8.23467C19.5056 7.05355 20.2149 6.92746 22.1256 7.55776C23.8557 8.12841 24.7621 8.05143 25.1503 7.3007C25.4528 6.71573 25.107 6.30282 23.989 5.91415C22.999 5.57003 22.6023 5.20923 22.2804 4.36058C21.9677 3.53633 22.1074 3.28572 22.9234 3.20638C24.7978 3.02409 24.8258 3.03275 25.0236 3.85747C25.1619 4.43441 25.5158 4.80938 26.313 5.22465C27.8398 6.01962 28.4607 5.04929 27.8514 2.82023C27.6699 2.15624 27.8571 1.86281 28.5239 1.76599C29.0343 1.69185 31.1494 1.69216 32.1092 1.76662ZM26.0118 2.61779C25.535 2.95183 25.5662 3.91288 26.0693 4.38891C26.8397 5.11808 27.6666 4.61937 27.4464 3.55837C27.2803 2.75836 26.5214 2.26092 26.0118 2.61779ZM26.911 2.97907C27.4272 3.49524 27.3482 4.47156 26.79 4.47156C26.2374 4.47156 25.7505 3.76868 25.8976 3.18292C26.0123 2.72546 26.5494 2.61747 26.911 2.97907ZM19.8588 4.18317C17.3861 5.02048 15.4825 6.39207 15.4825 7.33659C15.4825 8.6915 16.7973 8.86686 18.0359 7.67693C19.282 6.47976 19.9353 6.35508 22.1074 6.89959C23.3113 7.20137 23.6049 7.23348 23.7582 7.08015C23.9931 6.84528 23.8727 6.68944 23.1781 6.32879C22.6284 6.04355 22.2708 5.66794 21.9385 5.02709C21.3538 3.8995 21.0547 3.77828 19.8588 4.18317ZM21.1381 4.30816C21.2428 4.36231 21.4169 4.58852 21.5866 4.89061C21.7393 5.16231 21.9688 5.54185 22.0968 5.7339C22.6999 6.63891 22.644 6.71069 21.5037 6.49597C19.8634 6.18711 18.9092 6.44434 17.8909 7.46961C17.1639 8.20145 16.7735 8.36973 16.2803 8.16367C15.5036 7.83923 15.5343 6.97358 16.3455 6.32863C18.0556 4.96853 20.4573 3.95617 21.1381 4.30816ZM49.4536 7.43104C49.6241 7.6042 49.7779 7.74588 49.7952 7.74588C49.8125 7.74588 49.6871 7.6042 49.5166 7.43104C49.3461 7.25788 49.1923 7.1162 49.175 7.1162C49.1577 7.1162 49.2831 7.25788 49.4536 7.43104ZM10.6948 7.66717L10.3507 8.02923L10.7127 7.68511C11.0491 7.36524 11.1036 7.30511 11.0569 7.30511C11.0471 7.30511 10.8842 7.46803 10.6948 7.66717ZM21.9997 10.9152C21.5211 11.0744 20.9708 11.4887 20.9581 11.6993C20.9565 11.724 20.9297 11.8718 20.8984 12.0277C20.8587 12.2254 20.8708 12.511 20.9384 12.9722C21.1673 14.5369 20.6993 15.3322 19.5517 15.3284C18.3666 15.3247 17.5575 14.4853 17.1806 12.8691C16.8732 11.5505 16.3118 11.3034 14.6325 11.747C13.9017 11.9402 13.0811 12.0672 12.0193 12.1516C9.79861 12.3282 9.39971 12.4872 8.23921 13.6584C6.80339 15.1076 6.80654 15.9913 8.25023 16.8386C9.22418 17.4102 9.75248 18.1562 9.75248 18.9598C9.75248 19.8525 9.39766 21.6854 9.11242 22.2665C8.69258 23.1216 8.68817 23.8151 9.09573 24.9572C9.56673 26.2776 9.81545 27.0633 9.94611 27.6437C10.1282 28.4525 10.3028 28.7958 10.8195 29.3627C11.0605 29.6272 11.4323 30.103 11.6456 30.4204C13.3698 32.9846 14.4941 34.1786 15.4884 34.5018C16.3296 34.7752 16.5396 34.9547 16.9308 35.735C17.3406 36.5522 17.4813 36.6618 18.661 37.0803C22.2735 38.3624 24.9277 38.481 24.9277 37.3605C24.9277 36.8938 24.7531 36.7161 23.3765 35.7815C22.3054 35.0545 21.819 34.6128 21.6376 34.2029C21.3324 33.5129 21.2337 31.9371 21.467 31.4798C21.7459 30.9331 22.9508 30.4169 24.2363 30.2935C25.1172 30.2088 25.1917 30.1651 25.6355 29.4697C25.9004 29.0545 26.16 28.8042 26.6403 28.5005C27.1638 28.1695 27.2855 27.9733 27.5051 27.1067C27.6712 26.4512 27.7987 26.1507 28.4824 24.8037C29.9141 21.983 30.0134 21.1774 29.0313 20.3531C26.6363 18.3433 26.2251 17.1679 27.3523 15.5539C27.9253 14.7332 27.9807 14.5917 27.9812 13.9482C27.9823 12.6807 27.2238 11.9496 25.779 11.8254C24.736 11.7357 24.7229 11.7322 24.2255 11.4071C23.4303 10.8877 22.6207 10.7088 21.9997 10.9152ZM23.3036 11.145C23.5259 11.2137 23.8662 11.3834 24.0602 11.5222C24.5527 11.875 24.6708 11.9104 25.5314 11.9647C26.8584 12.0485 27.5364 12.5191 27.7975 13.5383C27.9613 14.1776 27.8618 14.4894 27.1671 15.514C26.111 17.0717 26.5463 18.5348 28.5608 20.1977C29.8661 21.2754 29.8428 21.7085 28.3187 24.6716C27.5912 26.0862 27.4793 26.3467 27.3197 26.9965C27.1171 27.8211 27.0308 27.9698 26.5913 28.2515C25.9305 28.6749 25.6904 28.9005 25.4253 29.3468C25.0769 29.9332 25.0083 29.971 24.1005 30.0764C21.9312 30.3285 21.0484 30.9932 21.0615 32.3648C21.0799 34.2962 21.3803 34.8256 23.1347 36.0184C24.474 36.929 24.682 37.1612 24.4605 37.4992C23.9175 38.328 17.8956 36.9749 17.4056 35.9139C16.9532 34.9344 16.9168 34.876 16.6273 34.6638C16.4652 34.5449 16.0985 34.3625 15.8125 34.2581C15.5265 34.1537 15.1842 34.0132 15.0522 33.9456C14.5574 33.6933 13.3709 32.2934 12.1124 30.4772C11.7405 29.9404 11.2613 29.3155 11.0477 29.0885C10.5926 28.6047 10.4116 28.2508 10.2444 27.5177C10.1186 26.9665 9.84205 26.0975 9.37279 24.7786C8.99105 23.7055 8.98821 23.232 9.35862 22.4597C9.6352 21.8835 9.65551 21.7989 9.91887 20.119C10.1822 18.4397 9.88723 17.5396 8.85141 16.8612C8.67164 16.7435 8.3546 16.5359 8.14681 16.3997C7.19961 15.779 7.29674 15.0635 8.49313 13.8462C9.57822 12.7419 9.86693 12.6241 12.0193 12.4061C13.4326 12.263 13.7371 12.2127 14.718 11.96C16.2676 11.5609 16.6586 11.7475 17.0001 13.0489C17.4005 14.5752 17.9978 15.2521 19.1532 15.4892C20.6149 15.7889 21.399 14.7843 21.1174 12.9722C20.8793 11.4396 21.7908 10.6778 23.3036 11.145ZM59.2657 29.7531C59.266 29.9955 59.2774 30.087 59.2911 29.9563C59.3048 29.8257 59.3045 29.6273 59.2906 29.5155C59.2766 29.4038 59.2654 29.5107 59.2657 29.7531ZM27.4004 33.6714C27.0437 33.7363 26.9002 34.2186 27.1602 34.4785C27.4943 34.8127 28.0761 34.5789 28.0761 34.1105C28.0761 33.7909 27.7849 33.6017 27.4004 33.6714ZM27.7653 33.8797C27.949 33.9779 27.9294 34.3017 27.7343 34.3905C27.3564 34.5629 27.0097 34.1794 27.318 33.9299C27.4799 33.7986 27.5908 33.7862 27.7653 33.8797ZM42.4707 34.9284C41.46 35.287 40.9308 35.2854 37.2868 34.9135C35.9562 34.7776 34.2929 34.7937 33.5889 34.9493C33.2789 35.0178 32.8311 35.0739 32.5935 35.0739C31.2322 35.0739 31.0482 35.3942 31.3491 37.2404C31.5384 38.4014 31.5521 38.5782 31.5146 39.3871C31.465 40.4587 31.5535 40.7265 32.043 40.9851C32.6335 41.297 32.8068 41.4451 33.0795 41.8706C33.301 42.2158 33.5201 42.4343 34.164 42.9508C34.6079 43.3069 35.1993 43.8125 35.4784 44.0743C35.7857 44.3629 36.1901 44.6623 36.504 44.8339C38.1978 45.7599 38.4018 46.0899 38.4505 47.9821C38.4969 49.7875 38.3541 50.1321 36.7999 51.9679C36.452 52.3788 36.0344 52.8733 35.8716 53.0666C35.3495 53.6873 35.3333 53.9642 35.8189 53.9642C36.4032 53.9642 37.1502 53.5843 37.6245 53.0463C38.5164 52.034 38.6123 51.9459 39.0592 51.7266C39.6285 51.4472 39.898 51.3963 41.2049 51.3219C42.6684 51.2385 42.7901 51.1956 43.5365 50.5024C43.8693 50.1933 44.4442 49.7357 44.8142 49.4856C47.3299 47.7836 47.7678 47.3189 47.9408 46.1669C48.0551 45.4059 48.2006 45.0901 48.6956 44.5286C49.167 43.994 49.2723 43.7667 49.3888 43.032C49.4763 42.4798 49.5485 42.2818 50.0293 41.2762C51.1813 38.867 51.1597 38.9886 50.5535 38.3195C50.33 38.073 50.0657 37.6821 49.9012 37.3552C49.359 36.2775 49.3116 36.2556 47.4072 36.2019C45.4728 36.1476 45.2872 36.0862 44.5192 35.2491C43.929 34.6054 43.5484 34.5459 42.4707 34.9284ZM43.787 35.1283C43.9421 35.1987 44.1448 35.3796 44.3131 35.5979C44.8578 36.3038 45.5526 36.5846 46.7597 36.5862C48.5566 36.5886 49.0648 36.725 49.275 37.2618C49.3385 37.4244 49.5394 37.8525 49.7212 38.2133C50.0943 38.9535 50.1058 39.0341 49.9145 39.5696C49.6954 40.1826 49.4816 40.4504 49.0815 40.6127C48.7923 40.7301 48.7234 40.7893 48.6631 40.9717C48.6234 41.0918 48.5751 41.1743 48.5557 41.1548C48.5362 41.1354 48.4891 41.1822 48.4509 41.2589C48.4125 41.3358 48.1795 41.4975 47.9296 41.6205C47.6811 41.7428 47.4177 41.9203 47.3444 42.0148C47.271 42.1094 47.1913 42.181 47.1674 42.1741C47.0975 42.1536 46.2889 42.5546 46.2399 42.6339C46.2154 42.6736 46.2767 42.6572 46.3762 42.5976L46.5571 42.4891L46.4014 42.6175C46.3158 42.6882 46.2235 42.7323 46.1963 42.7155C46.1692 42.6988 46.0634 42.7444 45.9613 42.8172C45.8591 42.8899 45.6866 42.9804 45.5778 43.0183C45.4601 43.0594 45.4089 43.1051 45.4514 43.1314C45.4919 43.1564 45.413 43.2082 45.2688 43.2515C45.1292 43.2933 44.9484 43.3993 44.8672 43.4868C44.7099 43.6565 44.3803 43.7595 43.9871 43.7618C43.6818 43.7639 43.5331 43.844 43.2198 44.1751C43.0046 44.4024 42.9037 44.4556 42.5272 44.5395C42.124 44.6292 42.0595 44.6668 41.7716 44.9799C41.489 45.2871 41.4248 45.3255 41.1441 45.3551C40.9045 45.3804 40.8003 45.4272 40.6983 45.555C40.6131 45.6619 40.4234 45.7661 40.1711 45.8446C39.4468 46.0699 39.2412 46.0095 38.447 45.3376C38.1851 45.1159 37.7125 44.8285 37.1341 44.539C36.4349 44.1891 36.1306 43.9954 35.7896 43.6836C35.5472 43.4618 35.0372 43.0457 34.6562 42.7588C33.7869 42.104 33.5933 41.9227 33.3331 41.5197C33.0959 41.1521 32.824 40.9251 32.4364 40.7707C31.9029 40.5583 31.8556 40.437 31.8649 39.3051C31.8718 38.4373 31.8486 38.1903 31.6745 37.2801C31.3517 35.5916 31.443 35.3892 32.5279 35.3882C32.8294 35.3879 33.2257 35.3341 33.5543 35.2489C34.1663 35.0899 36.0919 35.0584 37.049 35.1918C37.536 35.2595 39.5134 35.4625 40.4807 35.5441C41.1715 35.6023 41.9918 35.4885 42.7189 35.2335C43.4467 34.9783 43.4548 34.9774 43.787 35.1283Z" fill="#2B6151"/>
<path fill-rule="evenodd" clip-rule="evenodd" d="M28.5241 1.76601C27.8572 1.86283 27.6701 2.15626 27.8516 2.82025C28.4608 5.04931 27.8399 6.01964 26.3131 5.22467C25.5159 4.8094 25.1621 4.43443 25.0237 3.85749C24.826 3.03277 24.7979 3.02411 22.9236 3.2064C22.1075 3.28574 21.9679 3.53635 22.2805 4.3606C22.6024 5.20925 22.9991 5.57005 23.9891 5.91417C25.1071 6.30284 25.453 6.71575 25.1504 7.30072C24.7622 8.05145 23.8558 8.12843 22.1257 7.55778C20.215 6.92748 19.5057 7.05357 18.3206 8.23469C17.4164 9.13607 16.8835 9.30891 15.9271 9.01123C15.3966 8.8461 15.1562 8.64272 14.9082 8.14905C14.4339 7.20532 14.1452 7.37644 13.9422 8.7219C13.7038 10.3018 13.3361 10.5994 11.9231 10.3573C11.3036 10.2511 11.2548 10.2509 10.9863 10.3535C10.3599 10.5927 10.0887 11.2452 10.5376 11.4327C10.9624 11.6102 13.1832 11.4298 14.5067 11.1103C15.6966 10.8231 16.8683 10.9362 17.2539 11.3755C17.4403 11.588 17.543 11.8612 17.7427 12.6769C17.968 13.5972 18.1399 13.9753 18.4839 14.3071C19.0932 14.8951 19.9562 14.8822 20.3356 14.2794C20.4741 14.0592 20.4728 14.1856 20.354 12.3558C20.2846 11.2874 20.7707 10.677 21.9219 10.3876C22.7365 10.1829 23.3116 10.321 24.6759 11.0489C25.0386 11.2423 25.1671 11.2741 25.8034 11.328C28.1936 11.5298 29.2263 13.605 27.9018 15.5449C26.815 17.1369 27.0747 18.0959 29.0424 19.7562C30.6067 21.076 30.601 21.6051 28.9873 24.9361C28.1393 26.6867 28.1149 26.7551 28.0156 27.6675C27.9274 28.4779 27.8555 28.591 27.228 28.906C25.9754 29.5351 25.9655 30.1545 27.1947 30.981C28.1422 31.6181 28.3854 32.0927 27.8923 32.3428C27.6804 32.4503 27.3818 32.3546 26.834 32.0037C25.0789 30.8798 24.414 30.7365 23.0899 31.197C22.1097 31.5379 21.877 32.0127 22.0999 33.2179C22.2479 34.0187 22.4987 34.3124 23.7426 35.1419C24.1694 35.4267 24.7406 35.8278 25.012 36.0334C25.6878 36.5453 25.7954 36.5804 26.899 36.6501C27.4253 36.6833 28.0542 36.7406 28.2966 36.7775C30.0304 37.0407 30.6212 36.7087 29.8708 35.8925C29.2411 35.2075 29.404 34.827 30.3852 34.6906C30.6554 34.6531 31.0388 34.5539 31.2373 34.4703C31.5536 34.3372 31.6957 34.3183 32.3789 34.3183C32.8082 34.3183 33.312 34.2888 33.4985 34.2526C34.5619 34.047 35.8529 34.0571 38.1825 34.2891C40.5729 34.5272 41.4575 34.4897 42.3242 34.1141C43.4115 33.6429 44.394 33.806 45.0734 34.5705C45.6892 35.2634 45.7978 35.2977 47.3128 35.2774C49.681 35.2459 49.9959 35.3747 50.6512 36.6435C50.9459 37.214 51.0992 37.3865 51.65 37.767C52.4384 38.3115 52.3935 38.7839 51.341 41.0243C50.5842 42.6357 50.5349 42.7718 50.3932 43.6479C50.2838 44.3249 50.1676 44.5686 49.7034 45.0953C49.2252 45.6378 49.1106 45.8835 49.0054 46.5907C48.8182 47.8496 48.2721 48.4622 45.8331 50.1488C45.2963 50.52 44.5807 51.0763 44.2428 51.3853C43.3533 52.1987 43.1374 52.2828 41.7402 52.3602C39.8036 52.4676 39.4356 52.6118 38.6877 53.5554C37.9854 54.4416 37.9403 54.4684 35.8842 55.2265C33.6048 56.0668 33.204 56.1422 32.8569 55.7951C32.4381 55.3762 32.8953 54.5643 34.5151 52.8497C35.8311 51.4567 36.8347 50.2222 37.1662 49.5883L37.3639 49.2101V48.1712C37.3639 46.6532 37.26 46.458 36.0843 45.7642C35.6731 45.5216 35.2197 45.1852 34.9096 44.8927C34.4463 44.4559 33.7847 43.8872 32.9627 43.2189C32.7859 43.0753 32.4997 42.7514 32.3265 42.499C32.06 42.1108 31.946 42.0047 31.5841 41.8094C30.6717 41.3165 30.5182 40.8704 30.7218 39.3026C30.7991 38.7074 30.7267 38.3723 30.4713 38.1436L30.278 37.9704L29.1614 37.9683C28.5472 37.9672 27.8464 37.9389 27.6039 37.9055C26.2416 37.7177 26.2015 37.7236 25.6845 38.1848C24.6212 39.1337 22.687 39.1632 19.6415 38.2767C17.2347 37.5764 16.5791 37.2083 16.2653 36.3816C15.9831 35.6378 15.809 35.4739 15.0419 35.2297C13.9927 34.896 12.7969 33.6206 10.9636 30.8799C10.7528 30.5646 10.3536 30.0621 10.0769 29.7633C9.48923 29.1291 9.4069 28.9459 9.09175 27.573C8.97432 27.0617 8.75267 26.3231 8.59919 25.9314C7.83917 23.9924 7.79918 23.2128 8.39045 21.8573C8.62044 21.3298 8.69742 21.0551 8.8764 20.1192C9.1766 18.5513 8.97164 18.1301 7.50559 17.3012C6.33676 16.6406 6.28245 16.6746 5.49598 18.5612C-1.2233 34.6803 7.50292 53.1184 23.8259 57.2916C41.0927 61.7061 57.7173 47.6929 57.2062 29.1549C56.8035 14.554 46.0788 2.85 32.1093 1.76664C31.1495 1.69218 29.0344 1.69187 28.5241 1.76601ZM33.0192 2.04512C46.0604 3.64403 55.8561 14.1647 56.8535 27.6437C58.3377 47.7011 39.8861 62.7216 21.6277 56.3193C6.94943 51.1725 -0.416215 33.9361 5.63089 18.8847C6.36021 17.0691 6.42271 17.0221 7.40768 17.5478C8.76936 18.2744 8.92693 18.6477 8.58281 20.3322C8.48207 20.8257 8.32339 21.3531 8.16392 21.7247C7.58163 23.0822 7.58871 24.0659 8.19194 25.6287C8.61918 26.7354 8.67569 26.9166 8.90238 27.9036C9.18353 29.1283 9.30915 29.3925 9.91915 30.0417C10.1929 30.3332 10.6888 30.9684 11.0211 31.4532C12.8187 34.0758 13.791 35.0932 14.8486 35.4578C15.5929 35.7143 15.789 35.8906 16.0184 36.5095C16.3535 37.4139 17.0502 37.8256 19.3517 38.4789C22.7968 39.4567 24.7085 39.4366 25.8416 38.4104C26.2662 38.026 26.389 37.9939 27.0651 38.0913C27.3614 38.134 28.1707 38.1839 28.8633 38.2021C30.508 38.2456 30.5655 38.2848 30.4622 39.2927C30.2804 41.0671 30.4444 41.5591 31.3826 42.0527C31.7633 42.2528 31.8606 42.3424 32.1134 42.7245C32.3393 43.0659 32.602 43.3278 33.2787 43.8865C33.7593 44.2832 34.3593 44.8133 34.6121 45.0645C35.0286 45.4787 35.4367 45.7678 36.2691 46.2388C36.9616 46.6307 37.1014 46.9836 37.0705 48.2618L37.0491 49.1472L36.8172 49.5564C36.495 50.1249 35.7003 51.1031 34.5661 52.327C32.5142 54.5418 32.018 55.4476 32.548 56.0119C33.0014 56.4944 33.6726 56.3831 36.3565 55.381C38.0671 54.7422 38.2146 54.6524 38.8305 53.8752C39.6363 52.8586 39.8164 52.7869 41.9291 52.6403C43.3945 52.5388 43.4896 52.5011 44.387 51.6695C44.7534 51.3301 45.4652 50.7742 45.9904 50.4179C48.4456 48.7509 49.0652 48.055 49.2908 46.7103C49.4193 45.9451 49.4449 45.8916 49.9727 45.2863C50.4625 44.7248 50.5395 44.553 50.684 43.7005C50.8206 42.8943 50.9404 42.5748 51.7179 40.9409C52.7989 38.6692 52.7732 38.1602 51.5337 37.2778C51.2792 37.0966 51.1614 36.9399 50.8711 36.3962C50.1868 35.1145 50.0842 35.0695 47.7221 35.0175C45.7282 34.9736 45.8759 35.0147 45.2034 34.317C44.4311 33.5159 43.4642 33.3873 42.181 33.915L41.5828 34.1609L40.2919 34.156C39.5549 34.1531 38.5554 34.1047 37.9621 34.0428C36.1773 33.857 34.7431 33.8419 33.7132 33.9982C33.0604 34.0973 32.6947 34.1213 32.2965 34.0914C31.8045 34.0544 31.7126 34.0672 31.1931 34.2444C30.8814 34.3507 30.4847 34.4549 30.3116 34.4762C29.2731 34.6035 28.9009 35.3766 29.5846 35.9863C30.179 36.5162 29.7157 36.7306 28.3515 36.5568C27.9057 36.5001 27.1855 36.4307 26.7512 36.4027C25.9104 36.3483 25.8276 36.3222 25.3371 35.9576C25.1639 35.8289 24.6114 35.4463 24.1092 35.1074C22.5706 34.0691 22.425 33.895 22.2833 32.9216C22.1528 32.0256 22.3712 31.6788 23.2567 31.3761C24.3942 30.9873 25.0619 31.1433 26.7197 32.1846C27.6258 32.7538 28.1355 32.7745 28.3361 32.2499C28.4915 31.8433 28.1689 31.3832 27.325 30.8077C26.2493 30.0741 26.2574 29.6568 27.3584 29.0835C28.0647 28.7157 28.1154 28.6331 28.2286 27.6679C28.3344 26.7666 28.4405 26.4712 29.2095 24.9361C30.8609 21.6394 30.8257 20.9542 28.9223 19.3664C27.3725 18.0735 27.0983 17.0621 27.9633 15.83C28.7144 14.7607 28.8806 14.0488 28.584 13.172C28.1629 11.9265 27.2202 11.2219 25.8338 11.1162C25.1356 11.0632 24.9338 11.0013 24.4375 10.6887C23.1535 9.87987 21.6167 9.93041 20.6391 10.8135C20.1187 11.2837 20.0198 11.7233 20.175 12.8787C20.3312 14.0414 20.2126 14.4173 19.6569 14.5215C18.8522 14.6725 18.2939 14.0316 17.9134 12.5209C17.7948 12.0505 17.6555 11.5843 17.6037 11.4846C17.2088 10.7251 16.0561 10.5311 14.2863 10.9262C14.0612 10.9765 13.707 11.0185 13.4992 11.0196C13.2914 11.0207 12.7991 11.0778 12.4054 11.1468C11.2303 11.3524 10.6971 11.3058 10.6971 10.9976C10.6971 10.5689 11.2023 10.443 12.112 10.6449C13.3312 10.9155 13.8701 10.482 14.1322 9.01958C14.1915 8.68916 14.2861 8.37495 14.3502 8.29576L14.4635 8.15582L14.895 8.60557C15.9563 9.71207 17.207 9.63713 18.4736 8.39116C19.5804 7.30245 20.2422 7.15148 21.7165 7.65145C23.8201 8.36487 25.0169 8.26538 25.3643 7.34826C25.653 6.58635 25.2579 6.12102 23.9356 5.66592C23.1839 5.40712 22.7764 5.04994 22.5487 4.45017C22.2211 3.58735 22.3232 3.47999 23.6093 3.3347C24.5667 3.22655 24.6462 3.27787 24.8915 4.16367C25.075 4.82703 26.4087 5.73093 27.2033 5.73093C28.1134 5.73093 28.5064 4.64521 28.1455 3.12848C27.8601 1.9291 27.9566 1.88156 30.5949 1.92091C31.5226 1.93461 32.5463 1.98719 33.0192 2.04512ZM26.0628 2.89581C25.5787 3.37988 26.0825 4.47158 26.7901 4.47158C27.3483 4.47158 27.4273 3.49526 26.9111 2.97909C26.6588 2.72674 26.27 2.68865 26.0628 2.89581ZM26.7868 3.30006C27.1399 3.83891 26.7997 4.33809 26.3712 3.90975C26.1738 3.71219 26.1193 3.36823 26.2627 3.22482C26.3935 3.094 26.6786 3.13493 26.7868 3.30006ZM19.7959 4.43191C18.1279 5.03797 16.2502 6.17674 15.8578 6.82027C15.5658 7.2993 15.7707 7.9507 16.2805 8.16369C16.7737 8.36975 17.1641 8.20147 17.891 7.46963C18.9094 6.44436 19.8635 6.18713 21.5038 6.49599C22.6441 6.71071 22.7 6.63893 22.0969 5.73392C21.969 5.54187 21.7394 5.16233 21.5867 4.89063C21.1653 4.14037 20.8329 4.0552 19.7959 4.43191ZM21.0076 4.63104C21.1987 4.76485 21.7303 5.75817 21.7053 5.93448C21.6851 6.07584 21.6768 6.0771 20.8568 6.05585C19.4054 6.01854 18.5024 6.33621 17.7232 7.15841C16.8812 8.04688 16.0997 8.1385 16.0997 7.34873C16.0997 6.41366 20.2621 4.10888 21.0076 4.63104ZM22.1193 11.0797C21.2305 11.2921 20.9413 11.8382 21.1175 12.9722C21.3991 14.7843 20.615 15.7889 19.1534 15.4892C17.9979 15.2521 17.4007 14.5752 17.0002 13.0489C16.6587 11.7475 16.2677 11.561 14.7181 11.96C13.7372 12.2127 13.4327 12.263 12.0194 12.4061C9.86704 12.6242 9.57833 12.7419 8.49324 13.8462C7.29686 15.0635 7.19973 15.779 8.14692 16.3997C8.35471 16.5359 8.67176 16.7435 8.85153 16.8613C9.88735 17.5396 10.1824 18.4397 9.91899 20.1191C9.65563 21.7989 9.63532 21.8836 9.35873 22.4597C8.98833 23.232 8.99116 23.7055 9.3729 24.7787C9.84217 26.0975 10.1188 26.9665 10.2445 27.5178C10.4117 28.2509 10.5927 28.6047 11.0478 29.0885C11.2615 29.3155 11.7406 29.9404 12.1125 30.4772C13.371 32.2934 14.5575 33.6933 15.0523 33.9457C15.1843 34.0132 15.5266 34.1538 15.8126 34.2581C16.0986 34.3625 16.4653 34.545 16.6274 34.6638C16.9169 34.876 16.9533 34.9344 17.4057 35.9139C17.8957 36.9749 23.9177 38.3281 24.4606 37.4992C24.6821 37.1613 24.4741 36.9291 23.1348 36.0184C21.3804 34.8256 21.08 34.2962 21.0616 32.3649C21.0485 30.9933 21.9313 30.3285 24.1006 30.0765C25.0084 29.971 25.077 29.9332 25.4254 29.3468C25.6905 28.9005 25.9306 28.6749 26.5914 28.2515C27.0309 27.9699 27.1172 27.8211 27.3198 26.9965C27.4794 26.3467 27.5913 26.0862 28.3188 24.6716C29.8429 21.7085 29.8662 21.2755 28.5609 20.1978C26.5464 18.5348 26.1111 17.0717 27.1673 15.5141C27.862 14.4894 27.9614 14.1776 27.7976 13.5383C27.5366 12.5192 26.8586 12.0485 25.5315 11.9647C24.6709 11.9104 24.5528 11.875 24.0603 11.5222C23.4855 11.1107 22.7202 10.9362 22.1193 11.0797ZM23.3509 11.3913C23.5235 11.4567 23.8023 11.6115 23.9705 11.7351C24.4085 12.0565 24.5552 12.0996 25.4001 12.1563C26.5738 12.235 27.1136 12.5163 27.4727 13.2372C27.8001 13.8941 27.7093 14.3437 27.055 15.3064C25.8714 17.048 26.2837 18.5993 28.3936 20.3415C29.6291 21.3617 29.5978 21.8053 28.0948 24.5769C27.3894 25.8778 27.2276 26.2434 27.0427 26.9551C26.8608 27.6558 26.7682 27.7877 26.2284 28.1166C25.6836 28.4484 25.4149 28.7069 25.1062 29.1957C24.8171 29.6533 24.7613 29.6782 23.7815 29.7829C22.626 29.9063 21.5019 30.3584 21.0367 30.8868C20.621 31.3591 20.5523 31.7371 20.6155 33.2026C20.6983 35.1228 20.7272 34.9484 20.3186 34.9906C19.9168 35.032 19.6739 34.8669 19.2755 34.2813C18.9306 33.7745 18.492 33.4429 18.2764 33.5257C17.9622 33.6462 17.1921 33.2955 16.9297 32.9125C16.8445 32.7883 16.6279 32.5937 16.4484 32.4799C16.2562 32.3584 16.1507 32.2556 16.1918 32.2301C16.2337 32.2041 16.1698 32.1327 16.0316 32.0513C15.905 31.9765 15.7405 31.8167 15.6661 31.6961C15.5914 31.5754 15.4134 31.4038 15.2705 31.3147C15.1274 31.2256 14.8157 30.9429 14.5777 30.6864C14.3396 30.4299 14.0336 30.1633 13.8978 30.0939C13.7618 30.0245 13.6319 29.9195 13.6092 29.8605C13.5754 29.7723 13.561 29.7813 13.5291 29.9105C13.4922 30.0599 13.4828 30.0536 13.3444 29.7846C13.2641 29.6287 13.1481 29.4367 13.0864 29.3577C13.0249 29.2788 12.9558 29.1042 12.9331 28.9698C12.8881 28.7034 12.7747 28.5698 12.5073 28.4683C12.4122 28.432 12.3343 28.3565 12.3343 28.3004C12.3343 28.1177 12.1315 27.8493 11.9157 27.7463C11.7995 27.6911 11.7046 27.6179 11.7046 27.5839C11.7046 27.5499 11.5771 27.3784 11.4212 27.2029C11.1436 26.8903 11.1011 26.7669 11.1328 26.3654C11.1428 26.24 11.0829 26.1185 10.9255 25.9442C10.6518 25.6412 10.5227 25.3961 10.4111 24.9673C10.3634 24.7845 10.2173 24.4407 10.0863 24.2031C9.79179 23.6689 9.75858 23.1565 9.98448 22.6359C10.0602 22.4616 10.1537 22.0649 10.1923 21.7543C10.231 21.4436 10.3023 20.9345 10.3508 20.6228C10.708 18.3297 10.3702 17.2644 8.94252 16.1822C8.26593 15.6691 8.20438 15.489 8.50064 14.8874C9.11883 13.6316 9.98196 13.0906 11.755 12.8474C13.4472 12.6153 13.619 12.5845 14.5866 12.3367C16.2394 11.9137 16.4339 11.9893 16.7094 13.1611C17.1079 14.8557 18.0598 15.7428 19.4797 15.7428C20.9412 15.7428 21.617 14.8254 21.3744 13.1706C21.2447 12.2867 21.2494 12.1229 21.4133 11.8314C21.7026 11.3168 22.6115 11.1103 23.3509 11.3913ZM11.1023 27.4162C11.1938 27.3811 11.3669 27.5661 11.4035 27.7381C11.4365 27.8935 11.2268 28.3367 11.1209 28.3354C11.0252 28.3341 10.8303 28.2134 10.9175 28.2095C10.9521 28.2079 10.9307 28.1777 10.87 28.1422C10.7868 28.0938 10.7617 28.0042 10.7684 27.7821C10.7783 27.4609 10.8665 27.2841 10.9666 27.3843C11 27.4176 11.0611 27.432 11.1023 27.4162ZM13.1568 29.987C13.3839 30.2235 13.5563 30.4305 13.5398 30.4472C13.5099 30.4769 13.6402 30.5004 13.74 30.4831C13.7685 30.4782 13.7753 30.5009 13.7551 30.5336C13.7065 30.6121 14.3637 31.2761 14.745 31.5337L15.0461 31.7371L15.0055 32.0436C14.9789 32.2443 14.9893 32.3653 15.0359 32.394C15.0749 32.4182 15.0937 32.4595 15.0775 32.4856C15.0612 32.5119 15.2076 32.5116 15.4027 32.4851C15.996 32.4047 16.3121 32.5641 16.6938 33.1367C16.9147 33.4679 17.5943 33.7557 18.2144 33.7805C18.4947 33.7917 18.8207 34.0906 18.819 34.335C18.8182 34.4489 18.8064 34.4577 18.757 34.3812C18.6504 34.2164 18.6806 34.4875 18.7929 34.7047C18.944 34.9969 19.3432 35.143 20.1028 35.1841C20.8014 35.2217 20.7556 35.1973 21.1812 35.7583C21.3169 35.9373 21.444 36.0266 21.6324 36.0754C21.8237 36.125 21.9302 36.2012 22.0264 36.3568C22.1805 36.606 22.4211 36.7219 22.7069 36.6843C23.2223 36.6166 23.7816 37.0116 23.614 37.325C23.5114 37.5167 22.7184 37.5246 22.0004 37.3409C21.73 37.2718 21.3642 37.2038 21.1875 37.1899C21.0109 37.1761 20.6539 37.089 20.3941 36.9964C20.1344 36.904 19.681 36.7483 19.3867 36.6506C19.0923 36.553 18.7239 36.4138 18.5681 36.3414C18.4122 36.2692 18.1701 36.1815 18.0302 36.1467C17.6519 36.0529 17.5327 35.9008 17.3109 35.2283C17.0657 34.4847 16.975 34.3967 16.1753 34.1257C15.0973 33.7605 14.4752 33.327 14.4752 32.9407C14.4752 32.9133 14.3565 32.7658 14.2113 32.6129C14.0664 32.4599 13.9459 32.315 13.9437 32.2907C13.9417 32.2665 13.9045 32.2112 13.8612 32.1679C13.8179 32.1246 13.7825 32.0524 13.7825 32.0074C13.7825 31.9623 13.7495 31.9255 13.709 31.9255C13.6687 31.9255 13.6534 31.9076 13.6753 31.8857C13.6972 31.8638 13.6818 31.7859 13.6409 31.7125C13.6001 31.6392 13.5656 31.5586 13.5643 31.5335C13.5631 31.5083 13.463 31.3988 13.3418 31.2898C12.4577 30.496 12.4024 30.4259 12.2488 29.9045C12.1732 29.6481 12.1751 29.6066 12.2647 29.5401C12.3395 29.4846 12.3412 29.4762 12.2713 29.5082C12.1975 29.5419 12.1931 29.5337 12.2507 29.4712C12.3099 29.4073 12.3664 29.4202 12.534 29.5362L12.7436 29.681L12.5861 29.4971L12.4287 29.3133L12.5861 29.4353C12.6727 29.5023 12.9295 29.7507 13.1568 29.987ZM27.0879 33.5598C26.5486 33.8887 26.7211 34.7392 27.3511 34.8574C27.941 34.9681 28.3577 34.6115 28.3082 34.0387C28.2596 33.4765 27.6298 33.2294 27.0879 33.5598ZM27.966 33.8013C28.131 33.9447 28.1083 34.2918 27.9216 34.4785C27.4698 34.9303 26.7407 34.3573 27.1329 33.8588C27.3236 33.6163 27.7215 33.5888 27.966 33.8013ZM42.719 35.2335C41.9919 35.4885 41.1716 35.6023 40.4808 35.5441C39.5135 35.4626 37.5362 35.2595 37.0491 35.1918C36.092 35.0585 34.1664 35.0899 33.5544 35.2489C33.2259 35.3341 32.8295 35.3879 32.528 35.3882C31.4431 35.3892 31.3518 35.5916 31.6746 37.2801C31.8488 38.1903 31.8719 38.4373 31.865 39.3052C31.8557 40.437 31.9031 40.5584 32.4366 40.7707C32.8241 40.9252 33.096 41.1522 33.3332 41.5197C33.448 41.6975 33.6367 41.9306 33.7527 42.0376C34.1357 42.3912 35.0958 43.1049 34.996 42.9618C34.9422 42.8846 34.702 42.676 34.4624 42.4984C33.8326 42.0313 33.7403 41.9377 33.6002 41.6225C33.3943 41.1592 33.2485 40.9991 32.8488 40.7975C32.3552 40.5483 32.1858 40.3589 32.1305 39.9951C32.0603 39.5317 32.0781 38.7798 32.1658 38.5152C32.2211 38.3479 32.2325 38.1119 32.2026 37.7532C32.1674 37.3294 32.1771 37.2157 32.2557 37.1372C32.3087 37.0843 32.3363 37.0251 32.3171 37.0059C32.2244 36.9133 32.7246 36.901 32.9384 36.9906C33.0672 37.0446 33.2742 37.0888 33.3985 37.0888C33.7044 37.0888 34.1907 37.2162 34.148 37.285C34.08 37.3952 34.4884 37.3379 34.6337 37.2168C34.7154 37.1488 34.7602 37.0922 34.7335 37.0909C34.65 37.0874 34.8684 36.7239 35.0163 36.6204C35.0947 36.5656 35.286 36.5221 35.4499 36.5221C35.7145 36.5221 35.8691 36.4716 36.6083 36.1432C36.7122 36.0971 36.8221 36.0655 36.8523 36.073C36.8827 36.0804 36.9557 36.0428 37.0149 35.9894C37.074 35.9359 37.1412 35.9112 37.1643 35.9343C37.1876 35.9575 37.2065 35.9479 37.2065 35.9131C37.2065 35.8588 37.5495 35.8043 37.7417 35.8281C37.829 35.8389 38.6686 35.8781 39.1379 35.8932C39.3517 35.9002 39.5536 35.8892 39.5865 35.8689C39.6194 35.8485 40.0396 35.8185 40.5202 35.8021C41.0006 35.7857 41.4647 35.7576 41.5513 35.7394C42.0327 35.639 42.3456 35.5556 42.4014 35.5128C42.5152 35.4256 43.1439 35.2628 43.3674 35.2628C43.6714 35.2628 44.0796 35.5197 44.3417 35.8759C44.7631 36.4488 45.0019 36.5864 45.5696 36.5831L45.9275 36.5809L45.5648 36.456C45.0202 36.2687 44.618 35.9929 44.3132 35.5979C43.8336 34.9761 43.6029 34.9235 42.719 35.2335ZM35.0135 35.8707C35.178 36.0198 35.1601 36.0628 34.8715 36.21C34.7139 36.2903 34.6267 36.3734 34.6464 36.4244C34.7434 36.6772 34.3512 36.8467 33.7672 36.8046C33.0064 36.7496 32.2486 36.5749 32.5154 36.5158C32.6456 36.487 32.6632 36.4718 32.5724 36.4666C32.4249 36.4582 32.1877 36.2308 32.2557 36.1628C32.2798 36.1387 32.4756 36.0976 32.6908 36.0716C32.906 36.0456 33.3088 35.969 33.5859 35.9011C34.2366 35.742 34.8566 35.7287 35.0135 35.8707ZM46.4943 36.6906C46.8399 36.7652 47.1049 36.775 47.7221 36.7351C48.6975 36.6725 48.2584 36.6013 46.8721 36.5975L46.0535 36.5953L46.4943 36.6906ZM48.6254 36.7556C48.9445 36.8379 49.4073 37.5408 49.5197 38.114C49.5439 38.2372 49.8052 38.5911 49.8762 38.5966C49.9008 38.5985 49.8016 38.3663 49.6559 38.0806C49.5101 37.7949 49.3387 37.4273 49.2751 37.2637C49.1546 36.9543 48.8577 36.7041 48.6278 36.7183C48.5144 36.7254 48.5143 36.7269 48.6254 36.7556Z" fill="#418070"/>
<path fill-rule="evenodd" clip-rule="evenodd" d="M28.7272 2.13735C28.2385 2.21732 28.1859 2.36608 28.3585 3.18072C28.6066 4.35239 28.3936 5.3986 27.8366 5.74272C26.993 6.26425 24.9607 5.25063 24.6768 4.16664C24.4949 3.47337 24.3862 3.41748 23.4819 3.55207C22.7474 3.66148 22.661 3.70981 22.661 4.01095C22.661 4.5402 23.1607 5.18656 23.7307 5.39498C25.0867 5.89085 25.3629 6.05504 25.5355 6.46779C25.805 7.11306 25.482 7.81546 24.7706 8.13014C24.0984 8.42735 23.3351 8.36312 21.8903 7.88772C20.2531 7.34887 19.7291 7.45922 18.5713 8.58587C17.3933 9.7322 16.4291 9.87923 15.0506 9.12267C14.4831 8.81129 14.5109 8.79004 14.1909 9.77879C13.8913 10.7047 13.8825 10.6912 14.7212 10.5802C16.9051 10.2912 17.7004 10.7085 18.0625 12.3339C18.3812 13.7653 18.7764 14.326 19.4659 14.326C20.0892 14.326 20.1643 14.0551 19.9573 12.5527C19.6466 10.2962 22.3056 9.1296 24.5242 10.5489C25.0218 10.8672 25.1259 10.8996 25.8409 10.9587C27.383 11.0862 28.4359 11.9298 28.8007 13.3299C29.0313 14.215 28.8813 14.7696 28.1031 15.9093C27.215 17.2101 27.541 18.076 29.5245 19.6831C30.9655 20.8507 30.9158 21.8428 29.2438 25.2967C28.5719 26.6847 28.3964 27.2061 28.3906 27.8326C28.3834 28.6074 28.194 28.895 27.4281 29.2939C26.4581 29.7992 26.5151 29.9976 27.9062 30.9621C28.6464 31.4751 28.8203 32.2342 28.3216 32.7752L28.0635 33.0554L28.2911 33.3215C29.0168 34.1693 28.5644 35.2045 27.4708 35.1984C26.3073 35.1918 26.0735 33.7301 27.1475 33.1777C27.476 33.0088 27.465 32.9912 26.7221 32.5007C25.0873 31.4211 24.5215 31.2587 23.5016 31.5766C22.564 31.869 22.372 32.22 22.6264 33.1759C22.8049 33.8468 22.8446 33.8825 24.9691 35.2831L26.0493 35.9951L27.2359 36.1165C29.0423 36.3011 29.1671 36.2852 29.0286 35.8879C28.7098 34.9737 29.1308 34.3338 30.1227 34.2243C30.3305 34.2013 30.7475 34.0991 31.0492 33.9973C31.5467 33.8295 31.6707 33.8128 32.3716 33.8197C32.8138 33.824 33.4149 33.7841 33.7748 33.7268C34.6368 33.5892 35.9758 33.5987 38.144 33.7577C40.4266 33.925 41.2347 33.9041 41.8032 33.6629C43.1908 33.0743 44.8437 33.0983 45.5812 33.7174C45.7873 33.8904 45.9806 33.8813 46.2227 33.6867C46.3507 33.5839 46.4822 33.4997 46.5149 33.4997C46.5475 33.4997 46.6171 33.4343 46.6693 33.3545C46.7216 33.2747 46.9306 33.1208 47.1339 33.0126C47.5548 32.7881 47.6778 32.6671 47.9932 32.1663C48.1171 31.9697 48.3077 31.743 48.417 31.6626C48.602 31.5263 49.2963 30.5518 49.2963 30.4286C49.2963 30.3982 49.3691 30.3048 49.458 30.2213C49.5471 30.1377 49.7045 29.9104 49.8081 29.7159C49.9983 29.3592 50.5557 28.7461 50.5557 28.8936C50.5557 29.1957 51.2808 28.0624 51.3736 27.6153C51.4231 27.3775 51.5149 27.1942 51.6803 27.0033C52.0932 26.5266 52.1919 26.3429 52.323 25.8064C52.3934 25.5182 52.5179 25.1407 52.5998 24.9675C52.6815 24.7944 52.8217 24.4984 52.9113 24.3097C53.001 24.1211 53.0744 23.9218 53.0744 23.8669C53.0744 23.8118 53.1319 23.6034 53.2021 23.4036C53.2723 23.204 53.3149 23.0167 53.2968 22.9874C53.2787 22.9581 53.3061 22.8534 53.3578 22.7545C53.4092 22.6557 53.4516 22.5408 53.4519 22.4992C53.4521 22.4577 53.4909 22.401 53.5382 22.3733C53.6367 22.3155 53.7096 21.9259 53.6269 21.8983C53.5969 21.8884 53.6274 21.753 53.6951 21.5978C53.7626 21.4425 53.8511 21.1522 53.8916 20.9526C53.9322 20.753 53.9873 20.6033 54.0144 20.6199C54.2599 20.7717 54.3695 19.6743 54.1752 19.0086C52.0494 11.7245 44.6759 4.95326 36.6398 2.90524C34.0583 2.24738 30.291 1.8817 28.7272 2.13735ZM32.7358 2.36073C38.4139 2.95782 43.6341 5.41891 47.3794 9.26466C48.4968 10.4119 48.8614 11.0218 48.9846 11.949C49.0204 12.2174 49.1022 12.7062 49.1666 13.0352C49.2384 13.4018 49.2875 13.9502 49.2935 14.4519C49.2989 14.9022 49.311 15.6389 49.3204 16.0891C49.3299 16.5393 49.303 17.1202 49.2608 17.3799C49.2186 17.6397 49.1651 18.0647 49.1418 18.3245C49.0613 19.221 48.8468 20.3032 48.6673 20.7172C48.5697 20.9423 48.3989 21.424 48.2876 21.7877C48.0819 22.4608 47.6406 23.4248 47.5384 23.4248C47.5074 23.4248 47.4364 23.559 47.3805 23.7227C47.2332 24.1554 46.4219 25.4823 46.0806 25.8491C45.7579 26.1957 45.6 26.4473 45.705 26.4473C45.821 26.4473 45.7758 26.5543 45.4611 27.0244C45.1431 27.4996 43.8181 28.9111 43.8181 28.7746C43.8181 28.7325 43.6952 28.8079 43.5449 28.9422C43.3945 29.0765 43.1679 29.2656 43.0411 29.3622C42.9144 29.4589 42.8107 29.5878 42.8107 29.6486C42.8107 29.7995 42.4273 30.1548 41.8976 30.4949C41.6552 30.6505 41.2113 30.9509 40.9109 31.1625C40.609 31.3751 40.3546 31.5154 40.3417 31.4764C40.3108 31.3841 39.8647 31.6103 39.5746 31.865C39.4553 31.9699 39.2206 32.103 39.0534 32.1611C38.8758 32.2227 38.794 32.2759 38.8568 32.2891C39.0239 32.3239 37.6627 32.9859 37.2695 33.0609C37.079 33.0973 36.3631 33.1543 35.6785 33.1875C34.9939 33.2207 34.1438 33.2938 33.7894 33.3497C33.4351 33.4057 32.7201 33.4565 32.2006 33.4628C31.425 33.4723 31.1829 33.4984 30.8468 33.6094C30.423 33.7493 29.3502 33.9033 29.2 33.8457C28.9225 33.7391 28.7467 33.1822 28.8295 32.6718C28.9893 31.6878 28.793 31.3125 27.7469 30.6032C26.8195 29.9743 26.814 29.8074 27.7055 29.3344C28.3555 28.9893 28.4405 28.8449 28.522 27.9459C28.6138 26.9345 28.6601 26.7917 29.4226 25.1703C31.1133 21.5755 31.093 20.8068 29.2682 19.3285C28.3341 18.5718 27.7028 17.6683 27.6998 17.0838C27.6979 16.7388 27.7644 16.5965 28.2968 15.8057C29.8639 13.4775 28.4112 10.8448 25.5525 10.8326C25.3714 10.8318 25.1603 10.7757 24.9858 10.6822C24.8328 10.6002 24.4926 10.4168 24.23 10.2747C23.1641 9.69757 21.9575 9.67726 20.936 10.2189C19.9572 10.7381 19.659 11.4386 19.8531 12.763C20.0271 13.949 19.9592 14.1972 19.4605 14.1972C18.882 14.1972 18.5111 13.6384 18.1983 12.2955C17.809 10.6233 17.0736 10.1462 15.0953 10.2817C14.4845 10.3236 14.3881 10.2636 14.487 9.903C14.6284 9.38682 14.6921 9.36336 15.3567 9.58281C16.6564 10.0119 17.6422 9.75707 18.6758 8.72471C19.8182 7.58374 20.1884 7.50723 21.954 8.04797C24.2495 8.75085 25.587 8.39114 25.7272 7.03293C25.8078 6.25182 25.4056 5.8271 24.1878 5.40726C23.3379 5.1143 22.8557 4.63575 22.8513 4.08022C22.8494 3.85432 22.9851 3.78883 23.6368 3.70162C24.2728 3.61662 24.3632 3.66589 24.5151 4.18018C24.8764 5.40395 26.9477 6.40766 27.9227 5.83166C28.4989 5.49132 28.7377 4.31934 28.4885 3.05479C28.3279 2.23951 28.4416 2.19685 30.6579 2.2414C31.2986 2.25431 32.2337 2.30799 32.7358 2.36073ZM22.7747 11.5872C23.0048 11.6197 23.296 11.7146 23.4673 11.8134C24.4361 12.3716 24.3921 12.3564 25.2029 12.4192C26.2884 12.5032 26.335 12.5133 26.6692 12.7381C27.4601 13.2702 27.5939 14.037 27.0373 14.8472C26.2081 16.0538 26.096 16.3482 26.137 17.2113C26.1903 18.3348 26.9288 19.5251 28.2346 20.5921C29.1319 21.3252 29.1745 21.8398 28.4484 23.173C28.3446 23.3634 28.3065 23.4626 28.3638 23.3934C28.421 23.3241 28.5973 23.0031 28.7553 22.6799C29.2625 21.6432 29.1846 21.1884 28.3934 20.5667C26.1482 18.8027 25.6652 17.0396 26.9231 15.1975C27.6742 14.0973 27.7008 13.6444 27.056 12.9388C26.6437 12.4877 26.3922 12.3959 25.4081 12.338C24.5359 12.2865 24.6571 12.3258 23.5158 11.7236C23.2877 11.6033 23.0963 11.5562 22.7917 11.5458L22.3776 11.5315L22.7747 11.5872ZM21.6052 12.4055C21.6052 12.5267 21.6181 12.5763 21.634 12.5157C21.6497 12.4551 21.6497 12.3559 21.634 12.2953C21.6181 12.2347 21.6052 12.2843 21.6052 12.4055ZM21.7381 13.7593C21.7384 14.0364 21.7494 14.1418 21.7626 13.9937C21.776 13.8457 21.7758 13.619 21.7623 13.49C21.7488 13.361 21.7379 13.4822 21.7381 13.7593ZM21.6414 14.4834C21.6194 14.6046 21.5843 14.7605 21.5635 14.8297C21.5427 14.899 21.5702 14.8601 21.6244 14.7433C21.6787 14.6264 21.7138 14.4705 21.7025 14.397C21.6877 14.3016 21.67 14.3265 21.6414 14.4834ZM6.96111 18.3035C6.75709 18.5075 7.09208 20.4654 7.33104 20.4654C7.39008 20.4654 7.42282 20.5299 7.42282 20.6464C7.42282 20.7459 7.44076 20.9168 7.46265 21.0262L7.50232 21.2251L7.68303 21.0228C7.78236 20.9115 7.86359 20.7709 7.86359 20.7105C7.86359 20.6499 7.90137 20.5625 7.94765 20.5162C8.20834 20.2555 8.34152 18.9932 8.1375 18.7177C7.86485 18.3496 7.16213 18.1023 6.96111 18.3035ZM25.0259 31.8998C25.7108 32.246 26.1027 32.4818 26.3371 32.6891L26.5955 32.9177L26.3441 33.1996C25.9517 33.6398 25.3817 33.6382 24.3824 33.1944C24.0764 33.0584 23.6768 32.8991 23.4947 32.8404C22.8815 32.6425 22.8748 32.3066 23.478 32.0064C24.1053 31.6939 24.5571 31.6629 25.0259 31.8998ZM26.6124 38.8297C26.5266 39.0178 26.5984 39.0832 26.9574 39.1432C27.0867 39.1649 27.1791 39.2041 27.1627 39.2304C27.1136 39.31 27.3806 39.3598 28.0701 39.3997C28.5746 39.429 28.7142 39.4202 28.678 39.3615C28.6417 39.3028 28.7533 39.2951 29.1613 39.3281L29.6917 39.3713L29.7727 39.1757C29.9174 38.8261 29.8508 38.7828 29.1893 38.7967C28.8654 38.8034 28.5685 38.7893 28.5296 38.7653C28.4907 38.7413 28.0595 38.7106 27.5715 38.697L26.684 38.6725L26.6124 38.8297Z" fill="#A4B9D3"/>
<path fill-rule="evenodd" clip-rule="evenodd" d="M10.8417 27.4049C10.726 27.5517 10.7456 28.0698 10.8698 28.1422C10.9306 28.1776 10.952 28.2078 10.9174 28.2094C10.8302 28.2134 11.0251 28.3341 11.1208 28.3354C11.2267 28.3366 11.4364 27.8935 11.4033 27.7381C11.3668 27.566 11.1936 27.3811 11.1022 27.4162C11.0609 27.4319 10.9999 27.4176 10.9665 27.3842C10.9275 27.3452 10.8827 27.3526 10.8417 27.4049ZM12.586 29.4971L12.7434 29.681L12.5339 29.5362C12.3663 29.4201 12.3098 29.4072 12.2506 29.4711C12.1929 29.5336 12.1974 29.5418 12.2712 29.5081C12.3411 29.4762 12.3393 29.4845 12.2646 29.5401C12.175 29.6065 12.1731 29.6481 12.2487 29.9045C12.4023 30.4259 12.4576 30.4959 13.3416 31.2898C13.4628 31.3987 13.563 31.5083 13.5642 31.5335C13.5655 31.5585 13.6 31.6391 13.6407 31.7125C13.6817 31.7858 13.6971 31.8638 13.6752 31.8856C13.6533 31.9075 13.6686 31.9255 13.7089 31.9255C13.7494 31.9255 13.7824 31.9623 13.7824 32.0073C13.7824 32.0523 13.8178 32.1246 13.8611 32.1679C13.9044 32.2112 13.9416 32.2664 13.9436 32.2907C13.9458 32.3149 14.0662 32.4599 14.2112 32.6129C14.3564 32.7658 14.4751 32.9133 14.4751 32.9407C14.4751 33.327 15.0972 33.7605 16.1752 34.1257C16.9749 34.3966 17.0655 34.4846 17.3108 35.2283C17.5326 35.9008 17.6518 36.0528 18.0301 36.1467C18.17 36.1814 18.4121 36.2691 18.568 36.3414C18.7238 36.4138 19.0922 36.553 19.3865 36.6506C19.6809 36.7483 20.1343 36.904 20.394 36.9964C20.6538 37.089 21.0108 37.176 21.1874 37.1899C21.364 37.2037 21.7299 37.2717 22.0003 37.3408C22.7183 37.5245 23.5112 37.5167 23.6139 37.3249C23.7815 37.0115 23.2222 36.6166 22.7068 36.6842C22.4209 36.7219 22.1804 36.606 22.0263 36.3568C21.9301 36.2011 21.8235 36.1249 21.6323 36.0753C21.4438 36.0265 21.3168 35.9373 21.1811 35.7583C20.7555 35.1973 20.8013 35.2217 20.1026 35.184C19.3431 35.143 18.9439 34.9969 18.7927 34.7047C18.6805 34.4875 18.6503 34.2164 18.7569 34.3812C18.8063 34.4577 18.8181 34.4489 18.8189 34.3349C18.8206 34.0906 18.4946 33.7917 18.2142 33.7805C17.5942 33.7556 16.9146 33.4679 16.6937 33.1366C16.312 32.5641 15.9959 32.4046 15.4026 32.4851C15.2075 32.5115 15.0611 32.5118 15.0773 32.4856C15.0936 32.4594 15.0748 32.4182 15.0358 32.3939C14.9892 32.3653 14.9788 32.2442 15.0054 32.0435L15.046 31.737L14.7449 31.5336C14.3636 31.2761 13.7064 30.6121 13.755 30.5336C13.7752 30.5008 13.7684 30.4781 13.7399 30.483C13.6401 30.5003 13.5098 30.4769 13.5397 30.4471C13.5735 30.4133 12.8297 29.6241 12.586 29.4352L12.4286 29.3132L12.586 29.4971ZM42.779 35.3676C42.6059 35.4205 42.4359 35.4857 42.4012 35.5124C42.3455 35.5555 42.034 35.6387 41.5512 35.7394C41.4646 35.7575 41.0005 35.7857 40.5201 35.8021C40.0395 35.8184 39.6193 35.8485 39.5864 35.8688C39.5535 35.8891 39.3515 35.9001 39.1378 35.8932C38.6685 35.8781 37.8288 35.8389 37.7416 35.828C37.5494 35.8043 37.2064 35.8587 37.2064 35.913C37.2064 35.9478 37.1875 35.9574 37.1642 35.9343C37.1411 35.9112 37.0738 35.9359 37.0148 35.9894C36.9556 36.0428 36.8826 36.0804 36.8522 36.073C36.822 36.0654 36.7121 36.0971 36.6082 36.1432C35.869 36.4716 35.7144 36.5221 35.4498 36.5221C35.2859 36.5221 35.0946 36.5655 35.0162 36.6203C34.8682 36.7239 34.6499 37.0874 34.7333 37.0909C34.7601 37.0921 34.7152 37.1488 34.6335 37.2168C34.4882 37.3378 34.0799 37.3951 34.1479 37.285C34.1906 37.2162 33.7043 37.0888 33.3984 37.0888C33.2741 37.0888 33.0671 37.0446 32.9383 36.9906C32.7245 36.901 32.2242 36.9133 32.317 37.0059C32.3362 37.0251 32.3086 37.0842 32.2556 37.1371C32.177 37.2157 32.1672 37.3294 32.2025 37.7531C32.2324 38.1119 32.2209 38.3479 32.1657 38.5152C32.078 38.7798 32.0602 39.5316 32.1304 39.9951C32.1857 40.3589 32.355 40.5483 32.8487 40.7975C33.2498 40.9999 33.3964 41.1614 33.599 41.6242C33.7164 41.8926 33.9587 42.1321 34.5622 42.5764C34.6838 42.6659 34.9671 42.9163 35.1919 43.1329C35.9807 43.8928 36.3428 44.1533 37.1903 44.5706C37.7319 44.8373 38.1769 45.1085 38.4432 45.3341C39.2412 46.0098 39.446 46.0702 40.1711 45.8446C40.4234 45.7661 40.6131 45.6619 40.6983 45.555C40.8003 45.4272 40.9045 45.3804 41.1441 45.3551C41.4248 45.3255 41.489 45.287 41.7716 44.9799C42.0595 44.6668 42.124 44.6292 42.5272 44.5395C42.9037 44.4556 43.0046 44.4024 43.2198 44.175C43.5331 43.844 43.6818 43.7639 43.9871 43.7618C44.3803 43.7595 44.7099 43.6565 44.8672 43.4868C44.9484 43.3993 45.1291 43.2933 45.2688 43.2515C45.413 43.2082 45.4918 43.1564 45.4514 43.1313C45.4089 43.1051 45.46 43.0594 45.5778 43.0183C45.6866 42.9804 45.8591 42.8899 45.9613 42.8171C46.0634 42.7444 46.1692 42.6988 46.1963 42.7154C46.2235 42.7323 46.3158 42.6882 46.4014 42.6175L46.5571 42.4891L46.3762 42.5975C46.2767 42.6572 46.2153 42.6736 46.2399 42.6339C46.2889 42.5546 47.0975 42.1536 47.1674 42.1741C47.1913 42.181 47.271 42.1094 47.3444 42.0148C47.4177 41.9203 47.6811 41.7428 47.9296 41.6204C48.1795 41.4975 48.4124 41.3358 48.4509 41.2588C48.4891 41.1822 48.5362 41.1354 48.5557 41.1548C48.5751 41.1743 48.6234 41.0918 48.6631 40.9717C48.7233 40.7893 48.7923 40.7301 49.0815 40.6126C49.7467 40.3427 50.3446 38.899 49.9076 38.6174C49.7658 38.5259 49.5448 38.2425 49.5211 38.122C49.4426 37.7212 49.0993 37.0835 48.8461 36.8684C48.7107 36.7534 48.6193 36.7437 47.7861 36.7578C47.1676 36.7681 46.7279 36.7428 46.4192 36.679C46.1689 36.6274 45.7949 36.5851 45.5879 36.5851C44.9986 36.5851 44.7657 36.4524 44.3416 35.8759C43.9243 35.3087 43.4633 35.1587 42.779 35.3676Z" fill="#288C68"/>
<path fill-rule="evenodd" clip-rule="evenodd" d="M29.178 2.24362C28.4442 2.30312 28.3598 2.4023 28.4884 3.0548C28.7376 4.31935 28.4988 5.49133 27.9226 5.83167C26.9476 6.40767 24.8762 5.40397 24.515 4.18019C24.3631 3.6659 24.2727 3.61663 23.6367 3.70163C22.985 3.78884 22.8493 3.85433 22.8512 4.08023C22.8556 4.63576 23.3378 5.11431 24.1877 5.40727C25.4055 5.82711 25.8077 6.25183 25.7271 7.03294C25.5868 8.39115 24.2494 8.75086 21.9539 8.04798C20.1883 7.50724 19.8181 7.58375 18.6757 8.72472C17.642 9.75708 16.6563 10.0119 15.3566 9.58282C14.692 9.36338 14.6283 9.38683 14.4869 9.90301C14.388 10.2637 14.4844 10.3236 15.0952 10.2818C17.0734 10.1462 17.8089 10.6234 18.1982 12.2955C18.511 13.6384 18.8819 14.1972 19.4604 14.1972C19.9591 14.1972 20.0269 13.949 19.853 12.763C19.6589 11.4386 19.9571 10.7381 20.9359 10.2189C21.9574 9.67727 23.164 9.69758 24.2299 10.2747C24.4925 10.4168 24.8326 10.6002 24.9857 10.6822C25.1602 10.7757 25.3713 10.8318 25.5524 10.8326C27.5064 10.8411 28.9577 12.182 28.9577 13.9791C28.9577 14.6506 28.8221 15.0251 28.2967 15.8058C27.7643 16.5965 27.6978 16.7388 27.6997 17.0838C27.7027 17.6683 28.334 18.5718 29.2681 19.3285C31.0929 20.8068 31.1132 21.5755 29.4225 25.1703C28.66 26.7917 28.6137 26.9345 28.5219 27.9459C28.4404 28.845 28.3554 28.9893 27.7054 29.3344C26.8139 29.8074 26.8194 29.9743 27.7468 30.6032C28.7928 31.3125 28.9891 31.6878 28.8294 32.6718C28.7466 33.1822 28.9224 33.7391 29.1999 33.8457C29.3501 33.9033 30.4229 33.7493 30.8467 33.6094C31.1828 33.4984 31.4249 33.4723 32.2005 33.4628C32.72 33.4565 33.435 33.4057 33.7893 33.3497C34.1437 33.2938 34.9937 33.2207 35.6784 33.1875C36.363 33.1543 37.0789 33.0973 37.2694 33.061C37.6626 32.9859 39.0238 32.3239 38.8567 32.2891C38.7938 32.2759 38.8757 32.2227 39.0533 32.1611C39.2204 32.1031 39.4552 31.9699 39.5745 31.865C39.8646 31.6103 40.3107 31.3841 40.3416 31.4764C40.3545 31.5154 40.6089 31.3752 40.9108 31.1625C41.2112 30.9509 41.6551 30.6506 41.8975 30.4949C42.4272 30.1548 42.8106 29.7995 42.8106 29.6486C42.8106 29.5878 42.9143 29.4589 43.041 29.3622C43.1677 29.2656 43.3944 29.0765 43.5448 28.9422C43.6951 28.808 43.818 28.7326 43.818 28.7746C43.818 28.9111 45.143 27.4996 45.461 27.0244C45.7757 26.5543 45.8209 26.4473 45.7049 26.4473C45.5999 26.4473 45.7578 26.1957 46.0805 25.8491C46.4217 25.4823 47.2331 24.1554 47.3804 23.7227C47.4363 23.559 47.5073 23.4249 47.5383 23.4249C47.6405 23.4249 48.0817 22.4608 48.2875 21.7877C48.3988 21.424 48.5696 20.9423 48.6672 20.7172C48.8466 20.3032 49.0612 19.221 49.1416 18.3245C49.1649 18.0647 49.2185 17.6397 49.2606 17.38C49.3028 17.1202 49.3298 16.5393 49.3203 16.0891C49.3109 15.6389 49.2987 14.9022 49.2934 14.452C49.2874 13.9503 49.2383 13.4018 49.1665 13.0352C49.1021 12.7062 49.0203 12.2174 48.9845 11.949C48.6739 9.61273 43.9802 5.75092 39.2368 3.92926C36.0686 2.71257 31.9346 2.01977 29.178 2.24362ZM32.6614 2.61497C36.3346 2.98427 40.7038 4.54398 42.4485 6.10889C42.6939 6.32896 42.8106 6.48119 42.8106 6.58115C42.8106 6.66238 42.8771 6.80878 42.9584 6.90669C43.0398 7.0046 43.2279 7.26403 43.3766 7.48332C43.5361 7.71834 43.6649 7.85309 43.6904 7.81169C43.819 7.60359 45.135 10.6043 45.0528 10.9182C45.019 11.0478 45.1706 11.398 45.2606 11.398C45.3828 11.398 45.5509 12.6345 45.4461 12.7621C45.4072 12.8094 45.4195 12.9653 45.481 13.2028C45.5822 13.5943 45.7069 14.7414 45.7071 15.2817C45.7071 15.4876 45.7419 15.6427 45.8015 15.7023C45.9758 15.8764 45.9158 17.0021 45.7324 17.0021C45.6318 17.0021 45.5989 17.1196 45.521 17.7565C45.4798 18.0932 45.4835 18.2401 45.5341 18.2713C45.635 18.3338 45.422 19.5259 45.2358 19.9399C45.1555 20.1184 45.0141 20.528 44.9214 20.8499C44.8288 21.1719 44.699 21.5113 44.6328 21.604C44.5669 21.6967 44.4148 22.0049 44.2952 22.2888C44.0121 22.9598 43.628 23.5574 43.5032 23.5209C43.3716 23.4826 42.8106 24.3631 42.8106 24.6079C42.8106 24.7968 42.6771 24.9765 41.9323 25.7904C41.7399 26.0005 41.4637 26.3157 41.3184 26.4909C41.1729 26.6661 40.9037 26.8952 40.7202 26.9998C40.5365 27.1047 40.2742 27.3065 40.1374 27.4485C39.9672 27.625 39.8349 27.7067 39.7193 27.7067C39.619 27.7067 39.3996 27.8172 39.1811 27.9774C38.9782 28.1263 38.5884 28.3743 38.315 28.5284C38.0415 28.6825 37.8048 28.8572 37.7887 28.9166C37.7476 29.069 37.3324 29.3114 37.3324 29.1829C37.3324 29.1047 37.2938 29.1089 37.0962 29.2086C36.9664 29.2741 36.7893 29.3492 36.7027 29.3755C36.6161 29.4017 36.3021 29.5322 36.0047 29.6656C35.7073 29.7989 35.254 29.9518 34.9972 30.0053C34.3644 30.1372 34.3099 30.1574 34.3099 30.2587C34.3099 30.3091 34.1959 30.376 34.0423 30.4158C33.8951 30.4541 33.6755 30.5117 33.5543 30.5438C33.2434 30.6265 33.1135 30.6173 33.1135 30.5127C33.1135 30.4169 32.8813 30.4283 32.4209 30.546C32.2997 30.577 31.5913 30.6017 30.8467 30.6008C29.6878 30.5992 29.2081 30.5695 28.4854 30.4539C28.3146 30.4267 27.7389 30.1298 27.6508 30.0236C27.5543 29.9072 27.6185 29.826 27.9327 29.6667C28.6309 29.3128 28.7365 29.0877 28.7932 27.8326C28.8256 27.1146 28.8934 26.8207 29.1566 26.2584C29.2295 26.1026 29.4973 25.5305 29.7515 24.9872C31.2361 21.8149 31.2012 20.619 29.5861 19.3308C27.8124 17.9166 27.5684 17.2175 28.4146 15.974C30.076 13.5328 28.7908 10.9229 25.7938 10.6523C25.209 10.5994 25.1558 10.582 24.6604 10.2788C22.8624 9.17841 20.4707 9.53654 19.7513 11.0139C19.5717 11.3827 19.5267 12.332 19.654 13.0659C19.79 13.8501 19.6471 14.1176 19.2125 13.893C18.8543 13.7077 18.6481 13.2405 18.4106 12.0759C18.2223 11.1526 18.0995 10.8806 17.694 10.4873C17.2943 10.1001 17.2915 10.125 17.7651 9.87751C18.0474 9.73 18.3545 9.47152 18.8513 8.96369C19.9271 7.86396 20.2415 7.78651 21.794 8.23972C24.6204 9.06444 26.0426 8.48592 25.9099 6.56525C25.8831 6.17595 25.8916 5.9828 25.9357 5.9828C25.9719 5.9828 26.2327 6.04277 26.5155 6.11597C28.1323 6.53518 28.788 5.85056 28.7961 3.73501C28.7985 3.10265 28.8264 2.62583 28.8632 2.58931C29.011 2.44197 31.0794 2.45598 32.6614 2.61497ZM24.0879 3.99774C24.1608 4.0489 24.2387 4.18775 24.2609 4.30644C24.2832 4.42513 24.3716 4.65386 24.4572 4.81506C24.6511 5.1798 24.6532 5.16437 24.4082 5.16359C23.5917 5.16123 22.8666 4.20852 23.5267 4.00561C23.911 3.88739 23.9298 3.88723 24.0879 3.99774ZM22.1148 11.705C21.6902 11.9041 21.6249 12.0589 21.6915 12.7074C21.9188 14.9196 21.4432 15.8111 19.807 16.2396C19.0539 16.4369 19.0571 16.4339 19.0958 16.928C19.1336 17.4095 19.1517 17.5045 19.2849 17.9246C19.3381 18.0926 19.4302 18.4277 19.4894 18.6692C19.5487 18.9109 19.68 19.265 19.7811 19.4563C19.8823 19.6477 20.0284 19.9777 20.1058 20.1896C20.3977 20.9889 21.3667 22.2692 22.3111 23.1036C22.4131 23.1938 22.63 23.402 22.7934 23.5665C22.9567 23.731 23.1338 23.8656 23.1868 23.8656C23.3176 23.8656 23.688 24.0895 23.928 24.3136C24.0361 24.4147 24.1565 24.4914 24.1956 24.484C24.2346 24.4767 24.501 24.5902 24.7873 24.7363C25.3641 25.0304 26.3678 25.3768 26.6425 25.3768C27.2509 25.3768 28.9577 22.6543 28.9577 21.6835C28.9577 21.294 28.7971 21.0519 28.2345 20.5921C26.9287 19.5251 26.1902 18.3349 26.1369 17.2114C26.0959 16.3482 26.208 16.0539 27.0371 14.8472C27.5938 14.037 27.46 13.2702 26.6691 12.7381C26.3349 12.5133 26.2883 12.5033 25.2027 12.4192C24.3911 12.3562 24.4385 12.3729 23.4598 11.8092C23.0516 11.5742 22.4869 11.5304 22.1148 11.705ZM23.5183 12.1601C24.1723 12.5486 24.3813 12.6051 25.337 12.6522C26.2971 12.6992 26.4578 12.749 26.8191 13.1101C27.3724 13.6636 27.3359 14.0831 26.6489 15.0626C25.4274 16.8044 25.7609 18.6281 27.6175 20.3582C28.7344 21.3989 28.7058 21.3641 28.7058 21.6811C28.7058 22.1883 27.9872 23.4307 27.5687 23.6471C27.3602 23.755 27.1316 23.7688 27.1316 23.6736C27.1316 23.5673 26.7193 23.4249 26.4123 23.4249C26.257 23.4249 25.941 23.3564 25.7103 23.2725C25.2378 23.101 25.0702 22.9841 25.2969 22.9841C25.4049 22.9841 25.3395 22.9158 25.0277 22.7021C24.8012 22.5471 24.5797 22.4339 24.5356 22.4506C24.4308 22.4906 23.5687 21.8338 23.5912 21.7313C23.623 21.586 23.21 21.1232 23.1643 21.2533C23.132 21.3453 23.0818 21.3107 22.881 21.0569C22.7467 20.8874 22.5337 20.6212 22.4078 20.4654C22.047 20.0191 21.9566 19.858 21.6326 19.0832C21.2109 18.075 20.9782 17.3533 20.926 16.8915L20.8816 16.499L21.2543 16.0107C22.0249 15.0013 22.1952 14.3562 22.0361 13.0482C21.9974 12.7296 21.9841 12.3953 22.0068 12.3052C22.1216 11.8478 22.8715 11.7758 23.5183 12.1601ZM23.9816 31.7741C22.9974 32.0744 22.7563 32.6022 23.4946 32.8404C23.6767 32.8991 24.0762 33.0584 24.3823 33.1944C25.3816 33.6382 25.9516 33.6398 26.344 33.1996L26.5954 32.9177L26.3369 32.6891C26.1025 32.4818 25.7107 32.246 25.0258 31.8998C24.7906 31.781 24.1942 31.7092 23.9816 31.7741Z" fill="#BEC4D1"/>
</svg>
