<svg width="60" height="60" viewBox="0 0 60 60" fill="none" xmlns="http://www.w3.org/2000/svg">
<g clip-path="url(#clip0_1271_15274)">
<path d="M5.58806 2.40149L30.0163 26.8556L54.5906 2.40149H5.58806ZM2.33798 6.49471L29.9324 33.5589L57.6942 6.57816L57.6103 23.2844L30.3515 34.3944L37.229 40.1162L33.5385 42.8311L14.6671 42.9146C12.4728 42.9046 2.93076 34.5966 2.33752 24.2037L2.33798 6.49471Z" fill="#2C3E50"/>
<path d="M35.5509 35.0787L60 25.2464L56.3576 51.2425L50.9854 47.1008C41.1313 57.6098 30.4603 59.024 20.1459 56.5512C9.83143 54.0785 5.56994 47.0255 2.338 40.4083C-0.893938 33.7911 -0.30388 26.4918 1.28941 19.9849C1.80192 24.752 0.693913 27.3849 4.18301 35.2293C7.04486 40.3992 10.7199 44.4893 15.9252 46.5479C22.2295 49.3576 30.5506 48.0705 34.8384 45.1696L41.2968 39.6563L35.5509 35.0787Z" fill="#00B786"/>
</g>
<defs>
<clipPath id="clip0_1271_15274">
<rect width="60" height="55.2" fill="white" transform="translate(0 2.40134)"/>
</clipPath>
</defs>
</svg>
