<svg width="60" height="60" viewBox="0 0 60 60" fill="none" xmlns="http://www.w3.org/2000/svg">
<path d="M48.7501 36.2501C48.7501 38.7365 47.4401 39.955 45.0001 39.998V40.0001H14.9999V39.998C12.5599 39.955 11.2499 38.7365 11.2499 36.2501C11.2499 33.7637 12.5599 32.5452 14.9999 32.5021V32.5H45.0001V32.5021C47.4401 32.5452 48.7501 33.7637 48.7501 36.2501ZM45.0001 41.877V41.8749H14.9999V41.877C12.5599 41.9201 11.2499 43.1388 11.2499 45.6252C11.2499 48.1116 12.5599 49.3301 14.9999 49.3731V49.3752H45.0001V49.3731C47.4399 49.3301 48.7501 48.1116 48.7501 45.6252C48.7501 43.1388 47.4401 41.9201 45.0001 41.877ZM54.3752 21.2543V21.2522C51.9351 21.2953 50.6249 22.5137 50.6249 25.0002V45.6252C50.6249 48.1116 51.9349 49.3301 54.3752 49.3731V49.3688C58.0351 49.2397 60 45.5844 60 38.1249V28.7502C60.0002 23.7774 58.0351 21.3405 54.3752 21.2543ZM5.62506 21.2522V21.2543C1.96494 21.3405 0 23.7772 0 28.7502V38.1251C0 45.5846 1.96494 49.2397 5.62506 49.369V49.3734C8.06507 49.3303 9.37489 48.1118 9.37489 45.6254V25.0002C9.37489 22.5137 8.06507 21.2953 5.62506 21.2522ZM54.3752 19.3751C54.3752 13.1589 51.1 10.1129 45.0001 10.0052V10H14.9999V10.0052C8.90002 10.1129 5.62506 13.1589 5.62506 19.3751V19.3782C9.28497 19.4429 11.2499 21.2704 11.2499 25.0002C11.2499 28.7297 13.2151 30.5575 16.875 30.6221V30.6252H43.125V30.6221C46.7852 30.5575 48.7501 28.7297 48.7501 25.0002C48.7501 21.2704 50.715 19.4429 54.3752 19.3782V19.3751Z" fill="#E42528"/>
</svg>
