<svg width="60" height="60" viewBox="0 0 60 60" fill="none" xmlns="http://www.w3.org/2000/svg">
<path d="M20.8363 4.08998H37.11L20.2163 54.1444C20.0426 54.6587 19.7121 55.1057 19.2711 55.4223C18.8301 55.7389 18.301 55.9093 17.7581 55.9094H5.09313C4.68182 55.9094 4.27641 55.8115 3.91044 55.6238C3.54447 55.4361 3.22846 55.1639 2.98855 54.8298C2.74864 54.4957 2.59172 54.1093 2.53079 53.7025C2.46985 53.2958 2.50664 52.8803 2.63812 52.4906L18.3775 5.85498C18.5511 5.34042 18.8817 4.89327 19.3228 4.57653C19.7639 4.25978 20.2932 4.08939 20.8363 4.08936V4.08998Z" fill="url(#paint0_linear_427_4276)"/>
<path d="M44.4844 37.6631H18.6781C18.4382 37.6629 18.2038 37.7349 18.0053 37.8698C17.8069 38.0046 17.6537 38.1961 17.5657 38.4193C17.4777 38.6425 17.4589 38.887 17.5119 39.1211C17.5648 39.3551 17.687 39.5677 17.8625 39.7313L34.445 55.2088C34.9278 55.6591 35.5635 55.9095 36.2237 55.9094H50.8362L44.4844 37.6631Z" fill="#0078D4"/>
<path d="M20.8362 4.08998C20.2873 4.08788 19.752 4.26136 19.3086 4.58508C18.8653 4.90881 18.537 5.36582 18.3719 5.88936L2.65749 52.4481C2.51716 52.8392 2.47311 53.2584 2.52905 53.6702C2.58499 54.0819 2.73928 54.4742 2.97888 54.8137C3.21847 55.1532 3.53632 55.43 3.90552 55.6208C4.27473 55.8115 4.68444 55.9104 5.09999 55.9093H18.0919C18.5757 55.8229 19.028 55.6095 19.4024 55.2911C19.7769 54.9726 20.0601 54.5605 20.2231 54.0968L23.3569 44.8612L34.5506 55.3018C35.0197 55.6898 35.6081 55.9044 36.2169 55.9093H50.775L44.39 37.6631L25.7769 37.6675L37.1688 4.08998H20.8362Z" fill="url(#paint1_linear_427_4276)"/>
<path d="M41.6219 5.85253C41.4486 5.3388 41.1185 4.89239 40.678 4.5762C40.2376 4.26001 39.7091 4.08996 39.1669 4.09003H21.03C21.5722 4.09006 22.1007 4.26014 22.5411 4.57632C22.9815 4.8925 23.3116 5.33885 23.485 5.85253L39.225 52.49C39.3566 52.8798 39.3935 53.2954 39.3326 53.7022C39.2717 54.1091 39.1148 54.4957 38.8749 54.8299C38.635 55.1641 38.319 55.4364 37.9529 55.6242C37.5869 55.812 37.1814 55.91 36.77 55.91H54.9075C55.3189 55.9099 55.7243 55.8119 56.0902 55.624C56.4562 55.4361 56.7721 55.1638 57.012 54.8296C57.2518 54.4954 57.4087 54.1089 57.4695 53.7021C57.5303 53.2953 57.4935 52.8798 57.3619 52.49L41.6219 5.85253Z" fill="url(#paint2_linear_427_4276)"/>
<defs>
<linearGradient id="paint0_linear_427_4276" x1="26.7675" y1="7.92998" x2="9.86688" y2="57.8587" gradientUnits="userSpaceOnUse">
<stop stop-color="#114A8B"/>
<stop offset="1" stop-color="#0669BC"/>
</linearGradient>
<linearGradient id="paint1_linear_427_4276" x1="32.0469" y1="31.1981" x2="28.1375" y2="32.52" gradientUnits="userSpaceOnUse">
<stop stop-opacity="0.3"/>
<stop offset="0.071" stop-opacity="0.2"/>
<stop offset="0.321" stop-opacity="0.1"/>
<stop offset="0.623" stop-opacity="0.05"/>
<stop offset="1" stop-opacity="0"/>
</linearGradient>
<linearGradient id="paint2_linear_427_4276" x1="29.8969" y1="6.47378" x2="48.4488" y2="55.8994" gradientUnits="userSpaceOnUse">
<stop stop-color="#3CCBF4"/>
<stop offset="1" stop-color="#2892DF"/>
</linearGradient>
</defs>
</svg>
