<svg width="60" height="60" viewBox="0 0 60 60" fill="none" xmlns="http://www.w3.org/2000/svg">
<path d="M5.04496 0H1.62162C0.726025 0 0 0.726024 0 1.62162V58.3775C0 59.2731 0.726025 59.9992 1.62162 59.9992H5.04496C5.94056 59.9992 6.66658 59.2731 6.66658 58.3775V1.62162C6.66658 0.726024 5.94056 0 5.04496 0Z" fill="#FFB200"/>
<path d="M0 53.3331H6.66658V58.3779C6.66658 59.2736 5.94057 59.9996 5.04496 59.9996H1.62162C0.726024 59.9996 0 59.2736 0 58.3779V53.3331Z" fill="#FF0000"/>
<path d="M18.3789 0H14.9556C14.06 0 13.334 0.726024 13.334 1.62162V58.3775C13.334 59.2731 14.06 59.9992 14.9556 59.9992H18.3789C19.2745 59.9992 20.0006 59.2731 20.0006 58.3775V1.62162C20.0006 0.726024 19.2745 0 18.3789 0Z" fill="#FFB200"/>
<path d="M31.7113 0H28.288C27.3924 0 26.6664 0.726024 26.6664 1.62162V58.3775C26.6664 59.2731 27.3924 59.9992 28.288 59.9992H31.7113C32.6069 59.9992 33.333 59.2731 33.333 58.3775V1.62162C33.333 0.726024 32.6069 0 31.7113 0Z" fill="#FFB200"/>
<path d="M45.0439 0H41.6205C40.7249 0 39.9989 0.726024 39.9989 1.62162V58.3775C39.9989 59.2731 40.7249 59.9992 41.6205 59.9992H45.0439C45.9395 59.9992 46.6655 59.2731 46.6655 58.3775V1.62162C46.6655 0.726024 45.9395 0 45.0439 0Z" fill="#FFB200"/>
<path d="M58.378 23.3345H54.9546C54.059 23.3345 53.333 24.0605 53.333 24.9561V35.046C53.333 35.9416 54.059 36.6676 54.9546 36.6676H58.378C59.2736 36.6676 59.9996 35.9416 59.9996 35.046V24.9561C59.9996 24.0605 59.2736 23.3345 58.378 23.3345Z" fill="#FFB200"/>
</svg>
