<?xml version="1.0" standalone="no"?>
<!DOCTYPE svg PUBLIC "-//W3C//DTD SVG 1.0//EN" "http://www.w3.org/TR/2001/REC-SVG-20010904/DTD/svg10.dtd">
<svg xmlns="http://www.w3.org/2000/svg" xmlns:xlink="http://www.w3.org/1999/xlink" id="body_1" width="30" height="30">

<g transform="matrix(0.26785713 0 0 0.26785713 -0 0.4017857)">
	<g>
        <path d="M88.345 51.574C 95.933 48.024002 101.109 41.084 102.520004 33.044C 96.396 19.395 84.663 9.054 70.094 4.851C 75.017 11.983999 77.366005 20.434 76.865005 29.021C 83.311 34.466 87.716 42.55 88.345 51.574zM27.27 38.542C 19.063 37.497 10.937 40.515 5.4120007 46.596C 3.23 61.683 7.869 76.84 18.099 88.158C 17.572 79.518 19.955002 70.852 24.93 63.674995C 22.19 55.048 23.32 45.944 27.27 38.542zM33.01 76.928C 30.012999 85.007 31.255 94.121 36.651997 101.143005C 48.806995 106.086006 62.702995 106.289 75.295 101.108C 67.477 98.592 60.408997 93.590004 55.407997 86.377C 47.233 86.23 39.124 83.032 33.01 76.928zM63.122 22.202C 61.615 14.044 56.069 6.819 47.892 3.47C 33.778 5.711 20.745 13.966 12.76 26.631C 20.875 24.144001 29.5 24.453001 37.289 27.27C 44.816 22.008 54.043 20.144 63.122 22.202zM85.891 66.457C 82.805 73.856 77.169 79.645004 70.213 83.067C 76.407 88.671005 85.018 90.825005 93.064995 88.901C 102.118996 79.314 106.949 66.703 106.965 53.892002C 101.549 60.198 94.131 64.67 85.891 66.457z" stroke="none" fill="#449FD8" fill-rule="nonzero" />
		<g>
            <path d="M72.007 53.892C 72.007 58.302547 70.44764 62.067184 67.32891 65.185905C 64.21018 68.304634 60.445545 69.864 56.035 69.864C 51.624454 69.864 47.859818 68.304634 44.74109 65.185905C 41.622364 62.067184 40.063004 58.302547 40.063 53.892C 40.063004 49.481453 41.622364 45.71682 44.74109 42.59809C 47.859818 39.479362 51.624454 37.92 56.035 37.92C 60.445545 37.92 64.21018 39.479362 67.32891 42.59809C 70.44764 45.71682 72.007 49.481453 72.007 53.892C 72.007 54.07786 72.00376 54.263664 71.99727 54.449413" stroke="none" fill="#F04D5C" fill-rule="nonzero" />
		</g>
	</g>
</g>
</svg>