<svg width="60" height="60" viewBox="0 0 60 60" fill="none" xmlns="http://www.w3.org/2000/svg">
<path d="M49.0559 28.4739C53.5158 26.3873 56.5581 22.3082 57.3874 17.5826C53.788 9.56017 46.8917 3.48209 38.3286 1.01172C41.2221 5.20425 42.6028 10.1709 42.3083 15.218C46.0971 18.4184 48.6862 23.1699 49.0559 28.4739ZM13.1581 20.8141C8.33431 20.1999 3.55813 21.9738 0.310724 25.548C-0.971781 34.4156 1.75486 43.3243 7.7677 49.9767C7.45795 44.8984 8.85859 39.8048 11.7827 35.5864C10.1722 30.5158 10.8364 25.1648 13.1581 20.8141ZM16.5319 43.3761C14.7703 48.1246 15.5003 53.4815 18.6725 57.6088C25.8168 60.5141 33.9844 60.6335 41.3855 57.5882C36.7904 56.1094 32.636 53.1694 29.6966 48.9299C24.8917 48.8435 20.1255 46.9638 16.5319 43.3761ZM34.2307 11.21C33.3449 6.41504 30.0851 2.16844 25.279 0.200012C16.9833 1.51719 9.32293 6.3692 4.62962 13.8132C9.39934 12.3515 14.4688 12.5331 19.0469 14.1888C23.471 11.096 28.8943 10.0004 34.2307 11.21ZM47.6135 37.2216C45.7996 41.5705 42.487 44.973 38.3985 46.9844C42.0391 50.2782 47.1004 51.5443 51.8301 50.4134C57.1517 44.7785 59.9906 37.3662 60 29.8363C56.8167 33.5428 52.4567 36.1712 47.6135 37.2216Z" fill="#449FD8"/>
<path d="M39.4528 29.8363C39.4528 32.4286 38.5363 34.6414 36.7032 36.4744C34.8701 38.3075 32.6574 39.2241 30.065 39.2241C27.4727 39.2241 25.2599 38.3075 23.4269 36.4744C21.5938 34.6414 20.6772 32.4286 20.6772 29.8363C20.6772 27.2439 21.5938 25.0312 23.4269 23.1981C25.2599 21.365 27.4727 20.4485 30.065 20.4485C32.6574 20.4485 34.8701 21.365 36.7032 23.1981C38.5363 25.0312 39.4528 27.2439 39.4528 29.8363C39.4528 29.9455 39.4509 30.0547 39.4471 30.1639Z" fill="#F04D5C"/>
</svg>
