<svg xmlns="http://www.w3.org/2000/svg" xmlns:xlink="http://www.w3.org/1999/xlink" width="400" zoomAndPan="magnify" viewBox="0 0 300 299.999988" height="400" preserveAspectRatio="xMidYMid meet" version="1.0"><defs><clipPath id="21638baec4"><path d="M 0 0.75 L 300 0.75 L 300 300 L 0 300 Z M 0 0.75 " clip-rule="nonzero"/></clipPath><clipPath id="3919a05436"><path d="M -2.457031 1.5 L -2.457031 302.402344 C -2.457031 303.230469 -1.785156 303.902344 -0.957031 303.902344 L 299.945312 303.902344 C 300.773438 303.902344 301.445312 303.230469 301.445312 302.402344 L 301.445312 1.5 C 301.445312 0.671875 300.773438 0 299.945312 0 L -0.957031 0 C -1.785156 0 -2.457031 0.671875 -2.457031 1.5 Z M -2.457031 1.5 " clip-rule="nonzero"/></clipPath><clipPath id="1aaceaff15"><path d="M -0.0585938 0.898438 L 299.042969 0.898438 C 299.441406 0.898438 299.824219 1.058594 300.105469 1.339844 C 300.386719 1.621094 300.542969 2.003906 300.542969 2.398438 L 300.542969 301.5 C 300.542969 302.328125 299.871094 303 299.042969 303 L -0.0585938 303 C -0.886719 303 -1.558594 302.328125 -1.558594 301.5 L -1.558594 2.398438 C -1.558594 1.570312 -0.886719 0.898438 -0.0585938 0.898438 Z M -0.0585938 0.898438 " clip-rule="nonzero"/></clipPath><clipPath id="d403fea3b1"><path d="M 44 46 L 255 46 L 255 266 L 44 266 Z M 44 46 " clip-rule="nonzero"/></clipPath><clipPath id="247ef2d035"><path d="M -2.457031 1.5 L -2.457031 302.402344 C -2.457031 303.230469 -1.785156 303.902344 -0.957031 303.902344 L 299.945312 303.902344 C 300.773438 303.902344 301.445312 303.230469 301.445312 302.402344 L 301.445312 1.5 C 301.445312 0.671875 300.773438 0 299.945312 0 L -0.957031 0 C -1.785156 0 -2.457031 0.671875 -2.457031 1.5 Z M -2.457031 1.5 " clip-rule="nonzero"/></clipPath><clipPath id="bb9306ee2d"><path d="M -0.0585938 0.898438 L 299.042969 0.898438 C 299.441406 0.898438 299.824219 1.058594 300.105469 1.339844 C 300.386719 1.621094 300.542969 2.003906 300.542969 2.398438 L 300.542969 301.5 C 300.542969 302.328125 299.871094 303 299.042969 303 L -0.0585938 303 C -0.886719 303 -1.558594 302.328125 -1.558594 301.5 L -1.558594 2.398438 C -1.558594 1.570312 -0.886719 0.898438 -0.0585938 0.898438 Z M -0.0585938 0.898438 " clip-rule="nonzero"/></clipPath><clipPath id="269909bc7b"><path d="M -2.457031 1.5 L -2.457031 302.402344 C -2.457031 303.230469 -1.785156 303.902344 -0.957031 303.902344 L 299.945312 303.902344 C 300.773438 303.902344 301.445312 303.230469 301.445312 302.402344 L 301.445312 1.5 C 301.445312 0.671875 300.773438 0 299.945312 0 L -0.957031 0 C -1.785156 0 -2.457031 0.671875 -2.457031 1.5 Z M -2.457031 1.5 " clip-rule="nonzero"/></clipPath><clipPath id="932912819a"><path d="M -2.457031 1.5 L -2.457031 302.390625 C -2.457031 303.21875 -1.785156 303.890625 -0.957031 303.890625 L 299.933594 303.890625 C 300.761719 303.890625 301.433594 303.21875 301.433594 302.390625 L 301.433594 1.5 C 301.433594 0.671875 300.761719 0 299.933594 0 L -0.957031 0 C -1.785156 0 -2.457031 0.671875 -2.457031 1.5 Z M -2.457031 1.5 " clip-rule="nonzero"/></clipPath></defs><rect x="-30" width="360" fill="#ffffff" y="-29.999999" height="359.999986" fill-opacity="1"/><rect x="-30" width="360" fill="#ffffff" y="-29.999999" height="359.999986" fill-opacity="1"/><g clip-path="url(#21638baec4)"><g clip-path="url(#3919a05436)"><g clip-path="url(#1aaceaff15)"><rect x="-30" width="360" fill="#b2292e" y="-29.999999" height="359.999986" fill-opacity="1"/></g></g></g><g clip-path="url(#d403fea3b1)"><g clip-path="url(#247ef2d035)"><g clip-path="url(#bb9306ee2d)"><path fill="#ffffff" d="M 190.132812 46.152344 L 148.941406 135.34375 L 107.414062 46.152344 L 44.449219 46.152344 L 149.277344 265.222656 L 254.945312 46.152344 Z M 190.132812 46.152344 " fill-opacity="1" fill-rule="nonzero"/></g></g></g><g clip-path="url(#269909bc7b)"><g clip-path="url(#932912819a)"><path stroke-linecap="butt" transform="matrix(0.75, 0, 0, 0.75, -2.457407, 0)" fill="none" stroke-linejoin="miter" d="M 0.000500658 2 L 0.000500658 403.187533 C 0.000500658 404.2917 0.896334 405.187533 2.000501 405.187533 L 403.188034 405.187533 C 404.2922 405.187533 405.188034 404.2917 405.188034 403.187533 L 405.188034 2 C 405.188034 0.895833 404.2922 0 403.188034 0 L 2.000501 0 C 0.896334 0 0.000500658 0.895833 0.000500658 2 Z M 0.000500658 2 " stroke="#b2292e" stroke-width="2" stroke-opacity="1" stroke-miterlimit="4"/></g></g></svg>