<svg width="60" height="60" viewBox="0 0 60 60" fill="none" xmlns="http://www.w3.org/2000/svg">
<path d="M44.4528 17.1624C43.9335 16.2605 43.1 15.673 42.1981 15.427C41.2963 15.1674 40.2578 15.304 39.356 15.8096C38.4541 16.3288 37.8666 17.1624 37.6206 18.0642C37.3746 18.9661 37.4976 20.0045 38.0032 20.8381C38.5224 21.6716 39.2876 22.2592 40.2031 22.5188C41.105 22.7784 42.1435 22.6418 42.977 22.1362H43.0453C43.8789 21.6169 44.4664 20.7834 44.726 19.9362C45.054 19.0344 44.9857 17.9959 44.4664 17.1624H44.4528ZM23.806 20.0046C25.9376 20.3325 27.8643 21.3573 29.3537 22.8467C29.6133 23.1063 29.8046 23.366 29.9959 23.6256L33.6716 21.494C33.1524 20.0045 33.1524 18.4605 33.5486 16.9711C34.0679 15.0307 35.3523 13.2271 37.2243 12.1339L37.2927 12.0656C39.1647 10.9724 41.351 10.7811 43.2913 11.2867C45.2316 11.7923 47.0353 13.0904 48.1285 14.9624C49.2216 16.8344 49.4129 19.0207 48.9073 20.9611C48.3881 22.9014 47.1036 24.7051 45.2316 25.7982L44.7124 26.1262H44.6441C42.9087 26.9597 40.9684 27.0963 39.1647 26.6454C37.6753 26.2628 36.3908 25.4156 35.2977 24.2542L31.6903 26.4541C32.1412 27.5472 32.3325 28.777 32.3325 30.0615C32.3325 31.3459 32.0729 32.5757 31.6903 33.6689L35.366 35.8005C36.4045 34.639 37.7572 33.8055 39.233 33.4092C41.1733 32.89 43.3596 33.0813 45.2999 34.1881L45.4229 34.2564C47.2266 35.3496 48.5247 37.0986 49.0303 39.0253C49.5495 40.9656 49.3582 43.1519 48.2514 45.0239L48.0601 45.1469C46.967 46.9506 45.218 48.2487 43.2913 48.7543C41.351 49.2735 39.1647 49.0822 37.2243 47.9754C35.284 46.8822 34.0679 45.1332 33.5486 43.1382C33.166 41.6488 33.166 40.1048 33.6716 38.6153L29.9959 36.4837C29.8046 36.7433 29.545 37.0029 29.3537 37.1943C27.8643 38.6837 25.9376 39.7085 23.806 40.0364V44.2997C25.35 44.6276 26.7028 45.3928 27.8096 46.4313C29.2307 47.8524 30.1325 49.8474 30.1325 52.0474C30.1325 54.2473 29.2307 56.2423 27.8096 57.6634C26.3885 59.0845 24.3935 59.9863 22.1936 59.9863C19.9936 59.9863 17.9986 59.0845 16.5775 57.6634C15.1565 56.2423 14.2546 54.2473 14.2546 52.0474C14.2546 49.8474 15.1565 47.8524 16.5775 46.4313C17.6707 45.3382 19.0235 44.6276 20.5129 44.2997V40.0364C18.3812 39.7085 16.4546 38.6837 14.9652 37.1943C13.1615 35.3222 12 32.808 12 29.9658C12 27.1237 13.1615 24.6094 14.9652 22.8057C16.4546 21.3163 18.3812 20.2915 20.5129 19.9636V15.7003C18.9688 15.3723 17.616 14.6071 16.5775 13.5003C15.1565 12.0793 14.2546 10.0843 14.2546 7.88431C14.2546 5.68435 15.1565 3.68936 16.5775 2.26828C17.9986 0.901844 19.9936 0 22.1936 0C24.3935 0 26.3885 0.901845 27.8096 2.32293C29.2307 3.74402 30.1325 5.73901 30.1325 7.93896C30.1325 10.1389 29.2307 12.1339 27.8096 13.555C26.7165 14.6481 25.3637 15.3587 23.806 15.7549V20.0182V20.0046ZM25.9376 26.2628C24.9674 25.2926 23.6147 24.7187 22.1253 24.7187C20.6358 24.7187 19.2831 25.2926 18.3812 26.2628C17.4111 27.233 16.8372 28.5857 16.8372 30.0068C16.8372 31.4279 17.4111 32.849 18.3812 33.8192C19.3514 34.7893 20.7042 35.3632 22.1253 35.3632C23.5463 35.3632 24.9674 34.7893 25.9376 33.8192C26.9078 32.849 27.4817 31.4962 27.4817 30.0068C27.4817 28.5174 26.9078 27.233 25.9376 26.2628ZM42.1981 44.655C43.1 44.3953 43.9335 43.8214 44.4528 42.9196L44.5211 42.7966C44.972 41.9631 45.0403 40.9929 44.849 40.1457C44.5894 39.2439 44.0155 38.4104 43.1137 37.8911L43.0453 37.8228C42.2118 37.3719 41.1733 37.2489 40.2715 37.4949C39.3696 37.7545 38.5361 38.3284 38.0169 39.2302C37.4976 40.1321 37.3746 41.1022 37.6343 42.0041C37.8939 42.9059 38.4678 43.7395 39.3696 44.2587C40.2715 44.7779 41.31 44.9009 42.2118 44.6413L42.1981 44.655ZM22.1389 55.8187C23.1774 55.8187 24.0793 55.4361 24.7898 54.7256C25.432 54.0833 25.8829 53.1815 25.8829 52.143C25.8829 51.1045 25.5003 50.2027 24.7898 49.4921C24.1476 48.8499 23.1774 48.399 22.1389 48.399C21.1004 48.399 20.1986 48.7816 19.5564 49.4921C18.9141 50.1344 18.4632 51.1045 18.4632 52.143C18.4632 53.1815 18.8458 54.0833 19.5564 54.7256C20.1986 55.4361 21.1004 55.8187 22.1389 55.8187ZM24.7078 5.35641C24.0656 4.71419 23.0954 4.26326 22.0569 4.26326C21.0184 4.26326 20.1166 4.64587 19.4744 5.35641C18.8322 5.99863 18.3812 6.9688 18.3812 7.93896C18.3812 8.97745 18.7638 9.8793 19.4744 10.5215C20.1166 11.1637 21.0184 11.6147 22.0569 11.6147C23.0954 11.6147 23.9973 11.2321 24.7078 10.5215C25.35 9.8793 25.801 8.97745 25.801 7.93896C25.801 6.90048 25.4184 5.99863 24.7078 5.35641Z" fill="black"/>
</svg>
