<svg width="60" height="60" viewBox="0 0 60 60" fill="none" xmlns="http://www.w3.org/2000/svg">
<path fill-rule="evenodd" clip-rule="evenodd" d="M44.015 41.0747L57.8185 37.9099C58.0311 37.8669 58.2322 37.78 58.4095 37.6549C58.5869 37.5296 58.7364 37.369 58.848 37.183C58.9595 36.997 59.0311 36.7897 59.0585 36.5744C59.0859 36.3592 59.068 36.1406 59.0059 35.9326L53.1357 10.4726C53.0298 10.0524 52.7614 9.69148 52.3897 9.46885C52.0179 9.24621 51.5729 9.18016 51.1524 9.28505L37.3549 12.4498C36.9372 12.557 36.5789 12.8252 36.3585 13.1957C36.1381 13.5662 36.0733 14.009 36.1786 14.4271L42.0317 39.8872C42.1377 40.3073 42.406 40.6683 42.7778 40.8909C43.1496 41.1135 43.5945 41.1796 44.015 41.0747Z" fill="#020A47"/>
<path fill-rule="evenodd" clip-rule="evenodd" d="M39.2584 56.8073L55.9942 41.3132C56.6247 40.6769 56.4658 40.2848 55.5963 40.5973L44.0944 43.2109C43.6187 43.3284 43.1804 43.5639 42.8198 43.8956C42.4593 44.2273 42.1882 44.6445 42.0316 45.1086L38.5424 56.3357C38.3037 57.2052 38.6219 57.4436 39.2584 56.8073Z" fill="#020A47"/>
<path fill-rule="evenodd" clip-rule="evenodd" d="M8.72543 51.7507L33.7861 59.4948C34.2143 59.5748 34.6569 59.4995 35.0348 59.2832C35.4127 59.0669 35.7012 58.7227 35.849 58.3132L40.0485 44.87C40.1092 44.6604 40.1281 44.4408 40.1038 44.2238C40.0796 44.0069 40.0128 43.7969 39.9071 43.6058C39.8016 43.4147 39.6593 43.2463 39.4886 43.1103C39.3178 42.9743 39.1218 42.8734 38.9119 42.8132L13.8513 35.1428C13.427 35.0215 12.972 35.0729 12.5855 35.2858C12.1991 35.4987 11.9125 35.8558 11.7884 36.2792L7.61732 49.6939C7.49343 50.1136 7.54038 50.5651 7.7479 50.9503C7.95548 51.3356 8.3068 51.6232 8.72543 51.7507Z" fill="#020A47"/>
<path fill-rule="evenodd" clip-rule="evenodd" d="M0.633079 24.2338L5.71341 46.478C5.87254 47.3473 6.2817 47.3473 6.50333 46.478L9.99249 35.2508C10.1114 34.7724 10.1162 34.2728 10.0067 33.7921C9.89712 33.3116 9.67622 32.8634 9.3617 32.4838L1.3491 23.8361C0.792195 23.1827 0.377358 23.3645 0.633079 24.2338Z" fill="#020A47"/>
<path fill-rule="evenodd" clip-rule="evenodd" d="M20.2272 0.455485L1.03102 18.2224C0.723048 18.5156 0.542236 18.9177 0.527363 19.3426C0.51249 19.7674 0.66474 20.1812 0.951459 20.4952L10.5495 30.8758C10.8453 31.1895 11.253 31.3739 11.684 31.3888C12.1149 31.4037 12.5343 31.2479 12.8511 30.9553L32.0415 13.16C32.3522 12.8684 32.5349 12.4657 32.5498 12.04C32.5647 11.6142 32.4106 11.1998 32.1211 10.8873L22.5401 0.512303C22.3927 0.355467 22.2156 0.229462 22.0191 0.141602C21.8226 0.0537411 21.6107 0.00577616 21.3955 0.0004903C21.1803 -0.00479558 20.9663 0.0327033 20.7657 0.11081C20.5651 0.188916 20.3821 0.306075 20.2272 0.455485Z" fill="#020A47"/>
<path fill-rule="evenodd" clip-rule="evenodd" d="M38.7813 40.677C39.6564 40.9156 40.2076 40.444 39.9746 39.5406L34.4226 15.5067C34.184 14.6373 33.4679 14.3987 32.8371 15.0294L14.7548 31.8248C14.1184 32.4554 14.2775 33.1657 15.1469 33.4043L38.7813 40.677Z" fill="#020A47"/>
<path fill-rule="evenodd" clip-rule="evenodd" d="M48.2201 7.15445L26.3303 0.455605C25.4608 0.21697 25.3017 0.535151 26.0121 1.24537L34.0247 9.86466C34.3841 10.2006 34.8188 10.4456 35.2924 10.579C35.766 10.7124 36.2647 10.7305 36.7467 10.6317L48.2485 8.02376C49.0952 7.78513 49.0952 7.3874 48.2201 7.15445Z" fill="#020A47"/>
</svg>
