<svg width="60" height="60" viewBox="0 0 60 60" fill="none" xmlns="http://www.w3.org/2000/svg">
<path d="M8 30.9706V6.7524C8 6.08054 8.07812 6.00242 8.74998 6.00242H48.7023C48.921 5.98679 49.1085 6.14304 49.1241 6.36179C49.1241 6.47116 49.0929 6.58053 49.0148 6.65865L47.421 8.9711C46.4367 10.4711 45.3898 11.9398 44.3742 13.4866L42.6086 16.0335L39.64 20.4709L37.5931 23.4395C37.4525 23.627 37.1869 23.6739 36.9994 23.5333C36.9681 23.502 36.9213 23.4708 36.9056 23.4395C35.8119 22.1583 34.7182 20.8771 33.6401 19.5802L32.8432 18.674C32.562 18.3303 32.2651 18.3303 32.0151 18.674C31.2339 19.7365 30.4526 20.799 29.687 21.8615C29.5152 22.0802 29.5464 22.3927 29.7495 22.5802C30.5464 23.4395 31.3433 24.2989 32.1245 25.1739C33.062 26.1582 33.9994 27.2363 34.9213 28.2676C35.5932 29.0175 36.3119 29.7519 36.9525 30.5175C37.0775 30.7206 37.3431 30.7831 37.5462 30.6581C37.6087 30.6269 37.6556 30.58 37.6869 30.5175C37.9994 30.0488 38.4056 29.6738 38.7337 29.2363C39.0618 28.7988 39.6087 28.2519 40.0462 27.6738C40.7024 26.877 41.3274 26.0801 42.0305 25.2989L43.0149 24.0802C43.9992 22.8927 44.9992 21.7208 45.9836 20.5334C46.9679 19.3459 48.171 17.8928 49.2804 16.5647C50.1241 15.5803 50.9366 14.5179 51.7959 13.5335C51.9053 13.4085 51.9678 13.2679 52.0772 13.1429C52.1553 13.0179 52.2959 12.971 52.4209 13.0179C52.5459 13.0648 52.6397 13.1741 52.6397 13.3148C52.6397 13.3773 52.6397 13.4398 52.6397 13.5023V55.3295C52.6397 55.9388 52.5772 56.0013 51.9678 56.0013H8.67186C8.04687 56.0013 8 56.0013 8 55.3295V30.9706ZM20.4841 50.5015C21.156 50.5015 21.8122 50.4233 22.4684 50.2671C24.2497 50.0796 25.8902 49.1577 26.9683 47.7203C27.6402 46.7828 28.0152 45.6734 28.0777 44.5172C28.2964 42.8922 27.7808 41.2673 26.6871 40.0486C25.8434 39.2205 24.8278 38.5955 23.7184 38.2361C22.3591 37.7205 20.9372 37.4549 19.5466 37.033C18.8591 36.8924 18.2029 36.6111 17.6248 36.2049C17.1092 35.8143 16.9217 35.1112 17.1717 34.5018C17.3904 33.8456 17.9373 33.3456 18.6091 33.1581C19.0154 33.0175 19.4373 32.9706 19.8747 32.9862C20.6716 32.955 21.4685 33.0643 22.2184 33.3143C23.2809 33.6424 24.2653 34.1893 25.1403 34.8924C25.4215 35.1268 25.6246 35.0955 25.8434 34.7674C26.0621 34.4393 26.3434 34.0331 26.5934 33.6737L27.4058 32.4862C27.609 32.2519 27.5933 31.9081 27.359 31.705C26.6871 31.0956 25.9215 30.58 25.0934 30.205C24.2497 29.7832 23.3434 29.4863 22.3903 29.3457C20.6872 29.0175 18.9373 29.1425 17.2967 29.6894C16.2967 30.0019 15.3905 30.5488 14.6561 31.2831C13.4999 32.4393 12.8749 34.0331 12.953 35.658C12.9218 37.7049 14.078 39.5798 15.9217 40.4704C17.0467 41.0173 18.2342 41.4235 19.4529 41.7048C19.9529 41.8298 20.4372 41.9235 20.9529 42.0485C21.7341 42.2516 22.4841 42.5485 23.1872 42.9547C23.9372 43.3922 24.2184 44.3453 23.8278 45.111C23.4684 45.8297 22.7809 46.3453 21.9841 46.4859C20.781 46.7828 19.531 46.7203 18.3592 46.314C17.0779 45.9391 15.9061 45.2516 14.953 44.3297C14.8124 44.1578 14.578 44.1422 14.4061 44.2672C14.3592 44.2985 14.328 44.3453 14.3124 44.3922L12.6718 46.939C12.4999 47.1422 12.5312 47.439 12.7343 47.6109C13.5624 48.3765 14.4999 49.0015 15.5155 49.4702C17.0936 50.1577 18.7966 50.5171 20.5154 50.4858L20.4841 50.5015ZM39.2337 43.736H44.1086C44.5149 43.736 44.6086 43.6422 44.6086 43.236C44.6711 41.5954 44.343 39.9704 43.6867 38.4705C43.0618 37.033 41.9524 35.8455 40.5306 35.158C37.6712 33.8143 34.2651 34.5018 32.1401 36.8455C31.4683 37.6111 30.937 38.5017 30.5776 39.4704C30.1714 40.6892 30.0152 41.986 30.1245 43.2672C30.2027 45.111 30.937 46.8765 32.2026 48.2203C32.5932 48.6109 33.0151 48.9546 33.4682 49.2671C34.4213 49.939 35.515 50.3452 36.6713 50.4546C37.4837 50.5483 38.3119 50.5171 39.1243 50.3608C40.6087 50.1577 42.0149 49.5796 43.218 48.689C43.4524 48.5952 43.5617 48.314 43.4524 48.0953C43.4367 48.0484 43.4055 48.0171 43.3742 47.9859C42.9993 47.3765 42.6243 46.7984 42.2337 46.2047C42.1555 46.0328 41.9524 45.9547 41.7805 46.0328C41.7493 46.0328 41.7337 46.0641 41.718 46.0797C41.4837 46.2047 41.3274 46.3922 41.1087 46.5172C40.1087 47.0797 38.9837 47.3609 37.8431 47.3297C35.9994 47.3297 34.4213 46.0172 34.0932 44.2047C33.9995 43.7985 34.0307 43.7516 34.4526 43.7516H39.2493L39.2337 43.736Z" fill="#43B02A"/>
<path d="M37.4836 41.033H34.343C33.9681 41.033 33.9212 40.9705 33.9837 40.6111C34.2805 38.658 36.1086 37.3143 38.0617 37.6112C38.5148 37.6737 38.9523 37.8299 39.3429 38.0643C40.3117 38.6424 40.9367 39.6424 40.9992 40.7674C40.9992 41.0174 40.8429 41.0174 40.671 41.0174H37.4836V41.033Z" fill="#43B02A"/>
</svg>
