<svg width="30" height="30" viewBox="0 0 30 30" fill="none" xmlns="http://www.w3.org/2000/svg">
<g clip-path="url(#clip0_679_21582)">
<path d="M5.57286 3.04193C5.53143 3.96557 5.62293 4.74418 5.7714 5.52625C6.14258 7.48056 7.01787 9.2018 8.13487 10.8212C8.23673 10.9679 8.31442 10.9955 8.41282 10.8143C8.74775 10.1979 9.21906 9.6921 9.71972 9.2087C10.0685 8.87205 10.4914 8.64244 10.9092 8.35585C8.42318 7.31482 6.70367 5.54697 5.57286 3.04366V3.04193Z" fill="#CECDCE"/>
<path d="M10.7331 21.5216C9.83364 20.9795 9.07574 20.2872 8.54228 19.3705C8.48185 19.2669 8.44215 19.1115 8.31267 19.1132C8.18146 19.115 8.21771 19.2842 8.178 19.3739C7.29062 21.3645 5.85424 22.8406 3.95345 23.8833C3.68413 24.0318 3.40791 24.1682 3.06262 24.3495C3.19556 24.3598 3.24217 24.365 3.28878 24.3667C4.50764 24.403 5.69196 24.1906 6.84866 23.8298C8.25224 23.3913 9.52461 22.6852 10.7452 21.8772C10.9972 21.7098 10.9541 21.6545 10.7348 21.5233L10.7331 21.5216Z" fill="#CECDCE"/>
<path d="M7.19399 14.1566C7.25096 13.8942 7.30794 13.6335 7.36491 13.3711C7.37181 13.3659 7.37354 13.359 7.36836 13.3504C7.3908 13.2054 7.33556 13.1726 7.20262 13.2278C7.00063 13.3124 6.79346 13.3884 6.58974 13.4678C6.57593 13.4643 6.56557 13.4678 6.55522 13.4764C6.10117 13.6128 5.65403 13.782 5.17235 13.7975C5.16027 13.7975 5.14818 13.7993 5.1361 13.801C5.08949 13.8044 5.04287 13.8062 4.99626 13.8096C4.9859 13.8044 4.97382 13.8062 4.96346 13.8096C4.93411 13.8114 4.90649 13.8148 4.87714 13.8165C4.84951 13.8217 4.82016 13.8269 4.79254 13.8321C3.97077 13.927 3.14899 13.9236 2.32721 13.8114C2.30304 13.8114 2.2806 13.8079 2.25643 13.8079C1.50716 13.7199 0.780342 13.5507 0.0966795 13.2226C0.0604247 13.2106 0.020717 13.1743 0 13.2416C0.208897 13.6284 0.567992 13.8718 0.894286 14.1411C2.15457 15.1804 3.58405 15.9107 5.14473 16.3872L5.15336 16.3889C5.162 16.3889 5.1689 16.3889 5.17408 16.3958C5.19998 16.4062 5.22587 16.4165 5.2535 16.4269C5.2863 16.4372 5.32083 16.4476 5.35363 16.4597L5.36744 16.4683H5.3847C5.49002 16.4959 5.59533 16.5236 5.69891 16.5512L5.711 16.5581L5.72481 16.5564C5.94579 16.6133 6.16677 16.6686 6.38948 16.7256L6.39984 16.7325L6.41192 16.7307C6.46199 16.7445 6.51206 16.7584 6.56212 16.7722L6.57248 16.7773L6.58457 16.7756L6.59492 16.7773C6.61391 16.7825 6.63463 16.7877 6.65362 16.7929C6.73649 16.8032 6.81936 16.8153 6.90223 16.8274C6.91776 16.8309 6.9333 16.8343 6.94884 16.836C7.03343 16.8464 7.11803 16.8585 7.20262 16.8706C7.21298 16.8723 7.22334 16.874 7.23543 16.8758C7.27513 16.8706 7.31657 16.8654 7.358 16.8602C7.36836 16.8499 7.37354 16.836 7.36836 16.8222C7.34764 16.6962 7.3252 16.5684 7.30448 16.4424C7.30621 16.4372 7.31311 16.4286 7.31139 16.4252C7.30621 16.4148 7.2993 16.4044 7.2924 16.3941C7.25442 16.1541 7.21816 15.9141 7.18018 15.6742C7.175 15.5844 7.16982 15.4946 7.16292 15.4031C7.16292 15.1286 7.16119 14.8558 7.15946 14.5813C7.2078 14.514 7.20953 14.4432 7.16809 14.3724C7.17155 14.3414 7.175 14.312 7.17845 14.2809C7.18363 14.2395 7.18881 14.1981 7.19572 14.1584L7.19399 14.1566Z" fill="#F86730"/>
<path d="M16.8791 22.6455C16.8446 22.4366 16.7393 22.5954 16.6633 22.6041C16.5304 22.6351 16.3975 22.6645 16.2645 22.6956C16.1955 22.7059 16.1264 22.718 16.0591 22.7284C15.9987 22.7318 15.9365 22.7335 15.8761 22.737C15.864 22.7335 15.8537 22.7335 15.8433 22.7404C15.6292 22.7577 15.4151 22.7732 15.2028 22.7905C15.0975 22.7905 14.9939 22.7905 14.8886 22.7905C14.8627 22.7905 14.8368 22.7905 14.8109 22.7888C14.7971 22.7888 14.7815 22.7871 14.7677 22.7853C14.2239 22.7612 13.6853 22.7042 13.1207 22.5643C13.3866 23.1272 13.5575 23.6813 13.6887 24.2493C13.6939 24.2735 13.7008 24.2977 13.706 24.3236C13.9356 25.2144 13.8786 26.1242 13.8683 27.0289C13.8683 27.0427 13.8683 27.0582 13.8665 27.072C13.8337 27.3586 13.8009 27.6469 13.7664 27.9352C13.7578 27.9784 13.7474 28.0198 13.7388 28.063C13.7336 28.1062 13.7284 28.1493 13.7232 28.1925C13.7129 28.2322 13.7008 28.2702 13.6904 28.3099C13.6231 28.5706 13.5575 28.8312 13.4902 29.0937C13.4781 29.104 13.4729 29.1161 13.4781 29.1316C13.4194 29.42 13.2174 29.6651 13.2105 30C14.8143 28.5395 15.7932 26.7371 16.4044 24.712C16.4182 24.6723 16.4303 24.6309 16.4424 24.5912C16.5062 24.3305 16.5718 24.0698 16.6357 23.8108C16.6409 23.797 16.6444 23.7832 16.6495 23.7711C16.691 23.614 16.7324 23.4552 16.7738 23.2981C16.7842 23.2877 16.7876 23.2739 16.7825 23.2601C16.8135 23.0581 16.8463 22.8544 16.8774 22.6524L16.8791 22.6455Z" fill="#F86730"/>
<path d="M16.8412 7.29067C16.7653 7.10249 16.6876 6.91431 16.6116 6.72613C16.6013 6.70024 16.5909 6.67261 16.5788 6.64672C16.5754 6.63118 16.5719 6.61391 16.5685 6.59838C16.5581 6.57075 16.5495 6.54486 16.5391 6.51724C16.5063 6.41192 16.4752 6.30834 16.4424 6.20303C16.4459 6.19439 16.4424 6.18749 16.4372 6.18231C16.4096 6.09081 16.382 5.99758 16.3544 5.90608C16.3596 5.89918 16.3578 5.89054 16.3509 5.88537C16.3216 5.70927 16.2922 5.53318 16.2612 5.35881C16.2508 5.31737 16.2387 5.27594 16.2284 5.23451C16.2266 5.21897 16.2232 5.20343 16.2214 5.18962C16.2128 5.14646 16.2059 5.10502 16.1973 5.06186C16.1904 4.97554 16.1835 4.88922 16.1766 4.8029C16.1662 4.73212 16.1558 4.66306 16.1438 4.594C16.142 4.49042 16.1386 4.38511 16.1369 4.28152C16.1299 4.19865 16.1248 4.11751 16.1179 4.03464C16.1179 4.00529 16.1144 3.97594 16.1127 3.94487C16.1161 3.93969 16.1248 3.93451 16.123 3.93106C16.1196 3.9207 16.1144 3.91207 16.1092 3.90171C16.1092 3.75842 16.1092 3.6134 16.1092 3.4701C16.1127 3.43903 16.1179 3.40623 16.1213 3.37515C16.1213 3.35271 16.1248 3.32854 16.1265 3.30609C16.1299 3.26293 16.1334 3.21977 16.1351 3.17661C16.1403 3.0454 16.1472 2.9142 16.1524 2.78299C16.1558 2.76572 16.1593 2.74846 16.1627 2.7312C16.199 2.53438 16.2353 2.33585 16.2698 2.13903C16.2819 2.04235 16.294 1.94395 16.3078 1.84727C16.3302 1.71606 16.3527 1.58485 16.3751 1.45365C16.3975 1.38459 16.4183 1.31553 16.4407 1.24648V1.24302C16.4545 1.20331 16.4683 1.16361 16.4804 1.1239C16.489 1.0911 16.4959 1.06002 16.5046 1.02722C16.5115 1.00305 16.5167 0.977154 16.5236 0.952984C16.6064 0.666398 16.6427 0.364275 16.8153 0.108764C16.8171 0.0725096 16.8205 0.0362548 16.8222 0H16.8205C16.7774 0.0276227 16.7325 0.0569719 16.6893 0.086321C15.2098 1.51407 14.2689 3.26466 13.6284 5.19307C13.6163 5.23105 13.6042 5.26731 13.5938 5.30529C13.4695 5.79904 13.3452 6.29107 13.2227 6.78483C13.2123 6.79519 13.2106 6.80555 13.2175 6.81763C13.1829 7.01099 13.1484 7.20262 13.1139 7.39598C13.1346 7.44432 13.1588 7.47022 13.2071 7.42188C13.3487 7.40289 13.492 7.3839 13.6335 7.36318C13.6491 7.35973 13.6646 7.35628 13.6784 7.35282C13.9926 7.31311 14.3068 7.27513 14.6211 7.23543C14.6366 7.2337 14.6521 7.23025 14.6677 7.22852C15.2098 7.14738 15.7363 7.26132 16.2663 7.33901C16.3233 7.34937 16.3786 7.35973 16.4355 7.36836C16.565 7.39253 16.6945 7.4167 16.8257 7.4426C16.9552 7.39944 16.8585 7.34419 16.8343 7.29412L16.8412 7.29067Z" fill="#F86730"/>
</g>
<defs>
<clipPath id="clip0_679_21582">
<rect width="30" height="30" fill="white"/>
</clipPath>
</defs>
</svg>
