<svg width="60" height="60" viewBox="0 0 60 60" fill="none" xmlns="http://www.w3.org/2000/svg">
<path fill-rule="evenodd" clip-rule="evenodd" d="M58.6867 10.0011C57.7657 10.0314 58.0322 10.4464 56.0383 10.939C54.0242 11.4349 51.5883 11.1313 49.4223 12.0422C43.7544 14.4173 42.8367 23.6007 36.0858 27.1533C31.6594 29.6532 27.1453 30.2268 23.1103 31.492C19.8715 32.7909 17.8574 33.6512 15.4822 35.699C13.6402 37.2881 13.1914 38.8299 11.265 40.8238C9.31161 43.479 1.90618 41.1207 0 44.4506C1.00538 45.1017 1.58565 45.2805 3.35013 45.0477C2.98576 45.7394 0.664623 46.6503 1.08634 47.6692C1.08634 47.6692 6.69693 48.6914 11.427 45.8372C13.6334 44.9398 15.7015 43.0404 19.1293 42.5849C23.5691 41.9945 28.5724 43.5161 33.9401 43.9445C32.8301 46.1375 31.6865 47.433 30.4618 49.2413C30.0839 49.6496 30.7856 50.0106 32.0879 49.7643C34.4293 49.184 36.1263 48.5565 37.8098 47.3925C40.0061 45.8777 40.9508 44.4911 42.803 42.2948C44.4123 44.8757 50.087 45.4425 51.2509 43.2124C49.085 42.2948 48.6227 37.5209 49.365 35.4595C50.2421 33.496 50.8731 30.7194 51.5816 28.1384C52.2192 25.8139 52.6139 22.2681 53.3764 20.453C54.2873 18.1959 56.0585 17.4908 57.3878 16.2931C58.7171 15.0954 60.0396 14.0968 59.9991 11.3573C59.9856 10.4666 59.5268 9.97406 58.6867 10.0011Z" fill="#1F305F"/>
<path d="M1.6937 47.1969C5.17205 47.3015 6.11671 47.2104 8.86633 46.016C11.2044 45.0005 14.3318 42.2644 17.0949 41.3805C21.1502 40.0782 25.499 40.2739 29.8141 40.7833C31.258 40.9554 32.7088 41.1949 33.7445 41.0836C35.3605 40.0917 35.4381 37.3994 36.4401 37.1835C36.1669 42.3926 33.9334 45.7259 31.7 48.7488C36.4064 47.9188 39.5507 44.9803 41.4536 41.3434C42.0305 40.2402 42.9886 38.4352 43.4272 37.1936C43.7747 38.0168 42.9751 38.5398 43.3496 39.4372C46.3793 36.9372 47.8097 34.0898 49.0378 29.9198C50.4615 25.0953 51.9224 20.9489 52.84 19.5218C53.7341 18.1285 55.1274 17.2682 56.3993 16.3775C57.8433 15.362 59.1355 14.306 59.3581 12.3728C57.8332 12.2311 57.4823 11.8802 57.2563 11.111C56.4938 11.5395 55.7921 11.634 54.9992 11.6576C54.311 11.6778 53.5553 11.6475 52.6309 11.7419C44.996 12.5246 44.6418 19.9874 39.0919 25.4664C38.7343 25.8139 38.1236 26.3267 37.7188 26.6304C36.0049 27.909 34.1696 28.6108 32.2364 29.3496C29.1055 30.5439 26.1367 30.8914 23.2015 31.9238C21.0456 32.6795 19.0416 33.5466 17.2704 34.7578C16.8284 35.0614 16.2279 35.6012 15.8433 35.915C14.8041 36.7652 14.1227 37.7064 13.4614 38.6781C12.7799 39.6767 12.1254 40.7057 11.1234 41.6875C9.50058 43.2799 3.4413 42.1531 1.3057 43.6308C1.06954 43.7961 0.877227 43.9918 0.749023 44.2279C1.91297 44.7576 2.69231 44.4337 4.03169 44.5788C4.19701 45.8575 1.25848 46.6132 1.6937 47.1969Z" fill="#C0765A"/>
<path fill-rule="evenodd" clip-rule="evenodd" d="M50.0869 14.8998C51.1665 15.8377 53.4337 15.0853 53.0288 13.2196C51.3487 13.0779 50.3771 13.6481 50.0869 14.8998Z" fill="#1F305F"/>
<path d="M57.6206 12.7169C57.3338 13.3208 56.7838 14.0968 56.7838 15.6319C56.7805 15.895 56.5848 16.0772 56.5814 15.669C56.5949 14.1676 56.993 13.5199 57.4147 12.6697C57.607 12.3222 57.7252 12.4639 57.6206 12.7169Z" fill="#1F305F"/>
<path d="M57.3304 12.4909C56.9897 13.0644 56.1732 14.1137 56.0416 15.6454C56.018 15.9085 55.8021 16.0705 55.8358 15.6656C55.9843 14.1744 56.6354 13.2399 57.1314 12.4268C57.354 12.0962 57.4586 12.248 57.3304 12.4909Z" fill="#1F305F"/>
<path d="M57.0673 12.1906C56.6793 12.7338 55.4243 13.9956 55.1611 15.507C55.1139 15.7668 54.8879 15.9085 54.9553 15.5104C55.2286 14.0361 56.3116 12.8755 56.8716 12.1096C57.1213 11.7959 57.2158 11.9578 57.0673 12.1906Z" fill="#1F305F"/>
<path d="M56.8311 11.8532C56.3723 12.3391 54.8743 13.945 54.402 15.4058C54.3177 15.6555 54.0748 15.7668 54.1962 15.3788C54.6719 13.9551 55.9843 12.4234 56.6489 11.7453C56.9425 11.472 57.0099 11.6474 56.8311 11.8532Z" fill="#1F305F"/>
</svg>
