<svg width="60" height="60" viewBox="0 0 60 60" fill="none" xmlns="http://www.w3.org/2000/svg">
<path d="M60 22.3145H45.3344C41.3705 14.7112 37.1803 8.80954 31.4754 8.80954C24.0492 8.80954 20.5574 15.2915 17.1836 21.5964L16.8885 22.1472H0V25.8948H9.83607C13.3082 25.8948 14.0164 27.0653 14.0164 27.0653C11.2918 31.2948 8.01639 35.4751 2.55738 35.4751H0V39.4095H2.57705C13.1607 39.4095 17.7836 30.8227 21.4918 23.9276C24.8951 17.5735 27.2656 13.7276 31.4754 13.7276C35.8426 13.7276 40.4361 23.2292 44.4787 31.6194C45.0689 32.8391 45.6689 34.0882 46.2787 35.3276C30.777 35.8194 23.3902 39.4489 17.3803 42.4095C12.9836 44.5735 9.51148 47.2587 3.79672 47.2587H0V51.1932H3.76721C10.6525 51.1932 14.941 49.0686 19.5049 46.8161C25.8295 43.7079 33 40.1866 49.8984 40.1866H59.6656V36.2522H54.1475C53.6942 36.2865 53.239 36.2155 52.8176 36.0449C52.3962 35.8743 52.0198 35.6086 51.718 35.2686C50.7541 33.3997 49.8098 31.4325 48.8852 29.4653L47.6066 26.8489C47.6066 26.8489 48.5213 25.8653 51.059 25.8653H60V22.3145Z" fill="#188FFF"/>
</svg>
