<svg width="60" height="60" viewBox="0 0 60 60" fill="none" xmlns="http://www.w3.org/2000/svg">
<path d="M16.4062 5.65763C7.34375 5.65763 0 4.39138 0 2.82919V33.3795C0 34.942 7.34375 36.2083 16.4062 36.2083C25.4688 36.2083 32.8125 34.9417 32.8125 33.3795V2.83013C32.8125 4.39232 25.4688 5.65763 16.4062 5.65763Z" fill="#B9CED9"/>
<path d="M0 2.83014V33.3795C0 34.942 7.34375 36.2083 16.4062 36.2083V5.65764C7.34531 5.65764 0 4.39233 0 2.83014Z" fill="#A1BDCC"/>
<path d="M30.5497 4.26451V34.8139C31.9872 34.3936 32.8125 33.9032 32.8125 33.3798V2.83014C32.8125 3.35358 31.9875 3.84514 30.5497 4.26451Z" fill="#A1BDCC"/>
<path d="M16.4062 5.65887C25.4672 5.65887 32.8125 4.3924 32.8125 2.83012C32.8125 1.26785 25.4672 0.00137329 16.4062 0.00137329C7.34533 0.00137329 0 1.26785 0 2.83012C0 4.3924 7.34533 5.65887 16.4062 5.65887Z" fill="#8AADBF"/>
<path d="M0 22.0639C0 23.6264 7.34375 24.8926 16.4062 24.8926C25.4688 24.8926 32.8125 23.6264 32.8125 22.0639V24.327C32.8125 25.8895 25.4688 27.1557 16.4062 27.1557C7.34375 27.1557 0 25.8901 0 24.3279V22.0639Z" fill="#789EB2"/>
<path d="M32.8125 11.8817C32.8125 13.4442 25.4688 14.7104 16.4062 14.7104C7.34375 14.7104 0 13.4439 0 11.8817V14.1448C0 15.7073 7.34375 16.9732 16.4062 16.9732C25.4688 16.9732 32.8125 15.707 32.8125 14.1448V11.8817Z" fill="#789EB2"/>
<path d="M56.25 20.6264H24.375C22.3039 20.6264 20.625 22.3053 20.625 24.3764V56.2514C20.625 58.3224 22.3039 60.0014 24.375 60.0014H56.25C58.3211 60.0014 60 58.3224 60 56.2514V24.3764C60 22.3053 58.3211 20.6264 56.25 20.6264Z" fill="#F80000"/>
<path d="M29.1528 32.8089H32.7271L34.8671 37.7342L36.9662 32.8089H40.2284L36.4884 40.2279L40.2912 47.8138H36.7378L34.4309 42.6395L32.1249 47.8138H28.8824L32.7684 39.9588L29.1528 32.8089Z" fill="white"/>
<path d="M42.7228 47.8138V32.8089H50.9103V35.1157H45.8606V38.8139H50.5168V41.1207H45.8606V45.5054H51.0765V47.8138H42.7228Z" fill="white"/>
</svg>
