<svg width="60" height="60" viewBox="0 0 60 60" fill="none" xmlns="http://www.w3.org/2000/svg">
<path d="M11.1457 6.08524C11.0629 7.9325 11.2459 9.48973 11.5428 11.0539C12.2852 14.9625 14.0357 18.405 16.2697 21.6437C16.4735 21.9372 16.6288 21.9925 16.8256 21.6299C17.4955 20.3972 18.4381 19.3856 19.4394 18.4188C20.1369 17.7455 20.9829 17.2862 21.8185 16.7131C16.8464 14.631 13.4073 11.0953 11.1457 6.08869V6.08524Z" fill="#CECDCE"/>
<path d="M21.4662 43.0446C19.6673 41.9604 18.1515 40.5758 17.0846 38.7423C16.9637 38.5352 16.8843 38.2244 16.6253 38.2279C16.3629 38.2313 16.4354 38.5697 16.356 38.7492C14.5813 42.7304 11.7085 45.6825 7.90691 47.7681C7.36827 48.065 6.81581 48.3378 6.12524 48.7003C6.39111 48.721 6.48434 48.7314 6.57757 48.7348C9.01527 48.8074 11.3839 48.3827 13.6973 47.661C16.5045 46.784 19.0492 45.3718 21.4904 43.7559C21.9945 43.4209 21.9082 43.3104 21.4697 43.048L21.4662 43.0446Z" fill="#CECDCE"/>
<path d="M14.388 28.3147C14.5019 27.7898 14.6159 27.2684 14.7298 26.7436C14.7436 26.7332 14.7471 26.7194 14.7367 26.7022C14.7816 26.4121 14.6711 26.3465 14.4053 26.457C14.0013 26.6262 13.5869 26.7781 13.1795 26.937C13.1519 26.9301 13.1312 26.937 13.1104 26.9542C12.2023 27.227 11.3081 27.5654 10.3447 27.5965C10.3205 27.5965 10.2964 27.5999 10.2722 27.6034C10.179 27.6103 10.0857 27.6137 9.99252 27.6206C9.9718 27.6103 9.94763 27.6137 9.92692 27.6206C9.86822 27.6241 9.81297 27.631 9.75428 27.6344C9.69903 27.6448 9.64033 27.6552 9.58509 27.6655C7.94153 27.8554 6.29798 27.8485 4.65443 27.6241C4.60609 27.6241 4.5612 27.6172 4.51286 27.6172C3.01433 27.4411 1.56068 27.1027 0.193359 26.4467C0.120849 26.4225 0.0414341 26.35 0 26.4846C0.417794 27.2581 1.13598 27.7449 1.78857 28.2836C4.30915 30.3622 7.1681 31.8227 10.2895 32.7757L10.3067 32.7792C10.324 32.7792 10.3378 32.7792 10.3482 32.793C10.4 32.8137 10.4517 32.8344 10.507 32.8551C10.5726 32.8759 10.6417 32.8966 10.7073 32.9207L10.7349 32.938H10.7694C10.98 32.9932 11.1907 33.0485 11.3978 33.1037L11.422 33.1175L11.4496 33.1141C11.8916 33.228 12.3335 33.3385 12.779 33.4525L12.7997 33.4663L12.8239 33.4628C12.924 33.4905 13.0241 33.5181 13.1242 33.5457L13.145 33.5561L13.1691 33.5526L13.1899 33.5561C13.2278 33.5664 13.2693 33.5768 13.3072 33.5871C13.473 33.6079 13.6387 33.632 13.8045 33.6562C13.8355 33.6631 13.8666 33.67 13.8977 33.6735C14.0669 33.6942 14.2361 33.7183 14.4053 33.7425C14.426 33.746 14.4467 33.7494 14.4709 33.7529C14.5503 33.7425 14.6331 33.7322 14.716 33.7218C14.7367 33.7011 14.7471 33.6735 14.7367 33.6458C14.6953 33.3938 14.6504 33.1383 14.609 32.8862C14.6124 32.8759 14.6262 32.8586 14.6228 32.8517C14.6124 32.831 14.5986 32.8102 14.5848 32.7895C14.5088 32.3096 14.4363 31.8296 14.3604 31.3497C14.35 31.1702 14.3396 30.9906 14.3258 30.8076C14.3258 30.2586 14.3224 29.7131 14.3189 29.164C14.4156 29.0294 14.4191 28.8878 14.3362 28.7463C14.3431 28.6841 14.35 28.6254 14.3569 28.5633C14.3673 28.4804 14.3776 28.3975 14.3914 28.3181L14.388 28.3147Z" fill="#F86730"/>
<path d="M33.7583 45.2924C33.6892 44.8746 33.4786 45.1922 33.3267 45.2095C33.0608 45.2716 32.7949 45.3303 32.5291 45.3925C32.391 45.4132 32.2528 45.4374 32.1182 45.4581C31.9973 45.465 31.873 45.4684 31.7522 45.4754C31.728 45.4684 31.7073 45.4684 31.6866 45.4823C31.2584 45.5168 30.8303 45.5479 30.4056 45.5824C30.195 45.5824 29.9878 45.5824 29.7772 45.5824C29.7254 45.5824 29.6736 45.5824 29.6218 45.5789C29.5942 45.5789 29.5631 45.5755 29.5355 45.572C28.4478 45.5237 27.3705 45.4097 26.2415 45.1301C26.7732 46.2557 27.115 47.3641 27.3774 48.5C27.3878 48.5484 27.4016 48.5967 27.412 48.6485C27.8712 50.4302 27.7573 52.2498 27.7365 54.0591C27.7365 54.0867 27.7365 54.1178 27.7331 54.1454C27.6675 54.7186 27.6019 55.2952 27.5328 55.8719C27.5156 55.9582 27.4948 56.041 27.4776 56.1274C27.4672 56.2137 27.4569 56.3 27.4465 56.3863C27.4258 56.4657 27.4016 56.5417 27.3809 56.6211C27.2462 57.1425 27.115 57.6639 26.9804 58.1887C26.9562 58.2094 26.9458 58.2336 26.9562 58.2647C26.8388 58.8413 26.4348 59.3316 26.421 60.0014C29.6287 57.0803 31.5864 53.4756 32.8088 49.4254C32.8364 49.346 32.8605 49.2631 32.8847 49.1837C33.0125 48.6623 33.1437 48.1409 33.2714 47.623C33.2818 47.5954 33.2887 47.5678 33.2991 47.5436C33.3819 47.2294 33.4648 46.9117 33.5477 46.5975C33.5684 46.5768 33.5753 46.5492 33.5649 46.5216C33.6271 46.1176 33.6927 45.7101 33.7548 45.3062L33.7583 45.2924Z" fill="#F86730"/>
<path d="M33.6825 14.5827C33.5305 14.2064 33.3752 13.83 33.2232 13.4536C33.2025 13.4018 33.1818 13.3466 33.1576 13.2948C33.1507 13.2637 33.1438 13.2292 33.1369 13.1981C33.1162 13.1429 33.0989 13.0911 33.0782 13.0358C33.0126 12.8252 32.9505 12.6181 32.8849 12.4074C32.8918 12.3902 32.8849 12.3764 32.8745 12.366C32.8193 12.183 32.764 11.9965 32.7088 11.8135C32.7191 11.7997 32.7157 11.7825 32.7019 11.7721C32.6432 11.4199 32.5845 11.0677 32.5223 10.719C32.5016 10.6361 32.4774 10.5533 32.4567 10.4704C32.4533 10.4393 32.4464 10.4082 32.4429 10.3806C32.4256 10.2943 32.4118 10.2114 32.3946 10.1251C32.3807 9.95246 32.3669 9.77982 32.3531 9.60717C32.3324 9.46561 32.3117 9.32749 32.2875 9.18938C32.2841 8.98221 32.2772 8.77159 32.2737 8.56442C32.2599 8.39868 32.2495 8.2364 32.2357 8.07066C32.2357 8.01196 32.2288 7.95326 32.2254 7.89111C32.2323 7.88075 32.2495 7.8704 32.2461 7.86349C32.2392 7.84277 32.2288 7.82551 32.2185 7.80479C32.2185 7.51821 32.2185 7.22817 32.2185 6.94158C32.2254 6.87943 32.2357 6.81383 32.2426 6.75168C32.2426 6.70679 32.2495 6.65845 32.253 6.61356C32.2599 6.52724 32.2668 6.44092 32.2703 6.3546C32.2806 6.09218 32.2944 5.82977 32.3048 5.56735C32.3117 5.53282 32.3186 5.49829 32.3255 5.46377C32.398 5.07014 32.4705 4.67307 32.5396 4.27944C32.5638 4.08608 32.5879 3.88927 32.6155 3.69591C32.6604 3.4335 32.7053 3.17108 32.7502 2.90866C32.7951 2.77055 32.8365 2.63244 32.8814 2.49432V2.48742C32.909 2.408 32.9367 2.32859 32.9608 2.24917C32.9781 2.18357 32.9919 2.12142 33.0092 2.05581C33.023 2.00747 33.0333 1.95568 33.0471 1.90734C33.2129 1.33417 33.2854 0.729923 33.6307 0.218902C33.6341 0.146393 33.641 0.0738829 33.6445 0.00137329H33.641C33.5547 0.0566187 33.4649 0.115317 33.3786 0.174015C30.4195 3.02951 28.5377 6.53069 27.2567 10.3875C27.2326 10.4635 27.2084 10.536 27.1877 10.612C26.9391 11.5995 26.6905 12.5835 26.4453 13.571C26.4246 13.5918 26.4211 13.6125 26.435 13.6366C26.3659 14.0234 26.2968 14.4066 26.2278 14.7933C26.2692 14.89 26.3176 14.9418 26.4142 14.8451C26.6974 14.8072 26.984 14.7692 27.2671 14.7277C27.2982 14.7208 27.3292 14.7139 27.3569 14.707C27.9853 14.6276 28.6137 14.5516 29.2421 14.4722C29.2732 14.4688 29.3043 14.4619 29.3353 14.4584C30.4195 14.2961 31.4727 14.524 32.5327 14.6794C32.6466 14.7001 32.7571 14.7208 32.8711 14.7381C33.13 14.7864 33.389 14.8348 33.6514 14.8866C33.9104 14.8002 33.717 14.6898 33.6687 14.5896L33.6825 14.5827Z" fill="#F86730"/>
</svg>
