<?xml version="1.0" encoding="UTF-8" standalone="no"?>
<svg
   width="160mm"
   height="160mm"
   viewBox="30 -10 165 125"
   version="1.1"
   id="svg5"
   xmlns="http://www.w3.org/2000/svg"
   xmlns:svg="http://www.w3.org/2000/svg">
  <defs id="defs2" />
  <g id="layer1">
    <g id="g3599" transform="translate(166.70644,7.333315)">
      <path
         style="fill:#f2cda7;stroke-width:0.264583"
         d="m -121.52844,68.950325 c -2.18009,-0.432224 -5.13469,-2.05571 -5.13469,-2.821395 0,-0.206963 0.51518,-0.921557 1.14484,-1.587987 l 1.14485,-1.211697 1.74455,0.697929 c 1.97647,0.790712 3.94833,0.907298 5.36117,0.316979 1.0316,-0.43103 1.97921,-1.787261 1.98068,-2.834775 l 9.9e-4,-0.702183 -1.38906,0.530815 c -1.10083,0.420669 -1.83314,0.508053 -3.52916,0.421126 -2.69763,-0.13826 -4.547,-1.07733 -5.85254,-2.971786 -1.18452,-1.718856 -1.51915,-3.028707 -1.52627,-5.974245 -0.006,-2.321038 0.0625,-2.658641 0.86574,-4.29006 1.52622,-3.099866 4.09869,-4.560326 7.72712,-4.386895 1.14355,0.05466 2.34925,0.280356 2.84549,0.532649 0.82457,0.419216 0.87316,0.415295 1.14485,-0.09236 0.26044,-0.486641 0.45039,-0.514948 2.31389,-0.34484 3.2981,0.301064 3.00057,-0.681556 2.90594,9.597263 -0.0893,9.705536 -0.0816,9.651593 -1.73372,12.043749 -1.84458,2.670789 -5.8533,3.90275 -10.01467,3.077716 z m 4.52806,-12.165362 c 1.45526,-0.704483 1.84662,-1.514272 1.84662,-3.820991 0,-2.041488 -0.38613,-2.954155 -1.5811,-3.737131 -1.88041,-1.232091 -4.79911,-0.448191 -5.69695,1.530077 -1.1108,2.447465 -0.226,5.203055 1.98639,6.186358 1.12965,0.502079 2.18061,0.453784 3.44504,-0.158313 z m 36.03991,5.023249 c -2.517109,-0.635518 -4.874946,-2.549943 -6.029027,-4.895215 -0.556162,-1.130212 -0.647594,-1.689571 -0.647594,-3.96185 0,-2.211152 0.09801,-2.844725 0.596575,-3.856452 0.969907,-1.96822 2.313289,-3.321069 4.238509,-4.268373 1.60977,-0.792088 1.986346,-0.87045 4.15608,-0.864851 2.001853,0.0052 2.620169,0.115779 3.841128,0.68717 1.899084,0.888741 3.584218,2.561426 4.45787,4.424937 0.596151,1.271596 0.701505,1.853949 0.701505,3.877569 0,2.012752 -0.106222,2.606443 -0.686416,3.836459 -1.443199,3.059599 -4.310901,4.98725 -7.688366,5.168074 -1.069184,0.05724 -2.392302,-0.0091 -2.940264,-0.147468 z m 4.515903,-5.206299 c 1.370422,-1.023167 1.77206,-1.850615 1.77206,-3.650766 0,-1.285136 -0.128461,-1.853049 -0.545515,-2.411645 -1.875333,-2.511803 -5.219288,-2.577407 -6.878974,-0.134956 -0.764471,1.125019 -0.892339,3.550375 -0.252421,4.787839 0.418931,0.810123 1.516015,1.704235 2.385243,1.94395 0.962279,0.265377 2.827753,-0.01789 3.519607,-0.534422 z m 64.011181,5.206365 c -1.154869,-0.291658 -3.030574,-1.196654 -3.700057,-1.785215 -0.732962,-0.644366 -0.554453,-1.247029 0.808386,-2.729174 l 1.271405,-1.382713 1.175991,0.670756 c 1.48894,0.849257 2.698713,1.072885 3.9627365,0.73252 1.0373572,-0.279334 1.4099249,-0.737756 1.0598864,-1.304131 -0.1129956,-0.182832 -1.2902406,-0.550042 -2.6160999,-0.81602 -4.271997,-0.856999 -5.681361,-2.200836 -5.690737,-5.426152 -0.01545,-5.317019 6.8020086,-7.761483 11.9328749,-4.278641 0.4719479,0.320361 0.857586,0.761066 0.8569775,0.979348 -5.292e-4,0.218281 -0.5809033,1.051718 -1.2895395,1.852083 l -1.2884257,1.455208 -1.1331813,-0.636563 c -1.7337458,-0.973932 -4.2216279,-0.754542 -4.2216279,0.372276 0,0.413735 0.985244,0.804098 3.042708,1.205553 3.3488605,0.653431 4.8786205,2.032955 5.2890025,4.769575 0.3717422,2.478961 -0.8570463,4.682437 -3.2343805,5.799916 -1.416103,0.665646 -4.599162,0.932204 -6.225919,0.521374 z m -89.226624,-0.345471 c -1.48718,-0.491099 -2.14171,-0.875517 -3.35125,-1.96827 -3.60619,-3.257976 -3.59362,-9.729835 0.0255,-13.115071 1.65161,-1.544889 3.68413,-2.29186 6.236199,-2.29186 2.747653,0 4.46772,0.687927 6.139286,2.455362 1.719498,1.818119 2.327381,3.422748 2.327381,6.143596 v 2.116667 l -5.886979,0.07121 c -3.237839,0.03916 -5.886977,0.161502 -5.886977,0.27186 0,0.434403 0.86521,1.40009 1.59042,1.77511 0.972583,0.502944 2.738346,0.488006 4.098119,-0.03466 2.110232,-0.811136 2.190721,-0.798066 3.593433,0.583557 0.715749,0.704982 1.301359,1.414338 1.301359,1.576342 0,0.491646 -1.122384,1.386036 -2.516839,2.005582 -1.639482,0.728411 -6.000207,0.961855 -7.669622,0.410583 z m 5.953127,-10.778012 c 0,-1.092504 -1.497602,-2.099273 -3.122734,-2.099273 -1.244343,0 -2.793653,0.954069 -2.914943,1.795029 -0.0831,0.576331 -0.0329,0.586221 2.976567,0.586221 1.990236,0 3.06111,-0.09864 3.06111,-0.281977 z M -66.690909,61.6383 c -0.09701,-0.09701 -0.17639,-3.892434 -0.17639,-8.434269 0,-6.287164 0.07893,-8.321757 0.33073,-8.525539 0.181901,-0.147214 1.320112,-0.353407 2.529358,-0.458211 1.883466,-0.163237 2.244516,-0.127799 2.518741,0.247227 0.292777,0.400396 0.403661,0.402867 1.298601,0.02894 0.560401,-0.234151 1.755423,-0.408839 2.796813,-0.408839 1.492054,0 2.104096,0.142803 3.410979,0.795861 l 1.59266,0.795861 1.288476,-0.720145 c 1.077423,-0.602181 1.686274,-0.737542 3.717017,-0.826357 2.166379,-0.09475 2.586265,-0.03401 3.88965,0.562702 1.702523,0.779439 2.88221,2.216777 3.484793,4.245899 0.553903,1.865193 0.573114,12.130871 0.02355,12.586965 -0.237299,0.19694 -1.213287,0.280013 -2.711979,0.230835 l -2.341261,-0.07683 -0.132292,-5.55625 c -0.137869,-5.790499 -0.264557,-6.445042 -1.361024,-7.031853 -1.08752,-0.582025 -2.395879,-0.366038 -3.194056,0.527278 l -0.736587,0.82438 v 5.265854 c 0,2.89622 -0.07227,5.454185 -0.160599,5.684367 -0.129402,0.337219 -0.607378,0.418515 -2.460625,0.418515 -1.436132,0 -2.419279,-0.119253 -2.617526,-0.3175 -0.226168,-0.226168 -0.3175,-1.868366 -0.3175,-5.708893 V 50.3969 l -0.773398,-0.773396 c -1.119762,-1.119764 -2.631541,-1.135507 -3.790664,-0.03948 l -0.727604,0.687998 v 5.25956 c 0,3.119572 -0.11144,5.467789 -0.273892,5.771332 -0.238929,0.446442 -0.571055,0.511773 -2.601738,0.511773 -1.280313,0 -2.407219,-0.07937 -2.504231,-0.176389 z m 36.071528,-0.05489 c -2.393508,-0.789101 -4.608113,-2.737347 -5.601851,-4.928092 -0.907661,-2.000983 -0.865844,-5.531154 0.08981,-7.581736 1.431756,-3.072178 3.984903,-4.749983 7.509653,-4.934984 3.209407,-0.168453 4.826503,0.380378 6.727362,2.283211 1.708854,1.710632 2.326852,3.135035 2.571724,5.927489 0.235857,2.689628 0.482523,2.586229 -6.169719,2.586229 -3.110881,0 -5.656146,0.09257 -5.656146,0.20571 0,0.452314 0.871953,1.408642 1.652281,1.812163 1.041831,0.538753 3.094331,0.36466 4.848378,-0.411239 l 1.248717,-0.552368 1.452439,1.452441 c 1.385244,1.385242 1.434171,1.480201 1.057552,2.052553 -0.217188,0.330062 -1.070872,0.948576 -1.89707,1.374476 -1.340633,0.691084 -1.807033,0.782846 -4.336926,0.853289 -1.55911,0.04341 -3.132402,-0.01921 -3.496204,-0.139142 z m 5.695733,-10.892853 c 0.295981,-0.478909 -0.611084,-1.515827 -1.616168,-1.847535 -1.484905,-0.490064 -3.019647,-0.175406 -3.888832,0.7973 -0.404421,0.452586 -0.665285,0.936186 -0.5797,1.074669 0.21512,0.34807 5.868509,0.325369 6.0847,-0.02445 z M 3.5101578,61.567478 c -1.8359517,-0.558471 -3.42127425,-1.885092 -3.97299931,-3.324664 -0.42897426,-1.119288 -0.38419617,-3.552917 0.0860848,-4.678455 0.6304333,-1.508842 2.17736751,-3.034842 3.55090161,-3.502851 1.4227678,-0.484785 4.3787537,-0.549396 5.6034147,-0.122478 0.9400011,0.327687 1.171837,0.240779 0.9436921,-0.353758 -0.3922475,-1.022178 -2.8585214,-1.292257 -5.5052438,-0.602875 -0.8380386,0.218282 -1.6267483,0.396875 -1.7526873,0.396875 -0.2950713,0 -1.86186773,-2.53932 -1.86186773,-3.017546 0,-0.459859 1.93294273,-1.376468 4.04222753,-1.916843 1.1027543,-0.282511 2.3932251,-0.381942 4.0287179,-0.310412 2.0387597,0.08917 2.5971127,0.217088 3.6558747,0.837563 1.437288,0.842309 2.404423,2.172433 2.819742,3.878072 0.178752,0.734107 0.260755,3.422488 0.213865,7.011458 l -0.07605,5.820834 -2.376612,0.07734 c -2.009349,0.06539 -2.428586,0.0063 -2.71296,-0.382643 -0.3180958,-0.43502 -0.4045087,-0.435558 -1.5921387,-0.0099 -1.2864994,0.461103 -3.8988392,0.563809 -5.0939595,0.200269 z m 5.7702769,-4.69247 C 9.7986899,56.549716 9.8776786,56.30731 9.8096013,55.251059 9.7328457,54.060183 9.6863584,53.995257 8.6712448,53.661165 6.5542976,52.96444 4.0410363,53.931553 4.0410363,55.442885 c 0,1.788784 3.2540814,2.678247 5.2393984,1.432123 z M 16.491511,41.37142 c -0.518256,-0.262285 -4.245399,-4.737283 -5.988188,-7.189727 -0.7533826,-1.060158 -0.6664193,-0.120966 0.123912,1.338226 0.86655,1.599911 1.042046,2.484963 0.491406,2.478219 -0.615736,-0.0075 -1.095391,-0.484785 -2.8371513,-2.822882 L 6.5439418,32.842814 0.14492494,32.771991 c -6.25108034,-0.06919 -6.40583784,-0.05807 -6.69421514,0.480763 -0.3759438,0.702458 -0.2385404,0.908337 3.0449653,4.562462 2.77675453,3.090174 3.13858283,4.003386 1.2782154,3.226075 -1.5642009,-0.653563 -4.7710541,-3.187277 -7.3588962,-5.814215 -3.8571353,-3.915407 -6.4809243,-7.934399 -8.4630423,-12.963278 l -0.832575,-2.112348 -1.173025,-0.213324 c -0.645162,-0.117328 -2.272974,-0.178803 -3.617357,-0.13661 l -2.444332,0.07671 -1.202433,1.20285 -1.202431,1.20285 1.596242,3.243395 c 1.592503,3.235796 1.84607,4.008197 1.315823,4.008197 -0.459311,0 -2.91583,-2.455356 -5.009322,-5.006948 -1.076684,-1.312288 -1.996837,-2.34675 -2.044782,-2.298805 -0.133122,0.133122 1.712857,6.096938 2.444573,7.8977 1.133065,2.788495 0.223068,2.619185 -2.063192,-0.383869 -2.073232,-2.723239 -3.268755,-4.8746 -4.813922,-8.662727 -1.318543,-3.232535 -1.368094,-3.307605 -2.602613,-3.942911 -0.876462,-0.451042 -1.847318,-0.685425 -3.198281,-0.772125 -2.15945,-0.138585 -2.22509,-0.09801 -2.68532,1.659771 -0.384892,1.470037 -0.968885,1.364201 -2.18695,-0.396336 -1.119558,-1.618158 -1.597761,-1.784822 -4.192421,-1.461141 l -1.364946,0.170274 -0.179568,1.637621 c -0.134114,1.223104 -0.446857,2.093507 -1.235538,3.438675 -0.580786,0.99058 -1.195443,1.755375 -1.365906,1.699545 -0.176318,-0.05775 -0.456541,-1.233432 -0.650004,-2.727096 -0.570273,-4.402913 -0.549146,-4.326054 -1.236594,-4.498592 -0.843571,-0.211723 -2.495981,0.600635 -2.663034,1.3092 -0.07311,0.310093 -0.304602,2.1438 -0.514429,4.074904 -0.340638,3.134984 -0.512067,3.816911 -1.600319,6.365922 -2.368741,5.548305 -4.409967,8.63756 -4.137989,6.262563 0.05,-0.436562 0.556012,-3.15042 1.12448,-6.030794 1.607976,-8.147439 1.375068,-10.188854 -1.330466,-11.66139 -1.188601,-0.646918 -1.612381,-0.740265 -2.928485,-0.645067 -1.085681,0.07853 -1.848969,0.316579 -2.592218,0.808437 -1.018746,0.674174 -1.09882,0.839228 -2.431513,5.011932 -0.757944,2.373139 -1.49878,4.462316 -1.646304,4.642615 -0.460496,0.562803 -0.699436,0.114023 -0.704887,-1.323939 -0.006,-1.585145 -0.706996,-5.472701 -1.048364,-5.814069 -0.125706,-0.125706 -0.974492,-0.19265 -1.88619,-0.148765 l -1.657636,0.07979 -0.449802,1.455208 c -0.62234,2.013403 -2.536646,5.616923 -4.0761,7.672917 -1.453266,1.94089 -2.820202,3.439583 -3.137191,3.439583 -0.331782,0 -0.252452,-0.923266 0.227729,-2.65039 0.242226,-0.871237 0.378413,-1.646066 0.302636,-1.721842 -0.07578,-0.07578 -1.896782,1.114652 -4.046678,2.645395 -8.075928,5.750126 -14.952618,9.471655 -14.952618,8.092067 0,-0.137147 1.10232,-1.135954 2.4496,-2.219576 3.01757,-2.427044 6.204331,-5.358886 6.572422,-6.046672 0.197919,-0.369813 0.184275,-0.623515 -0.04863,-0.904142 -0.27559,-0.332065 -1.606502,-0.378741 -8.948052,-0.313816 l -8.62431,0.07627 -3.96875,2.541979 c -6.78915,4.348446 -6.899,4.22677 -1.26784,-1.404391 l 4.26534,-4.26534 2.99917,-0.241057 c 1.64954,-0.132582 6.07366,-0.262275 9.83137,-0.288208 l 6.832218,-0.04715 0.946213,1.031252 c 1.149088,1.252356 0.882915,1.37785 5.143767,-2.42515 3.42265,-3.054867 3.525296,-3.229105 3.807595,-6.463388 0.2617,-2.998259 0.02885,-2.905722 6.1238,-2.433709 l 5.07297,0.392868 1.858079,-0.935714 c 2.455209,-1.236423 5.613475,-2.093793 7.096911,-1.926588 0.634291,0.07149 1.907876,0.501488 2.830195,0.955544 l 1.676943,0.825556 1.554138,-0.949572 1.554139,-0.949572 3.175,0.14019 c 10.518466,0.464433 21.991898,1.211149 23.151048,1.50672 0.685294,0.174742 1.363919,0.750479 2.610292,2.214538 l 1.684245,1.978405 1.354926,-0.912461 1.354926,-0.91246 4.766032,0.004 c 2.621317,0.0022 4.90065,0.09153 5.065181,0.198438 0.164531,0.106912 0.835498,1.504073 1.491035,3.104802 1.811806,4.424167 3.269155,7.468001 4.591,9.588813 1.2676057,2.033791 1.7817202,2.311772 2.6010766,1.406393 0.2559262,-0.282794 0.7803938,-0.577223 1.1654869,-0.654287 0.3850932,-0.07706 3.9601247,-0.04876 7.94451697,0.0629 l 7.24434743,0.203018 0.5608611,0.688015 c 0.4178062,0.512528 0.9097566,0.734447 1.928749,0.87006 0.75234,0.100124 1.541653,0.380542 1.754029,0.623149 0.619241,0.707385 5.530106,8.788956 5.67318,9.336074 0.152429,0.582885 -0.293592,0.641472 -1.239414,0.162804 z m -36.636739,-8.142316 -3.08778,-6.096001 0.58348,-1.038165 c 0.560692,-0.997615 1.818527,-1.851083 2.728111,-1.851083 0.237342,0 0.82242,0.163323 1.300171,0.36294 0.670549,0.280174 0.979315,0.65728 1.353965,1.653646 0.26693,0.709888 1.241438,2.807053 2.165572,4.660366 1.674681,3.3585 2.043544,4.700132 1.292239,4.700132 -0.328316,0 -2.140374,-2.17078 -3.234455,-3.874763 -0.302601,-0.471288 -0.315788,-0.46976 -0.330695,0.0383 -0.0085,0.291042 0.280332,1.481667 0.64193,2.645834 0.871524,2.805874 0.875673,4.894792 0.0097,4.894792 -0.183962,0 -1.723977,-2.7432 -3.422256,-6.096002 z"
         id="path3613" />
      <path
         style="fill:#daa99c;stroke-width:0.264583"
         d="m -121.96786,68.685511 c -1.03153,-0.257987 -3.16332,-1.296395 -3.96767,-1.932678 -0.69654,-0.550997 -0.56878,-1.02331 0.5803,-2.145361 l 1.04333,-1.018778 1.40407,0.6169 c 1.04406,0.458724 1.91574,0.621374 3.39963,0.634352 2.15962,0.01889 3.04417,-0.340797 3.84542,-1.563653 0.41003,-0.625793 0.85407,-2.78452 0.57275,-2.78452 -0.076,0 -0.65725,0.235511 -1.29161,0.523356 -1.41113,0.640318 -4.66386,0.719862 -6.26961,0.153321 -3.05695,-1.078556 -4.80563,-4.020537 -4.80563,-8.085011 0,-5.275217 3.1682,-8.77375 7.97232,-8.803555 1.41512,-0.0088 2.28745,0.137525 3.18215,0.533701 l 1.2326,0.545796 0.14196,-0.542846 c 0.13382,-0.511728 0.26782,-0.532349 2.33761,-0.359735 1.20762,0.100711 2.29167,0.27912 2.40901,0.396462 0.11735,0.117346 0.17763,4.249561 0.13396,9.182704 -0.079,8.918212 -0.0831,8.976828 -0.7297,10.281102 -0.83428,1.68288 -2.38053,3.223316 -3.94045,3.925634 -1.39077,0.62616 -5.51115,0.877808 -7.25044,0.442809 z m 4.34494,-11.376642 c 0.55361,-0.153765 1.3314,-0.680667 1.81086,-1.22674 0.82963,-0.944901 0.83927,-0.987597 0.74937,-3.321389 -0.0897,-2.32778 -0.10565,-2.377541 -1.03797,-3.231758 -2.98406,-2.734075 -7.69694,-0.01357 -6.96649,4.021399 0.35532,1.962775 1.21841,3.035454 2.93494,3.647644 1.23945,0.442042 1.30624,0.444992 2.50929,0.110844 z m 35.885302,4.047451 c -2.673188,-1.00474 -4.864081,-3.276849 -5.53838,-5.743684 -0.357722,-1.308687 -0.352314,-4.194244 0.01011,-5.395764 0.791184,-2.622944 3.183623,-5.008113 5.780665,-5.763094 2.009317,-0.584123 5.047369,-0.393956 6.762136,0.423276 1.610614,0.767596 3.36741,2.514999 4.178258,4.155921 0.53431,1.081289 0.629144,1.66963 0.631565,3.918172 0.0026,2.374726 -0.07128,2.786468 -0.720622,4.018341 -1.592339,3.020862 -4.19364,4.622711 -7.74279,4.767909 -1.549405,0.06339 -2.450129,-0.03874 -3.360944,-0.381077 z m 4.271576,-4.035129 c 3.06708,-0.879626 4.149136,-4.998836 1.951975,-7.430834 -2.757829,-3.052585 -7.492815,-1.10849 -7.492815,3.076409 0,2.127753 0.960659,3.565726 2.826755,4.231259 1.233906,0.440065 1.557864,0.454766 2.714085,0.123166 z m 11.194056,4.31827 c -0.480867,-0.194035 -0.480867,-16.717256 0,-16.901285 0.181901,-0.06961 1.164167,-0.233561 2.182812,-0.364328 1.694059,-0.217474 1.891631,-0.192127 2.315594,0.297079 0.433094,0.499745 0.519904,0.508633 1.322917,0.13543 2.083006,-0.968087 5.102087,-0.761558 6.922082,0.473522 l 0.93004,0.631142 1.616352,-0.83362 c 1.43912,-0.742209 1.868075,-0.834927 3.911979,-0.84556 1.934898,-0.01006 2.503191,0.09199 3.61659,0.649515 1.48286,0.742521 2.876629,2.395042 3.297171,3.909287 0.150535,0.542028 0.274365,3.62076 0.275175,6.841625 0.0016,5.849925 7.93e-4,5.856291 -0.593837,6.015657 -0.835464,0.223896 -3.707915,0.198366 -4.076599,-0.03623 -0.210571,-0.133987 -0.335029,-1.889781 -0.398251,-5.618345 -0.0994,-5.862383 -0.198832,-6.315117 -1.539124,-7.008209 -1.204793,-0.623022 -2.264084,-0.501507 -3.242267,0.37193 l -0.864071,0.771543 -0.08051,5.683647 c -0.09185,6.484652 0.12582,5.991694 -2.648863,5.998822 -2.512624,0.0065 -2.429942,0.197919 -2.430412,-5.628093 -2.65e-4,-4.311478 -0.0707,-5.224063 -0.463021,-6.006282 -0.914337,-1.823019 -3.002442,-2.146975 -4.457819,-0.691597 l -0.899584,0.899583 v 5.441109 c 0,5.108673 -0.03127,5.457841 -0.511773,5.715 -0.514733,0.275476 -3.567983,0.347467 -4.184581,0.09866 z m 36.393719,-0.08764 c -1.825189,-0.320873 -3.863502,-1.539592 -5.01931,-3.001071 -2.690421,-3.401944 -2.308366,-9.399474 0.770998,-12.103193 1.757302,-1.542931 3.604197,-2.202902 6.153031,-2.198729 2.645024,0.0043 4.295135,0.609367 5.90984,2.166937 1.675262,1.615985 2.367311,3.257836 2.503773,5.940068 l 0.117782,2.315104 h -5.837582 c -3.524192,0 -5.901047,0.102685 -5.997726,0.259115 -0.242758,0.392792 0.295823,1.222803 1.22088,1.881502 1.119577,0.797208 3.325424,0.782209 5.226328,-0.03554 l 1.387999,-0.597101 1.30623,1.286587 c 0.718423,0.707623 1.306226,1.439143 1.306226,1.625602 0,0.558531 -2.037807,1.859733 -3.378324,2.157162 -1.892131,0.419819 -4.281273,0.547724 -5.670145,0.303556 z m 5.079719,-11.068098 c 0,-0.675894 -1.069398,-1.606275 -2.207477,-1.920512 -1.277792,-0.352817 -2.891988,0.09137 -3.599169,0.990409 -1.030203,1.30969 -0.837536,1.41315 2.631646,1.41315 2.897564,0 3.175,-0.04221 3.175,-0.483047 z m 11.773959,10.962582 c -1.801574,-0.56683 -3.571875,-1.724062 -3.571875,-2.334908 0,-0.314894 2.39554,-2.85296 2.692752,-2.85296 0.1315,0 0.574347,0.247865 0.984099,0.550807 1.042779,0.770962 3.7329349,1.00538 4.6490547,0.405114 1.4002597,-0.917485 0.7467442,-1.592011 -2.0633397,-2.129668 -2.943998,-0.563279 -4.408313,-1.359784 -5.138087,-2.794826 -1.254577,-2.467025 -0.519134,-5.474382 1.679768,-6.868887 1.865487,-1.183058 2.842313,-1.420932 5.1776739,-1.260864 1.6398611,0.1124 2.3650602,0.306054 3.4623535,0.924581 1.8295038,1.031264 1.8908184,1.551985 0.3720253,3.159461 l -1.184148,1.253294 -1.1778695,-0.588256 c -1.4891306,-0.743709 -3.0982262,-0.767871 -3.9348672,-0.05909 l -0.624623,0.529166 0.603578,0.512125 c 0.331967,0.281668 1.2844672,0.644218 2.1166664,0.805664 4.374359,0.848636 5.8729749,2.340433 5.8772374,5.850494 0.00238,1.985512 -0.9126855,3.382946 -2.886038,4.407238 -1.4872336,0.771965 -1.8774808,0.858087 -3.8163316,0.842196 -1.1878332,-0.0097 -2.6359462,-0.167542 -3.2180292,-0.350682 z M 10.370518,61.265004 C 9.8459472,60.740433 9.7731735,60.734388 8.7776628,61.132713 c -0.6406621,0.256341 -1.846162,0.417393 -3.1242662,0.417393 -1.7645169,0 -2.2970067,-0.112633 -3.5003767,-0.740413 C -0.84073796,59.247898 -1.5579334,55.560066 0.51143637,52.368625 1.9350508,50.173086 5.1156151,49.210722 8.2739835,50.019858 9.1907277,50.254718 9.9972756,50.390394 10.066311,50.321361 10.31467,50.073002 9.8762499,49.400897 9.1598032,48.931669 8.2664719,48.34659 5.5374483,48.344384 3.8482053,48.927383 2.5616927,49.37138 2.2814592,49.240366 1.4192218,47.791783 0.60151906,46.418024 0.70588925,46.073296 2.1228071,45.467842 c 2.1088562,-0.901121 3.5378497,-1.198055 5.8869793,-1.223278 3.4181016,-0.0367 5.3937426,0.990548 6.5081786,3.383963 0.607917,1.305589 0.630494,1.577007 0.632987,7.609427 0.0029,7.130696 0.216265,6.576746 -2.532597,6.576746 -1.366505,0 -1.805504,-0.107352 -2.247837,-0.549685 z M 9.582311,56.93345 c 0.822912,-0.744726 0.742934,-2.332318 -0.1529979,-3.037057 -1.3073195,-1.028338 -4.6838554,-0.541674 -5.389478,0.77679 -0.449408,0.839727 -0.1058122,1.790163 0.8681985,2.401578 1.1097657,0.696632 3.8395487,0.614106 4.6742774,-0.141311 z m -111.110031,4.369236 c -2.4635,-0.752081 -4.67065,-2.820932 -5.47444,-5.131422 -0.75146,-2.160066 -0.62844,-5.284089 0.2813,-7.143533 0.92027,-1.880955 2.92055,-3.69878 4.738,-4.305824 2.008174,-0.670745 4.979453,-0.600715 6.745422,0.158983 3.017999,1.29831 4.93336,4.498412 4.769615,7.968869 l -0.07968,1.688889 -5.820834,0.132291 c -6.297043,0.143116 -6.180973,0.109011 -5.253043,1.543455 0.95374,1.474322 3.679682,1.719109 6.09944,0.547727 l 1.182357,-0.57237 1.300726,1.281168 c 0.715401,0.704643 1.300729,1.428414 1.300729,1.608381 0,0.497382 -1.566815,1.57141 -2.98581,2.046729 -1.332617,0.446387 -5.560672,0.556165 -6.803782,0.176657 z m 6.085421,-10.75314 c 0,-0.694169 -1.442823,-1.912903 -2.499254,-2.111092 -1.306989,-0.245192 -2.890877,0.249293 -3.571967,1.11516 -1.0358,1.316802 -0.84734,1.413158 2.763929,1.413158 2.83513,0 3.307292,-0.05956 3.307292,-0.417226 z M 16.013432,40.712694 c -0.254661,-0.255471 -1.624486,-1.975223 -3.044052,-3.821673 -1.419569,-1.84645 -2.709865,-3.436804 -2.867327,-3.53412 -0.7581395,-0.468556 -0.677775,0.440456 0.185166,2.094453 0.517218,0.991349 0.876364,1.866485 0.7981,1.944746 C 10.750642,37.730779 10.080045,37.115904 8.6630453,35.175092 7.8327431,34.03786 6.98351,32.971265 6.7758597,32.804881 6.3112143,32.432574 -2.7217244,32.039724 -4.8121683,32.300908 c -1.5366312,0.191989 -2.2592956,0.655707 -2.2592956,1.449742 0,0.260239 1.2501562,1.884224 2.778125,3.608855 1.5279688,1.724629 2.7781251,3.229608 2.7781251,3.344395 0,0.900951 -3.9707239,-1.896338 -7.3677835,-5.190443 -3.8841897,-3.766472 -6.6988797,-7.93104 -8.6896757,-12.857102 -1.304465,-3.227793 -1.079535,-3.095002 -5.325039,-3.143696 -2.874391,-0.03297 -3.394983,0.108288 -4.635585,1.257795 -1.38068,1.279303 -1.377,1.360404 0.213543,4.706561 0.806495,1.696688 1.402783,3.148457 1.325089,3.226154 -0.253019,0.253016 -3.568925,-3.211102 -5.375223,-5.615477 -1.063135,-1.415148 -1.795518,-2.184324 -1.84486,-1.937545 -0.09387,0.469464 1.255858,5.132401 2.366518,8.175685 0.413851,1.133975 0.645732,2.061773 0.515289,2.061773 -0.325839,0 -2.136558,-2.205469 -3.258394,-3.96875 -1.232678,-1.937501 -2.600264,-4.713729 -3.519051,-7.14375 -0.881324,-2.330937 -1.220123,-2.78208 -2.63712,-3.511571 -1.257179,-0.647214 -4.936943,-0.971159 -5.521434,-0.486075 -0.20111,0.166908 -0.441452,0.777472 -0.534093,1.356808 -0.221144,1.382967 -0.752959,1.360239 -1.664602,-0.07114 -0.393902,-0.618463 -0.894596,-1.273307 -1.112658,-1.455208 -0.440841,-0.367737 -4.183864,-0.457581 -4.7258,-0.113435 -0.181181,0.115056 -0.405106,0.976435 -0.49761,1.914178 -0.126359,1.280947 -0.397835,2.088578 -1.091557,3.247342 -0.513963,0.858504 -1.024059,1.441666 -1.150464,1.31526 -0.124901,-0.124903 -0.362894,-1.473807 -0.528873,-2.997564 -0.337026,-3.09411 -0.711956,-3.961094 -1.712981,-3.961094 -0.741648,0 -1.975863,0.565943 -2.4315,1.11495 -0.162541,0.195851 -0.488204,2.114299 -0.723693,4.263218 -0.355439,3.243508 -0.57653,4.25329 -1.301697,5.945208 -1.357445,3.167105 -3.307284,6.932874 -3.589706,6.932874 -0.287268,0 -0.293738,0.04236 0.969598,-6.35 1.562862,-7.907942 1.181891,-10.248561 -1.899598,-11.670759 -2.038,-0.940599 -5.009811,-0.419813 -6.383575,1.118668 -0.313283,0.350848 -1.012624,2.137318 -1.577613,4.030025 -1.358437,4.550736 -1.545939,4.769395 -1.94954,2.273471 -0.175125,-1.083012 -0.457637,-2.564219 -0.627801,-3.291572 -0.295838,-1.264542 -0.357737,-1.332626 -1.413425,-1.554634 -0.607221,-0.127697 -1.515467,-0.154992 -2.018324,-0.06066 -0.863817,0.162052 -0.953841,0.284387 -1.630801,2.216093 -0.848763,2.421944 -2.16611,4.930338 -3.644377,6.939363 -1.21109,1.64592 -2.594618,3.175 -2.872772,3.175 -0.102465,0 0.03791,-0.863203 0.311952,-1.918229 0.579935,-2.232713 0.588989,-2.315104 0.254405,-2.315104 -0.139102,0 -1.94677,1.206522 -4.017037,2.681161 -6.789375,4.836027 -13.128488,8.58751 -14.164708,8.382672 -0.27046,-0.05346 0.53768,-0.869609 2.24066,-2.26286 3.4474,-2.820406 6.139831,-5.521912 6.139831,-6.16053 0,-0.277837 -0.230299,-0.62841 -0.511773,-0.77905 -0.321821,-0.172234 -3.616508,-0.273893 -8.876678,-0.273893 -6.8276,0 -8.50261,0.07121 -9.11417,0.387455 -0.41209,0.213101 -2.261,1.354686 -4.10868,2.536857 -1.84769,1.182171 -3.43612,2.072715 -3.52985,1.978987 -0.0937,-0.09373 1.43367,-1.758163 3.39422,-3.698743 l 3.56464,-3.528328 1.5875,-0.168491 c 2.84994,-0.302482 10.25613,-0.678308 13.09687,-0.664599 4.246601,0.02049 5.199776,0.243917 6.218797,1.457686 l 0.856155,1.019779 3.504327,-3.143381 c 1.927378,-1.72886 3.719452,-3.497131 3.982384,-3.92949 0.297328,-0.488916 0.546624,-1.609184 0.659416,-2.963238 0.09974,-1.197421 0.268628,-2.318344 0.3753,-2.490941 0.259753,-0.420288 0.48023,-0.421652 5.908893,-0.03656 l 4.704228,0.333699 1.910355,-0.94249 c 1.050698,-0.51837 2.893237,-1.204999 4.094536,-1.525843 2.129274,-0.56869 2.225154,-0.571961 3.814379,-0.130117 0.896612,0.249281 1.956175,0.685349 2.354585,0.969041 0.786799,0.560252 1.70375,0.674917 1.968717,0.24619 0.09165,-0.148288 0.749559,-0.565007 1.462029,-0.926042 1.472531,-0.746189 2.508203,-0.80262 7.356793,-0.400852 1.696376,0.140566 5.584632,0.385821 8.64057,0.545011 3.055937,0.159189 6.921852,0.404145 8.590923,0.544346 3.406762,0.286166 3.486533,0.330022 5.614675,3.086839 0.589762,0.763984 1.164913,1.389062 1.278115,1.389062 0.113202,0 0.828961,-0.419343 1.59058,-0.931874 l 1.384757,-0.931874 4.789181,0.07198 4.789181,0.07198 1.132734,2.778125 c 1.748737,4.288929 4.677889,10.072229 5.69028,11.234854 l 0.9129211,1.048395 0.87766,-0.738503 0.87766,-0.738502 7.65105959,0.08698 7.65105691,0.08698 0.6219244,0.723374 c 0.4864311,0.565777 0.9424088,0.76104 2.092965,0.896265 l 1.471044,0.172893 2.630543,4.266475 c 1.446797,2.346562 2.709916,4.47332 2.806928,4.72613 0.236937,0.61745 -0.519896,0.614227 -1.137,-0.0048 z m -33.063474,-2.230765 c -0.564552,-0.696717 -5.631839,-11.07168 -5.631839,-11.53085 0,-1.339472 1.860971,-2.534977 3.44633,-2.213953 0.694674,0.140667 1.031394,0.410225 1.37808,1.103211 1.830446,3.65887 4.171424,8.673239 4.171424,8.935185 0,0.173937 -0.116295,0.31625 -0.258432,0.31625 -0.375476,0 -2.313903,-2.526838 -3.13404,-4.08538 -0.689584,-1.310441 -0.705956,-1.321893 -0.778986,-0.544828 -0.04103,0.436562 0.239633,1.865312 0.623694,3.175 0.840213,2.865205 1.035383,4.174141 0.709276,4.756862 -0.197953,0.353726 -0.297068,0.370419 -0.525507,0.0885 z"
         id="path3611" />
      <path
         style="fill:#eaa562;stroke-width:0.264583"
         d="m -121.10688,68.671253 c -1.92957,-0.316918 -4.87194,-1.794404 -4.96495,-2.493103 -0.0414,-0.310795 0.31743,-0.933191 0.87457,-1.517081 l 0.94472,-0.990079 0.98591,0.502973 c 2.17419,1.109189 5.25151,1.186625 6.80134,0.17114 1.10794,-0.72595 2.16539,-3.539669 1.48769,-3.958513 -0.1214,-0.07503 -0.74648,0.126304 -1.38907,0.447405 -1.80953,0.904222 -4.8955,0.825995 -6.94353,-0.176011 -2.6192,-1.281454 -3.94971,-3.821017 -3.9557,-7.550317 -0.004,-2.423517 0.331,-3.725437 1.38643,-5.389674 1.90268,-3.000213 6.64938,-4.245036 9.84186,-2.581026 l 1.02977,0.536747 0.24697,-0.649576 c 0.23039,-0.605983 0.34091,-0.639598 1.64683,-0.500891 0.76993,0.08178 1.75705,0.233093 2.19362,0.336257 l 0.79375,0.187573 0.076,7.523909 c 0.0836,8.278625 -0.10873,10.222847 -1.21198,12.249881 -0.81252,1.492856 -2.43339,2.915772 -3.91409,3.436059 -1.44004,0.506002 -4.19853,0.698733 -5.93013,0.414327 z m 4.18032,-11.461634 c 1.58722,-0.825828 2.02882,-1.622163 2.11592,-3.815654 0.0618,-1.556327 -0.0306,-2.245278 -0.39583,-2.951086 -1.48043,-2.86099 -5.49548,-2.875066 -7.41547,-0.02598 -1.01276,1.502841 -0.6862,4.415851 0.66525,5.934168 1.03509,1.162891 3.60287,1.601173 5.03013,0.858567 z m 15.85776,4.052607 c -2.30813,-0.543787 -4.31876,-2.172436 -5.52409,-4.47462 -0.53469,-1.021252 -0.62293,-1.567008 -0.62032,-3.836459 0.003,-2.223695 0.10008,-2.841844 0.61119,-3.874375 0.82738,-1.671492 2.27217,-3.073414 4.01597,-3.896826 1.22736,-0.579557 1.82805,-0.687795 3.836459,-0.691303 2.077567,-0.0036 2.573721,0.09035 3.89046,0.736959 2.513835,1.234462 4.00272,3.590965 4.335044,6.861207 0.27314,2.687839 0.519605,2.58413 -6.141233,2.58413 -5.24375,0 -5.65615,0.03429 -5.65615,0.470294 0,2.11794 3.674638,3.150463 6.652719,1.869327 l 1.326854,-0.570799 1.233559,1.233561 c 1.023189,1.023187 1.184484,1.312302 0.945785,1.695276 -1.006602,1.615022 -5.780522,2.63004 -8.906247,1.893628 z m 5.75399,-10.287683 c 0.268957,-0.435181 -0.623279,-1.829006 -1.441746,-2.25225 -0.996016,-0.515061 -2.990054,-0.515061 -3.986074,0 -0.81846,0.423244 -1.7107,1.817069 -1.44174,2.25225 0.0888,0.143656 1.60222,0.256813 3.434779,0.256813 1.832557,0 3.345998,-0.113157 3.434781,-0.256813 z m 13.599698,10.210284 c -2.280751,-0.815027 -4.102235,-2.477688 -5.092388,-4.648361 -0.423222,-0.927814 -0.551045,-1.750407 -0.55712,-3.585319 -0.0069,-2.07763 0.08589,-2.572213 0.727596,-3.878934 0.881039,-1.794082 2.387531,-3.220887 4.34884,-4.118803 1.295257,-0.59299 1.706496,-0.650063 4.000503,-0.555213 2.20958,0.09136 2.747973,0.210278 3.96412,0.87557 2.857066,1.562955 4.384164,4.237152 4.384164,7.67738 0,1.724081 -0.128844,2.397382 -0.694679,3.630174 -0.90564,1.97313 -2.723595,3.726966 -4.585201,4.423481 -1.697071,0.634955 -4.969018,0.725636 -6.495835,0.180025 z m 5.343535,-4.205081 c 1.504146,-1.013642 2.095945,-2.151134 2.095945,-4.028599 0,-1.885143 -0.589386,-3.010011 -2.122964,-4.051778 -0.772155,-0.524529 -1.175515,-0.609053 -2.513655,-0.526728 -1.770034,0.108898 -2.594449,0.576845 -3.603829,2.045579 -0.488477,0.710776 -0.623094,1.257993 -0.623094,2.532864 0,2.86289 1.71124,4.61169 4.524936,4.624247 0.973228,0.0043 1.599054,-0.161859 2.242661,-0.595585 z m 10.086362,4.25286 c -0.366742,-0.366742 -0.459761,-15.452966 -0.09879,-16.021508 0.213172,-0.335746 3.945769,-0.932693 4.333518,-0.69305 0.11565,0.07147 0.21027,0.301522 0.21027,0.511215 0,0.507265 0.518493,0.480983 1.612995,-0.08176 1.85842,-0.955517 5.55498,-0.492557 7.142046,0.894479 0.364477,0.318537 0.64406,0.252431 2.093162,-0.494927 1.53349,-0.790884 1.872355,-0.861859 4.07725,-0.853969 2.871938,0.01027 4.208087,0.571431 5.453182,2.290236 1.24002,1.711799 1.350832,2.484231 1.264398,8.81366 l -0.07949,5.820833 h -2.116667 -2.116666 l -0.14632,-5.423958 c -0.158697,-5.882722 -0.255958,-6.302947 -1.656504,-7.156919 -1.298379,-0.791678 -2.401284,-0.671054 -3.558876,0.389229 l -0.988301,0.905227 -0.132291,5.643211 -0.132292,5.64321 h -2.116667 -2.116666 l -0.132292,-5.471456 c -0.121515,-5.025721 -0.177477,-5.532247 -0.686964,-6.217709 -0.701715,-0.944083 -1.582066,-1.398838 -2.717602,-1.40381 -0.68512,-0.003 -1.128395,0.233474 -1.918229,1.023305 l -1.027205,1.027208 v 5.426776 c 0,4.704437 -0.05571,5.448157 -0.418515,5.587379 -0.747263,0.286752 -3.697807,0.171778 -4.026485,-0.156901 z m 36.120256,0.04589 c -1.556885,-0.393366 -2.596174,-1.004279 -3.963345,-2.32973 -1.633934,-1.584074 -2.311911,-3.344979 -2.311911,-6.004706 0,-3.635242 1.453653,-6.11972 4.441127,-7.590449 1.584989,-0.780288 1.995911,-0.868164 4.019976,-0.859684 1.762646,0.0074 2.543149,0.140224 3.577439,0.608865 2.876693,1.303443 4.384993,3.65039 4.576263,7.120752 l 0.120303,2.182813 h -5.538859 c -6.124877,0 -6.696186,0.123267 -6.094524,1.314974 0.931072,1.844172 3.922052,2.43182 6.572984,1.291418 l 1.321763,-0.568606 1.174681,1.152861 c 0.646075,0.634074 1.174681,1.298559 1.174681,1.476632 0,0.444161 -1.322342,1.348057 -2.665288,1.821876 -1.403998,0.495361 -5.088578,0.715669 -6.40529,0.382984 z m 5.630995,-10.554666 c 0,-1.427916 -1.452288,-2.463948 -3.453914,-2.463948 -1.424146,0 -2.365941,0.468127 -3.053783,1.517909 -0.836605,1.276819 -0.448461,1.453566 3.192102,1.453566 3.092083,0 3.315595,-0.03421 3.315595,-0.507527 z m 10.732476,10.168041 c -2.828986,-1.162965 -3.008863,-1.721723 -1.134573,-3.52434 l 0.910085,-0.875286 1.124527,0.586136 c 2.702115,1.408422 6.1187196,0.665263 5.4117291,-1.177126 -0.166923,-0.434991 -0.8798428,-0.679939 -3.5504941,-1.219888 -3.37267,-0.681881 -4.7625,-2.125593 -4.7625,-4.947139 0,-2.110933 0.871418,-3.475665 2.887514,-4.522142 1.38552,-0.719169 1.94513,-0.859655 3.4194568,-0.85842 0.9695524,7.94e-4 2.1935441,0.121119 2.7199855,0.267349 1.2051772,0.334766 2.7187129,1.34171 2.821874,1.877369 0.043193,0.224288 -0.3877099,0.933183 -0.9575642,1.575327 L -5.947543,49.241242 -7.1337945,48.6488 c -1.5591817,-0.778692 -3.1328675,-0.777274 -4.0407375,0.0037 -1.262883,1.086287 -0.288491,1.831684 3.3590386,2.569628 1.6531299,0.33445 2.9203544,1.07495 3.7452697,2.188541 0.566346,0.764535 0.9060128,3.325567 0.601816,4.537583 -0.264713,1.054704 -1.5009204,2.309845 -2.9307844,2.975677 -1.9097784,0.889309 -5.1957079,0.875101 -7.4022959,-0.032 z M 3.9662915,61.261292 C 0.95024254,60.551097 -0.71236741,58.322443 -0.37173753,55.446361 0.12179771,51.279229 3.9831296,49.007975 8.3940699,50.29027 9.3238263,50.560558 10.028142,50.64175 10.17439,50.495502 10.550138,50.119754 9.8943712,48.95011 9.10509,48.588266 8.1810909,48.164663 5.1785145,48.223138 3.8537695,48.690536 3.2731176,48.895402 2.6759768,48.985348 2.5267915,48.890418 2.1411057,48.644993 1.1327865,46.932123 1.1316091,46.520365 c -0.00159,-0.565153 2.6950988,-1.627667 4.9741986,-1.959848 4.1084293,-0.598811 6.9566793,0.479911 8.1501063,3.0867 0.6302,1.376537 0.641538,1.526969 0.571846,7.587488 l -0.0711,6.183109 -1.576475,0.081 c -1.94649,0.100004 -2.789151,-0.09518 -2.789151,-0.646047 0,-0.471887 -0.471749,-0.415814 -2.2489579,0.267314 -1.170813,0.450038 -2.6516146,0.500118 -4.1757866,0.141216 z M 9.3597224,57.242081 C 10.856632,56.23663 10.766798,54.11774 9.1994933,53.462878 7.2241723,52.637537 4.60149,53.254376 3.7818134,54.737085 c -0.3599259,0.651071 -0.3599259,0.804138 0,1.455208 0.8985753,1.625428 3.8843004,2.187356 5.577909,1.049788 z M 16.013432,40.712694 c -0.254661,-0.255471 -1.624486,-1.975223 -3.044052,-3.821673 -1.419569,-1.84645 -2.709865,-3.436804 -2.867327,-3.53412 -0.7581395,-0.468556 -0.677775,0.440456 0.185166,2.094453 0.517218,0.991349 0.876364,1.866485 0.7981,1.944746 C 10.750642,37.730779 10.080045,37.115904 8.6630453,35.175092 7.8327431,34.03786 6.98351,32.971265 6.7758597,32.804881 6.3112143,32.432574 -2.7217244,32.039724 -4.8121683,32.300908 c -1.5366312,0.191989 -2.2592956,0.655707 -2.2592956,1.449742 0,0.260239 1.2501562,1.884224 2.778125,3.608855 1.5279688,1.724629 2.7781251,3.229608 2.7781251,3.344395 0,0.900951 -3.9707239,-1.896338 -7.3677835,-5.190443 -3.8841897,-3.766472 -6.6988797,-7.93104 -8.6896757,-12.857102 -1.304465,-3.227793 -1.079535,-3.095002 -5.325039,-3.143696 -2.874391,-0.03297 -3.394983,0.108288 -4.635585,1.257795 -1.38068,1.279303 -1.377,1.360404 0.213543,4.706561 0.806495,1.696688 1.402783,3.148457 1.325089,3.226154 -0.253019,0.253016 -3.568925,-3.211102 -5.375223,-5.615477 -1.063135,-1.415148 -1.795518,-2.184324 -1.84486,-1.937545 -0.09387,0.469464 1.255858,5.132401 2.366518,8.175685 0.413851,1.133975 0.645732,2.061773 0.515289,2.061773 -0.325839,0 -2.136558,-2.205469 -3.258394,-3.96875 -1.232678,-1.937501 -2.600264,-4.713729 -3.519051,-7.14375 -0.881324,-2.330937 -1.220123,-2.78208 -2.63712,-3.511571 -1.257179,-0.647214 -4.936943,-0.971159 -5.521434,-0.486075 -0.20111,0.166908 -0.441452,0.777472 -0.534093,1.356808 -0.221144,1.382967 -0.752959,1.360239 -1.664602,-0.07114 -0.393902,-0.618463 -0.894596,-1.273307 -1.112658,-1.455208 -0.440841,-0.367737 -4.183864,-0.457581 -4.7258,-0.113435 -0.181181,0.115056 -0.405106,0.976435 -0.49761,1.914178 -0.126359,1.280947 -0.397835,2.088578 -1.091557,3.247342 -0.513963,0.858504 -1.024059,1.441666 -1.150464,1.31526 -0.124901,-0.124903 -0.362894,-1.473807 -0.528873,-2.997564 -0.337026,-3.09411 -0.711956,-3.961094 -1.712981,-3.961094 -0.741648,0 -1.975863,0.565943 -2.4315,1.11495 -0.162541,0.195851 -0.488204,2.114299 -0.723693,4.263218 -0.355439,3.243508 -0.57653,4.25329 -1.301697,5.945208 -1.357445,3.167105 -3.307284,6.932874 -3.589706,6.932874 -0.287268,0 -0.293738,0.04236 0.969598,-6.35 1.562862,-7.907942 1.181891,-10.248561 -1.899598,-11.670759 -2.038,-0.940599 -5.009811,-0.419813 -6.383575,1.118668 -0.313283,0.350848 -1.012624,2.137318 -1.577613,4.030025 -1.358437,4.550736 -1.545939,4.769395 -1.94954,2.273471 -0.175125,-1.083012 -0.457637,-2.564219 -0.627801,-3.291572 -0.295838,-1.264542 -0.357737,-1.332626 -1.413425,-1.554634 -0.607221,-0.127697 -1.515467,-0.154992 -2.018324,-0.06066 -0.863817,0.162052 -0.953841,0.284387 -1.630801,2.216093 -0.848763,2.421944 -2.16611,4.930338 -3.644377,6.939363 -1.21109,1.64592 -2.594618,3.175 -2.872772,3.175 -0.102465,0 0.03791,-0.863203 0.311952,-1.918229 0.579935,-2.232713 0.588989,-2.315104 0.254405,-2.315104 -0.139102,0 -1.94677,1.206522 -4.017037,2.681161 -6.789375,4.836027 -13.128488,8.58751 -14.164708,8.382672 -0.27046,-0.05346 0.53768,-0.869609 2.24066,-2.26286 3.4474,-2.820406 6.139831,-5.521912 6.139831,-6.16053 0,-0.277837 -0.230299,-0.62841 -0.511773,-0.77905 -0.321821,-0.172234 -3.616508,-0.273893 -8.876678,-0.273893 -6.8276,0 -8.50261,0.07121 -9.11417,0.387455 -0.41209,0.213101 -2.261,1.354686 -4.10868,2.536857 -1.84769,1.182171 -3.43612,2.072715 -3.52985,1.978987 -0.0937,-0.09373 1.43367,-1.758163 3.39422,-3.698743 l 3.56464,-3.528328 1.5875,-0.168491 c 2.84994,-0.302482 10.25613,-0.678308 13.09687,-0.664599 4.246601,0.02049 5.199776,0.243917 6.218797,1.457686 l 0.856155,1.019779 3.504327,-3.143381 c 1.927378,-1.72886 3.719452,-3.497131 3.982384,-3.92949 0.297328,-0.488916 0.546624,-1.609184 0.659416,-2.963238 0.09974,-1.197421 0.268628,-2.318344 0.3753,-2.490941 0.259753,-0.420288 0.48023,-0.421652 5.908893,-0.03656 l 4.704228,0.333699 1.910355,-0.94249 c 1.050698,-0.51837 2.893237,-1.204999 4.094536,-1.525843 2.129274,-0.56869 2.225154,-0.571961 3.814379,-0.130117 0.896612,0.249281 1.956175,0.685349 2.354585,0.969041 0.786799,0.560252 1.70375,0.674917 1.968717,0.24619 0.09165,-0.148288 0.749559,-0.565007 1.462029,-0.926042 1.472531,-0.746189 2.508203,-0.80262 7.356793,-0.400852 1.696376,0.140566 5.584632,0.385821 8.64057,0.545011 3.055937,0.159189 6.921852,0.404145 8.590923,0.544346 3.406762,0.286166 3.486533,0.330022 5.614675,3.086839 0.589762,0.763984 1.164913,1.389062 1.278115,1.389062 0.113202,0 0.828961,-0.419343 1.59058,-0.931874 l 1.384757,-0.931874 4.789181,0.07198 4.789181,0.07198 1.132734,2.778125 c 1.748737,4.288929 4.677889,10.072229 5.69028,11.234854 l 0.9129211,1.048395 0.87766,-0.738503 0.87766,-0.738502 7.65105959,0.08698 7.65105691,0.08698 0.6219244,0.723374 c 0.4864311,0.565777 0.9424088,0.76104 2.092965,0.896265 l 1.471044,0.172893 2.630543,4.266475 c 1.446797,2.346562 2.709916,4.47332 2.806928,4.72613 0.236937,0.61745 -0.519896,0.614227 -1.137,-0.0048 z m -33.063474,-2.230765 c -0.564552,-0.696717 -5.631839,-11.07168 -5.631839,-11.53085 0,-1.339472 1.860971,-2.534977 3.44633,-2.213953 0.694674,0.140667 1.031394,0.410225 1.37808,1.103211 1.830446,3.65887 4.171424,8.673239 4.171424,8.935185 0,0.173937 -0.116295,0.31625 -0.258432,0.31625 -0.375476,0 -2.313903,-2.526838 -3.13404,-4.08538 -0.689584,-1.310441 -0.705956,-1.321893 -0.778986,-0.544828 -0.04103,0.436562 0.239633,1.865312 0.623694,3.175 0.840213,2.865205 1.035383,4.174141 0.709276,4.756862 -0.197953,0.353726 -0.297068,0.370419 -0.525507,0.0885 z"
         id="path3609" />
      <path
         style="fill:#e58411;stroke-width:0.264583"
         d="m -122.16522,68.288612 c -1.48551,-0.412363 -3.72743,-1.631439 -3.87723,-2.108298 -0.0457,-0.14552 0.31351,-0.73356 0.79828,-1.30675 l 0.8814,-1.042168 1.4156,0.608973 c 3.24012,1.393862 6.31528,0.924163 7.53098,-1.150276 0.72385,-1.235151 0.90471,-3.062904 0.30308,-3.062904 -0.19592,0 -0.76147,0.20836 -1.25677,0.463021 -0.67155,0.345284 -1.53969,0.463021 -3.41409,0.463021 -2.19051,0 -2.66496,-0.085 -3.69181,-0.661458 -1.40055,-0.786244 -2.77793,-2.502943 -3.2463,-4.046022 -0.18586,-0.612344 -0.33292,-2.244447 -0.32679,-3.626895 0.0128,-2.895796 0.48529,-4.257165 2.09628,-6.040343 1.88257,-2.083771 5.81897,-2.807247 8.64931,-1.589664 1.34545,0.578797 1.55262,0.534239 1.8833,-0.40505 0.0458,-0.130078 0.93774,-0.130078 2.05482,0 l 1.9739,0.229848 v 8.863542 c 0,8.454187 -0.0257,8.919152 -0.55712,10.06761 -0.7889,1.704999 -2.08842,3.085246 -3.65239,3.879292 -1.71303,0.86972 -5.3092,1.090555 -7.56445,0.464521 z m 5.18017,-10.94441 c 1.83068,-0.831453 2.22832,-1.586738 2.22718,-4.230299 -0.001,-2.757813 -0.48725,-3.766224 -2.18729,-4.537953 -1.36252,-0.618511 -2.28475,-0.647645 -3.56523,-0.112628 -1.31203,0.548201 -1.90207,1.112319 -2.48013,2.371159 -1.16593,2.539037 0.0666,5.742831 2.5451,6.615567 1.42065,0.500246 2.17682,0.477116 3.46037,-0.105846 z m 36.02009,3.93391 c -3.593606,-0.90659 -5.988482,-3.867754 -6.217751,-7.68799 -0.171368,-2.855469 0.379283,-4.571381 2.05559,-6.405529 1.86772,-2.043583 3.424608,-2.690743 6.485864,-2.696014 2.073182,-0.0036 2.575007,0.09105 3.878934,0.731385 1.725579,0.847397 3.211682,2.372688 4.020895,4.126923 0.802338,1.739329 0.802338,5.469192 0,7.208521 -1.364084,2.957097 -3.958516,4.693343 -7.278778,4.871106 -1.069184,0.05724 -2.39432,-0.0096 -2.944754,-0.148402 z m 3.976163,-3.839139 c 1.312032,-0.548201 1.902077,-1.112319 2.480138,-2.371159 1.643029,-3.578008 -1.150204,-7.459266 -4.957352,-6.888348 -2.206813,0.330933 -3.805455,2.335477 -3.805455,4.771681 0,3.513614 3.179168,5.784552 6.282669,4.487826 z m 64.493375,3.864967 c -1.127446,-0.272716 -2.609525,-1.012634 -3.280556,-1.637794 l -0.573889,-0.53466 1.091964,-1.304232 c 0.600581,-0.717327 1.110642,-1.303734 1.133473,-1.303123 0.02283,5.29e-4 0.627234,0.298265 1.34312,0.661458 2.354739,1.194637 5.4452627,0.753378 5.4452627,-0.777464 0,-0.891583 -0.4883044,-1.175073 -2.7789397,-1.613345 -2.328839,-0.445579 -4.017606,-1.127583 -4.701352,-1.898621 -0.748962,-0.844584 -1.149991,-3.250351 -0.75923,-4.554596 0.909555,-3.035829 4.51671,-4.621559 8.4493998,-3.714419 1.3273035,0.306165 3.2347007,1.438823 3.2184235,1.911175 -0.00619,0.180078 -0.4773083,0.858243 -1.0468981,1.507038 L -5.99026,49.224983 -7.0299085,48.64067 c -1.8813383,-1.057371 -4.8040555,-0.6026 -4.8040555,0.747506 0,0.731498 0.931997,1.239059 3.1205779,1.69944 3.499792,0.736205 4.8695188,1.856742 5.2330642,4.281032 0.091699,0.6115 0.080796,1.62741 -0.024236,2.257576 -0.2401914,1.441143 -1.6685949,2.884331 -3.4583715,3.49417 -1.2906375,0.439763 -4.0893996,0.532616 -5.5324956,0.183546 z m -89.619508,-0.516921 c -1.99395,-0.802484 -3.26882,-1.985735 -4.21897,-3.915749 -0.75503,-1.533697 -0.8559,-1.995673 -0.8559,-3.920123 0,-1.925867 0.10063,-2.385941 0.85861,-3.92562 1.44611,-2.937462 3.96586,-4.428823 7.501658,-4.439999 4.816353,-0.01521 7.814072,2.847999 8.096896,7.733617 l 0.120827,2.087211 h -5.863133 c -5.096538,0 -5.884078,0.05459 -6.023358,0.417534 -0.18289,0.476601 0.54542,1.555657 1.56254,2.315043 0.963074,0.719039 2.964547,0.860287 4.435127,0.312994 2.06256,-0.767607 2.169184,-0.75583 3.370316,0.372218 0.716431,0.672841 1.065448,1.19882 0.966528,1.456595 -0.08515,0.221909 -0.827889,0.732968 -1.650521,1.135685 -1.299895,0.636362 -1.859386,0.741441 -4.273823,0.802677 -2.231907,0.0566 -3.023627,-0.02835 -4.026797,-0.432083 z m 6.518699,-9.451679 c 0.49566,-0.190201 0.535868,-1.118349 0.07469,-1.724139 -0.619117,-0.813258 -2.156598,-1.552866 -3.228052,-1.552866 -1.071454,0 -2.608937,0.739608 -3.228047,1.552866 -0.42639,0.560091 -0.43389,1.539714 -0.0131,1.70951 0.47757,0.192701 5.898135,0.205105 6.394504,0.01463 z m 29.258099,1.906706 c 0,-4.435681 0.104098,-8.129214 0.231328,-8.207846 0.12723,-0.07863 1.086247,-0.222424 2.13115,-0.319537 1.793878,-0.166725 1.908111,-0.144867 2.048489,0.391935 0.08177,0.312679 0.179178,0.568508 0.216466,0.568508 0.03729,0 0.648483,-0.258816 1.358204,-0.575146 2.222196,-0.990457 5.050301,-0.734097 7.043899,0.638508 0.726065,0.499901 0.727234,0.499735 2.454233,-0.350467 1.525453,-0.750977 1.985447,-0.850604 3.927367,-0.850604 1.884148,0 2.385853,0.101465 3.498889,0.70761 0.714643,0.389186 1.579944,1.117563 1.922894,1.618615 1.213088,1.772338 1.336908,2.567742 1.349219,8.667213 l 0.01161,5.754688 h -2.248959 -2.248958 v -5.035582 c 0,-5.501 -0.166119,-6.338565 -1.458828,-7.355412 -0.488151,-0.383979 -1.100812,-0.57359 -1.853359,-0.57359 -0.975902,0 -1.250338,0.139671 -2.080985,1.059095 l -0.956828,1.059096 v 5.433896 5.433896 l -2.182813,-0.07684 -2.182812,-0.07685 -0.132292,-5.423958 c -0.112239,-4.601745 -0.203044,-5.528075 -0.599022,-6.110783 -0.592317,-0.871633 -1.525916,-1.297551 -2.844192,-1.297551 -0.833175,0 -1.219808,0.182742 -1.966568,0.929503 l -0.929503,0.929505 -0.0715,5.48664 -0.0715,5.486644 -2.182812,0.07685 -2.182813,0.07684 z m 34.99765,7.605832 c -1.598525,-0.566026 -3.585006,-2.454622 -4.332097,-4.118631 -0.509879,-1.135661 -0.627144,-1.842106 -0.627144,-3.7781 0,-3.000089 0.659542,-4.64022 2.549149,-6.339138 1.562264,-1.40461 3.399465,-2.068645 5.763133,-2.083012 4.789456,-0.02912 7.881295,2.92145 8.163139,7.790148 l 0.120828,2.087211 h -5.863133 c -6.473899,0 -6.590707,0.0325 -5.676918,1.579422 0.728382,1.233051 2.457757,1.965883 4.11911,1.745496 0.739367,-0.09808 1.811369,-0.416608 2.382226,-0.707837 l 1.037926,-0.529511 1.106504,0.987489 c 0.608576,0.543115 1.195795,1.134396 1.30493,1.313952 0.298257,0.49071 -1.203045,1.620666 -2.772537,2.086756 -1.742072,0.51734 -5.770936,0.498374 -7.275116,-0.03424 z m 6.871917,-10.410272 c -0.09015,-0.891437 -1.410933,-2.047296 -2.592763,-2.269009 -1.953313,-0.366442 -4.351803,0.954635 -4.351803,2.396953 v 0.681165 l 3.505729,-0.07382 3.505729,-0.07383 z M 3.1149946,60.96629 C 1.9865943,60.571854 0.66367233,59.52748 0.22990911,58.688672 -0.75588079,56.782364 -0.43420565,54.012026 0.98969986,52.14519 2.4047392,50.289979 5.0878973,49.61922 8.2119281,50.339718 c 1.0570633,0.24379 2.0019649,0.363225 2.0997809,0.265409 0.387863,-0.387861 -0.3617779,-1.642049 -1.2464256,-2.08534 -1.1325992,-0.567534 -2.580603,-0.588555 -4.5846921,-0.06656 -0.8380387,0.218281 -1.6354664,0.396875 -1.7720628,0.396875 -0.3730519,0 -1.6347097,-2.11618 -1.4886253,-2.496871 0.194318,-0.506386 2.9858706,-1.440569 5.2048623,-1.741789 4.1572495,-0.564332 7.0209465,0.74377 8.0570335,3.680362 0.319966,0.906878 0.407154,2.421668 0.407154,7.073856 v 5.919859 h -2.084395 c -1.80299,0 -2.133402,-0.07287 -2.447396,-0.539742 L 9.9941615,60.206036 8.8824643,60.745781 C 7.6437565,61.347186 4.543742,61.465712 3.1149946,60.96629 Z m 6.1987855,-3.507439 c 0.8730539,-0.451474 1.0772559,-0.875969 1.0772559,-2.239378 0,-1.583967 -0.6755152,-2.003742 -3.224482,-2.003742 -2.04928,0 -2.1330179,0.02511 -2.8826381,0.864071 -1.7314731,1.937853 -0.3562006,3.731887 2.8791139,3.755781 0.7712101,0.0057 1.739048,-0.163835 2.1507503,-0.376732 z M 13.256355,36.811564 c -2.868599,-3.712614 -3.7126678,-4.42955 -4.0819733,-3.467155 -0.077944,0.203116 0.2312432,1.108133 0.6870859,2.011148 0.4558404,0.903015 0.7817854,1.688861 0.7243204,1.746324 -0.05747,0.05746 -0.9284623,-0.996381 -1.9355538,-2.341877 L 6.8191614,32.313647 3.379578,32.103713 c -1.8917709,-0.115464 -4.8548186,-0.167916 -6.5845533,-0.11656 -2.9049901,0.08625 -3.182591,0.139836 -3.6380209,0.702267 -0.2711768,0.33489 -0.4930511,0.832432 -0.4930511,1.105648 0,0.273216 1.1798777,1.837604 2.6219521,3.476418 1.4420745,1.638814 2.5732,3.029239 2.5136132,3.089834 -0.1793372,0.182369 -2.8648608,-1.764387 -5.0857627,-3.68671 -4.4959163,-3.891477 -8.4741303,-9.672271 -10.3753713,-15.076588 -0.332761,-0.945885 -0.78777,-1.86862 -1.011129,-2.050521 -0.279768,-0.227839 -1.506516,-0.330729 -3.943252,-0.330729 h -3.537143 l -1.439371,1.361296 c -0.791654,0.748713 -1.43937,1.524999 -1.43937,1.725079 0,0.20008 0.535781,1.430586 1.190625,2.734458 0.654844,1.303872 1.184923,2.521884 1.177954,2.706693 -0.02035,0.539739 -3.577873,-3.434908 -5.205222,-5.815547 -1.541619,-2.255223 -1.925857,-2.579831 -1.925857,-1.626982 0,0.616002 1.2017,4.849876 2.239237,7.889358 0.368523,1.079593 0.624483,2.008453 0.568802,2.064134 -0.187497,0.187498 -1.635435,-1.755627 -2.930316,-3.93247 -0.707031,-1.188603 -1.895975,-3.658333 -2.642095,-5.488291 -1.304629,-3.199767 -1.406075,-3.357793 -2.648776,-4.126108 -1.202219,-0.743285 -1.468649,-0.798912 -3.826502,-0.798912 h -2.534309 l -0.414718,1.310856 -0.414721,1.310856 -1.114981,-1.509293 -1.114981,-1.509294 h -2.340507 c -2.76022,0 -2.906397,0.107708 -3.117162,2.29683 -0.138102,1.434389 -1.224849,4.05317 -1.681993,4.05317 -0.234905,0 -0.434457,-1.086462 -0.675161,-3.675944 -0.2017,-2.169907 -0.686157,-2.938639 -1.851935,-2.938639 -0.908471,0 -2.441197,0.742239 -2.759012,1.336082 -0.139332,0.260346 -0.444177,2.179592 -0.677429,4.264991 -0.368569,3.295182 -0.563014,4.120271 -1.485074,6.301572 -1.342612,3.176201 -2.588818,5.652183 -2.759125,5.481874 -0.07234,-0.07234 0.306294,-2.257278 0.841414,-4.855419 1.656242,-8.041476 1.335117,-10.380285 -1.655675,-12.058592 -2.256031,-1.265988 -5.075198,-0.948353 -7.029056,0.791963 -0.257876,0.229692 -0.962115,1.999026 -1.564979,3.931854 -0.602861,1.932828 -1.179851,3.462479 -1.282197,3.399226 -0.102346,-0.06325 -0.269158,-0.742758 -0.370689,-1.510008 -0.426239,-3.220944 -0.657717,-3.849394 -1.529824,-4.153413 -1.255643,-0.43772 -2.983918,-0.351406 -3.578595,0.178724 -0.285671,0.254662 -0.669661,0.998521 -0.853313,1.653021 -0.529699,1.887727 -2.469169,5.528985 -4.127588,7.749335 -0.838401,1.122481 -1.62388,2.040873 -1.745511,2.040873 -0.27504,0 -0.288658,0.109137 0.178591,-1.431113 0.453406,-1.494606 0.509021,-2.537637 0.135313,-2.537637 -0.142282,0 -1.766258,1.086294 -3.60883,2.413985 -5.911096,4.259323 -13.627232,9.019034 -14.006392,8.639873 -0.0664,-0.06641 1.06927,-1.104097 2.52374,-2.305957 3.04176,-2.513463 5.296014,-4.877196 5.296014,-5.553216 0,-0.25676 -0.250314,-0.69365 -0.556255,-0.970865 -0.621477,-0.563126 -0.261969,-0.549285 -11.357639,-0.43726 l -6.48993,0.06552 -2.37361,1.529954 c -4.66466,3.006694 -4.70661,2.997285 -1.42778,-0.320201 l 3.0625,-3.098604 7.25626,-0.418839 c 4.54468,-0.262323 8.14609,-0.343584 9.6375,-0.217456 2.326842,0.196781 2.402987,0.224904 3.332791,1.230972 0.523348,0.566275 1.063172,1.02959 1.199605,1.02959 0.393334,0 7.047074,-5.974064 7.687339,-6.90208 0.436557,-0.632759 0.623141,-1.414012 0.76218,-3.191359 0.101261,-1.294418 0.299945,-2.425078 0.441521,-2.512576 0.141575,-0.0875 2.537034,-0.0089 5.323236,0.174726 l 5.065824,0.333815 1.924376,-0.969142 c 1.058404,-0.533029 2.913279,-1.204007 4.121941,-1.491064 2.062411,-0.489822 2.28578,-0.496172 3.631874,-0.103258 0.788872,0.230264 1.912999,0.695148 2.498067,1.033076 l 1.063754,0.614413 1.558613,-0.967755 c 1.478241,-0.91785 1.675797,-0.967754 3.831037,-0.967754 1.249831,0 4.594141,0.152688 7.431797,0.339307 2.837656,0.186619 7.123906,0.454923 9.525,0.59623 7.43997,0.437853 7.321315,0.412929 8.643232,1.815556 0.631171,0.669711 1.4152,1.603796 1.742281,2.075745 0.327083,0.471948 0.74822,0.858901 0.935863,0.859896 0.187642,0.001 0.959958,-0.414911 1.716259,-0.924234 l 1.375093,-0.926042 h 4.535199 c 3.318791,0 4.60207,0.08871 4.784527,0.330729 0.137133,0.181901 0.7049,1.461823 1.261705,2.844271 2.54725,6.324351 5.699734,11.90625 6.7242825,11.90625 0.2576671,0 0.7571291,-0.313043 1.1099192,-0.695651 l 0.641432,-0.695652 7.65019974,0.150461 7.65019976,0.15046 0.557358,0.698993 c 0.43239,0.542269 0.8808535,0.738663 2.0001468,0.875921 l 1.442789,0.176927 2.568945,4.101042 c 1.41292,2.255572 2.576904,4.190338 2.586633,4.299479 0.06274,0.7039 -0.861544,-0.265983 -3.466994,-3.638021 z m -33.046083,-4.137533 c -2.825039,-5.644701 -2.923096,-6.035658 -1.780726,-7.099936 0.583325,-0.543451 2.392503,-0.743141 3.026021,-0.334001 0.165542,0.106913 0.625976,0.968293 1.023181,1.914178 0.397209,0.945885 1.310913,2.893141 2.030458,4.327235 0.719545,1.434094 1.255096,2.660611 1.190114,2.725593 -0.204671,0.204669 -1.705594,-1.784995 -2.570131,-3.40703 -1.535853,-2.881559 -1.868987,-1.057162 -0.587854,3.219383 1.701438,5.679567 0.974916,5.26024 -2.331063,-1.345422 z"
         id="path3607" />
      <path
         style="fill:#d9661c;stroke-width:0.264583"
         d="m -122.16522,68.288612 c -1.48551,-0.412363 -3.72743,-1.631439 -3.87723,-2.108298 -0.0457,-0.14552 0.31351,-0.73356 0.79828,-1.30675 l 0.8814,-1.042168 1.4156,0.608973 c 3.24012,1.393862 6.31528,0.924163 7.53098,-1.150276 0.72385,-1.235151 0.90471,-3.062904 0.30308,-3.062904 -0.19592,0 -0.76147,0.20836 -1.25677,0.463021 -0.67155,0.345284 -1.53969,0.463021 -3.41409,0.463021 -2.19051,0 -2.66496,-0.085 -3.69181,-0.661458 -1.40055,-0.786244 -2.77793,-2.502943 -3.2463,-4.046022 -0.18586,-0.612344 -0.33292,-2.244447 -0.32679,-3.626895 0.0128,-2.895796 0.48529,-4.257165 2.09628,-6.040343 1.88257,-2.083771 5.81897,-2.807247 8.64931,-1.589664 1.34545,0.578797 1.55262,0.534239 1.8833,-0.40505 0.0458,-0.130078 0.93774,-0.130078 2.05482,0 l 1.9739,0.229848 v 8.863542 c 0,8.454187 -0.0257,8.919152 -0.55712,10.06761 -0.7889,1.704999 -2.08842,3.085246 -3.65239,3.879292 -1.71303,0.86972 -5.3092,1.090555 -7.56445,0.464521 z m 5.18017,-10.94441 c 1.83068,-0.831453 2.22832,-1.586738 2.22718,-4.230299 -0.001,-2.757813 -0.48725,-3.766224 -2.18729,-4.537953 -1.36252,-0.618511 -2.28475,-0.647645 -3.56523,-0.112628 -1.31203,0.548201 -1.90207,1.112319 -2.48013,2.371159 -1.16593,2.539037 0.0666,5.742831 2.5451,6.615567 1.42065,0.500246 2.17682,0.477116 3.46037,-0.105846 z m 36.02009,3.93391 c -3.593606,-0.90659 -5.988482,-3.867754 -6.217751,-7.68799 -0.171368,-2.855469 0.379283,-4.571381 2.05559,-6.405529 1.86772,-2.043583 3.424608,-2.690743 6.485864,-2.696014 2.073182,-0.0036 2.575007,0.09105 3.878934,0.731385 1.725579,0.847397 3.211682,2.372688 4.020895,4.126923 0.802338,1.739329 0.802338,5.469192 0,7.208521 -1.364084,2.957097 -3.958516,4.693343 -7.278778,4.871106 -1.069184,0.05724 -2.39432,-0.0096 -2.944754,-0.148402 z m 3.976163,-3.839139 c 1.312032,-0.548201 1.902077,-1.112319 2.480138,-2.371159 1.643029,-3.578008 -1.150204,-7.459266 -4.957352,-6.888348 -2.206813,0.330933 -3.805455,2.335477 -3.805455,4.771681 0,3.513614 3.179168,5.784552 6.282669,4.487826 z m 64.493375,3.864967 c -1.127446,-0.272716 -2.609525,-1.012634 -3.280556,-1.637794 l -0.573889,-0.53466 1.091964,-1.304232 c 0.600581,-0.717327 1.110642,-1.303734 1.133473,-1.303123 0.02283,5.29e-4 0.627234,0.298265 1.34312,0.661458 2.354739,1.194637 5.4452627,0.753378 5.4452627,-0.777464 0,-0.891583 -0.4883044,-1.175073 -2.7789397,-1.613345 -2.328839,-0.445579 -4.017606,-1.127583 -4.701352,-1.898621 -0.748962,-0.844584 -1.149991,-3.250351 -0.75923,-4.554596 0.909555,-3.035829 4.51671,-4.621559 8.4493998,-3.714419 1.3273035,0.306165 3.2347007,1.438823 3.2184235,1.911175 -0.00619,0.180078 -0.4773083,0.858243 -1.0468981,1.507038 L -5.99026,49.224983 -7.0299085,48.64067 c -1.8813383,-1.057371 -4.8040555,-0.6026 -4.8040555,0.747506 0,0.731498 0.931997,1.239059 3.1205779,1.69944 3.499792,0.736205 4.8695188,1.856742 5.2330642,4.281032 0.091699,0.6115 0.080796,1.62741 -0.024236,2.257576 -0.2401914,1.441143 -1.6685949,2.884331 -3.4583715,3.49417 -1.2906375,0.439763 -4.0893996,0.532616 -5.5324956,0.183546 z m -89.619508,-0.516921 c -1.99395,-0.802484 -3.26882,-1.985735 -4.21897,-3.915749 -0.75503,-1.533697 -0.8559,-1.995673 -0.8559,-3.920123 0,-1.925867 0.10063,-2.385941 0.85861,-3.92562 1.44611,-2.937462 3.96586,-4.428823 7.501658,-4.439999 4.816353,-0.01521 7.814072,2.847999 8.096896,7.733617 l 0.120827,2.087211 h -5.863133 c -5.096538,0 -5.884078,0.05459 -6.023358,0.417534 -0.18289,0.476601 0.54542,1.555657 1.56254,2.315043 0.963074,0.719039 2.964547,0.860287 4.435127,0.312994 2.06256,-0.767607 2.169184,-0.75583 3.370316,0.372218 0.716431,0.672841 1.065448,1.19882 0.966528,1.456595 -0.08515,0.221909 -0.827889,0.732968 -1.650521,1.135685 -1.299895,0.636362 -1.859386,0.741441 -4.273823,0.802677 -2.231907,0.0566 -3.023627,-0.02835 -4.026797,-0.432083 z m 6.518699,-9.451679 c 0.49566,-0.190201 0.535868,-1.118349 0.07469,-1.724139 -0.619117,-0.813258 -2.156598,-1.552866 -3.228052,-1.552866 -1.071454,0 -2.608937,0.739608 -3.228047,1.552866 -0.42639,0.560091 -0.43389,1.539714 -0.0131,1.70951 0.47757,0.192701 5.898135,0.205105 6.394504,0.01463 z m 29.258099,1.906706 c 0,-4.435681 0.104098,-8.129214 0.231328,-8.207846 0.12723,-0.07863 1.086247,-0.222424 2.13115,-0.319537 1.793878,-0.166725 1.908111,-0.144867 2.048489,0.391935 0.08177,0.312679 0.179178,0.568508 0.216466,0.568508 0.03729,0 0.648483,-0.258816 1.358204,-0.575146 2.222196,-0.990457 5.050301,-0.734097 7.043899,0.638508 0.726065,0.499901 0.727234,0.499735 2.454233,-0.350467 1.525453,-0.750977 1.985447,-0.850604 3.927367,-0.850604 1.884148,0 2.385853,0.101465 3.498889,0.70761 0.714643,0.389186 1.579944,1.117563 1.922894,1.618615 1.213088,1.772338 1.336908,2.567742 1.349219,8.667213 l 0.01161,5.754688 h -2.248959 -2.248958 v -5.035582 c 0,-5.501 -0.166119,-6.338565 -1.458828,-7.355412 -0.488151,-0.383979 -1.100812,-0.57359 -1.853359,-0.57359 -0.975902,0 -1.250338,0.139671 -2.080985,1.059095 l -0.956828,1.059096 v 5.433896 5.433896 l -2.182813,-0.07684 -2.182812,-0.07685 -0.132292,-5.423958 c -0.112239,-4.601745 -0.203044,-5.528075 -0.599022,-6.110783 -0.592317,-0.871633 -1.525916,-1.297551 -2.844192,-1.297551 -0.833175,0 -1.219808,0.182742 -1.966568,0.929503 l -0.929503,0.929505 -0.0715,5.48664 -0.0715,5.486644 -2.182812,0.07685 -2.182813,0.07684 z m 34.99765,7.605832 c -1.598525,-0.566026 -3.585006,-2.454622 -4.332097,-4.118631 -0.509879,-1.135661 -0.627144,-1.842106 -0.627144,-3.7781 0,-3.000089 0.659542,-4.64022 2.549149,-6.339138 1.562264,-1.40461 3.399465,-2.068645 5.763133,-2.083012 4.789456,-0.02912 7.881295,2.92145 8.163139,7.790148 l 0.120828,2.087211 h -5.863133 c -6.473899,0 -6.590707,0.0325 -5.676918,1.579422 0.728382,1.233051 2.457757,1.965883 4.11911,1.745496 0.739367,-0.09808 1.811369,-0.416608 2.382226,-0.707837 l 1.037926,-0.529511 1.106504,0.987489 c 0.608576,0.543115 1.195795,1.134396 1.30493,1.313952 0.298257,0.49071 -1.203045,1.620666 -2.772537,2.086756 -1.742072,0.51734 -5.770936,0.498374 -7.275116,-0.03424 z m 6.871917,-10.410272 c -0.09015,-0.891437 -1.410933,-2.047296 -2.592763,-2.269009 -1.953313,-0.366442 -4.351803,0.954635 -4.351803,2.396953 v 0.681165 l 3.505729,-0.07382 3.505729,-0.07383 z M 3.1149946,60.96629 C 1.9865943,60.571854 0.66367233,59.52748 0.22990911,58.688672 -0.75588079,56.782364 -0.43420565,54.012026 0.98969986,52.14519 2.4047392,50.289979 5.0878973,49.61922 8.2119281,50.339718 c 1.0570633,0.24379 2.0019649,0.363225 2.0997809,0.265409 0.387863,-0.387861 -0.3617779,-1.642049 -1.2464256,-2.08534 -1.1325992,-0.567534 -2.580603,-0.588555 -4.5846921,-0.06656 -0.8380387,0.218281 -1.6354664,0.396875 -1.7720628,0.396875 -0.3730519,0 -1.6347097,-2.11618 -1.4886253,-2.496871 0.194318,-0.506386 2.9858706,-1.440569 5.2048623,-1.741789 4.1572495,-0.564332 7.0209465,0.74377 8.0570335,3.680362 0.319966,0.906878 0.407154,2.421668 0.407154,7.073856 v 5.919859 h -2.084395 c -1.80299,0 -2.133402,-0.07287 -2.447396,-0.539742 L 9.9941615,60.206036 8.8824643,60.745781 C 7.6437565,61.347186 4.543742,61.465712 3.1149946,60.96629 Z m 6.1987855,-3.507439 c 0.8730539,-0.451474 1.0772559,-0.875969 1.0772559,-2.239378 0,-1.583967 -0.6755152,-2.003742 -3.224482,-2.003742 -2.04928,0 -2.1330179,0.02511 -2.8826381,0.864071 -1.7314731,1.937853 -0.3562006,3.731887 2.8791139,3.755781 0.7712101,0.0057 1.739048,-0.163835 2.1507503,-0.376732 z"
         id="path3605" />
      <path
         style="fill:#c42a0f;stroke-width:0.264583"
         d="m -122.2245,68.037904 c -1.29868,-0.357479 -3.65018,-1.608215 -3.63777,-1.934888 0.004,-0.103007 0.34566,-0.595545 0.75943,-1.094528 l 0.75232,-0.90724 1.42338,0.625205 c 1.92159,0.844042 4.97389,0.905833 6.29866,0.127513 1.11353,-0.654217 2.13618,-2.509123 2.13618,-3.87464 0,-1.18908 -0.22603,-1.248106 -1.88934,-0.493364 -0.83823,0.380357 -1.73172,0.524238 -3.27003,0.526582 -4.69194,0.0072 -6.98648,-2.387034 -7.21875,-7.53223 -0.12731,-2.820278 0.48784,-4.854382 1.96125,-6.485276 1.90039,-2.103506 6.01732,-2.881762 8.60859,-1.627354 1.46425,0.708834 1.80828,0.716986 1.80828,0.04284 0,-0.588618 0.55339,-0.660783 2.7541,-0.359142 l 1.24046,0.170023 -0.0791,8.891956 -0.079,8.891955 -0.71703,1.35939 c -0.91144,1.72798 -2.59544,3.173283 -4.28037,3.673655 -1.58872,0.471797 -4.85643,0.471572 -6.57126,-5.29e-4 z m 5.74693,-10.689278 c 0.43606,-0.251537 1.07084,-0.867619 1.41061,-1.369076 0.55186,-0.814472 0.60841,-1.15669 0.53007,-3.207885 -0.0699,-1.830462 -0.20063,-2.44756 -0.64452,-3.042709 -0.87802,-1.177194 -2.14956,-1.788893 -3.67283,-1.766874 -3.88614,0.05617 -5.93359,3.847883 -4.07494,7.546472 1.15008,2.288593 4.17725,3.151979 6.45161,1.840072 z m 104.590573,3.942781 c -1.357366,-0.243224 -3.952328,-1.533589 -4.115655,-2.046539 -0.05619,-0.176474 0.372123,-0.829326 0.951807,-1.450777 l 1.053973,-1.129916 1.053529,0.592116 c 2.678535,1.505421 6.3589056,0.688864 5.7363251,-1.272709 -0.2275126,-0.716833 -0.8160279,-0.979633 -2.9349811,-1.3106 -2.505858,-0.391398 -4.432384,-1.358363 -4.972021,-2.495558 -0.624832,-1.316736 -0.555095,-3.770665 0.139536,-4.91014 0.69115,-1.133764 1.095288,-1.47128 2.605167,-2.175717 2.255065,-1.052105 6.6510884,-0.46178 8.0469137,1.08059 0.3692048,0.407967 0.315542,0.552614 -0.5989321,1.614398 l -1.0044721,1.166281 -1.4056836,-0.604711 c -1.6383292,-0.704789 -3.2735019,-0.604279 -4.1991679,0.258109 -0.63714,0.593587 -0.629049,0.570373 -0.403534,1.15806 0.24122,0.62861 1.378278,1.133099 3.3133767,1.470083 1.9708045,0.343202 3.509272,1.12956 4.3026013,2.199193 0.4585944,0.618316 0.5540428,1.128109 0.5540428,2.95919 0,2.093698 -0.042513,2.257468 -0.79375,3.057703 -1.5051829,1.603351 -4.4820709,2.351098 -7.3290748,1.840944 z m -69.267802,-0.23799 c -4.217207,-1.385099 -6.580947,-5.324618 -5.804154,-9.673469 0.780325,-4.368609 4.268584,-6.986222 8.938168,-6.707256 3.129616,0.186965 5.48296,1.654945 6.870795,4.285888 0.633621,1.201166 0.71043,1.632722 0.710613,3.992567 1.72e-4,2.23972 -0.09142,2.817302 -0.596734,3.762958 -1.583682,2.963743 -3.861541,4.359724 -7.311924,4.481097 -1.179918,0.04151 -2.442962,-0.02231 -2.806764,-0.141785 z m 4.889781,-3.696676 c 0.43529,-0.254225 1.15027,-0.972786 1.588849,-1.596806 0.680315,-0.96797 0.797412,-1.376902 0.797412,-2.784755 0,-1.363001 -0.128466,-1.844302 -0.738193,-2.765664 -1.752687,-2.648487 -4.885931,-3.090505 -7.242194,-1.02168 -1.170757,1.027938 -1.676905,2.163836 -1.676905,3.763311 0,1.504839 0.493959,2.689932 1.525085,3.658945 1.598917,1.5026 3.932391,1.805821 5.745946,0.746649 z m 10.103276,3.752392 c -0.09701,-0.09701 -0.17639,-3.726151 -0.17639,-8.064749 V 45.15602 l 0.595313,-0.123418 c 0.327421,-0.06788 1.264306,-0.195826 2.081964,-0.284326 1.37292,-0.148598 1.498229,-0.116629 1.638014,0.417906 0.161838,0.618874 0.225139,0.615265 2.167001,-0.123531 1.988278,-0.756457 4.659614,-0.435173 6.439845,0.774523 l 0.906938,0.61628 1.485985,-0.842195 c 1.381816,-0.783156 1.662181,-0.842195 3.999524,-0.842195 2.190112,0 2.665349,0.08511 3.693327,0.661458 1.438923,0.806747 2.545686,2.502064 2.916795,4.467884 0.320379,1.697096 0.355087,10.597248 0.04324,11.088844 -0.15431,0.243261 -0.788694,0.320299 -2.178759,0.264583 l -1.961062,-0.0786 -0.132292,-5.436751 c -0.148368,-6.09741 -0.280337,-6.568308 -2.047727,-7.306771 -1.332079,-0.556577 -2.500588,-0.270279 -3.488312,0.854676 l -0.813961,0.92705 v 5.12853 c 0,2.820691 -0.07227,5.31686 -0.1606,5.547042 -0.126161,0.328774 -0.574992,0.418516 -2.09315,0.418516 h -1.932549 l -0.08966,-5.405091 c -0.10082,-6.077644 -0.198083,-6.408997 -2.168764,-7.388342 -1.395531,-0.69352 -2.528776,-0.420574 -3.717702,0.895427 l -0.950071,1.051613 v 5.423196 5.423197 h -1.940277 c -1.067155,0 -2.019655,-0.07937 -2.116667,-0.17639 z m 35.321275,-0.282014 c -1.875652,-0.552339 -3.992671,-2.473849 -4.80904,-4.364922 -0.463601,-1.073904 -0.602359,-1.894501 -0.603724,-3.570359 -0.0016,-1.920877 0.09872,-2.380117 0.855488,-3.917323 0.618519,-1.256392 1.200632,-1.994754 2.090208,-2.651257 4.145601,-3.05944 10.414456,-1.867614 12.465842,2.369984 0.639405,1.320837 1.174348,4.203915 0.947626,5.107247 l -0.152061,0.605867 h -5.815793 -5.815793 v 0.641157 c 0,0.814027 1.07384,2.101889 2.110695,2.531369 1.02939,0.426389 3.573711,0.243409 4.742976,-0.341098 0.4953,-0.247597 1.036683,-0.450178 1.203074,-0.450178 0.392776,0 2.262005,1.913107 2.262005,2.315107 0,0.481438 -2.1018,1.570585 -3.651044,1.891961 -1.907908,0.395777 -4.134795,0.33178 -5.830459,-0.167555 z m 6.521291,-10.043137 c 0.303504,-2.132562 -3.635774,-3.578936 -5.791253,-2.126358 -1.060709,0.714812 -1.722387,1.787917 -1.484566,2.407663 0.150701,0.392724 0.591185,0.437251 3.682251,0.372224 3.38518,-0.07122 3.514029,-0.09465 3.593568,-0.653529 z M 3.4335106,60.922247 c -2.2263312,-0.622596 -3.62729467,-2.447645 -3.62433133,-4.721455 0.003598,-2.756273 1.46749823,-4.942602 3.76659253,-5.625359 1.6817446,-0.499425 3.7056881,-0.498595 5.095473,0.0021 1.3517452,0.486982 1.6270872,0.483296 1.8219022,-0.02439 C 10.724538,49.950164 10.010063,48.738002 9.2078039,48.372469 8.2712027,47.945723 5.211299,47.99262 3.9170843,48.453556 2.7294411,48.876538 2.4326951,48.730366 1.596445,47.310445 1.0413545,46.367922 1.1434016,46.258687 3.379578,45.401699 4.6713003,44.90666 5.5129478,44.789188 7.8968649,44.771194 c 2.8135101,-0.02125 2.9809491,0.0095 4.2188471,0.773999 0.91594,0.565679 1.484707,1.176014 1.965003,2.108612 0.667313,1.295736 0.675947,1.390325 0.675947,7.405971 v 6.093473 l -2.050521,0.07728 c -1.721581,0.06488 -2.050521,0.0105 -2.050521,-0.339032 0,-0.66303 -0.7175529,-0.761362 -1.7880809,-0.245033 -1.256448,0.605999 -3.7929424,0.73474 -5.4340285,0.275807 z m 5.4762375,-3.180652 c 1.8039499,-0.753737 2.3435049,-2.806639 1.0521924,-4.003386 -1.981671,-1.836552 -6.5382644,-0.660702 -6.5382644,1.687229 0,2.028603 3.071114,3.325191 5.486072,2.316157 z M -101.87221,60.638897 c -4.23447,-1.510403 -6.21381,-6.280148 -4.556,-10.97888 0.62898,-1.78271 1.8371,-3.08269 3.73163,-4.015365 1.50423,-0.740529 1.976,-0.842671 3.892096,-0.842671 4.726337,0 7.524716,2.61343 7.805124,7.289271 l 0.122967,2.05052 h -5.690139 c -6.475968,0 -6.660288,0.05331 -5.878738,1.700303 0.98003,2.065266 4.04141,2.764174 6.776302,1.547019 l 1.22854,-0.546756 1.094425,1.115136 c 1.06865,1.088875 1.082477,1.125953 0.587087,1.574274 -0.279035,0.252523 -1.117288,0.690898 -1.862781,0.974164 -1.629537,0.619173 -5.679223,0.693452 -7.250513,0.132985 z m 6.872625,-9.563881 c 0.30036,-0.782722 -0.603692,-2.127552 -1.828967,-2.720697 -1.364205,-0.6604 -2.256552,-0.705837 -3.517238,-0.179089 -1.61319,0.674032 -2.77069,2.437498 -2.06387,3.144319 0.097,0.09701 1.76763,0.17639 3.71247,0.17639 2.9889,0 3.561077,-0.06513 3.697605,-0.420923 z"
         id="path3603" />
      <path
         style="fill:#821d0a;stroke-width:0.264583"
         d="m -66.151254,61.119624 c -0.102783,-0.102783 -0.186878,-3.682326 -0.186878,-7.95454 v -7.767659 l 0.595313,-0.221916 c 0.327421,-0.122052 1.229643,-0.281112 2.004938,-0.353462 1.295823,-0.120928 1.428798,-0.08112 1.647097,0.493045 0.289404,0.761191 0.240644,0.760315 1.631485,0.02929 2.079834,-1.093169 5.676569,-0.721411 7.374125,0.762187 0.364477,0.318538 0.64406,0.252431 2.093162,-0.494927 1.530522,-0.789352 1.878388,-0.862573 4.097999,-0.862573 2.236073,0 2.526289,0.06231 3.715972,0.797835 0.942038,0.582417 1.491395,1.182455 2.034638,2.222341 l 0.74417,1.424507 -0.07101,5.979742 -0.07101,5.979742 -1.91823,0.07774 -1.918229,0.07774 -0.01931,-4.31107 c -0.02574,-5.744583 -0.205502,-6.906961 -1.225987,-7.927446 -0.587198,-0.587198 -1.133573,-0.843807 -2.006034,-0.942144 -1.116192,-0.125812 -1.278377,-0.06118 -2.347291,0.935437 l -1.148249,1.070586 -0.132292,5.509583 -0.132291,5.50958 h -1.852084 -1.852083 l -0.132292,-5.291667 c -0.115977,-4.63908 -0.196117,-5.397185 -0.649832,-6.147287 -0.940152,-1.554295 -3.036668,-2.102215 -4.457968,-1.165082 -1.564068,1.031272 -1.627685,1.289135 -1.771366,7.180078 l -0.132292,5.423958 -1.863643,0.07664 c -1.025004,0.04215 -1.947738,-0.0075 -2.050521,-0.110244 z m 35.990785,-0.121981 c -2.499352,-0.588841 -4.8127,-2.627355 -5.598417,-4.933305 -0.590532,-1.733116 -0.539414,-4.749853 0.109892,-6.485276 0.639665,-1.709661 2.272112,-3.384712 4.103571,-4.210669 1.029401,-0.464243 1.821895,-0.598972 3.571875,-0.607238 3.502671,-0.01654 5.644867,1.179651 7.085756,3.956659 0.564738,1.088411 0.689343,1.698128 0.702935,3.439583 l 0.01651,2.116667 -5.820834,0.132292 -5.820833,0.132292 0.07332,0.661458 c 0.04032,0.363802 0.484788,1.074171 0.987695,1.578597 0.834903,0.83743 1.072685,0.926084 2.735916,1.020066 1.432735,0.08096 2.088441,-0.01513 3.071945,-0.450186 0.848522,-0.37534 1.391264,-0.476657 1.688679,-0.315229 0.822505,0.446426 1.962621,1.838293 1.816884,2.218073 -0.07994,0.208312 -0.66511,0.630365 -1.300385,0.937895 -2.074281,1.004144 -5.165064,1.340641 -7.424518,0.808321 z m 5.807289,-9.929538 c 0.09029,-0.23531 0.05522,-0.737642 -0.07794,-1.116295 -0.883084,-2.511034 -5.946114,-2.544239 -6.981008,-0.04578 -0.614415,1.483331 -0.383908,1.589913 3.438583,1.589913 2.939251,0 3.480748,-0.06399 3.620368,-0.427834 z m 11.101719,9.805906 c -1.172046,-0.429747 -2.816178,-1.39959 -2.815122,-1.660589 2.64e-4,-0.09727 0.448209,-0.695785 0.995145,-1.330026 l 0.994426,-1.15317 1.18767,0.624004 c 1.567312,0.823465 4.4119034,0.888336 5.2609328,0.119972 0.7437094,-0.673047 0.7112291,-1.63164 -0.072686,-2.145281 -0.3462973,-0.226904 -1.3880942,-0.533554 -2.3151048,-0.681445 -2.137823,-0.341059 -4.28752,-1.313926 -4.87099,-2.204413 -0.537329,-0.820071 -0.785929,-2.658166 -0.538146,-3.978961 0.244528,-1.303435 1.469744,-2.607878 3.113781,-3.315123 1.890021,-0.813065 5.0907923,-0.681535 6.8354866,0.280895 0.6472661,0.357053 1.2052247,0.826185 1.2399116,1.042522 0.034687,0.216334 -0.3424423,0.865169 -0.8380651,1.441855 l -0.9011365,1.048517 -1.1723449,-0.585496 c -1.3540555,-0.676249 -2.4807017,-0.740291 -3.7432227,-0.212778 -0.978958,0.409035 -1.425183,1.295288 -0.944057,1.875009 0.375632,0.452607 2.0072701,1.040053 4.0194899,1.447152 2.9293238,0.59264 4.1824725,2.069833 4.1832028,4.931095 5.291e-4,2.089034 -0.6727534,3.150137 -2.6269951,4.140168 -1.248246,0.632368 -1.7330447,0.725165 -3.7038916,0.708962 -1.248664,-0.01027 -2.726288,-0.186806 -3.288284,-0.392869 z m 16.9399321,0.03214 C 1.9955796,60.451138 1.1278838,59.782501 0.38381195,58.359617 -0.58325603,56.510296 -0.14860646,53.650679 1.3609632,51.930806 2.6847821,50.422559 5.7295596,49.835351 8.4325033,50.567003 10.429089,51.107454 10.863752,50.929712 10.465707,49.735579 10.073954,48.560321 8.8314526,47.993769 6.7163655,48.025963 5.7225904,48.041097 4.4170092,48.227229 3.8150716,48.439605 L 2.7206411,48.825743 2.0579233,47.850465 C 1.6934254,47.314059 1.3952029,46.738892 1.3952029,46.57231 c 0,-0.497927 2.5200584,-1.427935 4.7499986,-1.752951 3.9100205,-0.569892 6.6011105,0.402515 7.8206015,2.825924 0.64542,1.282597 0.658567,1.431806 0.658567,7.474479 v 6.165761 h -1.842775 c -1.60114,0 -1.881759,-0.07285 -2.140085,-0.555535 -0.322729,-0.603023 -0.646396,-0.58677 -2.4994319,0.125505 -1.2829091,0.493125 -2.7454729,0.509762 -4.453607,0.05065 z M 8.9080389,57.856504 C 10.708579,57.17194 11.293297,55.01998 10.023723,53.750406 8.4014438,52.128129 4.6891888,52.686196 3.5308773,54.726483 c -1.1572346,2.038385 2.558894,4.201525 5.3771616,3.130021 z"
         id="path3601" />
    </g>
  </g>
</svg>
