<svg width="60" height="60" viewBox="0 0 60 60" fill="none" xmlns="http://www.w3.org/2000/svg">
<path d="M59.8473 40.6162C59.3895 41.0746 57.6141 39.5056 57.0106 38.5963C57.1195 39.7044 56.7173 41.9151 56.1702 41.8938C55.1352 41.8538 54.4686 38.8665 54.8569 36.8616C48.3701 33.1394 41.7744 36.3913 41.7744 36.3913L41.8019 36.3994C42.6149 36.5026 44.5247 36.7121 44.4728 37.5626C44.4384 38.1254 41.9714 39.8139 34.2313 39.1823C31.7981 41.2384 21.9743 45.6528 13.2818 44.2039C6.97384 42.7274 3.59565 39.8051 1.83276 36.7721C3.44431 37.9034 10.2013 41.7125 23.4702 37.5107C38.7783 32.6591 43.6692 29.9957 56.3534 33.3026C56.3571 33.3145 56.3609 33.3226 56.3653 33.3345C56.6776 34.0426 56.9119 34.7826 57.0638 35.5414V35.5458C59.1719 36.8828 60.4595 40.0065 59.8473 40.6162Z" fill="#B7E3FF"/>
<path d="M53.5704 28.5799C54.7013 30.0252 55.6358 31.6139 56.3495 33.3045C43.6654 29.9976 38.7769 32.661 23.4663 37.5126C10.1987 41.7168 3.4417 37.9053 1.8289 36.774C1.82514 36.7665 1.81702 36.7546 1.81326 36.7465C1.80951 36.7384 1.80513 36.7346 1.80513 36.7346C0.133356 33.6909 -0.400035 30.1514 0.300521 26.7501C0.57818 26.46 0.907744 26.1467 1.27733 25.8209C2.73004 27.1341 9.83599 32.6298 23.6714 29.164C23.6727 29.164 45.3607 23.6696 53.5704 28.5799Z" fill="#52AAFF"/>
<path d="M46.3294 22.2482C49.1186 23.8862 51.575 26.0341 53.5704 28.58C45.3607 23.6696 23.6726 29.164 23.6726 29.164C9.83722 32.6298 2.73127 27.136 1.27856 25.8228C4.92081 22.744 9.14507 20.4293 13.7001 19.0164H13.7082C17.0552 20.5238 20.7675 21.0286 24.3956 20.4697C30.8586 19.5523 38.473 19.4097 46.3294 22.2482Z" fill="#0175F2"/>
<path d="M43.2845 20.6404C44.3276 21.1213 45.344 21.658 46.3294 22.2482C38.473 19.4097 30.8586 19.5523 24.3955 20.4697C20.7654 21.0278 17.0514 20.523 13.7019 19.0163C21.6451 16.5025 30.1551 16.3989 38.1572 18.7187C39.9107 19.2337 41.6244 19.8759 43.2845 20.6404Z" fill="#015BCB"/>
<path d="M23.7401 9.56341C23.7383 9.87035 23.6467 10.1701 23.4767 10.4256C23.3067 10.6812 23.0657 10.8814 22.7833 11.0017V11.0061C21.4721 11.6545 20.4104 12.7157 19.7615 14.0266C19.5653 13.1186 19.5607 12.1796 19.7479 11.2697C19.9352 10.3599 20.3102 9.49903 20.849 8.74231C20.9047 8.65914 20.9641 8.58347 21.0279 8.50405C21.1727 8.34462 21.3495 8.21738 21.5466 8.13056C21.7437 8.04373 21.9569 7.99926 22.1723 8.00001C22.378 7.99943 22.5817 8.03945 22.7719 8.11776C22.9621 8.19607 23.135 8.31113 23.2806 8.45637C23.4262 8.6016 23.5418 8.77414 23.6206 8.96411C23.6995 9.15407 23.7401 9.35773 23.7401 9.56341Z" fill="#015BCB"/>
<path d="M18.3408 15.6106C18.3408 15.8564 18.3252 16.0984 18.3014 16.3367C17.5389 15.5589 16.5948 14.9831 15.5542 14.6613C15.5303 14.6506 15.5047 14.644 15.4785 14.642C15.2192 14.5603 14.9839 14.4163 14.7933 14.2225C14.6027 14.0287 14.4626 13.7911 14.3852 13.5305C14.3079 13.2699 14.2958 12.9943 14.3498 12.7279C14.4039 12.4615 14.5226 12.2124 14.6954 12.0026C14.8682 11.7928 15.0899 11.6286 15.3411 11.5245C15.5922 11.4204 15.865 11.3795 16.1356 11.4055C16.4062 11.4314 16.6662 11.5235 16.893 11.6734C17.1197 11.8234 17.3061 12.0267 17.4359 12.2656C18.0304 13.28 18.3428 14.4349 18.3408 15.6106Z" fill="#015BCB"/>
<path d="M24.8721 38.6388C25.6596 38.6388 26.2979 38.0004 26.2979 37.213C26.2979 36.4255 25.6596 35.7872 24.8721 35.7872C24.0847 35.7872 23.4463 36.4255 23.4463 37.213C23.4463 38.0004 24.0847 38.6388 24.8721 38.6388Z" fill="#0175F2"/>
</svg>
