<svg id="图层_1" data-name="图层 1" xmlns="http://www.w3.org/2000/svg" viewBox="0 0 142.481 96.479"><title>Databend LOGO</title><path d="M12.194,77.591a8.748,8.748,0,0,1,3.731,3.481,10.355,10.355,0,0,1,1.317,5.293,10.116,10.116,0,0,1-1.317,5.25,8.641,8.641,0,0,1-3.731,3.41,12.646,12.646,0,0,1-5.627,1.184H.831A.831.831,0,0,1,0,95.378V77.21a.831.831,0,0,1,.831-.831H6.567A12.4,12.4,0,0,1,12.194,77.591Zm-.217,14.081a7.183,7.183,0,0,0,1.88-5.307,7.425,7.425,0,0,0-1.88-5.392,7.189,7.189,0,0,0-5.41-1.941H4.129a.832.832,0,0,0-.831.832v12.86a.831.831,0,0,0,.831.832H6.567A7.315,7.315,0,0,0,11.977,91.672Z" style="fill:#001f5c"/><path d="M20.765,84.083a7.271,7.271,0,0,1,2.72-2.84,7.371,7.371,0,0,1,3.8-1.012,7.04,7.04,0,0,1,3.283.727,6.643,6.643,0,0,1,2.242,1.812V81.319a.833.833,0,0,1,.832-.832H35.31a.832.832,0,0,1,.831.832V95.378a.831.831,0,0,1-.831.831H33.646a.832.832,0,0,1-.832-.831V93.869a6.533,6.533,0,0,1-2.285,1.855,7.484,7.484,0,0,1-7.059-.3,7.426,7.426,0,0,1-2.7-2.91,8.857,8.857,0,0,1-1-4.237A8.605,8.605,0,0,1,20.765,84.083Zm11.369,1.426a4.693,4.693,0,0,0-4.151-2.454,4.788,4.788,0,0,0-2.372.614,4.645,4.645,0,0,0-1.779,1.8,5.54,5.54,0,0,0-.68,2.81,5.78,5.78,0,0,0,.68,2.853A4.753,4.753,0,0,0,25.625,93a4.652,4.652,0,0,0,2.358.642,4.665,4.665,0,0,0,4.151-2.468,5.712,5.712,0,0,0,.68-2.839A5.634,5.634,0,0,0,32.134,85.509Z" style="fill:#001f5c"/><path d="M44.287,83.141v8.7a1.653,1.653,0,0,0,.42,1.269,2.1,2.1,0,0,0,1.432.386h1.194a.831.831,0,0,1,.831.831v1.048a.831.831,0,0,1-.831.831H45.56a5.066,5.066,0,0,1-3.414-1.027,4.2,4.2,0,0,1-1.185-3.338v-8.7h-1.05a.831.831,0,0,1-.831-.832v-.99a.832.832,0,0,1,.831-.832h1.05V77.41a.832.832,0,0,1,.831-.832h1.664a.832.832,0,0,1,.831.832v3.077h3.046a.832.832,0,0,1,.831.832v.99a.831.831,0,0,1-.831.832Z" style="fill:#001f5c"/><path d="M50.787,84.083a7.271,7.271,0,0,1,2.72-2.84,7.371,7.371,0,0,1,3.8-1.012,7.038,7.038,0,0,1,3.283.727,6.633,6.633,0,0,1,2.242,1.812V81.319a.833.833,0,0,1,.832-.832h1.664a.832.832,0,0,1,.831.832V95.378a.831.831,0,0,1-.831.831H63.668a.832.832,0,0,1-.832-.831V93.869a6.533,6.533,0,0,1-2.285,1.855,7.484,7.484,0,0,1-7.059-.3,7.426,7.426,0,0,1-2.7-2.91,8.857,8.857,0,0,1-1-4.237A8.605,8.605,0,0,1,50.787,84.083Zm11.369,1.426a4.693,4.693,0,0,0-4.151-2.454,4.791,4.791,0,0,0-2.372.614,4.652,4.652,0,0,0-1.779,1.8,5.54,5.54,0,0,0-.68,2.81,5.78,5.78,0,0,0,.68,2.853A4.76,4.76,0,0,0,55.647,93a4.652,4.652,0,0,0,2.358.642,4.665,4.665,0,0,0,4.151-2.468,5.712,5.712,0,0,0,.68-2.839A5.634,5.634,0,0,0,62.156,85.509Z" style="fill:#001f5c"/><path d="M76.083,80.958a7.2,7.2,0,0,1,3.255-.727,7.428,7.428,0,0,1,3.818,1,7.082,7.082,0,0,1,2.691,2.839,8.8,8.8,0,0,1,.983,4.209,8.966,8.966,0,0,1-.983,4.237,7.3,7.3,0,0,1-2.7,2.91,7.662,7.662,0,0,1-7.088.328,6.29,6.29,0,0,1-2.271-1.825v1.451a.831.831,0,0,1-.831.831H71.316a.831.831,0,0,1-.831-.831V75.926a.831.831,0,0,1,.831-.831h1.636a.831.831,0,0,1,.831.831v6.9A6.233,6.233,0,0,1,76.083,80.958Zm6.711,4.509A4.625,4.625,0,0,0,81,83.669a4.872,4.872,0,0,0-2.387-.614,4.735,4.735,0,0,0-4.151,2.454,5.624,5.624,0,0,0-.68,2.825,5.7,5.7,0,0,0,.68,2.839,4.682,4.682,0,0,0,1.793,1.841,4.729,4.729,0,0,0,6.538-1.884,5.791,5.791,0,0,0,.68-2.853A5.551,5.551,0,0,0,82.794,85.467Z" style="fill:#001f5c"/><path d="M97.424,93.74a4.639,4.639,0,0,1-4.093-2.852A.277.277,0,0,1,93.5,90.5l10.96-3.187a.829.829,0,0,0,.583-.979c-.058-.255-.13-.521-.214-.8a8.074,8.074,0,0,0-2.156-3.587,7.153,7.153,0,0,0-3.506-1.824A9.381,9.381,0,0,0,91.135,82.5a6.908,6.908,0,0,0-1.927,3.523,8.581,8.581,0,0,0,.272,4.373,9.311,9.311,0,0,0,1.1,2.36l.008,0a7.233,7.233,0,0,0,2.746,2.716,8.223,8.223,0,0,0,4.094,1.013,7.757,7.757,0,0,0,4.7-1.384,7.19,7.19,0,0,0,2.06-2.288.838.838,0,0,0-.715-1.264h-1.8a.861.861,0,0,0-.72.421A3.878,3.878,0,0,1,97.424,93.74Zm-4.4-8.862a4.38,4.38,0,0,1,2.562-1.862,4.94,4.94,0,0,1,3.422.137,3.618,3.618,0,0,1,1.66,1.385.841.841,0,0,1-.457,1.272l-6.769,1.969a.827.827,0,0,1-1.067-.8A4.1,4.1,0,0,1,93.029,84.878Z" style="fill:#001f5c"/><path d="M119.751,81a5.532,5.532,0,0,1,2.329,2.282,7.432,7.432,0,0,1,.839,3.653v8.442a.831.831,0,0,1-.831.831h-1.607a.831.831,0,0,1-.831-.831V87.421a4.529,4.529,0,0,0-1.07-3.239,3.84,3.84,0,0,0-2.922-1.127,3.888,3.888,0,0,0-2.937,1.127,4.49,4.49,0,0,0-1.084,3.239v7.957a.832.832,0,0,1-.832.831H109.17a.832.832,0,0,1-.832-.831V81.319a.833.833,0,0,1,.832-.832h1.635a.833.833,0,0,1,.832.832v.966a5.447,5.447,0,0,1,2.068-1.512,6.7,6.7,0,0,1,2.676-.542A7.224,7.224,0,0,1,119.751,81Z" style="fill:#001f5c"/><path d="M127.105,84.083a7.262,7.262,0,0,1,2.719-2.84,7.426,7.426,0,0,1,3.833-1.012,7.562,7.562,0,0,1,3.081.67,6.3,6.3,0,0,1,2.416,1.784V75.926a.831.831,0,0,1,.831-.831h1.664a.832.832,0,0,1,.832.831V95.378a.832.832,0,0,1-.832.831h-1.664a.831.831,0,0,1-.831-.831V93.841a6.164,6.164,0,0,1-2.243,1.883,7.04,7.04,0,0,1-3.283.742,7.2,7.2,0,0,1-3.8-1.042,7.38,7.38,0,0,1-2.719-2.91,8.845,8.845,0,0,1-1-4.237A8.594,8.594,0,0,1,127.105,84.083Zm11.369,1.426a4.7,4.7,0,0,0-4.152-2.454,4.791,4.791,0,0,0-2.372.614,4.652,4.652,0,0,0-1.779,1.8,5.551,5.551,0,0,0-.68,2.81,5.791,5.791,0,0,0,.68,2.853A4.755,4.755,0,0,0,131.965,93a4.646,4.646,0,0,0,2.357.642,4.668,4.668,0,0,0,4.152-2.468,5.712,5.712,0,0,0,.68-2.839A5.634,5.634,0,0,0,138.474,85.509Z" style="fill:#001f5c"/><path d="M118.8,52.156c-.732.733-3.571-1.776-4.536-3.23.174,1.772-.469,5.307-1.344,5.273-1.655-.064-2.721-4.841-2.1-8.047C100.447,40.2,89.9,45.4,89.9,45.4l.044.013c1.3.165,4.354.5,4.271,1.86-.055.9-4,3.6-16.377,2.59-3.891,3.288-19.6,10.347-33.5,8.03-10.087-2.361-15.489-7.034-18.308-11.884,2.577,1.809,13.382,7.9,34.6,1.181,24.479-7.758,32.3-12.017,52.583-6.729.006.019.012.032.019.051a17.022,17.022,0,0,1,1.117,3.529v.007C117.72,46.186,119.779,51.181,118.8,52.156Z" style="fill:#b7e3ff"/><path d="M108.763,32.909a33.238,33.238,0,0,1,4.444,7.555c-20.283-5.288-28.1-1.029-52.583,6.729-21.216,6.723-32.021.628-34.6-1.181-.006-.012-.019-.031-.025-.044s-.013-.019-.013-.019a23.371,23.371,0,0,1-2.406-15.966c.444-.464.971-.965,1.562-1.486,2.323,2.1,13.686,10.888,35.81,5.346C60.954,33.843,95.635,25.057,108.763,32.909Z" style="fill:#52aaff"/><path d="M97.184,22.784a41.256,41.256,0,0,1,11.579,10.125c-13.128-7.852-47.809.934-47.809.934C38.83,39.385,27.467,30.6,25.144,28.5A56.869,56.869,0,0,1,45.007,17.616h.013A30.361,30.361,0,0,0,62.11,19.94C72.445,18.473,84.621,18.245,97.184,22.784Z" style="fill:#0175f2"/><path d="M92.315,20.213a51.143,51.143,0,0,1,4.869,2.571C84.621,18.245,72.445,18.473,62.11,19.94a30.416,30.416,0,0,1-17.1-2.324,67.405,67.405,0,0,1,39.106-.476A60.067,60.067,0,0,1,92.315,20.213Z" style="fill:#015bcb"/><path d="M61.062,2.5a2.516,2.516,0,0,1-1.53,2.3v.007A10.668,10.668,0,0,0,54.7,9.637a10.679,10.679,0,0,1,1.739-8.45c.089-.133.184-.254.286-.381A2.461,2.461,0,0,1,58.555,0,2.5,2.5,0,0,1,61.062,2.5Z" style="fill:#015bcb"/><path d="M52.428,12.17c0,.393-.025.78-.063,1.161a10.494,10.494,0,0,0-4.393-2.679.365.365,0,0,0-.121-.031,2.655,2.655,0,1,1,3.13-3.8A10.542,10.542,0,0,1,52.428,12.17Z" style="fill:#015bcb"/><circle cx="62.872" cy="46.714" r="2.28" style="fill:#0175f2"/></svg>