<svg width="60" height="60" viewBox="0 0 60 60" fill="none" xmlns="http://www.w3.org/2000/svg">
<path d="M43 27.5C43 20.6 37.4 15 30.5 15C24.8 15 20 18.7 18.4 23.9C14.2 24.7 11 28.4 11 32.8C11 37.6 14.9 41.5 19.7 41.5H42.4C46.6 41.5 50 38.1 50 33.9C50 30 47.1 26.7 43.3 26.1C43.1 26.6 43 27 43 27.5Z" fill="#4285F4"/>
<rect x="22" y="41" width="16" height="11" rx="1" fill="#4285F4"/>
<rect x="25" y="52" width="3" height="4" fill="#4285F4"/>
<rect x="32" y="52" width="3" height="4" fill="#4285F4"/>
<rect x="21" y="55" width="18" height="2" rx="1" fill="#4285F4"/>
</svg>
