<svg width="60" height="60" viewBox="0 0 60 60" fill="none" xmlns="http://www.w3.org/2000/svg">
<path d="M50.8456 30.8737C50.6662 34.233 49.6582 37.5832 47.9417 40.4786C45.0669 45.3294 40.2504 49.1179 34.1283 50.2668C31.0719 50.8154 28.849 50.7459 26.3525 50.3629C24.5516 49.9619 23.4178 48.499 24.627 46.7602C26.1087 44.6287 28.2088 43.2281 30.305 41.8273C36.4193 37.7414 42.914 34.3262 49.4687 31.0168C50.2015 30.6473 50.897 29.9164 50.8456 30.8737Z" fill="#A13974"/>
<path d="M55.1956 23.0355C56.7354 21.8174 58.2229 20.2526 59.2765 18.5761L59.2784 18.5748L59.2802 18.5736C60.4398 16.7274 59.7813 15.0605 57.6568 14.5552C55.2143 13.9739 53.1434 14.208 50.6436 14.5552C50.0347 14.6398 49.8795 14.7709 49.6713 14.9024C49.2495 15.1687 49.203 15.9817 49.8103 16.0829C50.9215 16.1524 54.5619 15.9037 55.435 16.2913C57.9226 17.3956 51.1156 21.0725 50.2211 21.7843C49.6845 22.2106 49.4274 22.1594 49.1255 21.4882C46.7583 16.2253 42.9033 12.4935 37.5161 10.3746C34.1399 9.04717 30.6614 8.74328 27.0679 9.19745C25.1314 9.44209 23.6122 9.97396 21.833 10.6671C21.2463 10.8956 20.4702 11.285 19.9304 11.5952C18.6651 12.3208 17.5007 13.1347 16.4408 14.0415C15.5177 14.8312 16.0599 16.2451 17.2695 16.3586L39.5399 18.4494C40.5284 18.5422 41.0166 19.6966 40.3952 20.4704L27.974 36.3529C27.5222 36.9154 28.0991 37.8429 28.7689 37.5748C33.8221 35.5468 38.7348 33.0857 43.5988 30.64C47.6549 28.6004 51.6443 25.8444 55.1956 23.0355Z" fill="#FB5B62"/>
<path fill-rule="evenodd" clip-rule="evenodd" d="M32.0602 24.3932C32.8531 23.5438 32.1548 22.1675 31.001 22.3056L10.8277 24.7217C10.2175 24.7947 9.70973 25.2345 9.58658 25.8366C8.81077 29.6288 9.12026 33.4479 10.5799 37.2706C11.1266 38.7027 11.1608 38.7439 9.68524 38.9253C9.49284 38.949 9.30005 38.9751 9.10694 39.0013C7.99446 39.1521 6.87155 39.3043 5.75221 38.9866C3.04653 38.2158 7.208 35.6528 7.52221 34.5577C7.75422 33.749 6.65499 33.4461 5.96772 33.9314C3.76544 35.4867 1.66881 37.3016 0.36869 39.7016C0.0908636 40.2572 0.125228 40.9521 0.229756 41.3278C0.999572 44.0936 6.95965 43.5915 8.92324 43.2389C11.4962 42.7769 13.354 42.6092 15.8539 41.8454C16.5357 41.6369 16.5483 41.5678 17.5899 40.4945C22.8674 35.5957 27.697 28.9167 32.0602 24.3932Z" fill="#EFA16D"/>
</svg>
