<svg width="60" height="60" viewBox="0 0 60 60" fill="none" xmlns="http://www.w3.org/2000/svg">
<path d="M42.3226 14.9786C34.3799 7.00712 21.5003 7.00712 13.5576 14.9786L0.575557 28.0074C-0.191852 28.7785 -0.191852 30.0199 0.575557 30.7909L13.5576 43.8198C21.5003 51.7913 34.3799 51.7913 42.3226 43.8329C50.2781 35.8744 50.2781 22.9501 42.3226 14.9786ZM39.253 40.0039C33.4206 45.8584 23.956 45.8584 18.1236 40.0039L8.5694 30.425C8.00663 29.8631 8.00663 28.9483 8.5694 28.3734L18.1109 18.8076C23.9431 12.9531 33.4079 12.9531 39.2401 18.8076C45.0853 24.662 45.0853 34.1495 39.253 40.0039Z" fill="#4FC4F9"/>
<path d="M59.3332 28.0204L53.6161 22.179C53.2707 21.8261 52.6951 22.1528 52.8103 22.6363C53.7951 27.0925 53.7951 31.7448 52.8103 36.201C52.7079 36.6845 53.2834 36.998 53.6161 36.6583L59.3332 30.817C60.0878 30.0329 60.0878 28.7914 59.3332 28.0204Z" fill="#4FC4F9"/>
<path d="M28.7518 39.6511C34.2828 39.6511 38.7665 35.0699 38.7665 29.4188C38.7665 23.7677 34.2828 19.1865 28.7518 19.1865C23.2209 19.1865 18.7372 23.7677 18.7372 29.4188C18.7372 35.0699 23.2209 39.6511 28.7518 39.6511Z" fill="#4FC4F9"/>
</svg>
