<svg width="60" height="60" viewBox="0 0 60 60" fill="none" xmlns="http://www.w3.org/2000/svg">
<path fill-rule="evenodd" clip-rule="evenodd" d="M60 22.2069V23.7931H52.1053V22.2069H60ZM41.0526 22.2069V23.7931H33.1579V22.2069H41.0526ZM47.2123 22.2069L46.5771 23.7931L45.9504 22.2069H47.2123ZM29.5263 22.2069C28.3936 23.1919 26.8996 23.7931 25.2316 23.7931H12.6316V22.2069H29.5263ZM11.0526 22.2069V23.7931H0V22.2069H11.0526ZM41.0526 19.0345V20.6207H33.1579V19.0345H41.0526ZM48.4467 19.0345L47.8321 20.6207H45.3323L44.7131 19.0345H48.4467ZM31.1053 19.0345C30.9627 19.5984 30.7351 20.131 30.4421 20.6207H12.6316V19.0345H31.1053ZM11.0526 19.0345V20.6207H0V19.0345H11.0526ZM60 19.0345V20.6207H52.1053V19.0345H60ZM56.8421 15.8621V17.4483H52.1053V15.8621H56.8421ZM41.0526 15.8621V17.4483H36.3158V15.8621H41.0526ZM49.6855 15.8621L49.0651 17.4483H44.0932L43.4679 15.8621H49.6855ZM30.8842 15.8621C31.0261 16.3678 31.1053 16.899 31.1053 17.4483H25.2632V15.8621H30.8842ZM20.5263 15.8621V17.4483H15.7895V15.8621H20.5263ZM7.89474 15.8621V17.4483H3.15789V15.8621H7.89474ZM56.8421 12.6897V14.2759H52.1053V12.6897H56.8421ZM41.0526 12.6897V14.2759H36.3158V12.6897H41.0526ZM50.9227 12.6897L50.3053 14.2759H42.8368L42.2243 12.6897H50.9227ZM28.9421 12.6897C29.4867 13.1374 29.9556 13.674 30.3158 14.2759H15.7895V12.6897H28.9421ZM7.89474 12.6897V14.2759H3.15789V12.6897H7.89474ZM46.1366 9.51724L46.5789 10.7993L47.0209 9.51724H56.8421V11.1034H52.1053V9.64587L51.5684 11.1034H41.5737L41.0526 9.64572V11.1034H36.3158V9.51724H46.1366ZM7.89474 9.51724V11.1034H3.15789V9.51724H7.89474ZM30.3158 9.51724C29.9556 10.1191 29.4867 10.6556 28.9421 11.1034H15.7895V9.51724H30.3158ZM56.8421 6.34483V7.93103H47.5687L48.1277 6.34483H56.8421ZM45.0355 6.34483L45.5944 7.93103H36.3158V6.34483H45.0355ZM31.1053 6.34483C31.1053 6.89394 31.0261 7.42518 30.8842 7.93103H25.2632V6.34483H31.1053ZM20.5263 6.34483V7.93103H15.7895V6.34483H20.5263ZM7.89474 6.34483V7.93103H3.15789V6.34483H7.89474ZM43.9422 3.17241L44.4909 4.75862H33.158L33.1579 3.17241H43.9422ZM60 3.17241V4.75862H48.6611L49.2314 3.17241H60ZM30.4421 3.17241C30.7351 3.66212 30.9627 4.19465 31.1053 4.75862H12.6316V3.17241H30.4421ZM11.0526 3.17241V4.75862H0V3.17241H11.0526ZM42.8335 0L43.3927 1.58621H33.158L33.1579 0H42.8335ZM60 0V1.58621H49.7781L50.3241 0H60ZM25.2316 0C26.8875 0 28.3937 0.601172 29.5263 1.58621H12.6316V0H25.2316ZM11.0526 0V1.58621H0V0H11.0526Z" fill="#161616"/>
<rect y="28" width="60" height="32" fill="black"/>
<path d="M7.96802 35.248H14.064C15.152 35.248 16.136 35.424 17.016 35.776C17.912 36.128 18.672 36.656 19.296 37.36C19.936 38.048 20.424 38.92 20.76 39.976C21.112 41.016 21.288 42.232 21.288 43.624C21.288 45.016 21.112 46.24 20.76 47.296C20.424 48.336 19.936 49.208 19.296 49.912C18.672 50.6 17.912 51.12 17.016 51.472C16.136 51.824 15.152 52 14.064 52H7.96802V35.248ZM14.064 49.192C15.248 49.192 16.184 48.848 16.872 48.16C17.576 47.456 17.928 46.384 17.928 44.944V42.304C17.928 40.864 17.576 39.8 16.872 39.112C16.184 38.408 15.248 38.056 14.064 38.056H11.136V49.192H14.064Z" fill="white"/>
<path d="M24.3229 34.24H27.3949V41.536H27.4909C27.7149 40.816 28.1389 40.248 28.7629 39.832C29.3869 39.4 30.1149 39.184 30.9469 39.184C32.5469 39.184 33.7629 39.752 34.5949 40.888C35.4429 42.008 35.8669 43.616 35.8669 45.712C35.8669 47.824 35.4429 49.448 34.5949 50.584C33.7629 51.72 32.5469 52.288 30.9469 52.288C30.1149 52.288 29.3869 52.072 28.7629 51.64C28.1549 51.208 27.7309 50.632 27.4909 49.912H27.3949V52H24.3229V34.24ZM29.9629 49.744C30.7629 49.744 31.4109 49.48 31.9069 48.952C32.4029 48.424 32.6509 47.712 32.6509 46.816V44.656C32.6509 43.76 32.4029 43.048 31.9069 42.52C31.4109 41.976 30.7629 41.704 29.9629 41.704C29.2269 41.704 28.6109 41.888 28.1149 42.256C27.6349 42.624 27.3949 43.112 27.3949 43.72V47.704C27.3949 48.36 27.6349 48.864 28.1149 49.216C28.6109 49.568 29.2269 49.744 29.9629 49.744Z" fill="white"/>
<path d="M50.0415 52H38.4255V49.072L43.6815 44.464C44.5775 43.68 45.2335 42.976 45.6495 42.352C46.0655 41.712 46.2735 41.024 46.2735 40.288V39.976C46.2735 39.24 46.0335 38.68 45.5535 38.296C45.0735 37.896 44.4895 37.696 43.8015 37.696C42.9375 37.696 42.2815 37.944 41.8335 38.44C41.3855 38.92 41.0655 39.504 40.8735 40.192L38.1375 39.136C38.3135 38.576 38.5615 38.048 38.8815 37.552C39.2015 37.04 39.6015 36.592 40.0815 36.208C40.5775 35.824 41.1535 35.52 41.8095 35.296C42.4655 35.072 43.2175 34.96 44.0655 34.96C44.9455 34.96 45.7295 35.088 46.4175 35.344C47.1055 35.584 47.6815 35.928 48.1455 36.376C48.6255 36.824 48.9855 37.352 49.2255 37.96C49.4815 38.568 49.6095 39.232 49.6095 39.952C49.6095 40.656 49.4975 41.296 49.2735 41.872C49.0495 42.448 48.7455 43 48.3615 43.528C47.9775 44.04 47.5295 44.536 47.0175 45.016C46.5055 45.48 45.9615 45.952 45.3855 46.432L41.8575 49.336H50.0415V52Z" fill="white"/>
</svg>
