<svg width="60" height="60" viewBox="0 0 60 60" fill="none" xmlns="http://www.w3.org/2000/svg">
<path d="M37.9091 18.9273H39.7273L44.9091 13.7454L45.1636 11.5454C42.1951 8.92536 38.6077 7.10528 34.7403 6.25714C30.8728 5.40899 26.8529 5.56078 23.0604 6.69817C19.2679 7.83555 15.828 9.92098 13.0656 12.7575C10.3031 15.5939 8.3094 19.0878 7.27271 22.9091C7.84998 22.6725 8.48946 22.6341 9.09089 22.8L19.4545 21.0909C19.4545 21.0909 19.9818 20.2182 20.2545 20.2727C22.4751 17.8339 25.5439 16.3362 28.8327 16.086C32.1215 15.8359 35.3816 16.8523 37.9454 18.9273H37.9091Z" fill="#EA4335"/>
<path d="M52.2908 22.9091C51.0998 18.523 48.6543 14.5799 45.2545 11.5636L37.9818 18.8364C39.4975 20.0748 40.7122 21.6413 41.5342 23.4177C42.3562 25.1941 42.7642 27.1339 42.7272 29.0909V30.3818C43.5772 30.3818 44.4189 30.5492 45.2042 30.8745C45.9895 31.1998 46.7031 31.6766 47.3041 32.2776C47.9052 32.8787 48.3819 33.5922 48.7072 34.3775C49.0325 35.1628 49.1999 36.0045 49.1999 36.8545C49.1999 37.7045 49.0325 38.5462 48.7072 39.3315C48.3819 40.1168 47.9052 40.8304 47.3041 41.4314C46.7031 42.0325 45.9895 42.5093 45.2042 42.8346C44.4189 43.1598 43.5772 43.3273 42.7272 43.3273H29.7818L28.4908 44.6363V52.4L29.7818 53.6909H42.7272C46.3422 53.719 49.8702 52.5829 52.7894 50.4505C55.7086 48.3181 57.8639 45.3027 58.9365 41.8504C60.0091 38.3981 59.942 34.6923 58.7452 31.281C57.5483 27.8698 55.2853 24.9344 52.2908 22.9091Z" fill="#4285F4"/>
<path d="M16.8182 53.6182H29.7636V43.2546H16.8182C15.8959 43.2543 14.9844 43.0559 14.1454 42.6727L12.3273 43.2364L7.10909 48.4182L6.65454 50.2364C9.58078 52.446 13.1514 53.6341 16.8182 53.6182Z" fill="#34A853"/>
<path d="M16.8182 20C13.3106 20.021 9.89711 21.1369 7.05454 23.192C4.21196 25.2471 2.08223 28.1387 0.962799 31.463C-0.156627 34.7872 -0.209843 38.3781 0.810583 41.734C1.83101 45.09 3.87412 48.0434 6.65455 50.1818L14.1636 42.6727C13.2094 42.2416 12.374 41.5854 11.7291 40.7605C11.0842 39.9355 10.6491 38.9664 10.4611 37.9363C10.2731 36.9062 10.3378 35.8458 10.6497 34.8462C10.9616 33.8466 11.5113 32.9376 12.2517 32.1972C12.9921 31.4568 13.9011 30.907 14.9007 30.5951C15.9003 30.2833 16.9607 30.2186 17.9908 30.4066C19.0209 30.5946 19.99 31.0297 20.815 31.6746C21.6399 32.3195 22.2961 33.1549 22.7273 34.1091L30.2363 26.6C28.6603 24.5396 26.6289 22.8717 24.3011 21.7267C21.9734 20.5817 19.4123 19.9908 16.8182 20Z" fill="#FBBC05"/>
</svg>
