<?xml version="1.0" standalone="no"?>
<!DOCTYPE svg PUBLIC "-//W3C//DTD SVG 20010904//EN"
 "http://www.w3.org/TR/2001/REC-SVG-20010904/DTD/svg10.dtd">
<svg version="1.0" xmlns="http://www.w3.org/2000/svg"
 width="124.000000pt" height="123.000000pt" viewBox="0 0 124.000000 123.000000"
 preserveAspectRatio="xMidYMid meet">

<g transform="translate(0.000000,123.000000) scale(0.100000,-0.100000)"
fill="#000000" stroke="none">
<path d="M390 1174 c-36 -8 -74 -18 -85 -24 -11 -5 -47 -21 -79 -35 -33 -14
-75 -37 -93 -51 -30 -23 -32 -27 -18 -41 9 -9 23 -33 32 -54 8 -22 16 -39 18
-39 2 0 23 11 46 25 24 14 49 25 54 25 6 0 11 -18 12 -39 2 -37 0 -41 -43 -66
-42 -25 -45 -29 -39 -58 4 -26 2 -23 -13 13 -21 49 -58 120 -85 161 -9 14 -14
29 -10 33 4 4 0 4 -9 1 -46 -18 -40 -124 23 -388 17 -70 35 -125 40 -121 5 3
9 1 9 -4 0 -5 -9 -12 -20 -15 -11 -3 -18 -1 -15 3 3 5 -4 42 -15 82 -27 102
-57 250 -66 333 l-7 70 -11 -40 c-10 -33 -8 -62 11 -164 51 -282 89 -413 152
-516 30 -49 37 -56 39 -37 2 12 7 22 12 22 17 0 28 -33 23 -70 -4 -31 -2 -38
15 -42 11 -3 30 1 42 9 12 8 30 13 40 10 10 -3 28 1 39 9 10 8 26 12 35 9 9
-3 23 -7 32 -10 13 -4 14 -8 4 -20 -10 -12 -9 -15 8 -15 12 0 24 4 27 10 7 12
105 14 105 2 0 -4 -5 -13 -12 -20 -9 -9 -9 -12 3 -12 9 0 24 9 34 20 23 26
116 30 95 5 -7 -8 -19 -15 -26 -15 -8 0 -14 -7 -14 -14 0 -12 10 -12 57 5 31
10 62 19 70 19 8 0 38 18 68 40 30 22 57 40 61 40 3 0 3 -11 0 -25 -4 -14 -2
-25 3 -25 15 0 34 39 27 55 -7 20 34 70 45 54 4 -7 5 -18 3 -24 -3 -5 15 13
41 40 86 93 132 219 142 389 6 91 5 98 -12 95 -10 -2 -20 -10 -23 -18 -3 -8 0
-11 7 -7 14 9 14 -10 -1 -37 -7 -12 -12 -33 -11 -47 0 -22 0 -23 -4 -2 -6 29
-17 28 -31 -4 -7 -14 -8 -23 -2 -19 14 9 13 -1 -5 -35 -9 -17 -20 -30 -25 -30
-5 0 -16 -13 -25 -30 -14 -27 -14 -29 1 -23 15 5 15 3 0 -25 -9 -17 -22 -35
-30 -39 -7 -4 -19 -19 -26 -32 -11 -21 -10 -23 4 -18 15 6 15 4 1 -22 -8 -16
-21 -31 -29 -34 -17 -7 -51 -67 -37 -67 4 0 14 7 21 15 21 26 24 8 2 -19 -10
-14 -22 -22 -26 -19 -3 3 -6 -4 -6 -16 l0 -22 -40 23 c-22 13 -43 31 -46 41
-6 20 -44 44 -44 27 0 -18 -18 -11 -54 20 -19 17 -44 33 -55 35 -31 6 -60 24
-71 45 -6 11 -20 25 -32 31 -18 10 -20 9 -15 -5 6 -15 4 -15 -23 1 -17 9 -30
21 -30 24 0 4 -14 18 -32 30 -17 13 -28 18 -24 11 16 -27 -17 -9 -54 28 -35
36 -71 55 -55 30 9 -15 -8 -12 -31 5 -10 8 -29 15 -42 15 -22 0 -22 1 -6 24
15 24 15 25 -12 23 -25 -2 -28 2 -39 49 -11 51 -11 52 16 68 32 19 34 17 43
-46 8 -55 32 -71 40 -27 3 16 9 43 12 59 3 17 12 30 20 30 9 0 14 11 14 28 1
29 29 88 30 62 1 -28 17 12 23 58 4 30 2 42 -8 42 -12 0 -31 67 -22 76 2 2 25
10 50 18 34 10 47 11 48 3 1 -7 4 0 8 15 l6 28 190 -86 c105 -47 223 -101 263
-120 40 -19 75 -34 78 -34 2 0 4 14 4 31 0 20 -10 40 -29 59 -32 32 -83 50
-89 32 -2 -7 -9 -12 -15 -12 -6 0 -1 10 10 23 18 19 19 24 7 35 -8 7 -14 24
-14 37 0 14 -5 25 -11 25 -5 0 -8 4 -5 9 4 5 -2 7 -11 5 -15 -4 -18 -16 -16
-72 l1 -67 -7 56 c-3 34 -14 65 -25 78 -25 28 -70 27 -90 -1 -18 -25 -21 -17
-6 13 6 10 18 19 27 19 23 0 9 12 -32 26 -32 11 -34 10 -25 -7 6 -10 10 -33 9
-51 l-1 -33 -11 41 c-18 64 -33 76 -88 72 -26 -1 -45 0 -43 3 13 22 -99 24
-196 3z m187 -76 c-3 -7 -5 -2 -5 12 0 14 2 19 5 13 2 -7 2 -19 0 -25z m570
-520 c-3 -7 -5 -2 -5 12 0 14 2 19 5 13 2 -7 2 -19 0 -25z m-27 -103 c-21 -64
-35 -84 -48 -70 -4 3 0 11 9 16 9 5 25 39 35 76 10 36 20 61 22 55 2 -7 -6
-41 -18 -77z m-970 -44 c12 -24 13 -54 1 -47 -13 9 -32 66 -21 66 5 0 14 -9
20 -19z m890 -72 c-7 -11 -14 -18 -17 -15 -3 3 0 12 7 21 18 21 23 19 10 -6z
m-830 -65 c0 -8 -2 -14 -5 -14 -6 0 -35 56 -35 67 1 14 40 -39 40 -53z m846
30 c-4 -9 -9 -15 -11 -12 -3 3 -3 13 1 22 4 9 9 15 11 12 3 -3 3 -13 -1 -22z
m-818 -5 c17 -27 5 -40 -14 -15 -8 11 -14 23 -14 28 0 15 15 8 28 -13z m85
-99 c36 -24 42 -40 20 -47 -15 -5 -83 55 -83 74 0 15 0 15 63 -27z m587 1 c0
-11 -42 -43 -48 -37 -2 3 1 14 8 25 11 21 40 29 40 12z m-80 -40 c0 -12 -29
-41 -40 -41 -5 0 -15 -3 -24 -6 -29 -11 -17 16 17 36 35 22 47 25 47 11z"/>
<path d="M456 975 c-3 -8 -1 -15 4 -15 6 0 10 7 10 15 0 8 -2 15 -4 15 -2 0
-6 -7 -10 -15z"/>
<path d="M1050 930 c11 -15 20 -44 20 -63 0 -29 4 -36 28 -43 15 -4 32 -8 37
-9 6 0 21 -8 34 -17 14 -10 26 -16 28 -14 6 6 -9 36 -16 32 -15 -10 -68 51
-75 85 -5 30 -12 38 -41 46 l-35 11 20 -28z m85 -100 c8 -13 -5 -13 -25 0 -13
8 -13 10 2 10 9 0 20 -4 23 -10z"/>
<path d="M541 804 c0 -11 3 -14 6 -6 3 7 2 16 -1 19 -3 4 -6 -2 -5 -13z"/>
<path d="M551 764 c0 -11 3 -14 6 -6 3 7 2 16 -1 19 -3 4 -6 -2 -5 -13z"/>
<path d="M1110 740 c-8 -5 -10 -10 -5 -10 6 0 17 5 25 10 8 5 11 10 5 10 -5 0
-17 -5 -25 -10z"/>
<path d="M560 729 c0 -20 30 -110 43 -126 14 -19 81 -16 166 8 82 23 323 110
318 115 -1 2 -50 -12 -107 -31 -217 -70 -345 -94 -371 -68 -6 6 -20 36 -30 65
-10 29 -18 46 -19 37z"/>
</g>
</svg>
