<svg width="60" height="60" viewBox="0 0 60 60" fill="none" xmlns="http://www.w3.org/2000/svg">
<path d="M30.0105 0.0437007C15.9901 0.0437007 6.2901 8.53646 6.37482 21.3286C6.396 24.8019 8.28092 36.0903 10.06 45.049C11.3307 51.5086 12.4532 56.7186 12.4744 56.8245C12.8344 58.4129 14.3593 59.4295 15.9689 59.1754L16.3078 59.133L16.0748 58.9C15.63 58.4341 15.2912 57.8835 15.1006 57.2904C14.9947 56.9516 14.9523 56.6551 14.9099 56.3797C14.9099 56.2527 14.8676 56.1256 14.8464 55.9985L14.2322 52.2287C13.9569 50.5132 13.7027 48.8189 13.4486 47.1881C13.4486 47.0822 13.5121 46.9763 13.618 46.9551C13.7239 46.9551 13.8298 47.0186 13.851 47.1034C14.1899 48.713 14.5287 50.4073 14.8676 52.1016L15.5877 55.8715C15.6088 55.9985 15.63 56.1044 15.6512 56.2315C15.7147 56.528 15.7571 56.8457 15.8418 57.0575C16.0324 57.6928 16.456 58.2647 17.0278 58.6671C17.0914 58.7094 17.1549 58.7518 17.2184 58.7941C17.5361 58.9848 17.8962 59.1118 18.2562 59.1754C18.6374 59.2389 19.0187 59.2177 19.3787 59.1542C19.7811 59.0695 20.1835 58.9 20.5224 58.6459L20.6494 58.54L20.5435 58.3917C20.2682 57.9893 20.0776 57.5658 19.9505 57.0998C19.8658 56.7398 19.8446 56.4433 19.8235 56.1468C19.8235 56.0197 19.8023 55.8926 19.7811 55.7867L19.3999 51.9957C19.2304 50.259 19.0822 48.5647 18.9551 46.9339C18.9551 46.8704 18.9551 46.828 18.9975 46.7857C19.0398 46.7433 19.0822 46.7221 19.1246 46.7221C19.2304 46.7221 19.3152 46.7857 19.3363 46.8916C19.5693 48.5012 19.8023 50.1955 20.0352 51.9322L20.5224 55.7232C20.5224 55.8291 20.5435 55.9562 20.5647 56.0832C20.6071 56.4009 20.6494 56.6974 20.6918 56.9304C20.7553 57.2057 20.8824 57.4811 21.0307 57.7352C21.2424 58.0952 21.539 58.4129 21.899 58.6671H21.9202C21.9202 58.7094 21.9625 58.7094 21.9837 58.7306C22.5979 59.133 23.3815 59.3236 24.1228 59.1965C24.8641 59.0907 25.5418 58.6883 26.0289 58.1164C26.156 57.9682 26.2619 57.8199 26.3466 57.6505L26.3889 57.587V57.5234C26.3042 57.354 26.2619 57.1845 26.2195 56.9939C26.156 56.7398 26.1348 56.4009 26.1348 55.9985V54.1136C26.0713 51.7415 26.0501 49.2848 26.0501 46.6162C26.0501 46.5103 26.1348 46.4256 26.2407 46.4256C26.3466 46.4256 26.4313 46.5103 26.4313 46.6162C26.6007 49.2848 26.7066 51.7415 26.8125 54.1136L26.8972 55.9773C26.8972 56.3162 26.9184 56.5704 26.9819 56.8457C27.0455 57.0575 27.1302 57.354 27.2785 57.6081C27.2785 57.6081 27.2785 57.6293 27.3208 57.6717C27.8503 58.6247 28.8669 59.2389 29.947 59.2389H29.9894C31.0483 59.2601 32.1284 58.6459 32.6579 57.6717C32.6579 57.6717 32.6579 57.6505 32.6791 57.6293C32.8062 57.4175 32.8909 57.1634 32.9756 56.8457C33.0391 56.5915 33.0391 56.3374 33.0603 56.0197L33.145 54.1136C33.2297 51.8686 33.3568 49.433 33.5262 46.6162C33.5262 46.5103 33.6321 46.4256 33.738 46.4256C33.8439 46.4256 33.9286 46.5103 33.9286 46.6162C33.9286 49.4119 33.9286 51.8686 33.8651 54.1136V55.9985C33.8228 56.2527 33.8228 56.6551 33.7592 56.9939C33.7169 57.1845 33.6745 57.354 33.611 57.5234V57.587C33.5898 57.587 33.611 57.6505 33.611 57.6505C33.6957 57.8199 33.8016 57.9682 33.9286 58.1164C34.4158 58.7094 35.0935 59.0907 35.8348 59.1965C36.576 59.3024 37.3596 59.133 37.9738 58.7306C37.9738 58.7306 38.0162 58.7094 38.0374 58.6883H38.0585C38.3974 58.4341 38.6939 58.0952 38.9269 57.7352C39.0751 57.4811 39.181 57.2057 39.2657 56.9304C39.3293 56.6974 39.3716 56.3797 39.3928 56.0621C39.3928 55.9562 39.414 55.8291 39.4352 55.7232L39.9223 51.9322C40.1553 50.2167 40.3882 48.5012 40.6212 46.8916C40.6212 46.828 40.6636 46.7857 40.7059 46.7645C40.7483 46.7221 40.8118 46.7221 40.8542 46.7221C40.9601 46.7221 41.0236 46.828 41.0236 46.9339C40.8965 48.5647 40.7483 50.259 40.5788 51.9957L40.1976 55.7867C40.1976 55.9138 40.1764 56.0197 40.1553 56.1468C40.1341 56.4433 40.0917 56.7398 40.0282 57.0998C39.9223 57.5658 39.7317 57.9893 39.4564 58.3917L39.3505 58.54L39.4775 58.6459C39.8376 58.9 40.2188 59.0695 40.6212 59.1542C40.9812 59.2389 41.3625 59.2389 41.7437 59.1754C42.1249 59.1118 42.4638 58.9848 42.8026 58.7941C42.8662 58.7518 42.9297 58.7094 42.9932 58.6671C43.5651 58.2859 43.9887 57.714 44.1793 57.0575C44.2428 56.8245 44.3063 56.5068 44.3699 56.2103C44.3911 56.0832 44.4122 55.9773 44.4334 55.8503L45.1535 52.0804C45.4924 50.3649 45.8312 48.6918 46.1701 47.0822C46.1913 46.9763 46.2972 46.9127 46.4031 46.9339C46.509 46.9551 46.5725 47.061 46.5513 47.1669C46.3183 48.7977 46.043 50.492 45.7677 52.2075L45.1535 55.9773C45.1323 56.1044 45.1111 56.2315 45.09 56.3586C45.0476 56.6339 45.0052 56.9304 44.8994 57.2693C44.7299 57.8623 44.3911 58.4129 43.9463 58.8789L43.7345 59.0907L44.031 59.1542C44.2004 59.1754 44.3699 59.1965 44.5393 59.1965C45.9371 59.1965 47.2079 58.2223 47.5255 56.8033C47.5467 56.6763 48.6904 51.2756 50.0035 44.6678C51.7613 35.7514 53.8157 24.6325 53.8157 21.2227C53.8157 8.72708 44.0098 0.00134277 29.9894 0.00134277L30.0105 0.0437007Z" fill="#57D1E5"/>
<path d="M49.9611 45.049C48.648 51.7415 47.5467 56.761 47.5255 56.8457C47.229 58.2011 45.9371 59.1754 44.5605 59.1754C43.1838 59.1754 44.2428 59.1754 44.0733 59.133L43.9039 59.0906L44.0098 58.9636C44.4758 58.4976 44.8146 57.9258 44.984 57.3328C45.0899 56.9939 45.1323 56.6974 45.1747 56.4009V56.3586C45.1958 56.2527 45.217 56.1468 45.2382 56.0197L45.8524 52.2498C46.1277 50.5343 46.3819 48.84 46.636 47.2092C46.6572 47.061 46.5513 46.9339 46.4242 46.8916C46.3395 46.8916 46.276 46.8916 46.2124 46.9339C46.1489 46.9763 46.1065 47.0398 46.0853 47.1034C45.7465 48.6918 45.4076 50.3861 45.0688 52.1016L44.3487 55.8503C44.3487 55.935 44.3063 56.0197 44.3063 56.1044V56.2103C44.2216 56.5068 44.1792 56.8033 44.0945 57.0363C43.9039 57.6717 43.5015 58.2223 42.9297 58.6035C42.8661 58.6459 42.8026 58.6882 42.7391 58.7306C42.4214 58.9212 42.0825 59.0271 41.7225 59.0906C41.3624 59.1542 41.0024 59.133 40.6424 59.0695C40.24 58.9848 39.8587 58.8153 39.5199 58.5612L39.4563 58.5188L39.4987 58.4553C39.774 58.0529 39.9858 57.6081 40.0917 57.1422C40.1764 56.7821 40.1976 56.4856 40.2188 56.1891C40.2188 56.0621 40.24 55.9562 40.2611 55.8291L40.6424 52.0381C40.8118 50.2802 40.96 48.5647 41.0871 46.9763C41.0871 46.828 41.0024 46.701 40.8541 46.6798C40.7694 46.6798 40.7059 46.6798 40.6424 46.7433C40.5788 46.7857 40.5365 46.8492 40.5365 46.9339C40.3035 48.5435 40.0705 50.2378 39.8376 51.9745L39.3504 55.7656C39.3504 55.8714 39.3293 55.9985 39.3081 56.1256C39.2657 56.4433 39.2234 56.7398 39.181 56.9727C39.1175 57.2481 39.0116 57.5022 38.8633 57.7564C38.6515 58.1164 38.355 58.4341 38.0162 58.6671H37.995C37.995 58.7094 37.9526 58.7094 37.9314 58.7306C37.3384 59.133 36.576 59.3024 35.8559 59.1965C35.1358 59.0906 34.4581 58.7094 34.0133 58.1376C33.9074 58.0105 33.8016 57.8623 33.7168 57.6928V57.6505V57.6081C33.7804 57.4387 33.8227 57.2693 33.8651 57.0786C33.9498 56.7186 33.9498 56.3162 33.9498 56.0621V54.1771C34.0133 51.9533 34.0345 49.5178 34.0345 46.6798C34.0345 46.5315 33.9074 46.4044 33.7592 46.4044C33.6109 46.4044 33.4627 46.5103 33.4627 46.6586C33.2933 49.433 33.1874 51.8898 33.0815 54.156L32.9968 56.0621C32.9968 56.3797 32.9756 56.6127 32.912 56.8669C32.8485 57.1634 32.7426 57.4175 32.6367 57.6293C32.6367 57.6293 32.6367 57.6293 32.6155 57.6717C32.1072 58.5824 31.0906 59.1965 30.0529 59.1965C29.0151 59.1965 30.0105 59.1965 29.9893 59.1965H29.947C28.9092 59.1965 27.9138 58.6035 27.4055 57.6717C27.4055 57.6505 27.3843 57.6293 27.3631 57.6293C27.2149 57.3752 27.1302 57.0998 27.0878 56.888C27.0243 56.6127 27.0243 56.3797 27.0031 56.0409L26.9184 54.1771C26.8337 51.8263 26.7066 49.3695 26.5372 46.6798C26.5372 46.5315 26.4101 46.4256 26.2618 46.4256C26.1136 46.4256 25.9865 46.5527 25.9865 46.701C25.9865 49.3907 25.9865 51.8263 26.0501 54.1983V56.0832C26.0712 56.5068 26.1136 56.8245 26.1771 57.0998C26.2195 57.2904 26.2618 57.4599 26.3254 57.6293V57.6717V57.714C26.2407 57.8623 26.1348 58.0317 26.0077 58.1588C25.5418 58.7306 24.864 59.1118 24.1651 59.2177C23.445 59.3236 22.6826 59.1542 22.0896 58.7518C22.0896 58.7518 22.0684 58.7306 22.0261 58.7094H22.0049C21.666 58.4553 21.3695 58.1376 21.1789 57.7776C21.0306 57.5234 20.9247 57.2693 20.8612 56.9939C20.7977 56.761 20.7765 56.4645 20.7341 56.1468C20.7341 56.0409 20.713 55.9138 20.6918 55.8079L20.2047 52.0169C19.9717 50.259 19.7387 48.5647 19.5058 46.9763C19.4846 46.828 19.3575 46.7221 19.2092 46.7433C19.1245 46.7433 19.061 46.7857 19.0186 46.8492C18.9763 46.9127 18.9551 46.9763 18.9551 47.061C19.0822 48.6918 19.2304 50.4073 19.3999 52.1228L19.7811 55.9138C19.7811 56.0409 19.8023 56.1468 19.8234 56.2738C19.8446 56.5704 19.887 56.8669 19.9505 57.2269C20.0564 57.6928 20.2682 58.1376 20.5435 58.54L20.5859 58.6035L20.5223 58.6671C20.1835 58.9212 19.8023 59.0907 19.3999 59.1754C19.0398 59.2601 18.6798 59.2601 18.2986 59.1965C17.9385 59.133 17.5996 59.0059 17.282 58.8365C17.2184 58.7941 17.1549 58.7518 17.0914 58.7094C16.5407 58.3282 16.1171 57.7776 15.9265 57.1422C15.863 56.9304 15.7994 56.6339 15.7571 56.3374V56.295C15.7359 56.1891 15.7147 56.0621 15.6724 55.9562L14.9523 52.1863C14.6134 50.4708 14.2745 48.7977 13.9357 47.1881C13.9145 47.0398 13.7663 46.9551 13.618 46.9763C13.4697 46.9975 13.3639 47.1457 13.385 47.294C13.618 48.9247 13.8933 50.6402 14.1687 52.3346L14.7828 56.1044C14.7828 56.2103 14.8252 56.3374 14.8464 56.4433V56.4856C14.8887 56.761 14.9523 57.0575 15.037 57.4175C15.2064 58.0105 15.5665 58.5824 16.0112 59.0483L16.1383 59.1754H15.9689C14.4016 59.4719 12.9191 58.4553 12.5591 56.9092C12.432 56.3586 11.2883 51.3391 10.0599 45.1337C10.0599 45.1337 11.839 57.0575 11.839 57.0998C11.8601 57.2057 11.8813 57.3116 11.9237 57.4175L11.966 57.5234C11.9872 57.5869 12.0084 57.6505 12.0508 57.714C12.0508 57.7564 12.0931 57.7987 12.1143 57.8411C12.1355 57.8834 12.1567 57.947 12.199 57.9893C12.2202 58.0529 12.2414 58.0952 12.2625 58.1376C12.2625 58.1588 12.2837 58.18 12.3049 58.2011C12.3896 58.3494 12.4743 58.4765 12.5591 58.5824C12.6014 58.6671 12.6649 58.7094 12.7285 58.7941H12.7497C12.8132 58.8789 12.8556 58.9424 12.9191 59.0059C13.618 59.6413 14.4863 60.0013 15.4182 60.0013C16.3501 60.0013 15.8206 60.0013 16.0324 59.959L17.409 59.7472C17.642 59.8319 17.875 59.8954 18.1291 59.9378C18.5739 60.0013 19.0398 60.0013 19.4846 59.8955C19.9717 59.7896 20.4588 59.5778 20.8824 59.2601L21.2212 59.0271C21.3271 59.1118 21.433 59.1965 21.5389 59.2813H21.5601C21.5813 59.3236 21.6237 59.3448 21.6448 59.366C22.3861 59.8531 23.3391 60.0649 24.2287 59.9378C25.1182 59.8107 25.9653 59.3236 26.5372 58.6247C26.6431 58.4976 26.7278 58.3706 26.8337 58.2223C27.4902 59.2813 28.6974 59.959 29.9258 59.959H30.0317C31.2601 59.959 32.4673 59.2813 33.1238 58.2223C33.2085 58.3706 33.3144 58.4976 33.4203 58.6247C33.9922 59.3236 34.8393 59.8107 35.7288 59.9378C35.8983 59.959 36.0889 59.9802 36.2583 59.9802C36.9784 59.9802 37.7197 59.7684 38.3127 59.366C38.3338 59.366 38.3762 59.3236 38.3974 59.3024C38.5033 59.2177 38.6092 59.133 38.7151 59.0271L39.0539 59.2601C39.4775 59.5778 39.9646 59.7896 40.4517 59.8743C40.8965 59.959 41.3624 59.9802 41.8072 59.8955C42.1249 59.8531 42.4214 59.7684 42.6967 59.6413L43.8616 59.9166H43.9039C44.0945 59.959 44.3063 59.9802 44.4969 59.9802C46.2124 59.9802 47.7373 58.7518 48.0974 57.0786C48.0974 57.0151 49.8976 45.1337 49.8976 45.1337L49.9611 45.049Z" fill="#3B2D55"/>
<path d="M13.0038 5.82556C8.7045 9.57424 6.1842 14.9325 6.1842 21.265C6.1842 27.5975 12.3685 56.5492 12.432 56.8457C12.5803 57.4811 13.025 57.9682 13.4698 58.3706C11.9237 50.9791 6.92547 27.0257 6.92547 21.4556C6.92547 15.8856 9.14926 9.84956 13.0038 5.82556Z" fill="#93E1EF"/>
<path d="M23.6356 9.19302C17.9172 9.19302 13.2791 13.8524 13.2791 19.5495C13.2791 25.2467 17.9384 29.906 23.6356 29.906C29.3327 29.906 33.9921 25.2467 33.9921 19.5495C33.9921 13.8524 29.3327 9.19302 23.6356 9.19302Z" fill="#4D9BB6"/>
<path d="M12.2413 18.7235C12.2413 24.4419 16.9007 29.0801 22.5978 29.0801C28.295 29.0801 32.9544 24.4207 32.9544 18.7235C32.9544 13.0264 28.295 8.36703 22.5978 8.36703C16.9007 8.36703 12.2413 13.0264 12.2413 18.7235Z" fill="white"/>
<path d="M16.2229 33.3582C22.5343 34.2689 29.1421 32.7017 34.3309 29.0377C35.051 28.5506 35.7923 29.6095 35.0934 30.1178C32.3401 32.0028 29.2268 33.3582 25.9652 34.0995C22.7249 34.8407 19.3362 34.9466 16.0535 34.4383C15.757 34.396 15.5452 34.0995 15.5876 33.803C15.6299 33.5065 15.9052 33.2947 16.2017 33.337" fill="#4D9BB6"/>
<path d="M35.0722 30.7744C34.9028 29.9272 34.1403 29.2919 33.2932 29.2495C32.4248 29.186 32.4672 27.894 33.3567 27.9152C34.0768 27.9999 34.7334 28.3812 35.1993 28.9106C35.6017 29.2919 36.47 31.0073 35.5382 31.1344C35.3052 31.1344 35.1146 31.0073 35.0722 30.7744Z" fill="#4D9BB6"/>
<path d="M16.0112 32.8923C22.3226 33.803 28.9304 32.2357 34.1193 28.5718C34.8393 28.0846 35.5806 29.1436 34.8817 29.6519C32.1284 31.5368 29.0151 32.8923 25.7536 33.6335C22.5132 34.3748 19.1246 34.4807 15.8418 33.9724C15.5453 33.93 15.3335 33.6335 15.3759 33.337C15.4182 33.0405 15.6936 32.8287 15.9901 32.8711" fill="#3B2D55"/>
<path d="M34.8604 30.3084C34.691 29.4613 33.9286 28.8259 33.0814 28.7836C32.2131 28.72 32.2554 27.4281 33.1449 27.4493C33.865 27.534 34.5216 27.9152 34.9875 28.4447C35.3899 28.8259 36.2582 30.5414 35.3264 30.6685C35.0934 30.6685 34.9028 30.5414 34.8604 30.3084Z" fill="#3B2D55"/>
<path d="M29.6716 18.893C29.5233 23.2558 26.41 25.5432 24.4192 25.0772C22.7672 24.6748 22.5554 20.9897 23.5932 20.0155C24.2709 19.3801 25.6264 19.2107 25.6476 18.7447C25.6476 18.2788 24.3133 18.0246 23.6779 17.3257C22.7037 16.288 23.1696 12.624 24.8639 12.3487C26.8759 12.0098 29.8198 14.5301 29.6716 18.893Z" fill="#3B2D55"/>
</svg>
