<svg width="71" height="71" viewBox="0 0 71 71" fill="none" xmlns="http://www.w3.org/2000/svg">
<path d="M50.9485 51.2813C51.4021 47.5649 51.2558 47.0089 54.0357 47.6235L54.738 47.682C56.8742 47.7844 59.6542 47.3455 61.293 46.5846C64.8191 44.9459 66.9114 42.2098 63.4291 42.9268C55.4989 44.5655 54.9575 41.8733 54.9575 41.8733C63.3267 29.4512 66.8383 13.6638 63.8096 9.80107C55.572 -0.733594 41.2917 4.25574 41.0576 4.37279H40.9845C39.4189 4.06553 37.6631 3.86069 35.6879 3.83143C32.1031 3.7729 29.3671 4.76784 27.304 6.33341C27.3186 6.36268 1.85986 -4.1281 3.04501 19.5456C3.29375 24.5789 10.2583 57.6607 18.569 47.6674C21.6124 44.0095 24.5387 40.9222 24.5387 40.9222C26.0018 41.8879 27.743 42.3854 29.5719 42.2098L29.7182 42.0928C29.6743 42.5463 29.6889 42.9853 29.7767 43.512C27.6405 45.8969 28.2697 46.3213 23.9827 47.1991C19.6517 48.0917 22.1976 49.6865 23.851 50.0962C25.8701 50.5937 30.5229 51.3106 33.6687 46.9065L33.537 47.404C34.371 48.077 34.3271 52.2324 34.4442 55.2026C34.5612 58.1728 34.7661 60.9381 35.366 62.5768C35.9659 64.2156 36.6828 68.4148 42.3159 67.215C47.0126 66.2054 50.612 64.7569 50.9339 51.2667" fill="black"/>
<path d="M40.4872 70.39C37.9267 70.39 36.2587 69.3951 35.2492 68.444C33.7275 67.0102 33.1276 65.1666 32.7618 64.0692C32.7033 63.9083 32.6594 63.762 32.6155 63.6303C31.8986 61.6843 31.6498 58.9189 31.5035 55.3489C31.4889 54.8221 31.4596 54.2515 31.445 53.6809C31.445 53.3297 31.4303 52.92 31.4157 52.4811C29.0015 53.5346 26.163 53.7248 23.1343 52.9786C21.7882 52.642 20.3836 51.9544 19.5057 50.9009C17.0915 52.9054 14.809 52.6128 13.5507 52.1885C11.1511 51.3837 7.50787 48.8525 3.6159 36.1085C1.53823 29.2609 0.206762 22.0622 0.0897106 19.6919C-0.276076 12.2299 1.74307 6.90402 6.08862 3.83141C12.863 -0.953088 23.0758 1.783 26.9239 3.0852C29.4551 1.59279 32.4107 0.861216 35.7466 0.905111C37.517 0.934374 39.1997 1.08069 40.7652 1.35869C44.9206 -0.00204128 58.0889 -2.28455 66.1362 8.00138C68.8431 11.4544 67.8335 18.2727 66.5166 23.3791C65.0389 29.1 62.4637 35.1867 59.318 40.5125C60.152 40.4833 61.3078 40.3662 62.8441 40.0443C66.6922 39.2542 67.7603 41.5221 68.0091 42.2244C69.2088 45.8384 64.1317 48.516 62.5515 49.2475C60.547 50.1839 57.2842 50.7399 54.6212 50.6229H54.5042L54.0214 50.579C54.0214 50.696 53.9921 50.8277 53.9775 50.9448L53.9189 51.5008C53.7434 58.3776 52.7484 62.7378 50.7146 65.6348C48.5638 68.6928 45.5936 69.556 42.9746 70.112C42.0821 70.3022 41.2627 70.39 40.5165 70.39H40.4872ZM35.3955 45.1214C37.0781 46.4675 37.2244 48.9256 37.3561 53.5053C37.3707 54.0613 37.3854 54.6027 37.4 55.1001C37.4585 56.5925 37.6048 60.1041 38.1462 61.5672C38.2194 61.7574 38.2925 61.9769 38.3657 62.2257C38.9802 64.0985 39.2289 64.874 41.7017 64.3472C45.1839 63.601 47.7006 63.0597 47.9932 51.2082L50.9341 51.2813L48.0078 50.9302L48.081 50.2571C48.3297 48.0624 48.5346 46.3212 50.1148 45.2092C51.1097 44.5069 52.2217 44.4045 53.1874 44.4923C52.3973 43.6729 52.1339 42.8536 52.0607 42.4732L51.812 41.2587L52.4997 40.2345C56.1576 34.8063 59.1716 28.1489 60.7811 21.9452C62.4198 15.6244 61.9663 12.2591 61.4834 11.63C54.9285 3.26078 43.5306 6.66991 42.2723 7.0796L42.0528 7.19665L40.9554 7.40149L40.3848 7.28444C38.9509 6.99181 37.3561 6.81623 35.6442 6.78697C32.9959 6.74307 30.8451 7.37223 29.0893 8.68906L27.7432 9.71326L26.1776 9.06948C23.1197 7.8258 14.1652 5.30919 9.46849 8.63053C6.87872 10.4595 5.7082 14.0734 5.97157 19.3847C6.05936 21.2136 7.30303 28.105 9.36607 34.7331C12.1899 43.8339 14.6773 46.3651 15.3942 46.57C15.482 46.5261 15.7893 46.3651 16.3014 45.7652C19.3594 42.0781 22.2857 39.0055 22.4027 38.8738L24.1146 37.0741L26.1776 38.4495C26.8946 38.9177 27.6701 39.1957 28.4748 39.2689L33.3763 35.0989L32.674 42.3707C32.674 42.5024 32.6594 42.6926 32.7033 43.0584L32.9228 44.4338L31.9863 45.4726C31.9863 45.4726 31.9717 45.4872 31.9571 45.5019L34.2396 46.5553L35.3955 45.1068V45.1214Z" fill="black"/>
<path d="M63.4289 42.9268C55.4986 44.5655 54.9573 41.8733 54.9573 41.8733C63.3265 29.4512 66.838 13.6638 63.8093 9.80107C55.5718 -0.733594 41.2915 4.25574 41.0574 4.37279H40.9842C39.4186 4.06553 37.6629 3.86069 35.6876 3.83143C32.1029 3.7729 29.3814 4.76784 27.3038 6.33341C27.3184 6.34804 1.85962 -4.1281 3.04477 19.5456C3.2935 24.5789 10.2581 57.6607 18.5688 47.6674C21.6121 44.0095 24.5384 40.9222 24.5384 40.9222C26.0016 41.8879 27.7427 42.3854 29.5716 42.2098L29.718 42.0928C29.6741 42.5463 29.6887 42.9853 29.7765 43.512C27.6403 45.8969 28.2694 46.3213 23.9824 47.1991C19.6515 48.0917 22.1974 49.6865 23.8507 50.0962C25.8699 50.5936 30.5227 51.3106 33.6685 46.9065L33.5368 47.404C34.3708 48.077 34.9707 51.7788 34.8682 55.1294C34.7658 58.48 34.7073 60.7772 35.3657 62.5768C36.0241 64.3765 36.6825 68.4148 42.3157 67.215C47.0124 66.2054 49.4558 63.601 49.7924 59.2409C50.0265 56.139 50.5825 56.6072 50.6117 53.8272L51.0507 52.5104C51.5481 48.3111 51.1238 46.965 54.0209 47.5942L54.7232 47.6527C56.8594 47.7551 59.6393 47.3162 61.2781 46.5554C64.8043 44.9166 66.8966 42.1805 63.4143 42.8975L63.4289 42.9268Z" fill="#336791"/>
<path d="M40.7651 68.561C36.0245 68.561 34.5321 64.8154 33.9176 63.2791C33.0251 61.0258 32.8203 52.6273 33.0251 45.297C33.0397 44.7556 33.5079 44.3167 34.0347 44.3459C34.576 44.3606 35.0003 44.8141 34.9857 45.3555C34.7516 53.5199 35.0735 60.9088 35.7319 62.5475C36.7415 65.0934 38.2924 67.3027 42.638 66.3809C46.8372 65.4738 48.3296 63.9667 49.0319 59.9138C49.5733 56.8119 50.6268 47.9892 50.7584 46.248C50.8023 45.7067 51.2706 45.297 51.8119 45.3409C52.3533 45.3848 52.763 45.853 52.7191 46.3943C52.5874 48.2086 51.5339 57.0314 50.9779 60.2503C50.1439 65.0641 48.0077 67.2442 43.0623 68.3123C42.2283 68.4879 41.4528 68.5757 40.7651 68.5757V68.561Z" fill="white"/>
<path d="M15.3504 50.418C14.8968 50.418 14.4725 50.3302 14.1214 50.2131C11.0487 49.1889 8.13708 44.2142 5.44489 35.4207C3.41111 28.7341 2.10891 21.7695 2.00649 19.5017C1.66996 12.7565 3.41111 7.98668 7.1714 5.32375C14.6188 0.0564173 27.1141 5.06038 27.6408 5.27986C28.1383 5.4847 28.3871 6.05533 28.1822 6.56743C27.9774 7.0649 27.4067 7.31363 26.8946 7.10879C26.7776 7.0649 14.8529 2.2804 8.29803 6.93321C5.12299 9.18646 3.65985 13.3857 3.95248 19.4139C4.0549 21.316 5.25468 28.105 7.31772 34.8647C9.70265 42.6633 12.4095 47.5941 14.7359 48.3696C15.087 48.4866 16.1844 48.8524 17.75 46.965C20.7787 43.3217 23.5587 40.4247 23.5733 40.3954C23.9537 40.0004 24.5682 39.9857 24.9633 40.3662C25.3583 40.7466 25.373 41.3611 24.9925 41.7561C24.9633 41.7854 22.2272 44.6385 19.257 48.2233C17.8231 49.9351 16.4624 50.4472 15.3358 50.4472L15.3504 50.418Z" fill="white"/>
<path d="M54.8997 42.7658C54.7094 42.7658 54.5192 42.7073 54.3583 42.6049C53.9047 42.2976 53.7877 41.6978 54.0949 41.2442C62.5519 28.705 65.5221 13.5614 62.9909 10.3279C55.441 0.671074 42.6385 4.76789 41.4826 5.17757C41.4387 5.20683 41.3802 5.22147 41.3363 5.2361C40.7364 5.42631 40.2828 5.08978 40.1072 4.70936C39.9024 4.25579 40.078 3.71442 40.5023 3.46569C40.8681 3.24621 44.7454 1.97328 49.3689 2.0318C55.719 2.10496 60.9717 4.54842 64.5418 9.11344C68.1558 13.737 63.7078 30.49 55.7336 42.3415C55.5434 42.6195 55.2362 42.7805 54.9143 42.7805L54.8997 42.7658Z" fill="white"/>
<path d="M55.3379 48.5745C53.8748 48.5745 52.5726 48.3696 51.7825 47.9014C50.9485 47.404 50.8021 46.7309 50.7729 46.3651C50.5534 42.5902 52.5726 41.844 53.6992 41.5221C53.5529 41.3173 53.3627 41.0832 53.1724 40.8491C52.5433 40.059 51.68 38.9909 51.007 37.3668C50.9046 37.118 50.5827 36.5328 50.2023 35.8597C48.1538 32.1872 43.8961 24.5496 46.6468 20.6137C47.9051 18.814 50.4071 18.0825 54.065 18.4483C52.8944 15.0538 47.6417 4.91414 35.6 4.7093C31.9275 4.65077 28.9134 5.77739 26.6456 8.05991C21.5684 13.1809 21.744 22.5012 21.744 22.589C21.744 23.1303 21.3343 23.5839 20.793 23.5985C20.2516 23.5985 19.798 23.1889 19.7834 22.6475C19.7834 22.2378 19.5786 12.4055 25.2409 6.68455C27.9039 4.00699 31.4008 2.67552 35.6293 2.74868C43.5303 2.88036 48.6074 6.88939 51.4898 10.24C54.621 13.8832 56.1573 17.9069 56.289 19.253C56.3914 20.3357 55.5574 20.5406 55.4696 20.5552H55.1184C52.6457 20.1601 49.4414 20.0431 48.2709 21.7257C46.2225 24.652 50.2169 31.8214 51.9288 34.8794C52.3677 35.6695 52.6896 36.2401 52.8359 36.5913C53.3919 37.952 54.1235 38.8592 54.7087 39.5907C55.2355 40.2492 55.6891 40.8052 55.85 41.4782C55.9378 41.6245 57.0352 43.1023 63.1804 41.8294C64.8045 41.4928 65.7702 41.7855 66.0774 42.7073C66.6627 44.4777 63.4437 46.5114 61.6587 47.3454C60.0639 48.077 57.5326 48.5452 55.3379 48.5452V48.5745ZM52.7335 46.1749C53.4651 46.8626 58.2203 46.7894 60.8247 45.5897C62.1415 44.9751 63.078 44.2875 63.6193 43.79C63.6047 43.79 63.5901 43.79 63.5754 43.79C59.5371 44.624 56.6694 44.5069 55.0745 43.4535C54.9721 43.3803 54.8843 43.3218 54.7965 43.2486C54.6356 43.3071 54.4893 43.351 54.3869 43.3803C53.4797 43.629 52.6165 43.8778 52.7335 46.1895V46.1749Z" fill="white"/>
<path d="M26.6901 51.3691C25.6952 51.3691 24.6417 51.2374 23.559 50.9594C23.2517 50.8862 20.5156 50.14 20.5449 48.3989C20.5742 46.804 22.8567 46.3212 23.7199 46.1456C26.7487 45.5165 26.9389 45.2677 27.8753 44.0826C28.1533 43.7314 28.5044 43.2925 28.9726 42.7658C30.5382 41.01 32.0306 41.6245 32.6598 41.8879C33.6547 42.2976 34.4887 43.2925 34.8252 44.4776C35.1325 45.5457 34.9862 46.5846 34.4156 47.3893C32.5427 50.0083 29.8652 51.3691 26.6901 51.3691V51.3691ZM22.725 48.4867C23.0176 48.6769 23.5005 48.911 24.0418 49.0573C26.6609 49.7157 30.3187 49.7596 32.8207 46.2481C33.1134 45.8384 33.0256 45.297 32.9524 45.019C32.7768 44.4191 32.3671 43.8778 31.9282 43.7022C31.3868 43.4827 31.0942 43.3657 30.4504 44.0826C30.0115 44.5654 29.7042 44.9605 29.4262 45.3116C28.2264 46.8333 27.6704 47.3454 24.115 48.0916C23.3834 48.2379 22.9591 48.3989 22.7104 48.5013L22.725 48.4867Z" fill="white"/>
<path d="M29.5722 44.3606C29.0894 44.3606 28.6797 44.0094 28.6065 43.5266C28.5919 43.3949 28.5773 43.2632 28.5626 43.1315C26.2509 43.073 24.0269 42.0634 22.3296 40.3076C20.1642 38.0544 19.1838 34.9379 19.6374 31.7482C20.1203 28.3098 19.9447 25.2811 19.8423 23.657C19.813 23.2034 19.7984 22.8815 19.7984 22.6474C19.7984 22.3548 19.7984 21.5501 22.4028 20.2332C23.3099 19.765 25.1389 18.9603 27.1434 18.7555C30.4794 18.4043 32.6741 19.8967 33.3325 22.9401C35.0883 31.0752 33.4642 34.6599 32.2937 37.2936C32.0742 37.7764 31.8693 38.2446 31.7084 38.6835L31.5621 39.0786C30.9476 40.732 30.4062 42.1658 30.5671 43.2339C30.6549 43.7753 30.2745 44.2728 29.7478 44.3606C29.7039 44.3606 29.6454 44.3606 29.6015 44.3606H29.5722ZM21.7736 22.9254C21.7736 23.0864 21.7883 23.2912 21.8029 23.54C21.9053 25.2372 22.0955 28.3976 21.5834 32.0262C21.2176 34.616 22.0077 37.1472 23.7489 38.9615C25.1242 40.3954 26.9239 41.1855 28.7675 41.1855C28.9869 40.3076 29.3235 39.3859 29.6893 38.4055L29.8356 38.0105C30.0258 37.4984 30.2452 37.0156 30.4794 36.5035C31.606 33.9868 33.0106 30.8703 31.4011 23.3644C31.0939 21.9159 30.333 21.0819 29.104 20.7892C26.3972 20.1747 22.593 22.2085 21.7736 22.9254V22.9254Z" fill="white"/>
<path d="M27.1872 22.5014C27.1433 22.8233 27.7726 23.6867 28.6067 23.7892C29.4262 23.9062 30.1433 23.2331 30.1872 22.9111C30.2311 22.5892 29.6019 22.2379 28.7677 22.1209C27.9482 22.0038 27.2311 22.1794 27.1872 22.5014Z" fill="white"/>
<path d="M28.782 24.1257C28.7088 24.1257 28.6357 24.1257 28.5625 24.1111C28.0357 24.0379 27.5235 23.716 27.1576 23.233C27.0259 23.0721 26.821 22.7355 26.8649 22.4428C26.8796 22.3257 26.9381 22.1647 27.1284 22.033C27.4503 21.7843 28.1088 21.6964 28.8113 21.7989C29.2503 21.8574 29.6601 21.9891 29.9674 22.1501C30.4942 22.4428 30.5381 22.7794 30.5088 22.955C30.4357 23.4525 29.6454 24.1257 28.782 24.1257ZM27.5235 22.5599C27.5674 22.7794 28.0503 23.3794 28.6503 23.4672C29.2649 23.555 29.7771 23.0721 29.8503 22.8818C29.7771 22.7794 29.3966 22.5306 28.7235 22.4428C28.0503 22.355 27.6259 22.4721 27.5235 22.5599V22.5599Z" fill="white"/>
<path d="M52.3252 21.8429C52.3691 22.1648 51.7398 23.0282 50.9057 23.1307C50.0861 23.2478 49.3691 22.5746 49.3252 22.2526C49.2813 21.9307 49.9105 21.5795 50.7447 21.4624C51.5788 21.3453 52.2813 21.5209 52.3252 21.8429Z" fill="white"/>
<path d="M50.7297 23.3063C49.9102 23.3063 49.2224 22.6624 49.1785 22.2819C49.1053 21.799 49.9102 21.4185 50.7297 21.3014C51.5492 21.1843 52.4272 21.3307 52.4858 21.8136C52.515 22.0331 52.3541 22.3697 52.0614 22.677C51.8711 22.8819 51.476 23.2185 50.9346 23.2917C50.8614 23.2917 50.7882 23.2917 50.7297 23.2917V23.3063ZM51.2711 21.5941C51.1248 21.5941 50.9638 21.5941 50.7882 21.6234C49.9248 21.7404 49.4858 22.0917 49.5151 22.2234C49.5443 22.4429 50.1736 23.0575 50.9053 22.9551C51.3443 22.8965 51.6809 22.6038 51.8419 22.4282C52.0907 22.1648 52.1931 21.916 52.1785 21.8429C52.1638 21.7258 51.8419 21.5795 51.2711 21.5795V21.5941Z" fill="white"/>
<path d="M53.5087 40.3662C53.3185 40.3662 53.1283 40.3076 52.9674 40.2052C52.5138 39.898 52.3967 39.2981 52.704 38.8445C54.6207 35.9767 54.2696 33.0358 53.9331 30.1973C53.7867 28.9829 53.6404 27.7246 53.6697 26.5102C53.7136 25.2665 53.8745 24.2423 54.0208 23.2473C54.1964 22.0768 54.372 20.9795 54.2988 19.6626C54.2696 19.1213 54.6793 18.6531 55.2206 18.6238C55.762 18.5945 56.2302 19.0042 56.2595 19.5456C56.3472 21.0526 56.1424 22.3109 55.9668 23.5253C55.8205 24.4618 55.6742 25.4274 55.6449 26.5541C55.6157 27.6222 55.7474 28.7488 55.8937 29.9486C56.2595 32.9919 56.6691 36.4449 54.3427 39.9126C54.1525 40.1906 53.8453 40.3515 53.5234 40.3515L53.5087 40.3662Z" fill="white"/>
</svg>
