<svg width="60" height="60" viewBox="0 0 60 60" fill="none" xmlns="http://www.w3.org/2000/svg">
<g clip-path="url(#clip0_916_10989)">
<path d="M29.7169 15.7866L44.002 23.6976V20.5259L29.7169 12.6332C27.5922 13.8089 17.3238 19.485 15.4318 20.5259C17.1891 21.4995 35.644 31.6944 46.8615 37.8909V41.0504C45.3369 41.8954 29.7169 50.5228 29.7169 50.5228C25.443 48.1654 16.8401 43.4139 12.5723 41.0504V31.578L29.7169 41.0504L32.5764 39.4707L9.71283 26.8449V42.6363L29.7169 53.6823C31.6885 52.5924 48.2576 43.4384 49.7149 42.6302V36.3173L21.1446 20.5259L29.7169 15.7866ZM9.71283 17.3664V23.6854L38.2831 39.4768L29.7108 44.2161L15.4257 36.305V39.4768L29.7108 47.3694C31.8355 46.1938 42.1039 40.5177 43.9959 39.4768C42.2386 38.5032 23.7898 28.3083 12.5723 22.1056V18.9461C14.0969 18.1011 29.7169 9.47374 29.7169 9.47374C33.9847 11.8372 42.5876 16.5887 46.8615 18.9461V28.4185L29.7169 18.9461L26.8574 20.5259L49.7149 33.1578V17.3664L29.7169 6.31423C27.7392 7.41026 11.1762 16.5643 9.71283 17.3664ZM29.7169 0.00134277L4 14.213V45.7897L29.7169 60.0013L55.4338 45.7958V14.213L29.7169 0.00134277ZM52.5682 44.2099L29.7169 56.8418L6.85948 44.2099V15.7927L29.7169 3.16085L52.5743 15.7927L52.5682 44.2099Z" fill="url(#paint0_linear_916_10989)"/>
</g>
<defs>
<linearGradient id="paint0_linear_916_10989" x1="16.4511" y1="7.02434" x2="42.9853" y2="52.9829" gradientUnits="userSpaceOnUse">
<stop stop-color="#FF00A0"/>
<stop offset="1" stop-color="#9600FF"/>
</linearGradient>
<clipPath id="clip0_916_10989">
<rect width="60" height="60" fill="white" transform="translate(0 0.00134277)"/>
</clipPath>
</defs>
</svg>
