<svg width="60" height="60" viewBox="0 0 60 60" fill="none" xmlns="http://www.w3.org/2000/svg">
<path d="M37.2014 28.0099L25.1856 31.9335L14.7321 36.5472L11.8076 37.3193C11.0627 38.0278 10.2818 38.7453 9.43711 39.4719C8.51073 40.2711 7.64793 40.9978 6.98483 41.5244C6.24922 42.1057 5.15934 43.1956 4.60538 43.8857C3.77885 44.921 3.12495 46.02 2.84338 46.8647C2.34382 48.3906 2.58916 49.9345 3.55185 51.3605C4.78701 53.1769 7.24834 55.0296 10.1182 56.292C11.5806 56.937 14.0418 57.7634 15.8945 58.2265C18.9733 59.0077 24.9313 59.8523 28.2099 59.9796C28.8728 60.0068 29.7629 60.0068 29.7992 59.9796C29.8719 59.934 30.3805 58.9623 30.971 57.7544C32.9872 53.6401 34.4403 49.7801 35.2304 46.4834C35.7027 44.4854 36.075 41.8242 36.3202 38.6728C36.3839 37.7918 36.411 34.8401 36.3565 33.8409C36.2747 32.2062 36.1294 30.8803 35.9025 29.5815C35.8662 29.3907 35.8569 29.2181 35.8752 29.2091C35.9114 29.1818 36.0204 29.1455 37.5008 28.7185L37.2013 28.0102V28.01H37.2014V28.0099ZM34.4586 29.6176C34.5676 29.6176 34.8581 32.4058 34.9307 34.1679C34.949 34.5402 34.9398 34.7854 34.9217 34.7854C34.8491 34.7854 33.3868 33.9227 32.3425 33.2688C31.4342 32.6966 29.7087 31.5522 29.4362 31.3342C29.3452 31.2707 29.3543 31.2616 30.0991 31.0072C31.3614 30.5803 34.3587 29.6176 34.4586 29.6176ZM28.3372 31.6339C28.419 31.6339 28.6277 31.7518 29.1273 32.0607C30.9982 33.2323 33.5413 34.6492 34.6311 35.1215C34.9671 35.2668 35.0033 35.2123 34.2315 35.7391C32.5785 36.8653 30.5167 37.9732 27.9919 39.0904C27.5469 39.2902 27.1746 39.4445 27.1655 39.4445C27.1475 39.4445 27.2018 39.2176 27.2744 38.9451C27.8829 36.6835 28.2281 34.3948 28.2463 32.5602C28.2554 31.6519 28.2554 31.6519 28.3372 31.6248C28.3189 31.6339 28.328 31.6339 28.3372 31.6339ZM27.0748 32.1152C27.1291 32.1696 27.0929 34.2041 27.0202 34.7581C26.8567 36.0841 26.6024 37.3193 26.1848 38.709C26.0848 39.0448 25.9939 39.3265 25.9759 39.3446C25.9394 39.39 24.6951 38.173 24.2864 37.7007C23.578 36.8833 23.0241 36.0659 22.6154 35.2667C22.4065 34.858 22.0796 34.0588 22.1068 34.0315C22.2521 33.9316 27.0384 32.0789 27.0748 32.1152ZM21.1349 34.4493C21.144 34.4493 21.153 34.4493 21.1622 34.4584C21.1803 34.4765 21.244 34.6219 21.2985 34.7853C21.589 35.5755 22.2428 36.738 22.8061 37.4828C23.4237 38.3002 24.2321 39.172 24.904 39.7442C25.1221 39.9258 25.3218 40.0984 25.3489 40.1257C25.4036 40.1802 25.4217 40.171 23.9412 40.7342C22.2249 41.3881 20.3538 42.042 18.2104 42.7322C17.6984 42.8973 17.1868 43.0638 16.6757 43.2318C16.5938 43.2591 16.6212 43.2136 16.8573 42.8413C17.9199 41.1792 19.5364 37.9187 20.4447 35.6118C20.5991 35.2122 20.7535 34.8126 20.7808 34.7218C20.8172 34.5945 20.8625 34.5492 20.9805 34.4856C21.0441 34.4676 21.1077 34.4493 21.1349 34.4493ZM19.3186 35.2031C19.3458 35.2214 18.8826 36.1931 18.4285 37.0831C17.5475 38.7997 16.5848 40.4891 15.2951 42.5416C15.0772 42.8957 14.8684 43.2228 14.8411 43.2591C14.7957 43.3227 14.7774 43.3045 14.6322 43.023C14.3234 42.4144 14.069 41.6333 13.9328 40.9158C13.7965 40.2073 13.8238 38.9722 13.9783 38.2094C14.0962 37.6463 14.0872 37.6554 14.3597 37.5191C15.5222 36.9288 19.2823 35.1668 19.3186 35.2031ZM34.9853 35.839V36.2204C34.9853 38.2457 34.7674 41.0249 34.4494 43.0503C34.3949 43.4044 34.3493 43.695 34.3404 43.7042C34.3404 43.7042 34.0771 43.6316 33.7683 43.5406C32.406 43.1137 30.9256 42.4871 29.5904 41.7515C28.7093 41.2702 27.4289 40.4799 27.4653 40.4435C27.4742 40.4345 27.8557 40.2347 28.3007 39.9986C30.081 39.0722 31.7883 38.0732 33.2687 37.0832C33.8228 36.7108 34.6582 36.1115 34.84 35.9479L34.9853 35.839ZM12.4614 38.5271C12.4978 38.5271 12.4887 38.5998 12.4342 38.9268C12.3978 39.163 12.3525 39.5989 12.3344 39.8985C12.2616 41.2246 12.4797 42.2055 13.1336 43.5496C13.3152 43.922 13.4607 44.2308 13.4514 44.2398C13.3878 44.2944 7.37554 46.0564 5.48631 46.574C4.92325 46.7284 4.43291 46.8646 4.39639 46.8736C4.33294 46.8919 4.32381 46.8828 4.35103 46.7283C4.55989 45.3933 5.57715 43.6495 6.99391 42.1781C7.93851 41.1973 8.69237 40.6251 9.98203 39.8894C10.9084 39.3627 12.3343 38.5727 12.4433 38.5362C12.4434 38.5271 12.4524 38.5271 12.4614 38.5271ZM26.6297 41.0611C26.6388 41.052 26.8567 41.1702 27.1201 41.3245C29.0637 42.4508 31.7702 43.4952 34.0769 44.031L34.2859 44.0765L33.9952 44.2398C32.7874 44.912 28.8184 46.5649 24.7588 48.0817C24.1683 48.2995 23.5872 48.5176 23.478 48.563C23.369 48.6083 23.2691 48.6356 23.2691 48.6266C23.2691 48.6174 23.4327 48.2995 23.6414 47.9091C24.7767 45.7838 25.9212 43.1954 26.5024 41.3971C26.5752 41.2246 26.6205 41.0703 26.6297 41.0611ZM25.1856 41.5334C25.1949 41.5427 25.1221 41.7332 25.0312 41.9512C24.2411 43.8675 23.2056 45.9566 21.8797 48.2997C21.5437 48.8992 21.2621 49.3806 21.2529 49.3806C21.244 49.3806 20.9714 49.217 20.6445 49.0172C18.7189 47.8365 17.0116 46.3834 15.8946 44.9756L15.731 44.7758L16.5574 44.5487C19.5183 43.7405 22.0339 42.8686 24.5316 41.7969C24.8859 41.6516 25.1766 41.5334 25.1856 41.5334ZM34.1589 44.6668C34.1589 44.6668 34.1679 44.6759 34.1589 44.6668C34.1679 44.8757 33.7047 46.7467 33.3232 48.0998C33.0054 49.235 32.7328 50.1252 32.2334 51.6963C32.0154 52.3867 31.8248 52.9587 31.8156 52.9587C31.8066 52.9587 31.7521 52.9497 31.6976 52.9316C29.0002 52.441 26.5843 51.7599 24.3138 50.8518C23.6779 50.5974 22.7698 50.1886 22.7153 50.1433C22.6972 50.1249 23.2421 49.8708 23.9323 49.5711C28.0647 47.7637 32.3515 45.7111 33.8228 44.8302C33.9953 44.7212 34.1316 44.6668 34.1589 44.6668ZM13.4424 45.3752C13.4606 45.3933 12.3071 47.0555 10.6904 49.3169C10.1274 50.1071 9.47346 51.0334 9.22829 51.3785C8.98303 51.7236 8.6107 52.2686 8.4018 52.5956L8.02017 53.1859L7.61145 52.8408C7.13007 52.4411 6.29462 51.5874 5.92225 51.1151C5.14112 50.1435 4.61446 49.1172 4.40556 48.1818C4.30563 47.7457 4.30563 47.5277 4.39634 47.5006C4.53254 47.4643 6.95752 46.892 9.2282 46.3652C10.4906 46.0746 11.9528 45.7295 12.4795 45.6024C13.0064 45.475 13.4333 45.3752 13.4424 45.3752ZM14.6049 45.8203L14.8954 46.1472C16.2034 47.6095 17.5384 48.6904 19.1551 49.6348C19.4458 49.7984 19.6637 49.9436 19.6454 49.9528C19.582 49.9982 14.0326 51.9688 11.4624 52.8589C10.0184 53.3675 8.82857 53.7762 8.81961 53.7762C8.81056 53.7762 8.72877 53.7218 8.6378 53.6581L8.47442 53.54L8.73777 53.1587C9.59144 51.9235 10.6633 50.5703 12.9974 47.7548L14.6049 45.8203ZM21.8526 51.0061C21.8615 50.9971 22.2611 51.1423 22.7515 51.3242C23.9323 51.7691 24.8676 52.0506 26.1211 52.3685C27.6651 52.7591 29.8993 53.1406 31.2163 53.2495C31.4161 53.2676 31.5251 53.2859 31.4887 53.3131C31.425 53.3495 30.0901 53.7945 29.1092 54.1033C27.5469 54.5937 22.7788 56.0014 18.8917 57.1186C18.1742 57.3274 17.5566 57.5 17.5203 57.509C17.4295 57.5273 17.1297 57.4454 17.1297 57.4091C17.1297 57.391 17.3477 57.1095 17.6111 56.8007C18.9188 55.2385 20.2177 53.4948 21.2985 51.8418C21.5981 51.3875 21.8526 51.0152 21.8526 51.0061ZM20.2539 51.0517C20.263 51.0607 19.6182 52.096 18.4922 53.8761C18.0107 54.6299 17.4748 55.4836 17.284 55.7834C17.1024 56.074 16.83 56.5282 16.6756 56.7824L16.4122 57.2457L16.276 57.2093C15.949 57.1185 13.6512 56.3101 13.0427 56.0649C12.2888 55.7652 11.5078 55.402 10.9265 55.0932C10.2 54.7026 9.29182 54.1213 9.3644 54.1032C9.38253 54.0942 10.6268 53.758 12.1253 53.3494C16.1034 52.2685 18.3103 51.6419 19.7545 51.1878C20.0179 51.1061 20.2449 51.0424 20.2539 51.0517ZM31.5613 53.7035H31.5703C31.6067 53.7944 30.1355 57.8814 29.5994 59.171C29.4815 59.4616 29.4362 59.5344 29.3725 59.5252C29.2181 59.5162 27.0839 59.2165 25.785 59.0257C23.5236 58.6806 19.7272 58.0175 18.7736 57.7996L18.5557 57.7543L19.9088 57.4453C22.8152 56.7914 24.2138 56.4372 25.6306 56.0013C27.4198 55.4564 29.1909 54.7752 30.98 53.9397C31.2615 53.8125 31.4977 53.7126 31.5613 53.7035Z" fill="url(#paint0_linear_427_4283)"/>
<path d="M24.8134 0.000465178C24.6136 -0.0266321 21.3893 1.13587 19.3096 1.98041C16.5031 3.1249 14.3235 4.21483 12.9793 5.15917C12.4799 5.51353 11.8531 6.14012 11.7533 6.38529C11.717 6.47613 11.6987 6.58511 11.6987 6.69408L12.9158 7.84754L15.813 8.77391L22.7064 10.0091L30.5896 11.3624L30.6714 10.6812C30.6443 10.6812 30.626 10.6722 30.599 10.6722L29.5633 10.5086L29.3546 10.1363C28.2829 8.24717 27.1022 5.90395 26.412 4.32363C25.8762 3.09751 25.3675 1.68083 25.0859 0.663574C24.9315 0.04599 24.9134 0.009679 24.8137 0.000632612V0.000423H24.8134V0.000465178ZM24.6679 0.4638H24.6773C24.6862 0.472762 24.7226 0.727234 24.759 1.02677C24.9132 2.29846 25.195 3.52437 25.6399 4.85042C25.9759 5.8495 25.9759 5.79505 25.5854 5.67691C24.6591 5.42269 20.5085 4.70517 17.5023 4.28741C17.0209 4.22379 16.6122 4.16025 16.6122 4.15121C16.5759 4.1149 18.7828 2.96136 19.7546 2.50736C20.9989 1.93505 24.4138 0.509157 24.6679 0.4638ZM15.9128 4.53258L16.2671 4.65052C18.1924 5.30454 23.0331 6.23096 25.7034 6.44891C26.003 6.47617 26.2575 6.50348 26.2664 6.50348C26.2754 6.51253 26.0213 6.64877 25.6943 6.8031C24.4047 7.44795 22.9878 8.23812 22.0069 8.84666C21.7164 9.02822 21.4529 9.17363 21.4166 9.17363C21.3803 9.17363 21.1896 9.13728 20.9898 9.11001L20.6266 9.05544L19.7184 8.16533C18.12 6.61237 16.8666 5.41356 16.3852 4.95935L15.9128 4.53258ZM15.5496 4.81406L16.8302 6.4126C17.5294 7.29357 18.2378 8.15633 18.3924 8.34697C18.5466 8.53783 18.6739 8.69229 18.6648 8.70133C18.6285 8.72856 16.8122 8.37428 15.8493 8.15641C14.8594 7.92929 14.4507 7.82031 13.8422 7.62967L13.3426 7.46612V7.33889C13.3517 6.73035 14.1237 5.82219 15.4315 4.8959L15.5496 4.81406ZM26.43 6.99383C26.4664 6.99383 26.5117 7.07554 26.6207 7.32075C26.9295 8.00187 27.8924 9.83657 28.1283 10.1907C28.2011 10.3089 28.3281 10.318 27.0476 10.1091C23.9689 9.60941 22.9788 9.44611 22.9788 9.42793C22.9788 9.41889 23.0696 9.35527 23.1877 9.29165C24.1414 8.76499 25.104 8.09284 25.9578 7.37532C26.1667 7.20273 26.3574 7.03927 26.3937 7.01196C26.4027 6.99383 26.421 6.98478 26.43 6.99383Z" fill="url(#paint1_linear_427_4283)"/>
<path d="M11.8161 6.25812C11.8161 6.25812 11.6164 6.57612 11.8071 7.04842C11.9253 7.33895 12.2704 7.6931 12.6608 8.05646C12.6608 8.05646 16.7024 11.9981 17.1929 12.5613C19.427 15.1405 20.3988 17.6836 20.4897 21.1894C20.5442 23.4417 20.1172 25.4216 19.0547 27.7195C17.1656 31.8428 13.1784 36.393 7.02979 41.4428L7.92906 41.143C8.51029 40.707 9.30047 40.2439 11.1532 39.2267C15.4308 36.8833 20.2444 34.7309 26.1479 32.5149C34.6486 29.3178 48.6263 25.5759 56.5821 24.359L57.4088 24.2318L57.2815 24.032C56.5551 22.9057 56.0554 22.2065 55.4559 21.4618C53.7123 19.3002 51.5963 17.5474 49.0077 16.0942C45.4475 14.1053 40.8426 12.5522 35.012 11.3988C33.9131 11.1807 31.4972 10.763 29.5355 10.4633C25.3758 9.81859 22.6875 9.37347 19.7267 8.86486C18.6642 8.68314 17.0747 8.41074 16.0211 8.18374C15.4762 8.06555 14.4319 7.82038 13.6145 7.53885C12.9606 7.28442 12.0159 7.03012 11.8161 6.25812ZM14.1595 8.52876C14.1684 8.5198 14.3137 8.57412 14.5046 8.63774C14.8497 8.75568 15.2947 8.89196 15.8216 9.03737C16.2202 9.14701 16.6198 9.25296 17.0204 9.35521C17.5653 9.49137 18.0194 9.61856 18.0284 9.61856C18.0921 9.68218 19.0094 12.6155 19.3182 13.7417C19.4361 14.1687 19.5271 14.5319 19.518 14.5319C19.5087 14.5411 19.4089 14.3866 19.2909 14.1778C18.2283 12.3068 16.5481 10.4087 14.6044 8.88279C14.3502 8.70131 14.1595 8.53781 14.1595 8.52876ZM18.6279 9.76393C18.6733 9.76393 18.8731 9.79119 19.1182 9.84564C20.6622 10.1907 23.4324 10.7175 25.2033 11.0173C25.5031 11.0626 25.7393 11.1172 25.7393 11.1353C25.7393 11.1536 25.6302 11.217 25.4939 11.2898C25.1943 11.4441 23.9863 12.1615 23.5868 12.434C22.5786 13.1061 21.6705 13.8327 21.0165 14.4866C20.7531 14.75 20.526 14.9679 20.526 14.9679C20.526 14.9679 20.4716 14.8136 20.426 14.6228C20.0993 13.3603 19.418 11.4894 18.8004 10.1725C18.7005 9.9637 18.6187 9.77293 18.6187 9.75484C18.6187 9.77298 18.6187 9.76393 18.6279 9.76393ZM26.493 11.2625C26.5475 11.2806 26.6383 11.5894 26.8199 12.2705C27.156 13.5875 27.3105 15.0588 27.256 16.4302C27.2377 16.8117 27.2196 17.1658 27.2014 17.2114L27.1742 17.3021L26.7019 17.1478C25.7301 16.839 24.1499 16.3757 22.7967 15.9943C22.0246 15.7854 21.3981 15.5947 21.3981 15.5765C21.3981 15.522 22.5243 14.3958 23.0056 13.969C23.9227 13.1606 26.4112 11.2352 26.493 11.2625ZM27.1197 11.3532C27.147 11.3261 30.8798 11.9708 32.5781 12.2978C33.8407 12.543 35.6752 12.9245 35.7841 12.97C35.8386 12.988 35.6478 13.097 35.0393 13.3695C32.6417 14.4503 30.8615 15.422 29.0906 16.6028C28.6274 16.9116 28.2368 17.1658 28.2278 17.1658C28.2187 17.1658 28.2097 16.9025 28.2097 16.5846C28.2097 14.8591 27.8645 13.1152 27.2286 11.6439C27.1651 11.4986 27.1106 11.3624 27.1197 11.3532ZM36.774 13.2606C36.8013 13.2878 36.6832 14.0235 36.5742 14.4594C36.2473 15.8127 35.3664 17.82 34.2857 19.7089C34.0948 20.045 33.9223 20.3175 33.904 20.3265C33.886 20.3356 33.6408 20.1993 33.3591 20.0358C32.3057 19.4182 31.1068 18.837 29.7989 18.292C29.4358 18.1377 29.1178 18.0104 29.1087 17.9924C29.045 17.9378 31.9696 16.0033 33.5136 15.077C34.7397 14.3323 36.7377 13.2242 36.774 13.2606ZM37.4642 13.3695C37.546 13.3695 39.199 13.8237 40.0617 14.078C42.1961 14.7138 44.6482 15.6128 46.2467 16.3394L46.9096 16.6392L46.4465 16.7481C42.5413 17.6472 39.199 18.6827 35.9748 19.9905C35.7114 20.0995 35.4752 20.1903 35.4572 20.1903C35.439 20.1903 35.5298 19.9815 35.6479 19.7271C36.6197 17.6655 37.2464 15.513 37.4006 13.6783C37.4099 13.5057 37.4369 13.3695 37.4642 13.3695ZM21.0074 17.1478C21.0346 17.1204 22.2971 17.4202 22.9782 17.6108C24.0136 17.9015 26.2114 18.6371 26.2114 18.6917C26.2114 18.7007 25.9663 18.9096 25.6757 19.164C24.486 20.154 23.3415 21.1983 21.97 22.5243C21.5613 22.915 21.2163 23.2328 21.1982 23.2328C21.1799 23.2328 21.171 23.1782 21.1799 23.1056C21.3888 21.5797 21.3435 19.618 21.0529 17.6291C21.0255 17.3747 20.9983 17.1568 21.0074 17.1478ZM47.5365 17.1751C47.5545 17.1931 46.9552 18.1377 46.5737 18.6735C46.0289 19.4545 45.2294 20.4901 43.4221 22.7606C42.4687 23.9593 41.3968 25.3127 41.0427 25.7667C40.6793 26.2208 40.3797 26.6022 40.3705 26.6022C40.3614 26.6022 40.2435 26.4388 40.1163 26.239C39.099 24.7132 37.882 23.3781 36.4379 22.1793C36.1654 21.9521 35.8659 21.7069 35.7659 21.6343C35.666 21.5616 35.5842 21.489 35.5842 21.4799C35.5842 21.4527 37.1281 20.7896 38.2999 20.3174C40.3525 19.4818 43.1495 18.4828 45.2477 17.8379C46.3466 17.4929 47.5183 17.1568 47.5365 17.1751ZM48.2358 17.3566C48.272 17.3476 48.4901 17.4565 48.7535 17.6108C50.9605 18.8732 53.1219 20.499 54.8295 22.1702C55.3108 22.6425 56.5006 23.8777 56.4823 23.8867C56.4823 23.8867 56.0645 23.923 55.5742 23.9593C51.7506 24.2501 46.8554 25.0582 42.1507 26.1935C41.8329 26.2661 41.5514 26.3297 41.5331 26.3297C41.5152 26.3297 41.8692 25.9755 42.3144 25.5487C45.0753 22.8876 46.3378 21.2074 47.8271 18.2102C48.0359 17.7653 48.2177 17.3839 48.2358 17.3566C48.2267 17.3566 48.2267 17.3566 48.2358 17.3566ZM28.0097 19.4274C28.1369 19.4545 29.3176 20.0088 30.2076 20.4537C31.025 20.8622 32.2512 21.5163 32.3147 21.5707C32.3238 21.5797 31.8878 21.8068 31.3521 22.0702C29.6446 22.924 28.1824 23.7322 26.6565 24.6586C26.2206 24.922 25.8573 25.1401 25.8482 25.1401C25.8119 25.1401 25.8209 25.1036 26.0662 24.6586C26.8836 23.1693 27.5375 21.3891 27.9099 19.6544C27.9461 19.5182 27.9825 19.4274 28.0097 19.4274ZM26.829 19.6453C26.8563 19.6726 26.5475 20.7896 26.3569 21.3982C25.9844 22.5516 25.3577 23.9957 24.7493 25.0855C24.6038 25.3397 24.3859 25.7121 24.2679 25.921L24.0409 26.2843L23.5322 25.794C22.942 25.2217 22.4605 24.8676 21.843 24.5496C21.5977 24.4226 21.407 24.3135 21.407 24.2954C21.407 24.2227 22.9601 22.815 24.1498 21.7978C25.0035 21.0621 26.8018 19.6181 26.829 19.6453ZM34.0495 22.6153L34.4946 22.9058C35.5116 23.5689 36.7104 24.4498 37.6279 25.2217C38.1454 25.6485 39.1444 26.5478 39.3444 26.7657L39.4532 26.8839L38.7177 27.0928C34.558 28.2461 31.3429 29.2724 27.5919 30.653C27.1742 30.8073 26.8199 30.9345 26.7926 30.9345C26.7383 30.9345 26.6927 30.9798 27.6283 30.117C30.0261 27.9102 32.1512 25.476 33.7316 23.1056L34.0495 22.6153ZM32.1513 23.0875C32.1694 23.1056 30.9252 24.8584 30.1803 25.8484C29.2903 27.0291 27.71 29.009 26.6201 30.2986C26.1661 30.8345 25.7757 31.2795 25.7574 31.2886C25.7301 31.2977 25.7211 31.1615 25.7211 30.9526C25.7211 29.8535 25.4396 28.6819 24.9491 27.683C24.7402 27.2652 24.7038 27.1653 24.7494 27.1199C24.9219 26.9655 27.5648 25.4578 29.2358 24.5588C30.362 23.9594 32.1238 23.0693 32.1513 23.0875ZM20.6713 25.903C20.6986 25.903 20.9075 26.0119 21.1437 26.1391C21.7249 26.457 22.2426 26.8111 22.7058 27.1927C22.7239 27.2108 22.4878 27.4016 22.179 27.6285C21.3162 28.2461 20.0084 29.2361 19.2456 29.8447C18.4462 30.4804 18.4191 30.4986 18.5098 30.3624C19.1093 29.445 19.4089 28.9273 19.7269 28.2644C20.0084 27.6741 20.2899 26.9747 20.4897 26.3662C20.5623 26.1028 20.6532 25.903 20.6713 25.903ZM23.7321 28.3006C23.7774 28.2917 23.832 28.3733 24.0771 28.7366C24.5948 29.5085 24.9945 30.544 25.0945 31.3795L25.1125 31.5613L23.8684 32.0426C21.6431 32.9054 19.5907 33.7592 18.2009 34.3948C17.8105 34.5765 17.1293 34.9034 16.6843 35.1215C16.2393 35.3484 15.876 35.521 15.876 35.512C15.876 35.5029 16.1575 35.294 16.5026 35.0396C19.2183 33.0689 21.5705 30.9072 23.3324 28.7457C23.5232 28.5186 23.6958 28.3097 23.7138 28.3007L23.7321 28.3006ZM22.3244 28.6458C22.3607 28.6821 21.3254 29.8537 20.617 30.5711C18.8641 32.3604 17.1294 33.7592 14.9768 35.1215C14.7044 35.294 14.4592 35.4484 14.4319 35.4666C14.3683 35.5029 14.45 35.412 15.3946 34.3857C15.9941 33.7409 16.4481 33.196 16.9658 32.524C17.3109 32.079 17.3745 32.0154 17.8741 31.6611C19.2092 30.6983 22.288 28.6094 22.3244 28.6458Z" fill="url(#paint2_radial_427_4283)"/>
<path d="M33.4659 59.9967H33.0827V56.9261H32.0674V56.5426H34.4807V56.9261H33.4659V59.9967Z" fill="#231F1F"/>
<path d="M35.4081 57.6897V57.6898L35.3861 57.6932V60H34.9997V56.5429H35.5528L36.6213 58.9566C36.7 59.1449 36.7564 59.2548 36.7784 59.365H36.8099C36.8631 59.1762 36.9483 59.01 36.9735 58.9249L38.0418 56.5426H38.5354V59.9936H38.1267V57.6678C38.1267 57.5008 38.1267 57.2814 38.1519 57.0079C38.0987 57.1491 38.0735 57.256 38.0418 57.3376L36.8603 59.9967H36.6718L35.4931 57.363C35.4678 57.2814 35.4113 57.1711 35.3861 57.0079C35.4081 57.1459 35.4081 57.3909 35.4081 57.6897Z" fill="#231F1F"/>
<defs>
<linearGradient id="paint0_linear_427_4283" x1="11.631" y1="54.0648" x2="20.0459" y2="44.005" gradientUnits="userSpaceOnUse">
<stop stop-color="#909CA9"/>
<stop offset="1" stop-color="#EDEDEE"/>
</linearGradient>
<linearGradient id="paint1_linear_427_4283" x1="11.7306" y1="5.66367" x2="15.2266" y2="5.66367" gradientUnits="userSpaceOnUse">
<stop stop-color="#939FAB"/>
<stop offset="1" stop-color="#DCDEE1"/>
</linearGradient>
<radialGradient id="paint2_radial_427_4283" cx="0" cy="0" r="1" gradientUnits="userSpaceOnUse" gradientTransform="translate(29.3709 21.6974) rotate(-171.457) scale(4.50733 9.0169)">
<stop stop-color="#EE352C"/>
<stop offset="1" stop-color="#A91D22"/>
</radialGradient>
</defs>
</svg>
