<svg width="60" height="60" viewBox="0 0 60 60" fill="none" xmlns="http://www.w3.org/2000/svg">
<path fill-rule="evenodd" clip-rule="evenodd" d="M32.5859 22.2578L47.4922 2L60 56H0L20.0781 13.1719L32.5859 22.2578ZM24.8281 41.7188L28.3984 46.6016H32.2188L28.0391 40.8672L31.7266 35.8203L29.2188 34.0078L24.8281 40.0234V30.8359L21.5312 28.4453V46.6016H24.8281V41.7188ZM32.7422 41.2109C32.7422 44.3047 35.2578 46.8047 38.3594 46.8047C41.4609 46.8047 43.9766 44.3047 43.9766 41.2188C43.9766 38.4375 41.9375 36.125 39.2734 35.6953L41.9531 32.0156L39.4531 30.2031L33.8203 37.9219C33.1406 38.8437 32.7422 39.9844 32.7422 41.2109ZM40.7734 41.2109C40.7734 42.5391 39.6953 43.6172 38.3594 43.6172C37.0312 43.6172 35.9453 42.5391 35.9453 41.2109C35.9453 39.8828 37.0312 38.8125 38.3594 38.8125C39.6953 38.8125 40.7734 39.8828 40.7734 41.2109Z" fill="#7D64FF"/>
</svg>
