<svg width="60" height="60" viewBox="0 0 60 60" fill="none" xmlns="http://www.w3.org/2000/svg">
<path d="M32.9476 19.5115C31.9334 19.6687 30.7633 20.029 30.0294 20.6404C30.391 22.3686 31.9447 20.3591 33.0667 20.7215C34.4921 20.5763 33.8872 19.1957 32.9476 19.5115Z" fill="#FFFF99"/>
<path fill-rule="evenodd" clip-rule="evenodd" d="M33.8496 20.4873C33.7002 20.655 33.4459 20.7744 33.0759 20.8121L33.0569 20.814L33.0387 20.8082C32.7874 20.727 32.5037 20.7763 32.2003 20.8847C32.0496 20.9385 31.8976 21.0056 31.7459 21.075C31.7096 21.0916 31.6732 21.1084 31.6369 21.1252C31.5225 21.1781 31.4084 21.2308 31.2982 21.2771C31.013 21.3968 30.7221 21.4887 30.4741 21.4188C30.2114 21.3448 30.0334 21.1041 29.9403 20.6591L29.9291 20.6055L29.9711 20.5704C30.7221 19.9448 31.9079 19.5814 32.9261 19.4227C33.4413 19.2538 33.8775 19.5462 33.9817 19.9191C34.0347 20.1086 34.0007 20.3176 33.8496 20.4873ZM33.8063 19.9682C33.7301 19.6953 33.3977 19.4563 32.9766 19.5978L32.9692 19.6003L32.9616 19.6015C31.973 19.7547 30.8479 20.1008 30.1304 20.6754C30.2196 21.0543 30.3653 21.199 30.5234 21.2435C30.7034 21.2943 30.9389 21.2305 31.2276 21.1092C31.3347 21.0642 31.4447 21.0134 31.5584 20.9609C31.5952 20.9439 31.6324 20.9267 31.6701 20.9095C31.8227 20.8396 31.9806 20.7698 32.139 20.7132C32.4473 20.6031 32.7715 20.5375 33.0758 20.629C33.4075 20.5922 33.6067 20.4862 33.7136 20.3662C33.8205 20.2462 33.8439 20.1025 33.8063 19.9682Z" fill="#816647"/>
<path d="M32.0803 16.8288C31.0545 16.7968 29.8381 16.9359 29.0043 17.402C29.042 19.1671 30.9387 17.4776 31.9748 18.0401C33.4027 18.1595 33.0619 16.6911 32.0803 16.8288Z" fill="#FFFF99"/>
<path fill-rule="evenodd" clip-rule="evenodd" d="M32.7873 17.9539C32.6097 18.0912 32.3378 18.1618 31.9672 18.1309L31.9481 18.1293L31.9313 18.1202C31.6992 17.9941 31.4113 17.9905 31.0931 18.0412C30.9351 18.0664 30.7734 18.1044 30.6115 18.1448C30.5728 18.1544 30.5339 18.1643 30.4952 18.1741C30.373 18.205 30.2511 18.2358 30.1343 18.261C29.832 18.3263 29.5292 18.3632 29.2982 18.2489C29.0536 18.1278 28.9229 17.8585 28.9132 17.4039L28.912 17.3492L28.9598 17.3225C29.813 16.8456 31.0453 16.7063 32.0754 16.7376C32.6129 16.6663 32.9878 17.0339 33.0217 17.4196C33.0389 17.6157 32.9672 17.8148 32.7873 17.9539ZM32.8403 17.4356C32.8155 17.1533 32.5328 16.8573 32.0928 16.919L32.0851 16.9201L32.0774 16.9199C31.0774 16.8887 29.9079 17.022 29.0971 17.455C29.115 17.8438 29.2317 18.0128 29.3789 18.0857C29.5465 18.1686 29.7897 18.1492 30.0958 18.083C30.2093 18.0585 30.3267 18.0288 30.4482 17.9981C30.4875 17.9882 30.5272 17.9781 30.5674 17.9681C30.7302 17.9275 30.8983 17.8879 31.0644 17.8614C31.3878 17.8098 31.7185 17.805 32.0007 17.9508C32.3335 17.9756 32.5488 17.9081 32.6759 17.8098C32.8031 17.7115 32.8525 17.5745 32.8403 17.4356Z" fill="#816647"/>
<path d="M35.0097 22.2285C33.9997 22.4105 32.8388 22.7995 32.1202 23.4288C32.5242 25.1475 34.0281 23.1005 35.1586 23.4352C36.58 23.2549 35.9413 21.8896 35.0097 22.2285Z" fill="#FFFF99"/>
<path fill-rule="evenodd" clip-rule="evenodd" d="M35.9356 23.1818C35.7904 23.3531 35.5391 23.4787 35.1701 23.5255L35.1512 23.5279L35.1328 23.5225C34.8796 23.4475 34.5972 23.5038 34.2965 23.6196C34.1473 23.6772 33.997 23.7479 33.847 23.8211C33.8111 23.8386 33.7752 23.8563 33.7393 23.8739C33.6262 23.9296 33.5134 23.9851 33.4044 24.0341C33.1223 24.1608 32.8337 24.2598 32.584 24.1961C32.3196 24.1286 32.1357 23.8923 32.0317 23.4497L32.0192 23.3964L32.0603 23.3603C32.7957 22.7164 33.9721 22.3239 34.9862 22.1402C35.4971 21.9587 35.9403 22.2402 36.0537 22.6105C36.1113 22.7987 36.0825 23.0084 35.9356 23.1818ZM35.8796 22.6638C35.7966 22.3929 35.4584 22.1622 35.041 22.314L35.0336 22.3167L35.026 22.3181C34.0415 22.4955 32.9253 22.8692 32.2222 23.4614C32.3206 23.8379 32.4699 23.979 32.629 24.0196C32.8102 24.0659 33.0441 23.9963 33.3297 23.868C33.4356 23.8204 33.5443 23.7669 33.6567 23.7116C33.6931 23.6937 33.7299 23.6756 33.7671 23.6574C33.9179 23.5838 34.0741 23.5102 34.2311 23.4497C34.5366 23.332 34.8591 23.2585 35.1655 23.3425C35.4962 23.2975 35.6928 23.1867 35.7966 23.0641C35.9006 22.9414 35.9204 22.7972 35.8796 22.6638Z" fill="#816647"/>
<path d="M36.8034 25.5928C35.7487 25.2197 33.5022 27.0061 35.3997 27.2366C36.0055 26.6135 36.9364 26.8479 37.7693 26.7072C38.7736 25.9498 37.5081 25.4249 36.8034 25.5928Z" fill="#FFFF99"/>
<path fill-rule="evenodd" clip-rule="evenodd" d="M36.8082 25.4983C36.5204 25.4064 36.1695 25.456 35.8413 25.5742C35.5011 25.6967 35.1698 25.8985 34.932 26.122C34.8131 26.2337 34.7148 26.3535 34.6512 26.4744C34.5878 26.595 34.5554 26.7237 34.5809 26.8483C34.607 26.9757 34.6902 27.0825 34.8253 27.1628C34.9585 27.2419 35.1447 27.2974 35.3886 27.327L35.4334 27.3324L35.4649 27.3001C35.7452 27.0117 36.1029 26.9178 36.5073 26.8817C36.6665 26.8675 36.8295 26.8624 36.9967 26.8572C37.0428 26.8557 37.0892 26.8543 37.136 26.8526C37.3505 26.8451 37.5699 26.8332 37.7844 26.797L37.8063 26.7933L37.824 26.7799C38.0832 26.5844 38.2174 26.3885 38.2318 26.1968C38.2467 26.0005 38.1344 25.8423 37.981 25.7296C37.8275 25.6168 37.6206 25.5392 37.4093 25.5C37.2073 25.4626 36.9935 25.4589 36.8082 25.4983ZM35.367 27.1405C35.687 26.8318 36.0844 26.7367 36.4911 26.7003C36.6561 26.6856 36.8261 26.6803 36.9941 26.6751C37.0394 26.6736 37.0846 26.6722 37.1296 26.6707C37.3351 26.6634 37.5369 26.6524 37.732 26.621C37.9614 26.4437 38.0418 26.2947 38.0503 26.1831C38.0586 26.0732 37.9987 25.9686 37.8732 25.8764C37.7478 25.7843 37.569 25.7148 37.3761 25.6791C37.1836 25.6434 36.9856 25.6429 36.8244 25.6813L36.7983 25.6876L36.773 25.6786C36.538 25.5955 36.2237 25.63 35.903 25.7455C35.5847 25.8602 35.2752 26.0494 35.0567 26.2547C34.9475 26.3574 34.8638 26.4614 34.8124 26.5592C34.7607 26.6574 34.7451 26.7423 34.7593 26.8118C34.7729 26.8784 34.8172 26.9461 34.9184 27.0062C35.0148 27.0635 35.1599 27.1117 35.367 27.1405Z" fill="#816647"/>
<path d="M39.8239 37.4559C38.4128 37.9067 39.8256 38.9404 40.7098 38.6203C41.35 38.6283 42.0036 38.5898 42.6274 38.6722C43.7056 38.0678 42.4081 37.1917 41.635 37.4559L39.8239 37.4559Z" fill="#FFFF99"/>
<path fill-rule="evenodd" clip-rule="evenodd" d="M43.1265 38.1999C43.104 38.4043 42.9543 38.5933 42.672 38.7516L42.6455 38.7664L42.6155 38.7624C42.1716 38.7038 41.7151 38.7073 41.2519 38.7109C41.0771 38.7122 40.9013 38.7135 40.7249 38.7116C40.4865 38.7934 40.2197 38.7858 39.9778 38.7251C39.7307 38.6631 39.5003 38.5432 39.3433 38.393C39.1881 38.2446 39.0879 38.0479 39.1565 37.844C39.2229 37.6461 39.4359 37.4843 39.7963 37.3692L39.8098 37.3649L41.6203 37.3649C41.8311 37.2969 42.0699 37.3051 42.2904 37.3613C42.5162 37.4188 42.7312 37.5288 42.8869 37.6711C43.0415 37.8124 43.1488 37.9968 43.1265 38.1999ZM42.2454 37.5377C42.044 37.4864 41.8367 37.4832 41.6645 37.5421L41.6502 37.547L39.8383 37.547C39.503 37.6565 39.3664 37.7908 39.3291 37.902C39.2932 38.0087 39.3369 38.135 39.4691 38.2614C39.5994 38.3859 39.7998 38.4927 40.0222 38.5485C40.2443 38.6043 40.4792 38.607 40.6789 38.5347L40.6944 38.5291L40.711 38.5293C40.8846 38.5314 41.0608 38.5301 41.2381 38.5287C41.6955 38.5252 42.1607 38.5217 42.6087 38.5779C42.8459 38.4388 42.9326 38.2975 42.9455 38.18C42.959 38.0572 42.8957 37.9258 42.7641 37.8055C42.6336 37.6863 42.4466 37.589 42.2454 37.5377Z" fill="#816647"/>
<path d="M42.1659 42.8665C40.9601 42.2995 39.9316 44.2424 41.5854 44.0493C42.3988 43.8253 43.8038 44.4912 44.1355 43.4487C44.0147 42.4956 42.7675 43.0133 42.1659 42.8665Z" fill="#FFFF99"/>
<path fill-rule="evenodd" clip-rule="evenodd" d="M42.1959 42.78C41.5425 42.4786 40.9398 42.8536 40.7224 43.276C40.6131 43.4883 40.5891 43.7379 40.7378 43.9232C40.8848 44.1063 41.1717 44.1893 41.5959 44.1397L41.6028 44.1389L41.6095 44.1371C41.7975 44.0853 42.0249 44.0839 42.275 44.0984C42.3632 44.1036 42.4551 44.1108 42.5484 44.1182C42.7126 44.1311 42.8808 44.1443 43.0395 44.147C43.2907 44.1511 43.5395 44.1299 43.7494 44.0336C43.9644 43.9349 44.1317 43.7607 44.2222 43.4763L44.2283 43.4572L44.2258 43.4373C44.1926 43.1756 44.079 43.0029 43.9089 42.8987C43.7447 42.798 43.5388 42.7683 43.3328 42.7642C43.1736 42.761 43.0043 42.7732 42.8438 42.7848C42.7965 42.7882 42.75 42.7916 42.7047 42.7945C42.5044 42.8073 42.33 42.8108 42.1959 42.78ZM41.5681 43.9596C41.7853 43.9013 42.0358 43.9021 42.2856 43.9167C42.3821 43.9223 42.4776 43.9298 42.5722 43.9373C42.7316 43.9499 42.8884 43.9623 43.0425 43.9649C43.2858 43.9689 43.5013 43.9471 43.6735 43.8681C43.836 43.7935 43.966 43.6652 44.0424 43.4403C44.0124 43.2378 43.9266 43.1231 43.8138 43.0539C43.6914 42.979 43.5253 42.9502 43.3292 42.9463C43.1792 42.9433 43.0216 42.9546 42.8627 42.9661C42.8139 42.9696 42.7651 42.9731 42.7163 42.9762C42.514 42.9891 42.31 42.9954 42.1443 42.9549L42.1354 42.9528L42.1271 42.9489C41.5781 42.6907 41.0681 43.0022 40.8843 43.3593C40.7924 43.5378 40.794 43.7023 40.8798 43.8092C40.9669 43.9177 41.1698 44.0049 41.5681 43.9596Z" fill="#816647"/>
<path d="M39.7935 48.2814C38.1139 49.0989 41.2587 50.0756 41.2074 50.4045C41.5726 50.9913 41.6023 51.2461 41.906 51.4012C43.2861 51.6974 42.6138 50.041 41.9647 49.5772C41.3626 48.966 40.6677 48.4296 39.7935 48.2814Z" fill="#FFFF99"/>
<path fill-rule="evenodd" clip-rule="evenodd" d="M39.7799 48.1867L39.8087 48.1916C40.7087 48.3442 41.4188 48.8943 42.0241 49.5078C42.1971 49.6333 42.3659 49.8321 42.501 50.0518C42.638 50.2746 42.7451 50.5267 42.7859 50.7584C42.8261 50.9864 42.8055 51.2183 42.653 51.3708C42.4991 51.5246 42.2425 51.5665 41.8868 51.4902L41.8752 51.4877L41.8645 51.4823C41.6909 51.3936 41.5965 51.2746 41.501 51.1105C41.4661 51.0506 41.4323 50.9872 41.3948 50.917C41.3274 50.7907 41.2482 50.6424 41.1301 50.4526L41.1122 50.4239L41.1159 50.4002C41.1146 50.3981 41.1127 50.3952 41.1097 50.3914C41.0968 50.3749 41.0735 50.3526 41.037 50.3246C40.9645 50.2689 40.8572 50.2032 40.7265 50.1279C40.6647 50.0923 40.5981 50.0548 40.5286 50.0157C40.3082 49.8915 40.0581 49.7507 39.8386 49.6015C39.6937 49.503 39.5586 49.3985 39.4514 49.2896C39.345 49.1816 39.26 49.0631 39.2252 48.9358C39.189 48.8033 39.2094 48.6687 39.2998 48.5412C39.3872 48.4179 39.5372 48.3049 39.7536 48.1995L39.7799 48.1867ZM41.118 50.4043C41.118 50.4043 41.118 50.4041 41.1179 50.4038C41.118 50.4041 41.118 50.4043 41.118 50.4043ZM39.8071 48.3762C39.6195 48.4707 39.5079 48.5625 39.4484 48.6465C39.3891 48.7302 39.3792 48.8086 39.4009 48.8878C39.4239 48.9721 39.4848 49.064 39.5811 49.1618C39.6766 49.2588 39.801 49.3557 39.941 49.4509C40.1534 49.5953 40.3936 49.7306 40.6128 49.854C40.6837 49.894 40.7525 49.9327 40.8174 49.9701C40.9479 50.0453 41.0648 50.1163 41.1479 50.1802C41.1892 50.2119 41.2266 50.2451 41.2533 50.2794C41.2723 50.3038 41.2929 50.3376 41.2979 50.3777C41.4109 50.5609 41.4947 50.7175 41.5622 50.8434C41.5983 50.9109 41.6297 50.9696 41.6584 51.019C41.7427 51.1638 41.8134 51.249 41.9369 51.3147C42.2636 51.3826 42.4374 51.3288 42.5243 51.242C42.6136 51.1527 42.6431 50.997 42.6066 50.79C42.5707 50.5866 42.4743 50.3562 42.3458 50.1472C42.2172 49.9379 42.0611 49.758 41.9117 49.6512L41.9053 49.6467L41.8998 49.6411C41.309 49.0413 40.6395 48.5264 39.8071 48.3762Z" fill="#816647"/>
<path fill-rule="evenodd" clip-rule="evenodd" d="M41.5437 51.0787L41.5393 51.0611L41.716 51.0171L41.7204 51.0346L41.5437 51.0787Z" fill="#816647"/>
<path d="M35.9806 54.099C34.4486 54.6357 36.3311 55.5975 37.0662 55.8237C36.8505 56.7407 38.153 58.002 38.3838 56.5329C38.5145 55.064 37.2201 54.3783 35.9806 54.099Z" fill="#FFFF99"/>
<path fill-rule="evenodd" clip-rule="evenodd" d="M35.9751 54.0044L36.0005 54.0102C36.6272 54.1514 37.2767 54.397 37.7547 54.8003C38.2366 55.2069 38.5427 55.7733 38.4744 56.541L38.4742 56.544L38.4737 56.547C38.4146 56.9233 38.2823 57.1585 38.0902 57.2526C37.8944 57.3484 37.679 57.2783 37.5028 57.1459C37.3244 57.0117 37.1655 56.8003 37.0648 56.5636C36.975 56.3526 36.9286 56.1142 36.9618 55.8857C36.5784 55.7556 35.9714 55.4706 35.6121 55.1453C35.4241 54.9752 35.275 54.7679 35.3106 54.5485C35.3468 54.3254 35.5632 54.1487 35.9504 54.0131L35.9751 54.0044ZM35.9861 54.1937C35.6266 54.3239 35.5086 54.465 35.4903 54.5777C35.471 54.6967 35.5512 54.8446 35.7343 55.0103C36.0916 55.3337 36.7321 55.6257 37.0929 55.7367L37.1742 55.7618L37.1548 55.8446C37.1065 56.05 37.1423 56.2806 37.2324 56.4923C37.3225 56.7042 37.4631 56.8882 37.6122 57.0003C37.7636 57.1141 37.9035 57.1412 38.0101 57.089C38.1201 57.0352 38.2369 56.8779 38.2933 56.5218C38.3546 55.8222 38.0791 55.3123 37.6372 54.9395C37.1971 54.5681 36.5906 54.3326 35.9861 54.1937Z" fill="#816647"/>
<path d="M21.549 57.4139C20.8927 57.844 20.1526 58.0677 19.4008 58.0633C18.6489 58.0589 17.9108 57.8265 17.2582 57.3888C16.6055 56.951 16.0605 56.3228 15.6761 55.565C15.2917 54.8073 15.0809 53.9459 15.0642 53.0644C15.0475 52.1829 15.2255 51.3113 15.5809 50.5343C15.9363 49.7574 16.457 49.1014 17.0925 48.6301C17.7279 48.1588 18.4565 47.8883 19.2074 47.8448C19.9584 47.8013 20.7062 47.9863 21.3781 48.3818" fill="#66CC33"/>
<path fill-rule="evenodd" clip-rule="evenodd" d="M21.3461 48.4361C20.6844 48.0467 19.949 47.865 19.211 47.9077C18.473 47.9505 17.7561 48.2164 17.1299 48.6807C16.5037 49.1452 15.9895 49.7925 15.6382 50.5606C15.2868 51.3287 15.1106 52.1908 15.1271 53.0632C15.1436 53.9355 15.3523 54.7876 15.7322 55.5365C16.1122 56.2854 16.6503 56.9052 17.2932 57.3364C17.9361 57.7676 18.6622 57.9959 19.4011 58.0003C20.14 58.0046 20.8679 57.7848 21.5144 57.3612L21.5835 57.4667C20.9172 57.9032 20.1651 58.1308 19.4003 58.1263C18.6355 58.1218 17.8854 57.8854 17.223 57.4411C16.5607 56.9969 16.0087 56.3601 15.6198 55.5936C15.2309 54.827 15.0179 53.9562 15.0011 53.0656C14.9842 52.1749 15.1641 51.294 15.5235 50.5081C15.883 49.7223 16.4102 49.0576 17.0549 48.5795C17.6996 48.1013 18.4399 47.8261 19.2037 47.7819C19.9676 47.7376 20.7277 47.9258 21.41 48.3274L21.3461 48.4361Z" fill="#015A01"/>
<path d="M17.927 52.2338C18.0658 51.1219 18.5336 50.0981 19.2612 49.3137C19.9887 48.5292 20.9375 48.0258 21.9672 47.8777C22.9969 47.7297 24.053 47.945 24.9792 48.4917C25.9055 49.0384 26.6528 49.8875 27.1108 50.9136C27.5687 51.9397 27.713 53.0883 27.5222 54.1895C27.3315 55.2908 26.8158 56.2864 26.0515 57.0291C25.2872 57.7718 24.3148 58.2222 23.2779 58.3137C22.2411 58.4053 21.195 58.1331 20.2941 57.5375" fill="#66CC33"/>
<path fill-rule="evenodd" clip-rule="evenodd" d="M21.9762 47.9401C20.9612 48.086 20.0254 48.5823 19.3074 49.3565C18.5892 50.1308 18.1268 51.1422 17.9895 52.2416L17.8644 52.226C18.0048 51.1017 18.4779 50.0654 19.2149 49.2708C19.952 48.4761 20.9138 47.9655 21.9582 47.8154C23.0026 47.6652 24.0731 47.8837 25.0113 48.4374C25.9493 48.991 26.7053 49.8504 27.1683 50.8879C27.6313 51.9254 27.7772 53.0866 27.5843 54.2003C27.3914 55.314 26.8698 56.3219 26.0954 57.0743C25.321 57.8268 24.3351 58.2837 23.2835 58.3765C22.2319 58.4694 21.1716 58.1933 20.2593 57.5901L20.3288 57.4849C21.2183 58.073 22.2503 58.3412 23.2724 58.251C24.2944 58.1607 25.2534 57.7167 26.0076 56.9839C26.7618 56.2509 27.2715 55.2676 27.4601 54.1788C27.6487 53.0899 27.5061 51.954 27.0532 50.9393C26.6003 49.9246 25.8616 49.0857 24.9472 48.546C24.0328 48.0063 22.9912 47.7942 21.9762 47.9401Z" fill="#015A01"/>
<path d="M21.188 52.9442C20.7797 51.7934 20.8496 50.6571 21.3867 49.7159C21.9238 48.7747 22.8973 48.0826 24.1523 47.7497C25.4073 47.4168 26.8719 47.4622 28.3132 47.8786C29.7546 48.295 31.0899 49.0586 32.107 50.0479C33.1241 51.0373 33.7646 52.1956 33.9266 53.3388C34.0886 54.482 33.7629 55.5444 33.0012 56.3572C32.2396 57.17 31.0856 57.6865 29.7229 57.8246C28.3601 57.9627 26.8668 57.7145 25.4802 57.1194" fill="#66CC33"/>
<path fill-rule="evenodd" clip-rule="evenodd" d="M32.0583 50.0906C31.0485 49.1084 29.7223 48.3499 28.291 47.9364C26.8595 47.5228 25.4081 47.4788 24.1678 47.8078C22.9281 48.1367 21.9715 48.8186 21.4445 49.7421C20.9174 50.6659 20.8466 51.7848 21.2505 52.9232L21.1254 52.9653C20.7126 51.802 20.7817 50.6482 21.3288 49.6896C21.876 48.7307 22.8663 48.0286 24.1366 47.6916C25.4063 47.3548 26.8842 47.4015 28.3353 47.8208C29.7867 48.2401 31.1312 49.0088 32.1556 50.0053C33.1799 51.0016 33.8276 52.1707 33.9917 53.3284C34.1559 54.4869 33.826 55.5677 33.0501 56.3956C32.2747 57.223 31.1034 57.7453 29.7271 57.8848C28.351 58.0242 26.8459 57.7734 25.4503 57.1744L25.5101 57.0643C26.8876 57.6555 28.3692 57.9012 29.7185 57.7645C31.0677 57.6277 32.2042 57.1171 32.9522 56.3189C33.6997 55.5212 34.0212 54.4771 33.8614 53.3493C33.7014 52.2205 33.0682 51.0729 32.0583 50.0906Z" fill="#015A01"/>
<path d="M23.7997 48.8682C24.0256 48.1032 24.5663 47.4724 25.3661 47.0405C26.1659 46.6087 27.1959 46.3914 28.3505 46.411C29.505 46.4305 30.7424 46.6863 31.9354 47.1519C33.1285 47.6176 34.2343 48.2763 35.1392 49.0605C36.0441 49.8446 36.7154 50.726 37.0843 51.6139C37.4531 52.5019 37.5062 53.3644 37.238 54.1129C36.9698 54.8614 36.39 55.469 35.5582 55.8731C34.7264 56.2772 33.6725 56.4633 32.505 56.4123" fill="#66CC33"/>
<path fill-rule="evenodd" clip-rule="evenodd" d="M35.0995 49.1087C34.2006 48.3297 33.1012 47.6746 31.9144 47.2114C30.7275 46.7482 29.4974 46.4941 28.3509 46.4747C27.2041 46.4552 26.1848 46.6712 25.3963 47.097C24.6083 47.5225 24.08 48.1413 23.8595 48.8879L23.7399 48.8486C23.9714 48.0652 24.5244 47.4223 25.336 46.9841C26.147 46.5462 27.1879 46.3276 28.3501 46.3473C29.5127 46.367 30.7573 46.6244 31.9566 47.0925C33.1559 47.5605 34.2681 48.2229 35.179 49.0123C36.0896 49.8015 36.7681 50.6907 37.1417 51.5902C37.5155 52.4901 37.5713 53.3696 37.2967 54.136C37.022 54.9025 36.4294 55.521 35.5861 55.9307C34.7432 56.3402 33.6789 56.5272 32.5038 56.4759L32.5063 56.3486C33.6663 56.3993 34.7096 56.2142 35.5304 55.8154C36.3506 55.4169 36.9176 54.8204 37.1794 54.0898C37.4412 53.3592 37.3909 52.5137 37.027 51.6377C36.6629 50.7612 35.9986 49.8878 35.0995 49.1087Z" fill="#015A01"/>
<path d="M27.2008 51.1425C26.2484 50.2804 25.665 49.3147 25.5273 48.3723C25.3895 47.43 25.7038 46.5552 26.4289 45.8628C27.154 45.1705 28.256 44.6931 29.5898 44.4934C30.9237 44.2936 32.4271 44.381 33.9024 44.7438C35.3777 45.1067 36.7558 45.7281 37.8555 46.5264C38.9552 47.3247 39.7251 48.2625 40.0639 49.2165C40.4027 50.1705 40.2946 51.0961 39.7538 51.8715C39.213 52.6469 38.2648 53.2359 37.0338 53.5611" fill="#66CC33"/>
<path fill-rule="evenodd" clip-rule="evenodd" d="M33.8888 44.8054C32.4205 44.4442 30.9253 44.3577 29.6003 44.556C28.2747 44.7545 27.1859 45.2282 26.4725 45.9093C25.7608 46.5889 25.4548 47.444 25.5893 48.3644C25.7243 49.2873 26.2971 50.2402 27.2421 51.0957L27.1595 51.1893C26.1998 50.3206 25.6058 49.342 25.4652 48.3803C25.3243 47.416 25.6469 46.5214 26.3854 45.8164C27.1222 45.1128 28.2372 44.6317 29.5794 44.4307C30.9222 44.2296 32.4338 44.3177 33.9161 44.6823C35.3983 45.0469 36.7842 45.6715 37.8914 46.4752C38.9981 47.2786 39.7784 48.2262 40.1229 49.1962C40.4682 50.1685 40.3584 51.1157 39.8053 51.9087C39.2537 52.6996 38.2909 53.2948 37.0509 53.6224L37.0168 53.4998C38.2386 53.177 39.1722 52.5943 39.7023 51.8343C40.2308 51.0765 40.3372 50.1725 40.0049 49.2368C39.6718 48.2988 38.9123 47.3708 37.8196 46.5776C36.7274 45.7847 35.3571 45.1665 33.8888 44.8054Z" fill="#015A01"/>
<path d="M26.8503 46.2963C26.634 45.4587 26.7438 44.5983 27.1693 43.7969C27.5949 42.9954 28.322 42.2795 29.2816 41.7171C30.2412 41.1547 31.4014 40.7645 32.6521 40.5836C33.9028 40.4027 35.2023 40.4371 36.4274 40.6834C37.6524 40.9298 38.7622 41.38 39.6514 41.9913C40.5406 42.6026 41.1796 43.3547 41.5077 44.1761C41.8359 44.9974 41.8423 45.8609 41.5263 46.6844C41.2104 47.5079 40.5825 48.2641 39.7025 48.8811" fill="#66CC33"/>
<path fill-rule="evenodd" clip-rule="evenodd" d="M36.415 40.7452C35.1971 40.5003 33.9048 40.4661 32.6612 40.646C31.4175 40.8259 30.2652 41.2137 29.3135 41.7715C28.3617 42.3293 27.644 43.0374 27.2251 43.8264C26.8065 44.6147 26.6992 45.459 26.9114 46.2805L26.7893 46.312C26.5689 45.4584 26.6812 44.5819 27.1137 43.7673C27.5458 42.9534 28.2823 42.2297 29.2497 41.6627C30.2173 41.0957 31.3855 40.7031 32.6431 40.5212C33.9008 40.3393 35.2077 40.3738 36.4398 40.6217C37.6719 40.8694 38.7899 41.3226 39.6871 41.9394C40.5843 42.5562 41.2326 43.3174 41.5663 44.1527C41.9004 44.9887 41.9069 45.8686 41.5852 46.707C41.2639 47.5445 40.6268 48.3101 39.7387 48.9327L39.6663 48.8295C40.5384 48.2181 41.157 47.4712 41.4675 46.6618C41.7778 45.8532 41.7715 45.0061 41.4493 44.1994C41.1266 43.3919 40.4969 42.6491 39.6157 42.0433C38.7346 41.4375 37.633 40.9902 36.415 40.7452Z" fill="#015A01"/>
<path d="M31.4594 46.78C30.138 46.4517 29.015 45.9105 28.2293 45.2234C27.4436 44.5362 27.0298 43.7333 27.039 42.9139C27.0481 42.0945 27.4799 41.2946 28.2809 40.6131C29.0819 39.9317 30.217 39.3987 31.5456 39.08C32.8743 38.7613 34.3382 38.6709 35.7563 38.8201C37.1744 38.9692 38.4844 39.3513 39.5243 39.9191C40.5642 40.4869 41.2882 41.2154 41.6069 42.0146C41.9256 42.8138 41.8249 43.6485 41.3173 44.4155" fill="#66CC33"/>
<path fill-rule="evenodd" clip-rule="evenodd" d="M35.7498 38.8828C34.3385 38.7343 32.8818 38.8243 31.5604 39.1413C30.2386 39.4583 29.1134 39.9878 28.3218 40.6611C27.5305 41.3343 27.111 42.1183 27.102 42.9146C27.0931 43.7107 27.495 44.4973 28.2708 45.1759C29.047 45.8548 30.1601 46.3923 31.4746 46.7188L31.4442 46.8412C30.116 46.5112 28.983 45.9663 28.1879 45.2708C27.3924 44.5751 26.9665 43.7558 26.976 42.9132C26.9854 42.0706 27.4295 41.2548 28.2401 40.5651C29.0506 39.8757 30.1955 39.339 31.531 39.0187C32.8669 38.6983 34.338 38.6075 35.763 38.7574C37.1877 38.9072 38.5061 39.2913 39.5546 39.8638C40.6025 40.4359 41.3396 41.1741 41.6655 41.9912C41.9924 42.8111 41.888 43.6674 41.3699 44.4503L41.2647 44.3807C41.7619 43.6295 41.8588 42.8164 41.5484 42.0379C41.2369 41.2568 40.526 40.5378 39.4941 39.9744C38.4629 39.4113 37.1612 39.0312 35.7498 38.8828Z" fill="#015A01"/>
<path d="M40.3305 40.8612C41.0223 39.5991 40.562 38.4303 39.2624 37.4337C40.1137 34.9619 38.0502 29.0089 34.3554 24.5729C34.162 24.3407 33.8941 24.1548 33.5675 24.0126C32.7006 20.8715 29.9047 20.0148 27.4216 20.7076C24.0889 21.6376 21.1575 22.5408 21.1575 24.8049C21.1575 25.9866 21.9222 27.0509 23.1449 27.799C23.1014 27.8944 23.0616 27.9899 23.0267 28.088C22.119 31.9822 25.2824 37.2424 26.673 38.8389C26.6933 38.8622 26.714 38.8821 26.7343 38.9045C25.9535 40.7837 27.6603 42.7604 30.9016 43.5227" fill="#66CC33"/>
<path fill-rule="evenodd" clip-rule="evenodd" d="M33.6201 23.967C33.1788 22.3962 32.2557 21.3905 31.1272 20.8653C29.9934 20.3376 28.6579 20.2972 27.4046 20.6469L27.4193 20.6996L27.4046 20.6469C25.7398 21.1115 24.1664 21.5715 23.0096 22.2006C21.852 22.8301 21.0944 23.6386 21.0944 24.8049C21.0944 26.0006 21.858 27.0701 23.0647 27.8236C23.0294 27.9036 22.9967 27.9842 22.9672 28.0668L22.966 28.0702L22.9652 28.0736C22.5068 30.0405 23.077 32.3444 23.9299 34.3498C24.7834 36.3565 25.9253 38.0765 26.6254 38.8803C26.6366 38.8931 26.6478 38.9049 26.6581 38.9156C26.6589 38.9165 26.6598 38.9174 26.6606 38.9183C26.2809 39.8724 26.5252 40.8466 27.2625 41.6744C28.008 42.5113 29.2582 43.201 30.8871 43.5841L30.916 43.4614C29.3036 43.0822 28.0797 42.4023 27.3567 41.5905C26.6352 40.7805 26.4131 39.8417 26.7925 38.9287L26.8078 38.8919L26.781 38.8623C26.7714 38.8516 26.7617 38.8415 26.7527 38.8322L26.7491 38.8284C26.7389 38.8178 26.7296 38.8079 26.7205 38.7975C26.03 38.0048 24.8948 36.2964 24.0459 34.3004C23.1969 32.3042 22.6394 30.0324 23.0872 28.1057C23.1211 28.0109 23.1598 27.9182 23.2022 27.8252L23.2253 27.7744L23.1777 27.7453C21.9662 27.004 21.2204 25.9571 21.2204 24.8049C21.2204 23.7071 21.9285 22.932 23.0698 22.3114C24.2118 21.6903 25.7705 21.2338 27.4384 20.7683C28.6683 20.4252 29.9723 20.4668 31.074 20.9796C32.174 21.4915 33.0779 22.4756 33.5066 24.0294L33.5146 24.0584L33.5422 24.0704C33.8622 24.2097 34.1212 24.3904 34.3069 24.6133C36.1495 26.8255 37.5856 29.4164 38.4545 31.7618C38.889 32.9344 39.1812 34.0443 39.3119 35.0136C39.4428 35.9842 39.411 36.8085 39.2028 37.4132L39.188 37.4561L39.224 37.4837C39.868 37.9776 40.2977 38.5094 40.4833 39.0678C40.6683 39.6239 40.6136 40.2135 40.2752 40.8309L40.3857 40.8915C40.7391 40.2468 40.8001 39.621 40.603 39.028C40.4102 38.4481 39.9727 37.9066 39.3364 37.4112C39.5406 36.7848 39.5659 35.9542 39.4368 34.9968C39.3046 34.0161 39.0096 32.8971 38.5728 31.718C37.6991 29.3599 36.256 26.7563 34.4038 24.5326C34.2082 24.2977 33.9411 24.1106 33.6201 23.967Z" fill="#015A01"/>
<path d="M21.4548 23.794C20.705 23.3181 20.1616 22.6961 19.8801 21.9917C19.5986 21.2872 19.5891 20.5255 19.8525 19.7843C20.1159 19.043 20.6428 18.3488 21.3794 17.7723C22.1161 17.1959 23.036 16.758 24.0455 16.5032C25.0549 16.2485 26.1177 16.186 27.1254 16.3222C28.133 16.4584 29.0495 16.7884 29.7812 17.2785C30.513 17.7686 31.0338 18.4012 31.2905 19.1119C31.5472 19.8226 31.5307 20.5858 31.2426 21.3238" fill="#66CC33"/>
<path fill-rule="evenodd" clip-rule="evenodd" d="M27.1169 16.3846C26.1174 16.2495 25.0627 16.3115 24.0608 16.5643C23.0589 16.8172 22.1472 17.2516 21.4182 17.822C20.6892 18.3924 20.1705 19.0774 19.9118 19.8054C19.6534 20.5328 19.663 21.2787 19.9386 21.9683C20.2144 22.6584 20.7479 23.2707 21.4885 23.7408L21.4209 23.8472C20.6619 23.3654 20.1087 22.7338 19.8215 22.0151C19.5341 21.2958 19.5247 20.5183 19.793 19.7632C20.0612 19.0087 20.5963 18.3051 21.3405 17.7227C22.0848 17.1403 23.013 16.6988 24.03 16.4421C25.0471 16.1854 26.1179 16.1224 27.1338 16.2597C28.1495 16.397 29.0754 16.7299 29.8162 17.2261C30.5572 17.7224 31.0877 18.3652 31.3497 19.0905C31.6119 19.8163 31.5946 20.5953 31.3012 21.3467L31.1838 21.3008C31.4667 20.5764 31.4824 19.8289 31.2311 19.1333C30.9797 18.4373 30.4686 17.8147 29.7461 17.3308C29.0235 16.8469 28.1165 16.5197 27.1169 16.3846Z" fill="#015A01"/>
<path d="M20.387 19.1319C19.6829 18.5411 19.2122 17.8221 19.0253 17.0515C18.8384 16.281 18.9422 15.4879 19.3257 14.757C19.7092 14.0261 20.3579 13.3849 21.2026 12.9018C22.0473 12.4187 23.0562 12.1118 24.1215 12.0141C25.1869 11.9163 26.2687 12.0313 27.2513 12.3467C28.234 12.6622 29.0806 13.1662 29.7008 13.805C30.3209 14.4438 30.6913 15.1933 30.7723 15.9736C30.8534 16.7539 30.6421 17.5355 30.1609 18.235" fill="#66CC33"/>
<path fill-rule="evenodd" clip-rule="evenodd" d="M27.2321 12.4067C26.2578 12.094 25.1846 11.9798 24.1273 12.0769C23.0701 12.1739 22.07 12.4783 21.2339 12.9565C20.3978 13.4347 19.7585 14.0678 19.3816 14.7863C19.0049 15.5042 18.9035 16.2817 19.0866 17.0367C19.2699 17.7921 19.7321 18.5001 20.4276 19.0836L20.3465 19.1802C19.6338 18.5822 19.1547 17.852 18.9641 17.0664C18.7734 16.2803 18.8796 15.4716 19.2699 14.7277C19.6599 13.9844 20.3181 13.3351 21.1713 12.8471C22.0246 12.359 23.0424 12.0498 24.1158 11.9513C25.1893 11.8528 26.2796 11.9686 27.2706 12.2867C28.2616 12.6048 29.1176 13.1138 29.746 13.7611C30.3747 14.4086 30.7524 15.1709 30.8351 15.9671C30.9178 16.7635 30.7018 17.56 30.2129 18.2708L30.109 18.1993C30.5824 17.511 30.7891 16.7442 30.7097 15.9801C30.6303 15.2158 30.2673 14.479 29.6556 13.8489C29.0437 13.2186 28.2065 12.7195 27.2321 12.4067Z" fill="#015A01"/>
<path d="M22.8781 16.796C21.7518 16.4368 20.8027 15.8266 20.1615 15.0494C19.5203 14.2722 19.2184 13.3662 19.2975 12.4561C19.3766 11.546 19.8327 10.6764 20.6031 9.96721C21.3735 9.25797 22.4203 8.74388 23.5994 8.49569C24.7785 8.24749 26.032 8.2774 27.1873 8.58129C28.3427 8.88518 29.3431 9.44812 30.0508 10.1926C30.7586 10.9371 31.139 11.8266 31.1396 12.7386C31.1402 13.6507 30.761 14.5404 30.0542 15.2855" fill="#66CC33"/>
<path fill-rule="evenodd" clip-rule="evenodd" d="M27.1713 8.64224C26.0256 8.34086 24.782 8.31116 23.6124 8.55735C22.4427 8.80357 21.4067 9.31311 20.6459 10.0136C19.8852 10.7138 19.4379 11.5694 19.3604 12.4615C19.2829 13.3534 19.5783 14.2434 20.2102 15.0093C20.8424 15.7756 21.7805 16.3798 22.8973 16.7359L22.859 16.856C21.7232 16.4938 20.7631 15.8776 20.1129 15.0895C19.4624 14.301 19.1541 13.379 19.2348 12.4506C19.3154 11.5225 19.7803 10.639 20.5605 9.92082C21.3404 9.2028 22.398 8.68416 23.5865 8.43399C24.7751 8.1838 26.0385 8.21391 27.2034 8.52032C28.3682 8.82669 29.3795 9.39489 30.0966 10.1492C30.814 10.9038 31.2021 11.8083 31.2027 12.7386C31.2033 13.6689 30.8164 14.5737 30.1 15.3288L30.0086 15.2421C30.7057 14.5072 31.0772 13.6325 31.0766 12.7387C31.076 11.8449 30.7034 10.9704 30.0052 10.236C29.3067 9.50132 28.3172 8.94364 27.1713 8.64224Z" fill="#015A01"/>
<path d="M23.8147 14.119C22.6072 13.3747 21.7442 12.2563 21.3604 10.9385C20.9766 9.62063 21.0935 8.17741 21.6929 6.83398C22.2923 5.49055 23.3404 4.32247 24.6739 3.51197C26.0073 2.70148 27.5509 2.29416 29.064 2.35356C30.5771 2.41296 31.9745 2.93575 33.0382 3.84035C34.1019 4.74495 34.772 5.98049 34.9441 7.35421C35.1162 8.72793 34.7805 10.1626 33.9894 11.4343C33.1983 12.706 31.9963 13.7433 30.571 14.3843" fill="#66CC33"/>
<path fill-rule="evenodd" clip-rule="evenodd" d="M29.0615 2.4165C27.5612 2.3576 26.0297 2.76153 24.7066 3.56579C23.3834 4.37006 22.3443 5.52861 21.7504 6.85962C21.1566 8.19047 21.0416 9.61836 21.4209 10.9208C21.8002 12.2231 22.6531 13.3289 23.8477 14.0653L23.7816 14.1726C22.5613 13.4204 21.6882 12.2894 21.2999 10.9561C20.9115 9.62281 21.0303 8.16426 21.6353 6.80825C22.2402 5.45239 23.2974 4.27478 24.6411 3.45806C25.9847 2.64134 27.5406 2.23063 29.0665 2.29053C30.5924 2.35044 32.0036 2.87775 33.079 3.79228C34.1546 4.707 34.8326 5.95683 35.0066 7.34633C35.1806 8.73559 34.8409 10.1846 34.0429 11.4675C33.2449 12.7504 32.0331 13.7958 30.5968 14.4417L30.5451 14.3267C31.9596 13.6906 33.1517 12.6615 33.9358 11.4009C34.72 10.1404 35.0516 8.72017 34.8815 7.362C34.7114 6.00407 34.0491 4.78281 32.9973 3.88832C31.9453 2.99365 30.5618 2.4754 29.0615 2.4165Z" fill="#015A01"/>
<path d="M27.7212 2.48615C26.378 2.66209 25.0828 3.18804 23.9959 3.99637C24.2631 4.75654 24.6186 5.41192 24.5613 6.27164C25.0106 6.52105 25.0691 6.327 25.1953 6.90305C24.7968 7.00118 26.0798 7.19369 26.4077 7.13583C27.3429 6.67073 26.5509 5.38793 26.8062 4.57423C26.722 3.65385 27.1105 3.21879 27.7212 2.48615ZM26.8719 3.72933C27.0219 3.73261 26.7934 3.8626 26.8719 3.72933ZM22.9054 4.98621C21.8784 6.05565 21.23 7.48599 21.1151 8.96533C21.5191 9.45331 21.8479 9.98882 22.8442 9.89336C23.7785 9.84876 24.6741 10.8827 25.6153 10.1679C25.6559 9.3905 24.7545 8.69667 24.0586 8.40553C23.2716 8.00663 23.3787 7.10744 23.234 6.62224C22.9074 6.0664 23.146 6.29186 22.9405 5.57275C22.9099 5.37891 22.9021 5.18212 22.9055 4.98618L22.9054 4.98621ZM20.0513 10.5938C19.171 11.589 18.9865 13.1334 19.5785 14.3191C18.9634 15.1828 18.6118 16.427 19.1134 17.4159C19.7458 18.0987 20.2447 18.7836 20.8555 19.4429C21.2304 19.7511 23.0364 19.5396 22.523 18.759C22.7866 18.0498 23.3658 18.4189 24.0129 18.3552C23.9487 17.8495 23.0568 16.7967 23.7415 16.8056C23.355 16.7715 22.9812 16.872 22.5302 16.7573C22.3616 16.8431 21.6748 17.046 21.3077 17.2783C21.1028 16.9601 20.6139 16.6211 20.2877 16.3109C20.7486 15.8054 21.2029 15.4812 21.6447 14.6825C21.5415 13.8795 21.7474 12.9394 21.2841 12.1683C20.9645 11.5871 20.5896 10.9844 20.0514 10.5939L20.0513 10.5938ZM21.5834 12.7475C21.7763 12.8365 21.3957 12.8982 21.5834 12.7475ZM23.9911 12.8395C23.4113 13.4653 23.0009 12.7931 22.3451 13.3385C21.8069 13.8164 21.7657 14.6617 22.401 15.0491C22.6967 15.2273 22.9937 15.9961 23.2732 15.4003C23.5286 15.3851 23.7174 15.3471 24.1749 14.9451C24.7666 14.7526 25.4019 14.2747 24.7527 14.0915C24.6268 14.2784 24.6309 13.9463 24.442 13.8069C24.2778 13.9783 24.3653 12.9885 23.9911 12.8395ZM24.6959 13.9426C24.9252 14.0314 24.3608 14.2588 24.6959 13.9426ZM23.8247 15.431C24.2788 15.6516 25.0793 15.429 24.1465 15.4518C24.0386 15.4667 23.9321 15.4392 23.8247 15.431ZM24.7133 15.466C24.8514 15.5121 24.67 15.7056 24.7133 15.466ZM20.6335 16.5516C20.7459 16.5654 20.5716 16.6175 20.6335 16.5516ZM23.816 16.8055C23.9587 16.8055 23.6286 16.9135 23.816 16.8055ZM23.8466 16.8143C23.9398 16.8359 23.8057 16.8606 23.8466 16.8143ZM22.8529 18.3377C22.912 18.4205 22.7581 18.3529 22.8529 18.3377ZM23.1375 18.3683C23.4813 18.3896 22.8896 18.6164 23.1375 18.3683ZM20.3184 19.8348C19.0951 20.0011 19.5205 22.1283 20.5226 22.2636C20.9333 22.9398 21.9613 23.2608 22.3101 24.059C23.2364 24.3585 23.953 23.4841 23.7985 22.6013C24.4343 22.6948 25.4521 22.1042 25.2825 21.2661C24.4141 21.2499 23.6262 21.0766 22.8343 21.4669C21.6774 21.663 20.9444 20.6004 20.3184 19.8347L20.3184 19.8348ZM23.5971 20.9248C23.7388 21.0325 23.43 21.1472 23.5971 20.9248ZM23.5402 21.0342C23.4644 20.8006 23.3298 21.2955 23.5402 21.0342ZM23.7328 20.9248C24.138 20.9918 23.5035 21.0645 23.7328 20.9248ZM23.7941 21.0473C24.0613 21.0973 23.6836 21.1579 23.7941 21.0473ZM25.4225 21.3581C25.6264 21.6455 25.2709 21.5163 25.4225 21.3581ZM25.5626 24.4486C25.8555 24.6148 25.4853 24.6323 25.5626 24.4486ZM21.1325 24.4836C20.9047 25.8924 21.9369 27.1716 23.0761 27.8675C22.5465 28.9574 24.8867 28.2018 24.7167 27.3263C24.4604 27.0054 24.4548 26.7127 24.2318 26.436C24.9847 26.4524 25.5916 26.3833 26.368 25.8844C27.1359 25.8493 25.6812 24.4985 25.3068 24.612C24.7612 25.1002 23.9299 24.8431 23.3606 25.4467C22.7136 24.9689 21.9203 24.6296 21.1325 24.4836ZM24.8184 26.4667C25.0478 26.5974 24.6716 26.528 24.8184 26.4667ZM24.7615 27.0664C24.9868 27.1534 24.3331 27.252 24.7615 27.0664Z" fill="url(#paint0_linear_844_10584)"/>
<path d="M29.9715 38.9793C29.5436 39.2008 28.3871 39.2492 28.4335 39.528C28.9218 39.7491 27.7252 39.6962 28.2117 39.4171C27.7708 39.6814 27.8922 39.3366 27.7039 39.7454C27.3876 39.7026 27.5736 39.1204 27.0314 39.5455C26.1403 40.0025 26.7614 41.013 27.2246 41.5555C27.4187 42.0021 28.3724 41.0746 28.4656 41.886C29.0497 41.7054 29.6158 41.7278 30.2779 41.4833C30.8237 41.4415 31.195 42.2778 31.4116 41.9167C31.9375 41.8391 31.7432 42.4328 32.0906 41.935C32.4711 41.4191 32.8839 40.3616 32.4442 40.4014C32.2466 40.2513 32.1313 39.7145 32.4448 40.1832C32.7583 39.985 32.4552 39.8556 32.9437 39.8561C33.2789 39.5292 32.1641 40.0407 32.6636 39.6754C32.0126 39.7335 33.218 39.3431 32.3212 39.4172C31.7198 39.3085 30.4034 39.5043 30.2548 39.2775C30.7359 38.9612 29.9136 39.4195 29.9715 38.9793ZM27.774 39.4784C27.7461 39.2893 27.5713 39.4354 27.774 39.4784ZM30.5712 39.0888C30.8378 39.3335 30.1673 39.388 30.5712 39.0888ZM28.0103 39.3252C28.2625 39.5194 27.6046 39.4717 28.0103 39.3252ZM27.682 39.474C28.0714 39.7685 27.4202 39.5751 27.682 39.474ZM27.5594 39.5134C27.629 39.6592 27.4974 39.5978 27.5594 39.5134ZM32.6417 40.2619C32.8285 40.3905 32.396 40.3406 32.6417 40.2619ZM32.6986 41.1681C32.8183 41.4701 32.9379 41.7722 33.0576 42.0743C32.9695 41.7629 32.9367 41.4109 32.6986 41.1681ZM27.9097 43.1774C27.5255 43.5447 26.935 43.7656 26.8603 44.3592C26.4933 45.0354 26.9135 45.8789 27.5224 46.0136C27.8284 46.7123 28.799 46.5721 29.1616 47.2032C29.9556 47.3962 31.1039 47.2376 31.1855 46.2375C31.6238 45.0498 32.1367 46.945 32.8518 46.9491C33.2107 46.8383 33.3858 46.7991 33.6248 47.0421C33.8598 46.8511 34.2636 46.9533 34.5416 46.6093C34.7171 46.5095 34.9476 45.8716 34.433 45.6612C33.9927 45.3129 33.6176 44.0383 33.0289 44.8166C32.8698 44.5915 32.2464 44.3368 32.3153 44.7877C31.8828 45.1401 31.5407 44.789 31.8932 44.4293C31.0211 44.5573 30.2144 44.3866 29.3449 44.4004C28.946 44.5099 28.3001 44.4937 28.8508 44.0748C28.5991 43.7116 28.0587 43.6102 27.9097 43.1774ZM29.2054 44.1317C29.7416 44.3375 28.4332 44.2998 29.2054 44.1317ZM32.9307 44.4819C33.2325 44.6047 32.7957 44.6454 32.9307 44.4819ZM33.0883 44.5782C33.3077 44.6193 32.9269 44.8703 33.0883 44.5782ZM27.4763 46.0971C27.5902 46.2708 27.2621 46.1884 27.4763 46.0971ZM34.9178 46.2635C35.2739 46.3891 34.9688 46.4813 34.9178 46.2635ZM25.7468 46.7494C25.1559 47.1508 24.239 47.466 23.9346 48.067C24.3251 48.6159 24.6526 49.2111 24.8485 49.7918C25.1187 49.8998 25.742 50.661 25.5936 50.3126C25.4081 50.0654 26.3491 50.7788 25.7798 50.4604C25.526 50.8644 26.2827 51.5352 26.7208 50.9486C26.966 50.7626 27.5675 50.4471 27.1039 50.9517C26.6558 51.991 27.9602 52.6932 28.6973 52.6502C28.5817 53.0171 29.6553 52.8936 29.437 52.3744C30.1495 52.8263 30.1678 51.4582 30.3219 50.9965C30.3976 50.6737 30.4733 50.3509 30.549 50.0281C30.4113 50.2124 29.8832 50.0524 29.8934 50.1616C29.5343 49.8624 28.9112 50.4121 28.6797 50.1506C28.1745 50.0385 28.0199 49.6032 27.9706 49.205C27.3812 49.2463 27.7013 49.2502 27.8558 48.8764C27.4284 48.8534 26.8482 48.7482 26.9717 48.3592C26.1415 48.0202 26.8109 47.2618 26.184 46.8089C26.0433 46.7617 25.8938 46.7529 25.7468 46.7492L25.7468 46.7494ZM22.4725 47.6861C21.8469 47.6136 21.9253 48.1207 21.5094 47.9006C20.7703 48.319 20.0431 47.7003 19.2575 47.7996C17.1357 47.8181 15.5385 49.9181 15.1888 51.9082C14.6554 52.9099 15.5776 51.8734 16.1819 51.7479C16.0236 50.8599 17.3164 49.9137 17.3177 50.7301C17.1304 51.091 17.3586 53.3447 18.0001 53.8187C18.4116 54.3584 19.1553 54.3604 19.2256 53.5734C19.4415 52.9951 19.9582 52.5311 20.1743 52.2519C19.6862 52.51 19.8984 51.7491 19.6005 51.5806C20.0912 51.1261 19.3464 49.7255 19.6709 49.3539C19.8084 49.4138 21.07 48.608 20.9871 49.6284C21.0715 49.8873 20.3959 50.0028 20.8397 50.2426C20.282 50.5822 21.0913 50.635 20.5902 50.9342C20.827 51.3273 21.0278 51.6502 20.7478 52.0285C21.1374 52.2382 20.6862 52.3894 20.9273 52.7465C21.0567 53.0325 21.382 52.8031 21.0279 53.1404C20.9288 53.7515 21.9323 53.9656 21.7035 54.4942C22.3237 54.7227 22.96 55.5814 23.2799 54.5798C23.5996 54.0961 23.9344 53.6216 24.2586 53.1404C24.0098 53.2622 23.7504 52.9938 23.5012 52.8997C23.733 52.3577 22.9502 52.1228 23.1817 51.5383C23.3293 51.1322 22.9675 50.447 23.2834 50.4138C23.0188 50.2034 23.4542 50.4611 23.2517 50.0981C23.5302 49.9657 23.1569 49.5787 23.6588 49.5816C23.3112 49.0345 24.1894 49.24 23.8817 48.7985C23.4208 48.5646 24.6888 47.7485 23.8076 47.9222C23.5461 47.8884 22.7365 47.6828 22.4726 47.6861L22.4725 47.6861ZM27.454 48.601C27.3767 48.7955 27.0467 48.6605 27.454 48.601ZM19.6929 49.3846C19.8771 49.5297 19.4654 49.5672 19.6929 49.3846ZM19.6797 49.5422C19.9421 49.7048 19.4826 49.559 19.6797 49.5422ZM28.1502 49.6866C28.262 49.7222 28.1056 49.8366 28.1502 49.6866ZM25.7382 50.3608C25.8037 50.4124 25.6574 50.4371 25.7382 50.3608ZM20.2225 52.532C20.2376 52.6533 20.2109 52.5714 20.2225 52.532ZM20.3188 52.5364C20.3543 52.6138 20.3051 52.5469 20.3188 52.5364ZM28.5308 52.6939C28.7541 52.8913 28.2547 52.7904 28.5308 52.6939Z" fill="url(#paint1_linear_844_10584)"/>
<path d="M34.7891 8.96146C35.0779 10.8031 33.8586 11.3332 33.2523 11.2021Z" fill="#66CC33"/>
<path fill-rule="evenodd" clip-rule="evenodd" d="M34.3067 10.7722C34.6321 10.4451 34.8617 9.87635 34.7199 8.97232L34.8583 8.95062C35.0054 9.88819 34.7697 10.5053 34.4061 10.871C34.0455 11.2334 33.5652 11.3415 33.2375 11.2706L33.2672 11.1337C33.5458 11.194 33.9782 11.1025 34.3067 10.7722Z" fill="#015A01"/>
<path d="M33.6403 9.17712C33.5406 9.64774 33.2805 10.0729 32.9013 10.3855C32.5221 10.698 32.0453 10.8799 31.5465 10.9026C31.0477 10.9252 30.5552 10.7873 30.147 10.5105C29.7389 10.2338 29.4384 9.83401 29.293 9.37452" fill="#66CC33"/>
<path fill-rule="evenodd" clip-rule="evenodd" d="M32.8551 10.3294C33.222 10.0271 33.473 9.61621 33.5693 9.16205L33.7114 9.19216C33.6081 9.67923 33.3391 10.1187 32.9475 10.4415C32.5559 10.7642 32.0641 10.9518 31.5498 10.9751C31.0355 10.9985 30.5276 10.8563 30.1063 10.5706C29.685 10.2849 29.3742 9.87185 29.2238 9.3964L29.3622 9.35259C29.5026 9.79612 29.7929 10.1826 30.1878 10.4504C30.5828 10.7182 31.0598 10.852 31.5432 10.83C32.0266 10.8081 32.4883 10.6317 32.8551 10.3294Z" fill="#015A01"/>
<path d="M34.4889 6.02258C34.8884 6.22391 35.2066 6.59789 35.3776 7.06705C35.5486 7.53621 35.5593 8.0646 35.4075 8.54277C35.2557 9.02094 34.953 9.41225 34.5621 9.63564C34.1712 9.85903 33.7221 9.89738 33.3077 9.74275" fill="#66CC33"/>
<path fill-rule="evenodd" clip-rule="evenodd" d="M35.3158 7.08954C35.1498 6.63411 34.842 6.27414 34.4592 6.08122L34.5183 5.96396C34.9345 6.17371 35.2632 6.56169 35.4392 7.04458C35.6152 7.52744 35.6262 8.07072 35.47 8.56265C35.3138 9.05458 35.0014 9.46013 34.5946 9.69265C34.1871 9.92551 33.7176 9.96585 33.2847 9.80427L33.3306 9.68125C33.7263 9.82892 34.1551 9.79256 34.5294 9.57864C34.9043 9.36438 35.1974 8.98731 35.3448 8.52291C35.4923 8.0585 35.4818 7.545 35.3158 7.08954Z" fill="#015A01"/>
<path d="M33.7114 8.35184C33.8526 8.45757 33.9572 8.59609 34.0129 8.75153C34.0687 8.90697 34.0734 9.07305 34.0266 9.23075C33.9798 9.38845 33.8834 9.53139 33.7483 9.64321C33.6132 9.75503 33.445 9.83121 33.2629 9.86302C33.0807 9.89483 32.8921 9.88099 32.7185 9.82308C32.545 9.76517 32.3935 9.66554 32.2814 9.53559C32.1694 9.40563 32.1013 9.25061 32.085 9.08829C32.0687 8.92596 32.1048 8.76288 32.1892 8.61772" fill="url(#paint2_linear_844_10584)"/>
<path fill-rule="evenodd" clip-rule="evenodd" d="M33.964 8.76912C33.9119 8.62397 33.8139 8.49361 33.6802 8.39355L33.7427 8.31012C33.8916 8.42153 34.0026 8.56821 34.0621 8.73394C34.1215 8.89977 34.1266 9.0772 34.0767 9.24557C34.0267 9.41384 33.9241 9.56539 33.7816 9.68334C33.6392 9.80126 33.4625 9.88106 33.2719 9.91435C33.0814 9.94763 32.884 9.93318 32.7021 9.87251C32.5203 9.81183 32.3607 9.70714 32.2421 9.56961C32.1234 9.43199 32.0507 9.26704 32.0333 9.09349C32.0158 8.91991 32.0545 8.74588 32.1442 8.59153L32.2343 8.64391C32.1553 8.77987 32.1218 8.932 32.1369 9.08307C32.1521 9.23419 32.2156 9.37927 32.321 9.50156C32.4265 9.62393 32.5698 9.71851 32.7351 9.77366C32.9004 9.8288 33.0803 9.84203 33.254 9.81169C33.4277 9.78135 33.5874 9.7088 33.7152 9.60307C33.8428 9.49739 33.9331 9.36304 33.9768 9.21592C34.0204 9.06889 34.016 8.91417 33.964 8.76912Z" fill="#333333"/>
<path fill-rule="evenodd" clip-rule="evenodd" d="M24.365 27.8861C23.7895 27.9365 23.319 27.9013 22.9895 27.751L23.0418 27.6363C23.341 27.7728 23.7846 27.8104 24.354 27.7605C24.9215 27.7108 25.6055 27.575 26.3798 27.3726L26.4117 27.4946C25.6341 27.6978 24.9424 27.8355 24.365 27.8861Z" fill="#015A01"/>
<path fill-rule="evenodd" clip-rule="evenodd" d="M22.7901 24.0234C22.1446 24.0045 21.6092 23.8986 21.2841 23.7502L21.3364 23.6355C21.64 23.774 22.1565 23.8788 22.7938 23.8974C23.4296 23.916 24.1804 23.8488 24.9502 23.6477L24.982 23.7696C24.1999 23.974 23.4371 24.0424 22.7901 24.0234Z" fill="#015A01"/>
<path fill-rule="evenodd" clip-rule="evenodd" d="M20.3981 19.2176C20.3278 19.1734 20.2538 19.1269 20.175 19.0779L20.2416 18.9708C20.3222 19.0209 20.3973 19.0682 20.4682 19.1128C20.7984 19.3204 21.0366 19.4702 21.2983 19.5797C21.6133 19.7115 21.9641 19.7852 22.5505 19.8218L22.5426 19.9477C21.9487 19.9105 21.5826 19.8353 21.2497 19.696C20.9775 19.5822 20.7287 19.4256 20.3981 19.2176Z" fill="#015A01"/>
<path d="M29.0225 8.39519C29.3489 8.83802 29.5019 9.35393 29.4478 9.82942C29.3938 10.3049 29.1371 10.701 28.7343 10.9306C28.3315 11.1602 27.8155 11.2045 27.2999 11.0538C26.7843 10.903 26.3113 10.5695 25.9849 10.1267C25.6586 9.68384 25.5056 9.16793 25.5597 8.69245C25.6137 8.21696 25.8704 7.82084 26.2732 7.59123C26.676 7.36162 27.192 7.31733 27.7076 7.4681C28.2232 7.61888 28.6962 7.95236 29.0225 8.39519Z" fill="#57BD2B"/>
<path d="M26.7764 7.95276C25.32 9.05477 27.221 11.5659 28.9338 10.7627C30.543 9.71706 28.4855 6.98903 26.7764 7.95276Z" fill="#4DB426"/>
<path d="M31.9535 4.46394C31.3934 4.50043 30.8763 4.80508 30.8547 5.45328C30.8597 5.5352 30.8719 5.61562 30.8897 5.69404C30.6481 5.43747 30.3483 5.2343 30.0624 5.12496C29.2433 4.66539 27.7253 4.84085 27.6854 6.00485C27.7781 7.47582 29.8689 8.48883 31.0561 7.58513C31.387 7.26638 31.4553 6.89319 31.3669 6.53018C31.9967 7.16285 33.0644 7.41392 33.7658 6.86286C34.5334 6.09971 33.6745 4.9723 32.9078 4.66973C32.6426 4.51619 32.2896 4.44205 31.9535 4.46394Z" fill="#2D8B17"/>
<path d="M28.2892 1.96622C28.4303 1.90157 28.5986 1.9689 28.6665 2.1172C28.6665 2.1172 28.8983 3.11578 29.5007 3.938C29.657 4.40858 29.0314 4.57246 28.8626 4.23037C28.8626 4.23037 28.7921 3.45724 28.0284 2.40957C27.2647 1.3619 28.0756 2.06407 28.2892 1.96622Z" fill="#474747"/>
<path fill-rule="evenodd" clip-rule="evenodd" d="M27.8712 2.05677C27.9204 2.13598 27.9901 2.23806 28.0851 2.36831C28.4712 2.89803 28.6829 3.35942 28.7981 3.68978C28.8557 3.85492 28.8892 3.98724 28.9083 4.07889C28.9179 4.12471 28.9239 4.16037 28.9275 4.18488C28.929 4.19507 28.9301 4.20334 28.9309 4.2096C28.9984 4.33245 29.1497 4.37004 29.2799 4.32306C29.3449 4.29957 29.3985 4.25633 29.4285 4.1982C29.457 4.14301 29.4677 4.06769 29.4376 3.97016C29.1349 3.55459 28.9258 3.09722 28.7923 2.74404C28.7249 2.56588 28.6766 2.41363 28.645 2.30574C28.6292 2.25177 28.6176 2.20887 28.61 2.17933C28.6061 2.16456 28.6033 2.15312 28.6013 2.14531C28.6009 2.14353 28.6005 2.14195 28.6002 2.14055C28.5454 2.02865 28.4197 1.9835 28.3184 2.02989C28.2715 2.05142 28.2175 2.04775 28.1724 2.03921C28.1251 2.03026 28.0743 2.01319 28.0262 1.99493C27.9934 1.98252 27.9596 1.96862 27.9278 1.95556C27.9131 1.94952 27.8989 1.94366 27.8853 1.93822C27.8469 1.92273 27.8144 1.91048 27.7883 1.90306C27.8017 1.93687 27.8275 1.98651 27.8712 2.05677ZM28.7348 2.10136L28.7349 2.10144L28.735 2.10188L28.7354 2.10383C28.7358 2.1056 28.7365 2.10831 28.7374 2.11191C28.7392 2.11913 28.7419 2.12995 28.7455 2.14409C28.7529 2.17237 28.7641 2.2139 28.7795 2.26641C28.8102 2.37144 28.8574 2.52023 28.9233 2.6945C29.0553 3.04354 29.2612 3.49241 29.5573 3.8966L29.5638 3.90548L29.5673 3.91593C29.6114 4.04878 29.6022 4.16711 29.553 4.26243C29.5044 4.35668 29.4204 4.42126 29.3274 4.45481C29.1452 4.52061 28.9041 4.47249 28.7999 4.26136L28.7942 4.24969L28.793 4.23682L28.793 4.23673L28.7928 4.23542C28.7927 4.23424 28.7925 4.23233 28.7922 4.22969C28.7916 4.22442 28.7905 4.21625 28.7889 4.20532C28.7857 4.18346 28.7802 4.15053 28.7712 4.10751C28.7532 4.02146 28.7214 3.89501 28.6659 3.73591C28.5549 3.41778 28.3495 2.96878 27.9719 2.45083C27.8759 2.31916 27.804 2.21401 27.7522 2.13071C27.701 2.04838 27.6673 1.98391 27.6507 1.93448C27.6424 1.90994 27.6365 1.88424 27.6376 1.85935C27.6387 1.83281 27.648 1.8029 27.674 1.78105C27.6981 1.76086 27.7263 1.75623 27.7468 1.75575C27.7678 1.75526 27.7893 1.75892 27.8088 1.76363C27.8479 1.77307 27.8934 1.79044 27.9377 1.8083C27.953 1.81447 27.9682 1.82072 27.9834 1.82696C28.0142 1.83961 28.0449 1.85221 28.0759 1.86396C28.1218 1.8814 28.1635 1.89495 28.1984 1.90158C28.2356 1.90861 28.2537 1.90548 28.2601 1.90254C28.4393 1.82043 28.6476 1.90758 28.7303 2.08802L28.7332 2.09446L28.7348 2.10136Z" fill="#424242"/>
<path d="M28.9643 1.69606C28.9643 1.92268 28.8743 2.14002 28.714 2.30026C28.5538 2.46051 28.3365 2.55053 28.1098 2.55053C27.8832 2.55053 27.6659 2.46051 27.5056 2.30026C27.3454 2.14002 27.2554 1.92268 27.2554 1.69606C27.2554 1.46944 27.3454 1.2521 27.5056 1.09185C27.6659 0.931608 27.8832 0.841583 28.1098 0.841583C28.3365 0.841583 28.5538 0.931608 28.714 1.09185C28.8743 1.2521 28.9643 1.46944 28.9643 1.69606Z" fill="#474747"/>
<path fill-rule="evenodd" clip-rule="evenodd" d="M28.1098 0.945096C27.9107 0.945096 27.7197 1.02421 27.5788 1.16505C27.438 1.30588 27.3589 1.49689 27.3589 1.69605C27.3589 1.89522 27.438 2.08623 27.5788 2.22706C27.7197 2.3679 27.9107 2.44701 28.1098 2.44701C28.309 2.44701 28.5 2.3679 28.6409 2.22706C28.7817 2.08623 28.8608 1.89522 28.8608 1.69605C28.8608 1.49689 28.7817 1.30588 28.6409 1.16505C28.5 1.02421 28.309 0.945096 28.1098 0.945096ZM27.4324 1.01866C27.6121 0.838998 27.8558 0.738068 28.1098 0.738068C28.3639 0.738068 28.6076 0.838998 28.7872 1.01866C28.9669 1.19831 29.0678 1.44198 29.0678 1.69605C29.0678 1.95013 28.9669 2.1938 28.7872 2.37345C28.6076 2.55311 28.3639 2.65404 28.1098 2.65404C27.8558 2.65404 27.6121 2.55311 27.4324 2.37345C27.2528 2.1938 27.1519 1.95013 27.1519 1.69605C27.1519 1.44198 27.2528 1.19831 27.4324 1.01866Z" fill="#3C3C3C"/>
<path d="M31.133 7.25806C30.8796 7.77268 30.0434 7.87927 29.2652 7.49614C28.487 7.11301 28.0616 6.38526 28.3149 5.87064C28.5683 5.35603 29.256 5.62739 30.1827 5.63257C31.05 5.63742 31.3863 6.74344 31.133 7.25806Z" fill="#EEEEEE"/>
<path fill-rule="evenodd" clip-rule="evenodd" d="M28.6098 5.68044C28.5111 5.72083 28.4335 5.78832 28.3777 5.90158C28.2648 6.1311 28.2993 6.41608 28.4637 6.69735C28.6278 6.97807 28.9176 7.24694 29.2961 7.4333L29.2962 7.4333C29.6747 7.61966 30.0645 7.68539 30.387 7.64428C30.7102 7.60308 30.9571 7.45665 31.0701 7.22713C31.1847 6.99435 31.1694 6.61236 31.0147 6.284C30.8616 5.95887 30.5811 5.70484 30.1823 5.70261C29.9474 5.7013 29.7282 5.68312 29.5292 5.66497C29.5063 5.66288 29.4837 5.6608 29.4614 5.65874C29.2887 5.6428 29.1338 5.62852 28.9954 5.62672C28.839 5.62468 28.7115 5.63889 28.6098 5.68044ZM30.1831 5.56253L30.1827 5.63257L30.1831 5.56253C30.6517 5.56515 30.973 5.86656 31.1415 6.22431C31.3084 6.57882 31.3346 7.00715 31.1958 7.289L31.1958 7.289C31.0555 7.57409 30.7576 7.73826 30.4048 7.78323C30.0513 7.82828 29.6339 7.75574 29.2343 7.55897L29.2652 7.49614L29.2343 7.55897C28.8346 7.3622 28.5226 7.07564 28.3428 6.76805C28.1633 6.46101 28.1117 6.1248 28.2521 5.83971L28.2521 5.83971C28.323 5.69566 28.4264 5.60409 28.5568 5.55078C28.6844 5.49865 28.8342 5.48453 28.9972 5.48665C29.1416 5.48853 29.3024 5.50339 29.4742 5.51924C29.4966 5.52131 29.5191 5.52339 29.5419 5.52547C29.7404 5.54357 29.9546 5.56126 30.1831 5.56253Z" fill="#015A01"/>
<path d="M33.8098 6.55754C33.5963 7.00514 32.8915 7.09785 32.2357 6.76461C31.5799 6.43137 31.2213 5.79836 31.4349 5.35073C31.6484 4.90313 32.1912 5.08039 33.0089 5.14366C33.7424 5.20041 34.0233 6.10991 33.8098 6.55754Z" fill="#EEEEEE"/>
<path d="M30.7644 6.21016C30.7647 6.27054 30.7527 6.33039 30.7288 6.38626C30.705 6.44214 30.6699 6.49295 30.6256 6.53576C30.5812 6.57857 30.5285 6.61254 30.4704 6.63572C30.4123 6.65891 30.3501 6.67084 30.2872 6.67084C30.2243 6.67084 30.162 6.65891 30.1039 6.63572C30.0459 6.61254 29.9931 6.57857 29.9488 6.53576C29.9044 6.49295 29.8693 6.44214 29.8455 6.38626C29.8217 6.33039 29.8096 6.27054 29.8099 6.21016C29.8096 6.14978 29.8217 6.08994 29.8455 6.03406C29.8693 5.97818 29.9044 5.92738 29.9488 5.88457C29.9931 5.84175 30.0459 5.80778 30.1039 5.7846C30.162 5.76142 30.2243 5.74948 30.2872 5.74948C30.3501 5.74948 30.4123 5.76142 30.4704 5.7846C30.5285 5.80778 30.5812 5.84175 30.6256 5.88457C30.6699 5.92738 30.705 5.97818 30.7288 6.03406C30.7527 6.08994 30.7647 6.14978 30.7644 6.21016Z" fill="#212121"/>
<path fill-rule="evenodd" clip-rule="evenodd" d="M30.2871 5.86857C30.2392 5.86857 30.192 5.87766 30.148 5.8952C30.1041 5.91274 30.0645 5.93832 30.0314 5.97025C29.9983 6.00217 29.9725 6.03978 29.955 6.08078C29.9375 6.12178 29.9287 6.1655 29.9289 6.20949L29.9289 6.21018L29.9289 6.21087C29.9287 6.25486 29.9375 6.29858 29.955 6.33958C29.9725 6.38058 29.9983 6.41819 30.0314 6.45011C30.0645 6.48204 30.1041 6.50762 30.148 6.52516C30.192 6.5427 30.2392 6.55179 30.2871 6.55179C30.335 6.55179 30.3822 6.5427 30.4262 6.52516C30.4701 6.50762 30.5097 6.48204 30.5428 6.45011C30.5759 6.41819 30.6017 6.38058 30.6192 6.33958C30.6367 6.29858 30.6455 6.25486 30.6453 6.21087L30.6453 6.21018L30.6453 6.20949C30.6455 6.1655 30.6367 6.12178 30.6192 6.08078C30.6018 6.03978 30.5759 6.00217 30.5428 5.97025C30.5097 5.93832 30.4701 5.91274 30.4262 5.8952C30.3822 5.87766 30.335 5.86857 30.2871 5.86857ZM30.0597 5.67403C30.1319 5.64521 30.2092 5.63043 30.2871 5.63043C30.365 5.63043 30.4423 5.64521 30.5145 5.67403C30.5867 5.70286 30.6526 5.74522 30.7082 5.79892C30.7638 5.85262 30.8081 5.91662 30.8383 5.98737C30.8684 6.05792 30.8837 6.13365 30.8834 6.21018C30.8837 6.28671 30.8684 6.36244 30.8383 6.43299C30.8081 6.50374 30.7638 6.56774 30.7082 6.62144C30.6526 6.67514 30.5867 6.7175 30.5145 6.74633C30.4423 6.77515 30.365 6.78993 30.2871 6.78993C30.2092 6.78993 30.1319 6.77515 30.0597 6.74633C29.9875 6.7175 29.9216 6.67514 29.866 6.62144C29.8104 6.56774 29.7661 6.50374 29.7359 6.43299C29.7058 6.36244 29.6905 6.28671 29.6908 6.21018C29.6905 6.13365 29.7058 6.05792 29.7359 5.98737C29.7661 5.91662 29.8104 5.85262 29.866 5.79892C29.9216 5.74522 29.9875 5.70286 30.0597 5.67403Z" fill="url(#paint3_linear_844_10584)"/>
<path opacity="0.16" d="M33.1915 12.4334C28.3476 12.4229 30.168 13.5292 26.7563 14.0573C24.7906 14.957 26.9204 16.6805 24.6992 18.2467C23.8114 20.0131 26.5504 20.648 25.7279 22.3966C25.8076 23.6871 27.7823 23.6378 26.8836 24.953C26.8892 26.9407 29.4043 27.3461 28.7037 29.4048C29.1277 33.6644 30.6377 37.8098 32.845 41.4646C34.6079 42.5605 32.947 44.73 34.7806 45.7068C33.6579 46.8732 34.6125 48.726 33.5853 49.981C32.4305 52.0138 29.7963 55.1907 27.3188 55.0929C24.9521 55.5416 22.755 54.5029 21.0916 56.4564C19.5574 58.4336 23.0468 58.574 24.2915 58.0752C25.5778 56.9151 26.8555 57.6474 28.3793 57.8231C29.9811 57.9368 31.7313 57.5789 32.8983 56.4055C34.7627 56.4654 37.1266 55.5478 37.3502 53.4419C39.2041 52.9968 40.8795 51.0425 39.9893 49.0992C40.5239 47.8493 42.5649 46.0206 41.4475 44.1178C42.6539 42.5057 40.4612 41.1891 40.5994 39.9023C40.7101 38.152 38.598 37.5182 39.4036 35.6913C38.9754 31.5568 36.8804 27.7546 34.3165 24.5549C33.0265 23.7665 33.0223 21.8117 31.4873 21.1341C31.3724 20.1702 31.4813 18.5693 30.3855 17.7785C31.3213 16.2468 29.5495 14.1699 31.8842 13.5983C32.5629 13.1013 32.741 13.1505 33.1915 12.4336V12.4334Z" fill="#2F5A01"/>
<path opacity="0.16" fill-rule="evenodd" clip-rule="evenodd" d="M29.4012 12.9831C29.9941 12.6323 30.765 12.3581 33.1917 12.3634L33.2615 12.3635V12.4538L33.2508 12.4708C33.0224 12.8342 32.8599 13.0084 32.6655 13.1544C32.5801 13.2186 32.4888 13.277 32.3859 13.343C32.3739 13.3507 32.3617 13.3585 32.3493 13.3664C32.2306 13.4426 32.0936 13.5318 31.9256 13.6548L31.9144 13.6631L31.9009 13.6664C31.3288 13.8064 31.0212 14.0352 30.857 14.3129C30.691 14.5935 30.6633 14.9371 30.6802 15.3253C30.6869 15.4789 30.7004 15.6369 30.7143 15.7993C30.7179 15.8418 30.7216 15.8846 30.7251 15.9277C30.7422 16.1346 30.7572 16.3471 30.7562 16.5599C30.7543 16.966 30.6944 17.3773 30.4777 17.7599C31.0103 18.1697 31.2511 18.7694 31.3729 19.3776C31.4358 19.6916 31.4675 20.0102 31.4906 20.309C31.4976 20.3991 31.5038 20.4871 31.5098 20.5726C31.5227 20.7569 31.5349 20.9296 31.5523 21.0867C32.3198 21.4408 32.7073 22.1093 33.0557 22.7703C33.0815 22.8191 33.107 22.8679 33.1324 22.9164C33.4602 23.5429 33.7731 24.1407 34.353 24.4951L34.3635 24.5015L34.3712 24.5111C36.9395 27.7164 39.0432 31.5311 39.4733 35.6841L39.4752 35.7026L39.4677 35.7196C39.2721 36.1632 39.2551 36.5297 39.3342 36.8574C39.4141 37.1879 39.5927 37.4842 39.7988 37.786C39.8441 37.8523 39.8907 37.9189 39.9378 37.9861C40.3149 38.5242 40.7202 39.1025 40.6693 39.9067L40.6692 39.9082L40.6691 39.9098C40.6367 40.2109 40.7403 40.5194 40.9057 40.8454C40.9882 41.0078 41.0847 41.1723 41.1852 41.3406C41.1995 41.3644 41.2138 41.3883 41.2281 41.4123C41.3148 41.5571 41.4032 41.7048 41.4854 41.8543C41.6768 42.2025 41.8391 42.5687 41.8742 42.9536C41.9086 43.3301 41.8207 43.7193 41.531 44.1225C42.0779 45.0904 41.8361 46.0371 41.4002 46.8853C41.188 47.2984 40.9279 47.6919 40.6873 48.0559L40.6583 48.0997C40.4158 48.4666 40.198 48.8003 40.0659 49.0987C40.5063 50.0874 40.3017 51.0764 39.7566 51.872C39.2165 52.6601 38.3402 53.2629 37.4143 53.4982C37.2849 54.5537 36.6271 55.3111 35.7742 55.7967C34.9186 56.2839 33.8621 56.5011 32.9264 56.4764C31.7398 57.6525 29.9775 58.0067 28.3744 57.893L28.3728 57.8929L28.3713 57.8927C27.9973 57.8496 27.6384 57.7733 27.294 57.7001L27.2641 57.6937C26.9093 57.6183 26.5706 57.5475 26.2401 57.518C25.5838 57.4592 24.9638 57.5632 24.3385 58.1272L24.3292 58.1356L24.3176 58.1402C23.9969 58.2688 23.5371 58.3543 23.0545 58.3807C22.5714 58.407 22.0588 58.3743 21.6316 58.262C21.2084 58.1507 20.8502 57.956 20.7057 57.6429C20.5584 57.3238 20.6468 56.9154 21.0363 56.4134L21.0372 56.4122L21.0383 56.411C21.8876 55.4135 22.8754 55.1814 23.9387 55.1404C24.2917 55.1268 24.656 55.1342 25.0261 55.1417C25.2101 55.1455 25.3955 55.1493 25.5817 55.1505C26.1449 55.1542 26.7207 55.135 27.3057 55.0241L27.3136 55.0226L27.3215 55.0229C28.5312 55.0706 29.7912 54.3175 30.9003 53.2847C32.0069 52.2542 32.9499 50.9577 33.5244 49.9464L33.5274 49.9413L33.5311 49.9367C34.0173 49.3427 34.0459 48.6094 34.0753 47.8545L34.0772 47.8079C34.106 47.0733 34.1448 46.32 34.6689 45.7248C34.2454 45.4782 34.0144 45.1624 33.8867 44.8099C33.7527 44.4402 33.7334 44.0323 33.7163 43.6334L33.7156 43.6158C33.6814 42.8166 33.6484 42.0465 32.808 41.5241L32.7938 41.5152L32.7851 41.5008C30.5731 37.8383 29.0592 33.683 28.634 29.4118L28.6325 29.3967L28.6374 29.3823C28.8076 28.8821 28.7814 28.4876 28.6503 28.1453C28.5179 27.7997 28.2769 27.5021 28.0062 27.1989C27.958 27.1449 27.9089 27.0908 27.8593 27.0362C27.358 26.4838 26.8162 25.8869 26.8136 24.9532L26.8135 24.9315L26.8258 24.9135C27.0444 24.5936 27.0778 24.3723 27.0263 24.2003C26.9731 24.0227 26.8247 23.877 26.6289 23.7202C26.5828 23.6833 26.5342 23.6459 26.4842 23.6076C26.1235 23.3305 25.6951 23.0015 25.658 22.4009L25.6569 22.383L25.6646 22.3668C25.8617 21.9476 25.8447 21.5999 25.7239 21.2839C25.6028 20.9668 25.3771 20.6803 25.1431 20.3831L25.1341 20.3717C24.9 20.0744 24.6587 19.7659 24.5351 19.4179C24.4096 19.0647 24.4061 18.674 24.6366 18.2153L24.6445 18.1996L24.6588 18.1895C25.2041 17.805 25.4776 17.4147 25.6154 17.034C25.7541 16.6513 25.7581 16.2725 25.7535 15.9029C25.7532 15.8787 25.7529 15.8545 25.7526 15.8304C25.7478 15.49 25.7431 15.153 25.852 14.8477C25.971 14.514 26.222 14.2248 26.7271 13.9936L26.736 13.9896L26.7456 13.9881C27.5939 13.8568 28.1131 13.6901 28.4906 13.5157C28.7507 13.3955 28.9419 13.2729 29.1314 13.1514C29.2194 13.095 29.3071 13.0388 29.4012 12.9831ZM26.7767 14.125C26.3051 14.3428 26.0872 14.605 25.9839 14.8947C25.8839 15.1753 25.8881 15.4878 25.8927 15.8357C25.893 15.8574 25.8933 15.8792 25.8936 15.9012C25.8982 16.2708 25.8953 16.6727 25.7471 17.0818C25.5995 17.4894 25.31 17.8982 24.7541 18.2937C24.5486 18.7112 24.5557 19.0576 24.6671 19.371C24.7816 19.6935 25.0072 19.9842 25.2441 20.285L25.2597 20.3048C25.4887 20.5955 25.7259 20.8967 25.8548 21.2339C25.9869 21.5797 26.0049 21.9619 25.799 22.4098C25.8389 22.9311 26.2067 23.2155 26.5659 23.4931C26.6166 23.5323 26.6671 23.5713 26.7165 23.6109C26.9119 23.7674 27.0936 23.9367 27.1605 24.1601C27.2277 24.3849 27.1742 24.6452 26.9538 24.9743C26.9643 25.8391 27.4649 26.3918 27.9652 26.9442C28.0139 26.9979 28.0625 27.0516 28.1107 27.1056C28.382 27.4095 28.6387 27.7236 28.7811 28.0952C28.9233 28.4666 28.9496 28.8904 28.7749 29.4129C29.1992 33.65 30.701 37.7748 32.8964 41.4141C33.7859 41.9757 33.8215 42.8102 33.8549 43.5939L33.8563 43.6274C33.8735 44.03 33.893 44.4161 34.0184 44.7621C34.1423 45.104 34.3707 45.4091 34.8135 45.645L34.8953 45.6886L34.831 45.7554C34.2907 46.3167 34.2474 47.0439 34.2171 47.8134C34.2163 47.8345 34.2155 47.8556 34.2147 47.8767C34.186 48.6164 34.156 49.3907 33.6433 50.0208C33.0627 51.0415 32.1126 52.3472 30.9958 53.3872C29.882 54.4243 28.5892 55.2096 27.324 55.1632C26.7284 55.2753 26.1447 55.2943 25.5808 55.2906C25.3902 55.2893 25.2026 55.2855 25.0176 55.2817C24.6501 55.2742 24.2931 55.2669 23.9441 55.2804C22.9019 55.3205 21.9597 55.5456 21.146 56.5005C20.7692 56.9865 20.7186 57.3367 20.8329 57.5842C20.9501 57.838 21.2543 58.0179 21.6673 58.1265C22.0763 58.2341 22.5736 58.2666 23.0469 58.2408C23.5147 58.2153 23.9527 58.1332 24.2541 58.0147C24.9119 57.426 25.5707 57.3174 26.2526 57.3784C26.5928 57.4089 26.9397 57.4816 27.2932 57.5567L27.3208 57.5626C27.6663 57.636 28.019 57.711 28.3857 57.7534C29.976 57.8659 31.7018 57.5092 32.8486 56.3561L32.8701 56.3345L32.9005 56.3355C33.8218 56.3651 34.8657 56.1528 35.7049 55.675C36.5428 55.1979 37.1717 54.4594 37.2806 53.4345L37.2858 53.3853L37.3338 53.3738C38.2442 53.1552 39.1117 52.5654 39.641 51.7928C40.1692 51.0218 40.3585 50.0735 39.9256 49.1284L39.9127 49.1002L39.9249 49.0716C40.0615 48.7522 40.2933 48.398 40.5414 48.0225L40.5691 47.9806C40.8107 47.6151 41.067 47.2273 41.2756 46.8213C41.7086 45.9787 41.9279 45.0741 41.3871 44.1533L41.3635 44.1132L41.3914 44.0759C41.683 43.6862 41.7669 43.3188 41.7347 42.9663C41.7023 42.6108 41.5514 42.2652 41.3626 41.9218C41.2818 41.7747 41.1949 41.6296 41.1082 41.4847C41.0938 41.4606 41.0794 41.4365 41.065 41.4124C40.9645 41.2441 40.8657 41.076 40.7808 40.9088C40.612 40.5761 40.4934 40.2381 40.5296 39.8963C40.5766 39.1449 40.2017 38.6085 39.8234 38.0673C39.7764 38.0001 39.7294 37.9328 39.6831 37.865C39.4757 37.5613 39.2843 37.2472 39.1981 36.8903C39.1123 36.5351 39.1318 36.1426 39.332 35.6802C38.9019 31.5754 36.8216 27.7956 34.2694 24.6082C33.6615 24.2318 33.3331 23.6031 33.0115 22.9876C32.9849 22.9368 32.9584 22.8861 32.9318 22.8356C32.5774 22.1633 32.2021 21.5263 31.459 21.1982L31.4225 21.1821L31.4177 21.1424C31.3974 20.9715 31.3839 20.78 31.3698 20.5786C31.3638 20.4938 31.3577 20.4073 31.351 20.3198C31.3279 20.0226 31.2968 19.7107 31.2356 19.4052C31.1131 18.7935 30.8719 18.2158 30.3445 17.8353L30.2919 17.7974L30.3258 17.742C30.5504 17.3742 30.6142 16.9716 30.6161 16.5592C30.6171 16.3529 30.6026 16.1454 30.5855 15.9393C30.582 15.897 30.5784 15.8548 30.5748 15.8127C30.5609 15.6499 30.5471 15.4882 30.5403 15.3314C30.5231 14.9376 30.5487 14.559 30.7364 14.2416C30.9244 13.9236 31.2671 13.6798 31.854 13.5336C32.0203 13.4124 32.1566 13.3236 32.2736 13.2485C32.286 13.2406 32.2981 13.2329 32.31 13.2252C32.4138 13.1587 32.5004 13.1032 32.5814 13.0424C32.7393 12.9237 32.8772 12.7837 33.0631 12.5034C30.7476 12.508 30.0232 12.7779 29.4725 13.1037C29.3862 13.1547 29.3023 13.2085 29.2162 13.2636C29.0228 13.3875 28.8182 13.5186 28.5493 13.6429C28.1586 13.8234 27.6286 13.9925 26.7767 14.125Z" fill="#015A01" fill-opacity="0.45631"/>
<path opacity="0.22" d="M29.1216 14.7025L26.7096 15.0833C27.9613 15.0063 29.7251 15.8627 30.5063 15.2395C30.7108 14.6823 29.4564 14.9081 29.1216 14.7025ZM30.4874 17.4297C30.3253 17.4458 30.1117 17.4991 30.054 17.4428C28.8962 17.4768 27.232 17.5658 26.3944 17.8762L28.6794 18.4584C29.392 18.0386 31.3077 18.5786 30.6055 17.6355C30.7578 17.4369 30.6495 17.4136 30.4874 17.4297ZM31.5993 20.8792C29.8858 20.9824 28.1807 21.1875 26.4645 21.2557C27.8105 21.4548 29.1491 21.7507 30.5137 21.5139C31.1581 21.3044 32.4599 21.7967 31.5993 20.8792ZM33.8143 23.9829C32.532 24.1388 32.2102 24.0361 30.8595 24.0617C29.9731 24.0362 27.6051 24.087 27.6376 24.2762C28.7817 24.4269 29.9213 24.7205 31.0739 24.4556C31.7129 24.2223 35.0613 24.9235 33.8142 23.9829H33.8143ZM35.8148 26.4343C33.6298 26.7603 31.3552 26.5108 29.2311 27.2266L31.6606 27.5112C32.8585 26.866 35.6357 27.3864 36.0074 26.7145L35.8148 26.4343Z" fill="#816647"/>
<path opacity="0.22" d="M38.7783 37.3729C38.2588 37.3651 37.631 37.4781 37.22 37.3992C35.5706 37.4046 33.9891 37.9104 32.3916 38.2572C33.4959 38.3243 34.6195 38.7874 35.701 38.3753C36.8628 37.8962 38.7516 37.9892 39.5269 37.5874C39.3609 37.4266 39.0901 37.3776 38.7784 37.3729L38.7783 37.3729ZM39.7633 40.6473C38.7309 40.6256 37.397 40.8561 36.5896 40.7129L34.1864 41.0938C36.4963 41.0902 38.8061 41.0956 41.116 41.0938C40.8951 40.7644 40.3828 40.6603 39.7634 40.6473H39.7633ZM39.2599 44.193C38.9325 44.188 38.6058 44.2067 38.2749 44.2675L35.9066 44.8628C37.4754 44.6043 39.0386 45.0701 40.6081 44.7753C41.4791 44.9366 42.1125 44.1358 40.8926 44.2806C40.3464 44.2679 39.8055 44.2015 39.2599 44.193ZM36.4626 48.6756L34.3089 49.2578C36.0456 49.4643 37.7863 49.7103 39.5269 49.3672C40.2364 49.2526 39.8594 48.3536 39.2599 48.9601C38.3458 49.0958 37.3885 48.7123 36.4626 48.6756ZM34.055 53.3332L31.6429 53.7141C33.5668 53.5309 35.4286 54.1723 37.3468 54.0555C37.7412 52.9776 34.7003 53.5041 34.0549 53.3332H34.055ZM31.2315 55.5395C30.4345 55.5973 29.6459 55.7677 28.8545 55.8897C30.2861 55.7846 31.7654 56.8913 33.035 56.4412C33.6586 56.4871 35.4621 56.2418 33.8974 56.0823C33.0127 55.8913 32.15 55.521 31.2315 55.5395Z" fill="#816647"/>
<path d="M24.7567 17.2454C23.964 17.3886 24.145 18.8512 24.9799 18.8694C25.5964 19.0387 26.1183 19.1494 26.8982 18.9373C27.7111 18.3008 26.5969 17.8468 25.9913 18.0114C24.8148 18.1135 25.4899 17.4264 24.7567 17.2454ZM25.1901 21.1107C24.0567 21.5362 25.0631 22.9572 26.0349 22.6997C26.8238 22.7633 27.2323 22.3484 27.6677 22.1525C28.641 21.1903 26.9977 21.0672 26.4332 21.7147C25.522 22.0131 25.8463 21.2852 25.1901 21.1107ZM28.8847 24.0873C28.1362 24.0646 27.6672 24.8531 26.9542 24.8228C25.8318 24.6251 26.1161 26.1249 27.1118 25.7902C27.8715 25.9168 28.127 25.1738 28.854 25.1117C29.4421 25.0658 29.5531 24.1265 28.8847 24.0873ZM30.3205 27.7951C29.7934 28.0002 29.1744 28.6397 28.5695 28.3203C27.2964 27.3904 27.7503 29.6754 28.5038 29.3491C29.1613 29.5058 30.0176 29.1023 30.3555 28.8544C30.6211 28.8917 31.2167 27.8859 30.3205 27.7951ZM29.9834 29.0602C30.1071 29.0158 29.8554 29.1376 29.9834 29.0602ZM33.5248 39.9949C32.3426 40.375 33.6628 41.8385 34.5053 41.8203C35.2567 41.8804 36.0844 41.8455 36.5977 41.2249C37.2712 39.524 34.3425 41.7435 33.8891 40.1962L33.7834 40.0858L33.5248 39.9949ZM34.0589 44.8758C33.1278 45.1146 33.852 46.4938 34.3302 46.9463C35.0492 47.4347 35.9412 47.441 36.7782 47.3381C37.5919 46.7035 36.4761 46.2466 35.8713 46.4122C35.2888 46.4872 34.6507 46.1711 34.6148 45.528C34.5034 45.2597 34.4342 44.8812 34.0589 44.8758ZM30.6006 52.0243C29.7645 52.2907 30.1243 53.5838 30.5918 54.0904C30.9184 54.4706 31.1651 54.9808 31.4805 55.1979C31.8967 55.4422 32.1847 55.8134 32.7021 55.5922C33.398 55.0876 32.1051 54.5001 32.2772 54.5806C31.8487 54.3847 31.5573 53.6591 31.1828 53.2674C30.9262 52.8568 31.3387 52.0645 30.6006 52.0242L30.6006 52.0243ZM31.4718 55.1892C31.4349 55.1793 31.3221 55.0244 31.4718 55.1892ZM24.8223 54.7296C24.046 55.0712 24.0437 56.1174 24.0782 56.8568C23.9698 57.5927 24.2849 58.3356 25.0106 58.608C26.2117 59.2297 25.7253 57.3936 25.1638 57.5574C24.8361 57.2244 25.1843 56.571 25.0456 56.1479C25.0108 55.6709 25.8323 54.8732 24.8223 54.7296ZM19.3154 54.9659C18.6616 55.1643 18.1603 55.987 18.1861 56.8614C18.0398 57.5599 18.4349 58.4654 18.9434 58.5992C20.0819 59.3679 20.1776 57.7783 19.1535 57.5311C19.1186 56.8606 19.1121 56.113 19.7462 55.7072C19.9712 55.4005 19.688 54.9305 19.3154 54.9659ZM31.8529 55.43C31.8845 55.4314 31.8553 55.4406 31.8529 55.43ZM25.094 55.8371C25.1148 55.8328 25.0593 55.8706 25.094 55.8371Z" fill="#FFFF99"/>
<path fill-rule="evenodd" clip-rule="evenodd" d="M24.7596 17.1523L24.7785 17.157C24.9804 17.2068 25.0967 17.2953 25.1695 17.4057C25.2044 17.4586 25.2271 17.5133 25.2451 17.5636C25.254 17.5884 25.2608 17.6092 25.2672 17.6287C25.2753 17.6533 25.2827 17.6759 25.2928 17.7019C25.3232 17.7809 25.3596 17.8386 25.4436 17.8777C25.5345 17.92 25.6913 17.9454 25.9756 17.9214C26.1408 17.8781 26.3343 17.8769 26.5177 17.9073C26.704 17.9383 26.8881 18.0032 27.028 18.0988C27.1669 18.1935 27.2762 18.3291 27.2756 18.5012C27.2751 18.6716 27.1666 18.8427 26.9543 19.009L26.9398 19.0203L26.9221 19.0251C26.1234 19.2424 25.5843 19.1294 24.9664 18.9601C24.492 18.9431 24.2207 18.5212 24.1677 18.1161C24.1405 17.9087 24.1672 17.6925 24.2588 17.5152C24.3518 17.3354 24.5114 17.1972 24.7405 17.1558L24.7596 17.1523ZM24.3482 18.0924C24.3958 18.4557 24.6285 18.7707 24.9819 18.7784L24.9932 18.7786L25.004 18.7816C25.6098 18.948 26.1097 19.0535 26.8563 18.8542C27.039 18.7074 27.0933 18.587 27.0935 18.5007C27.0938 18.4138 27.0391 18.3268 26.9254 18.2491C26.8127 18.1722 26.6554 18.1148 26.4879 18.087C26.3205 18.0592 26.151 18.0624 26.0152 18.0993L26.0073 18.1014L25.9992 18.1021C25.7002 18.1281 25.5023 18.1059 25.3668 18.0428C25.2236 17.9761 25.1623 17.8699 25.1228 17.7673C25.1124 17.7403 25.1015 17.7075 25.0915 17.6774C25.085 17.6581 25.079 17.6398 25.0736 17.6249C25.0577 17.5805 25.0408 17.5413 25.0175 17.5059C24.9756 17.4423 24.9055 17.3796 24.754 17.3387C24.5969 17.3727 24.4879 17.4686 24.4206 17.5988C24.3494 17.7366 24.3248 17.914 24.3482 18.0924ZM25.1853 21.0152L25.2135 21.0227C25.5232 21.1051 25.6469 21.3066 25.7397 21.4579C25.7576 21.487 25.7743 21.5142 25.791 21.5383C25.843 21.6139 25.8927 21.6619 25.9705 21.6828C26.0503 21.7043 26.1744 21.701 26.3819 21.6356C26.5368 21.4675 26.7543 21.3527 26.9753 21.2873C27.2047 21.2196 27.4477 21.2022 27.6445 21.2406C27.8358 21.2779 28.0175 21.3769 28.0542 21.5701C28.0894 21.7551 27.9784 21.9734 27.7317 22.2173L27.72 22.2288L27.7051 22.2355C27.6014 22.2822 27.4985 22.3423 27.3858 22.4082L27.3834 22.4096C27.2727 22.4744 27.1535 22.5441 27.0227 22.6058C26.7598 22.7296 26.4491 22.8215 26.0429 22.7916C25.5134 22.9233 24.9896 22.6059 24.7455 22.209C24.621 22.0067 24.5612 21.7715 24.6192 21.5515C24.6783 21.3275 24.8539 21.1396 25.1581 21.0254L25.1853 21.0152ZM25.1945 21.2066C24.9509 21.3051 24.8345 21.4492 24.7953 21.5979C24.7536 21.7559 24.7936 21.9397 24.9006 22.1136C25.117 22.4654 25.5746 22.7275 26.0116 22.6117L26.0267 22.6077L26.0422 22.6089C26.4174 22.6392 26.7008 22.5561 26.945 22.4411C27.0684 22.3829 27.1815 22.3167 27.2938 22.251L27.2951 22.2503C27.4008 22.1885 27.5067 22.1264 27.615 22.0765C27.8452 21.8455 27.8919 21.6912 27.8754 21.6041C27.8601 21.5239 27.7782 21.4522 27.6097 21.4194C27.4469 21.3876 27.234 21.4008 27.0269 21.462C26.8199 21.5232 26.6284 21.6294 26.5019 21.7746L26.4854 21.7935L26.4616 21.8013C26.2274 21.8779 26.0565 21.8945 25.9232 21.8587C25.785 21.8216 25.7038 21.7327 25.6411 21.6417C25.618 21.6083 25.597 21.5748 25.5765 21.5419C25.4886 21.4011 25.408 21.272 25.1945 21.2066ZM27.8605 24.379C28.1558 24.1915 28.4824 23.984 28.8874 23.9963L28.8887 23.9964L28.89 23.9965C29.0801 24.0076 29.2238 24.0841 29.316 24.2011C29.4069 24.3162 29.4415 24.4624 29.4313 24.6035C29.4112 24.8827 29.2105 25.175 28.8615 25.2024C28.5587 25.2284 28.3464 25.3812 28.1177 25.5458C28.0947 25.5624 28.0715 25.5791 28.048 25.5959C27.7991 25.7729 27.5246 25.9434 27.1192 25.8835C26.8574 25.9659 26.6323 25.9335 26.4621 25.8303C26.2893 25.7255 26.181 25.5523 26.1491 25.3739C26.1171 25.1955 26.1607 25.0036 26.3033 24.8709C26.4454 24.7387 26.6684 24.6813 26.9638 24.732C27.2843 24.7435 27.554 24.5737 27.8573 24.3811L27.8605 24.379ZM27.9383 24.5454C27.6482 24.7297 27.3329 24.93 26.9503 24.9137L26.9443 24.9135L26.9384 24.9124C26.6757 24.8662 26.5155 24.9222 26.4273 25.0043C26.3386 25.0868 26.3051 25.2118 26.3283 25.3418C26.3516 25.4718 26.431 25.5985 26.5565 25.6746C26.6799 25.7494 26.856 25.7801 27.0828 25.7039L27.1043 25.6966L27.1268 25.7004C27.4688 25.7574 27.6964 25.6226 27.9424 25.4475C27.9657 25.4309 27.9892 25.4139 28.0131 25.3966C28.2377 25.2341 28.4905 25.0513 28.8463 25.021L28.8469 25.0209C29.0858 25.0023 29.2344 24.8021 29.2497 24.5904C29.2572 24.4862 29.231 24.3873 29.1731 24.3139C29.1167 24.2425 29.024 24.187 28.8806 24.1783C28.5392 24.1684 28.2583 24.3421 27.9549 24.5348C27.9494 24.5383 27.9438 24.5418 27.9383 24.5454ZM30.3079 27.7023L30.3296 27.7045C30.5708 27.7289 30.7328 27.8176 30.8187 27.9562C30.9031 28.0921 30.9002 28.2541 30.8615 28.3966C30.8226 28.5401 30.7442 28.6773 30.6566 28.7774C30.6127 28.8275 30.5642 28.871 30.514 28.9013C30.4762 28.9241 30.4315 28.943 30.384 28.9461C30.2037 29.0731 29.909 29.2302 29.5781 29.3399C29.2418 29.4514 28.8565 29.518 28.5112 29.4441C28.4058 29.4825 28.3025 29.4803 28.2074 29.4461C28.1058 29.4097 28.0186 29.3389 27.9473 29.2537C27.8056 29.0841 27.7122 28.8407 27.6863 28.619C27.6732 28.5076 27.6765 28.3965 27.7027 28.2995C27.7288 28.2026 27.78 28.1127 27.8677 28.0576C27.9567 28.0017 28.0676 27.9912 28.1925 28.0227C28.3146 28.0534 28.4557 28.1252 28.6176 28.2428C28.8785 28.3776 29.1474 28.3135 29.434 28.1727C29.5576 28.1119 29.6794 28.0395 29.8021 27.9665C29.8225 27.9544 29.8428 27.9423 29.8632 27.9302C30.0044 27.8467 30.1478 27.7645 30.2874 27.7102L30.3079 27.7023ZM30.333 27.8881C30.2151 27.9364 30.0902 28.0075 29.956 28.0869C29.9362 28.0986 29.9163 28.1105 29.8961 28.1225C29.7738 28.1952 29.645 28.2719 29.5143 28.3361C29.2105 28.4854 28.8692 28.5816 28.527 28.4009L28.5211 28.3978L28.5158 28.3939C28.3618 28.2814 28.2404 28.2225 28.148 28.1993C28.057 28.1764 28.0004 28.1893 27.9646 28.2118C27.9276 28.235 27.897 28.2784 27.8785 28.3469C27.86 28.4155 27.8559 28.5021 27.8671 28.5978C27.8897 28.7903 27.9716 28.9988 28.087 29.1368C28.1444 29.2054 28.2064 29.2523 28.2689 29.2747C28.3291 29.2964 28.3947 29.2971 28.4677 29.2655L28.4955 29.2535L28.5249 29.2605C28.83 29.3332 29.1894 29.277 29.5208 29.1671C29.6479 29.1249 29.769 29.0755 29.8791 29.0239C29.8805 29.0223 29.8818 29.0209 29.8829 29.0199C29.885 29.0177 29.887 29.0159 29.8886 29.0145C29.8901 29.0132 29.8916 29.012 29.893 29.0109C29.8946 29.0096 29.8961 29.0085 29.8974 29.0075C29.9025 29.0038 29.9082 28.9999 29.9142 28.996C29.9204 28.992 29.9277 28.9874 29.9362 28.9823L29.9441 28.9776L29.9527 28.9745C29.9611 28.9714 29.9686 28.9689 29.9751 28.9668C29.9784 28.9658 29.9817 28.9648 29.9849 28.964C29.9865 28.9635 29.9882 28.9631 29.99 28.9626C29.9917 28.9622 29.9935 28.9618 29.9954 28.9614C29.9965 28.9612 29.9978 28.9609 29.9991 28.9607C30.0001 28.9605 30.0011 28.9604 30.0022 28.9602C30.0041 28.9599 30.0064 28.9596 30.0092 28.9594C30.1279 28.8972 30.2283 28.8348 30.3017 28.781L30.3315 28.7591L30.3682 28.7643C30.372 28.7648 30.3886 28.7643 30.42 28.7454C30.4497 28.7274 30.4842 28.6978 30.5196 28.6574C30.5903 28.5766 30.6546 28.4637 30.6858 28.3489C30.7171 28.2333 30.7118 28.1292 30.664 28.0521C30.6195 27.9804 30.5253 27.9117 30.333 27.8881ZM33.5261 39.8988L33.8342 40.0072L33.9702 40.1493L33.9765 40.1706C34.0283 40.3475 34.1133 40.4643 34.2176 40.5418C34.323 40.6201 34.455 40.6631 34.6083 40.68C34.9188 40.7142 35.2914 40.639 35.6472 40.5639L35.6764 40.5577C35.8411 40.5229 36.0016 40.4889 36.144 40.4697C36.2926 40.4496 36.435 40.4434 36.5482 40.4769C36.6066 40.4941 36.6609 40.523 36.7035 40.5691C36.7466 40.6156 36.7726 40.6741 36.7833 40.7417C36.8037 40.8719 36.768 41.0423 36.6824 41.2584L36.6771 41.2718L36.6679 41.283C36.1234 41.9412 35.2525 41.971 34.5025 41.9114C34.2687 41.9151 34.0123 41.818 33.782 41.6733C33.5488 41.5268 33.3325 41.3255 33.1812 41.1092C33.0315 40.8952 32.9363 40.6531 32.9708 40.4292C33.0068 40.1951 33.179 40.0104 33.4969 39.9082L33.5261 39.8988ZM33.8789 41.5191C34.0945 41.6546 34.3173 41.7333 34.5034 41.7292L34.508 41.7291L34.5126 41.7295C35.2596 41.7893 36.0365 41.749 36.5184 41.1779C36.5967 40.9766 36.6157 40.8483 36.6034 40.77C36.5975 40.7324 36.5848 40.7089 36.5699 40.6928C36.5546 40.6763 36.5316 40.6619 36.4966 40.6515C36.4228 40.6297 36.3132 40.6306 36.1684 40.6502C36.0329 40.6684 35.8786 40.7011 35.7113 40.7364L35.6848 40.742C35.336 40.8157 34.9334 40.899 34.5883 40.861C34.4138 40.8418 34.2479 40.7911 34.109 40.688C33.9738 40.5876 33.8706 40.4422 33.8083 40.2434L33.7327 40.1645L33.5241 40.0911C33.272 40.1795 33.1725 40.3155 33.1508 40.4569C33.1266 40.6137 33.1924 40.8076 33.3304 41.0048C33.4667 41.1996 33.6645 41.3845 33.8789 41.5191ZM34.048 44.7846L34.0602 44.7848C34.1703 44.7864 34.2622 44.8157 34.3387 44.8664C34.4142 44.9164 34.47 44.9842 34.5136 45.0561C34.5571 45.1277 34.5902 45.2065 34.6188 45.2812C34.6302 45.311 34.6406 45.3394 34.6506 45.3667C34.6668 45.4108 34.682 45.4523 34.6989 45.4931L34.7049 45.5074L34.7057 45.5229C34.7218 45.8117 34.8718 46.0263 35.0868 46.1625C35.3023 46.299 35.5832 46.3561 35.8537 46.3227C36.0192 46.2787 36.2135 46.2773 36.3975 46.308C36.5839 46.339 36.768 46.4042 36.908 46.4999C37.0469 46.5948 37.1563 46.7306 37.1558 46.9027C37.1553 47.0732 37.0467 47.2441 36.8342 47.4099L36.8143 47.4254L36.7893 47.4285C36.1886 47.5023 35.5472 47.5223 34.9572 47.3427L34.9549 47.3474L34.9266 47.3332C34.7012 47.2617 34.4837 47.1606 34.2791 47.0216L34.273 47.0175L34.2677 47.0124C34.017 46.7753 33.7076 46.3034 33.5786 45.8562C33.5141 45.6327 33.4909 45.403 33.5547 45.2081C33.6208 45.0059 33.7762 44.8543 34.0362 44.7876L34.048 44.7846ZM34.995 47.1638L34.9925 47.1626L34.9923 47.163C34.7805 47.0968 34.5775 47.0033 34.3875 46.8751C34.1607 46.658 33.8724 46.2177 33.7535 45.8057C33.6936 45.5979 33.6803 45.4098 33.7277 45.2647C33.7719 45.1297 33.872 45.021 34.0695 44.9672C34.141 44.9701 34.1949 44.9896 34.2381 45.0182C34.2846 45.049 34.3234 45.0937 34.3579 45.1506C34.3927 45.2078 34.4212 45.2743 34.4487 45.3462C34.4581 45.3708 34.4677 45.3969 34.4774 45.4235C34.4929 45.4656 34.5088 45.5089 34.5249 45.5487C34.5492 45.8952 34.7345 46.1549 34.9893 46.3163C35.2458 46.4788 35.5727 46.5425 35.8829 46.5026L35.8893 46.5017L35.8954 46.5001C36.0309 46.463 36.2002 46.4597 36.3676 46.4876C36.5351 46.5155 36.6925 46.5731 36.8053 46.6502C36.9192 46.7281 36.974 46.8153 36.9737 46.9021C36.9735 46.9876 36.9203 47.1063 36.7417 47.2508C36.1493 47.3219 35.5428 47.3343 34.995 47.1638ZM30.5368 51.9295L30.6056 51.9333C30.8074 51.9443 30.948 52.0083 31.038 52.1208C31.1246 52.2291 31.152 52.3676 31.163 52.4994C31.1686 52.5663 31.1702 52.6355 31.1715 52.7024L31.1717 52.7143C31.173 52.7779 31.1742 52.8395 31.1782 52.8994C31.1867 53.0243 31.2069 53.1296 31.2555 53.2117C31.403 53.3679 31.5388 53.5741 31.6694 53.7724C31.7083 53.8316 31.7468 53.89 31.785 53.9463C31.9565 54.1985 32.1207 54.4039 32.3042 54.4927L32.3056 54.4934C32.3082 54.4946 32.3115 54.4962 32.3158 54.4982L32.3154 54.4989C32.3161 54.4992 32.3167 54.4996 32.3174 54.4999C32.3359 54.5098 32.3709 54.5289 32.4156 54.5557C32.5043 54.6089 32.6341 54.6943 32.7481 54.8004C32.8595 54.9041 32.9692 55.0398 32.9949 55.1951C33.0227 55.3629 32.9492 55.5255 32.7556 55.666L32.7473 55.672L32.7379 55.676C32.4499 55.7991 32.2202 55.7563 32.0122 55.6508C31.9113 55.5997 31.8153 55.5337 31.7219 55.4682C31.712 55.4612 31.7021 55.4543 31.6923 55.4474C31.6076 55.3878 31.5241 55.329 31.4344 55.2764L31.4315 55.2747L31.4288 55.2729C31.4204 55.267 31.412 55.261 31.4036 55.2548C31.403 55.2544 31.4025 55.254 31.4019 55.2536C31.2404 55.1335 31.0998 54.9484 30.9658 54.7576C30.9321 54.7095 30.8987 54.6609 30.8653 54.6123C30.7555 54.4527 30.6457 54.293 30.5238 54.1509C30.2763 53.882 30.0625 53.4141 30.0168 52.9767C29.9938 52.7568 30.0125 52.5365 30.098 52.3502C30.1794 52.1731 30.3194 52.0314 30.5288 51.9528L30.5368 51.9295ZM30.6126 52.1162C30.4377 52.1761 30.3277 52.2865 30.2635 52.4263C30.196 52.5732 30.177 52.7579 30.1979 52.9578C30.2399 53.3596 30.4392 53.7908 30.6588 54.0287L30.6599 54.0299L30.6609 54.0311C30.7902 54.1816 30.908 54.353 31.0191 54.5145C31.0516 54.5618 31.0835 54.6082 31.1149 54.653C31.2174 54.799 31.3145 54.9273 31.414 55.0243C31.4295 55.0273 31.44 55.0333 31.442 55.0344L31.4422 55.0346C31.4521 55.04 31.4598 55.0467 31.4628 55.0492C31.4773 55.0617 31.5012 55.0862 31.5368 55.1254C31.6295 55.1805 31.7159 55.2413 31.7968 55.2983C31.8068 55.3053 31.8167 55.3122 31.8265 55.3191C31.836 55.3258 31.8454 55.3324 31.8548 55.3389L31.857 55.339C31.8603 55.3392 31.8639 55.3394 31.8676 55.3398C31.8707 55.3401 31.8738 55.3405 31.8769 55.341C31.8817 55.3418 31.8953 55.3441 31.9097 55.3519C31.9164 55.3555 31.9333 55.3654 31.9456 55.3861C31.9494 55.3926 31.9524 55.3994 31.9546 55.4065C32.0017 55.4371 32.0479 55.4648 32.0945 55.4884C32.2616 55.5731 32.4321 55.6057 32.6569 55.5125C32.8038 55.4031 32.8285 55.3052 32.8152 55.2249C32.7996 55.1306 32.7273 55.0298 32.624 54.9337C32.5232 54.8399 32.4056 54.762 32.322 54.7118C32.2806 54.687 32.2483 54.6695 32.2317 54.6606C32.2276 54.6584 32.2244 54.6568 32.2221 54.6555L32.222 54.6555L32.2188 54.6538C32.2185 54.6536 32.2177 54.6532 32.2167 54.6526C31.9866 54.5375 31.8006 54.2931 31.6344 54.0486C31.5922 53.9865 31.5511 53.9241 31.5105 53.8625C31.3797 53.6641 31.2546 53.4742 31.117 53.3303L31.1106 53.3236L31.1056 53.3156C31.0292 53.1934 31.0058 53.0483 30.9965 52.9117C30.9922 52.8472 30.9909 52.7815 30.9897 52.7188L30.9894 52.706C30.9881 52.6386 30.9866 52.5748 30.9815 52.5145C30.9713 52.3918 30.9474 52.2991 30.8958 52.2346C30.8493 52.1764 30.7687 52.1277 30.6126 52.1162ZM32.2264 54.6574C32.2307 54.6594 32.235 54.6615 32.2393 54.6634L32.2403 54.6614C32.2465 54.6625 32.2553 54.6639 32.2627 54.6642C32.3249 54.6382 32.3463 54.5406 32.3267 54.5099C32.3231 54.5065 32.3182 54.5024 32.315 54.4998L32.2403 54.6614C32.24 54.6613 32.2397 54.6613 32.2395 54.6612L32.2772 54.5806L32.3143 54.4993C32.3145 54.4995 32.3148 54.4997 32.315 54.4998M31.937 55.3949C31.9224 55.3601 31.8904 55.3487 31.8792 55.346C31.8736 55.3447 31.8678 55.344 31.862 55.344C31.8874 55.3616 31.9123 55.3786 31.937 55.3949ZM31.3441 55.1873C31.3442 55.1874 31.3442 55.1874 31.3443 55.1875C31.3435 55.1868 31.3434 55.1867 31.3441 55.1873ZM24.8094 54.6358L24.8351 54.6394C25.0969 54.6766 25.268 54.7596 25.3551 54.8956C25.4421 55.0315 25.4267 55.1922 25.3876 55.3374C25.3585 55.4449 25.3114 55.5601 25.2672 55.6684C25.2518 55.7061 25.2367 55.743 25.2229 55.7784C25.168 55.9187 25.1319 56.0367 25.1358 56.1313C25.1724 56.2502 25.1754 56.3796 25.1674 56.5056C25.1618 56.5934 25.1502 56.686 25.139 56.7752C25.1338 56.8167 25.1287 56.8574 25.1243 56.8966C25.0976 57.1364 25.0983 57.3262 25.1979 57.4579C25.3689 57.4383 25.5167 57.5511 25.6182 57.6848C25.7344 57.838 25.816 58.0484 25.8386 58.244C25.8605 58.4336 25.8296 58.6449 25.6733 58.7571C25.5151 58.8705 25.2779 58.8478 24.9735 58.6913C24.2046 58.3999 23.8778 57.6152 23.9868 56.8523C23.9698 56.484 23.9618 56.0302 24.0575 55.6232C24.1544 55.2115 24.3612 54.833 24.7856 54.6462L24.8094 54.6358ZM24.8355 54.8236C24.4989 54.982 24.3226 55.2918 24.2348 55.6649C24.1447 56.048 24.1519 56.483 24.1691 56.8526L24.1695 56.8614L24.1682 56.8701C24.0645 57.5747 24.3666 58.2691 25.0426 58.5227L25.0476 58.5246L25.0524 58.5271C25.3463 58.6792 25.4971 58.6593 25.5671 58.6091C25.6398 58.557 25.6775 58.4361 25.6577 58.2649C25.6386 58.0996 25.5684 57.9205 25.4731 57.7949C25.3746 57.6652 25.2739 57.6201 25.1893 57.6448L25.137 57.66L25.0989 57.6213C24.9011 57.4203 24.9151 57.1297 24.9433 56.8764C24.9483 56.8316 24.9538 56.788 24.9592 56.7451C24.97 56.6592 24.9804 56.5763 24.9856 56.494C24.9934 56.3723 24.9884 56.2657 24.9591 56.1762L24.9556 56.1656L24.9548 56.1545C24.9483 56.0654 24.9667 55.9704 24.995 55.8767C24.9921 55.8668 24.9912 55.8577 24.9912 55.8505C24.9913 55.8334 24.9961 55.8206 24.9983 55.8152C25.001 55.8088 25.0039 55.8038 25.0057 55.8009C25.0094 55.795 25.0131 55.7904 25.0154 55.7877C25.02 55.7822 25.0254 55.7768 25.0305 55.7718C25.0379 55.7517 25.0456 55.7317 25.0533 55.7121C25.0696 55.6703 25.0863 55.6295 25.1026 55.5895C25.1454 55.4847 25.1859 55.3856 25.2117 55.29C25.2473 55.1582 25.2458 55.0627 25.2017 54.9938C25.1592 54.9274 25.0603 54.8594 24.8355 54.8236ZM25.026 55.7841C25.0253 55.785 25.0247 55.7859 25.024 55.7869C25.0224 55.789 25.0202 55.7923 25.018 55.7965C25.0159 55.8005 25.0129 55.8069 25.0107 55.8154C25.0093 55.8207 25.0079 55.8279 25.0078 55.8365C25.0136 55.8189 25.0197 55.8015 25.026 55.7841ZM19.8334 55.162C19.9366 55.3371 19.9585 55.5718 19.8196 55.7611L19.8096 55.7747L19.7953 55.7839C19.503 55.971 19.3571 56.2361 19.2878 56.5401C19.2222 56.8277 19.2261 57.1461 19.2411 57.4607C19.7538 57.6179 19.9914 58.0956 19.9499 58.4565C19.9279 58.6474 19.8243 58.8208 19.6261 58.8788C19.4373 58.934 19.193 58.8746 18.9049 58.6831C18.6175 58.5997 18.3814 58.3127 18.2357 57.9785C18.0871 57.6375 18.0205 57.2219 18.0948 56.8534C18.0836 56.4022 18.2068 55.9649 18.4178 55.6133C18.63 55.2596 18.9351 54.9862 19.289 54.8788L19.2977 54.8762L19.3068 54.8753C19.5358 54.8535 19.7304 54.9873 19.8334 55.162ZM19.3328 55.0559C19.473 55.0463 19.6025 55.129 19.6765 55.2545C19.749 55.3776 19.7583 55.5249 19.6818 55.6405C19.3503 55.8586 19.1863 56.1659 19.1102 56.4997C19.0338 56.8349 19.0452 57.2012 19.0626 57.5359L19.0661 57.6037L19.1321 57.6196C19.5978 57.732 19.8021 58.1474 19.769 58.4357C19.7527 58.5771 19.6829 58.6724 19.575 58.704C19.4603 58.7376 19.27 58.7099 18.9943 58.5238L18.9815 58.5151L18.9666 58.5112C18.7524 58.4548 18.5425 58.2264 18.4027 57.9057C18.2646 57.5891 18.2066 57.2074 18.2752 56.8801L18.2774 56.8695L18.2771 56.8587C18.2647 56.4392 18.3789 56.0321 18.574 55.707C18.7674 55.3845 19.0364 55.1489 19.3328 55.0559Z" fill="#816647"/>
<path d="M31.9645 1.38295C32.1177 1.40786 32.2199 1.55754 32.1937 1.71854C32.1937 1.71854 31.8299 2.677 31.8723 3.69539C31.7399 4.17321 31.1291 3.96085 31.1795 3.58274C31.1795 3.58274 31.5516 2.90139 31.5009 1.60588C31.4503 0.310409 31.7326 1.34524 31.9645 1.38295Z" fill="#474747"/>
<path fill-rule="evenodd" clip-rule="evenodd" d="M31.5668 1.22523C31.5636 1.31843 31.5646 1.44206 31.5709 1.60312C31.5965 2.25816 31.5153 2.75925 31.427 3.09779C31.3828 3.26702 31.3369 3.39555 31.3018 3.48232C31.2842 3.5257 31.2693 3.55865 31.2586 3.58102C31.2542 3.59032 31.2505 3.59779 31.2477 3.60343C31.2353 3.74307 31.3401 3.85859 31.4743 3.89206C31.5414 3.90879 31.61 3.90274 31.6673 3.87118C31.7217 3.84121 31.7725 3.78459 31.8019 3.68685C31.782 3.17315 31.8631 2.67683 31.949 2.30912C31.9923 2.12364 32.0369 1.97026 32.0708 1.86307C32.0878 1.80946 32.102 1.76737 32.1121 1.73856C32.1172 1.72415 32.1211 1.71306 32.1239 1.7055C32.1245 1.70379 32.1251 1.70225 32.1256 1.7009C32.1424 1.57746 32.0632 1.46994 31.9533 1.45206C31.9023 1.44376 31.8595 1.41065 31.8268 1.37844C31.7925 1.34468 31.7598 1.30222 31.73 1.26023C31.7098 1.23169 31.6894 1.2013 31.6703 1.17275C31.6614 1.15954 31.6528 1.14673 31.6446 1.13467C31.6214 1.10041 31.6012 1.07211 31.5836 1.05141C31.5759 1.08693 31.5697 1.14255 31.5668 1.22523ZM32.2592 1.74337L32.2592 1.74344L32.2591 1.74386L32.2584 1.74574C32.2577 1.74745 32.2568 1.75006 32.2555 1.75355C32.2529 1.76053 32.2492 1.77103 32.2443 1.78482C32.2347 1.8124 32.2209 1.85314 32.2044 1.9053C32.1714 2.00965 32.1277 2.15953 32.0854 2.34097C32.0005 2.70436 31.9215 3.19183 31.9423 3.69246L31.9428 3.70346L31.9398 3.71407C31.9024 3.84896 31.8289 3.9421 31.7349 3.99386C31.642 4.04505 31.5363 4.05187 31.4404 4.02798C31.2524 3.9811 31.079 3.80683 31.1101 3.57346L31.1118 3.56056L31.118 3.54923L31.118 3.54914L31.1187 3.54798C31.1192 3.54694 31.1201 3.54523 31.1213 3.54286C31.1237 3.53813 31.1274 3.53077 31.1322 3.5208C31.1417 3.50085 31.1554 3.47044 31.1719 3.4297C31.205 3.34824 31.2489 3.22546 31.2915 3.06242C31.3765 2.73641 31.456 2.24908 31.431 1.6086C31.4246 1.44579 31.4234 1.31837 31.4268 1.22036C31.4302 1.12348 31.4381 1.05118 31.4518 1.00084C31.4586 0.975848 31.4681 0.951257 31.4828 0.93115C31.4985 0.909717 31.5229 0.890093 31.5567 0.886447C31.5879 0.883078 31.6139 0.894943 31.6312 0.905958C31.649 0.917261 31.6648 0.93227 31.6784 0.947069C31.7056 0.976678 31.7337 1.01644 31.7605 1.05596C31.7698 1.0696 31.7789 1.08327 31.7881 1.09691C31.8066 1.12457 31.8251 1.15212 31.8442 1.17913C31.8727 1.21922 31.8997 1.25367 31.9251 1.27866C31.952 1.30519 31.9688 1.31267 31.9757 1.3138C32.1703 1.34544 32.2948 1.53385 32.2629 1.72976L32.2618 1.73675L32.2592 1.74337Z" fill="#424242"/>
<path d="M32.6759 1.53438C32.6134 1.62757 32.5331 1.70753 32.4397 1.7697C32.3462 1.83187 32.2415 1.87503 32.1314 1.89671C32.0213 1.91839 31.908 1.91817 31.7979 1.89607C31.6879 1.87396 31.5833 1.8304 31.4901 1.76788C31.3969 1.70535 31.317 1.62508 31.2548 1.53165C31.1926 1.43822 31.1495 1.33346 31.1278 1.22335C31.1061 1.11324 31.1063 0.99994 31.1284 0.889915C31.1505 0.779891 31.1941 0.675297 31.2566 0.582106C31.3192 0.488916 31.3994 0.408953 31.4929 0.346785C31.5863 0.284616 31.691 0.241458 31.8012 0.219776C31.9113 0.198094 32.0246 0.198311 32.1346 0.220416C32.2446 0.242521 32.3492 0.286081 32.4424 0.348608C32.5356 0.411135 32.6156 0.491405 32.6777 0.584835C32.7399 0.678265 32.783 0.783025 32.8047 0.893134C32.8264 1.00324 32.8262 1.11654 32.8041 1.22657C32.782 1.33659 32.7384 1.44119 32.6759 1.53438Z" fill="#474747"/>
<path fill-rule="evenodd" clip-rule="evenodd" d="M32.1142 0.321901C32.0175 0.302474 31.9179 0.302282 31.8212 0.321338C31.7244 0.340394 31.6323 0.378324 31.5502 0.432962C31.4681 0.487601 31.3975 0.557877 31.3426 0.639779C31.2876 0.721681 31.2493 0.813606 31.2299 0.910303C31.2105 1.007 31.2103 1.10658 31.2294 1.20335C31.2484 1.30012 31.2863 1.39219 31.341 1.4743C31.3956 1.55642 31.4659 1.62696 31.5478 1.68192C31.6297 1.73687 31.7216 1.77515 31.8183 1.79458C31.915 1.81401 32.0146 1.8142 32.1114 1.79514C32.2081 1.77609 32.3002 1.73816 32.3823 1.68352C32.4644 1.62888 32.535 1.5586 32.5899 1.4767C32.6449 1.3948 32.6832 1.30288 32.7026 1.20618C32.722 1.10948 32.7222 1.0099 32.7032 0.913132C32.6841 0.816361 32.6462 0.72429 32.5915 0.642177C32.5369 0.560065 32.4666 0.489518 32.3847 0.434565C32.3028 0.379612 32.2109 0.341328 32.1142 0.321901ZM31.7812 0.118211C31.9046 0.0939019 32.0316 0.0941462 32.155 0.118929C32.2783 0.143711 32.3956 0.192547 32.5001 0.262648C32.6045 0.332749 32.6942 0.422742 32.7639 0.527489C32.8336 0.632236 32.882 0.749686 32.9063 0.873133C32.9306 0.996579 32.9304 1.1236 32.9056 1.24696C32.8808 1.37031 32.832 1.48757 32.7619 1.59205C32.6918 1.69653 32.6018 1.78618 32.497 1.85588C32.3923 1.92558 32.2748 1.97396 32.1514 1.99827C32.0279 2.02258 31.9009 2.02234 31.7775 1.99755C31.6542 1.97277 31.5369 1.92393 31.4325 1.85383C31.328 1.78373 31.2383 1.69374 31.1686 1.58899C31.0989 1.48424 31.0505 1.3668 31.0262 1.24335C31.0019 1.1199 31.0022 0.992877 31.0269 0.869524C31.0517 0.746173 31.1006 0.628909 31.1707 0.52443C31.2408 0.419951 31.3308 0.330303 31.4355 0.260604C31.5403 0.190905 31.6577 0.142519 31.7812 0.118211Z" fill="#3C3C3C"/>
<path d="M32.8237 5.648C32.8241 5.70837 32.812 5.76822 32.7882 5.8241C32.7643 5.87998 32.7292 5.93078 32.6849 5.97359C32.6405 6.0164 32.5878 6.05038 32.5297 6.07356C32.4717 6.09674 32.4094 6.10868 32.3465 6.10868C32.2836 6.10868 32.2213 6.09674 32.1633 6.07356C32.1052 6.05038 32.0525 6.0164 32.0081 5.97359C31.9638 5.93078 31.9287 5.87998 31.9048 5.8241C31.881 5.76822 31.8689 5.70837 31.8693 5.648C31.8689 5.58762 31.881 5.52777 31.9048 5.47189C31.9287 5.41602 31.9638 5.36521 32.0081 5.3224C32.0525 5.27959 32.1052 5.24562 32.1633 5.22243C32.2213 5.19925 32.2836 5.18732 32.3465 5.18732C32.4094 5.18732 32.4717 5.19925 32.5297 5.22243C32.5878 5.24562 32.6405 5.27959 32.6849 5.3224C32.7292 5.36521 32.7643 5.41602 32.7882 5.47189C32.812 5.52777 32.8241 5.58762 32.8237 5.648Z" fill="#212121"/>
<path fill-rule="evenodd" clip-rule="evenodd" d="M32.3466 5.30637C32.2987 5.30637 32.2514 5.31546 32.2075 5.33301C32.1635 5.35055 32.1239 5.37613 32.0909 5.40806C32.0578 5.43997 32.0319 5.47758 32.0144 5.51859C31.9969 5.55958 31.9881 5.60331 31.9884 5.6473L31.9884 5.64799L31.9884 5.64867C31.9881 5.69266 31.9969 5.73639 32.0144 5.77738C32.0319 5.81839 32.0578 5.856 32.0909 5.88791C32.1239 5.91984 32.1635 5.94543 32.2075 5.96297C32.2514 5.98051 32.2987 5.9896 32.3466 5.9896C32.3944 5.9896 32.4417 5.98051 32.4856 5.96297C32.5296 5.94543 32.5692 5.91984 32.6022 5.88791C32.6353 5.856 32.6612 5.81839 32.6787 5.77738C32.6962 5.73639 32.705 5.69266 32.7047 5.64867L32.7047 5.64799L32.7047 5.6473C32.705 5.60331 32.6962 5.55958 32.6787 5.51859C32.6612 5.47758 32.6353 5.43997 32.6022 5.40806C32.5692 5.37613 32.5296 5.35055 32.4856 5.33301C32.4417 5.31546 32.3944 5.30637 32.3466 5.30637ZM32.1192 5.11184C32.1914 5.08302 32.2686 5.06824 32.3466 5.06824C32.4245 5.06824 32.5017 5.08302 32.5739 5.11184C32.6461 5.14066 32.712 5.18303 32.7676 5.23672C32.8233 5.29043 32.8676 5.35443 32.8977 5.42518C32.9278 5.49573 32.9432 5.57146 32.9428 5.64799C32.9432 5.72451 32.9278 5.80024 32.8977 5.87079C32.8676 5.94154 32.8233 6.00554 32.7676 6.05925C32.712 6.11294 32.6461 6.15531 32.5739 6.18413C32.5017 6.21295 32.4245 6.22773 32.3466 6.22773C32.2686 6.22773 32.1914 6.21295 32.1192 6.18413C32.047 6.15531 31.9811 6.11294 31.9255 6.05925C31.8698 6.00554 31.8255 5.94154 31.7954 5.87079C31.7653 5.80024 31.7499 5.72451 31.7502 5.64799C31.7499 5.57146 31.7653 5.49573 31.7954 5.42518C31.8255 5.35443 31.8698 5.29043 31.9255 5.23672C31.9811 5.18303 32.047 5.14066 32.1192 5.11184Z" fill="url(#paint4_linear_844_10584)"/>
<path fill-rule="evenodd" clip-rule="evenodd" d="M33.0142 5.07383C32.8539 5.06142 32.7044 5.04463 32.5648 5.02893C32.5277 5.02476 32.4913 5.02067 32.4555 5.01675C32.2865 4.99825 32.1313 4.98365 31.9942 4.98558C31.8572 4.98751 31.7321 5.00591 31.6253 5.0576C31.5163 5.11031 31.4313 5.19527 31.3715 5.32058C31.2519 5.57147 31.2961 5.86648 31.4482 6.13509C31.6007 6.40431 31.8652 6.65496 32.2039 6.82705C32.5425 6.99912 32.8968 7.06291 33.1977 7.02333C33.4982 6.9838 33.753 6.83917 33.8729 6.58769C33.991 6.34005 33.9693 5.9782 33.8279 5.67446C33.6851 5.36787 33.4128 5.10467 33.0142 5.07383ZM31.498 5.38088C31.5449 5.28239 31.6078 5.22165 31.6863 5.18369C31.7668 5.1447 31.8686 5.12744 31.9962 5.12565C32.1237 5.12385 32.2709 5.13746 32.4403 5.156C32.4753 5.15983 32.5112 5.16387 32.548 5.168L33.0034 5.21349C33.3383 5.2394 33.5732 5.45932 33.7009 5.73358C33.8299 6.01068 33.8419 6.3274 33.7465 6.52738C33.6529 6.72351 33.4486 6.84904 33.1794 6.88445C32.9105 6.91982 32.5845 6.86334 32.2673 6.70217C31.9502 6.54102 31.7075 6.30855 31.5701 6.06605C31.4324 5.82293 31.4041 5.57762 31.498 5.38088Z" fill="#015A01"/>
<defs>
<linearGradient id="paint0_linear_844_10584" x1="16.1713" y1="13.4677" x2="36.0826" y2="18.2331" gradientUnits="userSpaceOnUse">
<stop stop-color="#6D5744"/>
<stop offset="1" stop-color="#6D5744" stop-opacity="0"/>
</linearGradient>
<linearGradient id="paint1_linear_844_10584" x1="23.2383" y1="44.4485" x2="32.8308" y2="55.6939" gradientUnits="userSpaceOnUse">
<stop stop-color="#6D5744"/>
<stop offset="1" stop-color="#6D5744" stop-opacity="0"/>
</linearGradient>
<linearGradient id="paint2_linear_844_10584" x1="33.1834" y1="9.5308" x2="32.9169" y2="8.20765" gradientUnits="userSpaceOnUse">
<stop stop-color="#212121"/>
<stop offset="1" stop-color="#212121" stop-opacity="0"/>
</linearGradient>
<linearGradient id="paint3_linear_844_10584" x1="29.691" y1="6.21017" x2="30.8834" y2="6.21017" gradientUnits="userSpaceOnUse">
<stop stop-color="#6600CC"/>
<stop offset="1" stop-color="#6600CC" stop-opacity="0"/>
</linearGradient>
<linearGradient id="paint4_linear_844_10584" x1="31.7497" y1="5.64754" x2="32.9422" y2="5.64754" gradientUnits="userSpaceOnUse">
<stop stop-color="#6600CC"/>
<stop offset="1" stop-color="#6600CC" stop-opacity="0"/>
</linearGradient>
</defs>
</svg>
