<svg width="60" height="60" viewBox="0 0 60 60" fill="none" xmlns="http://www.w3.org/2000/svg">
<path d="M43.4291 4.05774L37.6507 14.2137H41.654C40.8611 18.9103 36.7824 22.5374 31.91 22.5753C30.5887 22.5753 29.2666 22.9192 28.096 23.606C26.3586 24.5987 25.1503 26.2412 24.6211 28.188C24.0928 30.1355 24.3565 32.159 25.3764 33.9152C26.3586 35.6715 27.9821 36.8935 29.9089 37.4279C30.5511 37.6191 31.1924 37.6949 31.8346 37.6949C33.1191 37.6949 34.4028 37.3519 35.5733 36.6642C37.3108 35.6715 38.5198 34.0298 39.0482 32.0823C39.5774 30.1355 39.3129 28.1122 38.2929 26.355C37.9531 25.7828 37.5753 25.2864 37.1224 24.8279C41.314 22.9571 44.3736 18.9861 44.9781 14.2515H49.2075L43.4291 4.05774ZM32.8922 26.05C33.9498 26.355 34.8557 27.0427 35.4226 27.9976C35.9894 28.9516 36.1402 30.0967 35.8379 31.1662C35.5357 32.2357 34.8557 33.1517 33.912 33.7248C32.9675 34.297 31.8346 34.4496 30.7771 34.1444C29.7197 33.8386 28.8136 33.1517 28.2468 32.1969C27.6807 31.243 27.5292 30.0967 27.8315 29.0282C28.1337 27.9587 28.8136 27.0427 29.7572 26.4696C30.3995 26.0878 31.0793 25.8974 31.797 25.8974C31.797 25.8974 31.797 25.8974 31.8346 25.8974C31.8346 25.8974 31.8346 25.8974 31.8724 25.8974C32.1746 25.8974 32.5522 25.9354 32.8922 26.05Z" fill="black"/>
<path d="M48.0753 38.9198L36.9714 35.5599L39.6149 46.9756L42.5238 44.2266C45.1295 48.2355 44.6003 53.6957 41.0501 57.0936C40.371 57.7425 40.3325 58.774 40.9747 59.4608C41.617 60.1485 42.6368 60.1865 43.3167 59.5376C48.2259 54.8797 48.8304 47.2815 44.9779 41.8972L48.0753 38.9198Z" fill="black"/>
<path d="M15.8979 38.1849L24.4336 30.2816L13.4052 26.7303L14.2736 30.6635C9.51501 30.8927 5.13412 27.6472 4.07658 22.7981C3.88777 21.8812 2.98137 21.309 2.11273 21.5382C1.20632 21.7287 0.639785 22.6456 0.866362 23.5237C2.3393 30.167 8.45746 34.5957 15.0287 33.9847L15.8979 38.1849Z" fill="black"/>
</svg>
