<svg width="60" height="60" viewBox="0 0 60 60" fill="none" xmlns="http://www.w3.org/2000/svg">
<path d="M35.211 6.68261C32.7005 3.69396 30.5248 0.669456 30.0825 0.0358637C30.0347 -0.0119546 29.9629 -0.0119546 29.9151 0.0358637C29.4728 0.669456 27.309 3.70592 24.7866 6.68261C3.17272 34.2499 28.1937 52.8512 28.1937 52.8512L28.4088 52.9946C28.6001 55.8637 29.0663 60 29.0663 60H30.9313C30.9313 60 31.3975 55.8876 31.5888 52.9946L31.8039 52.8273C31.8039 52.8273 56.8368 34.2499 35.2349 6.68261H35.211ZM29.9868 52.4208C29.9868 52.4208 28.8631 51.4644 28.5642 50.9743V50.9265L29.9151 20.9085C29.9151 20.8129 30.0586 20.8129 30.0586 20.9085L31.4094 50.9265V50.9743C31.1106 51.4644 29.9868 52.4208 29.9868 52.4208V52.4208Z" fill="#001E2B"/>
</svg>
