<?xml version="1.0" encoding="UTF-8"?>
<svg xmlns="http://www.w3.org/2000/svg" xmlns:xlink="http://www.w3.org/1999/xlink" width="60px" height="60px" viewBox="0 0 60 60" version="1.1">
<g id="surface1">
<path style=" stroke:none;fill-rule:nonzero;fill:rgb(7.450981%,29.019609%,54.11765%);fill-opacity:1;" d="M 34.921875 22.277344 L 28.164062 26.179688 L 42.234375 34.304688 L 48.996094 30.402344 Z M 34.921875 22.277344 "/>
<path style=" stroke:none;fill-rule:nonzero;fill:rgb(7.450981%,29.019609%,54.11765%);fill-opacity:1;" d="M 20.316406 23.429688 L 20.316406 29.738281 L 33.777344 37.511719 L 39.246094 34.355469 Z M 20.316406 23.429688 "/>
<path style=" stroke:none;fill-rule:nonzero;fill:rgb(5.098039%,14.117648%,32.941177%);fill-opacity:1;" d="M 18.410156 30.320312 L 18.410156 20.882812 L 11.003906 16.605469 L 11.003906 26.015625 Z M 18.410156 30.320312 "/>
<path style=" stroke:none;fill-rule:nonzero;fill:rgb(0%,68.235296%,93.725491%);fill-opacity:1;" d="M 41.425781 16.804688 L 33.695312 12.34375 L 26.046875 16.761719 L 18.390625 12.34375 L 11.003906 16.605469 L 26.386719 25.488281 L 33.773438 21.222656 Z M 41.425781 16.804688 "/>
<path style=" stroke:none;fill-rule:nonzero;fill:rgb(5.098039%,14.117648%,32.941177%);fill-opacity:1;" d="M 33.773438 47.65625 L 33.773438 39.191406 L 24.363281 33.757812 L 24.363281 42.222656 Z M 33.773438 47.65625 "/>
<path style=" stroke:none;fill-rule:nonzero;fill:rgb(5.098039%,14.117648%,32.941177%);fill-opacity:1;" d="M 48.996094 30.402344 L 33.773438 39.191406 L 33.773438 47.65625 L 48.996094 38.871094 Z M 48.996094 30.402344 "/>
<path style=" stroke:none;fill-rule:nonzero;fill:rgb(7.450981%,29.019609%,54.11765%);fill-opacity:1;" d="M 41.425781 24.308594 L 41.425781 16.804688 L 34.925781 20.558594 Z M 41.425781 24.308594 "/>
</g>
</svg>
