<svg width="60" height="60" viewBox="0 0 60 60" fill="none" xmlns="http://www.w3.org/2000/svg">
<g clip-path="url(#clip0_1272_15284)">
<path d="M3.38251 28.5613C3.38251 35.1538 5.79251 41.3238 9.97251 46.0938L7.45501 48.3513C2.64386 42.8821 -0.00683971 35.8456 1.32548e-05 28.5613C1.32548e-05 20.1638 3.45001 12.5738 9.01001 7.12634L9.13501 7.23884L16.5925 13.9263C13.2099 17.0251 11.0047 21.1995 10.3516 25.7401C9.69854 30.2807 10.6379 34.9074 13.01 38.8338L15.585 36.5263C13.7716 33.2411 13.134 29.4353 13.7777 25.7384C14.4215 22.0416 16.3079 18.6753 19.125 16.1963L21.675 18.4838L23.9475 20.5188L26.3 22.6288C25.2946 23.254 24.4657 24.1259 23.8921 25.1616C23.3185 26.1973 23.0191 27.3624 23.0225 28.5463C23.0225 31.6213 25.01 34.2288 27.77 35.1613L28.0075 38.4038C26.3666 38.0708 24.8347 37.3335 23.5508 36.2587C22.2669 35.1839 21.2716 33.8056 20.6551 32.2489C20.0386 30.6921 19.8205 29.0061 20.0204 27.3437C20.2203 25.6813 20.832 24.095 21.8 22.7288L19.55 20.7063L19.54 20.6988C17.7508 23.078 16.8265 25.9961 16.9197 28.9714C17.0129 31.9468 18.118 34.8013 20.0525 37.0638L12.495 43.8388C8.89386 39.7131 6.86625 34.4477 6.77018 28.9722C6.67412 23.4967 8.51579 18.1634 11.97 13.9138L9.44251 11.6513C5.85536 15.9979 3.74745 21.375 3.42501 27.0013L3.41001 27.0213L3.42251 27.0313C3.39501 27.5388 3.38001 28.0463 3.38001 28.5613H3.38251ZM32.2325 35.1588C33.4844 34.7356 34.5906 33.9658 35.4223 32.9389C36.2541 31.9119 36.7774 30.6701 36.9313 29.3575C37.0853 28.045 36.8636 26.7157 36.292 25.5242C35.7205 24.3327 34.8225 23.3278 33.7025 22.6263L36.055 20.5163L38.325 18.4813L40.8775 16.1938C43.695 18.6724 45.582 22.0386 46.2261 25.7355C46.8703 29.4324 46.2331 33.2384 44.42 36.5238L46.9925 38.8313C49.3646 34.9049 50.304 30.2782 49.6509 25.7376C48.9978 21.197 46.7926 17.0226 43.41 13.9238L50.8625 7.24134L50.9875 7.12884C53.8444 9.91879 56.1137 13.2526 57.6615 16.9335C59.2094 20.6145 60.0045 24.5682 60 28.5613C60 36.0113 57.2625 42.9838 52.545 48.3513L50.0275 46.0938C54.6332 40.8487 56.9857 33.9995 56.575 27.0313L56.5875 27.0213L56.5725 27.0038C56.2508 21.3765 54.1428 15.9985 50.555 11.6513L48.035 13.9113C51.4889 18.1612 53.3301 23.4947 53.2336 28.9701C53.1371 34.4456 51.109 39.7109 47.5075 43.8363L39.95 37.0613C41.8845 34.7988 42.9896 31.9443 43.0828 28.9689C43.176 25.9936 42.2517 23.0755 40.4625 20.6963L40.4525 20.7038L38.2025 22.7238C39.1705 24.0899 39.7823 25.6759 39.9823 27.3382C40.1824 29.0004 39.9645 30.6863 39.3482 32.243C38.732 33.7997 37.737 35.178 36.4534 36.253C35.1698 37.3279 33.6382 38.0655 31.9975 38.3988L32.2325 35.1588Z" fill="#3C5280"/>
<path d="M30.8376 41.4467L30.0001 52.8742L29.1626 41.4467L28.4851 32.1667C27.6556 31.817 26.9726 31.1911 26.552 30.3952C26.1314 29.5994 25.9991 28.6825 26.1774 27.8001C26.3558 26.9178 26.8339 26.1243 27.5307 25.5544C28.2274 24.9844 29.0999 24.673 30.0001 24.673C30.9003 24.673 31.7728 24.9844 32.4695 25.5544C33.1663 26.1243 33.6444 26.9178 33.8228 27.8001C34.0011 28.6825 33.8688 29.5994 33.4482 30.3952C33.0276 31.1911 32.3446 31.817 31.5151 32.1667L30.8376 41.4467Z" fill="#F3771C"/>
</g>
<defs>
<clipPath id="clip0_1272_15284">
<rect width="60" height="60" fill="white" transform="translate(0 0.00134277)"/>
</clipPath>
</defs>
</svg>
