<svg width="60" height="60" viewBox="0 0 60 60" fill="none" xmlns="http://www.w3.org/2000/svg">
<path fill-rule="evenodd" clip-rule="evenodd" d="M27.0322 8.78073C25.7426 10.6045 26.1641 13.1269 27.9766 14.4321L49.9299 30.2433C50.4618 30.6265 50.4751 31.4137 49.9562 31.8145L31.6141 45.9836C29.8661 47.3339 29.5125 49.8309 30.8168 51.6133C32.1662 53.4575 34.768 53.8312 36.5821 52.4417L57.2267 36.626C58.9689 35.2914 59.9903 33.2217 59.9903 31.027C59.9903 28.756 58.8968 26.6238 57.0524 25.2988L32.7289 7.82529C30.8941 6.50712 28.3367 6.9361 27.0322 8.78073Z" fill="#222452"/>
<path fill-rule="evenodd" clip-rule="evenodd" d="M1.17075 10.3049C0.407925 11.4269 0 12.7522 0 14.1089V52.5589C0 53.8646 1.47402 54.6258 2.53865 53.8698L6.42129 51.1132C7.49554 50.3506 8.13376 49.1147 8.13376 47.7972V19.1703C8.13376 18.376 9.02925 17.9114 9.6787 18.369L26.9004 30.5024C27.4609 30.8973 27.4531 31.7309 26.8856 32.1154L21.3789 35.8458C19.5033 37.1165 19.0372 39.6798 20.345 41.5294C21.6265 43.3416 24.1292 43.7825 25.9527 42.5175L34.3346 36.7024C36.1306 35.4565 37.2019 33.4094 37.2019 31.2237C37.2019 29.0804 36.1717 27.0678 34.433 25.8147L9.60719 7.91833C6.91156 6.2715 3.39782 7.02984 1.62153 9.64222L1.17075 10.3049Z" fill="#222452"/>
</svg>
