<svg width="60" height="60" viewBox="0 0 60 60" fill="none" xmlns="http://www.w3.org/2000/svg">
<path d="M49.475 19.6146L52.7604 10.8976C51.347 9.13414 49.7278 7.55306 47.9034 6.15244C45.0121 3.93259 41.81 2.32914 38.2986 1.34106C36.6385 0.871545 34.9586 0.525829 33.26 0.30556C32.053 0.149165 30.8381 0.0546694 29.6113 0.0237195C27.5755 -0.0375214 25.5355 0.0197684 23.4918 0.196248L30.2879 7.93564L27.1412 16.0109C27.9459 15.9803 28.769 16.0046 29.6113 16.0856C33.3371 16.4679 36.6747 17.779 39.6219 20.0179C39.9058 20.2332 40.1784 20.4545 40.4424 20.683L49.475 19.6146Z" fill="#5AB552"/>
<path d="M18.5243 6.85736C17.3604 7.3407 16.2449 7.89649 15.1781 8.52502L19.5084 10.1983L19.9849 14.5503C20.1449 14.4476 20.3065 14.3475 20.4702 14.25C22.7134 12.9113 25.1054 11.9881 27.6472 11.4797L28.9343 8.17436L26.1122 4.96185C23.5075 5.20912 20.9785 5.84126 18.5243 6.85736Z" fill="#5AB552"/>
<path d="M18.4259 11.0287L13.9474 9.2958C12.4569 10.2895 11.0671 11.4349 9.77971 12.7332C7.6208 14.9109 5.90176 17.3779 4.6223 20.1345L9.75766 19.0506L12.8839 22.8692C12.9919 22.6213 13.1058 22.3737 13.2266 22.1271C14.5796 19.3578 16.4701 17.0806 18.8944 15.2954L18.4259 11.0287Z" fill="#5AB552"/>
<path d="M43.4154 39.4369C43.8954 38.6269 44.2933 37.8026 44.6083 36.9642L49.457 42.8347L57.5923 41.0812C57.128 42.3645 56.5753 43.6204 55.9381 44.8496C54.2645 48.0742 52.0588 50.8736 49.3194 53.2485C46.5373 55.6582 43.3944 57.417 39.8881 58.5225L39.6789 58.5874L33.6489 53.4889L35.2296 46.5461L35.3478 46.4966C38.8017 45.03 41.4905 42.6757 43.4154 39.4369Z" fill="#5AB552"/>
<path d="M55.0051 14.1371C54.5645 13.3999 54.0976 12.6874 53.6004 12.0006L50.3221 20.6971L41.5438 21.7369C43.403 23.7055 44.6173 26.083 45.1869 28.8682C45.6673 31.2171 45.617 33.4741 45.0346 35.6386L49.9063 41.5331L58.0299 39.786C58.5399 38.1596 58.9153 36.4924 59.1575 34.7809C59.6623 31.2217 59.5625 27.6776 58.8575 24.1503C58.1473 20.5947 56.8633 17.2564 55.0051 14.1371Z" fill="#5AB552"/>
<path d="M4.05559 21.4455L9.3029 20.3396L12.3946 24.1135C11.4483 26.8219 11.2112 29.6397 11.6824 32.565C11.8154 33.3961 11.9985 34.2047 12.2296 34.9893L6.6896 33.7253L2.70928 38.4281C2.23186 36.3452 1.99546 34.2156 2.00007 32.0409C2.00731 28.4152 2.67931 24.9155 4.01707 21.5443C4.02958 21.511 4.04242 21.4778 4.05559 21.4455Z" fill="#5AB552"/>
<path d="M16.1819 42.0799C14.6331 40.3249 13.4607 38.3944 12.6649 36.2889L7.12618 35.0239L3.06682 39.8149C3.33483 40.7629 3.65486 41.7004 4.02494 42.6285C5.38344 46.0226 7.33854 49.0275 9.88993 51.645C11.4111 53.2054 13.0777 54.5539 14.8913 55.689L14.5936 48.5227L20.0944 45.3757C18.6572 44.5039 17.3528 43.4055 16.1819 42.0799Z" fill="#5AB552"/>
<path d="M21.2929 46.0369C22.4762 46.6252 23.7422 47.0741 25.0888 47.3839C28.1071 48.0836 31.0489 47.9655 33.9144 47.0332L32.3488 53.9265L38.3208 58.9755C35.3335 59.7566 32.2807 60.0907 29.1643 59.979C25.5274 59.8609 22.0373 59.091 18.6904 57.666C17.7939 57.2854 16.9279 56.8624 16.0903 56.3974L15.7933 49.1835L21.2929 46.0369Z" fill="#5AB552"/>
</svg>
