<svg width="60" height="60" viewBox="0 0 60 60" fill="none" xmlns="http://www.w3.org/2000/svg">
<path fill-rule="evenodd" clip-rule="evenodd" d="M4 30C4 32.6011 4.36907 35.0967 4.98418 37.5044H41.5044C45.652 37.5044 49.0088 34.1476 49.0088 30C49.0088 25.8524 45.652 22.4956 41.5044 22.4956H4.98418C4.36907 24.9033 4 27.3989 4 30Z" fill="#343741"/>
<path fill-rule="evenodd" clip-rule="evenodd" d="M54.4745 14.3585C55.529 13.3919 56.4956 12.355 57.3919 11.2478C51.891 4.39367 43.4727 0 34 0C22.1546 0 11.9437 6.88928 7.07556 16.8717H48.0773C50.4499 16.8717 52.7346 15.9754 54.4745 14.3585Z" fill="#FEC514"/>
<path fill-rule="evenodd" clip-rule="evenodd" d="M48.0773 43.1283H7.07556C11.9437 53.1107 22.1371 60 34 60C43.4727 60 51.9086 55.6063 57.3919 48.7522C56.4956 47.645 55.529 46.608 54.4745 45.6414C52.7346 44.0246 50.4499 43.1283 48.0773 43.1283Z" fill="#00BFB3"/>
</svg>
