<svg width="60" height="60" viewBox="0 0 60 60" fill="none" xmlns="http://www.w3.org/2000/svg">
<path d="M28.4186 26.7917C28.4187 27.536 28.1982 28.2636 27.7849 28.8825C27.3716 29.5014 26.784 29.9839 26.0965 30.2689C25.409 30.5539 24.6524 30.6287 23.9224 30.4837C23.1924 30.3387 22.5218 29.9805 21.9954 29.4545C21.469 28.9284 21.1103 28.258 20.9649 27.5281C20.8194 26.7982 20.8937 26.0416 21.1783 25.3539C21.4628 24.6662 21.9449 24.0783 22.5636 23.6645C23.1822 23.2508 23.9097 23.0298 24.6539 23.0295C25.6519 23.0297 26.609 23.426 27.3149 24.1314C28.0208 24.8369 28.4178 25.7937 28.4186 26.7917ZM33.2845 26.7917C33.284 27.5364 33.5044 28.2645 33.9177 28.8839C34.3311 29.5033 34.9189 29.9862 35.6067 30.2716C36.2946 30.5569 37.0516 30.6318 37.782 30.4868C38.5125 30.3418 39.1835 29.9835 39.7102 29.4571C40.237 28.9307 40.5958 28.2599 40.7412 27.5295C40.8867 26.7992 40.8123 26.0421 40.5274 25.3541C40.2426 24.666 39.76 24.0779 39.1409 23.6642C38.5217 23.2504 37.7938 23.0295 37.0491 23.0295C36.5549 23.0292 36.0654 23.1263 35.6087 23.3153C35.152 23.5042 34.7369 23.7813 34.3873 24.1307C34.0377 24.48 33.7604 24.8949 33.5712 25.3515C33.3819 25.8081 33.2845 26.2975 33.2845 26.7917Z" fill="#419EDA"/>
<path d="M58.9052 30.8748C58.6286 30.8965 58.3511 30.9069 58.0736 30.9062C56.4171 30.9047 54.7828 30.5243 53.2958 29.7942C53.7795 27.0038 53.995 24.1735 53.9392 21.342C52.3302 19.0092 50.4982 16.8384 48.4691 14.86C49.3676 13.1681 50.6974 11.7438 52.3237 10.7314L53.0313 10.2928L52.4791 9.66937C49.7009 6.51972 46.2676 4.01565 42.4198 2.33263L41.6544 2L41.4599 2.8071C41.0047 4.66977 40.0635 6.37832 38.7323 7.75841C36.2172 6.42226 33.5776 5.33493 30.8511 4.51188C28.1284 5.33305 25.4926 6.41867 22.9814 7.75323C21.6548 6.37573 20.7173 4.67096 20.2646 2.81287L20.0669 2.00318L19.304 2.33451C15.4611 4.02449 12.0296 6.52653 9.24547 9.66866L8.69396 10.292L9.40026 10.7301C11.0209 11.7371 12.3474 13.1537 13.2458 14.837C11.2228 16.8097 9.39423 18.9724 7.78535 21.2952C7.72028 24.1447 7.93015 26.9939 8.41202 29.8031C6.93334 30.5266 5.30923 30.9037 3.66302 30.9057C3.38489 30.9066 3.10684 30.896 2.82957 30.8741L2 30.8093L2.07704 31.6376C2.48199 35.821 3.80304 39.8639 5.94637 43.4793L6.36756 44.1965L6.99941 43.6584C8.46539 42.4178 10.235 41.5894 12.1267 41.2583C13.3584 43.7748 14.8278 46.1678 16.5148 48.4048C19.214 49.3524 21.9985 50.0371 24.8293 50.4493C25.1119 52.3681 24.8728 54.3277 24.1371 56.1223L23.8212 56.8915L24.6328 57.0714C26.6784 57.5256 28.7672 57.7566 30.8626 57.7603L37.091 57.0714L37.9033 56.8915L37.5887 56.1223C36.8518 54.3257 36.6134 52.3637 36.8984 50.4429C39.7178 50.0306 42.4909 49.3481 45.1796 48.4048C46.869 46.1666 48.3396 43.7712 49.5709 41.2518C51.4716 41.5804 53.2504 42.4098 54.7238 43.6545L55.3563 44.1901L55.7782 43.4786C57.9219 39.864 59.2415 35.8208 59.643 31.6376L59.7201 30.8099L58.9052 30.8748ZM39.7654 40.9961C33.9289 42.6013 27.7674 42.6013 21.931 40.9961C18.6687 35.9503 16.7966 30.1326 16.5039 24.1313C18.3784 21.8047 20.5519 19.7357 22.9679 17.978C25.3977 16.211 28.0481 14.7692 30.8517 13.6894C33.6486 14.768 36.2933 16.2058 38.7194 17.9665C41.1461 19.7377 43.329 21.8208 45.2117 24.1621C45.0544 27.1483 44.5081 30.1013 43.5866 32.9461C42.6657 35.7831 41.3813 38.489 39.7654 40.9961Z" fill="#419EDA"/>
</svg>
