<svg width="60" height="60" viewBox="0 0 60 60" fill="none" xmlns="http://www.w3.org/2000/svg">
<path d="M2.88778 1.00309C-1.80075 30.7277 0.652207 58.5557 0.652207 58.5557H15.3118C13.9172 51.1351 8.91324 17.2334 13.0758 17.1219C15.3067 17.4761 25.5 45.883 25.5 45.883C25.5 45.883 27.7447 45.6034 30.0034 45.6034C32.2621 45.6034 34.5077 45.883 34.5077 45.883C34.5077 45.883 44.7021 17.4756 46.9319 17.1219C51.0969 17.2334 46.092 51.1351 44.6984 58.5557H59.3585C59.3585 58.5557 61.8124 30.7259 57.1213 1.00141H43.5486C40.9652 1.03161 31.1356 18.2711 30.0058 18.2711C28.876 18.2711 19.0463 1.03367 16.463 1.00328L2.88778 1.00309Z" fill="url(#paint0_linear_1273_15292)"/>
<path d="M27.1121 55.0877C27.1121 57.0039 25.5586 58.5554 23.6422 58.5554C21.7258 58.5554 20.1744 57.0019 20.1744 55.0877C20.1744 53.1736 21.728 51.6177 23.6422 51.6177C25.5563 51.6177 27.1121 53.1711 27.1121 55.0877Z" fill="#CB4424"/>
<path d="M39.8343 55.0877C39.8343 57.0039 38.2809 58.5554 36.3665 58.5554C34.4522 58.5554 32.8988 57.0019 32.8988 55.0877C32.8988 53.1736 34.4503 51.6177 36.3673 51.6177C38.2842 51.6177 39.8358 53.1711 39.8358 55.0877H39.8343Z" fill="#CB4424"/>
<defs>
<linearGradient id="paint0_linear_1273_15292" x1="53.2173" y1="57.6314" x2="18.0792" y2="-3.99492" gradientUnits="userSpaceOnUse">
<stop stop-color="#268D83"/>
<stop offset="1" stop-color="#2EA19E"/>
</linearGradient>
</defs>
</svg>
