<svg width="60" height="60" viewBox="0 0 60 60" fill="none" xmlns="http://www.w3.org/2000/svg">
<path fill-rule="evenodd" clip-rule="evenodd" d="M13.6417 10.096C12.9546 10.096 12.4638 10.1819 11.973 10.3046V10.3905H12.0589C12.3902 11.0408 12.9546 11.4948 13.3718 12.0592C13.7031 12.7095 13.9853 13.3598 14.3166 14.0102C14.3534 13.9733 14.4025 13.9243 14.4025 13.9243C14.9792 13.5194 15.2614 12.869 15.2614 11.8875C15.016 11.6052 14.9792 11.3108 14.7706 11.0286C14.5252 10.6236 13.9976 10.4151 13.6663 10.0838" fill="#5D87A1"/>
<path fill-rule="evenodd" clip-rule="evenodd" d="M55.2646 45.549C52.0015 45.4631 49.4744 45.7943 47.3522 46.6898C46.7388 46.9352 45.7574 46.9352 45.6838 47.708C46.015 48.0392 46.0518 48.5667 46.334 49.0206C46.8247 49.8425 47.6834 50.9343 48.4562 51.5109C49.3149 52.161 50.1736 52.8112 51.0692 53.3878C52.6639 54.3692 54.4549 54.9335 56.0006 55.9148C56.8961 56.4914 57.7916 57.2152 58.6994 57.8285C59.141 58.1598 59.4355 58.6872 59.9998 58.8835V58.7609C59.7176 58.3928 59.6317 57.8653 59.3496 57.4483C58.9448 57.0434 58.5277 56.6754 58.1229 56.2706C56.9329 54.6758 55.4731 53.2896 53.8784 52.1488C52.5658 51.2533 49.7198 50.0265 49.1923 48.5176C49.1923 48.5176 49.1555 48.4686 49.1064 48.4318C50.0019 48.3459 51.0692 48.027 51.9279 47.7693C53.3141 47.4013 54.5776 47.4872 56.0006 47.1192C56.6508 46.9597 57.3132 46.7512 57.9634 46.5426V46.1746C57.2273 45.4386 56.6999 44.4572 55.927 43.7702C53.8538 41.9792 51.5598 40.2249 49.1923 38.7529C47.9287 37.931 46.2972 37.4035 44.9478 36.7165C44.4571 36.4711 43.6474 36.3485 43.353 35.9437C42.617 35.0481 42.2122 33.8705 41.6847 32.8032C40.507 30.5583 39.3539 28.068 38.3357 25.7004C37.5997 24.1057 37.1458 22.5232 36.2503 21.0511C32.0426 14.1078 27.4791 9.91242 20.4622 5.7906C18.9534 4.93189 17.1623 4.56387 15.2364 4.12225C14.2182 4.07318 13.2 3.99957 12.1695 3.96277C11.5194 3.68062 10.8569 2.89552 10.2926 2.5275C7.96185 1.06769 1.9754 -2.10955 0.257978 2.09814C-0.84608 4.74788 1.88953 7.36082 2.83411 8.69796C3.53335 9.63027 4.42886 10.6975 4.90729 11.7525C5.18943 12.4518 5.27531 13.1755 5.55745 13.9116C6.20762 15.7026 6.82099 17.7022 7.6797 19.3828C8.13359 20.2415 8.61201 21.137 9.18858 21.9098C9.51979 22.3637 10.0841 22.56 10.2068 23.2961C9.64247 24.1057 9.5934 25.3324 9.26218 26.3506C7.7901 30.9631 8.36667 36.6674 10.4521 40.0532C11.1023 41.0714 12.6602 43.3163 14.7334 42.4576C16.5735 41.7216 16.1564 39.403 16.6962 37.3544C16.8188 36.8637 16.733 36.5325 16.9783 36.2135V36.2994C17.5549 37.4403 18.1192 38.5443 18.6467 39.6852C19.9102 41.6848 22.1183 43.7702 23.9461 45.1441C24.9275 45.8802 25.7004 47.1437 26.9271 47.5976V47.4749H26.8412C26.5959 47.1069 26.2279 46.9474 25.8966 46.6653C25.1606 45.9292 24.351 45.0337 23.7744 44.2118C22.057 41.9301 20.5481 39.403 19.211 36.7901C18.5608 35.5266 17.9842 34.1404 17.4567 32.8768C17.2114 32.3861 17.2114 31.6501 16.8066 31.4047C16.1932 32.3003 15.2977 33.0731 14.8438 34.1772C14.071 35.9314 13.9851 38.0904 13.7029 40.3354C13.5435 40.3722 13.6171 40.3354 13.5435 40.4212C12.2431 40.09 11.7892 38.7529 11.2986 37.612C10.0718 34.7169 9.87555 30.0553 10.9305 26.7186C11.2127 25.8599 12.4394 23.1734 11.9487 22.3515C11.7034 21.5664 10.8815 21.1247 10.4398 20.5114C9.91235 19.7385 9.33578 18.7571 8.96776 17.8984C7.98638 15.6167 7.49569 13.0897 6.4407 10.7957C5.95001 9.72841 5.0913 8.63662 4.40433 7.65523C3.63149 6.55118 2.77278 5.77834 2.15941 4.478C1.95087 4.02411 1.66872 3.28807 1.99994 2.80965C2.08581 2.47843 2.24528 2.35576 2.5765 2.28215C3.10399 1.82826 4.61287 2.40482 5.14037 2.65017C6.64924 3.26354 7.91278 3.8401 9.17631 4.68654C9.75287 5.09137 10.3662 5.87647 11.09 6.07275H11.9487C13.2491 6.3549 14.7211 6.14635 15.9479 6.52664C18.1069 7.22588 20.0697 8.24407 21.8239 9.33586C27.1724 12.7216 31.5764 17.5427 34.5574 23.2961C35.0481 24.2284 35.2566 25.0871 35.6982 26.0685C36.5569 28.068 37.6119 30.1167 38.4706 32.0672C39.3293 33.9809 40.139 35.9437 41.3657 37.5384C41.9791 38.3971 44.4203 38.8387 45.5243 39.2926C46.334 39.6606 47.6098 39.9919 48.3458 40.4335C49.732 41.2922 51.1182 42.2736 52.4308 43.2059C53.081 43.6966 55.1174 44.7148 55.24 45.5367" fill="#00758F"/>
</svg>
