<svg width="60" height="60" viewBox="0 0 60 60" fill="none" xmlns="http://www.w3.org/2000/svg">
<path d="M29.9419 55.3264C44.0305 55.3264 55.4516 43.9053 55.4516 29.8167C55.4516 15.7281 44.0305 4.30707 29.9419 4.30707C15.8533 4.30707 4.43225 15.7281 4.43225 29.8167C4.43225 43.9053 15.8533 55.3264 29.9419 55.3264Z" fill="#FCC414"/>
<path d="M29.9226 59.8162C13.4323 59.8162 0.0194092 46.4033 0.0194092 29.913C0.0194092 13.4227 13.4323 0.00982666 29.9226 0.00982666C46.4129 0.00982666 59.8258 13.4227 59.8258 29.913C59.8258 46.4033 46.4129 59.8162 29.9226 59.8162ZM29.9226 2.54531C14.8259 2.54531 2.55489 14.8356 2.55489 29.913C2.55489 44.9904 14.8259 57.2808 29.9226 57.2808C45.0194 57.2808 57.2903 45.0098 57.2903 29.913C57.2903 14.8163 45.0194 2.54531 29.9226 2.54531Z" fill="black"/>
<path fill-rule="evenodd" clip-rule="evenodd" d="M34.0839 22.6361C32.4 21.8619 31.4516 20.0426 31.7419 18.2232C33.4065 18.9974 34.3742 20.8168 34.0839 22.6361Z" fill="black"/>
<path fill-rule="evenodd" clip-rule="evenodd" d="M24.3872 38.0232C24.6581 38.9135 25.0839 39.7651 25.6646 40.5006H34.3549C34.9355 39.7651 35.3613 38.9135 35.6323 38.0232H24.3872ZM42.7355 29.0813C42.4646 29.3329 42.4452 29.778 42.6968 30.049L42.7936 30.1458C46.742 26.778 49.1226 24.1651 47.942 22.1135C46.6452 20.2942 41.1484 21.1651 34.413 24.1845C34.7613 23.5071 34.9162 22.7522 34.9162 21.9974C34.9162 21.7264 34.8968 21.4361 34.8388 21.1651C34.6839 20.1974 34.2194 19.2684 33.4839 18.5329C33.0775 18.1264 32.613 17.7974 32.1291 17.5651L32.1484 17.5071L32.671 16.3845C32.7484 16.2103 32.671 15.9974 32.4968 15.9006C32.3226 15.8232 32.1097 15.9006 32.013 16.0748L31.4517 17.2942C30.5226 17.0038 29.5162 17.0038 28.5872 17.2942L28.0259 16.0748C27.9484 15.9006 27.7355 15.8232 27.542 15.9006C27.3678 15.978 27.2904 16.1909 27.3678 16.3845L27.871 17.4684L27.9097 17.5458C27.4065 17.778 26.9613 18.1071 26.5549 18.5135C25.5678 19.5006 25.1033 20.778 25.1226 22.0748C25.142 22.7716 25.2968 23.4684 25.6065 24.1071C23.8646 23.3329 14.1872 19.3264 12.2517 22.0555C10.4904 24.5329 15.9097 28.8877 17.3614 30.1264L17.4581 30.0297C17.7097 29.7587 17.6904 29.3135 17.4194 29.0619C16.7033 28.3845 15.6001 27.2813 14.8065 26.2168C13.7807 24.8038 13.7614 23.9716 14.2452 23.5071C15.7936 22.0555 21.5033 23.9716 23.2646 24.649C24.9678 25.3071 26.8065 26.1393 28.6839 27.1264C19.6259 32.3716 13.471 38.6426 14.9226 41.1587C15.8323 42.7264 19.6259 42.5329 24.4839 40.8103L24.3097 40.52C24.1355 40.249 23.8259 40.1135 23.5162 40.2103C20.1484 41.2361 18.0388 41.72 17.3033 40.6361C16.2968 38.8748 21.4452 32.8168 29.4388 28.2103L30.0388 27.8619C30.2323 27.978 30.4452 28.0942 30.6388 28.2103C38.6323 32.8168 43.7807 38.8748 42.7742 40.6361C42.0388 41.72 39.9484 41.2361 36.5613 40.2103C36.2517 40.1135 35.942 40.249 35.7678 40.52L35.5936 40.8103C40.4517 42.5329 44.2452 42.7264 45.1549 41.1587C46.6065 38.6426 40.4517 32.3716 31.3936 27.1264C37.7613 23.7587 43.5097 22.2684 45.6194 23.3329C47.5549 24.3006 44.2452 27.649 42.7355 29.0813ZM25.9355 22.6361C25.6452 20.8167 26.613 18.9974 28.2775 18.2232C28.5678 20.0426 27.6001 21.8619 25.9355 22.6361ZM34.0839 22.6361C32.4001 21.8619 31.4517 20.0426 31.742 18.2232C33.4065 18.9974 34.3742 20.8167 34.0839 22.6361ZM35.5355 32.9716C33.871 31.7522 32.013 30.5329 30.0194 29.3716C28.0259 30.5329 26.1678 31.7522 24.5033 32.9716C24.1743 33.92 24.0194 34.9458 24.0581 35.9522H35.9807C36.0194 34.9458 35.8646 33.92 35.5355 32.9716ZM27.5613 42.591C28.3162 43.3652 28.8968 44.0619 30.0194 46.0942C31.142 44.0813 31.7226 43.3845 32.4775 42.591H27.5613Z" fill="black"/>
<path fill-rule="evenodd" clip-rule="evenodd" d="M34.084 22.6361C32.4001 21.8619 31.4517 20.0426 31.742 18.2232C33.4065 18.9974 34.3743 20.8168 34.084 22.6361ZM25.9356 22.6361C25.6452 20.8168 26.613 18.9974 28.2775 18.2232C28.5678 20.0426 27.6001 21.8619 25.9356 22.6361ZM17.5936 29.7006C17.5936 29.7006 17.7291 29.3522 17.4001 29.0426C15.8904 27.6297 12.5807 24.2813 14.4775 23.3135C16.5872 22.249 22.3356 23.778 28.7033 27.1264C25.4904 28.9845 23.2839 30.5329 20.9614 32.4103C18.3872 30.5135 17.9227 30.1071 17.5936 29.7006ZM42.7936 40.6942C42.0582 41.7781 39.9678 41.2942 36.5807 40.2684C36.4259 40.2297 36.271 40.2297 36.1356 40.2877C37.1614 38.7974 37.3936 36.0297 37.0259 34.0361V33.9974V33.9781C36.9098 33.1845 36.7356 32.5652 36.542 32.2942C41.0323 35.8942 43.5291 39.4168 42.7936 40.6942ZM39.2323 32.449C36.9678 30.5329 34.6452 29.0039 31.4323 27.1458C37.8001 23.778 43.5485 22.2877 45.6582 23.3522C47.5549 24.32 44.2259 27.6684 42.7356 29.0813C42.4646 29.3329 42.542 29.449 42.542 29.7393C42.213 30.1458 41.8065 30.5522 39.2323 32.449ZM23.5936 32.2361C23.4001 32.5071 23.2259 33.1264 23.1098 33.92V33.9781C22.742 35.991 22.9743 38.7393 24.0001 40.2297C23.8646 40.1716 23.7098 40.1716 23.5549 40.2103C20.1872 41.2361 18.0775 41.72 17.342 40.6361C16.6065 39.3781 19.1033 35.8555 23.5936 32.2361Z" fill="white"/>
</svg>
