<svg width="60" height="60" viewBox="0 0 60 60" fill="none" xmlns="http://www.w3.org/2000/svg">
<path d="M40.3789 2.00137C28.5743 2.00137 20.6382 8.80095 20.6382 22.1808V30.3363C21.8562 29.807 23.1601 29.503 24.4866 29.439C25.8333 29.3849 27.1696 29.6949 28.355 30.3363V22.1808C28.355 13.5666 33.1207 9.02029 40.3191 9.02029C47.5175 9.02029 52.2831 13.5666 52.2831 22.1808V43.0381H60V22.1808C60 8.80095 52.0239 2.00137 40.2792 2.00137" fill="black"/>
<path d="M24.0478 33.2874C22.6303 33.2138 21.2407 33.7009 20.1794 34.6434L12.9212 29.8976C13.1165 29.3137 13.1977 28.6977 13.1605 28.0831C13.1644 26.7808 12.7819 25.5066 12.0612 24.4219C11.3406 23.3371 10.3143 22.4906 9.11224 21.9895C7.91021 21.4884 6.58652 21.3553 5.30877 21.6069C4.03102 21.8586 2.85667 22.4837 1.93441 23.4031C1.01215 24.3226 0.383458 25.4951 0.127937 26.772C-0.127583 28.049 0.00155804 29.3731 0.49901 30.5767C0.996461 31.7802 1.83985 32.8091 2.92239 33.533C4.00494 34.2569 5.27795 34.6434 6.58024 34.6434C7.27957 34.6837 7.97994 34.5846 8.64062 34.3518C9.3013 34.1191 9.90911 33.7572 10.4287 33.2874L17.6869 38.2725C17.5073 38.8596 17.433 39.474 17.4675 40.087C17.4309 40.7001 17.5052 41.3148 17.6869 41.9016L10.4287 46.9065C9.34137 46.0206 7.98279 45.5349 6.58024 45.5307C5.27879 45.5307 4.00657 45.9166 2.92446 46.6396C1.84234 47.3627 0.998937 48.3904 0.500894 49.5928C0.00285112 50.7951 -0.12746 52.1182 0.12644 53.3946C0.38034 54.6711 1.00705 55.8436 1.92731 56.7638C2.84757 57.6841 4.02006 58.3108 5.2965 58.5647C6.57294 58.8186 7.89601 58.6883 9.09839 58.1902C10.3008 57.6922 11.3285 56.8488 12.0515 55.7667C12.7746 54.6846 13.1605 53.4123 13.1605 52.1109C13.1992 51.4962 13.1179 50.8799 12.9212 50.2963L20.1794 45.3113C21.2739 46.1959 22.6405 46.6749 24.0478 46.6672C24.911 46.6673 25.7657 46.4969 26.5629 46.166C27.3602 45.835 28.0842 45.35 28.6937 44.7387C29.3031 44.1274 29.7859 43.4019 30.1145 42.6037C30.443 41.8054 30.6107 40.9502 30.6081 40.087C30.6193 38.3214 29.9392 36.6214 28.7132 35.3507C27.4872 34.08 25.8127 33.3395 24.0478 33.2874Z" fill="#018BFF"/>
</svg>
