<svg width="60" height="60" viewBox="0 0 60 60" fill="none" xmlns="http://www.w3.org/2000/svg">
<path d="M39.6223 39.4009C38.812 37.9049 38.0951 36.3778 37.4407 34.8195C39.8716 33.7599 42.022 32.2328 43.8296 30.3005C46.6345 27.5268 48.0681 23.5999 48.0681 18.5511C48.0681 12.692 46.167 8.14181 42.3337 4.86942C38.4691 1.6282 33.545 -0.117073 28.5273 0.00758981H4V56.0122H15.9364V35.9103H20.4866L23.2603 35.848C24.2888 38.3724 26.5951 43.8887 27.9352 46.8183L39.6223 39.4009ZM15.9364 11.196H26.9379C32.4542 11.196 35.1967 13.44 35.2279 17.8966C35.2279 22.6961 32.1425 25.0959 26.0029 25.0959H15.9364V11.196Z" fill="#E14226"/>
<path d="M51.9639 52.0229L48.8473 49.8102L35.9136 58.2249L40.4326 60.0013L48.3175 59.9701L54.052 55.8875L51.9639 52.0229Z" fill="#E14226"/>
<path d="M41.5857 42.6421L29.5869 50.2153L32.9528 55.5135L45.7307 47.4416L41.5857 42.6421Z" fill="#E14226"/>
</svg>
