<svg width="60" height="60" viewBox="0 0 60 60" fill="none" xmlns="http://www.w3.org/2000/svg">
<path d="M57.5801 24.0044H38.3867C38.0704 24.0064 37.7568 23.9455 37.4641 23.8254C37.1714 23.7052 36.9055 23.5282 36.6818 23.3045C36.4581 23.0808 36.2811 22.8149 36.1609 22.5222C36.0408 22.2295 35.9799 21.9159 35.9819 21.5996V2.4062C35.9819 2.0911 35.9196 1.77911 35.7986 1.48818C35.6776 1.19726 35.5002 0.933142 35.2767 0.711033C35.0532 0.488925 34.7879 0.313209 34.4963 0.193999C34.2046 0.0747893 33.8922 0.0144386 33.5771 0.0164204H26.3928C26.0777 0.0144386 25.7653 0.0747893 25.4736 0.193999C25.182 0.313209 24.9167 0.488925 24.6932 0.711033C24.4697 0.933142 24.2923 1.19726 24.1713 1.48818C24.0503 1.77911 23.988 2.0911 23.988 2.4062V21.5996C23.99 21.9159 23.9291 22.2295 23.809 22.5222C23.6888 22.8149 23.5118 23.0808 23.2881 23.3045C23.0644 23.5282 22.7985 23.7052 22.5058 23.8254C22.2131 23.9455 21.8995 24.0064 21.5832 24.0044H14.3988C14.0825 24.0064 13.7688 23.9455 13.4762 23.8254C13.1835 23.7052 12.9176 23.5282 12.6939 23.3045C12.4702 23.0808 12.2931 22.8149 12.173 22.5222C12.0529 22.2295 11.992 21.9159 11.994 21.5996V2.4062C11.996 2.08983 11.9352 1.77623 11.815 1.48356C11.6949 1.19089 11.5178 0.924997 11.2941 0.701292C11.0704 0.477586 10.8045 0.300525 10.5118 0.18038C10.2192 0.0602337 9.90557 -0.000605687 9.5892 0.00139034H2.38982C2.07472 0.00138411 1.76273 0.063692 1.47181 0.184728C1.18089 0.305764 0.916769 0.483139 0.69466 0.706645C0.472551 0.930151 0.296836 1.19537 0.177626 1.48705C0.0584164 1.77873 -0.00193418 2.0911 4.75685e-05 2.4062V57.5965C-0.00194846 57.9129 0.0588909 58.2265 0.179037 58.5191C0.299183 58.8118 0.476243 59.0777 0.699949 59.3014C0.923654 59.5251 1.18955 59.7022 1.48222 59.8223C1.77488 59.9425 2.08849 60.0033 2.40485 60.0013H57.5801C57.8964 60.0033 58.21 59.9425 58.5027 59.8223C58.7954 59.7022 59.0613 59.5251 59.285 59.3014C59.5087 59.0777 59.6857 58.8118 59.8059 58.5191C59.926 58.2265 59.9869 57.9129 59.9849 57.5965V26.4543C59.9929 26.1341 59.9366 25.8157 59.8192 25.5177C59.7017 25.2198 59.5256 24.9485 59.3013 24.72C59.077 24.4915 58.809 24.3104 58.5134 24.1874C58.2177 24.0645 57.9003 24.0022 57.5801 24.0044ZM47.9308 44.3851C47.9328 44.8581 47.8413 45.3268 47.6617 45.7644C47.4821 46.2019 47.2178 46.5997 46.884 46.9349C46.5502 47.27 46.1536 47.536 45.7168 47.7174C45.28 47.8989 44.8116 47.9923 44.3386 47.9923H39.529C39.056 47.9923 38.5877 47.8989 38.1509 47.7174C37.7141 47.536 37.3174 47.27 36.9836 46.9349C36.6499 46.5997 36.3856 46.2019 36.206 45.7644C36.0263 45.3268 35.9349 44.8581 35.9368 44.3851V39.5905C35.9349 39.1175 36.0263 38.6488 36.206 38.2112C36.3856 37.7737 36.6499 37.3759 36.9836 37.0407C37.3174 36.7056 37.7141 36.4396 38.1509 36.2582C38.5877 36.0767 39.056 35.9833 39.529 35.9833H44.3386C44.8116 35.9833 45.28 36.0767 45.7168 36.2582C46.1536 36.4396 46.5502 36.7056 46.884 37.0407C47.2178 37.3759 47.4821 37.7737 47.6617 38.2112C47.8413 38.6488 47.9328 39.1175 47.9308 39.5905V44.3851Z" fill="#FF6600"/>
</svg>
