<svg width="60" height="60" viewBox="0 0 60 60" fill="none" xmlns="http://www.w3.org/2000/svg">
<path d="M48.8372 53.0236C46.8837 51.9073 45.6279 50.6515 45.3488 49.2561C45.0698 47.8608 45.6279 46.4654 47.1628 44.6515C49.9934 41.3801 51.8259 37.3651 52.4426 33.0833C53.0594 28.8014 52.4345 24.4325 50.6421 20.4952C48.8498 16.558 45.9653 13.2177 42.3311 10.871C38.6968 8.52426 34.4656 7.26966 30.1395 7.25614H30C25.6621 7.24293 21.412 8.47816 17.757 10.8144C14.1019 13.1507 11.1963 16.4893 9.38689 20.4318C7.57745 24.3743 6.94063 28.7542 7.55243 33.0487C8.16423 37.3433 9.9988 41.3711 12.8372 44.6515C14.3721 46.4654 14.9302 47.8608 14.7907 49.1166C14.6512 50.3724 13.2558 51.9073 11.1628 53.0236C7.85768 50.2488 5.15164 46.8307 3.2093 42.9771C1.14736 38.9091 0.0492501 34.4212 1.7799e-09 29.8608C-4.294e-05 25.9277 0.77692 22.0333 2.28627 18.4014C3.79561 14.7694 6.00761 11.4714 8.7952 8.69677C11.5828 5.92214 14.8911 3.72554 18.53 2.23314C22.169 0.740746 26.0669 -0.0180529 30 0.000326046H30.1395C38.059 0.000326046 45.6541 3.14633 51.2541 8.74625C56.854 14.3462 60 21.9413 60 29.8608C59.9831 32.1644 59.7022 34.4584 59.1628 36.698C58.6598 38.8691 57.9108 40.9758 56.9302 42.9771C54.9912 46.8328 52.2847 50.2516 48.9767 53.0236" fill="#F0424D"/>
<path d="M37.9534 58.6047C36.8648 57.8476 35.9198 56.9025 35.1627 55.814C33.6331 53.6577 32.8493 51.0611 32.9302 48.4186C32.9867 46.4047 33.4124 44.4183 34.186 42.5581C34.9318 40.6558 36.0195 38.906 37.3953 37.3953L37.6744 37.1163C38.1931 36.5052 38.6599 35.8517 39.0697 35.1628C39.6814 34.3133 40.1525 33.3711 40.4651 32.3721C40.8104 30.9462 40.8521 29.4636 40.5874 28.0206C40.3228 26.5775 39.7576 25.2062 38.9287 23.9957C38.0997 22.7852 37.0255 21.7625 35.7758 20.994C34.526 20.2255 33.1287 19.7284 31.6744 19.5349C31.1635 19.4963 30.6504 19.4963 30.1395 19.5349H29.9999C28.0449 19.4618 26.1093 19.9457 24.4186 20.9302C23.2193 21.6463 22.1756 22.5952 21.3488 23.7209C20.4574 24.9545 19.8458 26.3675 19.5567 27.8617C19.2675 29.3558 19.3076 30.8951 19.6744 32.3721C19.9044 33.353 20.2807 34.2938 20.7906 35.1628C21.2413 35.8596 21.7551 36.5135 22.3255 37.1163L22.6046 37.5349C23.9686 39.002 25.0559 40.7038 25.8139 42.5581C26.6355 44.4092 27.1085 46.3959 27.2092 48.4186C27.2299 51.1391 26.3464 53.7895 24.6976 55.9535C23.9697 56.9804 23.0733 57.8767 22.0465 58.6047L20.372 58.0465C18.6322 57.4591 16.9506 56.7117 15.3488 55.814C16.695 55.1036 17.8221 54.0397 18.6089 52.7367C19.3956 51.4336 19.8122 49.9407 19.8139 48.4186C19.7643 46.2412 18.9207 44.157 17.4418 42.5581L17.0232 42L15.7674 40.6047C13.5247 37.5889 12.2905 33.9426 12.2404 30.1847C12.1903 26.4268 13.3268 22.7489 15.4883 19.6744C16.8704 17.722 18.625 16.0623 20.6511 14.7907C22.7754 13.4746 25.1522 12.619 27.6279 12.2791C28.4117 12.1352 29.2041 12.042 29.9999 12H30.279C31.1216 12.0363 31.9607 12.1295 32.7906 12.2791C35.218 12.6377 37.5455 13.4927 39.6279 14.7907C41.5908 16.0356 43.2961 17.6463 44.6511 19.5349C46.8331 22.6012 47.9823 26.2825 47.9321 30.0456C47.8819 33.8087 46.635 37.4581 44.372 40.4651L43.1162 41.8605L42.6976 42.4186C41.1982 44.0603 40.3541 46.1955 40.3255 48.4186C40.2881 49.9501 40.6717 51.4625 41.4344 52.7911C42.1971 54.1197 43.3097 55.2135 44.6511 55.9535C43.0439 56.8026 41.3625 57.5032 39.6279 58.0465L37.9534 58.6047Z" fill="#F0424D"/>
<path d="M30 36C28.8409 36 27.7078 35.6563 26.7441 35.0123C25.7803 34.3684 25.0292 33.4531 24.5856 32.3822C24.1421 31.3114 24.026 30.133 24.2521 28.9962C24.4783 27.8594 25.0364 26.8151 25.856 25.9955C26.6756 25.1759 27.7199 24.6178 28.8567 24.3917C29.9935 24.1655 31.1718 24.2816 32.2427 24.7252C33.3136 25.1687 34.2288 25.9199 34.8728 26.8836C35.5167 27.8474 35.8605 28.9804 35.8605 30.1395C35.8605 31.6938 35.243 33.1844 34.144 34.2835C33.0449 35.3825 31.5543 36 30 36Z" fill="#F0424D"/>
</svg>
