<svg width="60" height="60" viewBox="0 0 60 60" fill="none" xmlns="http://www.w3.org/2000/svg">
<path fill-rule="evenodd" clip-rule="evenodd" d="M50.3374 35.2562C50.4277 37.1165 49.0912 38.742 47.2489 39.0129C43.727 39.627 36.3579 40.0063 30.1628 40.0063C23.9678 40.0063 16.5987 39.627 13.0767 39.0129C11.2345 38.724 9.916 37.1165 9.98825 35.2562V23.5524C10.0063 21.7282 11.2887 20.1749 13.0767 19.7775C14.8648 19.5427 16.6529 19.4163 18.459 19.4344C19.1996 19.4344 19.7775 20.0485 19.7595 20.789C19.7595 20.807 19.7595 20.8432 19.7595 20.8612V29.0611C23.3898 29.0611 26.5506 28.8444 30.199 28.8444C33.8474 28.8444 36.99 29.043 40.6204 29.0611V20.8612C40.5662 20.1388 41.1081 19.4886 41.8486 19.4344C41.8666 19.4344 41.9027 19.4344 41.9208 19.4344C43.7089 19.4344 45.497 19.5427 47.267 19.7775C49.0551 20.1568 50.3374 21.7282 50.3555 23.5524V35.2562H50.3374ZM30.1809 0.000289034C13.6186 -0.108079 0.108657 13.2393 0.000289034 29.8016C-0.108079 46.3639 13.2393 59.8919 29.8016 59.9822C46.3639 60.0906 59.8919 46.7432 59.9822 30.1809C59.9822 30.1267 59.9822 30.0545 59.9822 30.0003C60.0545 13.4922 46.7071 0.0544733 30.199 0.000289034H30.1809Z" fill="#EA2328"/>
</svg>
