<svg width="60" height="60" viewBox="0 0 60 60" fill="none" xmlns="http://www.w3.org/2000/svg"><path d="M44.089 15.37c.098-.057.198-.11.296-.155.022-.011.047-.02.07-.032l.184-.08c.03-.01.059-.022.089-.033l.17-.059c.03-.01.06-.018.088-.028.059-.017.117-.032.176-.045l.077-.02c.083-.016.166-.033.249-.044a3.34 3.34 0 0 1 .304-.029c.032-.002.064-.002.096-.002.07-.001.138-.001.205.002a3.238 3.238 0 0 1 .298.028l.106.016a3.254 3.254 0 0 1 .573.15l.057.023c.077.03.153.063.226.098.057.027.113.053.168.083-.287-.156-.573-.31-.86-.467a2.709 2.709 0 0 0-.128-.066l-.04-.017a2.415 2.415 0 0 0-.226-.097c-.019-.007-.04-.017-.059-.022a2.627 2.627 0 0 0-.292-.09c-.008-.003-.013-.005-.02-.006-.023-.006-.046-.01-.067-.014a3.254 3.254 0 0 0-.196-.04l-.105-.014c-.063-.01-.127-.015-.189-.021-.036-.002-.072-.006-.108-.007a2.466 2.466 0 0 0-.205-.002c-.032 0-.064 0-.096.002a3.378 3.378 0 0 0-.553.073l-.077.019a2.953 2.953 0 0 0-.175.045l-.09.028a3.018 3.018 0 0 0-.169.059l-.088.034c-.063.024-.123.05-.185.079l-.057.024-.013.008c-.098.047-.198.1-.296.155a5.986 5.986 0 0 0-.32.2c-.016.011-.031.018-.046.028a.69.69 0 0 1-.047.032c-.089.062-.17.123-.251.181l-.076.057-.162.122a5.906 5.906 0 0 0-.266.211l-.026.021c-.058.05-.117.098-.172.15a.238.238 0 0 1-.024.02c-.01.007-.017.017-.027.026-.073.068-.145.134-.215.204l-.007.008c-.068.07-.134.14-.2.213l-.023.024-.02.025a3.02 3.02 0 0 0-.068.08 2.28 2.28 0 0 0-.064.078l-.068.085-.064.081-.068.09-.066.09c-.021.027-.042.058-.063.088l-.054.075-.027.038-.04.057c-.027.041-.058.084-.086.128-.019.028-.038.054-.056.083-.027.038-.053.079-.08.119l-.062.094-.14.217.86.468c.05-.076.095-.15.142-.22.02-.03.04-.06.058-.09l.081-.122.057-.083c.028-.044.059-.085.087-.127l.041-.06c.027-.038.051-.074.078-.11l.064-.09.066-.089.07-.092c.02-.028.041-.055.064-.081l.068-.087c.02-.026.041-.05.064-.075.022-.029.047-.055.07-.083l.04-.046c.067-.073.133-.145.203-.215l.005-.005c.07-.07.142-.138.215-.206l.051-.047c.057-.05.113-.1.174-.15l.022-.02a10.132 10.132 0 0 1 .268-.21c.053-.04.106-.082.162-.123.025-.02.051-.038.076-.057.079-.059.162-.119.25-.181.03-.023.063-.042.093-.062a4.403 4.403 0 0 1 .32-.198ZM38.027 12.501l.112.004c.094.006.188.015.282.026a3.94 3.94 0 0 1 .392.074l.103.028c.064.02.13.038.192.06l.11.042c.06.023.118.05.175.075.058.027.117.053.173.085-.286-.156-.573-.31-.86-.467-.038-.021-.075-.04-.115-.06-.019-.01-.04-.018-.06-.025a2.818 2.818 0 0 0-.174-.074l-.11-.043a2.205 2.205 0 0 0-.191-.059c-.027-.007-.051-.017-.078-.024l-.026-.006a3.661 3.661 0 0 0-.33-.066c-.02-.003-.042-.003-.062-.007a3.4 3.4 0 0 0-.283-.027c-.038-.002-.074-.004-.111-.004a5.687 5.687 0 0 0-.255 0l-.108.004c-.118.008-.24.017-.36.034a4.416 4.416 0 0 0-.337.063c-.021.003-.042.009-.063.013a3.971 3.971 0 0 0-.39.107 6.603 6.603 0 0 0-.341.117h-.002a4.778 4.778 0 0 0-.338.145c-.013.006-.024.012-.038.017l-.037.02c-.04.018-.078.037-.117.058l-.11.056c-.04.02-.079.044-.117.064l-.105.06c-.04.023-.08.048-.119.072l-.104.064a2.63 2.63 0 0 0-.117.078l-.073.049c-.008.004-.013.01-.02.015a6.81 6.81 0 0 0-.308.228c-.021.015-.04.032-.06.047a6.525 6.525 0 0 0-.306.259l-.004.003-.002.002c-.05.045-.1.093-.149.14-.019.017-.038.034-.056.053a6.81 6.81 0 0 0-.202.203 270.464 270.464 0 0 0-.524.553v.002c-.014.013-.025.026-.036.04l-.002.001-.002.002a2.72 2.72 0 0 0-.034.04l-.006.005a.278.278 0 0 0-.024.032v.002l-.01.015v.002l-.005.01c-.004.011-.002.017.004.019l.08.043a.026.026 0 0 1 .004.011l.002.01.002.015v.03l-.002.015-.004.025c-.001.005-.001.013-.003.018l-.008.03-.007.023c-.004.012-.008.025-.014.038l-.009.026-.026.068a.027.027 0 0 0-.004.012l-.042.094a.235.235 0 0 1-.015.03l-.04.081a.397.397 0 0 1-.02.04l-.047.09a.544.544 0 0 1-.025.044c-.019.035-.04.071-.06.11-.01.016-.017.031-.026.048-.032.055-.065.111-.1.174l.86.467c.035-.062.07-.119.1-.173.009-.017.018-.032.026-.05.02-.035.04-.07.056-.103l.016-.026a.384.384 0 0 1 .015-.029l.043-.08c.008-.016.015-.031.023-.044.015-.028.026-.055.04-.081.003-.01.009-.021.014-.03l.044-.095.004-.011.026-.068c0-.002.002-.006.004-.007a.054.054 0 0 1 .007-.02c.004-.012.01-.024.011-.035l.008-.025c.004-.01.006-.02.008-.028s.003-.013.003-.02c.002-.008.004-.016.004-.023l.002-.017v-.032l-.002-.015-.002-.01-.004-.011c-.001-.002-.001-.006-.003-.008l-.008-.01c-.002-.001-.002-.003-.004-.003l-.01-.01c-.022-.01-.04-.022-.061-.031 0-.002-.002-.002 0-.004l.005-.011a.041.041 0 0 1 .008-.012l.004-.005c.005-.008.013-.02.022-.03l.008-.01c.01-.01.019-.023.03-.036a.014.014 0 0 1 .008-.008c.005-.007.015-.015.02-.024l.015-.017.023-.024a.31.31 0 0 1 .025-.027l.01-.011a48.644 48.644 0 0 1 .663-.69c.06-.059.12-.116.18-.17l.024-.023.009-.007c.098-.089.2-.172.3-.253a5.817 5.817 0 0 1 .37-.277l.1-.068c.037-.025.073-.051.11-.074l.112-.068.113-.067c.038-.021.074-.044.111-.065.038-.02.076-.043.114-.062l.11-.056c.038-.02.078-.04.116-.057l.075-.034a5.257 5.257 0 0 1 .681-.264l.062-.019a5.298 5.298 0 0 1 .728-.162c.121-.017.242-.027.36-.034l.108-.004c.089-.002.174-.004.258 0ZM25.171 3.326a9.773 9.773 0 0 0-.313.051l-.073 39.872.86.468.073-39.872c.106-.019.21-.036.313-.051 1.392-.196 2.556.119 3.555.662-.287-.157-.51-.311-.794-.466a5.787 5.787 0 0 0-3.62-.664Z" fill="#CACFD2"/><path d="M26.03 3.794c4.499-.632 7.29 3.674 6.142 8.419-.41 1.69 1.225 2.1.613 4.058 1.156-1.963-.434-.29 1.003-1.799 1.056-1.109 2.323-1.765 3.517-1.933 2.082-.292 3.936.901 4.028 3.758.021.63-.028 1.302-.132 2 .873-1.37 1.285-1.822 2.475-2.665.612-.434 1.224-.675 1.812-.756 2.47-.347 4.485 2.114 4.09 4.861-.4 2.786-1.682 5.058-4.946 7.885l-18.99 16.095.074-39.872c.106-.02.21-.036.313-.051Z" fill="#2196F3"/><path d="M6.799 18.393c-1.379-.18-2.612.06-3.599.654l-.788.475c.986-.594 2.22-.833 3.598-.654.666.087 1.368.27 2.088.56.585.234 1.152.526 1.697.862l.789-.475a11.035 11.035 0 0 0-1.698-.862 8.49 8.49 0 0 0-2.087-.56ZM8.643 30.26a2.47 2.47 0 0 1-.583-.152C6.708 29.584 5.614 28 5.618 26.57c.002-.745.3-1.301.779-1.59l-.788.476c-.477.286-.777.843-.78 1.59-.001 1.429 1.093 3.013 2.443 3.537.2.078.396.129.583.153.415.055.788-.02 1.09-.202l.788-.475c-.302.181-.675.256-1.09.202ZM39.489 40.582c-1.79-.232-3.236-1.953-3.232-3.845.001-1.167.556-2.13 1.403-2.638l-.236.141c-.025.015-.055.034-.08.047l-.433.26-.04.025c-.845.51-1.401 1.47-1.403 2.638-.004 1.892 1.443 3.614 3.233 3.846a2.827 2.827 0 0 0 1.84-.368 16.764 16.764 0 0 0 .473-.285c.106-.062.21-.126.316-.19a2.814 2.814 0 0 1-1.841.37ZM54.054 50.538c-1-.13-1.81-1.194-1.809-2.376.002-.77.347-1.4.864-1.709l-.788.475c-.517.312-.862.941-.862 1.709-.002 1.182.809 2.246 1.808 2.376.351.046.677-.03.955-.196l.748-.45a1.474 1.474 0 0 1-.917.172Z" fill="#CACFD2"/><path d="M54.265 41.661c-.868-.43-1.7-.686-2.47-.786a5.3 5.3 0 0 0-1.29-.017 7.673 7.673 0 0 0 .237-1.941c.01-5.04-4.01-11.117-8.977-13.575-1.067-.528-2.09-.845-3.04-.967a6.18 6.18 0 0 0-2.14.073c.814-1.154 1.28-2.7 1.284-4.586.011-5.935-4.541-13.043-10.303-16.24a10.628 10.628 0 0 0-2.229-.547c-1.81-.233-3.436.093-4.75.885l-.789.475c1.317-.792 2.94-1.118 4.75-.884.717.092 1.462.273 2.23.549 5.761 3.196 10.314 10.304 10.303 16.239-.004 1.886-.47 3.43-1.285 4.587a6.24 6.24 0 0 1 2.143-.074c.95.123 1.972.44 3.04.968 4.967 2.457 8.986 8.533 8.977 13.574a7.756 7.756 0 0 1-.238 1.94 5.398 5.398 0 0 1 1.29.018c.771.1 1.603.356 2.47.786 4.033 1.994 5.743 5.205 5.734 9.298-.004 1.844-.86 3.234-2.17 4.02.12-.071.237-.141.355-.213l.12-.071.314-.19c1.309-.79 2.165-2.177 2.169-4.022.008-4.092-1.703-7.306-5.735-9.299ZM14.825 10.334c-1.42-.184-2.75.048-3.772.662l-.788.476c1.022-.615 2.352-.847 3.772-.662a8.5 8.5 0 0 1 2.061.545c.089.035.175.075.264.113l.788-.476c-.088-.037-.173-.077-.264-.113a8.504 8.504 0 0 0-2.061-.545Z" fill="#CACFD2"/><path d="M53.477 42.136c4.032 1.994 5.742 5.205 5.733 9.298-.006 3.266-2.688 5.107-5.82 4.701a7.697 7.697 0 0 1-2.422-.748l-42.9-19.555C3.604 34.046-.008 28.925 0 24.394c.008-3.798 2.557-5.977 6.01-5.53.666.087 1.368.27 2.088.56.585.234 1.152.527 1.697.862-.958-1.607-1.53-3.38-1.527-5.065.005-3.238 2.666-4.817 5.769-4.413a8.501 8.501 0 0 1 2.061.545c.089.036.175.075.264.113.008-5.318 3.463-8.528 8.189-7.917.716.092 1.461.273 2.229.549 5.761 3.196 10.314 10.304 10.303 16.24-.004 1.885-.47 3.43-1.285 4.586a6.24 6.24 0 0 1 2.143-.074c.95.123 1.972.44 3.04.968 4.967 2.457 8.986 8.533 8.977 13.574a7.752 7.752 0 0 1-.238 1.94 5.398 5.398 0 0 1 1.29.018c.767.1 1.6.356 2.467.786ZM38.7 41.057c1.787.232 3.24-1.114 3.243-3.006.004-1.891-1.442-3.613-3.23-3.845-1.79-.232-3.242 1.115-3.246 3.006-.004 1.892 1.443 3.614 3.233 3.845ZM7.855 30.736c1.071.14 1.865-.575 1.869-1.792.002-1.427-1.09-3.013-2.44-3.538a2.54 2.54 0 0 0-.583-.152c-1.072-.14-1.867.573-1.87 1.791-.001 1.43 1.093 3.014 2.443 3.538.198.08.394.129.58.153Zm45.41 20.275c1.002.13 1.815-.724 1.818-1.906.002-1.183-.807-2.246-1.808-2.377-1.002-.13-1.814.725-1.818 1.907-.002 1.183.809 2.248 1.808 2.376Z" fill="#82D0F5"/><path d="m38.778 40.728-.006-.083-.005-.08c-.002-.022-.002-.047-.006-.07a6.52 6.52 0 0 0-.026-.201l-.006-.042-.002-.01a3.687 3.687 0 0 0-.119-.516c-.011-.04-.02-.08-.032-.119l-.004-.01c-.005-.018-.013-.035-.019-.054a5.253 5.253 0 0 0-.088-.245c-.013-.034-.029-.066-.042-.1-.017-.04-.032-.08-.05-.119l-.04-.079-.045-.09a3.483 3.483 0 0 0-.112-.204l-.04-.072a5.89 5.89 0 0 0-.163-.256l-.042-.057-.102-.141c-.011-.015-.024-.03-.038-.046-.022-.03-.048-.058-.071-.088-.044-.051-.087-.102-.132-.151l-.076-.081-.043-.047c-.025-.025-.053-.048-.077-.07a3.739 3.739 0 0 0-.129-.117c-.015-.013-.028-.028-.043-.04a2.22 2.22 0 0 0-.105-.08c-.027-.022-.051-.042-.078-.061a2.583 2.583 0 0 0-.234-.158c-.011-.008-.022-.014-.034-.021a3.06 3.06 0 0 0-.132-.078c-.03-.017-.062-.032-.092-.047a.423.423 0 0 0-.042-.02 2.45 2.45 0 0 0-.192-.085c-.019-.008-.038-.013-.056-.021a.364.364 0 0 0-.042-.015l-.059-.023a2.067 2.067 0 0 0-.154-.047l-.06-.015-.097-.023c-.017-.003-.034-.005-.049-.01l-.064-.01-.04-.008-.105-.015-.05-.006a2.22 2.22 0 0 0-.156-.01h-.164a1.82 1.82 0 0 0-.175.016h-.004l-.01.002c-.06.007-.12.019-.179.03-.013.002-.024.008-.037.011a2.2 2.2 0 0 0-.106.03c-.03.01-.06.016-.09.025-.029.01-.057.02-.085.032l-.845.33c.056-.023.117-.04.177-.056.034-.01.07-.021.106-.029a1.856 1.856 0 0 1 .228-.043c.08-.01.16-.015.241-.017h.05a2.393 2.393 0 0 1 .403.034l.064.011a2.449 2.449 0 0 1 .42.119c.014.004.027.01.04.015.085.032.168.068.251.108.015.007.028.015.041.02.078.04.155.082.229.127l.028.017a3.207 3.207 0 0 1 .311.22 3.044 3.044 0 0 1 .277.24c.042.04.082.077.121.117l.075.08c.046.048.091.1.136.152.023.028.046.054.068.083a7.595 7.595 0 0 1 .183.243c.059.085.113.172.166.26.013.021.025.044.036.065.04.07.077.139.115.209.015.03.03.058.043.088.032.066.063.133.09.2.014.032.03.064.042.098.032.083.065.166.09.251l.018.047c.013.046.024.09.038.136.018.068.04.138.056.206.025.103.045.21.062.317l.006.041c.013.09.024.181.032.273l.006.078c.005.102.011.203.01.305 0 .074-.005.146-.01.217l-.006.066a4.1 4.1 0 0 1-.024.217c-.008.045-.014.089-.023.132-.004.023-.01.047-.013.07l-.032.14c-.004.016-.008.035-.014.052a2.536 2.536 0 0 1-.056.183c-.006.015-.011.029-.015.044-.017.045-.032.088-.051.132l-.034.073-.045.098-.045.085-.046.083-.068.108-.041.062a2.32 2.32 0 0 1-.145.185l-.036.04a2.287 2.287 0 0 1-.134.135l-.045.041c-.057.051-.117.1-.18.144l-.03.02c-.054.038-.11.072-.168.104-.018.01-.035.021-.054.03a1.74 1.74 0 0 1-.21.097l.845-.33a2.615 2.615 0 0 0 .264-.127c.057-.032.114-.068.168-.103l.03-.021c.063-.046.121-.093.18-.144l.045-.041c.045-.043.09-.089.134-.136.007-.01.017-.017.024-.026a2.343 2.343 0 0 0 .155-.198l.01-.013.031-.05c.023-.033.046-.07.068-.105l.015-.025c.012-.018.021-.041.032-.06.016-.026.029-.053.042-.081l.015-.028.034-.076.03-.066a.109.109 0 0 0 .01-.022c.015-.036.026-.072.04-.11.005-.017.012-.032.018-.049l.002-.005c.019-.055.036-.11.05-.166 0-.004.003-.008.003-.01.005-.017.007-.036.013-.053a2.188 2.188 0 0 0 .034-.137c.005-.023.01-.047.013-.07.004-.023.01-.045.013-.07l.01-.062.011-.074.006-.043c.004-.032.005-.066.01-.1l.005-.066.002-.023c.004-.064.005-.128.007-.194v-.007c-.005-.074-.007-.146-.01-.217Z" fill="#CACFD2"/><path d="M34.733 37.127c.117.014.236.034.356.066 1.598.404 2.872 2.235 2.848 4.087-.02 1.714-1.147 2.848-2.578 2.688a2.712 2.712 0 0 1-.355-.065c-1.599-.405-2.872-2.236-2.85-4.088.021-1.713 1.145-2.846 2.579-2.688ZM2.535 28.28c.08.008.162.021.247.042.177.04.36.108.55.198 1.28.628 2.31 2.25 2.307 3.62-.004 1.07-.636 1.674-1.52 1.587a1.96 1.96 0 0 1-.247-.04 2.633 2.633 0 0 1-.55-.198c-1.28-.628-2.311-2.248-2.307-3.62.002-1.074.635-1.675 1.52-1.588Z" fill="#2196F3"/><path d="m6.252 31.517-.008-.108-.004-.045c0-.008 0-.013-.002-.02-.005-.065-.015-.127-.024-.191l-.004-.02c-.004-.023-.01-.046-.013-.069a2.88 2.88 0 0 0-.036-.171c-.01-.038-.019-.078-.03-.115-.008-.029-.013-.059-.023-.087l-.017-.05a2.458 2.458 0 0 0-.056-.165l-.027-.08c-.004-.009-.01-.018-.013-.028a4.072 4.072 0 0 0-.147-.337c-.004-.006-.006-.013-.008-.02l-.032-.058a3.106 3.106 0 0 0-.12-.22l-.057-.096a4.843 4.843 0 0 0-.134-.208c-.013-.019-.024-.04-.038-.058l-.018-.023a5.134 5.134 0 0 0-.212-.277c-.011-.015-.024-.027-.035-.042a5.377 5.377 0 0 0-.197-.218c-.011-.012-.02-.025-.032-.036-.017-.017-.034-.032-.05-.05l-.136-.128a1.942 1.942 0 0 0-.093-.08c-.047-.042-.096-.08-.147-.12-.02-.016-.041-.035-.064-.05l-.028-.02a5.726 5.726 0 0 0-.193-.13c-.017-.01-.035-.024-.052-.035l-.012-.006c-.015-.01-.032-.017-.049-.026a2.134 2.134 0 0 0-.143-.081c-.017-.01-.034-.017-.053-.027a2.215 2.215 0 0 0-.136-.062c-.043-.019-.085-.034-.128-.05l-.02-.008c-.005-.002-.008-.004-.012-.004-.045-.017-.092-.03-.136-.044l-.117-.03c-.002 0-.004 0-.005-.002a1.296 1.296 0 0 0-.12-.022c-.035-.006-.07-.012-.107-.015-.005 0-.01 0-.015-.002a.716.716 0 0 0-.088-.006h-.1c-.027 0-.053.002-.081.004h-.021c-.034.002-.068.007-.1.011a.055.055 0 0 0-.017.004l-.034.006c-.017.003-.034.005-.051.01-.01.001-.019.005-.03.007a.372.372 0 0 0-.047.013c-.012.004-.023.005-.034.01a.463.463 0 0 1-.03.01l-.072.029a.16.16 0 0 0-.032.013l-.02.012a.895.895 0 0 0-.084.045l-.04.023a.947.947 0 0 0-.113.08l-.614.502a.947.947 0 0 1 .113-.08l.04-.023a1.14 1.14 0 0 1 .082-.044l.053-.022.072-.029c.02-.007.041-.015.064-.02l.047-.014.081-.019.034-.005c.04-.006.08-.012.12-.015h.018c.036-.002.071-.004.11-.004h.035l.126.007c.081.008.162.021.247.042.087.019.176.045.264.08.008.001.015.005.021.007.087.032.175.068.264.11a3.216 3.216 0 0 1 .245.137l.063.04c.066.04.132.084.194.131l.092.07c.05.038.098.077.147.119l.093.081c.047.041.092.085.135.128l.085.085c.068.07.134.143.197.219.01.013.024.026.035.041.074.089.144.181.212.278l.056.083c.045.067.09.135.132.203l.059.098c.041.074.08.148.118.221l.04.077c.055.112.104.225.147.338l.04.107c.02.055.04.112.056.166.015.046.027.09.04.138l.03.111.038.174c.004.022.01.045.013.066.013.079.023.156.03.235l.004.042a2.439 2.439 0 0 1 0 .438l-.004.035a3.476 3.476 0 0 1-.02.159l-.006.03a2.174 2.174 0 0 1-.04.166l-.011.034a1.269 1.269 0 0 1-.045.128c-.004.011-.008.023-.014.032-.02.05-.043.098-.068.142-.009.018-.02.034-.032.05-.017.03-.035.059-.054.087-.023.032-.047.06-.072.089-.011.013-.023.028-.036.041a.978.978 0 0 1-.12.114l.614-.502c.044-.034.083-.074.121-.113.013-.013.023-.029.036-.044.024-.028.049-.056.072-.088.001-.004.005-.006.007-.01.017-.024.032-.053.047-.077l.032-.05.004-.007c.02-.04.04-.079.059-.12l.005-.015a.753.753 0 0 0 .04-.102l.017-.059a.868.868 0 0 0 .011-.036l.008-.024c.011-.04.02-.081.028-.123l.004-.018a.756.756 0 0 0 .005-.033l.014-.077.007-.079.004-.036.002-.02c.004-.048.005-.097.005-.146v-.04c.002-.043 0-.084-.001-.124ZM54.403 49.36a.495.495 0 0 1-.004-.053c0-.014-.002-.027-.004-.04l-.004-.045-.017-.144v-.004a2.249 2.249 0 0 0-.028-.158l-.008-.028-.015-.066c-.007-.027-.011-.055-.019-.081-.004-.013-.01-.027-.013-.042l-.03-.098c-.008-.02-.011-.041-.019-.062a2.538 2.538 0 0 0-.094-.24c-.004-.007-.006-.015-.008-.02l-.002-.004a3.197 3.197 0 0 0-.133-.259 1.788 1.788 0 0 0-.129-.201c-.024-.036-.049-.07-.073-.104-.02-.025-.038-.05-.057-.072-.026-.032-.053-.062-.079-.092l-.034-.04-.028-.026-.087-.085-.04-.04-.024-.02c-.015-.014-.03-.027-.047-.04l-.045-.038a1.56 1.56 0 0 0-.055-.04c-.01-.005-.017-.013-.027-.018l-.019-.013a1.18 1.18 0 0 0-.09-.057c-.008-.006-.017-.01-.026-.015a.059.059 0 0 0-.02-.01.386.386 0 0 0-.039-.02c-.024-.013-.05-.025-.077-.038a.13.13 0 0 0-.025-.01l-.019-.007-.034-.015c-.024-.01-.047-.019-.071-.026-.015-.006-.032-.01-.047-.015a1.862 1.862 0 0 0-.023-.006l-.07-.017c-.022-.006-.047-.01-.07-.013l-.013-.002-.056-.008-.07-.005h-.072c-.026 0-.05.002-.077.003a1.002 1.002 0 0 0-.077.01h-.002a1.335 1.335 0 0 0-.093.019.342.342 0 0 0-.047.015c-.013.004-.024.008-.038.011-.009.004-.02.006-.028.01-.038.015-.073.03-.11.049l-.893.46a1.265 1.265 0 0 1 .179-.072c.045-.013.09-.026.14-.034h.005c.053-.007.108-.013.164-.013h.013c.057 0 .114.004.172.013a1.58 1.58 0 0 1 .328.095 1.248 1.248 0 0 1 .155.074c.01.003.017.009.026.014.044.025.087.053.13.081l.032.023a1.706 1.706 0 0 1 .146.113l.06.055c.03.028.062.058.092.09l.055.059.087.102a5.81 5.81 0 0 1 .134.18c.013.02.028.038.041.06.03.046.059.095.087.144l.026.046c.036.066.07.134.1.201.004.006.006.014.008.02.03.07.058.14.085.214l.03.09.03.1a2.69 2.69 0 0 1 .081.376v.004c.01.06.015.123.02.183.003.017.003.034.005.05a2.751 2.751 0 0 1-.006.441l-.004.03c-.01.073-.02.147-.035.214-.002.01-.004.021-.008.03-.015.07-.036.136-.057.2l-.007.023a1.736 1.736 0 0 1-.078.181 1.79 1.79 0 0 1-.105.181c-.011.015-.023.03-.032.045-.03.042-.06.08-.094.116l-.02.02c-.039.042-.082.08-.127.113l-.03.023a1.167 1.167 0 0 1-.146.09l.894-.46c.05-.026.098-.056.145-.09l.03-.023c.044-.034.087-.071.127-.113l.02-.023a.544.544 0 0 0 .053-.06c.014-.017.025-.036.038-.053l.036-.049a1.526 1.526 0 0 0 .083-.136l.01-.02.01-.023.03-.06c.016-.034.03-.068.042-.104l.006-.019.008-.022c.007-.021.015-.04.02-.06.011-.035.021-.07.029-.104l.007-.04c.002-.008.004-.013.004-.019l.011-.047a1.871 1.871 0 0 0 .027-.181l.002-.015.003-.027c.004-.04.006-.079.008-.118.002-.038.004-.078.004-.116v-.009a.875.875 0 0 0 0-.124Z" fill="#CACFD2"/><path d="M51.75 47.398c.056.01.116.023.175.04.88.258 1.593 1.388 1.59 2.523-.005 1.058-.629 1.75-1.43 1.627a1.165 1.165 0 0 1-.176-.04c-.88-.258-1.593-1.387-1.59-2.523.006-1.057.63-1.748 1.43-1.627Z" fill="#2196F3"/><path d="m15.155 45.14-.903-.47a.494.494 0 0 0 .071.033l.904.471a.494.494 0 0 1-.072-.033Z" fill="#006893"/><path d="m15.227 45.176-.904-.471c.09.041.185.073.283.094l.904.472a1.611 1.611 0 0 1-.283-.095Z" fill="#CACFD2"/><path d="m15.51 45.27-.904-.47c.181.039.372.046.57.018.211-.03.426-.1.643-.21l.903.472c-.217.11-.432.18-.643.21-.198.028-.388.02-.57-.02Z" fill="#CACFD2"/><path d="m16.72 45.08-.903-.471c.124-.064.249-.14.372-.23l.903.471c-.123.09-.247.166-.372.23Z" fill="#CACFD2"/><path d="m17.092 44.85-.903-.471c.066-.047.13-.1.194-.157l.903.472a3.64 3.64 0 0 1-.194.156ZM17.286 44.694l-.903-.472.113-.102.903.472-.113.102ZM17.4 44.59l-.904-.472c.098-.094.19-.192.277-.298l.904.472c-.087.105-.18.205-.278.298Z" fill="#CACFD2"/><path d="m17.677 44.292-.904-.472c.093-.11.18-.228.26-.349l.904.472c-.081.123-.168.24-.26.349Z" fill="#CACFD2"/><path d="m17.937 43.943-.904-.471c.091-.138.174-.282.25-.43l.903.471a4.397 4.397 0 0 1-.25.43Z" fill="#CACFD2"/><path d="m18.186 43.513-.904-.471c.093-.185.174-.376.24-.57l.903.471a4.6 4.6 0 0 1-.24.57Z" fill="#CACFD2"/><path d="m18.423 42.943-.903-.471c.271-.803.31-1.667.043-2.365-.177-.466-.462-.794-.809-.975l.904.471c.347.181.631.51.809.975.266.698.228 1.564-.044 2.365ZM9.586 54.96l-.903-.471c-1.347-.703-2.279-2.621-2.412-5.164-.09-1.714.194-3.462.754-5.112l.903.471c-.56 1.65-.843 3.399-.754 5.113.136 2.542 1.065 4.46 2.412 5.163ZM7.928 44.684l-.903-.471c.241-.711.534-1.403.868-2.067l.903.471a16.212 16.212 0 0 0-.868 2.067Z" fill="#CACFD2"/><path d="m8.796 42.617-.904-.471c.283-.56.596-1.1.936-1.613l.903.472c-.34.513-.652 1.052-.935 1.612Z" fill="#CACFD2"/><path d="m9.731 41.005-.903-.472c.31-.467.64-.913.988-1.331l.903.471c-.348.419-.678.864-.988 1.332Z" fill="#CACFD2"/><path d="m10.72 39.673-.904-.471c.332-.398.679-.771 1.04-1.115l.902.472c-.36.345-.707.716-1.039 1.114ZM11.759 38.559l-.904-.472c.19-.183.387-.356.585-.522.124-.104.247-.2.37-.29l.903.47c-.123.091-.245.188-.37.291-.198.166-.392.34-.584.523Z" fill="#CACFD2"/><path d="m12.713 37.746-.904-.472c.276-.203.55-.373.815-.513l.903.472c-.267.14-.539.31-.814.513ZM22.152 14.29c-.302-.157-.602-.316-.904-.472a.957.957 0 0 0 .572.096c.668-.095 1.296-.841 1.456-1.779l.903.472c-.16.937-.788 1.684-1.456 1.778a.995.995 0 0 1-.198.008.89.89 0 0 1-.373-.104Z" fill="#CACFD2"/><path d="m22.152 14.29-.904-.472c.015.007.03.015.048.022l.903.472a.217.217 0 0 1-.047-.023Z" fill="#CACFD2"/><path d="m22.197 14.312-.903-.472a.955.955 0 0 0 .179.06l.903.472a.873.873 0 0 1-.18-.06ZM22.634 10.293c.302.156.602.315.904.471.507.266.784 1 .641 1.843l-.903-.472c.143-.843-.132-1.576-.642-1.842ZM16.915 22.472 16.01 22c-.002-.041-.005-.082-.01-.126l.904.472c.004.045.008.084.01.126ZM13.528 37.233l-.904-.471c-.728-.647-1.209-1.837-1.295-3.499-.087-1.646.224-3.487.816-5.233l.904.471c-.593 1.747-.904 3.59-.817 5.234.087 1.661.566 2.851 1.296 3.498Z" fill="#CACFD2"/><path d="m13.047 28.501-.904-.471c.257-.755.564-1.492.915-2.19l.903.472a17.554 17.554 0 0 0-.914 2.19Z" fill="#CACFD2"/><path d="m13.963 26.314-.903-.472c.266-.526.554-1.03.865-1.5l.904.472c-.311.47-.6.973-.866 1.5Z" fill="#CACFD2"/><path d="m14.829 24.814-.904-.471c.251-.38.515-.736.79-1.066l.904.472c-.275.33-.54.686-.79 1.065ZM15.619 23.749l-.903-.472a9.8 9.8 0 0 1 .731-.788l.904.471c-.251.24-.496.504-.732.789Z" fill="#CACFD2"/><path d="m16.35 22.96-.903-.471c.127-.119.253-.234.381-.341.063-.051.123-.098.181-.148l.904.472c-.059.047-.121.094-.181.147-.129.108-.255.22-.381.341ZM18.691 10.351a26.563 26.563 0 0 0-1.422 3.4c-.918 2.713-1.403 5.57-1.269 8.125l.903.471c-.133-2.553.35-5.412 1.27-8.124a26.567 26.567 0 0 1 1.422-3.4c.413-.817.861-1.6 1.344-2.327l-.903-.472c-.481.73-.932 1.51-1.345 2.327Z" fill="#CACFD2"/><path d="M24.962 3.35c-.11.05-.219.1-.328.157-.372.19-.753.427-1.137.711a11.756 11.756 0 0 0-1.098.928c-.39.374-.77.783-1.137 1.222a18.455 18.455 0 0 0-1.226 1.656l.903.472c.389-.589.8-1.143 1.226-1.656.368-.44.747-.85 1.137-1.222A11.717 11.717 0 0 1 24.4 4.69c.385-.285.766-.52 1.137-.711.11-.057.219-.108.328-.157l-.903-.471Z" fill="#CACFD2"/><path d="M23.892 5.09c.676-.566 1.338-.996 1.973-1.279l-.262 40.011-12.41 10.392c-.712.596-1.402.92-2.047 1.01-2.154.304-3.79-1.991-3.972-5.43-.234-4.469 2.076-9.17 5.17-11.76.403-.337.799-.603 1.184-.803-.728-.647-1.21-1.837-1.296-3.498-.206-3.887 1.81-8.864 4.502-11.118.062-.05.122-.098.18-.147-.001-.041-.005-.083-.009-.126-.317-6.03 2.814-13.756 6.987-17.252Zm-6.606 39.604c1.14-.992 1.667-2.833 1.183-4.116-.317-.837-.987-1.227-1.732-1.123-.396.056-.81.25-1.207.596-1.139.991-1.669 2.836-1.182 4.116.315.836.986 1.226 1.73 1.122.395-.056.812-.252 1.208-.595Zm6.893-32.087c.176-1.03-.277-1.901-1.014-1.944-.066-.004-.132 0-.198.007-.668.094-1.294.841-1.454 1.778-.176 1.03.277 1.903 1.012 1.945.066.003.132 0 .198-.008.668-.094 1.296-.843 1.456-1.778Z" fill="#2196F3"/><path d="m23.892 5.09-.903-.472c.675-.566 1.335-.984 1.973-1.265l.903.46c-.635.28-1.297.709-1.973 1.277ZM22.68 43.52c.053.002.105.006.156.014l.025.005c.047.01.092.021.138.036l.026.008c.053.019.106.041.155.068l-.86-.468-.04-.02c-.013-.008-.03-.01-.043-.018a1.038 1.038 0 0 0-.129-.047c-.01-.004-.02-.01-.032-.011a1.071 1.071 0 0 0-.098-.02 1.09 1.09 0 0 0-.158-.012h-.036a1.285 1.285 0 0 0-.377.056l-.13.044c-.017.005-.034.015-.051.02-.025.012-.05.021-.076.032a2.344 2.344 0 0 0-.189.102c-.037.023-.075.047-.112.072l-.015.01c-.015.009-.029.022-.044.031a2.232 2.232 0 0 0-.143.11l-.076.062c-.007.008-.017.013-.024.02l-.023.023a3.11 3.11 0 0 0-.258.264c-.028.032-.055.066-.083.1-.015.02-.032.038-.047.057-.051.064-.102.13-.15.2l-.005.007c-.019.029-.036.057-.055.083-.034.051-.067.1-.098.153l-.054.096c-.025.042-.05.083-.072.127l-.011.022c-.051.096-.1.195-.144.293l-.015.037a4.625 4.625 0 0 0-.143.368c-.025.072-.05.142-.07.213l-.032.112c-.019.07-.038.14-.053.21-.007.037-.017.07-.024.106a3.793 3.793 0 0 0-.044.25l-.01.063a3.47 3.47 0 0 0-.031.308c-.002.026-.002.05-.002.077-.004.075-.006.15-.004.223 0 .034.002.068.004.103l.013.193.012.102c.009.064.02.126.034.188.005.029.01.059.017.087.02.089.045.173.075.256.14.38.356.643.622.787.287.156.574.311.86.468-.266-.144-.483-.408-.622-.787a2.244 2.244 0 0 1-.076-.256c-.007-.029-.01-.059-.017-.087a2.096 2.096 0 0 1-.032-.189l-.01-.103a3.105 3.105 0 0 1-.018-.295 2.85 2.85 0 0 1 .004-.22c.002-.027.002-.053.002-.081.005-.102.017-.204.03-.306l.011-.068c.014-.08.027-.162.044-.243l.024-.108c.015-.07.034-.14.053-.207.011-.038.02-.076.032-.113.02-.07.045-.14.068-.21a3.92 3.92 0 0 1 .16-.407c.046-.1.093-.196.144-.292.026-.051.054-.098.082-.147.02-.032.036-.064.055-.096.034-.055.068-.108.104-.16.017-.025.032-.052.049-.076l.023-.03c.073-.102.15-.2.23-.295.032-.037.064-.077.096-.113.064-.07.13-.132.196-.192l.047-.042.076-.064.062-.05c.024-.021.05-.038.075-.057l.063-.046a1.832 1.832 0 0 1 .147-.092c.049-.028.098-.055.147-.077l.085-.038.045-.019c.043-.017.087-.032.13-.043a1.383 1.383 0 0 1 .375-.057c.015-.004.027-.004.04-.004Z" fill="#CACFD2"/><path d="M22.474 43.532c.577-.081 1.079.226 1.33.909.43 1.171-.045 3.006-1.058 4.1-.353.38-.724.62-1.077.724a1.49 1.49 0 0 1-.21.045c-.576.081-1.078-.224-1.329-.905-.43-1.171.045-3.008 1.06-4.104.353-.379.722-.62 1.075-.724.072-.02.141-.036.21-.045Z" fill="#82D0F5"/><path d="M26.855 11.888c.025.004.051.008.076.014a.527.527 0 0 1 .126.045l.045.02-.86-.467c-.01-.004-.017-.01-.026-.013l-.017-.006a.62.62 0 0 0-.098-.036l-.02-.007c-.003-.002-.007-.002-.012-.002a.493.493 0 0 0-.074-.012l-.036-.005a.748.748 0 0 0-.29.034c-.045.013-.089.032-.134.05l-.013.006c-.006.002-.011.008-.017.01a1.144 1.144 0 0 0-.166.096h-.002a1.497 1.497 0 0 0-.141.111c-.006.006-.012.01-.02.015a.05.05 0 0 0-.012.015 1.914 1.914 0 0 0-.138.14l-.006.005a2.21 2.21 0 0 0-.159.202l-.003.006c-.057.08-.108.166-.157.257l-.005.007-.002.006c-.03.054-.057.11-.083.17-.008.014-.013.03-.019.045a3.877 3.877 0 0 0-.066.162c-.004.007-.006.017-.008.024a2.79 2.79 0 0 0-.079.251c-.004.011-.005.023-.007.034-.023.09-.044.183-.059.28-.124.787.093 1.436.504 1.659l.86.468c-.411-.225-.628-.872-.504-1.66.015-.094.034-.187.059-.28l.007-.033c.023-.087.05-.17.08-.251l.018-.053c.017-.045.036-.09.055-.134l.019-.045c.026-.058.055-.115.085-.17l.007-.013c.05-.09.102-.175.157-.256.004-.006.01-.012.013-.02.045-.061.09-.122.14-.177l.014-.016c.046-.051.091-.097.138-.14l.032-.028a1.75 1.75 0 0 1 .134-.108l.01-.007a1.22 1.22 0 0 1 .196-.112.891.891 0 0 1 .266-.079l.045-.005c.04-.004.077-.002.115 0 .011 0 .02.002.032.003Z" fill="#CACFD2"/><path d="m26.661 11.888.045-.005c.657-.05 1.058.73.9 1.742-.143.92-.705 1.716-1.3 1.892-.043.011-.086.02-.13.028l-.045.006c-.656.05-1.058-.73-.898-1.743.144-.922.702-1.716 1.296-1.89a.693.693 0 0 1 .132-.03Z" fill="#2196F3"/></svg>