<svg width="60" height="60" viewBox="0 0 60 60" fill="none" xmlns="http://www.w3.org/2000/svg">
<path d="M8.47867 20.1637H6.01099V22.8212H8.47867V20.1637Z" fill="#CA1C59"/>
<path d="M8.85838 24.7194H6.45398V27.2503H8.85838V24.7194Z" fill="#CA1C59"/>
<path d="M17.3371 25.9849H14.6163V28.8955H17.3371V25.9849Z" fill="#CA1C59"/>
<path d="M13.7304 23.0109H16.2613V19.7207H13.2875V21.1127H11.0729V23.8967H13.7304V23.0109Z" fill="#CA1C59"/>
<path d="M20.6272 30.6039H18.1595V33.2614H20.6272V30.6039Z" fill="#CA1C59"/>
<path d="M12.465 29.1486H10.3137V31.4264H12.465V29.1486Z" fill="#CA1C59"/>
<path d="M4.11282 18.835H2.02478V20.9863H4.11282V18.835Z" fill="#CA1C59"/>
<path d="M2.27786 22.6946H0V25.1623H2.27786V22.6946Z" fill="#CA1C59"/>
<path d="M22.3357 26.9972H20.8804V28.6424H22.3357V26.9972Z" fill="#CA1C59"/>
<path d="M11.0096 18.0756V16.4938H9.74416V15.0385H8.03577V16.9367H9.49106V18.0756H11.0096Z" fill="#CA1C59"/>
<path d="M4.3659 28.1362H2.97388V29.718H4.3659V28.1362Z" fill="#CA1C59"/>
<path d="M2.21466 14.0261H0.822632V15.6079H2.21466V14.0261Z" fill="#CA1C59"/>
<path d="M16.5145 17.3165V18.2023H18.476V21.1762H20.8804V22.6315H18.1596V25.6686H21.0702V23.5806H21.8295V24.6562H23.4746V27.8832H24.7401V30.8571H23.9175V31.8695H23.2848C24.9932 37.2477 25.6892 43.322 25.6892 43.322C27.0812 40.6012 33.8515 14.2793 6.89685 12.1913C10.63 14.0262 13.3508 16.1775 14.7428 17.3165H16.5145Z" fill="#CA1C59"/>
<path d="M25.7526 18.392L27.3977 18.3287L26.3853 19.2146C26.7017 19.6575 26.9548 20.0371 27.2079 20.48L29.9287 19.9738L28.0305 22.0619C32.7127 38.0702 24.5504 47.8776 24.5504 47.8776C31.2574 45.5998 40.1158 35.6025 47.2024 31.9959C54.036 28.4525 60.3634 31.9326 59.9838 30.6039C59.0979 27.8198 52.8338 24.5296 52.8338 24.5296C50.113 21.4291 47.0759 20.5433 45.1144 20.1637C41.5078 19.5309 37.8379 20.2269 36.0662 20.6699C29.6123 12.1912 15.6288 12.0013 15.6288 12.0013C20.3743 13.5199 23.6013 15.7345 25.7526 18.392ZM46.8228 23.5805C47.6454 23.5805 49.1007 24.1499 50.3029 25.2256C50.3029 25.2256 49.5436 25.4154 48.721 25.2889C48.0883 25.2889 47.329 25.0358 46.5697 24.403C46.0002 23.8336 46.2533 23.5172 46.8228 23.5805Z" fill="#CA1C59"/>
</svg>
