<svg width="60" height="60" viewBox="0 0 60 60" xmlns="http://www.w3.org/2000/svg">
<g fill="#f58212">
<path d="m26.934 54.297c0 3.1484-2.5508 5.7031-5.7031 5.7031-3.1484 0-5.6992-2.5547-5.6992-5.7031s2.5508-5.7031 5.6992-5.7031c3.1523 0 5.7031 2.5547 5.7031 5.7031"/>
<path d="m54.02 3.3945c-0.51172-1.1367-1.3164-2.0117-2.418-2.6367-1.1055-0.625-2.2734-0.86328-3.5-0.71484-1.2344 0.14453-2.2969 0.99609-3.1797 2.5664-0.16797 0.28906-0.58984 1.1758-1.2773 2.6641-0.69141 1.4883-1.5664 3.3672-2.625 5.6445-1.0586 2.2734-2.2578 4.832-3.5977 7.6758-1.3438 2.8398-2.7305 5.832-4.1562 8.9648-1.4375 3.1367-2.8828 6.3008-4.3438 9.4961-1.4336 3.1328-2.8008 6.1094-4.0898 8.918 0.61719 0.26562 1.2031 0.60547 1.7578 1.0195 2.6523-3.8906 5.4883-8.0273 8.5039-12.418 3.0508-4.4414 5.8867-8.6016 8.5078-12.484 2.6211-3.8789 4.8516-7.1758 6.6914-9.8867 1.8438-2.7109 2.8945-4.3008 3.1562-4.7617 0.89062-1.5703 1.0781-2.9141 0.57031-4.0469"/>
<path d="m17.477 46.051c-0.83594-3.3438-1.5234-6.0312-2.0469-8.0703-0.53516-2.0625-0.98438-3.6914-1.332-4.8945-0.34375-1.1992-0.62109-2.0781-0.82031-2.6367-0.20703-0.5625-0.40234-1.043-0.58984-1.4336-0.44922-0.94141-1.1172-1.5586-1.9883-1.8477-0.87891-0.28906-1.8125-0.19141-2.8086 0.28125-0.99219 0.47656-1.6562 1.1484-1.9805 2.0078-0.32812 0.86328-0.26562 1.7656 0.17969 2.7109 0.19141 0.39062 0.4375 0.84375 0.74609 1.3555 0.30859 0.50781 0.82031 1.2812 1.5391 2.3047 0.71094 1.0234 1.7031 2.3906 2.9688 4.0977 1.2617 1.7109 2.9453 3.9492 5.0508 6.7383 0.35156-0.23047 0.71094-0.44141 1.082-0.61328"/>
<path d="m32.23 57.984c0.19531 0 0.53516 0.039063 0.53516-0.21094 0-0.16406-0.21484-0.19141-0.38281-0.19141h-0.41797v0.40234zm0.73438 0.94922h-0.26562l-0.46875-0.72656h-0.26562v0.72656h-0.22266v-1.5742h0.6875c0.28125 0 0.55859 0.078125 0.55859 0.41797 0 0.30859-0.21875 0.42188-0.49609 0.42969zm0.53516-0.77734c0-0.67578-0.5625-1.2148-1.2188-1.2148-0.66016 0-1.2227 0.53906-1.2227 1.2148s0.5625 1.2148 1.2227 1.2148c0.65625 0 1.2188-0.53906 1.2188-1.2148zm-2.6641 0c0-0.80078 0.63672-1.4375 1.4453-1.4375 0.80469 0 1.4414 0.63672 1.4414 1.4375 0 0.79688-0.63672 1.4336-1.4414 1.4336-0.80859 0-1.4453-0.63672-1.4453-1.4336"/>
</g>
</svg>
