<?xml version="1.0" encoding="UTF-8"?>
<svg xmlns="http://www.w3.org/2000/svg" xmlns:xlink="http://www.w3.org/1999/xlink" width="60" height="60" viewBox="0 0 60 60">
<path fill-rule="nonzero" fill="rgb(100%, 100%, 100%)" fill-opacity="1" d="M 55.585938 48.6875 L 36.898438 30 L 55.546875 11.351562 L 48.648438 4.453125 L 30 23.101562 L 11.3125 4.414062 L 4.414062 11.3125 L 23.101562 30 L 4.453125 48.644531 L 11.351562 55.542969 L 30 36.898438 L 48.6875 55.582031 L 55.585938 48.683594 "/>
<path fill-rule="nonzero" fill="rgb(0%, 0%, 0%)" fill-opacity="1" d="M 51.792969 50.113281 L 50.113281 51.792969 L 30 31.679688 L 9.886719 51.792969 L 8.207031 50.113281 L 28.320312 30 L 8.207031 9.886719 L 9.886719 8.207031 L 30 28.320312 L 50.113281 8.207031 L 51.792969 9.886719 L 31.679688 30 L 51.792969 50.113281 M 60 11.667969 L 48.328125 0 L 30 18.328125 L 11.667969 0 L -0.00390625 11.667969 L 18.328125 30 L -0.00390625 48.332031 L 11.667969 60 L 30 41.671875 L 48.328125 60 L 60 48.332031 L 41.667969 30 Z M 60 11.667969 "/>
</svg>
