<svg width="60" height="60" viewBox="0 0 60 60" fill="none" xmlns="http://www.w3.org/2000/svg">
<path fill-rule="evenodd" clip-rule="evenodd" d="M14.6794 39.6485H10.283V38.2679C9.863 38.7951 9.43854 39.1793 9.00962 39.4207C8.259 39.8407 7.40564 40.0507 6.44948 40.0507C4.90356 40.0507 3.52746 39.5189 2.3211 38.4555C0.882418 37.1867 0.163086 35.5067 0.163086 33.4157C0.163086 31.2889 0.90029 29.5911 2.37472 28.3223C3.54532 27.3125 4.89016 26.8077 6.40928 26.8077C7.29394 26.8077 8.12496 26.9953 8.90238 27.3705C9.34918 27.5851 9.80938 27.9381 10.283 28.4295V19.516H14.6794V39.6485ZM10.417 33.4291C10.417 32.6427 10.14 31.9749 9.58598 31.4253C9.03196 30.8757 8.36178 30.6009 7.5754 30.6009C6.69968 30.6009 5.98036 30.9315 5.4174 31.5929C4.96166 32.1289 4.7338 32.7411 4.7338 33.4291C4.7338 34.1173 4.96166 34.7293 5.4174 35.2655C5.97142 35.9267 6.69076 36.2573 7.5754 36.2573C8.3707 36.2573 9.04312 35.9849 9.59268 35.4397C10.1422 34.8947 10.417 34.2245 10.417 33.4291ZM31.1686 39.6485H26.772V38.2679C26.352 38.7951 25.9276 39.1793 25.4988 39.4207C24.7482 39.8407 23.8948 40.0507 22.9386 40.0507C21.3926 40.0507 20.0166 39.5189 18.8102 38.4555C17.3715 37.1867 16.6522 35.5067 16.6522 33.4157C16.6522 31.2889 17.3894 29.5911 18.8638 28.3223C20.0344 27.3125 21.3792 26.8077 22.8984 26.8077C23.783 26.8077 24.614 26.9953 25.3914 27.3705C25.8382 27.5851 26.2984 27.9381 26.772 28.4295V27.2097H31.1686V39.6485ZM26.9062 33.4291C26.9062 32.6427 26.6292 31.9749 26.075 31.4253C25.521 30.8757 24.8508 30.6009 24.0646 30.6009C23.1888 30.6009 22.4694 30.9315 21.9064 31.5929C21.4508 32.1289 21.2228 32.7411 21.2228 33.4291C21.2228 34.1173 21.4508 34.7293 21.9064 35.2655C22.4606 35.9267 23.1798 36.2573 24.0646 36.2573C24.8598 36.2573 25.5322 35.9849 26.0818 35.4397C26.6314 34.8947 26.9062 34.2245 26.9062 33.4291ZM48.1536 33.4425C48.1536 35.5693 47.4164 37.2671 45.942 38.5359C44.7714 39.5457 43.4266 40.0507 41.9074 40.0507C41.0228 40.0507 40.1918 39.8629 39.4142 39.4877C38.9674 39.2733 38.5072 38.9203 38.0336 38.4287V45.8679H33.6372V27.2097H38.0336V28.5903C38.4268 28.0721 38.8514 27.6879 39.307 27.4377C40.0576 27.0177 40.911 26.8077 41.8672 26.8077C43.4132 26.8077 44.7892 27.3393 45.9956 28.4027C47.4342 29.6715 48.1536 31.3515 48.1536 33.4425ZM43.5828 33.4291C43.5828 32.7231 43.3594 32.1111 42.9126 31.5929C42.3498 30.9315 41.626 30.6009 40.7412 30.6009C39.946 30.6009 39.2736 30.8735 38.724 31.4185C38.1744 31.9637 37.8996 32.6339 37.8996 33.4291C37.8996 34.2155 38.1766 34.8835 38.7306 35.4331C39.2848 35.9825 39.955 36.2573 40.7412 36.2573C41.626 36.2573 42.3452 35.9267 42.8992 35.2655C43.355 34.7293 43.5828 34.1173 43.5828 33.4291ZM59.4554 31.2711C58.8388 30.9763 58.2134 30.8287 57.5788 30.8287C56.1312 30.8287 55.193 31.4185 54.764 32.5981C54.6032 33.0271 54.5228 33.6033 54.5228 34.3271V39.6485H50.1264V27.2097H54.5228V29.2471C54.9874 28.5233 55.4878 28.0005 56.024 27.6789C56.7478 27.2499 57.6056 27.0355 58.5976 27.0355C58.8298 27.0355 59.1158 27.0489 59.4554 27.0757V31.2711Z" fill="#0D2192"/>
<path d="M33.603 39.7391H38.0296L38.4108 50.1323L35.8162 51.9503L33.2216 50.1323L33.603 39.7391Z" fill="#0D2192"/>
<path d="M40.1447 8.38488H24.0049C23.8243 8.38488 23.6779 8.53128 23.6779 8.71186V19.8771C23.6779 20.0577 23.8243 20.2041 24.0049 20.2041H40.1447C40.3253 20.2041 40.4717 20.0577 40.4717 19.8771V8.71186C40.4717 8.53128 40.3253 8.38488 40.1447 8.38488Z" fill="#0D2192"/>
<path opacity="0.08" d="M29.8899 8.38488H23.6779V20.2041H29.8899V8.38488Z" fill="white"/>
<path d="M44.9454 19.4415H18.9822C18.6463 19.4415 18.374 19.7138 18.374 20.0497V21.6701C18.374 22.0059 18.6463 22.2783 18.9822 22.2783H44.9454C45.2814 22.2783 45.5536 22.0059 45.5536 21.6701V20.0497C45.5536 19.7138 45.2814 19.4415 44.9454 19.4415Z" fill="#0D2192"/>
<path opacity="0.08" d="M26.7834 19.4415H18.374V22.9329H26.7834V19.4415Z" fill="white"/>
</svg>
