<?xml version="1.0" encoding="UTF-8" standalone="no"?>
<svg
   width="256"
   height="256"
   viewBox="0 0 256 256"
   fill="none"
   version="1.1"
   id="svg18"
   sodipodi:docname="1_WireMock_Logo_30px.svg"
   inkscape:version="1.2.2 (732a01da63, 2022-12-09)"
   inkscape:export-filename="1_WireMock_Logo_30px.svg"
   inkscape:export-xdpi="11.25"
   inkscape:export-ydpi="11.25"
   xmlns:inkscape="http://www.inkscape.org/namespaces/inkscape"
   xmlns:sodipodi="http://sodipodi.sourceforge.net/DTD/sodipodi-0.dtd"
   xmlns="http://www.w3.org/2000/svg"
   xmlns:svg="http://www.w3.org/2000/svg">
  <defs
     id="defs22" />
  <sodipodi:namedview
     id="namedview20"
     pagecolor="#ffffff"
     bordercolor="#000000"
     borderopacity="0.25"
     inkscape:showpageshadow="2"
     inkscape:pageopacity="0.0"
     inkscape:pagecheckerboard="0"
     inkscape:deskcolor="#d1d1d1"
     showgrid="false"
     inkscape:zoom="3.2382812"
     inkscape:cx="111.17008"
     inkscape:cy="128.1544"
     inkscape:window-width="1920"
     inkscape:window-height="1009"
     inkscape:window-x="-8"
     inkscape:window-y="-8"
     inkscape:window-maximized="1"
     inkscape:current-layer="svg18" />
  <path
     d="M60.6146 174.08H30.6297L0 78.9666H32.403L60.6146 174.08Z"
     fill="#0FB2EF"
     id="path2" />
  <path
     d="M60.6146 174.08H31.2745L59.3249 78.9666L91.8892 78.9666L60.6146 174.08Z"
     fill="#0FB2EF"
     id="path4" />
  <path
     d="M105.19 174.08H90.1159L59.325 78.9666H91.8892L118.972 174.08H105.19Z"
     fill="#0FB2EF"
     id="path6" />
  <path
     d="M118.972 174.08H90.2771L117.844 78.9666L150.247 78.9666L118.972 174.08Z"
     fill="#0FB2EF"
     id="path8" />
  <path
     d="M150.81 78.9666L165.884 78.9666L196.675 174.08L164.111 174.08L137.028 78.9666L150.81 78.9666Z"
     fill="#F59122"
     id="path10" />
  <path
     d="M195.385 78.9666L225.37 78.9666L256 174.08L223.597 174.08L195.385 78.9666Z"
     fill="#F59122"
     id="path12" />
  <path
     d="M195.385 78.9666L224.725 78.9666L196.675 174.08L164.111 174.08L195.385 78.9666Z"
     fill="#F59121"
     id="path14" />
  <path
     d="M137.028 78.9666L165.723 78.9666L138.156 174.08L105.753 174.08L137.028 78.9666Z"
     fill="#F59121"
     id="path16" />
</svg>
