<svg width="60" height="60" viewBox="0 0 60 60" fill="none" xmlns="http://www.w3.org/2000/svg">
<path d="M14.2065 40.8013H7.17884L0 18.5091H7.59445L14.2065 40.8013Z" fill="#0FB2EF"/>
<path d="M14.2067 40.8013H7.33008L13.9044 18.5091H21.5366L14.2067 40.8013Z" fill="#0FB2EF"/>
<path d="M24.6539 40.8013H21.1209L13.9043 18.5091H21.5365L27.8841 40.8013H24.6539Z" fill="#0FB2EF"/>
<path d="M27.8841 40.8013H21.1587L27.6197 18.5091H35.2141L27.8841 40.8013Z" fill="#0FB2EF"/>
<path d="M35.3461 18.5091H38.8791L46.0957 40.8013H38.4635L32.116 18.5091H35.3461Z" fill="#F59122"/>
<path d="M45.7935 18.5091H52.8212L60.0001 40.8013H52.4056L45.7935 18.5091Z" fill="#F59122"/>
<path d="M45.7935 18.5091H52.67L46.0958 40.8013H38.4636L45.7935 18.5091Z" fill="#F59121"/>
<path d="M32.116 18.5091H38.8414L32.3803 40.8013H24.7859L32.116 18.5091Z" fill="#F59121"/>
</svg>
