<svg width="60" height="60" viewBox="0 0 60 60" fill="none" xmlns="http://www.w3.org/2000/svg">
<path d="M26.0319 53.0076C27.9236 53.0076 29.4572 54.5411 29.4572 56.4328C29.4572 58.3245 27.9236 59.8581 26.0319 59.8581C24.1402 59.8581 22.6066 58.3245 22.6066 56.4328C22.6066 54.5411 24.1402 53.0076 26.0319 53.0076ZM45.0352 46.758L48.4201 47.7609L45.7332 56.8292C45.4984 57.6216 44.7453 58.145 43.9208 58.0888L43.0909 58.0319L43.0706 58.0486L34.4476 57.4435L34.6876 53.9214L40.481 54.3145L36.6882 48.8433L39.5894 46.8317L43.3872 52.3098L45.0352 46.758ZM8.19421 40.4891L11.7157 40.7385L11.3032 46.531L16.7645 42.7334L18.7806 45.6314L13.3121 49.433L18.8938 51.0777L17.8961 54.4641L8.78501 51.7798C7.98958 51.5455 7.46451 50.7891 7.52311 49.9619L8.19421 40.4891ZM30.9314 35.5565L37.2871 43.2299L34.4227 45.6025L30.6402 41.0359L29.4138 48.0571L25.75 47.4166L26.9775 40.3844L21.8852 43.3869L19.9973 40.1822L28.5552 35.1405C29.342 34.677 30.3489 34.8533 30.9314 35.5565ZM48.7133 30.4084L51.8882 28.681L56.5134 37.182C56.9186 37.9267 56.7516 38.853 56.1119 39.4093L55.4575 39.9747L48.7804 45.7857L46.4085 43.0585L50.8975 39.153L44.2111 37.9485L44.8525 34.3914L51.5342 35.5954L48.7133 30.4084ZM11.2712 21.5207L13.6629 24.2306L9.23545 28.1355L15.9347 29.305L15.3137 32.8657L8.60714 31.6952L11.4878 36.903L8.32513 38.6526L3.62582 30.1577C3.21552 29.416 3.37583 28.4888 4.01134 27.928L11.2712 21.5207ZM33.9158 18.7249L40.25 26.3777L37.3847 28.7493L33.6031 24.1806L32.3768 31.2039L28.7129 30.5635L29.9362 23.5586L24.8635 26.5323L22.9827 23.3233L30.7747 18.7549L30.7823 18.7252L30.8167 18.7297L31.5428 18.3063C32.3295 17.8452 33.3344 18.0225 33.9158 18.7249ZM42.0782 14.9613L43.4636 11.623L52.4245 15.3417C53.2067 15.6662 53.6585 16.4904 53.5116 17.3243L53.3625 18.1539L51.8322 26.8582L48.2726 26.2312L49.2984 20.4045L43.3533 23.6902L41.6062 20.5261L47.5626 17.2377L42.0782 14.9613ZM25.0076 8.38279L25.1617 11.9939L19.2422 12.2469L23.7068 17.3489L20.9867 19.729L16.5147 14.6193L15.4728 20.4529L11.9148 19.8165L13.6199 10.2834C13.769 9.45025 14.4762 8.83213 15.3219 8.79605L16.1595 8.75858L16.1783 8.74496L25.0076 8.38279ZM37.1162 0.681656L43.4217 8.3827L40.5439 10.7391L36.8014 6.16757L35.5391 13.1816L31.8785 12.5228L33.1429 5.49302L28.0332 8.48047L26.1567 5.26909L34.739 0.25414C35.5287 -0.207317 36.5367 -0.0260329 37.1162 0.681656Z" fill="#111111"/>
</svg>
