<svg width="60" height="60" viewBox="0 0 60 60" fill="none" xmlns="http://www.w3.org/2000/svg">
<path d="M46.5306 13.659C42.1329 9.23646 36.1495 6.75766 29.9131 6.77563C23.6767 6.75766 17.6932 9.23646 13.2955 13.659C8.87296 18.0567 6.39416 24.0415 6.41213 30.2779C6.40798 33.1618 6.93748 36.0208 7.97296 38.7111C6.44669 40.2222 4.99923 41.812 3.63747 43.4724C2.80383 44.4913 2.03655 45.5614 1.33978 46.6784C0.971495 47.2645 0.655971 47.8821 0.396919 48.524C0.250375 48.8807 0.139776 49.2512 0.0665041 49.63C-0.0318639 50.0948 -0.020979 50.5761 0.0983014 51.036C0.127803 51.1503 0.169518 51.2611 0.222725 51.3664L0.255905 51.4369C0.268348 51.4632 0.282172 51.4881 0.29738 51.513C0.367564 51.635 0.449522 51.7498 0.54208 51.8558C0.748071 52.0922 1.00383 52.2802 1.29001 52.4088C1.72726 52.5927 2.19826 52.6826 2.6725 52.6729C3.40936 52.6494 4.1407 52.5277 4.84439 52.3093C6.12491 51.9199 7.37297 51.4309 8.57711 50.8466C10.5019 49.9087 12.3776 48.8733 14.1969 47.7443C18.5071 51.6372 24.1107 53.7886 29.9186 53.7802C33.006 53.7885 36.0644 53.1843 38.9167 52.0028C41.7691 50.8213 44.3589 49.0858 46.5361 46.8968C50.9587 42.4991 53.4375 36.5143 53.4195 30.2779C53.4361 24.0402 50.9559 18.0554 46.5306 13.659ZM8.47342 39.918C9.47731 42.151 10.8255 44.2125 12.4688 46.0273C10.6909 47.1167 9.08033 48.018 7.56098 48.7756C6.4806 49.3335 5.35885 49.8072 4.20568 50.1927C3.69105 50.367 3.15635 50.4753 2.61443 50.5148C2.453 50.5282 2.29046 50.5123 2.13471 50.4678C2.10291 50.454 2.08632 50.4443 2.08356 50.4443C2.03655 50.2715 2.03655 50.1153 2.06835 49.9632C2.10821 49.71 2.17304 49.4613 2.2619 49.2208C2.46236 48.6706 2.70568 48.1383 2.98909 47.6254C3.58638 46.5384 4.25032 45.4894 4.97711 44.4844C6.03471 42.9775 7.15591 41.5425 8.47204 39.918H8.47342ZM21.7343 42.6567C24.1564 40.8678 26.0946 39.3706 27.831 37.9438C29.826 36.3224 31.7805 34.6519 33.6928 32.9337L33.943 32.7001L39.2656 27.6457C39.4536 27.4577 39.4661 27.1563 39.2933 26.9544C39.2077 26.8582 39.089 26.7978 38.9609 26.7853C38.8328 26.7727 38.7046 26.8089 38.602 26.8867L32.9075 31.4213L32.6062 31.6646L26.5619 36.318L26.3407 36.4826L20.396 40.7987C18.1343 42.3885 16.2555 43.6535 14.519 44.754C10.826 40.8427 8.77359 35.6641 8.78448 30.2849C8.76927 24.6775 10.9992 19.2982 14.9739 15.3443C18.9278 11.3683 24.3071 9.13969 29.9145 9.1549C35.5204 9.13969 40.9011 11.3683 44.855 15.3429C46.8227 17.3007 48.3827 19.6292 49.4448 22.1937C50.507 24.7581 51.0502 27.5077 51.043 30.2835C51.0504 33.0594 50.5072 35.8093 49.4451 38.374C48.3829 40.9387 46.8228 43.2674 44.855 45.2254C42.8973 47.1933 40.5689 48.7536 38.0044 49.816C35.4399 50.8784 32.6903 51.4218 29.9145 51.4148C24.9237 51.4176 20.0932 49.6508 16.2831 46.4282C18.137 45.2074 19.9702 43.9438 21.7343 42.6567Z" fill="#322965"/>
<path d="M59.4428 8.34605C59.4428 8.34605 53.8147 7.44744 51.9359 9.08015L48.4907 12.0746L48.1714 12.3511L48.0096 12.4894C48.0096 12.4894 42.1313 12.0995 40.8594 13.2041L39.5502 14.3433L39.0649 14.758L38.541 15.2143L38.4027 15.3304L41.1262 18.4631C40.2857 19.1931 40.8884 21.2626 42.4728 23.0848C44.0571 24.9069 46.0216 25.7917 46.8622 25.0603L49.5857 28.1931L49.67 28.1198L50.729 27.1991L52.0382 26.0599C53.3101 24.9539 53.7414 19.0797 53.7414 19.0797L54.0677 18.7963L54.3331 18.5668L57.6691 15.6636C59.5437 14.0474 59.4428 8.34605 59.4428 8.34605Z" fill="#ED5735"/>
</svg>
