<svg width="60" height="60" viewBox="0 0 60 60" fill="none" xmlns="http://www.w3.org/2000/svg">
<path d="M32.8135 0.0372137C29.8544 0.228326 27.4722 3.52237 28.3671 6.40598C28.774 7.94476 30.1147 9.17324 31.219 10.3404C32.7091 11.9059 33.6259 12.8432 35.683 14.9842C37.9644 17.1619 40.1491 19.7176 39.6174 23.001C39.355 24.5539 38.9354 25.5229 37.9827 26.6928C37.4552 27.4601 35.6654 28.6597 35.0991 28.7274C35.0666 28.2126 35.0857 19.353 35.0815 17.2789C25.6161 22.0864 18.461 31.2245 16.1649 41.4325C16.1289 41.8267 15.6846 42.62 16.4251 42.0432C17.1239 41.7413 18.7029 40.9254 19.4702 40.539C21.6853 39.436 24.7163 37.8768 26.8763 36.8246C27.6471 36.3916 30.8756 34.7499 31.4933 34.4755C31.5335 34.9692 31.4778 35.6208 31.5067 36.0926C31.523 37.8253 31.4722 39.7519 31.5159 41.527C31.4877 45.9557 31.5089 50.505 31.5067 54.9288C31.5194 55.4443 31.4778 56.0832 31.5159 56.5007C31.5766 56.3167 35.3114 60.756 35.109 59.8872C35.0822 58.5783 35.1125 57.2052 35.0998 55.9887C35.0434 55.9937 35.1562 55.7137 35.0998 55.7194C35.0772 55.7194 35.0772 55.6608 35.0998 55.5847C35.159 55.3985 35.0406 55.5007 35.0998 55.3153C35.159 55.1291 35.0406 55.2313 35.0998 55.0459C35.159 54.8597 35.0406 54.962 35.0998 54.7765C35.1224 54.7003 35.1224 54.6418 35.0998 54.6418C35.0434 54.6467 35.1562 54.3668 35.0998 54.3724C35.0434 54.3773 35.1562 54.0974 35.0998 54.103C35.0772 54.103 35.0772 54.0445 35.0998 53.9683C35.159 53.7821 35.0406 53.8844 35.0998 53.6989C35.1224 53.6228 35.1224 53.5642 35.0998 53.5642C35.0434 53.5692 35.1562 53.2892 35.0998 53.2948C35.0434 53.2998 35.1562 53.0198 35.0998 53.0254C35.0434 53.0304 35.1562 52.7504 35.0998 52.7561C35.0772 52.7561 35.0772 52.6975 35.0998 52.6214C35.159 52.4352 35.0406 52.5374 35.0998 52.352C35.1224 52.2758 35.1224 52.2173 35.0998 52.2173C35.0434 52.2222 35.1562 51.9422 35.0998 51.9479C35.0434 51.9535 35.1562 51.6728 35.0998 51.6785C35.0434 51.6841 35.1562 51.4035 35.0998 51.4091C35.0772 51.4091 35.0772 51.3506 35.0998 51.2744C35.159 51.0889 35.0406 51.1905 35.0998 51.005C35.159 50.8195 35.0406 50.9211 35.0998 50.7356C35.1224 50.6595 35.1224 50.6009 35.0998 50.6009C35.0434 50.6066 35.1562 50.3259 35.0998 50.3315C35.0434 50.3372 35.1562 50.0565 35.0998 50.0621C35.0434 50.0678 35.1562 49.7871 35.0998 49.7928C35.0434 49.7984 35.1562 49.5177 35.0998 49.5234C35.0772 49.5234 35.0772 49.4648 35.0998 49.3887C35.159 49.2032 35.0406 49.3047 35.0998 49.1193C35.1224 49.0431 35.1224 48.9846 35.0998 48.9846C35.0434 48.9902 35.1562 48.7088 35.0998 48.7152C35.0434 48.7208 35.1562 48.4394 35.0998 48.4458C35.0772 48.4458 35.0772 48.3873 35.0998 48.3111C35.159 48.1256 35.0406 48.2272 35.0998 48.0417C35.0822 47.1524 35.1301 46.1644 35.0906 45.2124C35.1012 45.058 35.0956 44.9719 35.0998 44.8083C35.159 44.6228 35.0406 44.7237 35.0998 44.5389C35.159 44.3534 35.0406 44.4543 35.0998 44.2695C35.1224 44.1934 35.1224 44.1348 35.0998 44.1348C35.0434 44.1412 35.1562 43.8591 35.0998 43.8654C35.0434 43.8718 35.1562 43.5897 35.0998 43.5961C35.0434 43.6024 35.1562 43.3203 35.0998 43.3267C35.0772 43.3267 35.0772 43.2681 35.0998 43.192C35.159 43.0065 35.0406 43.1073 35.0998 42.9226C35.159 42.7371 35.0406 42.8379 35.0998 42.6532C35.159 42.4677 35.0406 42.5686 35.0998 42.3838C35.1224 42.3076 35.1224 42.2491 35.0998 42.2491C35.0434 42.2554 35.1562 41.9734 35.0998 41.9797C35.0434 41.9861 35.1562 41.704 35.0998 41.7103C35.0434 41.7167 35.1562 41.4346 35.0998 41.4409C35.0772 41.4409 35.0772 41.3824 35.0998 41.3062C35.159 41.1215 35.0406 41.2216 35.0998 41.0368C35.1224 40.9607 35.1224 40.9021 35.0998 40.9021C35.0434 40.9085 35.1562 40.6264 35.0998 40.6327C35.061 40.5206 35.1386 40.2054 35.0998 40.094C35.097 38.3267 35.1026 36.6081 35.0998 34.7985C35.085 34.087 35.1252 33.4156 35.0864 32.7104C35.8128 32.1505 38.6505 30.7852 38.7958 30.5278C42.2859 27.9982 43.9699 23.207 42.6089 18.9856C41.2401 15.4983 41.532 16.2973 37.9742 12.4779C36.1731 10.6154 34.6245 8.97155 32.8318 7.10626C31.4609 6.0026 31.0434 4.4194 32.7014 3.54423C34.6604 2.68387 36.6915 6.48497 38.3332 7.8016C38.7182 7.97579 46.862 17.3981 45.4876 14.7141C43.7499 11.7818 42.2189 9.35095 40.4439 6.36931C38.7246 3.59853 36.7726 -0.429637 32.8135 0.0372137ZM31.5018 24.0426C31.5082 26.1033 31.5124 28.1251 31.5018 30.2224C31.3594 31.0849 29.884 31.288 29.2247 31.7901C26.882 33.0214 24.7825 34.0947 22.492 35.2661C21.0661 36.1617 22.186 34.9226 22.3975 34.3274C23.0505 33.0256 24.4518 30.8867 25.3079 29.8007C25.5879 29.1808 32.023 22.2063 31.5011 24.0426H31.5018Z" fill="#C72C48"/>
</svg>
