<svg width="30" height="30" viewBox="0 0 30 30" fill="none" xmlns="http://www.w3.org/2000/svg">
<path fill-rule="evenodd" clip-rule="evenodd" d="M7.33972 19.8236H5.14149V19.1333C4.9315 19.3969 4.71927 19.589 4.50481 19.7097C4.1295 19.9197 3.70282 20.0247 3.22474 20.0247C2.45178 20.0247 1.76373 19.7588 1.16055 19.2271C0.441209 18.5927 0.081543 17.7527 0.081543 16.7072C0.081543 15.6438 0.450145 14.7949 1.18736 14.1605C1.77266 13.6556 2.44508 13.4032 3.20464 13.4032C3.64697 13.4032 4.06248 13.497 4.45119 13.6846C4.67459 13.7919 4.90469 13.9684 5.14149 14.2141V9.75732H7.33972V19.8236ZM5.20851 16.7139C5.20851 16.3207 5.07001 15.9868 4.79299 15.712C4.51598 15.4372 4.18089 15.2998 3.7877 15.2998C3.34984 15.2998 2.99018 15.4651 2.7087 15.7958C2.48083 16.0638 2.3669 16.3699 2.3669 16.7139C2.3669 17.058 2.48083 17.364 2.7087 17.6321C2.98571 17.9627 3.34538 18.128 3.7877 18.128C4.18535 18.128 4.52156 17.9918 4.79634 17.7192C5.07112 17.4467 5.20851 17.1116 5.20851 16.7139ZM15.5843 19.8236H13.386V19.1333C13.176 19.3969 12.9638 19.589 12.7494 19.7097C12.3741 19.9197 11.9474 20.0247 11.4693 20.0247C10.6963 20.0247 10.0083 19.7588 9.4051 19.2271C8.68576 18.5927 8.32609 17.7527 8.32609 16.7072C8.32609 15.6438 8.6947 14.7949 9.43191 14.1605C10.0172 13.6556 10.6896 13.4032 11.4492 13.4032C11.8915 13.4032 12.307 13.497 12.6957 13.6846C12.9191 13.7919 13.1492 13.9684 13.386 14.2141V13.6042H15.5843V19.8236ZM13.4531 16.7139C13.4531 16.3207 13.3146 15.9868 13.0375 15.712C12.7605 15.4372 12.4254 15.2998 12.0323 15.2998C11.5944 15.2998 11.2347 15.4651 10.9532 15.7958C10.7254 16.0638 10.6114 16.3699 10.6114 16.7139C10.6114 17.058 10.7254 17.364 10.9532 17.6321C11.2303 17.9627 11.5899 18.128 12.0323 18.128C12.4299 18.128 12.7661 17.9918 13.0409 17.7192C13.3157 17.4467 13.4531 17.1116 13.4531 16.7139ZM24.0768 16.7206C24.0768 17.784 23.7082 18.6329 22.971 19.2673C22.3857 19.7722 21.7133 20.0247 20.9537 20.0247C20.5114 20.0247 20.0959 19.9308 19.7071 19.7432C19.4837 19.636 19.2536 19.4595 19.0168 19.2137V22.9333H16.8186V13.6042H19.0168V14.2945C19.2134 14.0354 19.4257 13.8433 19.6535 13.7182C20.0288 13.5082 20.4555 13.4032 20.9336 13.4032C21.7066 13.4032 22.3946 13.669 22.9978 14.2007C23.7171 14.8351 24.0768 15.6751 24.0768 16.7206ZM21.7914 16.7139C21.7914 16.3609 21.6797 16.0549 21.4563 15.7958C21.1749 15.4651 20.813 15.2998 20.3706 15.2998C19.973 15.2998 19.6368 15.4361 19.362 15.7086C19.0872 15.9812 18.9498 16.3163 18.9498 16.7139C18.9498 17.1071 19.0883 17.4411 19.3653 17.7159C19.6424 17.9906 19.9775 18.128 20.3706 18.128C20.813 18.128 21.1726 17.9627 21.4496 17.6321C21.6775 17.364 21.7914 17.058 21.7914 16.7139ZM29.7277 15.6349C29.4194 15.4875 29.1067 15.4137 28.7894 15.4137C28.0656 15.4137 27.5965 15.7086 27.382 16.2984C27.3016 16.5129 27.2614 16.801 27.2614 17.1629V19.8236H25.0632V13.6042H27.2614V14.6229C27.4937 14.261 27.7439 13.9996 28.012 13.8388C28.3739 13.6243 28.8028 13.5171 29.2988 13.5171C29.4149 13.5171 29.5579 13.5238 29.7277 13.5372V15.6349Z" fill="#0D2192"/>
<path d="M16.8015 19.8689H19.0148L19.2054 25.0655L17.9081 25.9745L16.6108 25.0655L16.8015 19.8689Z" fill="#0D2192"/>
<path d="M20.0723 4.19177H12.0024C11.9121 4.19177 11.8389 4.26497 11.8389 4.35526V9.93789C11.8389 10.0282 11.9121 10.1014 12.0024 10.1014H20.0723C20.1626 10.1014 20.2358 10.0282 20.2358 9.93789V4.35526C20.2358 4.26497 20.1626 4.19177 20.0723 4.19177Z" fill="#0D2192"/>
<path opacity="0.08" d="M14.9449 4.19177H11.8389V10.1014H14.9449V4.19177Z" fill="white"/>
<path d="M22.4727 9.72009H9.49111C9.32316 9.72009 9.18701 9.85624 9.18701 10.0242V10.8344C9.18701 11.0023 9.32316 11.1385 9.49111 11.1385H22.4727C22.6407 11.1385 22.7768 11.0023 22.7768 10.8344V10.0242C22.7768 9.85624 22.6407 9.72009 22.4727 9.72009Z" fill="#0D2192"/>
<path opacity="0.08" d="M13.3917 9.72009H9.18701V11.4658H13.3917V9.72009Z" fill="white"/>
</svg>
