<svg width="60" height="60" viewBox="0 0 60 60" fill="none" xmlns="http://www.w3.org/2000/svg">
<path d="M32.6859 49.2295C33.8579 48.7411 35.0299 48.2854 36.267 47.8621C36.8204 47.6668 37.4064 47.4715 37.9599 47.3087C38.4157 47.1785 38.8714 47.0483 39.3272 46.918C46.229 44.9973 53.2285 44.4764 60 45.2251V38.1606C52.5122 37.4118 44.7966 38.0629 37.146 40.2116C36.6902 40.3418 36.2344 40.472 35.7786 40.6022C35.1926 40.7976 34.5741 40.9929 33.9881 41.1882C32.8161 41.5789 31.6441 42.0347 30.5046 42.4905L32.6859 49.1969V49.2295Z" fill="#07C846"/>
<path d="M59.9675 15.2741V36.4027C52.1867 35.6539 44.178 36.3376 36.2996 38.6491C35.3229 38.9421 34.3788 39.2351 33.4021 39.5606C32.2301 39.9513 31.0581 40.3419 29.9187 40.6675C19.9566 43.5975 9.86439 44.6393 0.0325928 43.9231V22.7945C7.71572 23.5432 15.6267 22.8596 23.4075 20.6458C24.4819 20.3528 25.5236 19.9947 26.598 19.6366C27.6723 19.2785 28.7466 18.9203 29.7884 18.5948C39.8481 15.5997 50.038 14.5579 59.9675 15.2416V15.2741Z" fill="#0181FD"/>
<path d="M27.3142 10C26.1422 10.4883 24.9702 10.9441 23.733 11.3673C23.1796 11.5627 22.5936 11.758 22.0402 11.9208C21.5844 12.051 21.1286 12.1812 20.6728 12.3114C13.771 14.2322 6.77157 14.7531 0 14.0043V21.0689C7.48779 21.8177 15.2035 21.1666 22.854 19.0179C23.3098 18.8877 23.7656 18.7575 24.2214 18.6272C24.8074 18.4319 25.4259 18.2366 26.0119 18.0412C27.1839 17.6506 28.3559 17.1948 29.4954 16.739L27.3142 10.0326V10Z" fill="#FFA005"/>
</svg>
