<svg width="60" height="60" viewBox="0 0 60 60" fill="none" xmlns="http://www.w3.org/2000/svg">
<g clip-path="url(#clip0_883_10256)">
<path d="M16.8803 0.0168578C16.3204 0.107302 15.6485 0.400166 15.1748 0.761945C13.7406 1.85158 12.6294 4.16437 12.16 7.04564C11.9834 8.13527 11.8628 9.647 11.8628 10.8013C11.8628 12.1622 12.0221 13.9022 12.2504 15.1038C12.3021 15.3708 12.3279 15.6077 12.3064 15.6249C12.2892 15.6422 12.0781 15.8144 11.8413 16.0039C11.0316 16.6499 10.1056 17.6448 9.46818 18.5536C8.24503 20.2893 7.45257 22.2618 7.12094 24.398C6.99173 25.2422 6.95728 26.9477 7.06064 27.7918C7.2889 29.7385 7.87464 31.3837 8.87813 32.8912L9.20546 33.3778L9.11071 33.5372C8.43883 34.6656 7.86602 36.2979 7.599 37.8656C7.38796 39.1059 7.36212 39.4376 7.36212 41.1C7.36212 42.7754 7.38366 43.107 7.58177 44.2656C7.81865 45.6524 8.30102 47.121 8.83937 48.0987C9.01596 48.4174 9.44664 49.0806 9.49833 49.1151C9.51555 49.1237 9.46387 49.283 9.38204 49.4682C8.76185 50.8249 8.23211 52.6295 8.01245 54.1499C7.85741 55.1921 7.83588 55.528 7.83588 56.6263C7.83588 58.026 7.9134 58.7065 8.20627 59.822L8.24933 59.9856H10.0927H11.9403L11.8197 59.7573C11.0746 58.3792 11.0057 55.8209 11.6474 53.2669C11.9403 52.0868 12.2719 51.2212 12.8921 50.0281L13.2625 49.3046V48.861C13.2625 48.4475 13.2539 48.4002 13.1204 48.1289C13.017 47.9221 12.8792 47.7455 12.6337 47.5043C12.216 47.0995 11.9145 46.6731 11.6733 46.1477C10.6138 43.8478 10.4071 40.4325 11.1522 37.521C11.4623 36.3065 11.9748 35.2255 12.5131 34.6355C12.8792 34.2306 13.0687 33.7784 13.0687 33.3089C13.0687 32.8222 12.8964 32.4217 12.5088 32.004C11.3976 30.8153 10.7129 29.3681 10.4674 27.6842C10.1185 25.2852 10.7516 22.6709 12.1901 20.5994C13.5985 18.5665 15.5753 17.2615 17.7848 16.9127C18.28 16.8308 19.206 16.8438 19.7228 16.9385C20.287 17.0376 20.6402 17.0074 21.002 16.8351C21.4499 16.6241 21.6739 16.3614 21.9366 15.7584C22.1691 15.2201 22.35 14.9272 22.8367 14.32C23.4224 13.5921 23.9866 13.0968 24.891 12.4981C25.9247 11.822 27.1005 11.331 28.272 11.0941C28.6983 11.008 28.8964 10.995 29.6932 10.995C30.49 10.995 30.6881 11.008 31.1145 11.0941C32.8329 11.443 34.5385 12.3302 35.8994 13.5878C36.1922 13.8591 36.8943 14.7291 37.1182 15.0909C37.2044 15.233 37.3552 15.5345 37.4499 15.7584C37.7126 16.3614 37.9365 16.6241 38.3844 16.8351C38.7333 17.0031 39.0994 17.0376 39.642 16.9471C40.4991 16.8007 41.1581 16.8136 41.9979 16.9859C44.8577 17.563 47.347 19.9189 48.4496 23.0758C49.41 25.8451 49.1387 28.7437 47.7088 30.9573C47.4676 31.3321 47.2264 31.6336 46.8776 32.004C46.1239 32.8093 46.1239 33.8085 46.8733 34.6355C48.1051 35.9835 48.876 39.2998 48.6434 42.2241C48.4884 44.1536 47.9931 45.8807 47.3126 46.8583C47.192 47.0306 46.9422 47.3234 46.7527 47.5043C46.5072 47.7455 46.3694 47.9221 46.266 48.1289C46.1325 48.4002 46.1239 48.4475 46.1239 48.861V49.3046L46.4943 50.0281C47.1145 51.2212 47.4461 52.0868 47.7389 53.2669C48.3721 55.7864 48.3161 58.293 47.5925 59.7186C47.5323 59.8392 47.4805 59.9512 47.4805 59.9641C47.4805 59.977 48.3032 59.9856 49.311 59.9856H51.1371L51.1845 59.8004C51.2103 59.7014 51.2534 59.5506 51.2749 59.4645C51.3223 59.275 51.417 58.7151 51.4946 58.1767C51.5678 57.6341 51.5678 55.6357 51.4946 55.0327C51.2189 52.8448 50.7581 51.1092 50.0044 49.4682C49.9226 49.283 49.8708 49.1237 49.8881 49.1151C49.9096 49.1022 50.0302 48.9299 50.1594 48.7361C51.0983 47.3148 51.6754 45.5275 51.9683 43.1673C52.0458 42.517 52.0458 39.7218 51.9683 39.0973C51.7615 37.4866 51.5118 36.3926 51.0983 35.2858C50.926 34.8249 50.4695 33.8516 50.2757 33.5372L50.181 33.3778L50.5083 32.8912C51.5118 31.3837 52.0975 29.7385 52.3258 27.7918C52.4291 26.9477 52.3947 25.2422 52.2655 24.398C51.9295 22.2575 51.1414 20.2936 49.9183 18.5536C49.2808 17.6448 48.3548 16.6499 47.5452 16.0039C47.3083 15.8144 47.0972 15.6422 47.08 15.6249C47.0585 15.6077 47.0844 15.3708 47.136 15.1038C47.6572 12.3861 47.6399 8.9967 47.0929 6.34795C46.6192 4.03947 45.7578 2.20474 44.6466 1.14526C43.7594 0.30111 42.855 -0.0606669 41.7696 0.00824291C39.2803 0.154676 37.2733 3.01874 36.4808 7.53232C36.3516 8.26019 36.2397 9.11298 36.2397 9.34553C36.2397 9.43595 36.2224 9.50916 36.2009 9.50916C36.1793 9.50916 36.0114 9.42302 35.8305 9.31539C33.9096 8.17834 31.7734 7.5711 29.6932 7.5711C27.613 7.5711 25.4768 8.17834 23.5559 9.31539C23.375 9.42302 23.2071 9.50916 23.1855 9.50916C23.164 9.50916 23.1467 9.43595 23.1467 9.34553C23.1467 9.10433 23.0305 8.22576 22.9056 7.53232C22.1863 3.47957 20.5368 0.796399 18.3446 0.12022C18.0432 0.0297761 17.1861 -0.0305176 16.8803 0.0168578ZM17.6125 3.52265C18.2326 4.01363 18.9217 5.41766 19.318 6.98967C19.3912 7.27391 19.4687 7.60124 19.4903 7.7218C19.5075 7.83815 19.5548 8.10084 19.5936 8.30326C19.7616 9.21632 19.8391 10.2026 19.8477 11.4042L19.852 12.5886L19.5548 13.0279L19.2577 13.4715H18.5643C17.7546 13.4715 16.9492 13.5749 16.1782 13.7816C15.9026 13.8505 15.6356 13.9194 15.5839 13.9324C15.5021 13.9496 15.4892 13.9237 15.4418 13.5705C15.1877 11.654 15.2006 9.53073 15.4806 7.76487C15.7906 5.79667 16.5142 4.01363 17.2205 3.48819C17.3885 3.36329 17.4186 3.3676 17.6125 3.52265ZM42.1702 3.49249C42.5966 3.8069 43.066 4.64243 43.4149 5.71053C44.1169 7.84672 44.315 10.7797 43.9446 13.5705C43.8973 13.9237 43.8843 13.9496 43.8025 13.9324C43.7508 13.9194 43.4838 13.8505 43.2082 13.7816C42.4372 13.5749 41.6318 13.4715 40.8222 13.4715H40.1287L39.8316 13.0279L39.5344 12.5886L39.5387 11.4042C39.5473 9.73314 39.7024 8.42817 40.0727 6.97675C40.4647 5.41766 41.1581 4.01363 41.7739 3.52265C41.9678 3.3676 41.9979 3.36329 42.1702 3.49249Z" fill="black"/>
<path d="M29.0256 25.1689C28.0909 25.2594 27.8369 25.2938 27.3889 25.3843C26.6611 25.535 25.6877 25.871 25.0115 26.2026C22.66 27.3525 21.0407 29.269 20.5453 31.4871C20.4463 31.9264 20.4333 32.0728 20.4333 32.8136C20.4333 33.5458 20.4463 33.7051 20.5411 34.1229C21.2 37.0214 23.8702 39.1619 27.3244 39.5538C28.0737 39.6357 31.3125 39.6357 32.0619 39.5538C34.8355 39.2394 37.2215 37.7363 38.294 35.6259C38.5782 35.0618 38.716 34.6957 38.8452 34.1229C38.94 33.7051 38.9529 33.5458 38.9529 32.8136C38.9529 32.0728 38.94 31.9264 38.8409 31.4871C38.1216 28.2656 34.9949 25.7288 31.1618 25.2464C30.6622 25.1862 29.3529 25.1345 29.0256 25.1689ZM30.6363 27.5118C31.9155 27.6497 33.2032 28.1062 34.2369 28.7953C34.7925 29.1657 35.5763 29.9409 35.9122 30.4492C36.3257 31.0779 36.5625 31.7196 36.6702 32.4992C36.7176 32.8567 36.6918 33.128 36.5625 33.7051C36.3601 34.5665 35.7313 35.4666 34.8829 36.0954C34.4866 36.384 33.6641 36.8018 33.1602 36.9654C32.204 37.2712 31.5795 37.3272 29.3485 37.31C27.8929 37.297 27.6344 37.2841 27.2167 37.2066C25.7911 36.9396 24.6627 36.371 23.8444 35.5054C23.1811 34.8077 22.8796 34.1703 22.716 33.1409C22.6428 32.6628 22.7806 31.8704 23.0606 31.2028C23.4008 30.3888 24.2794 29.3767 25.1494 28.7953C26.1572 28.1234 27.4837 27.6454 28.7025 27.5162C29.172 27.4645 30.1668 27.4645 30.6363 27.5118Z" fill="black"/>
<path d="M28.0481 30.6559C27.7207 30.8325 27.4925 31.2804 27.5614 31.612C27.6389 31.9695 27.9533 32.3313 28.4442 32.6285C28.707 32.7878 28.7242 32.8093 28.7371 32.9687C28.7457 33.0634 28.7113 33.3348 28.6639 33.576C28.6122 33.8128 28.5734 34.0627 28.5734 34.1316C28.5778 34.3168 28.7501 34.6182 28.9309 34.7647C29.0903 34.8939 29.1205 34.8982 29.5684 34.9111C29.9775 34.924 30.0637 34.9154 30.2273 34.8379C30.6494 34.6311 30.7571 34.2521 30.602 33.5243C30.4728 32.917 30.4986 32.8223 30.8217 32.6371C31.1619 32.4389 31.5237 32.0901 31.6313 31.8532C31.8381 31.401 31.6486 30.8885 31.192 30.6516C31.0801 30.5956 30.9423 30.5698 30.7398 30.5698C30.4254 30.5698 30.223 30.643 29.8526 30.8798L29.6416 31.0134L29.5081 30.9316C28.9611 30.6085 28.8621 30.5698 28.5304 30.5741C28.2935 30.5741 28.1643 30.5956 28.0481 30.6559Z" fill="black"/>
<path d="M17.591 25.6556C16.8287 25.8968 16.2601 26.4567 15.9673 27.2535C15.8252 27.6325 15.7563 28.2312 15.8165 28.5542C15.9587 29.3251 16.5918 30.0271 17.3111 30.221C18.2155 30.4578 18.8916 30.3027 19.4903 29.7084C19.8391 29.3682 20.0287 29.071 20.2182 28.5886C20.356 28.2484 20.3646 28.1881 20.3646 27.7057L20.3689 27.1889L20.188 26.8185C19.8994 26.2328 19.3783 25.7978 18.7754 25.6384C18.4351 25.5523 17.8882 25.5566 17.591 25.6556Z" fill="black"/>
<path d="M40.5939 25.6428C40.0039 25.8021 39.4784 26.2414 39.1984 26.8185L39.0176 27.1889L39.0219 27.7057C39.0219 28.1881 39.0305 28.2484 39.1683 28.5886C39.3578 29.071 39.5473 29.3682 39.8961 29.7084C40.4948 30.3027 41.171 30.4578 42.0755 30.221C42.5966 30.0831 43.1177 29.6438 43.3675 29.1313C43.5828 28.6963 43.6345 28.3819 43.5656 27.8866C43.4063 26.7539 42.743 25.9313 41.7567 25.6428C41.4682 25.5566 40.9083 25.5566 40.5939 25.6428Z" fill="black"/>
</g>
<defs>
<clipPath id="clip0_883_10256">
<rect width="45.3864" height="60" fill="white" transform="translate(7)"/>
</clipPath>
</defs>
</svg>
