<svg width="60" height="60" viewBox="0 0 60 60" fill="none" xmlns="http://www.w3.org/2000/svg">
<g clip-path="url(#clip0_883_10236)">
<path d="M47.9292 0H12.0709C5.40431 0 0 5.4043 0 12.0709V47.9292C0 54.5958 5.40431 60 12.0709 60H47.9292C54.5957 60 59.9999 54.5958 59.9999 47.9292V12.0709C59.9999 5.4043 54.5957 0 47.9292 0Z" fill="black"/>
<path d="M35.6614 14.8943C35.662 15.6387 35.959 16.3524 36.4873 16.8788C37.0154 17.4052 37.7314 17.7012 38.4782 17.7019C39.2252 17.7012 39.9412 17.4052 40.4693 16.8788C40.9973 16.3524 41.2943 15.6387 41.2952 14.8943C41.2943 14.1499 40.9973 13.4362 40.4693 12.9099C39.9412 12.3835 39.2252 12.0875 38.4782 12.0868C37.7314 12.0875 37.0154 12.3835 36.4873 12.9099C35.959 13.4362 35.662 14.1499 35.6614 14.8943Z" fill="white"/>
<path d="M18.7048 45.0882C18.7055 45.8324 19.0026 46.5462 19.5307 47.0725C20.0588 47.5989 20.7748 47.895 21.5217 47.8956C22.2686 47.895 22.9847 47.5989 23.5127 47.0725C24.0408 46.5462 24.3378 45.8324 24.3386 45.0882C24.3378 44.3438 24.0408 43.6299 23.5127 43.1036C22.9847 42.5773 22.2686 42.2811 21.5217 42.2805C20.7748 42.2811 20.0588 42.5773 19.5307 43.1036C19.0026 43.6299 18.7055 44.3438 18.7048 45.0882Z" fill="white"/>
<path d="M35.4534 29.9912C35.454 30.7356 35.751 31.4493 36.2791 31.9756C36.8074 32.5019 37.5234 32.798 38.2702 32.7987C39.017 32.798 39.7332 32.5019 40.2613 31.9756C40.7893 31.4493 41.0863 30.7356 41.087 29.9912C41.0863 29.2468 40.7893 28.5332 40.2613 28.0068C39.7332 27.4803 39.017 27.1844 38.2702 27.1837C37.5234 27.1844 36.8074 27.4803 36.2791 28.0068C35.751 28.5332 35.454 29.2468 35.4534 29.9912Z" fill="white"/>
<path d="M10.0118 29.9912C10.0126 30.7356 10.3096 31.4493 10.8377 31.9756C11.3658 32.5019 12.0819 32.798 12.8287 32.7987C13.5756 32.798 14.2917 32.5019 14.8198 31.9756C15.3479 31.4493 15.6449 30.7356 15.6456 29.9912C15.6449 29.2468 15.3479 28.5332 14.8198 28.0068C14.2917 27.4803 13.5756 27.1844 12.8287 27.1837C12.0819 27.1844 11.3658 27.4803 10.8377 28.0068C10.3096 28.5332 10.0126 29.2468 10.0118 29.9912Z" fill="white"/>
<path d="M23.8657 16.4708C23.9821 16.2872 24.1417 16.1348 24.3307 16.027C24.5197 15.9191 24.7326 15.859 24.9503 15.852H26.6012C26.8191 15.8585 27.032 15.9184 27.221 16.0263C27.4102 16.1343 27.5698 16.2869 27.6858 16.4708C27.9442 16.8473 28.2908 17.1554 28.6957 17.3682C29.1007 17.5811 29.5516 17.6922 30.0092 17.6921C30.4282 17.6929 30.8418 17.6001 31.2199 17.4205C31.5981 17.2409 31.9311 16.9792 32.1945 16.6545C32.4613 16.3267 32.6508 15.9432 32.7488 15.5326C32.847 15.1219 32.8511 14.6945 32.7609 14.282C32.6469 13.7446 32.3762 13.2527 31.9825 12.8681C31.5888 12.4835 31.09 12.2233 30.5487 12.1202C29.9953 12.0137 29.4226 12.0747 28.904 12.2952C28.3857 12.5158 27.9455 12.8859 27.6396 13.3578C27.5182 13.5306 27.3554 13.6705 27.1661 13.7649C26.9767 13.8592 26.7668 13.9051 26.5553 13.8983H24.98C24.7686 13.9039 24.5592 13.8575 24.37 13.7632C24.1809 13.669 24.0179 13.5297 23.8956 13.3578C23.5867 12.891 23.1454 12.5265 22.6277 12.3109C22.1101 12.0952 21.5395 12.0383 20.9893 12.1473C20.4482 12.251 19.9497 12.5114 19.5563 12.8959C19.1628 13.2803 18.8917 13.7719 18.7769 14.309C18.6883 14.7216 18.6931 15.1487 18.7912 15.5591C18.8892 15.9696 19.0779 16.353 19.3436 16.6815C19.6077 17.006 19.9412 17.2675 20.3197 17.447C20.6983 17.6266 21.1123 17.7195 21.5315 17.7192C21.9934 17.718 22.448 17.6036 22.8551 17.3859C23.2622 17.1681 23.6095 16.8538 23.8657 16.4708Z" fill="url(#paint0_linear_883_10236)"/>
<path d="M28.105 24.0366C28.2214 23.8532 28.3809 23.7008 28.57 23.5929C28.759 23.4849 28.9716 23.4249 29.1895 23.4179H30.8405C31.0583 23.4244 31.2712 23.4842 31.4602 23.5922C31.6495 23.7002 31.809 23.8528 31.925 24.0366C32.1834 24.4131 32.53 24.7214 32.935 24.934C33.3399 25.1469 33.7908 25.2581 34.2484 25.2581C34.6672 25.2588 35.0811 25.166 35.4591 24.9865C35.8374 24.8068 36.1704 24.5451 36.4337 24.2204C36.7006 23.8927 36.8901 23.5092 36.988 23.0984C37.0862 22.6878 37.0904 22.2603 37.0002 21.8478C36.8862 21.3105 36.6154 20.8186 36.2217 20.434C35.8281 20.0494 35.3293 19.7892 34.788 19.6862C34.2345 19.5796 33.6618 19.6406 33.1433 19.8612C32.625 20.0817 32.1847 20.4518 31.8788 20.9238C31.7574 21.0965 31.5946 21.2364 31.4054 21.3308C31.2159 21.4251 31.0061 21.471 30.7945 21.4642H29.2192C29.0079 21.4698 28.7984 21.4234 28.6092 21.3291C28.4202 21.2349 28.2572 21.0957 28.1349 20.9238C27.826 20.4569 27.3846 20.0924 26.867 19.8768C26.3493 19.6611 25.7787 19.6042 25.2286 19.7132C24.6875 19.8169 24.1889 20.0773 23.7955 20.4618C23.402 20.8463 23.131 21.3378 23.0161 21.8749C22.9275 22.2874 22.9325 22.7145 23.0305 23.125C23.1284 23.5354 23.3173 23.9189 23.5828 24.2475C23.8471 24.5718 24.1805 24.8335 24.5589 25.013C24.9374 25.1924 25.3515 25.2854 25.7707 25.285C26.2327 25.2839 26.6873 25.1695 27.0944 24.9518C27.5015 24.734 27.8485 24.4199 28.105 24.0366Z" fill="url(#paint1_linear_883_10236)"/>
<path d="M20.0826 38.6898C19.8936 38.7977 19.7339 38.9499 19.6176 39.1335C19.3612 39.5166 19.0142 39.8309 18.6071 40.0488C18.1999 40.2664 17.7453 40.3809 17.2833 40.382C16.8641 40.3824 16.4501 40.2894 16.0716 40.1099C15.693 39.9304 15.3595 39.6688 15.0954 39.3445C14.8298 39.0158 14.641 38.6323 14.543 38.222C14.445 37.8114 14.4401 37.3844 14.5288 36.9718C14.6436 36.4347 14.9146 35.9432 15.3081 35.5587C15.7016 35.1741 16.2 34.9138 16.7411 34.8101C17.2914 34.7011 17.8618 34.7581 18.3795 34.9736C18.8971 35.1893 19.3386 35.5539 19.6474 36.0206C19.7698 36.1925 19.9327 36.3317 20.1218 36.426C20.311 36.5203 20.5205 36.5667 20.7319 36.5611H22.307C22.5186 36.568 22.7287 36.522 22.9179 36.4277C23.1072 36.3334 23.27 36.1934 23.3916 36.0206C23.6972 35.5487 24.1375 35.1787 24.656 34.958C25.1743 34.7375 25.7471 34.6766 26.3005 34.783C26.842 34.8862 27.3408 35.1464 27.7343 35.5309C27.9027 35.6955 28.0486 35.8795 28.1693 36.0785C28.2857 36.224 28.4327 36.3425 28.6001 36.426C28.7893 36.5203 28.9987 36.5667 29.2101 36.5611H30.7854C30.997 36.568 31.2068 36.522 31.3963 36.4277C31.5855 36.3334 31.7483 36.1934 31.8697 36.0206C32.1756 35.5487 32.6158 35.1787 33.1342 34.958C33.6527 34.7375 34.2254 34.6766 34.7788 34.783C35.3201 34.8862 35.8189 35.1464 36.2126 35.5309C36.6063 35.9155 36.877 36.4074 36.991 36.9447C37.0812 37.3573 37.0771 37.7848 36.9789 38.1953C36.8809 38.6061 36.6915 38.9896 36.4246 39.3174C36.1612 39.6421 35.8283 39.9037 35.45 40.0832C35.0719 40.2629 34.6583 40.3557 34.2393 40.3551C33.7817 40.3551 33.3308 40.2439 32.9258 40.031C32.5209 39.8181 32.1743 39.5101 31.9159 39.1335C31.7999 38.9497 31.6403 38.7971 31.4511 38.6891C31.2621 38.5812 31.0492 38.5214 30.8313 38.5149H29.1804C28.9627 38.5218 28.7499 38.5818 28.5608 38.6898C28.3718 38.7977 28.2122 38.9499 28.0958 39.1335C27.8396 39.5166 27.4923 39.8309 27.0852 40.0488C26.6781 40.2664 26.2235 40.3809 25.7616 40.382C25.3423 40.3824 24.9283 40.2894 24.5498 40.1099C24.1713 39.9304 23.8379 39.6688 23.5737 39.3445C23.4796 39.2281 23.3953 39.1049 23.3211 38.9759C23.2227 38.8617 23.105 38.7646 22.973 38.6891C22.7837 38.5812 22.5709 38.5214 22.3532 38.5149H20.702C20.4843 38.5218 20.2717 38.5818 20.0826 38.6898Z" fill="url(#paint2_linear_883_10236)"/>
<path d="M32.8091 46.2384C32.62 46.3461 32.4603 46.4985 32.3441 46.6821C32.0876 47.0652 31.7406 47.3795 31.3335 47.5971C30.9264 47.815 30.4718 47.9295 30.0098 47.9305C29.5906 47.931 29.1766 47.838 28.7981 47.6585C28.4196 47.4788 28.086 47.2173 27.8219 46.8928C27.5562 46.5644 27.3676 46.1809 27.2694 45.7704C27.1714 45.36 27.1666 44.933 27.2553 44.5204C27.3699 43.9833 27.6411 43.4916 28.0346 43.1073C28.428 42.7227 28.9264 42.4624 29.4675 42.3587C30.0179 42.2497 30.5882 42.3065 31.1059 42.5222C31.6235 42.7379 32.0651 43.1023 32.3738 43.5692C32.4963 43.7411 32.6591 43.8803 32.8483 43.9746C33.0373 44.0689 33.247 44.1153 33.4583 44.1096H35.0334C35.245 44.1164 35.455 44.0706 35.6443 43.9763C35.8338 43.8818 35.9966 43.742 36.1179 43.5692C36.4236 43.0973 36.8641 42.727 37.3824 42.5066C37.9007 42.2861 38.4737 42.2252 39.0271 42.3316C39.5684 42.4346 40.0672 42.6947 40.4608 43.0795C40.8543 43.4641 41.1253 43.9559 41.2393 44.4933C41.3293 44.9059 41.3251 45.3333 41.2272 45.7439C41.129 46.1547 40.9395 46.538 40.6726 46.8659C40.4095 47.1905 40.0763 47.4523 39.6982 47.6318C39.3202 47.8115 38.9063 47.9043 38.4875 47.9034C38.0297 47.9037 37.5788 47.7924 37.1741 47.5796C36.7691 47.3667 36.4225 47.0587 36.1641 46.6821C36.0481 46.4983 35.8886 46.3457 35.6994 46.2377C35.5103 46.1298 35.2975 46.0699 35.0796 46.0632H33.4284C33.2108 46.0704 32.9981 46.1304 32.8091 46.2384Z" fill="url(#paint3_linear_883_10236)"/>
<path d="M44.3542 29.9912C44.3549 30.7354 44.6519 31.4493 45.1799 31.9756C45.708 32.5019 46.4242 32.798 47.171 32.7987C47.9178 32.798 48.6341 32.5019 49.1621 31.9756C49.6902 31.4493 49.9872 30.7354 49.9878 29.9912C49.9872 29.2468 49.6902 28.533 49.1621 28.0066C48.6341 27.4803 47.9178 27.1842 47.171 27.1835C46.4242 27.1842 45.708 27.4803 45.1799 28.0066C44.6519 28.533 44.3549 29.2468 44.3542 29.9912Z" fill="url(#paint4_linear_883_10236)"/>
<path d="M19.3229 31.9756C18.7948 31.4493 18.4978 30.7354 18.4971 29.9912C18.4978 29.2468 18.7948 28.533 19.3229 28.0066C19.851 27.4803 20.5671 27.1842 21.3139 27.1835C22.0607 27.1842 22.777 27.4803 23.305 28.0066C23.8331 28.533 24.1301 29.2468 24.1309 29.9912C24.1301 30.7354 23.8331 31.4493 23.305 31.9756C22.777 32.5019 22.0607 32.798 21.3139 32.7987C20.5671 32.798 19.851 32.5019 19.3229 31.9756Z" fill="url(#paint5_linear_883_10236)"/>
<path d="M39.8916 22.4426C39.8923 23.187 40.1892 23.9007 40.7173 24.427C41.2456 24.9533 41.9616 25.2494 42.7084 25.2501C43.4554 25.2494 44.1714 24.9533 44.6995 24.427C45.2276 23.9007 45.5245 23.187 45.5254 22.4426C45.5245 21.6982 45.2276 20.9845 44.6995 20.4581C44.1714 19.9317 43.4554 19.6357 42.7084 19.635C41.9616 19.6357 41.2456 19.9317 40.7173 20.4581C40.1892 20.9845 39.8923 21.6982 39.8916 22.4426Z" fill="white"/>
<path d="M14.4745 22.4426C14.4752 23.187 14.7722 23.9007 15.3003 24.427C15.8284 24.9533 16.5445 25.2494 17.2913 25.2501C18.0382 25.2494 18.7543 24.9533 19.2824 24.427C19.8105 23.9007 20.1075 23.187 20.1082 22.4426C20.1075 21.6982 19.8105 20.9845 19.2824 20.4581C18.7543 19.9317 18.0382 19.6357 17.2913 19.635C16.5445 19.6357 15.8284 19.9317 15.3003 20.4581C14.7722 20.9845 14.4752 21.6982 14.4745 22.4426Z" fill="white"/>
<path d="M39.8916 37.5396C39.8923 38.284 40.1892 38.9976 40.7173 39.5242C41.2456 40.0505 41.9616 40.3464 42.7084 40.3473C43.4554 40.3464 44.1714 40.0505 44.6995 39.5242C45.2276 38.9976 45.5245 38.284 45.5254 37.5396C45.5245 36.7952 45.2276 36.0816 44.6995 35.5552C44.1714 35.0289 43.4554 34.7328 42.7084 34.7321C41.9616 34.7328 41.2456 35.0289 40.7173 35.5552C40.1892 36.0816 39.8923 36.7952 39.8916 37.5396Z" fill="white"/>
</g>
<defs>
<linearGradient id="paint0_linear_883_10236" x1="14.4658" y1="10.4818" x2="43.5377" y2="49.9409" gradientUnits="userSpaceOnUse">
<stop stop-color="#00FAFF"/>
<stop offset="1" stop-color="#8BFF95"/>
</linearGradient>
<linearGradient id="paint1_linear_883_10236" x1="14.4658" y1="10.4818" x2="43.5377" y2="49.9409" gradientUnits="userSpaceOnUse">
<stop stop-color="#00FAFF"/>
<stop offset="1" stop-color="#8BFF95"/>
</linearGradient>
<linearGradient id="paint2_linear_883_10236" x1="14.4657" y1="10.4818" x2="43.5377" y2="49.9409" gradientUnits="userSpaceOnUse">
<stop stop-color="#00FAFF"/>
<stop offset="1" stop-color="#8BFF95"/>
</linearGradient>
<linearGradient id="paint3_linear_883_10236" x1="14.4658" y1="10.4818" x2="43.5378" y2="49.9409" gradientUnits="userSpaceOnUse">
<stop stop-color="#00FAFF"/>
<stop offset="1" stop-color="#8BFF95"/>
</linearGradient>
<linearGradient id="paint4_linear_883_10236" x1="14.4657" y1="10.4818" x2="43.5377" y2="49.9409" gradientUnits="userSpaceOnUse">
<stop stop-color="#00FAFF"/>
<stop offset="1" stop-color="#8BFF95"/>
</linearGradient>
<linearGradient id="paint5_linear_883_10236" x1="14.4659" y1="10.4818" x2="43.5379" y2="49.9409" gradientUnits="userSpaceOnUse">
<stop stop-color="#00FAFF"/>
<stop offset="1" stop-color="#8BFF95"/>
</linearGradient>
<clipPath id="clip0_883_10236">
<rect width="60" height="60" fill="white"/>
</clipPath>
</defs>
</svg>
