<svg width="60" height="60" viewBox="0 0 60 60" fill="none" xmlns="http://www.w3.org/2000/svg">
<path fill-rule="evenodd" clip-rule="evenodd" d="M22.5258 17.5339C25.6446 12.1321 23.7938 5.22468 18.3919 2.1059L12.7448 11.8869C9.62604 17.2888 11.4769 24.1962 16.8788 27.3149L22.5258 17.5339ZM25.7647 17.2941C25.7647 11.0566 30.8213 6.00001 37.0588 6.00001H48.353C48.353 12.2376 43.2964 17.2941 37.0588 17.2941H25.7647ZM34.2353 30C34.2353 32.3391 32.3391 34.2353 30 34.2353C27.6609 34.2353 25.7647 32.3391 25.7647 30C25.7647 27.6609 27.6609 25.7647 30 25.7647C32.3391 25.7647 34.2353 27.6609 34.2353 30ZM22.9412 42.7059C16.7036 42.7059 11.6471 47.7624 11.6471 54H22.9412C29.1788 54 34.2353 48.9435 34.2353 42.7059H22.9412ZM43.1213 32.6851C48.5232 35.8039 50.374 42.7112 47.2552 48.1131L41.6082 57.8941C36.2063 54.7753 34.3554 47.868 37.4742 42.4661L43.1213 32.6851ZM38.886 19.9792C44.2879 16.8604 51.1953 18.7112 54.314 24.1131L59.9611 33.8941C54.5592 37.0129 47.6518 35.1621 44.5331 29.7602L38.886 19.9792ZM15.467 30.2398C12.3482 24.8379 5.44083 22.9871 0.0389404 26.1059L5.686 35.8869C8.80478 41.2888 15.7122 43.1396 21.1141 40.0208L15.467 30.2398Z" fill="#0A74F5"/>
</svg>
