<svg width="60" height="60" viewBox="0 0 60 60" fill="none" xmlns="http://www.w3.org/2000/svg">
<path fill-rule="evenodd" clip-rule="evenodd" d="M51.7828 41.8803C52.4586 41.8803 52.7969 42.6972 52.3191 43.175L35.8849 59.608C35.4071 60.0857 34.5901 59.7474 34.5901 59.0717V42.6387C34.5901 42.2198 34.9297 41.8803 35.3486 41.8803H51.7828ZM1.1058 26.3955C0.430087 26.3955 0.091692 25.5786 0.569494 25.1009L17.0038 8.66781C17.4815 8.19004 18.2985 8.5284 18.2985 9.20404V25.6371C18.2985 26.0559 17.9589 26.3955 17.54 26.3955H1.1058Z" fill="url(#paint0_linear_427_4275)"/>
<path d="M36.8807 23.6984H58.8957C59.3145 23.6984 59.6541 23.3589 59.6541 22.94V0.926736C59.6541 0.507884 59.3145 0.168337 58.8957 0.168337L36.8807 0.168335C36.4619 0.168335 36.1223 0.507882 36.1223 0.926729V22.94C36.1223 23.3589 36.4619 23.6984 36.8807 23.6984Z" fill="url(#paint1_linear_427_4275)"/>
<path d="M53.1875 38.0884H22.8492C22.4304 38.0884 22.0908 37.7488 22.0908 37.3299V6.99394C22.0908 6.57511 22.4304 6.23557 22.8492 6.23557H31.5715C31.9903 6.23557 32.3299 6.57511 32.3299 6.99394V26.7124C32.3299 27.1312 32.6695 27.4708 33.0884 27.4708H53.1875C53.6063 27.4708 53.9459 27.8103 53.9459 28.2291V37.3299C53.9459 37.7488 53.6063 38.0884 53.1875 38.0884Z" fill="url(#paint2_linear_427_4275)"/>
<defs>
<linearGradient id="paint0_linear_427_4275" x1="52.5953" y1="8.28819" x2="9.75141" y2="50.7086" gradientUnits="userSpaceOnUse">
<stop stop-color="#4D29B4"/>
<stop offset="1" stop-color="#836FFF"/>
</linearGradient>
<linearGradient id="paint1_linear_427_4275" x1="34.0609" y1="24.8809" x2="63.7142" y2="-4.2466" gradientUnits="userSpaceOnUse">
<stop stop-color="#70FFE5"/>
<stop offset="1" stop-color="#6295E1"/>
</linearGradient>
<linearGradient id="paint2_linear_427_4275" x1="50.124" y1="13.2308" x2="22.2361" y2="39.7107" gradientUnits="userSpaceOnUse">
<stop offset="0.00747511" stop-color="#654FEC"/>
<stop offset="1" stop-color="#71B2FF"/>
</linearGradient>
</defs>
</svg>
