<svg width="60" height="60" viewBox="0 0 60 60" fill="none" xmlns="http://www.w3.org/2000/svg">
<g clip-path="url(#clip0_1016_27083)">
<path d="M55.5493 22.1499C55.5493 20.88 54.5199 19.8506 53.25 19.8506C51.9801 19.8506 50.9507 20.88 50.9507 22.1499V25.1089H49.1953C47.9254 25.1089 46.896 26.1383 46.896 27.4082C46.896 28.6781 47.9254 29.7075 49.1953 29.7075H50.9507V37.2333C50.9378 37.3318 50.9312 37.4323 50.9312 37.5344C50.9312 38.8043 51.9606 39.8337 53.2305 39.8337H57.2324C58.5023 39.8337 59.5317 38.8043 59.5317 37.5344C59.5317 36.2645 58.5023 35.235 57.2324 35.235H55.5493V29.7075H57.1331C58.403 29.7075 59.4325 28.6781 59.4325 27.4082C59.4325 26.1383 58.403 25.1089 57.1331 25.1089H55.5493V22.1499Z" fill="#29E3C1"/>
<path d="M36.3438 19.8326C35.0739 19.8326 34.0444 20.8621 34.0444 22.132C34.0444 23.4019 35.0739 24.4313 36.3438 24.4313H38.2397V35.235H36.5703C35.3004 35.235 34.271 36.2645 34.271 37.5344C34.271 38.8043 35.3004 39.8337 36.5703 39.8337H43.8962C45.1661 39.8337 46.1956 38.8043 46.1956 37.5344C46.1956 36.2645 45.1661 35.235 43.8962 35.235H42.8384V22.1499C42.8384 20.9356 41.897 19.9411 40.7042 19.8564C40.5958 19.8408 40.485 19.8326 40.3723 19.8326H36.3438Z" fill="#29E3C1"/>
<path fill-rule="evenodd" clip-rule="evenodd" d="M18.0405 23.9743C18.0405 21.8617 19.734 20.0807 21.9067 20.0807H26.711C28.8836 20.0807 30.5771 21.8617 30.5771 23.9743V35.8652C30.5771 37.9777 28.8837 39.7588 26.711 39.7588H21.9067C19.7339 39.7588 18.0405 37.9777 18.0405 35.8652V23.9743ZM22.6392 24.6793V35.1602H25.9784V24.6793H22.6392Z" fill="#29E3C1"/>
<path fill-rule="evenodd" clip-rule="evenodd" d="M13.2434 22.149C13.2434 20.879 12.2139 19.8495 10.9439 19.8495C9.67396 19.8495 8.64444 20.879 8.64444 22.149V25.0055C8.60486 25.0035 8.56502 25.0025 8.52494 25.0025H4.26994C3.31033 25.0025 2.40355 25.3908 1.74115 26.0588L1.7378 26.0622C1.07151 26.7369 0.705895 27.6417 0.700439 28.5745V36.248L0.700449 36.2544C0.703094 37.196 1.07426 38.0991 1.73447 38.7704L1.7378 38.7738C2.40455 39.4489 3.31442 39.8335 4.26994 39.8335L9.68294 39.8335L9.69671 39.8334C10.6512 39.8277 11.5508 39.4384 12.2091 38.7717L12.2159 38.7648C12.8749 38.0918 13.238 37.1915 13.2434 36.2625V22.149ZM8.64444 29.5984C8.60486 29.6005 8.56502 29.6015 8.52494 29.6015H5.29944V35.2345H8.64444V29.5984Z" fill="#29E3C1"/>
</g>
<defs>
<clipPath id="clip0_1016_27083">
<rect width="60" height="21" fill="white" transform="translate(0 19.5)"/>
</clipPath>
</defs>
</svg>
