<svg width="61" height="60" viewBox="0 0 61 60" fill="none" xmlns="http://www.w3.org/2000/svg">
<path d="M16.2718 33.4243C16.1417 33.3415 16.0116 33.2586 15.8815 33.1877C15.3255 32.8564 14.7576 32.537 14.2016 32.2058C13.6575 31.8746 13.1843 31.4605 12.7466 31.011C12.2971 30.5615 11.9067 30.0528 11.6346 29.485C11.3862 28.9881 11.2206 28.4558 11.1259 27.888C11.0431 27.3202 11.0668 26.7523 11.1969 26.2082C11.3034 25.7586 11.5045 25.3328 11.6583 24.8951C11.6819 24.8123 11.7174 24.7295 11.7411 24.6467C11.8002 24.5993 11.8594 24.5402 11.9185 24.4929C11.9422 24.4929 11.9777 24.4929 12.0013 24.4692C12.439 24.209 12.8649 23.9251 13.3026 23.6766C13.7876 23.3927 14.2726 23.1206 14.7695 22.8604C15.2427 22.612 15.7158 22.3754 16.2009 22.1506C16.4729 22.0205 16.7569 21.9258 17.0408 21.8075C16.9816 22.1861 16.887 22.5646 16.8751 22.9432C16.8751 23.4637 16.8042 23.9842 16.9225 24.5047C17.0053 24.8478 16.9934 25.2027 17.0644 25.5457C17.1354 25.9006 17.2419 26.2555 17.3483 26.6104C17.4903 27.0481 17.6441 27.4858 17.8215 27.8998C17.9516 28.2074 18.1528 28.4795 18.3065 28.7634C18.7561 29.5915 19.3594 30.3131 20.01 30.9755C20.3886 31.3541 20.8144 31.6971 21.2403 32.0284C21.8081 32.4779 22.4233 32.8683 23.0739 33.1877C23.4169 33.3533 23.7482 33.5189 24.0912 33.6727C24.2923 33.7673 24.4934 33.8383 24.6945 33.9093C24.9666 34.0039 25.2505 34.0986 25.5226 34.1814C25.7237 34.2405 25.9367 34.2997 26.1378 34.3351C26.3744 34.3825 26.6109 34.418 26.8594 34.4534C27.3326 34.5244 27.8057 34.6309 28.2908 34.6427C29.0597 34.6664 29.8404 34.6427 30.6212 34.6072C30.8815 34.6072 31.1535 34.5599 31.4138 34.5126C31.6859 34.4653 31.9579 34.3943 32.23 34.3351C32.5613 34.2642 32.8925 34.1932 33.2119 34.0986C33.4958 34.0157 33.7679 33.9093 34.04 33.8028C34.4185 33.649 34.8089 33.5071 35.1756 33.3178C35.7198 33.0339 36.2521 32.7263 36.749 32.3951C37.2103 32.0875 37.648 31.7326 38.0502 31.3541C38.4879 30.94 38.9019 30.4905 39.2923 30.0292C39.5526 29.7334 39.7773 29.4022 39.9784 29.0709C40.215 28.6687 40.4398 28.2547 40.6409 27.8407C40.8302 27.4385 40.9958 27.0362 41.1378 26.6104C41.2679 26.22 41.3507 25.8178 41.4335 25.4156C41.5636 24.7886 41.5636 24.1616 41.5873 23.5228C41.6109 22.6001 41.4571 21.7129 41.2324 20.8257C41.1851 20.6482 41.1141 20.4826 41.0549 20.3052C41.1969 20.3407 41.3389 20.3762 41.469 20.4235C42.1788 20.6601 42.8885 20.8967 43.5983 21.1569C44.1661 21.3698 44.734 21.5946 45.29 21.8312C45.8814 22.0915 46.4729 22.3872 47.0526 22.6829C47.5494 22.9314 48.0344 23.2153 48.5313 23.4755C48.6614 23.5465 48.8034 23.5938 48.9453 23.653C48.9453 23.6766 48.9453 23.7003 48.9453 23.7239C48.9453 23.7239 48.969 23.7476 48.9808 23.7594C49.0045 23.8896 49.0281 24.0197 49.0518 24.1498C49.1109 24.7295 49.0991 25.2973 48.9571 25.8651C48.9098 26.0544 48.8862 26.2437 48.8388 26.4211C48.7797 26.5276 48.7087 26.6222 48.6496 26.7287C47.9043 27.8407 47.0171 28.8344 46.0116 29.7216C45.0889 30.5378 44.0833 31.2476 43.0187 31.8746C42.2143 32.3478 41.3743 32.7381 40.5226 33.1167C39.4816 33.5662 38.4169 33.9329 37.3404 34.2405C36.465 34.4889 35.5778 34.69 34.6906 34.8675C33.7679 35.0449 32.8452 35.1987 31.9106 35.2933C30.8578 35.3998 29.805 35.4708 28.7521 35.4826C27.6756 35.4826 26.5991 35.4471 25.5344 35.3525C24.4816 35.2579 23.4288 35.0922 22.3759 34.9385C21.678 34.832 20.98 34.6782 20.2821 34.5244C19.7143 34.3943 19.1583 34.2523 18.5904 34.1104C18.1291 33.9921 17.6677 33.862 17.2064 33.7318C16.887 33.6372 16.5676 33.5426 16.2363 33.4598L16.2718 33.4243Z" fill="#BAE5FA"/>
<path d="M16.2722 33.4243C16.5916 33.5189 16.911 33.6136 17.2422 33.6964C17.7036 33.8265 18.1649 33.9448 18.6263 34.0749C19.1941 34.2169 19.7501 34.3707 20.3179 34.489C21.0159 34.6428 21.702 34.7965 22.4118 34.903C23.4646 35.0686 24.5056 35.2342 25.5703 35.3171C26.635 35.4117 27.7115 35.459 28.788 35.4472C29.8408 35.4472 30.9055 35.3644 31.9465 35.2579C32.881 35.1633 33.8037 35.0095 34.7264 34.832C35.6137 34.6664 36.5009 34.4535 37.3763 34.2051C38.4646 33.8975 39.5293 33.5308 40.5584 33.0812C41.4102 32.7145 42.2501 32.3123 43.0545 31.8391C44.1192 31.2122 45.1247 30.5142 46.0474 29.6861C47.0529 28.7989 47.9401 27.8052 48.6854 26.6932C48.7564 26.5986 48.8155 26.4921 48.8747 26.3857C49.064 26.0663 49.2651 25.7587 49.4307 25.4275C49.6436 25.0134 49.8447 24.5757 50.3179 24.3865C50.5545 24.3628 50.8029 24.28 51.0395 24.3155C51.4062 24.3746 51.773 24.4929 52.1278 24.5994C52.814 24.8833 53.4291 25.2855 54.0088 25.7587C53.6657 25.6522 53.3226 25.5339 52.9796 25.4275C52.9441 25.4038 52.9086 25.392 52.8731 25.3683C52.4827 25.2027 52.0805 25.0844 51.6547 25.1081C51.5245 25.1081 51.4772 25.2264 51.56 25.321C51.7138 25.4748 51.9031 25.6049 52.0805 25.7587C52.4236 25.9716 52.743 26.1964 53.0979 26.3738C53.7367 26.7169 54.3873 27.0363 55.0379 27.3675C55.0734 27.3912 55.1207 27.403 55.1681 27.4148C55.1444 27.4385 55.1207 27.474 55.1089 27.4977C54.7185 27.403 54.3163 27.3084 53.9259 27.2137C53.784 27.1901 53.642 27.1428 53.5001 27.1309C53.1925 27.0954 52.8731 27.06 52.5655 27.0481C52.2225 27.0481 52.116 27.2492 52.2816 27.545C52.3289 27.6278 52.3999 27.6988 52.4591 27.7816C53.0269 28.3494 53.5947 28.929 54.1862 29.485C54.4938 29.7808 54.8368 30.0529 55.1681 30.3368C55.1917 30.3604 55.2154 30.3841 55.239 30.4077C55.239 30.4077 55.2627 30.4314 55.2745 30.4432C55.2272 30.4432 55.1799 30.4432 55.1326 30.4432C54.8487 30.2421 54.5647 30.041 54.269 29.8518C54.2335 29.8281 54.1862 29.8163 54.1507 29.8044C54.1507 29.8044 54.1034 29.7453 54.0797 29.7216C54.0561 29.698 54.0442 29.6743 54.0206 29.6625C53.4764 29.3312 52.9323 28.9882 52.3763 28.6806C52.1515 28.5505 51.9031 28.4677 51.6547 28.3967C51.4772 28.3376 51.3353 28.4677 51.4062 28.6333C51.4654 28.7989 51.5718 28.9409 51.6547 29.1065C52.045 29.5205 52.4236 29.9464 52.8258 30.3604C52.9914 30.5379 53.1807 30.6798 53.3936 30.8691C53.1334 30.7508 52.9086 30.6562 52.6957 30.5497C52.6957 30.5497 52.672 30.526 52.672 30.5024C52.6483 30.4787 52.6365 30.4551 52.6129 30.4551C52.2343 30.2658 51.8439 30.0647 51.4654 29.8872C50.661 29.5205 49.8447 29.1893 48.9575 29.071C48.6263 29.0237 48.295 29.0355 47.9756 29.1775C47.8455 29.2366 47.7745 29.3431 47.8219 29.4732C47.881 29.6152 47.9756 29.7571 48.0466 29.8872C48.295 30.1475 48.5198 30.4196 48.7919 30.6562C49.1941 31.0111 49.6318 31.3423 50.0577 31.6853C50.0931 31.7208 50.1168 31.7563 50.1523 31.8036C50.1523 31.8155 50.1405 31.8273 50.1286 31.8391C49.9512 31.7563 49.7737 31.6617 49.5963 31.5789C49.5253 31.5434 49.4425 31.5316 49.3715 31.5079C49.3715 31.4961 49.3715 31.4842 49.3715 31.4724C48.993 31.2831 48.6026 31.153 48.1767 31.1885C47.9638 31.2122 47.8337 31.3423 47.8692 31.5434C47.8928 31.7563 47.9756 31.9574 48.0348 32.1704C48.2477 32.5607 48.4252 32.9748 48.6618 33.3415C49.1823 34.1223 49.7383 34.8794 50.2824 35.6483C50.5072 35.9677 50.7438 36.2753 50.9804 36.5947V36.7129C50.8621 36.6065 50.7438 36.5118 50.6373 36.4054C50.6373 36.4054 50.6255 36.3935 50.6136 36.3817L50.5663 36.3344C50.5663 36.3344 50.5308 36.2634 50.5072 36.2398C50.2706 35.9913 50.034 35.7429 49.7856 35.5063C48.7801 34.489 47.7982 33.4598 46.6862 32.5607C46.4969 32.407 46.284 32.2887 46.0711 32.1704C45.9528 32.0994 45.8463 32.1704 45.87 32.2887C45.8936 32.4779 45.9764 32.6672 46.0237 32.8565C46.1539 33.1286 46.2722 33.4125 46.4141 33.6727C46.6034 34.004 46.8163 34.3234 47.0293 34.6546C47.0529 34.7019 47.0648 34.7492 47.0884 34.7965H47.0174C46.4851 34.3234 45.9646 33.8265 45.4204 33.3652C45.1247 33.1049 44.7816 32.892 44.4031 32.7737C44.1073 32.679 43.9181 32.8328 43.9654 33.1404C43.9654 33.2114 43.9772 33.2942 44.0009 33.3652C44.06 33.5544 44.131 33.7319 44.202 33.9093C44.3321 34.2406 44.4386 34.5836 44.6042 34.903C45.0419 35.7902 45.4914 36.6656 45.9409 37.541C46.0829 37.8249 46.2367 38.097 46.3905 38.3809C46.426 38.4401 46.4614 38.4992 46.4969 38.5584C46.4969 38.5584 46.4969 38.5702 46.4969 38.582C46.5324 38.6294 46.5561 38.6885 46.5916 38.7358C46.5916 38.7358 46.5916 38.7476 46.5916 38.7595C46.6271 38.8068 46.6507 38.8659 46.6862 38.9133C46.6862 38.9133 46.698 38.9251 46.6862 38.9369C46.698 38.9606 46.7217 38.9842 46.7335 39.0197C46.7572 39.0552 46.769 39.1025 46.7927 39.138C46.8163 39.1617 46.8282 39.1972 46.8518 39.2208C46.8518 39.2208 46.8518 39.2327 46.8637 39.2445C46.8637 39.3273 46.8755 39.3983 46.8873 39.4811C46.6271 39.138 46.3786 38.7831 46.1184 38.4519C45.3021 37.3872 44.4741 36.3344 43.4685 35.4353C42.9835 34.9977 42.4748 34.5954 41.8479 34.3707C41.5758 34.276 41.2919 34.2524 41.008 34.3707C40.9607 34.3943 40.8897 34.4771 40.9015 34.5126C40.9725 34.6901 41.0671 34.8675 41.1499 35.045C41.3155 35.4472 41.4812 35.8494 41.6349 36.2516C41.9307 37.0205 42.2028 37.7776 42.4867 38.5465C42.5577 38.7476 42.6168 38.9606 42.676 39.1617C42.6996 39.2327 42.7233 39.3155 42.7469 39.3864C42.7469 39.4338 42.7706 39.4929 42.7824 39.5402C42.8534 39.907 42.948 40.2618 42.9954 40.6286C43.0782 41.2082 43.161 41.7879 42.9125 42.3557C42.8771 42.2847 42.8534 42.2019 42.8179 42.1309C42.7588 41.3265 42.6168 40.5221 42.392 39.7413C42.2856 39.351 42.1436 38.9606 42.0253 38.5584C41.9898 38.4992 41.9662 38.4282 41.9307 38.3691C41.9307 38.3691 41.9307 38.3573 41.9307 38.3454C41.9307 38.31 41.9307 38.2626 41.9189 38.2271C41.6349 37.6002 41.3155 36.9969 40.8424 36.4882C40.2272 35.8257 39.482 35.459 38.5592 35.4708C38.0742 35.4708 37.814 35.6956 37.8021 36.1924C37.8021 36.5355 37.8495 36.8786 37.9086 37.2098C37.9323 37.3636 38.0032 37.5174 38.0624 37.6593C38.1334 37.9077 38.2162 38.1562 38.2872 38.4046C38.3226 38.4992 38.37 38.6057 38.4055 38.7003C38.4055 38.724 38.4173 38.7358 38.4291 38.7595C38.4528 38.795 38.4646 38.8305 38.4883 38.8778C38.4883 38.9014 38.5001 38.9133 38.5119 38.9369C38.5356 38.9961 38.5711 39.067 38.5947 39.1262C38.6066 39.1735 38.6302 39.209 38.642 39.2563C38.6775 39.3155 38.7012 39.3864 38.7367 39.4456C38.7367 39.4456 38.7367 39.4693 38.7367 39.4811C38.7367 39.5047 38.7485 39.5284 38.7603 39.5521C38.7722 39.5876 38.7958 39.623 38.8077 39.6585C38.8077 39.6704 38.8313 39.6822 38.8313 39.694C38.8313 39.694 38.8077 39.765 38.7958 39.8005C38.7485 39.7295 38.7012 39.6585 38.6539 39.5876C38.1452 38.8305 37.6129 38.097 36.9859 37.4346C36.5719 36.985 36.1342 36.571 35.59 36.2989C35.3889 36.2043 35.1878 36.0978 34.9157 36.1688C35.034 36.3817 35.1405 36.5828 35.2469 36.7958C35.448 37.2335 35.661 37.6593 35.8384 38.1088C36.0987 38.7476 36.3471 39.3864 36.5837 40.0371C36.6665 40.2737 36.7375 40.5103 36.8085 40.7469C36.8203 40.7823 36.8439 40.8297 36.8558 40.8652C36.8558 40.9006 36.8676 40.948 36.8794 40.9834C36.9149 41.1017 36.9386 41.22 36.9741 41.3383C36.9741 41.362 36.9741 41.3857 36.9859 41.3975C36.9859 41.433 36.9859 41.4803 36.9859 41.5158C37.1042 42.1191 37.2225 42.7224 37.2225 43.3494C37.2225 43.7161 37.1988 44.0946 37.1752 44.4614C37.1515 44.5797 37.116 44.698 37.0924 44.8281C37.0569 43.5387 36.9149 42.2847 36.4654 41.0663C36.4299 40.9953 36.4062 40.9243 36.3708 40.8415C36.3589 40.7942 36.3471 40.7469 36.3234 40.7114C36.2761 40.5812 36.2406 40.4511 36.1815 40.321C35.7911 39.4929 35.3179 38.724 34.7028 38.0379C34.2532 37.541 33.7564 37.1152 33.2004 36.7248C33.3069 36.9732 33.4015 37.198 33.4962 37.4109C33.4962 37.4346 33.4962 37.4582 33.4962 37.4819C33.4962 37.5055 33.5198 37.541 33.5316 37.5647L33.5553 37.6948C33.5553 37.6948 33.5553 37.8131 33.5553 37.8723C33.6618 38.6294 33.5553 39.3746 33.4252 40.1081C33.2832 40.8415 33.0939 41.5631 32.8928 42.2847C32.7745 42.7461 32.6089 43.1956 32.4551 43.657C32.325 44.0118 32.2067 44.3786 32.0766 44.7334C32.0648 44.7334 32.0529 44.7334 32.0411 44.7334C32.0411 44.7098 32.0411 44.6743 32.0411 44.6506C32.1594 43.9764 32.2895 43.3139 32.396 42.6396C32.5853 41.5513 32.6917 40.4629 32.6444 39.3628C32.6208 38.8659 32.5143 38.3691 32.4433 37.8841C32.3723 37.683 32.325 37.4819 32.2304 37.3044C32.0411 36.9495 31.769 36.6893 31.3668 36.6065C30.9291 36.5237 30.5269 36.6538 30.1365 36.8431C30.0774 36.8786 30.0182 36.9614 29.9946 37.0323C29.9354 37.3044 29.8644 37.5765 29.8526 37.8604C29.8526 38.582 29.8763 39.2918 29.8881 40.0134C29.8999 40.1199 29.9118 40.2382 29.9236 40.3447C29.9236 40.4038 29.9236 40.4748 29.9236 40.5339C29.8999 40.5931 29.8881 40.6641 29.8644 40.7232C29.687 40.0607 29.5214 39.3983 29.3439 38.7358C29.2848 38.5111 29.1783 38.2981 29.0955 38.0852C28.9654 37.6357 28.7643 37.2335 28.4212 36.9022C28.1373 36.6183 27.8771 36.642 27.6286 36.9732C27.2146 37.5055 26.8124 38.0615 26.4457 38.6294C25.9725 39.3628 25.5466 40.1081 25.0971 40.8533C24.8369 41.2792 24.6003 41.7169 24.3518 42.1428C24.0798 42.6159 23.8195 43.0773 23.5474 43.5505C23.5238 43.5505 23.5001 43.5505 23.4883 43.5387C23.5119 43.4677 23.5238 43.4085 23.5474 43.3376C23.6657 43.0182 23.7958 42.6987 23.9141 42.3793C24.2335 41.5394 24.5529 40.6995 24.8487 39.8478C25.0734 39.2208 25.2627 38.5702 25.452 37.9314C25.523 37.7066 25.5466 37.47 25.5939 37.2335C25.6058 37.0678 25.6294 36.9022 25.6294 36.7366C25.6294 36.6183 25.5348 36.5473 25.4165 36.642C25.2864 36.7484 25.1562 36.8431 25.0616 36.9732C24.4938 37.683 24.1271 38.5229 23.7249 39.3273C23.6421 39.5047 23.5592 39.6704 23.4764 39.8478H23.441C23.441 39.8478 23.4291 39.7768 23.441 39.7413C23.5592 38.9606 23.7012 38.1798 23.6539 37.3754C23.6184 37.2216 23.5947 37.056 23.5474 36.9022C23.5001 36.7366 23.3345 36.6656 23.1807 36.7248C23.0979 36.7603 23.0033 36.7839 22.9204 36.8312C22.1279 37.3044 21.4299 37.9077 20.732 38.5229C20.3061 38.9133 19.8684 39.3036 19.4425 39.694C19.4425 39.6585 19.4425 39.623 19.4425 39.5757C19.5017 39.4929 19.5608 39.4101 19.6318 39.3391C19.6555 39.3155 19.6673 39.2918 19.691 39.2682C20.2233 38.582 20.7438 37.8841 21.1223 37.0915C21.2051 36.9259 21.2406 36.7484 21.2998 36.571C21.2998 36.4645 21.3234 36.3344 21.2643 36.2516C20.7083 35.4353 20.034 35.2106 19.1231 35.4353C18.4962 35.5891 17.9757 35.9322 17.5143 36.3581C17.2659 36.5828 17.0293 36.8312 16.7809 37.0678C16.5443 37.3281 16.2958 37.5883 16.0593 37.8486C16.0001 37.9077 15.941 37.9551 15.8818 38.0142C15.87 38.0142 15.8581 37.9906 15.8345 37.9787C15.9291 37.8249 16.0238 37.6711 16.1066 37.5174C16.4496 36.9141 16.7809 36.2871 16.911 35.5891C16.9228 35.53 16.911 35.459 16.911 35.3999C16.9465 34.9858 16.7454 34.7256 16.3432 34.7611C16.0356 34.7965 15.7162 34.8675 15.4205 34.9976C14.4859 35.4117 13.646 35.9913 12.8179 36.5828C12.3802 36.9141 11.9425 37.2453 11.493 37.5765C11.4693 37.5647 11.4339 37.541 11.4102 37.5292C11.9662 36.9141 12.5458 36.3107 12.9954 35.6128C13.1018 35.4353 13.1965 35.2461 13.2911 35.0686C13.3029 35.045 13.3266 35.0095 13.3384 34.9858C13.3384 34.9503 13.3384 34.9267 13.3384 34.8912C13.4212 34.6782 13.3858 34.5126 13.2083 34.4062C13.09 34.3352 12.9599 34.2642 12.8298 34.2287C12.1555 34.0276 11.4457 33.9921 10.7477 33.9803C9.6949 33.9566 8.64206 33.9803 7.58922 33.9803C6.8203 33.9803 6.03954 33.9685 5.28244 33.8975C4.53718 33.8383 3.80374 33.6964 3.09396 33.4598C3.05847 33.448 3.02298 33.4243 2.97566 33.4243C2.82188 33.377 2.66809 33.3415 2.51431 33.2942V33.306C2.49065 33.2824 2.45516 33.2587 2.4315 33.2232C2.08844 33.0221 1.73355 32.821 1.39049 32.6081C1.24853 32.5253 1.11841 32.4188 0.988281 32.3241C0.988281 32.3123 1.00011 32.3005 1.01194 32.2768C1.20121 32.3596 1.39049 32.4424 1.57976 32.5134C2.05295 32.6672 2.52614 32.8328 3.01115 32.9511C4.19412 33.2232 5.38891 33.2942 6.59553 33.2114C8.10973 33.1167 9.62392 32.963 11.1381 32.892C11.978 32.8565 12.8298 32.892 13.6697 32.963C14.3321 33.0221 14.9828 33.1641 15.6334 33.2823C15.8108 33.3178 16.0001 33.3652 16.1775 33.4125L16.2722 33.4243Z" fill="#3A3838"/>
<path d="M32.7389 15.9164C33.0583 16.153 33.4132 16.0939 33.7562 15.9874C34.3004 15.8218 34.7499 15.5024 35.1994 15.1593C35.2349 15.1239 35.2941 15.112 35.3769 15.0647C35.2113 15.3841 35.0575 15.6444 34.9274 15.9164C34.8091 16.153 34.88 16.2713 35.1285 16.3541C36.0275 16.6262 36.8083 16.3541 37.5535 15.8691C38.145 15.4787 38.6064 14.9582 39.0914 14.4259C39.0796 14.4969 39.0677 14.5797 39.0441 14.6507C38.8548 15.0292 38.6537 15.4196 38.4408 15.7863C38.2278 16.153 37.9912 16.5079 37.7546 16.8865C37.9912 16.9811 38.2278 16.9929 38.4762 16.9574C39.1979 16.8628 39.7893 16.5197 40.3098 16.0347C40.4281 15.9164 40.5464 15.7981 40.6766 15.6798C40.7002 15.6562 40.7121 15.6325 40.7357 15.6207C40.7475 15.6089 40.7594 15.597 40.783 15.5734L40.9486 15.3841C40.9486 15.3841 40.9841 15.3486 40.996 15.325C41.0196 15.3013 41.0433 15.2776 41.0551 15.254C41.0551 15.254 41.1024 15.1948 41.1261 15.1593C41.1261 15.1593 41.1616 15.1002 41.1852 15.0765C41.1852 15.0765 41.1852 15.0529 41.1971 15.0529C41.2326 15.0056 41.2681 14.9464 41.3154 14.8991C41.339 14.9227 41.3745 14.9582 41.3982 14.9819C41.1616 15.4669 40.9368 15.9519 40.7002 16.4369C40.5583 16.7445 40.4045 17.0521 40.2507 17.3597C40.227 17.4188 40.1915 17.478 40.1561 17.5489C40.3927 17.6199 40.5819 17.5726 40.7594 17.4543C41.0669 17.2532 41.3982 17.0757 41.6939 16.851C42.7113 16.0466 43.6103 15.112 44.4739 14.1538C44.5212 14.1065 44.5685 14.071 44.6158 14.0355C44.6277 14.0474 44.6513 14.0592 44.6632 14.071C44.4621 14.4022 44.2728 14.7335 44.0717 15.0765C44.0362 15.1239 44.0125 15.183 43.9889 15.2421C43.9415 15.2776 43.8942 15.3131 43.8706 15.3604C43.5867 15.7508 43.3264 16.153 43.0425 16.5434C42.6876 17.0048 42.3091 17.4543 41.8359 17.8092C41.8359 17.821 41.8359 17.8447 41.8359 17.8565C41.9542 17.8565 42.0843 17.8683 42.2026 17.8802C42.6639 17.7855 43.0543 17.5489 43.4329 17.2887C43.7523 17.0639 44.0598 16.8155 44.3792 16.5789C44.4029 16.5552 44.4384 16.5434 44.5094 16.5552C44.3792 16.7445 44.2373 16.9338 44.119 17.1349C43.9061 17.4898 43.6931 17.8565 43.492 18.2232C43.4447 18.2942 43.4565 18.4007 43.4329 18.4953C43.4447 18.5544 43.4329 18.6254 43.4802 18.6727C43.6221 18.8265 43.9061 18.862 44.1072 18.7556C44.3792 18.6018 44.675 18.4716 44.9234 18.2705C45.7751 17.5962 46.4849 16.7682 47.1829 15.9401C47.4786 15.597 47.7507 15.2421 48.0346 14.8873C48.0346 14.9464 48.0346 15.0056 48.0346 15.0647C47.8217 15.4433 47.6087 15.8336 47.3958 16.2122C47.3722 16.2595 47.3367 16.3186 47.313 16.366C47.313 16.366 47.313 16.3778 47.3012 16.3896C47.2538 16.4606 47.2184 16.5316 47.171 16.6026C47.1474 16.638 47.1237 16.6735 47.1001 16.709C47.0646 16.7445 47.0291 16.7682 47.0054 16.8037C46.4494 17.6672 45.858 18.4953 45.1955 19.2761C45.0535 19.4417 44.9116 19.6191 44.746 19.8084C44.8406 19.8321 44.9234 19.8557 44.9944 19.8675C45.1245 19.8675 45.2428 19.8675 45.3729 19.8675C45.4084 19.8675 45.4557 19.8439 45.4912 19.8321C45.5977 19.7966 45.7042 19.7729 45.8106 19.7374C46.13 19.5718 46.4731 19.418 46.7688 19.2169C47.7389 18.5544 48.5551 17.7264 49.3477 16.8628C49.9037 16.2477 50.4597 15.6089 51.0393 14.9464C50.8856 15.739 50.4597 16.3778 50.0811 17.0284C50.0575 17.0403 50.0338 17.0521 50.0102 17.0757C49.466 17.8565 48.8272 18.5426 48.1529 19.2051C48.0109 19.347 47.8572 19.4772 47.7152 19.6191C47.7152 19.6309 47.7389 19.6546 47.7507 19.6664C47.9518 19.5955 48.1529 19.5245 48.3422 19.4535C48.9218 19.2287 49.4305 18.8738 49.9037 18.4716C50.8146 17.7145 51.6072 16.8391 52.3406 15.9046C52.5654 15.6207 52.7783 15.325 52.9912 15.0292C53.0031 15.0174 53.0267 15.0056 53.0622 15.0056C52.731 15.9992 52.2223 16.9101 51.7018 17.7974C51.6663 17.8565 51.6308 17.9156 51.5953 17.9748C51.5953 17.9748 51.5244 18.0458 51.4889 18.0813C51.0157 18.7792 50.507 19.4417 49.9037 20.0332C49.7262 20.2106 49.5606 20.3999 49.3477 20.6246C49.5488 20.5537 49.7144 20.4945 49.88 20.4354C50.5307 20.1751 51.0748 19.7492 51.5835 19.2761C52.6837 18.2587 53.6182 17.1112 54.5054 15.9046C54.7538 15.5615 55.0023 15.2067 55.2625 14.8636C55.2744 14.8636 55.298 14.8636 55.3098 14.8754C55.2625 15.0056 55.2389 15.1357 55.1797 15.254C54.742 16.0939 54.2925 16.922 53.8548 17.7619C53.8193 17.8092 53.7838 17.8565 53.7483 17.9038C53.7483 17.9038 53.7483 17.9156 53.7483 17.9275C53.7128 17.9748 53.6773 18.0221 53.6537 18.0694C53.6537 18.0694 53.5827 18.1168 53.5591 18.1404C52.9676 19.0276 52.2814 19.8439 51.477 20.5418C51.3469 20.6483 51.2286 20.7666 51.0985 20.8731C51.0985 20.8849 51.0985 20.9085 51.1103 20.9204C51.2759 20.9322 51.4534 20.944 51.619 20.9559C51.7018 20.9559 51.7728 20.9559 51.8556 20.9559C51.9502 20.9559 52.0449 20.944 52.1395 20.9322C52.1986 20.9322 52.2578 20.9322 52.3051 20.9322C52.3643 20.9204 52.4352 20.8967 52.4944 20.8849C52.9794 20.8257 53.4289 20.672 53.8785 20.4827C55.3453 19.8557 56.6229 18.933 57.8296 17.892C58.149 17.6199 58.4565 17.3242 58.7759 17.0521C58.8114 17.0166 58.8706 16.9929 58.9061 16.9693C58.9179 16.9693 58.9297 16.9929 58.9415 17.0048C58.8824 17.1112 58.8232 17.2295 58.7641 17.336C58.7404 17.3597 58.7286 17.3951 58.705 17.4188C58.705 17.4188 58.705 17.4306 58.6931 17.4425C58.6576 17.5016 58.6221 17.5608 58.5985 17.6199C58.5985 17.6199 58.5867 17.6317 58.5867 17.6436C58.5512 17.7027 58.5038 17.7737 58.4684 17.8328C58.4684 17.8328 58.4684 17.8447 58.4565 17.8565C58.3856 17.963 58.3146 18.0694 58.2554 18.1759C58.2554 18.1759 58.1963 18.2114 58.1726 18.235C57.9597 18.519 57.7468 18.8029 57.5338 19.075C56.8004 20.0332 55.9723 20.8849 54.955 21.5355C54.9195 21.5592 54.884 21.5947 54.8248 21.6538C55.0378 21.6893 55.2152 21.7248 55.3927 21.7603C55.4636 21.7603 55.5228 21.7603 55.5938 21.7721C55.7002 21.7721 55.8185 21.7721 55.925 21.7721C55.9841 21.7721 56.0551 21.7721 56.1143 21.7721C56.1497 21.7721 56.1971 21.7603 56.2326 21.7485C56.9778 21.6538 57.6166 21.3226 58.2554 20.944C59.048 20.4709 59.746 19.8912 60.4084 19.2642C60.5149 19.1578 60.6214 19.0513 60.7397 18.9567C60.7515 18.9921 60.7633 19.0276 60.7751 19.0631C60.6568 19.2287 60.5385 19.3944 60.4202 19.56C60.4084 19.5718 60.3966 19.5836 60.3848 19.5955C60.3848 19.5955 60.3374 19.6428 60.3138 19.6664C60.3138 19.6664 60.2783 19.6901 60.2546 19.7019C60.1837 19.7611 60.1127 19.8202 60.0535 19.8912C59.4739 20.5182 58.8587 21.1097 58.1726 21.6302C57.3327 22.269 56.4337 22.8131 55.4636 23.2035C54.8603 23.4519 54.257 23.653 53.6182 23.7477C53.0977 23.8186 52.5654 23.866 52.033 23.9015C51.5125 23.9369 51.0157 23.8305 50.5543 23.5821C49.9155 23.2508 49.2767 22.9196 48.6379 22.5884C47.869 22.198 47.1001 21.7958 46.3193 21.4172C45.6568 21.0978 44.9707 20.8257 44.2846 20.5418C43.9061 20.388 43.5157 20.2461 43.1253 20.116C42.7113 19.974 42.2854 19.8439 41.8595 19.7256C41.5046 19.6191 41.1497 19.5363 40.7949 19.4535C40.7475 19.4298 40.7121 19.4062 40.6647 19.3944C40.298 19.3115 39.9313 19.2169 39.5646 19.1459C39.1742 19.0631 38.7957 19.004 38.4053 18.933C38.0149 18.862 37.6127 18.791 37.2223 18.7201C37.246 18.7792 37.2815 18.8029 37.3288 18.8265C37.6048 19 37.6955 19.2445 37.6009 19.56C37.6009 19.56 37.5772 19.56 37.5654 19.56C37.5654 19.5481 37.5654 19.5245 37.5417 19.5127C37.2341 19.3352 36.9384 19.1223 36.619 18.9803C36.2404 18.8029 35.8501 18.6491 35.4479 18.5544C35.1166 18.4716 34.7499 18.4953 34.4068 18.4716C34.0638 18.448 33.7207 18.4243 33.3777 18.4125C33.1411 18.4125 32.9163 18.4125 32.6797 18.4125C32.6797 18.4125 32.6797 18.4362 32.6797 18.448C32.7862 18.4835 32.8808 18.5071 33.011 18.5426C32.9636 18.5426 32.9281 18.5426 32.8927 18.5426C32.8572 18.5426 32.8217 18.5426 32.7862 18.5426C32.0528 18.448 31.3193 18.5071 30.5977 18.6373C30.1363 18.7201 29.6986 18.8502 29.2491 18.9803C29.0007 19.0513 28.7759 19.1814 28.5393 19.2761C28.1608 19.4653 27.7704 19.6428 27.4037 19.8557C27.108 20.0213 26.8477 20.2461 26.5638 20.4354C26.5401 20.3762 26.5283 20.3171 26.5046 20.2697C26.4218 20.1278 26.4692 20.0332 26.5993 19.9503C26.8477 19.7966 27.0843 19.6191 27.3327 19.4535C27.3445 19.4535 27.3682 19.4535 27.38 19.4535C27.8059 19.2287 28.2318 19.004 28.6576 18.791C28.8114 18.7082 28.977 18.6609 29.1308 18.5899C29.1308 18.5781 29.1308 18.5544 29.1308 18.5426C28.8351 18.5663 28.5393 18.5899 28.2554 18.6254C28.149 18.6254 28.0425 18.6254 27.9479 18.6491C27.7113 18.6727 27.4865 18.6964 27.2499 18.7319C26.8714 18.7792 26.4928 18.8029 26.1024 18.862C25.7121 18.9093 25.3217 18.9803 24.9313 19.0513C24.4699 19.1223 24.0204 19.1933 23.5591 19.2879C23.0386 19.3944 22.5299 19.5127 22.0094 19.6309C21.9975 19.6546 21.9502 19.6901 21.9621 19.7138C21.9975 19.9149 22.033 20.116 22.0685 20.3171C22.0685 20.3407 22.0685 20.3644 22.0804 20.3762C22.0922 20.4117 22.104 20.459 22.1158 20.4945C22.1158 20.5537 22.1158 20.6128 22.1395 20.672C22.3761 21.5355 22.6837 22.3636 23.1805 23.1089C23.3225 23.3218 23.3343 23.4874 23.2042 23.6885C23.1687 23.653 23.1332 23.6175 23.1095 23.5702C22.7901 23.0734 22.5181 22.5529 22.3169 21.985C22.1277 21.4527 21.9621 20.9204 21.9029 20.3526C21.8674 20.1278 21.8319 19.9149 21.7964 19.6783C21.7491 19.6783 21.7255 19.6783 21.7136 19.6901C21.3942 19.7729 21.0867 19.8675 20.7673 19.9267C20.2586 20.0332 19.9747 20.3762 19.7617 20.8257C19.7263 20.8731 19.6908 20.9204 19.6434 20.9677C19.5961 21.0387 19.537 21.1097 19.4897 21.1806C19.4897 21.1097 19.5133 21.0387 19.5251 20.9677C19.6316 20.7311 19.7499 20.4827 19.8682 20.2106C19.7854 20.2343 19.7381 20.2461 19.6789 20.2697C19.2057 20.4354 18.7207 20.601 18.2475 20.7784C17.8808 20.9204 17.5259 21.086 17.1592 21.228C16.7334 21.4172 16.3075 21.5828 15.8934 21.7958C15.1127 22.198 14.3438 22.612 13.5867 23.0379C13.1371 23.2981 12.6994 23.5939 12.2617 23.866C12.2499 23.866 12.2263 23.866 12.2144 23.8778C11.0669 24.6822 9.9313 25.4748 8.79566 26.2792C7.58903 27.1428 6.39424 28.0182 5.16395 28.8699C4.48966 29.3431 3.77988 29.7571 3.08194 30.2067C2.82168 30.3723 2.56143 30.5261 2.30118 30.6798C2.19471 30.7153 2.07642 30.7626 1.94629 30.81C2.12373 30.6207 2.26569 30.4433 2.4313 30.2895C3.33036 29.4496 4.20575 28.586 5.12847 27.7816C6.16947 26.8707 7.2578 26.0071 8.34613 25.1554C8.92578 24.694 9.52909 24.2445 10.1561 23.8305C11.2681 23.1089 12.3919 22.4109 13.5275 21.713C14.048 21.3936 14.5922 21.1097 15.1482 20.8376C15.9053 20.459 16.6742 20.1041 17.4431 19.7611C18.011 19.5127 18.5906 19.2879 19.1584 19.0513C19.1821 19.0513 19.2057 19.0276 19.2294 19.0158C19.2412 19.0158 19.2531 19.0158 19.2649 19.0158C19.3004 18.9921 19.3477 18.9803 19.3832 18.9567C19.3832 18.9567 19.395 18.9567 19.4069 18.9567C19.4897 18.9212 19.5843 18.8857 19.6671 18.8502C19.6671 18.8502 19.6789 18.8502 19.6908 18.8502C19.8209 18.8029 19.9628 18.7674 20.093 18.7201H20.1048C20.1521 18.7201 20.2113 18.7201 20.2586 18.6964C21.205 18.4125 22.1513 18.1168 23.1095 17.8565C23.914 17.6436 24.7302 17.4898 25.5464 17.3005C25.6647 17.2768 25.783 17.194 25.8895 17.1349C25.925 17.0994 25.9605 17.0639 25.996 17.0403C26.2089 16.8273 26.3509 16.5671 26.4218 16.2713C26.5046 15.9519 26.5875 15.6325 26.6584 15.3131C26.7176 15.5261 26.7531 15.7627 26.8359 15.9874C26.9187 16.2122 27.0252 16.4369 27.1671 16.6262C27.3564 16.8746 27.6048 16.8746 27.8059 16.6262C27.9597 16.4369 28.1016 16.2122 28.2199 15.9992C28.3501 15.7863 28.4565 15.5497 28.563 15.325C28.563 15.325 28.5867 15.325 28.6103 15.3013C28.5867 15.4787 28.5512 15.6325 28.5512 15.7981C28.5512 16.0466 28.5512 16.3068 28.563 16.5671C28.563 16.6262 28.6103 16.6854 28.6458 16.7327C28.8233 16.9338 29.1072 16.922 29.3438 16.6972H29.3674C29.3911 16.6735 29.4147 16.6617 29.4384 16.638C29.8406 16.3423 30.1363 15.9638 30.4321 15.5734C30.5859 15.3604 30.7278 15.1475 30.8816 14.9346C30.9053 14.8991 30.9289 14.8754 30.9881 14.8163C30.9171 15.1239 30.8461 15.3841 30.7988 15.6562C30.7515 15.9164 30.7278 16.1885 30.7042 16.4488C30.7042 16.5316 30.7042 16.6144 30.7397 16.6854C30.787 16.8037 30.8698 16.8628 30.9763 16.7563C31.13 16.6144 31.3075 16.4724 31.4376 16.3068C31.8753 15.7272 32.3012 15.1475 32.727 14.556C32.727 14.6033 32.7507 14.6507 32.7625 14.698C32.7625 14.7335 32.7389 14.7571 32.7389 14.7926C32.7152 14.8636 32.6916 14.9464 32.6561 15.0174C32.6561 15.041 32.6561 15.0529 32.6561 15.0765C32.6442 15.1475 32.6324 15.2185 32.6206 15.2895C32.6206 15.4196 32.6206 15.5497 32.6206 15.6798C32.6442 15.739 32.6679 15.7981 32.6916 15.8573C32.6916 15.8573 32.7389 15.9283 32.7625 15.9638L32.7389 15.9164Z" fill="#393737"/>
<path d="M48.5909 22.5647C49.2297 22.8959 49.8685 23.2272 50.5073 23.5584C50.9687 23.8068 51.4655 23.9133 51.986 23.8778C52.5184 23.8423 53.0389 23.795 53.5712 23.724C54.21 23.6294 54.8252 23.4164 55.4166 23.1799C56.3985 22.7776 57.2857 22.2453 58.1256 21.6065C58.7999 21.086 59.4269 20.4945 60.0065 19.8676C60.0657 19.7966 60.1367 19.7374 60.2076 19.6783C60.2313 19.6664 60.2431 19.6546 60.2668 19.6428C60.2905 19.6191 60.3141 19.5955 60.3378 19.5718C60.3378 19.5718 60.3614 19.5481 60.3733 19.5363C60.4561 19.4772 60.5389 19.4062 60.6335 19.347C60.6335 19.347 60.6453 19.347 60.6572 19.3589C60.6099 19.4299 60.5507 19.489 60.5034 19.56C59.8646 20.4117 59.1193 21.1806 58.3149 21.8668C57.5933 22.4819 56.8125 23.0261 55.9726 23.4638C55.3457 23.795 54.7069 24.0671 54.0207 24.2445C53.4293 24.3983 52.8259 24.4693 52.2226 24.5876C52.1871 24.5876 52.1635 24.6112 52.128 24.6231C51.7613 24.5284 51.4064 24.3983 51.0397 24.3392C50.8031 24.3037 50.5665 24.3865 50.3181 24.4101C50.2826 24.3746 50.2471 24.3155 50.1998 24.2918C49.9868 24.1854 49.7739 24.0789 49.561 23.9843C49.3717 23.9015 49.1824 23.8187 49.005 23.7358C49.005 23.7358 48.9813 23.7122 48.9695 23.7122C48.9695 23.6885 48.9695 23.6649 48.9695 23.6412C48.9103 23.4638 48.8512 23.2981 48.792 23.1207C48.7211 22.9314 48.6501 22.7422 48.5791 22.5529L48.5909 22.5647Z" fill="#B7B6B6"/>
<path d="M2.59696 33.3059V33.2941C2.64428 33.4242 3.04649 33.5662 3.15295 33.4952C3.15295 33.4952 3.15295 33.4716 3.15295 33.4597C3.86273 33.6963 4.59617 33.8383 5.34144 33.8974C6.11037 33.9566 6.87929 33.9684 7.64822 33.9802C8.70106 33.9921 9.7539 33.9802 10.8067 33.9802C11.5047 33.9921 12.2026 34.0394 12.8888 34.2287C13.0189 34.2641 13.149 34.3351 13.2673 34.4061C13.4447 34.5244 13.4802 34.69 13.3974 34.8911C13.1017 34.8201 12.8178 34.7255 12.522 34.6782C12.1671 34.619 11.8123 34.5835 11.4692 34.5717C9.78939 34.5481 8.09775 34.5599 6.41794 34.5244C5.82645 34.5126 5.23497 34.3943 4.65532 34.3351C4.07567 34.276 3.5315 34.0985 2.98734 33.8974C2.34854 33.649 1.76888 33.3059 1.23655 32.8682C1.23655 32.8682 1.23655 32.8446 1.21289 32.8209C1.59144 32.9629 1.94633 33.1048 2.31305 33.2468C2.38403 33.3533 2.47866 33.3651 2.58513 33.2941L2.59696 33.3059Z" fill="#B7B6B6"/>
<path d="M2.27736 30.6562C2.53761 30.5024 2.79787 30.3486 3.05812 30.183C3.75607 29.7453 4.46585 29.3194 5.14014 28.8462C6.35859 27.9945 7.55339 27.1191 8.77184 26.2555C9.90749 25.4511 11.055 24.6585 12.1906 23.8541C12.2024 23.8541 12.2261 23.8541 12.2379 23.8423C12.1788 23.9488 12.1315 24.0552 12.0723 24.1617C12.025 24.2682 11.9658 24.3746 11.9185 24.4811C11.8594 24.5284 11.8002 24.5876 11.7411 24.6349C11.4808 24.8005 11.2087 24.9661 10.9485 25.1435C10.1914 25.6641 9.44613 26.1964 8.70086 26.7287C8.08572 27.1782 7.48241 27.6396 6.86727 28.0773C6.26395 28.515 5.64881 28.9527 5.03367 29.3786C4.41853 29.7926 3.79156 30.2066 3.15276 30.597C2.58493 30.9519 1.99345 31.2831 1.39014 31.5907C1.4138 31.5552 1.43746 31.5197 1.46111 31.4961C1.68588 31.2595 1.92247 31.0347 2.14723 30.7981C2.19455 30.7508 2.21821 30.6917 2.24187 30.6443L2.27736 30.6562Z" fill="#B7B6B6"/>
<path d="M24.4108 42.1545C24.6593 41.7287 24.9077 41.291 25.1561 40.8651C25.6056 40.1198 26.0315 39.3627 26.5047 38.6411C26.8714 38.0733 27.2736 37.5291 27.6877 36.985C27.9361 36.6537 28.1963 36.6419 28.4802 36.914C28.8115 37.2452 29.0244 37.6474 29.1545 38.097C29.0836 38.0023 29.0126 37.8958 28.9298 37.8012C28.7996 37.6593 28.6695 37.5055 28.5157 37.3872C28.3619 37.2689 28.1372 37.2925 28.0071 37.4345C27.7586 37.7184 27.5102 38.0023 27.2973 38.3217C26.9187 38.8777 26.552 39.4337 26.2089 40.0015C25.6293 40.9597 25.0615 41.9416 24.4936 42.9116C24.2216 43.373 23.9731 43.8462 23.7129 44.3075C23.7129 44.2484 23.7129 44.1892 23.7129 44.1301C23.7957 43.9053 23.8785 43.6924 23.9613 43.4676C24.1151 43.0654 24.2807 42.675 24.4345 42.2728C24.4463 42.2373 24.4227 42.19 24.4108 42.1545Z" fill="#B8B7B7"/>
<path d="M12.8769 36.6183C13.705 36.0269 14.5449 35.4472 15.4794 35.0332C15.7633 34.903 16.0827 34.8321 16.4021 34.7966C16.8043 34.7611 17.0173 35.0095 16.97 35.4354C16.5559 35.2934 16.1655 35.3999 15.787 35.5655C14.5804 36.0742 13.5394 36.8431 12.4865 37.6239C12.179 37.8486 11.8832 38.0852 11.5756 38.3218C11.5638 38.31 11.5401 38.2981 11.5283 38.2745C11.7294 38.0616 11.9187 37.8368 12.108 37.6239C12.3564 37.3518 12.593 37.0679 12.8296 36.7839C12.8651 36.7485 12.8532 36.6775 12.8651 36.6302L12.8769 36.6183Z" fill="#B8B7B7"/>
<path d="M16.8279 37.0797C17.0763 36.8431 17.3129 36.5947 17.5613 36.3699C18.0345 35.944 18.555 35.601 19.1702 35.4472C20.081 35.2224 20.7672 35.4472 21.3113 36.2634C21.3587 36.3462 21.335 36.4764 21.3468 36.5828C21.2404 36.4882 21.1221 36.3936 21.0156 36.3107C20.7553 36.0978 20.4596 35.9559 20.1165 35.944C19.4896 35.9204 18.9217 36.1215 18.4012 36.4527C17.6205 36.9614 16.9935 37.6238 16.402 38.3218C16.3074 38.4283 16.2009 38.5347 16.1063 38.6412C16.0945 38.6175 16.0826 38.5939 16.0708 38.5702C16.2837 38.1917 16.4967 37.8249 16.6978 37.4346C16.7569 37.3163 16.7924 37.1861 16.8279 37.0678V37.0797Z" fill="#B8B7B7"/>
<path d="M48.011 29.8991C47.9282 29.7571 47.8335 29.627 47.7862 29.485C47.7389 29.3549 47.8099 29.2484 47.94 29.1893C48.2594 29.0473 48.5906 29.0473 48.9218 29.0828C49.8091 29.2011 50.6253 29.5324 51.4297 29.8991C51.8201 30.0765 52.1987 30.2776 52.5772 30.4669C52.6009 30.4669 52.6127 30.5024 52.6364 30.5142C52.6127 30.5142 52.6009 30.5379 52.5417 30.5615H52.66C52.7665 30.6798 52.8493 30.7981 52.9676 30.9164C53.145 31.0939 53.3343 31.2477 53.4881 31.4488C53.3343 31.3541 53.1805 31.2595 53.0149 31.1767C52.5299 30.9283 52.0449 30.668 51.5362 30.4432C51.063 30.2303 50.578 30.0292 50.0811 29.8636C49.5488 29.6861 48.9928 29.5442 48.425 29.6506C48.2594 29.6861 48.0819 29.6861 47.9991 29.8754L48.011 29.8991Z" fill="#B8B7B7"/>
<path d="M41.1379 35.0568C41.0551 34.8793 40.9605 34.7137 40.8895 34.5244C40.8777 34.489 40.9486 34.4061 40.996 34.3825C41.268 34.276 41.552 34.2878 41.8359 34.3825C42.4628 34.6072 42.9597 35.0095 43.4565 35.4472C44.462 36.3462 45.2901 37.399 46.1064 38.4637C46.3666 38.8068 46.615 39.1498 46.8753 39.4929C46.9463 39.5994 47.0172 39.7177 47.1001 39.8123C47.1474 39.8833 47.2184 39.9424 47.2775 40.0016C47.4313 40.0962 47.4313 40.1435 47.313 40.2145C47.313 40.2145 47.313 40.2145 47.313 40.2027C47.313 40.2027 47.3248 40.2027 47.3366 40.2145C47.4076 40.3565 47.4668 40.5103 47.5378 40.6522C47.5378 40.6522 47.5141 40.664 47.5023 40.6759C47.384 40.5102 47.2657 40.3446 47.1474 40.179C46.5914 39.4337 46.0354 38.6885 45.4676 37.9432C44.8997 37.1979 44.2491 36.5237 43.563 35.8967C43.1608 35.5418 42.7231 35.2224 42.2381 34.9976C41.966 34.8793 41.6702 34.8084 41.3745 34.8793C41.3035 34.8912 41.2444 34.974 41.1852 35.0331L41.1379 35.0568Z" fill="#B6B6B6"/>
<path d="M20.8026 38.5347C21.5006 37.9313 22.1985 37.328 22.9911 36.843C23.0739 36.7957 23.1567 36.7602 23.2514 36.7365C23.4052 36.6774 23.5589 36.7484 23.6181 36.914C23.6654 37.0678 23.6891 37.2334 23.7246 37.3872C23.5944 37.257 23.4407 37.2925 23.3105 37.3753C22.8847 37.6593 22.4351 37.9195 22.0329 38.2389C21.3231 38.8304 20.6489 39.4574 19.9509 40.0725C19.8918 40.1198 19.8326 40.1671 19.7735 40.2263C19.738 40.2263 19.7025 40.2263 19.667 40.2263C19.9272 39.8714 20.1993 39.5283 20.4596 39.1735C20.5779 39.0078 20.708 38.8304 20.8145 38.6648C20.8381 38.6293 20.8145 38.582 20.8145 38.5347H20.8026Z" fill="#B8B7B7"/>
<path d="M29.9353 40.0134C29.9235 39.2918 29.888 38.582 29.8998 37.8604C29.8998 37.5883 29.9826 37.3044 30.0418 37.0323C30.0536 36.9614 30.1128 36.8667 30.1838 36.8431C30.5741 36.6538 30.9763 36.5237 31.414 36.6065C31.8281 36.6775 32.1002 36.9495 32.2776 37.3044C32.3722 37.4819 32.4196 37.6948 32.4905 37.8841C32.3959 37.754 32.3013 37.6238 32.1948 37.5174C31.8872 37.2098 31.5205 37.1033 31.0946 37.198C30.929 37.2334 30.7752 37.2808 30.6096 37.3281C30.3021 37.3991 30.1601 37.6593 30.1483 37.9669C30.1246 38.3454 30.0655 38.7358 30.0891 39.1144C30.1246 39.8951 30.1956 40.664 30.2547 41.4448C30.2547 41.5631 30.2547 41.6814 30.2429 41.8115C30.2311 41.7524 30.2074 41.6932 30.1838 41.6104C30.1601 41.6577 30.1601 41.6814 30.1246 41.7405C30.0773 41.5158 30.0418 41.3147 30.0063 41.1254C30.0063 40.9243 30.0063 40.735 30.0063 40.5339C30.0063 40.4748 30.0063 40.4038 30.0063 40.3446C29.9945 40.2382 29.9826 40.1199 29.9708 40.0134H29.9353Z" fill="#B8B7B7"/>
<path d="M38.0506 37.6829C38.0033 37.5292 37.9205 37.3872 37.8968 37.2334C37.8495 36.8904 37.7785 36.5473 37.7904 36.2161C37.8022 35.731 38.0743 35.5063 38.5475 35.4945C39.4702 35.4708 40.2154 35.8493 40.8306 36.5118C41.3038 37.0205 41.6232 37.6238 41.9071 38.2508C41.9189 38.2863 41.9071 38.3336 41.9189 38.3691C41.8243 38.2153 41.7178 38.0733 41.6232 37.9077C41.2801 37.3281 40.8661 36.8194 40.2864 36.4763C39.7778 36.1687 39.2336 36.0386 38.6421 36.0623C38.2636 36.0741 37.9678 36.4172 37.9678 36.843C37.9678 37.0796 38.0151 37.3281 38.0506 37.5646C38.0506 37.6001 38.0506 37.6475 38.0506 37.6829Z" fill="#B6B6B6"/>
<path d="M45.9882 32.8683C45.929 32.6791 45.8581 32.4898 45.8344 32.3005C45.8226 32.1941 45.929 32.1112 46.0355 32.1822C46.2484 32.3005 46.4614 32.4188 46.6506 32.5726C47.7626 33.4717 48.7563 34.5008 49.75 35.5182C49.9866 35.7666 50.235 36.015 50.4716 36.2516C50.4953 36.2753 50.5071 36.3108 50.5308 36.3463C50.5426 36.3581 50.5663 36.3818 50.5781 36.3936C50.5781 36.3936 50.5899 36.4054 50.6017 36.4172C50.6964 36.5592 50.8028 36.713 50.8975 36.8549C51.0158 37.0442 51.1459 37.2217 51.2642 37.4109C51.1814 37.3281 51.0986 37.2571 51.0158 37.1743C50.2114 36.3581 49.4069 35.5182 48.5907 34.7138C47.9401 34.075 47.2894 33.4243 46.5323 32.892C46.4732 32.8565 46.414 32.821 46.3549 32.7855C46.1656 32.6672 46.142 32.6791 46 32.8565L45.9882 32.8683Z" fill="#B6B6B6"/>
<path d="M32.4904 43.6688C32.6323 43.2075 32.798 42.7579 32.9281 42.2966C33.1174 41.575 33.3185 40.8534 33.4604 40.1199C33.6024 39.3865 33.697 38.6294 33.5905 37.8841C33.5905 37.825 33.5905 37.7658 33.5905 37.7067C33.6615 37.9196 33.768 38.1325 33.7798 38.3573C33.8035 38.8423 33.8153 39.3273 33.7798 39.8005C33.7562 40.1791 33.6734 40.5576 33.5905 40.9362C33.5077 41.3265 33.4249 41.7169 33.3303 42.1073C33.2475 42.4267 33.1528 42.7461 33.0582 43.0537C32.9399 43.4322 32.8216 43.8226 32.6915 44.2011C32.5732 44.556 32.4431 44.9109 32.3129 45.2658C32.3011 45.2658 32.2775 45.2658 32.2656 45.2658C32.2893 45.1239 32.3129 44.9937 32.3366 44.8518C32.3958 44.5087 32.4549 44.1538 32.514 43.8108C32.514 43.7753 32.4904 43.728 32.4786 43.6925L32.4904 43.6688Z" fill="#B8B7B7"/>
<path d="M23.7839 39.3509C24.1861 38.5346 24.541 37.7066 25.1207 36.9968C25.2153 36.8667 25.3573 36.772 25.4756 36.6656C25.5939 36.5709 25.6767 36.6419 25.6885 36.7602C25.6885 36.9258 25.6649 37.0914 25.653 37.257C25.31 37.4818 25.0852 37.8249 24.8959 38.1679C24.5292 38.8422 24.198 39.5283 23.8431 40.2026C23.7839 40.3209 23.713 40.4274 23.6538 40.5457C23.7011 40.2263 23.7603 39.8951 23.8076 39.5757C23.8076 39.5047 23.7958 39.4219 23.7839 39.3509Z" fill="#B7B6B6"/>
<path d="M51.631 29.1182C51.5482 28.9645 51.4418 28.8107 51.3826 28.6451C51.3235 28.4794 51.4536 28.3611 51.631 28.4085C51.8795 28.4794 52.1279 28.5622 52.3527 28.6924C52.9086 29.0118 53.4528 29.343 53.997 29.6742C54.0206 29.6861 54.0325 29.7216 54.0561 29.7334C54.0798 29.757 54.1034 29.7925 54.1271 29.8162C54.1271 29.8162 54.1981 29.9345 54.2572 29.9818C54.6949 30.3604 55.1208 30.7389 55.5585 31.1175C55.5585 31.1411 55.5348 31.1648 55.523 31.1884C55.0971 30.8927 54.6713 30.5851 54.2336 30.3012C53.6066 29.899 52.956 29.5205 52.3053 29.1537C52.1515 29.0709 51.9741 29.0236 51.8085 28.9645C51.6784 28.9171 51.6192 28.9645 51.6192 29.0946L51.631 29.1182Z" fill="#B8B7B7"/>
<path d="M35.2585 36.8076C35.152 36.6065 35.0337 36.4054 34.9272 36.1806C35.1993 36.1096 35.4123 36.2161 35.6015 36.3107C36.1457 36.5828 36.5834 36.9968 36.9974 37.4464C37.6244 38.1207 38.1567 38.8541 38.6654 39.5994C38.7127 39.6703 38.7601 39.7413 38.8074 39.8123C38.8783 39.9069 38.9493 39.9897 39.0203 40.0844C39.0203 40.0844 39.044 40.1435 39.0558 40.179C39.0558 40.179 39.1149 40.2382 39.1386 40.2618C39.1741 40.321 39.1977 40.3801 39.2332 40.4393C39.1859 40.4038 39.1386 40.3565 39.0676 40.3091C39.0676 40.3565 39.0558 40.4038 39.0558 40.4511C38.9257 40.2618 38.7837 40.0725 38.6536 39.8951C38.275 39.3864 37.8847 38.8778 37.4943 38.3809C37.1157 37.8841 36.6544 37.4582 36.1457 37.1033C35.9209 36.9495 35.6489 36.8549 35.3886 36.7484C35.3649 36.7366 35.3058 36.7957 35.2585 36.8194V36.8076Z" fill="#B6B6B6"/>
<path d="M44.1662 33.9212C44.0952 33.7437 44.0361 33.5545 43.9651 33.377C43.9414 33.306 43.9414 33.2232 43.9296 33.1523C43.8823 32.8447 44.0716 32.6909 44.3673 32.7855C44.7577 32.9038 45.0889 33.1168 45.3846 33.377C45.9288 33.8502 46.4493 34.3352 46.9816 34.8202C46.9816 34.8557 46.9816 34.9031 46.9816 34.9267C47.0999 35.116 47.2301 35.3053 47.3602 35.4945C47.372 35.5182 47.372 35.5419 47.3957 35.6247C47.1473 35.3762 46.9343 35.1633 46.7214 34.9622C46.2127 34.4772 45.704 34.004 45.1126 33.6373C44.9469 33.5308 44.7695 33.448 44.5802 33.3889C44.2017 33.2706 44.0479 33.4243 44.1189 33.8029C44.1189 33.8384 44.1307 33.8857 44.1425 33.9212H44.1662Z" fill="#B7B6B6"/>
<path d="M52.447 27.8171C52.3878 27.7342 52.3287 27.6633 52.2695 27.5805C52.1039 27.2966 52.2104 27.0836 52.5534 27.0836C52.861 27.0836 53.1804 27.1309 53.488 27.1664C53.6299 27.1783 53.7719 27.2256 53.9138 27.2492C53.9493 27.2847 53.973 27.3439 54.0085 27.3675C54.4817 27.616 54.9548 27.8525 55.4162 28.1246C55.3334 28.1128 55.2388 28.1128 55.1559 28.0891C54.8365 28.0063 54.5171 27.8999 54.1859 27.8289C53.7009 27.7224 53.2159 27.6278 52.719 27.6751C52.6126 27.6751 52.4706 27.6514 52.4351 27.8171H52.447Z" fill="#B8B7B7"/>
<path d="M47.9872 32.194C47.9281 31.9811 47.8453 31.7799 47.8216 31.567C47.798 31.3659 47.9281 31.224 48.1292 31.2121C48.5551 31.1648 48.9454 31.2949 49.324 31.496C49.3121 31.496 49.2885 31.5197 49.2767 31.5197C49.2885 31.5197 49.3121 31.5197 49.324 31.5197C49.3595 31.567 49.3831 31.6262 49.4186 31.6617C49.809 31.9692 50.1994 32.2768 50.5661 32.608C50.4005 32.5134 50.2467 32.4069 50.0692 32.3359C49.6315 32.1467 49.2057 31.9456 48.7562 31.7918C48.5905 31.7326 48.3658 31.7918 48.1765 31.8154C48.0464 31.8391 47.9754 31.9456 47.9991 32.0875C47.9991 32.1112 47.9754 32.1467 47.9636 32.1822L47.9872 32.194Z" fill="#B8B7B7"/>
<path d="M33.5199 37.4227C33.4252 37.1979 33.3306 36.9732 33.2241 36.7366C33.7801 37.127 34.277 37.5646 34.7265 38.0497C35.3416 38.7358 35.8266 39.5047 36.2052 40.3328C36.2643 40.4511 36.2998 40.593 36.3471 40.7232C36.2525 40.5812 36.1579 40.4393 36.0751 40.2855C35.5546 39.2799 34.833 38.44 33.9694 37.7184C33.8274 37.6001 33.6736 37.5173 33.5199 37.4227Z" fill="#B4B3B3"/>
<path d="M52.0923 25.7941C51.9149 25.6522 51.7256 25.5221 51.5718 25.3565C51.489 25.2736 51.5245 25.1553 51.6665 25.1435C52.0923 25.1199 52.4945 25.2382 52.8849 25.4038C52.9204 25.4274 52.9559 25.4393 52.9914 25.4629C53.0742 25.5339 53.157 25.6049 53.2516 25.664C53.5829 25.8888 53.9141 26.1017 54.2453 26.3265C54.2572 26.3265 54.269 26.362 54.3045 26.4093C54.0561 26.3147 53.8313 26.22 53.6065 26.149C53.1688 26.0071 52.7193 25.877 52.2816 25.7468C52.2343 25.735 52.1751 25.7705 52.116 25.7941H52.0923Z" fill="#B8B7B7"/>
<path d="M55.3334 21.7603C55.156 21.7248 54.9904 21.7011 54.7656 21.6538C54.8366 21.5947 54.8603 21.5592 54.8958 21.5355C55.9131 20.8849 56.7412 20.0332 57.4746 19.075C57.6876 18.791 57.9005 18.5071 58.1134 18.2351C58.1371 18.2114 58.1726 18.1996 58.1962 18.1759C58.1134 18.3297 58.0543 18.5071 57.9478 18.6491C57.3445 19.5127 56.7175 20.3644 55.9486 21.1097C55.7711 21.2871 55.5819 21.4527 55.4044 21.6183C55.3689 21.6538 55.3453 21.7248 55.3216 21.7721L55.3334 21.7603Z" fill="#B4B3B3"/>
<path d="M25.854 17.1112C25.7357 17.1704 25.6293 17.2532 25.511 17.2768C24.7066 17.4661 23.8785 17.6199 23.0741 17.8328C22.1159 18.0812 21.1695 18.3888 20.2231 18.6727C20.1758 18.6845 20.1167 18.6845 20.0693 18.6964C20.2113 18.6254 20.3414 18.5426 20.4952 18.4953C20.9802 18.3297 21.4771 18.164 21.9739 18.0103C22.3288 17.9038 22.6837 17.821 23.0504 17.7263C23.5473 17.5962 24.0441 17.4661 24.5409 17.3478C24.8249 17.2768 25.1088 17.2413 25.3927 17.194C25.5465 17.1704 25.7121 17.1467 25.8659 17.123L25.854 17.1112Z" fill="#B5D8E9"/>
<path d="M51.5835 20.9559C51.4179 20.9441 51.2404 20.9322 51.0748 20.9204C51.0748 20.9086 51.0748 20.8849 51.063 20.8731C51.1931 20.7666 51.3114 20.6483 51.4415 20.5419C52.246 19.8321 52.9321 19.0277 53.5236 18.1404C53.5472 18.1049 53.5827 18.0931 53.6182 18.0695C53.5709 18.1759 53.5472 18.2942 53.4881 18.377C52.8966 19.2643 52.2696 20.1278 51.477 20.8731C51.5125 20.9086 51.5598 20.9322 51.5953 20.9677L51.5835 20.9559Z" fill="#B4B3B3"/>
<path d="M37.1868 44.4732C37.1987 44.1065 37.2223 43.7279 37.2342 43.3612C37.2342 42.7461 37.1277 42.1427 36.9976 41.5276C36.9976 41.4921 36.9976 41.4448 36.9976 41.4093C37.0212 41.4566 37.0685 41.4921 37.0804 41.5394C37.3406 42.5686 37.5062 43.6096 37.4353 44.6743C37.4116 44.9464 37.3524 45.2303 37.3051 45.5024C37.2815 45.5024 37.2578 45.5024 37.2342 45.5024C37.2342 45.2303 37.2342 44.9464 37.2342 44.6743C37.2342 44.6033 37.2105 44.5442 37.1987 44.4732H37.1868Z" fill="#B6B6B6"/>
<path d="M48.3067 19.4298C48.1056 19.5008 47.9045 19.5718 47.7152 19.6428C47.7152 19.6309 47.6915 19.6073 47.6797 19.5955C47.8216 19.4653 47.9754 19.3234 48.1174 19.1814C48.7917 18.519 49.4423 17.8328 49.9746 17.0521C49.9865 17.0284 50.022 17.0166 50.0456 17.0048C50.0101 17.0994 49.9746 17.2059 49.9155 17.3005C49.4541 17.9866 48.9691 18.6609 48.3776 19.2406C48.3303 19.2879 48.3185 19.3707 48.2948 19.4417L48.3067 19.4298Z" fill="#B4B3B3"/>
<path d="M42.9124 42.3793C43.1608 41.8115 43.078 41.2318 42.9952 40.6522C42.9478 40.2855 42.8532 39.9306 42.7822 39.5638C42.8414 39.7413 42.9242 39.9306 42.9715 40.108C43.0425 40.3801 43.1135 40.664 43.1489 40.9361C43.2318 41.5394 43.3855 42.1427 43.1844 42.746C43.1608 42.8288 43.1135 42.9116 43.078 42.9826C43.0661 42.9826 43.0543 42.9826 43.0306 42.9826C43.007 42.817 42.9952 42.6396 42.9715 42.4739C42.9715 42.4384 42.9242 42.403 42.9005 42.3793H42.9124Z" fill="#B8B7B7"/>
<path d="M49.8566 20.4116C49.6909 20.4708 49.5253 20.5299 49.3242 20.6009C49.5253 20.3761 49.7028 20.1869 49.8802 20.0094C50.4717 19.4179 50.9922 18.7555 51.4654 18.0575C51.489 18.022 51.5364 17.9865 51.5719 17.951C51.5245 18.0457 51.489 18.1522 51.4417 18.2468C50.9804 18.9802 50.4835 19.69 49.892 20.3406C49.8802 20.3643 49.8802 20.388 49.8684 20.4234L49.8566 20.4116Z" fill="#B4B3B3"/>
<path d="M44.9828 19.8201C44.9118 19.7965 44.829 19.7846 44.7344 19.761C44.8882 19.5717 45.0301 19.4061 45.1839 19.2287C45.8464 18.4479 46.4497 17.6198 46.9938 16.7563C47.0175 16.7208 47.053 16.6853 47.0885 16.6616C47.0175 16.8036 46.9583 16.9455 46.8755 17.0757C46.3787 17.7973 45.8818 18.507 45.385 19.2168C45.3613 19.2641 45.3377 19.3115 45.314 19.3588C45.2076 19.5126 45.0893 19.6664 44.9828 19.8201Z" fill="#9BADB5"/>
<path d="M42.2144 17.8447C42.0961 17.8447 41.966 17.8328 41.8477 17.821C41.8477 17.8092 41.8477 17.7855 41.8477 17.7737C42.3208 17.407 42.6994 16.9693 43.0543 16.5079C43.35 16.1294 43.6103 15.7272 43.8824 15.325C43.9178 15.2776 43.9652 15.2422 44.0007 15.2067C43.8705 15.4314 43.7522 15.6799 43.5984 15.8928C43.1607 16.5079 42.7112 17.1231 42.2617 17.7264C42.238 17.7619 42.238 17.7974 42.2262 17.8328L42.2144 17.8447Z" fill="#B4B3B3"/>
<path d="M44.9824 19.8202C45.0889 19.6665 45.2072 19.5127 45.3137 19.3589C45.4793 19.4654 45.6331 19.5836 45.7987 19.6901C45.6922 19.7256 45.5857 19.7493 45.4793 19.7848C45.4438 19.7848 45.3965 19.8084 45.361 19.8202C45.2308 19.8202 45.1125 19.8202 44.9824 19.8202Z" fill="#BAE5FA"/>
<path d="M26.3863 16.2358C26.3153 16.5316 26.1852 16.7918 25.9604 17.0048C26.0551 16.6499 26.1497 16.295 26.2444 15.9756C26.2798 16.0466 26.339 16.1412 26.3863 16.2358Z" fill="#B8B7B7"/>
<path d="M44.1074 18.6964C43.9063 18.8029 43.6224 18.7674 43.4804 18.6136C43.4449 18.5781 43.4449 18.4953 43.4331 18.4362C43.5987 18.5071 43.7643 18.5781 43.93 18.6373C43.9891 18.6609 44.0482 18.6728 44.1074 18.6846V18.6964Z" fill="#B5D8E9"/>
<path d="M29.3439 16.6616C29.1074 16.8746 28.8234 16.8864 28.646 16.6971C28.8826 16.6971 29.1074 16.6735 29.3439 16.6616Z" fill="#B5D8E9"/>
<path d="M47.2657 40.0253C47.2066 39.9661 47.1356 39.907 47.0883 39.836C47.0055 39.7296 46.9463 39.6231 46.8635 39.5166C46.8635 39.4338 46.8517 39.3628 46.8398 39.28C46.9818 39.5285 47.1238 39.7769 47.2539 40.0253H47.2657Z" fill="#6D6C6C"/>
<path d="M39.0441 40.4393C39.0441 40.4393 39.0441 40.3565 39.0559 40.2974C39.115 40.3447 39.1742 40.392 39.2215 40.4275C39.257 40.4748 39.3043 40.5103 39.3043 40.5576C39.328 40.6759 39.3161 40.7942 39.328 40.9835C39.2333 40.8179 39.1742 40.6877 39.1032 40.5694C39.0795 40.5221 39.0559 40.4748 39.0322 40.4275L39.0441 40.4393Z" fill="#D5D4D4"/>
<path d="M55.5467 30.6917C55.7241 30.8336 55.9016 30.9637 56.079 31.1057C56.0672 31.1293 56.0435 31.153 56.0317 31.1767C55.8424 31.0347 55.6531 30.8928 55.4639 30.739C55.4875 30.7271 55.523 30.7035 55.5467 30.6917Z" fill="#8CA7B4"/>
<path d="M40.7713 17.4306C40.5938 17.5489 40.4046 17.5962 40.168 17.5252C40.2035 17.4542 40.2389 17.3951 40.2626 17.3359C40.4164 17.4542 40.5938 17.4542 40.7713 17.4306Z" fill="#B5D8E9"/>
<path d="M23.6064 43.3494C23.5827 43.4204 23.5709 43.4796 23.5472 43.5505C23.5709 43.5505 23.5946 43.5505 23.6064 43.5624L23.3461 44.0829C23.3461 44.0829 23.3107 44.071 23.2988 44.0592C23.4053 43.8226 23.5118 43.586 23.6064 43.3494Z" fill="#6D6C6C"/>
<path d="M55.5347 31.2121C55.5347 31.2121 55.5583 31.1648 55.5702 31.1411C55.7358 31.2831 55.9014 31.425 56.0788 31.5552C56.0788 31.5552 56.0788 31.5552 56.0788 31.567C55.9014 31.4487 55.7239 31.3304 55.5465 31.2121H55.5347Z" fill="#D5D4D4"/>
<path d="M41.3982 14.97C41.3982 14.97 41.3391 14.9109 41.3154 14.8872C41.3982 14.7689 41.4692 14.6388 41.552 14.5205C41.5757 14.5442 41.5993 14.5678 41.6112 14.5797C41.5402 14.7098 41.4692 14.8399 41.3982 14.9582V14.97Z" fill="#6D6C6C"/>
<path d="M19.5017 39.5994C19.5017 39.5994 19.5017 39.6703 19.5017 39.7177C19.3716 39.8478 19.2415 39.9661 19.1113 40.0962C19.2415 39.9306 19.3598 39.765 19.4899 39.5994H19.5017Z" fill="#8CA7B4"/>
<path d="M41.6114 14.5915C41.6114 14.5915 41.5641 14.5442 41.5522 14.5323C41.6587 14.3549 41.7652 14.1775 41.8716 14.0118C41.8835 14.0118 41.9071 14.0237 41.919 14.0355C41.8125 14.2248 41.7179 14.414 41.6114 14.6033V14.5915Z" fill="#B8B7B7"/>
<path d="M50.8973 36.8668C50.8027 36.7248 50.6962 36.571 50.6016 36.4291C50.7199 36.5355 50.8263 36.6302 50.9446 36.7366C50.9446 36.7603 50.9446 36.7958 50.9446 36.8195C50.921 36.8313 50.9091 36.8549 50.8855 36.8668H50.8973Z" fill="#D5D4D4"/>
<path d="M11.4694 37.5529C11.4694 37.5529 11.5286 37.5883 11.5522 37.6002C11.4339 37.6948 11.3156 37.7895 11.1855 37.8959C11.1737 37.8841 11.1618 37.8604 11.1382 37.8486C11.2447 37.754 11.3511 37.6475 11.4576 37.5529H11.4694Z" fill="#6D6C6C"/>
<path d="M48.0348 15.0055C48.0348 15.0055 48.0348 14.8872 48.0348 14.8281C48.1294 14.7216 48.2241 14.6151 48.3069 14.5087C48.2122 14.6743 48.1176 14.8399 48.0229 14.9937L48.0348 15.0055Z" fill="#6D6C6C"/>
<path d="M29.9825 40.5339C29.9825 40.735 29.9825 40.9243 29.9825 41.1254C29.9588 40.9953 29.947 40.8533 29.9233 40.7232C29.947 40.6641 29.9588 40.5931 29.9825 40.5339Z" fill="#6D6C6C"/>
<path d="M55.5465 30.6917C55.5465 30.6917 55.4873 30.7272 55.4637 30.739C55.3454 30.6562 55.2389 30.5616 55.1206 30.4788C55.1679 30.4788 55.2152 30.4788 55.2626 30.4788C55.3572 30.5497 55.4518 30.6207 55.5465 30.6917Z" fill="#6D6C6C"/>
<path d="M60.7279 19.0276C60.7279 19.0276 60.7042 18.9566 60.6924 18.9211C60.7752 18.8265 60.858 18.7437 60.9408 18.649C60.9645 18.6609 60.9763 18.6845 61 18.6964C60.9053 18.8028 60.8225 18.9093 60.7279 19.0158V19.0276Z" fill="#6D6C6C"/>
<path d="M50.9565 36.8194C50.9565 36.8194 50.9565 36.7602 50.9565 36.7366C50.9565 36.7011 50.9565 36.6656 50.9565 36.6183C51.0512 36.7366 51.1576 36.843 51.2523 36.9613C51.2286 36.985 51.205 36.9968 51.1931 37.0205C51.1222 36.9495 51.0394 36.8904 50.9684 36.8194H50.9565Z" fill="#6D6C6C"/>
<path d="M11.5403 38.2626C11.5403 38.2626 11.5758 38.2862 11.5876 38.3099C11.4693 38.4164 11.3629 38.5228 11.2446 38.6293C11.2328 38.6175 11.2091 38.5938 11.1973 38.582C11.3156 38.4755 11.422 38.3809 11.5403 38.2744V38.2626Z" fill="#D5D4D4"/>
<path d="M23.7129 44.1183C23.7129 44.1183 23.7129 44.2366 23.7129 44.2957C23.6656 44.4022 23.6183 44.5087 23.5591 44.6151C23.5355 44.6151 23.5237 44.6033 23.5 44.5915C23.5591 44.4377 23.571 44.2602 23.7011 44.1183H23.7129Z" fill="#D5D4D4"/>
<path d="M32.7391 14.6625C32.7391 14.6625 32.7154 14.5678 32.7036 14.5205C32.7628 14.4259 32.8101 14.3431 32.8692 14.2484C32.8929 14.2484 32.9047 14.2721 32.9284 14.2721C32.8692 14.4022 32.7983 14.5323 32.7391 14.6625Z" fill="#6D6C6C"/>
<path d="M51.1812 37.0205C51.1812 37.0205 51.2285 36.985 51.2403 36.9613C51.3231 37.0796 51.4059 37.1861 51.4887 37.3044C51.4887 37.3044 51.4769 37.3162 51.4651 37.328L51.1812 37.0205Z" fill="#8CA7B4"/>
<path d="M51.5717 37.7776C51.4653 37.6712 51.3588 37.5647 51.2642 37.4582C51.276 37.4464 51.2878 37.4346 51.3115 37.4227C51.4061 37.541 51.5007 37.6593 51.5836 37.7776H51.5717Z" fill="#D5D4D4"/>
<path d="M19.6552 40.2263C19.6552 40.2263 19.7261 40.2263 19.7616 40.2263C19.6552 40.3328 19.5605 40.4393 19.4541 40.5575C19.4422 40.5457 19.4186 40.5221 19.4067 40.5102C19.4895 40.4156 19.5724 40.321 19.6552 40.2263Z" fill="#D5D4D4"/>
<path d="M39.0206 40.0844C38.9496 39.9897 38.8786 39.9069 38.8076 39.8123C38.8194 39.7768 38.8313 39.7413 38.8431 39.7058C38.9023 39.8359 38.9614 39.9542 39.0206 40.0844Z" fill="#6D6C6C"/>
<path d="M51.2999 32.6199C51.4537 32.679 51.5957 32.75 51.6785 32.892C51.6785 32.9038 51.6548 32.9156 51.643 32.9393C51.5247 32.8328 51.4064 32.7382 51.2881 32.6317L51.2999 32.6199Z" fill="#D5D4D4"/>
<path d="M58.208 18.164C58.279 18.0575 58.35 17.9511 58.4091 17.8446C58.3381 17.9511 58.2672 18.0575 58.208 18.164Z" fill="#B4B3B3"/>
<path d="M20.0575 18.6964C19.9274 18.7437 19.7854 18.7792 19.6553 18.8265C19.7854 18.7792 19.9274 18.7437 20.0575 18.6964Z" fill="#B5D8E9"/>
<path d="M36.9858 41.3501C36.9503 41.2318 36.9266 41.1135 36.8911 40.9952C36.9266 41.1135 36.9503 41.2318 36.9858 41.3501Z" fill="#B6B6B6"/>
<path d="M56.3036 31.7799C56.2208 31.709 56.138 31.6498 56.0552 31.5788C56.0552 31.5788 56.0552 31.5788 56.0552 31.567C56.138 31.638 56.209 31.709 56.2918 31.7799H56.3036Z" fill="#E6F3F9"/>
<path d="M42.818 42.1428C42.8535 42.2137 42.8771 42.2965 42.9126 42.3675C42.8298 42.4385 42.818 42.4385 42.8062 42.3557C42.8062 42.2847 42.8062 42.2137 42.8062 42.1428H42.818Z" fill="#B8B7B7"/>
<path d="M52.1042 20.9321C52.0096 20.9321 51.9149 20.9434 51.8203 20.9547C51.9149 20.9547 52.0096 20.9434 52.1042 20.9321Z" fill="#B4B3B3"/>
<path d="M38.4054 38.724C38.3699 38.6293 38.3226 38.5229 38.2871 38.4282C38.3226 38.5229 38.3699 38.6293 38.4054 38.724Z" fill="#6D6C6C"/>
<path d="M2.59679 33.306C2.49032 33.3651 2.39568 33.3533 2.32471 33.2586C2.38386 33.2586 2.45483 33.2468 2.51398 33.235C2.53764 33.2586 2.57313 33.2823 2.59679 33.3178V33.306Z" fill="#D5D4D4"/>
<path d="M40.9371 15.384C40.878 15.4432 40.8306 15.5023 40.7715 15.5733C40.8306 15.5142 40.878 15.455 40.9371 15.384Z" fill="#6D6C6C"/>
<path d="M47.1592 16.5552C47.2065 16.4842 47.242 16.4133 47.2893 16.3423C47.242 16.4133 47.2065 16.4842 47.1592 16.5552Z" fill="#9BADB5"/>
<path d="M58.4209 17.821C58.4564 17.7618 58.5037 17.6909 58.5392 17.6317C58.5037 17.6909 58.4564 17.7618 58.4209 17.821Z" fill="#B4B3B3"/>
<path d="M32.5972 15.2539C32.609 15.183 32.6208 15.112 32.6327 15.041C32.6208 15.112 32.609 15.183 32.5972 15.2539Z" fill="#6D6C6C"/>
<path d="M19.6318 18.8384C19.549 18.8739 19.4544 18.9094 19.3716 18.9448C19.4544 18.9094 19.549 18.8739 19.6318 18.8384Z" fill="#B5D8E9"/>
<path d="M51.1221 32.5134C51.1221 32.5134 51.2404 32.5844 51.2995 32.6199C51.2404 32.5844 51.1812 32.5489 51.1221 32.5134Z" fill="#D5D4D4"/>
<path d="M56.4812 31.8865C56.4812 31.8865 56.3629 31.8155 56.3037 31.78C56.3629 31.8155 56.422 31.851 56.4812 31.8865Z" fill="#E6F3F9"/>
<path d="M16.0472 38.724C16.0472 38.724 15.9526 38.8186 15.9053 38.866C15.9408 38.8186 15.9763 38.7713 15.9999 38.724C16.0117 38.724 16.0236 38.724 16.0472 38.724Z" fill="#D5D4D4"/>
<path d="M36.3945 40.8533C36.43 40.9242 36.4537 40.9952 36.4892 41.078C36.4537 41.0071 36.43 40.9361 36.3945 40.8533Z" fill="#B4B3B3"/>
<path d="M42.7585 39.3982C42.7348 39.3272 42.7112 39.2444 42.6875 39.1735C42.7112 39.2444 42.7348 39.3272 42.7585 39.3982Z" fill="#B8B7B7"/>
<path d="M32.6445 14.9818C32.6682 14.9109 32.6918 14.8281 32.7273 14.7571C32.7037 14.8281 32.68 14.9109 32.6445 14.9818Z" fill="#6D6C6C"/>
<path d="M15.7871 39.0434C15.8226 38.9843 15.8581 38.9251 15.8936 38.866C15.8581 38.9251 15.8226 38.9843 15.7871 39.0316V39.0434Z" fill="#D5D4D4"/>
<path d="M41.3156 14.8872C41.3156 14.8872 41.2446 14.9937 41.1973 15.041C41.2328 14.9937 41.2682 14.9345 41.3156 14.8872Z" fill="#6D6C6C"/>
<path d="M58.563 17.608L58.6576 17.4305C58.6221 17.4897 58.5866 17.5488 58.563 17.608Z" fill="#B4B3B3"/>
<path d="M38.5828 39.1498C38.5591 39.0907 38.5237 39.0197 38.5 38.9606C38.5237 39.0197 38.5591 39.0907 38.5828 39.1498Z" fill="#6D6C6C"/>
<path d="M51.5718 17.9511C51.5718 17.9511 51.6428 17.8328 51.6782 17.7737C51.6428 17.8328 51.6073 17.892 51.5718 17.9511Z" fill="#B4B3B3"/>
<path d="M53.6064 18.0576C53.6064 18.0576 53.6774 17.963 53.7011 17.9156C53.6656 17.963 53.6301 18.0103 53.6064 18.0576Z" fill="#B4B3B3"/>
<path d="M52.4588 20.873C52.3997 20.8844 52.3287 20.907 52.2695 20.9183C52.3287 20.907 52.3997 20.8844 52.4588 20.873Z" fill="#B4B3B3"/>
<path d="M41.9424 38.3927C41.9779 38.4518 42.0015 38.5228 42.037 38.582C42.0015 38.5228 41.9779 38.4518 41.9424 38.3927Z" fill="#B6B6B6"/>
<path d="M46.4497 38.582C46.4142 38.5228 46.3788 38.4637 46.3433 38.4045C46.3788 38.4637 46.4142 38.5228 46.4497 38.582Z" fill="#6D6C6C"/>
<path d="M38.7245 39.4575C38.689 39.3983 38.6654 39.3273 38.6299 39.2682C38.6654 39.3273 38.689 39.3983 38.7245 39.4575Z" fill="#6D6C6C"/>
<path d="M53.7129 17.8801C53.7129 17.8801 53.7839 17.7855 53.8194 17.7382C53.7839 17.7855 53.7484 17.8328 53.7129 17.8801Z" fill="#B4B3B3"/>
<path d="M32.6559 15.8217L32.585 15.6443C32.6086 15.7034 32.6323 15.7626 32.6559 15.8217Z" fill="#6D6C6C"/>
<path d="M47.5496 40.7231C47.5496 40.7231 47.597 40.7823 47.6206 40.8178C47.6088 40.8178 47.597 40.8296 47.5851 40.8414C47.5615 40.806 47.5378 40.7705 47.5142 40.7468C47.526 40.7468 47.5378 40.735 47.5496 40.7231Z" fill="#B6B6B6"/>
<path d="M47.3013 16.3067C47.3013 16.3067 47.3604 16.2003 47.3841 16.153C47.3604 16.2003 47.3249 16.2594 47.3013 16.3067Z" fill="#9BADB5"/>
<path d="M46.5561 38.7595C46.5561 38.7595 46.4969 38.653 46.4614 38.6057C46.4969 38.653 46.5206 38.7122 46.5561 38.7595Z" fill="#6D6C6C"/>
<path d="M51.1223 32.5134C51.1223 32.5134 51.0395 32.478 50.9922 32.4543C50.9922 32.4425 51.0158 32.4188 51.0277 32.407C51.0632 32.4425 51.0987 32.478 51.1341 32.5016L51.1223 32.5134Z" fill="#D5D4D4"/>
<path d="M46.6508 38.9369C46.6508 38.9369 46.5916 38.8304 46.5562 38.7831C46.5916 38.8304 46.6153 38.8895 46.6508 38.9369Z" fill="#6D6C6C"/>
<path d="M39.0439 40.4393C39.0439 40.4393 39.0913 40.534 39.1149 40.5813C39.0913 40.534 39.0676 40.4866 39.0439 40.4393Z" fill="#B6B6B6"/>
<path d="M15.7871 39.0433C15.7871 39.0433 15.7516 39.1143 15.728 39.1498C15.7162 39.1498 15.7043 39.1261 15.6807 39.1143C15.7162 39.0907 15.7398 39.067 15.7753 39.0552L15.7871 39.0433Z" fill="#D5D4D4"/>
<path d="M51.5835 37.7657L51.69 37.8249C51.69 37.8249 51.6663 37.8486 51.6545 37.8722C51.6308 37.8367 51.6072 37.8012 51.5835 37.7776V37.7657Z" fill="#D5D4D4"/>
<path d="M56.4927 31.8865C56.4927 31.8865 56.5637 31.922 56.5991 31.9456C56.5873 31.9575 56.5755 31.9693 56.5637 31.9929C56.54 31.9575 56.5163 31.9338 56.4927 31.8983V31.8865Z" fill="#E6F3F9"/>
<path d="M19.3478 18.9448C19.3478 18.9448 19.265 18.9787 19.2295 19.0013C19.265 18.9787 19.3123 18.9674 19.3478 18.9448Z" fill="#B5D8E9"/>
<path d="M16.071 38.582C16.071 38.582 16.0947 38.6293 16.1065 38.653C16.0829 38.6767 16.0592 38.7003 16.0474 38.7358C16.0474 38.7003 16.0474 38.6648 16.0474 38.6293C16.0474 38.6293 16.071 38.6057 16.0829 38.5939L16.071 38.582Z" fill="#D5D4D4"/>
<path d="M36.8676 40.877C36.8676 40.877 36.8321 40.7942 36.8203 40.7587C36.8321 40.7942 36.8558 40.8415 36.8676 40.877Z" fill="#B6B6B6"/>
<path d="M56.1852 21.7366C56.1852 21.7366 56.1024 21.7479 56.0669 21.7592C56.1024 21.7592 56.1497 21.7479 56.1852 21.7366Z" fill="#B4B3B3"/>
<path d="M47.0884 16.6616C47.0884 16.6616 47.1357 16.5907 47.1594 16.5552C47.1357 16.5907 47.112 16.6262 47.0884 16.6616Z" fill="#9BADB5"/>
<path d="M38.4761 38.9014C38.4761 38.9014 38.4407 38.8304 38.417 38.7831C38.4407 38.8186 38.4525 38.8541 38.4761 38.9014Z" fill="#6D6C6C"/>
<path d="M32.7389 15.9164C32.7389 15.9164 32.6916 15.8454 32.668 15.8218C32.6916 15.8573 32.7153 15.8928 32.7389 15.9164Z" fill="#6D6C6C"/>
<path d="M41.1262 15.1593C41.1262 15.1593 41.0788 15.2184 41.0552 15.2539C41.0788 15.2184 41.1025 15.1948 41.1262 15.1593Z" fill="#6D6C6C"/>
<path d="M46.8282 39.2563C46.8282 39.2563 46.7927 39.1971 46.769 39.1735C46.7927 39.1971 46.8045 39.2326 46.8282 39.2563Z" fill="#6D6C6C"/>
<path d="M29.4387 16.5907C29.4387 16.5907 29.3913 16.6246 29.3677 16.6472C29.3913 16.6246 29.415 16.6133 29.4387 16.5907Z" fill="#B5D8E9"/>
<path d="M40.7165 15.6206C40.7165 15.6206 40.6926 15.651 40.6768 15.6586C40.6926 15.6434 40.7006 15.6282 40.7165 15.6206Z" fill="#6D6C6C"/>
<path d="M55.2272 30.4432C55.2272 30.4432 55.1799 30.3959 55.1562 30.3722C55.1799 30.3959 55.2036 30.4195 55.2272 30.4432Z" fill="#6D6C6C"/>
<path d="M51.489 37.3044C51.489 37.3044 51.5127 37.3518 51.5363 37.3636C51.5245 37.3636 51.5127 37.3754 51.489 37.3873C51.489 37.3636 51.4772 37.3518 51.4653 37.3281C51.4653 37.3281 51.4772 37.3163 51.489 37.3044Z" fill="#8CA7B4"/>
<path d="M41.0552 15.2539C41.0552 15.2539 41.0079 15.3012 40.9961 15.3249C41.0198 15.3012 41.0434 15.2776 41.0552 15.2539Z" fill="#6D6C6C"/>
<path d="M33.5672 37.5765C33.5672 37.5765 33.5436 37.5173 33.5317 37.4937C33.5317 37.5173 33.5554 37.5528 33.5672 37.5765Z" fill="#B4B3B3"/>
<path d="M13.3974 34.9977C13.3974 34.9977 13.3619 35.0568 13.3501 35.0805C13.3619 35.0568 13.3856 35.0213 13.3974 34.9977Z" fill="#B7B6B6"/>
<path d="M41.1851 15.0765C41.1851 15.0765 41.1496 15.1239 41.126 15.1593C41.1496 15.1357 41.1615 15.112 41.1851 15.0765Z" fill="#6D6C6C"/>
<path d="M19.7501 39.28C19.7501 39.28 19.7146 39.3273 19.6909 39.351C19.7146 39.3273 19.7264 39.3037 19.7501 39.28Z" fill="#8CA7B4"/>
<path d="M46.7216 39.0434C46.7216 39.0434 46.6861 38.9961 46.6743 38.9606C46.6861 38.9842 46.7098 39.0079 46.7216 39.0434Z" fill="#6D6C6C"/>
<path d="M1 32.265C1 32.265 1.02383 32.265 1.03971 32.2726C1.03971 32.2726 1.03971 32.2802 1.03971 32.2878C1.02383 32.2878 1.01588 32.2878 1 32.2878V32.2726V32.265Z" fill="#3A3838"/>
<path d="M38.7605 39.5639C38.7605 39.5639 38.7486 39.5166 38.7368 39.4929C38.7368 39.5166 38.7486 39.5402 38.7605 39.5639Z" fill="#6D6C6C"/>
<path d="M58.6694 17.3951C58.6694 17.3951 58.7049 17.3359 58.7286 17.3123C58.7049 17.3359 58.6931 17.3714 58.6694 17.3951Z" fill="#B4B3B3"/>
<path d="M32.2539 45.4314V45.3486C32.2539 45.3486 32.2539 45.3486 32.2657 45.3486V45.4314C32.2657 45.4314 32.2657 45.4314 32.2539 45.4314Z" fill="#B8B7B7"/>
<path d="M23.6535 40.5458C23.6535 40.5458 23.6535 40.5931 23.6535 40.6168H23.6299C23.6299 40.6168 23.6535 40.5694 23.6535 40.5458Z" fill="#B7B6B6"/>
<path d="M16.0356 38.6176C16.0356 38.6176 16.0356 38.6885 16.0356 38.724C16.0238 38.724 16.0119 38.724 15.9883 38.724C16.0001 38.6885 16.0119 38.653 16.0356 38.6176Z" fill="#B8B7B7"/>
<path d="M39.139 40.2619C39.139 40.2619 39.0798 40.2027 39.0562 40.1672C39.0798 40.2027 39.1153 40.2264 39.139 40.2619Z" fill="#6D6C6C"/>
<path d="M19.194 19.0039C19.194 19.0039 19.1467 19.0265 19.123 19.0378C19.1467 19.0378 19.1704 19.0152 19.194 19.0039Z" fill="#B5D8E9"/>
<path d="M47.6267 40.9243V40.9301V40.9359L47.6206 40.9301L47.6267 40.9243Z" fill="#B6B6B6"/>
<path d="M39.056 40.179C39.056 40.179 39.0323 40.1198 39.0205 40.0844C39.0323 40.1198 39.0442 40.1435 39.056 40.179Z" fill="#6D6C6C"/>
<path d="M23.2803 44.1538L23.2754 44.1585H23.2803V44.1538Z" fill="#6D6C6C"/>
<path d="M51.2842 37.4227C51.2842 37.4227 51.2683 37.4379 51.2524 37.4455C51.2524 37.4455 51.2524 37.4303 51.2524 37.4227C51.2604 37.4227 51.2683 37.4227 51.2763 37.4227H51.2842Z" fill="#B6B6B6"/>
<path d="M19.1162 40.0844L19.1113 40.089H19.1162V40.0844Z" fill="#8CA7B4"/>
<path d="M38.8205 39.6887C38.8205 39.6887 38.8076 39.6764 38.8076 39.6703C38.8076 39.6764 38.8205 39.6826 38.8205 39.6887Z" fill="#6D6C6C"/>
<path d="M19.5136 20.9322C19.5136 21.0031 19.49 21.0741 19.4781 21.1451C19.3953 21.5355 19.277 21.9258 19.2415 22.3162C19.206 22.7421 19.1942 23.168 19.2415 23.5938C19.3243 24.2563 19.4426 24.9069 19.6083 25.5457C19.7147 25.9716 19.904 26.3856 20.0696 26.7997C20.3299 27.4266 20.6729 28.0181 21.0751 28.5741C21.9505 29.7807 23.0389 30.7508 24.3283 31.496C24.5885 31.6498 24.8724 31.7563 25.1327 31.8864C25.1682 31.9101 25.1918 31.9337 25.2273 31.9456C25.6769 32.123 26.1264 32.2886 26.5759 32.4661C26.5759 32.4661 26.6114 32.4306 26.6232 32.4187C26.7415 32.4542 26.848 32.4897 26.9663 32.5252C27.1792 32.5725 27.3922 32.6198 27.6051 32.6553C27.6169 32.679 27.6288 32.7263 27.6524 32.7263C27.7825 32.75 27.9127 32.7855 28.0428 32.7855C28.6343 32.8209 29.2258 32.8446 29.8172 32.8564C30.0184 32.8564 30.2195 32.8328 30.4206 32.7973C30.7636 32.7381 31.1185 32.6908 31.4616 32.608C31.7573 32.537 32.0531 32.4542 32.337 32.3596C32.4079 32.3359 32.4553 32.265 32.5144 32.2176C32.5144 32.2176 32.5144 32.2058 32.5381 32.2176C32.6209 32.3596 32.6919 32.2176 32.751 32.2058C32.8693 32.1703 32.9639 32.0875 33.0704 32.0284C33.0704 32.0284 33.0704 32.0165 33.0941 32.0284C33.2124 32.0993 33.2715 32.0284 33.307 31.9337C33.307 31.9337 33.3307 31.9219 33.3425 31.9101C33.3543 31.9101 33.378 31.9101 33.3898 31.9101C33.4608 31.8746 33.5199 31.8391 33.5909 31.8036C33.7565 31.709 33.934 31.6262 34.0996 31.5315C35.2825 30.8454 36.3117 29.9818 37.1516 28.8935C37.3172 28.6687 37.4592 28.4203 37.613 28.1837C37.6485 28.1127 37.684 28.0418 37.7195 27.9708C37.7904 27.8525 37.8614 27.7342 37.9324 27.6159C37.9679 27.5804 38.0152 27.5568 38.0389 27.5213C38.2754 26.9771 38.5357 26.4329 38.7368 25.8769C38.9852 25.2027 39.1272 24.4929 39.1982 23.7831C39.2455 23.4164 39.281 23.0497 39.3283 22.6711C39.3283 22.4345 39.3283 22.1861 39.3283 21.9495C39.3283 21.8904 39.3165 21.8312 39.3046 21.7721C39.3046 21.7247 39.3046 21.6774 39.3046 21.6301C39.2928 21.5828 39.2691 21.5236 39.2573 21.4763C39.21 21.2634 39.1508 21.0505 39.1035 20.8375C39.0562 20.6719 39.0207 20.4945 38.9734 20.3288C38.9143 20.1514 38.8551 19.974 38.796 19.7965C38.8669 19.7965 38.9379 19.7965 39.0089 19.8202C39.5412 19.9503 40.0617 20.0804 40.5941 20.2105C40.7597 20.246 40.9253 20.2815 41.0791 20.317C41.1382 20.4945 41.2092 20.6719 41.2565 20.8375C41.4813 21.7247 41.6351 22.612 41.6114 23.5347C41.5996 24.1735 41.5996 24.8004 41.4576 25.4274C41.3748 25.8296 41.292 26.2318 41.1619 26.6222C41.0199 27.0363 40.8543 27.4503 40.665 27.8525C40.4639 28.2784 40.251 28.6924 40.0026 29.0828C39.8015 29.414 39.5767 29.7452 39.3165 30.041C38.9261 30.5023 38.512 30.9519 38.0743 31.3659C37.6721 31.7444 37.2344 32.0875 36.7731 32.4069C36.2644 32.75 35.7321 33.0457 35.1997 33.3296C34.833 33.5189 34.4545 33.6609 34.0641 33.8146C33.792 33.9211 33.5199 34.0276 33.236 34.1104C32.9166 34.205 32.5736 34.276 32.2542 34.347C31.9821 34.4061 31.71 34.4771 31.4379 34.5244C31.1777 34.5717 30.9056 34.6191 30.6453 34.6191C29.8646 34.6427 29.0956 34.6782 28.3149 34.6545C27.8417 34.6427 27.3685 34.5362 26.8835 34.4653C26.6469 34.4298 26.3985 34.3943 26.1619 34.347C25.9489 34.2997 25.7478 34.2523 25.5467 34.1932C25.2628 34.1104 24.9907 34.0157 24.7187 33.9211C24.5176 33.8501 24.3046 33.7673 24.1154 33.6845C23.7723 33.5307 23.4411 33.3651 23.098 33.1995C22.4474 32.8801 21.8322 32.5015 21.2644 32.0402C20.8385 31.6971 20.4127 31.3659 20.0341 30.9874C19.3835 30.3249 18.7802 29.6033 18.3306 28.7752C18.1769 28.4795 17.9758 28.2074 17.8456 27.9116C17.6682 27.4976 17.5144 27.0599 17.3724 26.6222C17.2542 26.2792 17.1595 25.9243 17.0885 25.5575C17.0176 25.2145 17.0294 24.8596 16.9466 24.5165C16.8283 23.996 16.8874 23.4755 16.8993 22.955C16.8993 22.5765 17.0057 22.1979 17.0649 21.8194C17.0649 21.8194 17.0649 21.7957 17.0649 21.7839C17.6564 21.5591 18.2597 21.3344 18.8512 21.1214C19.0641 21.0505 19.3007 21.0031 19.5136 20.944V20.9322Z" fill="#D2EEFB"/>
<path d="M48.5909 22.5647C48.6619 22.7539 48.7328 22.9432 48.8038 23.1325C48.863 23.3099 48.9221 23.4756 48.9813 23.653C48.8393 23.5938 48.6974 23.5465 48.5672 23.4756C48.0704 23.2153 47.5854 22.9432 47.0885 22.683C46.5089 22.3872 45.9174 22.1033 45.3259 21.8312C44.7699 21.5828 44.2021 21.358 43.6343 21.1569C42.9363 20.8967 42.2147 20.6719 41.5049 20.4235C41.363 20.3762 41.221 20.3407 41.0909 20.3052C41.0672 20.2342 41.0554 20.1632 41.0317 20.0923C40.9489 19.8675 40.8661 19.6546 40.7715 19.4298C41.1264 19.5244 41.4813 19.6073 41.8362 19.7019C42.262 19.8202 42.6761 19.9621 43.1019 20.0923C43.4923 20.2224 43.8827 20.3644 44.2612 20.5181C44.9474 20.802 45.6216 21.0741 46.2959 21.3935C47.0767 21.7603 47.8456 22.1743 48.6145 22.5647H48.5909Z" fill="#8CA7B4"/>
<path d="M17.0529 21.7721C17.0529 21.7721 17.0529 21.7957 17.0529 21.8075C16.769 21.9258 16.4851 22.0205 16.213 22.1506C15.728 22.3754 15.2548 22.612 14.7816 22.8604C14.2848 23.1206 13.7997 23.3927 13.3147 23.6766C12.877 23.9369 12.4512 24.209 12.0135 24.4692C11.9898 24.4811 11.9543 24.4811 11.9307 24.4929C11.978 24.3864 12.0371 24.2799 12.0844 24.1735C12.1318 24.067 12.1909 23.9605 12.2501 23.8541C12.6878 23.5702 13.1255 23.2744 13.575 23.026C14.3321 22.6001 15.1128 22.1861 15.8818 21.7839C16.2958 21.571 16.7217 21.4053 17.1475 21.2161C17.1121 21.4053 17.0766 21.5946 17.0411 21.7839L17.0529 21.7721Z" fill="#8CA7B4"/>
<path d="M3.16488 33.4598C3.16488 33.4598 3.16488 33.4835 3.16488 33.4953C3.04658 33.5663 2.65621 33.4243 2.60889 33.2942C2.76267 33.3415 2.91646 33.377 3.07024 33.4243C3.10573 33.4243 3.14122 33.448 3.18854 33.4598H3.16488Z" fill="#D5D4D4"/>
<path d="M29.9355 40.0134C29.9474 40.1199 29.9592 40.2382 29.971 40.3447C29.9592 40.2382 29.9474 40.1199 29.9355 40.0134Z" fill="#6D6C6C"/>
<path d="M50.5508 36.3884C50.5508 36.3884 50.527 36.3656 50.519 36.358C50.527 36.3656 50.5429 36.3808 50.5508 36.3884Z" fill="#D5D4D4"/>
<path d="M35.9329 23.0851C35.8619 23.1443 35.8027 23.2389 35.7318 23.2744C35.0811 23.511 34.4187 23.7358 33.768 23.9724C33.6734 24.0079 33.5906 24.0433 33.4841 24.0433C34.0874 23.2153 34.6907 22.3754 35.2822 21.5473C35.2822 21.5473 35.2586 21.5236 35.2467 21.5118C34.4305 22.056 33.6024 22.6001 32.7862 23.1443C32.7743 23.1443 32.7507 23.1206 32.7389 23.1088C33.0228 22.1388 33.3185 21.1687 33.6024 20.2105C33.6024 20.2105 33.5788 20.1987 33.5669 20.1869C32.9991 20.9795 32.4313 21.772 31.8753 22.5765C31.8516 22.5765 31.8398 22.5765 31.8161 22.5646V19.5126H31.7452C31.3666 20.4116 30.9881 21.3225 30.6095 22.2452C30.5977 22.2452 30.5859 22.2452 30.5622 22.2452C30.2428 21.3343 29.9352 20.4235 29.6158 19.5126C29.6158 19.5126 29.604 19.5126 29.5922 19.5126C29.5922 19.5836 29.5803 19.6545 29.5803 19.7255C29.5922 20.5773 29.6158 21.4172 29.6277 22.2689C29.6277 22.3044 29.6395 22.3517 29.6277 22.3872C29.604 22.4345 29.5685 22.4818 29.533 22.4937C29.4975 22.4937 29.4384 22.47 29.4147 22.4345C29.0953 21.8667 28.7641 21.287 28.4447 20.7192C28.2909 20.4471 28.1489 20.175 27.9597 19.9148C27.9833 20.0213 27.9952 20.1277 28.0306 20.2224C28.2672 21.0386 28.5038 21.8667 28.7404 22.6829C28.7523 22.7421 28.7404 22.8012 28.7404 22.8604C28.6813 22.8367 28.6221 22.8367 28.5748 22.8012C27.9124 22.328 27.2499 21.843 26.5874 21.358C26.5401 21.3225 26.5046 21.2279 26.5165 21.1924C26.6229 20.944 26.6466 20.7074 26.5519 20.459C26.5519 20.4471 26.5519 20.4235 26.5519 20.4116C26.8359 20.2224 27.0961 19.9976 27.3918 19.832C27.7586 19.619 28.1489 19.4416 28.5275 19.2523C28.6221 19.2523 28.7168 19.2287 28.7996 19.2287C29.4502 19.1932 30.1008 19.134 30.7515 19.134C31.8989 19.134 33.0346 19.1577 34.1821 19.1695C34.2057 19.1695 34.2294 19.1695 34.253 19.1695C34.7854 19.2287 35.3295 19.276 35.8619 19.3351C36.2404 19.3706 36.619 19.4179 36.9975 19.4653C37.1868 19.4889 37.3642 19.5126 37.5417 19.5481C37.5417 19.5481 37.5653 19.5481 37.5772 19.5481C37.5772 19.5599 37.589 19.5836 37.6008 19.5954C37.4471 20.1987 37.2814 20.7902 37.0094 21.358C36.9502 21.4763 36.8911 21.5473 36.7491 21.5236C36.3351 21.4645 35.8619 21.8194 35.8027 22.0914C35.6489 22.3044 35.6963 22.5528 35.7318 22.7776C35.7554 22.8959 35.85 22.9905 35.921 23.097L35.9329 23.0851Z" fill="#1588B1"/>
<path d="M22.8492 27.1191C22.8492 27.1191 22.7782 27.2019 22.7309 27.2374C22.4115 27.4267 22.2104 27.6987 22.1039 28.0418C21.9146 28.5268 22.0447 28.9527 22.3405 29.3431C22.6362 29.7334 23.0503 29.8872 23.5234 29.9109C23.6181 29.9109 23.7009 29.9109 23.76 30.0292C23.9493 30.3486 24.1504 30.6562 24.3633 30.9637C24.4462 31.082 24.5645 31.1885 24.6709 31.295C24.8129 31.4606 24.943 31.6262 25.085 31.78C25.1086 31.8155 25.1204 31.851 25.1441 31.8864C24.872 31.7563 24.5881 31.6498 24.3397 31.4961C23.0503 30.7508 21.9619 29.7808 21.0865 28.5741C20.6843 28.0181 20.3413 27.4385 20.081 26.7997C19.9154 26.3856 19.7261 25.9716 19.6197 25.5457C19.4659 24.9069 19.3476 24.2445 19.2529 23.5938C19.1938 23.1798 19.2056 22.7421 19.2529 22.3162C19.2884 21.9259 19.4067 21.5355 19.4895 21.1451C19.5368 21.0741 19.596 21.0032 19.6433 20.9322C19.6788 20.8849 19.7143 20.8375 19.7616 20.7902C20.0455 20.7192 20.3294 20.6483 20.6133 20.5655C20.9209 20.4826 21.2167 20.388 21.5242 20.317C21.6425 20.2934 21.7727 20.317 21.8909 20.317C21.9501 20.8849 22.1157 21.4172 22.305 21.9495C22.5061 22.5055 22.7782 23.0379 23.0976 23.5347C23.1212 23.582 23.1686 23.6175 23.1922 23.653C23.1094 24.0079 23.0266 24.3509 22.9438 24.7058C22.9201 24.7413 22.8965 24.765 22.8846 24.8005C22.7782 25.4393 22.7545 26.0899 22.7782 26.7405C22.7782 26.8707 22.8255 27.0008 22.8373 27.1309L22.8492 27.1191Z" fill="#1387B0"/>
<path d="M37.542 19.5244C37.3646 19.5008 37.1753 19.4653 36.9979 19.4416C36.6193 19.3943 36.2408 19.347 35.8622 19.3115C35.3299 19.2523 34.7857 19.205 34.2534 19.1459C34.2297 19.1459 34.2061 19.1459 34.1824 19.1459C33.0349 19.134 31.8993 19.1104 30.7518 19.1104C30.1012 19.1104 29.4505 19.1695 28.7999 19.205C28.7053 19.205 28.6106 19.2168 28.5278 19.2287C28.7644 19.1222 29.001 19.0039 29.2376 18.9329C29.6871 18.8028 30.1248 18.6727 30.5862 18.5899C31.3078 18.4716 32.0412 18.4124 32.7747 18.4952C32.8102 18.4952 32.8457 18.4952 32.8811 18.4952C32.9166 18.4952 32.9521 18.4952 32.9994 18.4952C32.8811 18.4597 32.7747 18.4243 32.6682 18.4006C32.6682 18.4006 32.6682 18.3769 32.6682 18.3651C32.9048 18.3651 33.1296 18.3651 33.3662 18.3651C33.7092 18.3769 34.0523 18.4006 34.3953 18.4243C34.7384 18.4479 35.1051 18.4243 35.4363 18.5071C35.8386 18.6017 36.2289 18.7673 36.6075 18.9329C36.9269 19.0749 37.2226 19.2878 37.5302 19.4653C37.542 19.4653 37.542 19.5008 37.5539 19.5126L37.542 19.5244Z" fill="#1F6984"/>
<path d="M26.552 19.418C26.552 19.418 26.4573 19.4535 26.41 19.4653C26.3036 19.4653 26.1853 19.4653 26.0788 19.4653C25.7476 19.5126 25.4163 19.5718 25.0851 19.6191C24.7066 19.6783 24.328 19.7019 23.9495 19.7729C23.3461 19.8794 22.7547 20.0213 22.1632 20.1396C22.104 19.9503 22.0567 19.7492 21.9976 19.56C22.5062 19.4417 23.0267 19.3234 23.5472 19.2169C23.9968 19.1223 24.4581 19.0513 24.9195 18.9803C25.3099 18.9212 25.7002 18.8502 26.0906 18.791C26.4692 18.7437 26.8477 18.7082 27.2381 18.6609C27.4747 18.6373 27.6995 18.6018 27.936 18.5781C28.0425 18.5781 28.149 18.5663 28.2436 18.5544C27.9006 18.7082 27.5575 18.8384 27.2144 19.004C26.9897 19.1104 26.7886 19.2524 26.5756 19.3825L26.552 19.418Z" fill="#206A84"/>
<path d="M40.7714 19.4298C40.8542 19.6546 40.937 19.8675 41.0317 20.0923C41.0553 20.1632 41.079 20.2342 41.0908 20.3052C40.9252 20.2697 40.7596 20.2342 40.6058 20.1987C40.0735 20.0686 39.553 19.9385 39.0206 19.8084C38.9497 19.7965 38.8787 19.7965 38.8077 19.7847C38.784 19.7729 38.7604 19.761 38.7367 19.7492C38.6184 19.4653 38.5001 19.1932 38.3818 18.9093C38.7722 18.9803 39.1508 19.0513 39.5411 19.1222C39.9079 19.1932 40.2746 19.2879 40.6413 19.3707C40.6886 19.3707 40.7241 19.4061 40.7714 19.4298Z" fill="#9BADB5"/>
<path d="M17.0527 21.7721C17.0882 21.5828 17.1237 21.3935 17.1592 21.2042C17.5259 21.0505 17.8808 20.8848 18.2475 20.7547C18.7207 20.5773 19.1939 20.4117 19.6789 20.246C19.7262 20.2224 19.7854 20.2105 19.8682 20.1869C19.7381 20.459 19.6316 20.6956 19.5251 20.944C19.3004 21.0031 19.0756 21.0505 18.8627 21.1214C18.2594 21.3344 17.6679 21.5591 17.0764 21.7839L17.0527 21.7721Z" fill="#9BADB5"/>
<path d="M21.8793 20.3051C21.761 20.3051 21.6309 20.2815 21.5126 20.3051C21.205 20.3761 20.8975 20.4708 20.6017 20.5536C20.3178 20.6246 20.0339 20.7074 19.75 20.7783C19.9511 20.3406 20.235 19.9857 20.7555 19.8793C21.0749 19.8201 21.3825 19.7255 21.7019 19.6427C21.7256 19.6427 21.7492 19.6427 21.7847 19.6309C21.8202 19.8556 21.8557 20.0804 21.8912 20.3051H21.8793Z" fill="#1F6984"/>
<path d="M38.3817 18.8975C38.5 19.1814 38.6183 19.4535 38.7366 19.7374C38.6183 19.7138 38.5 19.6901 38.3935 19.6783C38.2279 19.5245 38.0623 19.3825 37.8967 19.2287C37.8612 19.3589 37.8375 19.4653 37.802 19.5718C37.7311 19.5718 37.6719 19.5718 37.6009 19.5718C37.6009 19.56 37.5891 19.5363 37.5773 19.5245C37.6719 19.209 37.5812 18.9645 37.3052 18.791C37.3052 18.791 37.2342 18.7437 37.1987 18.6846C37.5891 18.7555 37.9913 18.8265 38.3817 18.8975Z" fill="#B4B3B3"/>
<path d="M26.5522 19.418C26.7652 19.2878 26.9663 19.1459 27.191 19.0394C27.5223 18.8738 27.8772 18.7318 28.2202 18.5899C28.516 18.5662 28.8117 18.5426 29.0956 18.5071C29.0956 18.5189 29.0956 18.5426 29.0956 18.5544C28.93 18.6135 28.7762 18.6727 28.6224 18.7555C28.1966 18.9684 27.7707 19.1932 27.3448 19.418C27.333 19.418 27.3093 19.418 27.2975 19.418C27.2384 19.276 27.1201 19.3588 27.0254 19.3588C26.8716 19.3588 26.706 19.3825 26.5522 19.4061V19.418Z" fill="#B4B3B3"/>
<path d="M21.9975 19.5836C22.0567 19.7729 22.104 19.974 22.1631 20.1633C22.1631 20.1633 22.1631 20.1869 22.1513 20.1988C22.1158 20.2224 22.0922 20.2461 22.0567 20.2697C22.0212 20.0686 21.9857 19.8675 21.9502 19.6664C21.9502 19.6428 21.9857 19.6073 21.9975 19.5836Z" fill="#9BADB5"/>
<path d="M45.3613 19.8186C45.3613 19.8186 45.4441 19.796 45.4796 19.7847C45.4441 19.7847 45.3968 19.8073 45.3613 19.8186Z" fill="#9BADB5"/>
<path d="M22.0566 20.3289C22.0566 20.3289 22.0803 20.4117 22.0921 20.4472C22.0803 20.4117 22.0685 20.3643 22.0566 20.3289Z" fill="#9BADB5"/>
<path d="M26.6349 32.4069C26.4337 32.2058 26.2208 32.0047 26.0197 31.7918C25.9842 31.7563 25.9724 31.7208 25.9487 31.6735C26.067 31.4133 26.1498 31.1412 26.3036 30.8928C26.6112 30.3959 26.9306 29.8991 27.2737 29.4259C27.4511 29.1775 27.6995 28.9645 27.9125 28.7398C27.8296 29.0828 27.7468 29.414 27.664 29.7571C27.5221 30.2894 27.3801 30.8099 27.25 31.3423C27.25 31.3541 27.25 31.3778 27.25 31.4369C27.9243 30.4905 28.5749 29.5678 29.2255 28.6333C29.2492 28.6333 29.261 28.6333 29.2847 28.6451C29.1901 29.7334 29.1072 30.8218 29.0126 31.9101C29.0244 31.9101 29.0363 31.9101 29.0481 31.9101C29.4266 30.9164 29.7934 29.9109 30.1837 28.8699C30.515 29.97 30.8344 31.0229 31.1538 32.0757C31.1656 32.0757 31.1893 32.0757 31.2011 32.0757C31.2839 31.0465 31.3549 30.0055 31.4377 28.9763C31.4495 28.9763 31.4732 28.9763 31.485 28.9645C31.9345 29.8163 32.3841 30.668 32.8336 31.5197C32.8454 31.5197 32.8572 31.5197 32.8809 31.5079C32.6088 30.5142 32.3486 29.5205 32.0765 28.5387C32.0765 28.5387 32.1002 28.5268 32.112 28.515C32.9519 29.1656 33.78 29.8044 34.6199 30.4551C34.6317 30.4432 34.6554 30.4314 34.6672 30.4196C34.1703 29.5797 33.5907 28.7871 33.0465 27.8999C34.0402 28.2902 34.9984 28.6569 35.9566 29.0237C35.2468 28.2784 34.5371 27.5568 33.8273 26.8115C34.1467 26.8352 34.4661 26.8588 34.7855 26.8825C34.9393 26.9298 35.0812 27.0008 35.235 27.0363C35.9093 27.2256 36.5363 27.5331 37.1396 27.8644C37.317 27.959 37.4826 28.0655 37.6601 28.1719C37.5063 28.4085 37.3643 28.6569 37.1987 28.8817C36.3588 29.97 35.3296 30.8336 34.1467 31.5197C33.9811 31.6144 33.8036 31.6972 33.638 31.7918C33.567 31.8273 33.5079 31.8628 33.4369 31.8983C33.4251 31.8983 33.4014 31.8983 33.3896 31.8983C33.3778 31.8983 33.3659 31.9219 33.3541 31.9219C33.2831 31.9574 33.2121 31.9811 33.1412 32.0166C33.1412 32.0166 33.1293 32.0166 33.1175 32.0166C32.9401 32.0875 32.7626 32.1467 32.5733 32.2177H32.5497C32.3131 32.2887 32.0765 32.3596 31.8281 32.4306C31.1538 32.6317 30.4558 32.7382 29.7579 32.75C29.0481 32.75 28.3383 32.6909 27.6285 32.6554C27.4156 32.6081 27.2027 32.5726 26.9897 32.5252C26.8714 32.5016 26.765 32.4543 26.6467 32.4188L26.6349 32.4069Z" fill="#1688B1"/>
<path d="M37.7547 19.9503C37.7547 19.8675 37.7547 19.7847 37.7665 19.7019C38.2278 19.9858 38.5354 20.4235 38.8075 20.8849C39.0796 21.3462 39.1979 21.8549 39.2689 22.3872L39.2215 23.7595C39.1506 24.4811 39.0086 25.179 38.7602 25.8533C38.5591 26.4093 38.2988 26.9535 38.0622 27.4976C38.0504 27.5331 37.9913 27.5686 37.9558 27.5923C36.8201 26.6459 35.4834 26.1136 34.0283 25.8297C34.0283 25.8178 34.0402 25.806 34.052 25.7823C34.9155 25.5694 35.7909 25.3683 36.6545 25.1554C36.6545 25.1435 36.6545 25.1317 36.6545 25.1081C36.1813 25.0726 35.72 25.0489 35.2468 25.0134C35.2704 24.9779 35.2941 24.9424 35.3178 24.9188C35.7318 24.5284 36.0985 24.0907 36.4179 23.6175C36.4889 23.5111 36.548 23.4756 36.6782 23.4756C37.3051 23.4756 37.7547 22.9551 37.6482 22.3281C37.6482 22.0797 37.4707 21.914 37.3525 21.7248C37.5536 21.1451 37.7073 20.5536 37.731 19.9385L37.7547 19.9503Z" fill="#1487B0"/>
<path d="M39.269 22.3873C39.2098 21.8549 39.0797 21.3463 38.8076 20.8849C38.5355 20.4235 38.228 19.9858 37.7666 19.7019C37.7666 19.6546 37.7903 19.6073 37.8021 19.56C37.8258 19.4535 37.8612 19.347 37.8967 19.2169C38.0623 19.3707 38.228 19.5245 38.3936 19.6664C38.5119 19.8202 38.6302 19.974 38.7366 20.1396C38.8786 20.3526 38.9969 20.5892 39.1152 20.8139C39.1625 21.0269 39.2216 21.2398 39.269 21.4527C39.2808 21.5 39.3045 21.5592 39.3163 21.6065C39.3163 21.6538 39.3163 21.7011 39.3163 21.7485C39.3163 21.8076 39.3281 21.8668 39.3399 21.9259C39.3399 22.1625 39.3399 22.4109 39.3399 22.6475C39.3163 22.5647 39.2808 22.4701 39.2571 22.3873H39.269Z" fill="#3C3C3D"/>
<path d="M37.6363 28.1719C37.4589 28.0654 37.2933 27.9589 37.1158 27.8643C36.5125 27.5331 35.8855 27.2255 35.2112 27.0362C35.0575 26.9889 34.9155 26.9298 34.7617 26.8824C35.1994 26.9179 35.6489 26.9179 36.0866 27.0007C36.3114 27.0362 36.5243 27.2137 36.7254 27.332C37.0685 27.5331 37.3997 27.7578 37.7428 27.9708C37.7073 28.0418 37.6718 28.1127 37.6363 28.1837V28.1719Z" fill="#3E4042"/>
<path d="M27.6167 32.6435C28.3265 32.679 29.0363 32.75 29.746 32.7381C30.444 32.7381 31.1419 32.6198 31.8162 32.4187C32.0528 32.3478 32.2894 32.2768 32.5378 32.2058C32.4787 32.2531 32.4314 32.3241 32.3604 32.3478C32.0765 32.4424 31.7807 32.537 31.485 32.5962C31.1419 32.679 30.787 32.7263 30.444 32.7855C30.2429 32.821 30.0418 32.8446 29.8407 32.8446C29.2492 32.8328 28.6577 32.7973 28.0662 32.7736C27.9361 32.7736 27.806 32.7381 27.6758 32.7145C27.6522 32.7145 27.6404 32.6672 27.6285 32.6435H27.6167Z" fill="#E6F3F9"/>
<path d="M39.1152 20.8139C38.985 20.5891 38.8667 20.3643 38.7366 20.1396C38.6301 19.974 38.5119 19.832 38.3936 19.6664C38.5119 19.69 38.6301 19.7137 38.7366 19.7255C38.7603 19.7374 38.7839 19.7492 38.8076 19.761C38.8667 19.9385 38.9259 20.1159 38.985 20.2934C39.0324 20.459 39.0797 20.6364 39.1152 20.802V20.8139Z" fill="#E6F3F9"/>
<path d="M39.269 22.3872C39.2927 22.47 39.3281 22.5647 39.3518 22.6475C39.3045 23.0142 39.269 23.3809 39.2217 23.7594C39.2335 23.2981 39.2453 22.8486 39.269 22.3872Z" fill="#6D6C6C"/>
<path d="M32.5498 32.2059C32.7272 32.1349 32.9047 32.0757 33.094 32.0048C32.9875 32.0639 32.881 32.1467 32.7746 32.1822C32.7154 32.2059 32.6326 32.336 32.5616 32.194L32.5498 32.2059Z" fill="#E6F3F9"/>
<path d="M33.1055 31.993C33.1764 31.9575 33.2474 31.9338 33.3184 31.8983C33.2711 31.993 33.2119 32.0521 33.1055 31.993Z" fill="#E6F3F9"/>
<path d="M33.4131 31.8747C33.4841 31.8392 33.5432 31.8037 33.6142 31.7682C33.5432 31.8037 33.4841 31.8392 33.4131 31.8747Z" fill="#E6F3F9"/>
<path d="M39.3518 21.9259C39.3518 21.8667 39.34 21.8076 39.3281 21.7484C39.3281 21.8076 39.34 21.8667 39.3518 21.9259Z" fill="#6D6C6C"/>
<path d="M39.3164 21.6064C39.3164 21.6064 39.2809 21.5 39.269 21.4526C39.2809 21.5 39.3045 21.5591 39.3164 21.6064Z" fill="#6D6C6C"/>
<path d="M33.3306 31.8987C33.3306 31.8987 33.3434 31.8865 33.3498 31.8865C33.3434 31.8865 33.337 31.8987 33.3306 31.8987Z" fill="#E6F3F9"/>
<path d="M25.4873 25.9361C25.2862 25.9834 25.0733 26.0426 24.8722 26.0899C24.6119 26.1491 24.3398 26.2082 24.0796 26.291C24.5764 26.3265 25.0851 26.362 25.5819 26.4093C25.9013 26.433 26.2326 26.4685 26.552 26.4921C26.7649 26.5749 26.9778 26.6459 27.1908 26.7287C26.6348 27.0836 26.0788 27.4503 25.5346 27.8052C25.3217 27.9353 25.1206 28.0773 24.8958 28.2192C24.7894 27.7934 24.5764 27.4503 24.1979 27.2255C24.1032 27.1664 23.9968 27.1073 23.9021 27.0954C23.7483 27.0718 23.7365 26.989 23.7247 26.8588C23.6655 26.2555 23.701 25.6522 23.7838 25.0489C23.8075 24.8951 23.843 24.7532 23.8785 24.5994C23.9258 24.623 23.9613 24.6467 24.0086 24.6703C24.399 25.0134 24.7775 25.3565 25.1679 25.6995C25.2744 25.7942 25.3808 25.8651 25.4991 25.9479L25.4873 25.9361Z" fill="#1788B1"/>
<path d="M22.1396 20.1987C22.1396 20.1987 22.1396 20.175 22.1515 20.1632C22.743 20.0449 23.3463 19.9029 23.9378 19.7965C24.3163 19.7255 24.6949 19.69 25.0734 19.6427C25.4046 19.5954 25.7359 19.5362 26.0671 19.4889C26.1736 19.4771 26.2919 19.4889 26.3983 19.4889C26.2564 19.5954 26.1144 19.7018 25.9725 19.7965C25.937 19.8201 25.8778 19.8083 25.8305 19.7965C25.3573 19.7137 24.9433 19.7965 24.6357 20.2105C24.5766 20.2815 24.5411 20.3643 24.4937 20.4471C24.4109 20.6955 24.3873 20.9558 24.4937 21.2042C24.3755 21.3816 24.2572 21.5591 24.1389 21.7365C23.9141 22.1033 23.7012 22.4818 23.4527 22.884C23.2871 22.6356 23.1215 22.3872 22.9677 22.1269C22.601 21.5354 22.3526 20.8848 22.1396 20.2223V20.1987Z" fill="#1588B1"/>
<path d="M24.8961 28.3848C25.0617 28.302 25.2273 28.2074 25.4048 28.1364C26.079 27.888 26.7533 27.6395 27.4395 27.403C27.4631 27.403 27.4868 27.403 27.5341 27.4266C26.9308 28.1955 26.3156 28.9763 25.7123 29.7452L25.7478 29.7925C25.8543 29.7334 25.9608 29.6624 26.0672 29.6033C25.8306 30.0765 25.6059 30.5496 25.3693 31.0465C25.18 30.7744 25.0025 30.5023 24.8251 30.2302C24.7068 30.0528 24.6122 29.8517 24.5175 29.6624C24.4939 29.6151 24.482 29.556 24.4702 29.4968C24.7896 29.2011 24.9434 28.8343 24.9079 28.3966L24.8961 28.3848Z" fill="#1889B2"/>
<path d="M24.9076 22.5528C25.0969 22.7066 25.2861 22.8604 25.4754 23.0023C26.1024 23.4637 26.7175 23.9251 27.3445 24.3864C27.3682 24.4101 27.3918 24.4337 27.4391 24.4692C27.4037 24.4692 27.38 24.481 27.3563 24.481C26.6939 24.5047 26.0432 24.5165 25.3808 24.552C25.1324 24.5639 24.9549 24.4929 24.7893 24.3273C24.5764 24.1143 24.3516 23.9132 24.1387 23.7121C24.3279 23.3099 24.5291 22.9077 24.7183 22.5055C24.7538 22.5173 24.8011 22.5292 24.8366 22.541C24.8603 22.541 24.8839 22.541 24.9076 22.541V22.5528Z" fill="#1688B1"/>
<path d="M24.8488 22.5528C24.8488 22.5528 24.766 22.5291 24.7305 22.5173C24.8488 22.328 24.9671 22.1506 25.0972 21.9613C25.1208 21.9258 25.18 21.9022 25.2155 21.9022C25.3811 21.9022 25.5585 21.9377 25.7242 21.9022C26.0081 21.8667 26.2565 21.7247 26.4221 21.4645C26.9426 22.1033 27.4631 22.7539 27.9718 23.4045C27.9955 23.44 27.9955 23.5228 27.9718 23.5347C27.9363 23.5702 27.8653 23.582 27.818 23.5702C27.333 23.3927 26.848 23.2034 26.3511 23.026C25.9253 22.8604 25.4876 22.7066 25.0617 22.5528C25.0144 22.541 24.9552 22.5528 24.9079 22.541C24.9079 22.541 24.8961 22.5173 24.8843 22.5055C24.8724 22.5173 24.8488 22.5291 24.8369 22.541L24.8488 22.5528Z" fill="#1788B1"/>
<path d="M24.6709 31.2949C24.5644 31.1884 24.4462 31.082 24.3633 30.9637C24.1504 30.6561 23.9493 30.3485 23.76 30.0291C23.6891 29.9108 23.6181 29.9227 23.5234 29.9108C23.0503 29.899 22.6362 29.7334 22.3405 29.343C22.0447 28.9526 21.9264 28.5149 22.1039 28.0417C21.9974 28.9171 22.932 29.4495 23.5944 29.4258C23.7245 29.4258 23.7955 29.4376 23.8547 29.5796C24.0676 30.0646 24.3042 30.5378 24.529 31.0228C24.5763 31.1175 24.6118 31.2003 24.6591 31.2949H24.6709Z" fill="#3C3C3D"/>
<path d="M37.6603 22.3517C37.7549 22.9668 37.3054 23.4992 36.6902 23.4992C36.5601 23.4992 36.501 23.5346 36.43 23.6411C36.1106 24.1143 35.7439 24.552 35.3298 24.9424C35.3062 24.966 35.2825 25.0015 35.2589 25.037C35.1642 25.037 35.0696 25.037 34.9395 25.037C35.0341 24.9305 35.1169 24.8477 35.1997 24.7649C35.6847 24.2681 36.1342 23.7476 36.501 23.1561C36.5719 23.0496 36.6548 23.0023 36.7967 23.0023C37.1279 23.0023 37.4237 22.8958 37.6011 22.5764C37.6366 22.5055 37.6484 22.4227 37.6603 22.3517Z" fill="#3E4042"/>
<path d="M25.4876 25.9361C25.3811 25.8533 25.2628 25.7705 25.1564 25.6877C24.766 25.3447 24.3756 25.0016 23.9971 24.6585C24.0326 24.6467 24.068 24.6349 24.1154 24.623C24.1982 24.6467 24.2692 24.6822 24.352 24.694C24.5649 24.7177 24.7423 24.8242 24.908 24.9424C25.2865 25.2145 25.6887 25.463 26.0791 25.7232C26.1146 25.7469 26.1501 25.7705 26.221 25.8178C25.949 25.8652 25.7124 25.9007 25.4876 25.948V25.9361Z" fill="#3C3C3D"/>
<path d="M26.4103 21.4764C26.2566 21.7366 26.0081 21.8668 25.7124 21.9141C25.5468 21.9377 25.3812 21.9141 25.2037 21.9141C25.1564 21.9141 25.0972 21.9377 25.0854 21.9732C24.9553 22.1507 24.8488 22.3399 24.7187 22.5292C24.5294 22.9314 24.3283 23.3336 24.139 23.7358C24.1272 23.6885 24.0799 23.6294 24.0917 23.5939C24.3875 22.8723 24.695 22.1507 25.1564 21.5119C25.1801 21.4764 25.2629 21.4291 25.2984 21.4409C25.6059 21.5355 25.9017 21.5 26.1856 21.4054C26.3039 21.3699 26.363 21.4054 26.3985 21.5119L26.4103 21.4764Z" fill="#3E4042"/>
<path d="M27.9004 28.7516C27.6875 28.9763 27.4509 29.1893 27.2616 29.4377C26.9185 29.9109 26.5991 30.4077 26.2916 30.9046C26.1496 31.1412 26.055 31.4251 25.9367 31.6853C25.8184 31.638 25.842 31.567 25.8775 31.4724C26.2679 30.5497 26.7647 29.698 27.3917 28.929C27.581 28.6924 27.7939 28.4677 27.995 28.2311C28.0069 28.2311 28.0305 28.2429 28.0424 28.2547C27.9832 28.4204 27.9359 28.586 27.8767 28.7516H27.9004Z" fill="#424547"/>
<path d="M22.8493 27.119C22.8256 26.9889 22.7901 26.8588 22.7901 26.7287C22.7665 26.078 22.7901 25.4392 22.8966 24.7886C22.8966 24.7531 22.9321 24.7295 22.9557 24.694C22.9557 25.2618 22.9557 25.8414 22.9557 26.4093C22.9557 26.5631 22.9794 26.7287 22.9912 26.8825C23.0031 27.0008 22.9794 27.0836 22.8493 27.119Z" fill="#424547"/>
<path d="M25.8657 25.0725C26.2679 25.1671 26.6583 25.2736 27.0605 25.3683C27.096 25.3683 27.1433 25.3919 27.1788 25.4156C27.2143 25.4392 27.2498 25.4747 27.2498 25.4984C27.2498 25.5339 27.2143 25.593 27.1788 25.6048C27.0605 25.6285 26.9186 25.664 26.8239 25.6285C26.5045 25.4865 26.2088 25.3091 25.9012 25.1435C25.8894 25.1435 25.8776 25.108 25.8657 25.0843V25.0725Z" fill="#2992B8"/>
<path d="M37.7548 19.9503C37.7311 20.5655 37.5773 21.1569 37.3762 21.7366C37.2343 21.6538 37.2224 21.5592 37.2816 21.4054C37.4472 20.9558 37.5773 20.4945 37.7193 20.045C37.7193 20.0095 37.7429 19.9858 37.7666 19.9503H37.7548Z" fill="#424547"/>
<path d="M24.8958 28.3849C24.9313 28.8226 24.7775 29.1893 24.4581 29.485C24.3398 29.3431 24.3635 29.2366 24.4818 29.0828C24.6474 28.8699 24.7657 28.6096 24.8958 28.373V28.3849Z" fill="#424547"/>
<path d="M33.7563 24.9779C34.2177 24.623 34.6317 24.3036 35.0813 23.9606C34.9866 24.2327 34.0166 24.9898 33.7563 24.9779Z" fill="#2992B8"/>
<path d="M24.1034 24.623C24.1034 24.623 24.0324 24.6467 23.9851 24.6585C23.9378 24.6349 23.9023 24.6112 23.855 24.5875C23.8786 24.4338 23.9023 24.2681 23.9378 24.0907C24.0916 24.2681 24.2335 24.4338 24.3755 24.5994C24.3873 24.5875 24.3991 24.5757 24.411 24.5639L24.0916 24.623H24.1034Z" fill="#424547"/>
<path d="M35.9331 23.0852C35.8621 22.9788 35.7674 22.8841 35.7438 22.7658C35.7083 22.5292 35.661 22.2926 35.8148 22.0797C35.8739 22.3045 35.9094 22.5292 36.004 22.7422C36.075 22.896 36.075 23.0024 35.9331 23.0852Z" fill="#3E4042"/>
<path d="M27.191 26.7287C26.9781 26.6459 26.7652 26.5749 26.5522 26.4921C26.848 26.4921 27.1437 26.5157 27.4513 26.5276C27.4513 26.5512 27.4513 26.563 27.4631 26.5867C27.3685 26.634 27.2857 26.6813 27.191 26.7287Z" fill="#424547"/>
<path d="M24.4935 21.1924C24.387 20.944 24.4225 20.6837 24.4935 20.4353C24.5408 20.6127 24.6118 20.802 24.6354 20.9795C24.6354 21.0386 24.5408 21.1214 24.4935 21.1924Z" fill="#424547"/>
</svg>
