<svg version="1.0" xmlns="http://www.w3.org/2000/svg" width="60" height="60" viewBox="0 0 60 60">

<g transform="translate(0,60) scale(0.04,-0.04)" fill="#FF0000" stroke="none">
    <path d="M582 1400 c-95 -12 -184 -36 -254 -67 l-58 -26 0 -107 0 -108 42 10
    c279 62 792 166 802 162 33 -13 36 -147 5 -228 -26 -70 -92 -140 -148 -157
    -36 -11 -41 -16 -46 -48 -18 -111 -80 -194 -171 -232 -41 -17 -54 -28 -54 -44
    0 -76 -62 -180 -134 -224 -18 -11 -91 -33 -162 -48 l-129 -28 -3 -31 c-3 -29
    1 -33 55 -57 85 -38 163 -56 300 -69 201 -19 449 14 558 75 l40 23 3 552 2
    552 -32 20 c-81 49 -222 79 -403 84 -77 3 -173 1 -213 -4z"/>
    <path d="M622 1042 l-352 -76 0 -293 c0 -276 1 -294 18 -289 9 2 61 14 114 26
    53 12 108 30 121 40 26 21 63 88 53 97 -3 3 -32 0 -65 -6 -69 -14 -97 -5 -107
    34 -9 35 3 62 34 73 15 6 86 23 157 38 114 24 134 32 162 59 29 29 52 79 41
    90 -2 3 -20 0 -39 -5 -50 -15 -105 -12 -119 5 -17 21 -16 62 4 84 11 12 61 27
    152 46 149 31 185 50 210 112 8 18 14 35 14 38 0 10 -53 1 -398 -73z"/>
    </g>
</svg>
