<svg width="60" height="60" viewBox="0 0 60 60" fill="none" xmlns="http://www.w3.org/2000/svg">
<path d="M21.4766 42.0117C20.9687 42.793 20.3242 43.4375 19.543 43.9453C18.8008 44.4531 17.9805 44.8047 17.082 45L8 46.875V20.1562L43.2734 12.9492C43.1953 13.457 43.0586 13.9648 42.8633 14.4727C42.707 14.9805 42.5117 15.4492 42.2773 15.8789C41.9648 16.3867 41.4766 17.0117 40.8125 17.7539C40.1875 18.457 39.3281 18.9258 38.2344 19.1602L26.9844 21.4453C26.2422 21.6016 25.6367 22.0117 25.168 22.6758C24.7383 23.3008 24.6016 24.0039 24.7578 24.7852C24.875 25.4492 25.1875 25.9961 25.6953 26.4258C26.2422 26.8164 26.8477 27.0117 27.5117 27.0117C27.5898 27.0117 27.668 27.0117 27.7461 27.0117C27.8633 27.0117 27.9805 26.9922 28.0977 26.9531L33.0781 25.957C33.0781 26.5039 32.9805 27.0508 32.7852 27.5977C32.5898 28.1445 32.3359 28.6719 32.0234 29.1797C31.5156 29.9219 30.8906 30.5469 30.1484 31.0547C29.4062 31.5234 28.6055 31.8555 27.7461 32.0508L16.3789 34.3945C15.6367 34.5508 15.0508 34.9609 14.6211 35.625C14.1914 36.25 14.0547 36.9336 14.2109 37.6758C14.3281 38.3789 14.6406 38.9453 15.1484 39.375C15.6953 39.7656 16.3008 39.9609 16.9648 39.9609C17.043 39.9609 17.1211 39.9609 17.1992 39.9609C17.3164 39.9219 17.4141 39.9023 17.4922 39.9023L22.5312 38.8477C22.4922 39.3945 22.375 39.9414 22.1797 40.4883C22.0234 41.0352 21.7891 41.543 21.4766 42.0117ZM30.5 0C32.9609 0 35.3242 0.117188 37.5898 0.351562C39.8945 0.625 42.0039 0.976562 43.918 1.40625C45.8711 1.83594 47.6289 2.34375 49.1914 2.92969C50.7148 3.51562 51.9844 4.17969 53 4.92188V55.1367C51.9844 55.8398 50.7148 56.5039 49.1914 57.1289C47.6289 57.7148 45.8711 58.2227 43.918 58.6523C42.0039 59.082 39.9141 59.4141 37.6484 59.6484C35.3437 59.8828 32.9609 60 30.5 60C28.0391 60 25.6562 59.8828 23.3516 59.6484C21.0859 59.4141 18.9766 59.082 17.0234 58.6523C15.1094 58.2227 13.3711 57.7148 11.8086 57.1289C10.2852 56.543 9.01562 55.8789 8 55.1367V52.6172L18.3125 50.5078C19.9141 50.1562 21.3789 49.5312 22.707 48.6328C24.0742 47.6953 25.207 46.543 26.1055 45.1758C26.8477 44.043 27.3945 42.8516 27.7461 41.6016C28.0977 40.3125 28.2344 39.0234 28.1562 37.7344L28.7422 37.6172C30.3437 37.2656 31.8281 36.6406 33.1953 35.7422C34.5625 34.8438 35.7148 33.7305 36.6523 32.4023C37.3945 31.2695 37.9414 30.0586 38.293 28.7695C38.6445 27.4414 38.8008 26.1133 38.7617 24.7852L39.3477 24.668C40.9883 24.3164 42.4727 23.6328 43.8008 22.6172C45.168 21.5625 46.3008 20.2344 47.1992 18.6328C48.0195 17.1484 48.5664 15.5664 48.8398 13.8867C49.1133 12.168 49.0742 10.5273 48.7227 8.96484L48.4883 7.67578C48.4102 7.28516 48.1953 6.97266 47.8437 6.73828C47.4922 6.50391 47.1016 6.42578 46.6719 6.50391L8 14.4141V4.92188C9.01562 4.17969 10.2852 3.51562 11.8086 2.92969C13.332 2.34375 15.0703 1.83594 17.0234 1.40625C18.9766 0.976562 21.0859 0.625 23.3516 0.351562C25.6562 0.117188 28.0391 0 30.5 0Z" fill="#CC0000"/>
</svg>
