<svg width="60" height="60"  viewBox="0 0 60 60" fill="none" xmlns="http://www.w3.org/2000/svg"><path d="m0 47.401 11.085-28.046c1.562-3.952 5.415-6.554 9.706-6.554h6.683L16.39 40.848C14.827 44.8 10.974 47.4 6.683 47.4H0Z" fill="url(#a)"/><path d="m16.262 47.401 11.086-28.046c1.562-3.952 5.414-6.553 9.705-6.553h6.684L32.65 40.847C31.09 44.8 27.237 47.4 22.946 47.4h-6.684Z" fill="url(#b)"/><path d="M32.526 47.401 43.61 19.355c1.562-3.952 5.415-6.553 9.706-6.553H60L48.915 40.847C47.353 44.8 43.5 47.4 39.209 47.4h-6.683Z" fill="url(#c)"/><defs><linearGradient id="a" x1="60" y1="10.159" x2=".327" y2="44.25" gradientUnits="userSpaceOnUse"><stop stop-color="#FF5CAA"/><stop offset="1" stop-color="#FF4E62"/></linearGradient><linearGradient id="b" x1="60" y1="10.159" x2=".327" y2="44.25" gradientUnits="userSpaceOnUse"><stop stop-color="#FF5CAA"/><stop offset="1" stop-color="#FF4E62"/></linearGradient><linearGradient id="c" x1="60" y1="10.159" x2=".327" y2="44.25" gradientUnits="userSpaceOnUse"><stop stop-color="#FF5CAA"/><stop offset="1" stop-color="#FF4E62"/></linearGradient></defs></svg>