<svg width="60" height="60" viewBox="0 0 60 60" fill="none" xmlns="http://www.w3.org/2000/svg">
<path d="M57.6396 43.6433C54.4434 45.3152 37.8555 52.1381 34.2822 54.0107C30.7089 55.8834 28.7952 55.8302 26.0005 54.4943C23.2058 53.1584 5.61399 46.0036 2.4259 44.4793C0.81956 43.7253 0 43.0819 0 42.4795V36.4107C0 36.4107 22.9805 31.4237 26.689 30.0796C30.3975 28.7355 31.6801 28.7027 34.8313 29.8583C37.9825 31.0139 56.8734 34.4233 59.9918 35.5543V41.537C59.9918 42.1599 59.2747 42.7664 57.6396 43.6392V43.6433Z" fill="#A32422"/>
<path d="M57.6396 37.6033C54.4433 39.267 37.8554 46.0898 34.2821 47.9297C30.7089 49.7696 28.7952 49.7532 26.0005 48.4215C23.2058 47.0897 5.61393 39.9349 2.42584 38.4228C-0.762251 36.9107 -0.823718 35.8535 2.3029 34.6324C5.42952 33.4112 22.9804 26.5392 26.6889 25.1869C30.3974 23.8347 31.68 23.806 34.8312 24.9656C37.9824 26.1253 54.5007 32.6859 57.6027 33.8292C60.7048 34.9725 60.8482 35.9109 57.6396 37.5705V37.6033Z" fill="#DC382C"/>
<path d="M57.6396 33.7596C54.4434 35.4274 37.8555 42.2461 34.2822 44.086C30.7089 45.9259 28.8116 45.9096 26.0169 44.5696C23.2222 43.2296 5.61399 36.1158 2.4259 34.5955C0.81956 33.8333 0 33.1941 0 32.5876V26.5392C0 26.5392 22.9805 21.5358 26.689 20.1917C30.3975 18.8477 31.6801 18.8108 34.8313 19.9828C37.9825 21.1547 56.8734 24.5313 59.9918 25.6705V31.6533C59.9918 32.2762 59.2747 32.899 57.6396 33.7596Z" fill="#A32422"/>
<path d="M57.6397 27.6906C54.4434 29.3625 37.8555 36.1812 34.2823 38.0211C30.709 39.8611 28.7953 39.8488 26.0006 38.5129C23.2059 37.177 5.61407 30.0509 2.42599 28.5265C-0.7621 27.0022 -0.819469 25.9654 2.30305 24.7443C5.42557 23.5231 22.9805 16.6347 26.689 15.3193C30.3976 14.0039 31.6802 13.922 34.8314 15.0653C37.9826 16.2086 54.5008 22.8265 57.6028 23.937C60.7049 25.0475 60.8483 26.0228 57.6397 27.6783V27.6906Z" fill="#DC382C"/>
<path d="M57.6397 23.5027C54.4434 25.1746 37.8555 31.9975 34.2822 33.8333C30.7089 35.6691 28.8116 35.6568 26.0169 34.325C23.2222 32.9933 5.61399 25.859 2.4259 24.3387C0.81956 23.5847 0 22.9413 0 22.3349V16.266C0 16.266 22.9805 11.279 26.689 9.93901C30.3975 8.59903 31.6801 8.55805 34.8313 9.71363C37.9825 10.8692 56.8652 14.2786 59.9836 15.4178V21.4006C59.9918 22.0316 59.2747 22.6463 57.6397 23.5027Z" fill="#A32422"/>
<path d="M57.6396 17.4422C54.4433 19.0813 37.8554 25.9452 34.2821 27.7687C30.7089 29.5922 28.7952 29.5881 26.0005 28.2604C23.2058 26.9327 5.61393 19.7903 2.42584 18.2741C-0.762251 16.7579 -0.823718 15.7048 2.3029 14.4836C5.42952 13.2625 22.9804 6.37816 26.6889 5.04228C30.3974 3.7064 31.68 3.66542 34.8312 4.821C37.9824 5.97658 54.5007 12.5453 57.6027 13.6845C60.7048 14.8237 60.8482 15.7703 57.6396 17.4299V17.4422Z" fill="#DC382C"/>
<path d="M30.9384 8.82468L34.8969 7.52568L33.8233 10.0909L37.8514 11.5989L32.6595 12.1398L31.4916 14.9427L29.6149 11.8161L23.6116 11.2752L28.0946 9.66063L26.7464 7.17737L30.9384 8.82468Z" fill="white"/>
<path d="M31.1885 25.1871L21.4849 21.159L35.3846 19.024L31.1885 25.1871Z" fill="white"/>
<path d="M17.7352 13.1559C21.833 13.1559 25.1645 14.4467 25.1645 16.0243C25.1645 17.602 21.8248 18.8928 17.7352 18.8928C13.6456 18.8928 10.3018 17.602 10.3018 16.0243C10.3018 14.4467 13.6333 13.1559 17.7352 13.1559Z" fill="white"/>
<path d="M44.0022 12.3651L52.2265 15.6147L44.0104 18.8642L44.0022 12.3651Z" fill="#741113"/>
<path d="M44.002 12.3651L44.0102 18.8642L43.1169 19.2126L34.8967 15.963L44.002 12.3651Z" fill="#AC2724"/>
</svg>
