<svg width="60" height="60" viewBox="0 0 60 60" fill="none" xmlns="http://www.w3.org/2000/svg">
<path d="M16.973 19.2382C17.097 19.8585 17.1591 20.4583 17.1591 21.0372C17.1591 21.5749 17.097 22.1538 16.973 22.7742L9.09903 22.7122V43.556C9.09903 45.2929 9.90502 46.1615 11.517 46.1615H16.229C16.5184 46.8644 16.663 47.5676 16.663 48.2708C16.663 48.9737 16.6217 49.408 16.539 49.5734C14.6377 49.8215 12.6744 49.9457 10.649 49.9457C6.63968 49.9457 4.63501 48.2293 4.63501 44.7967V22.7122L0.232997 22.7742C0.108988 22.1538 0.0469971 21.5749 0.0469971 21.0372C0.0469971 20.4583 0.108988 19.8585 0.232997 19.2382L4.63501 19.3002V12.7865C4.63501 11.6699 4.80034 10.8841 5.13102 10.4292C5.46169 9.93288 6.10234 9.68475 7.05303 9.68475H8.72701L9.09903 10.0569V19.3622L16.973 19.2382Z" fill="#0312B7"/>
<path d="M21.3948 47.5264C21.4364 46.6163 21.6841 45.6238 22.1387 44.5485C22.6351 43.4318 23.1933 42.5635 23.8134 41.943C27.0786 43.7214 29.9511 44.6105 32.4315 44.6105C33.7947 44.6105 34.891 44.3419 35.7169 43.8041C36.5847 43.2664 37.0193 42.5427 37.0193 41.6329C37.0193 40.1853 35.9028 39.0274 33.6708 38.1588L30.1997 36.8562C24.9907 34.9539 22.3875 31.914 22.3875 27.737C22.3875 26.2482 22.6554 24.9249 23.1933 23.7667C23.7719 22.5674 24.5575 21.5541 25.5492 20.727C26.5824 19.8585 27.8023 19.1968 29.2069 18.7419C30.6127 18.287 32.1828 18.0595 33.9195 18.0595C34.704 18.0595 35.5728 18.1215 36.523 18.2456C37.5155 18.3697 38.5072 18.5557 39.4986 18.8039C40.4914 19.0106 41.4413 19.2588 42.3509 19.5483C43.2601 19.8379 44.0457 20.148 44.7077 20.4789C44.7077 21.5128 44.5005 22.588 44.0875 23.7047C43.6745 24.8214 43.116 25.6485 42.4128 26.186C39.1476 24.7387 36.3169 24.0148 33.9195 24.0148C32.8448 24.0148 31.9972 24.2837 31.377 24.8214C30.7569 25.3177 30.4473 25.9794 30.4473 26.8065C30.4473 28.0886 31.4805 29.1019 33.5471 29.8463L37.3288 31.2109C40.0571 32.1622 42.0828 33.4648 43.4054 35.1193C44.7279 36.7735 45.3896 38.6966 45.3896 40.8885C45.3896 43.8249 44.2936 46.182 42.1033 47.9604C39.913 49.6976 36.7717 50.5659 32.6791 50.5659C28.67 50.5659 24.9085 49.5526 21.3948 47.5264Z" fill="#0312B7"/>
<path d="M55.5511 58.3825V1.62016C56.1702 1.4961 56.8737 1.43405 57.6593 1.43405C58.4853 1.43405 59.2496 1.4961 59.953 1.62016V58.3825C59.2496 58.5067 58.4853 58.5686 57.6593 58.5686C56.8737 58.5686 56.1702 58.5067 55.5511 58.3825Z" fill="#DB3173"/>
</svg>
