<svg width="60" height="60" viewBox="0 0 60 60" fill="none" xmlns="http://www.w3.org/2000/svg">
<path d="M50.8104 17.5214C50.6458 17.5232 50.493 17.4362 50.4105 17.2938L43.4518 5.2277C43.3656 5.08485 43.2103 4.99825 43.0434 5.00004H14.6556C14.4906 4.99784 14.3372 5.08489 14.2545 5.2277L7.02712 17.7491L0.302067 29.8187C0.221333 29.9615 0.221333 30.1361 0.302067 30.2789L7.02712 42.3353L14.2545 54.8627C14.337 55.0052 14.4898 55.0921 14.6544 55.0904H43.0434C43.209 55.0909 43.3627 55.0045 43.4482 54.8627L50.4154 42.8051C50.4979 42.6627 50.6507 42.5757 50.8153 42.5774H59.4797C59.7671 42.5774 60 42.3445 60 42.0571V18.0418C60 17.7544 59.7671 17.5214 59.4797 17.5214H50.8068H50.8104Z" fill="#4D4D4D"/>
<path d="M6.76813 18.2008L0.119995 30.0499L0.827251 31.6075L7.43365 42.3994L11.7478 42.5762L46.3511 42.5738H53.5231L58.1322 41.4079L59.9988 36.2511L60 30.3054V24.7982L59.4808 17.5214H50.8104L48.1471 17.5226H42.2195H15.8132L6.76813 18.2008Z" fill="#E2E2E2"/>
<path d="M8.6051 28.7841L0.827268 31.6075L0.0623731 30.2825C0.0215245 30.2125 0 30.1329 0 30.0519C0 29.9708 0.0215245 29.8912 0.0623731 29.8212L3.5833 23.7225L8.6051 28.7841Z" fill="#E1E1E1"/>
<path d="M54.8734 31.0378L60 30.3054V36.2511L54.8734 31.0378Z" fill="#C8C8C8"/>
<path d="M54.8734 31.0378L59.9988 36.2511V42.0583C59.9991 42.1943 59.9455 42.3249 59.8498 42.4215C59.7541 42.5181 59.624 42.5729 59.488 42.5738H53.5231L54.8734 31.0378Z" fill="#C2C2C2"/>
<path d="M54.8734 31.0378L53.5231 42.5738H46.3511L44.1781 37.34L54.8734 31.0378Z" fill="#C7C7C7"/>
<path d="M54.8734 31.0378L60 24.7982V30.3054L54.8734 31.0378Z" fill="#CECECE"/>
<path d="M60 18.043V24.7982L54.8746 31.0378L51.008 17.5214H59.4797C59.5481 17.5214 59.6159 17.5349 59.6791 17.5611C59.7423 17.5874 59.7997 17.6258 59.848 17.6743C59.8964 17.7227 59.9347 17.7802 59.9608 17.8435C59.9868 17.9068 60.0002 17.9746 60 18.043Z" fill="#D3D3D3"/>
<path d="M46.3511 42.5739H42.5688L41.5883 41.1681L44.1781 37.3401L46.3511 42.5739Z" fill="#C6C6C6"/>
<path d="M54.8734 31.0378L40.6849 25.0403L48.1472 17.5226H51.008L54.8734 31.0378Z" fill="#D5D5D5"/>
<path d="M40.6849 25.0403L44.1782 37.34L54.8746 31.0378L40.6849 25.0403Z" fill="#D0D0D0"/>
<path d="M42.5688 42.5738H41.5425L41.5883 41.1681L42.5688 42.5738Z" fill="#BFBFBF"/>
<path d="M48.1472 17.5226L40.685 25.0403L39.3383 18.3164L42.2196 17.5226H48.1472Z" fill="#D9D9D9"/>
<path d="M40.6849 25.0403L23.4597 29.0153L41.5883 41.1681L40.6849 25.0403Z" fill="#D4D4D4"/>
<path d="M40.6849 25.0403L41.5871 41.1693L44.177 37.3412L40.6849 25.0403Z" fill="#D0D0D0"/>
<path d="M39.3382 18.3164L23.4658 29.0117L40.6909 25.0367L39.3382 18.3164Z" fill="#D9D9D9"/>
<path d="M23.4658 29.0117L16.0011 42.5738H11.7478L8.6051 28.7841L23.4658 29.0117Z" fill="#D8D8D8"/>
<path d="M15.8132 17.5214L8.60514 28.784L6.76819 18.2008L7.02717 17.7551V17.7467C7.06919 17.678 7.12813 17.6212 7.19835 17.5817C7.26858 17.5423 7.34775 17.5215 7.42829 17.5214H15.8132Z" fill="#E2E2E2"/>
<path d="M11.7478 42.5763H7.42825C7.34601 42.5754 7.26549 42.5526 7.19499 42.5103C7.12448 42.4679 7.06654 42.4075 7.02713 42.3353L0.827271 31.6075L8.60511 28.7841L11.7478 42.5763Z" fill="#D8D8D8"/>
<path d="M3.58331 23.7213L6.76816 18.2008L8.60512 28.7841L3.58331 23.7213Z" fill="#E4E4E4"/>
<path d="M31.3315 17.5226H26.3639H18.7583L23.4657 29.0117L39.3382 18.3164L34.5537 17.5226H31.3315Z" fill="#DEDEDE"/>
<path d="M16.7949 17.5226H15.8132L8.6051 28.7841L23.4658 29.0117L18.7583 17.5226H16.7949Z" fill="#DEDEDE"/>
<path d="M38.1324 42.5738H40.9017H41.5425L41.5883 41.1681L38.1324 42.5738Z" fill="#C5C5C5"/>
<path d="M41.5884 41.1681L23.4658 29.0117L26.7301 42.5738H31.3315H38.1325L41.5884 41.1681Z" fill="#D0D0D0"/>
<path d="M16.0011 42.5738H16.7949H26.3639H26.7301L23.4657 29.0117L16.0011 42.5738Z" fill="#D1D1D1"/>
<path d="M39.3876 17.5226L39.3383 18.3164L42.2196 17.5226H40.9018H39.3876Z" fill="#DDDDDD"/>
<path d="M34.5537 17.5226L39.3382 18.3164L38.8973 17.5226H34.5537Z" fill="#E3E3E3"/>
<path d="M38.8973 17.5226L39.3382 18.3164L39.3876 17.5226H38.8973Z" fill="#E2E2E2"/>
<path d="M26.3181 17.7395L19.3136 29.8633C19.2803 29.9238 19.2629 29.9918 19.263 30.0609H14.3834L23.9885 13.4163C24.0478 13.4488 24.0973 13.4967 24.1318 13.5548L24.1451 13.5681L26.3229 17.3516C26.3533 17.4119 26.3688 17.4786 26.3679 17.5461C26.3671 17.6136 26.35 17.6799 26.3181 17.7395Z" fill="#00B8E3"/>
<path d="M26.3097 42.8039L24.1415 46.5705C24.1044 46.6279 24.054 46.6754 23.9945 46.7091L14.3749 30.0657H19.2654C19.2637 30.1317 19.2795 30.1969 19.3112 30.2548C19.3123 30.2622 19.3152 30.2693 19.3197 30.2753L26.3061 42.3907C26.3431 42.4531 26.363 42.5242 26.3636 42.5968C26.3643 42.6694 26.3457 42.7408 26.3097 42.8039Z" fill="#33C6E9"/>
<path d="M23.9885 13.4163L14.3834 30.0609L11.9742 34.2359L9.67353 30.2464C9.64178 30.1885 9.62598 30.1232 9.62776 30.0573C9.62759 29.9882 9.645 29.9202 9.67835 29.8597L12.0031 25.8329L19.0799 13.5777C19.1157 13.5133 19.1681 13.4598 19.2317 13.4227C19.2953 13.3856 19.3677 13.3663 19.4413 13.3669H23.7825C23.8542 13.366 23.925 13.3829 23.9885 13.4163Z" fill="#008AAA"/>
<path d="M23.9885 46.7091C23.9255 46.7441 23.8547 46.7627 23.7825 46.7633H19.4341C19.3605 46.7639 19.288 46.7446 19.2245 46.7075C19.1609 46.6704 19.1084 46.6168 19.0727 46.5525L12.6018 35.3501L11.9658 34.2395L14.3749 30.0645L23.9885 46.7091Z" fill="#00B8E3"/>
<path d="M43.3073 30.0609L33.6949 46.7091C33.6373 46.6742 33.5883 46.6269 33.5515 46.5706L33.5431 46.5585L31.3592 42.7834C31.3281 42.7235 31.3118 42.657 31.3118 42.5895C31.3118 42.522 31.3281 42.4555 31.3592 42.3956L38.3529 30.2717C38.3915 30.2081 38.4119 30.1352 38.4119 30.0609H43.2988H43.3073Z" fill="#008AAA"/>
<path d="M48.064 30.0609C48.064 30.1352 48.0436 30.2081 48.005 30.2717L38.5938 46.5706C38.5568 46.6299 38.5053 46.6788 38.4442 46.7127C38.3831 46.7467 38.3144 46.7645 38.2445 46.7645H33.9081C33.8344 46.764 33.762 46.7454 33.6973 46.7103L43.3072 30.0609L45.7164 25.8907L48.005 29.8549C48.0429 29.917 48.0633 29.9882 48.064 30.0609Z" fill="#00B8E3"/>
<path d="M43.3073 30.0609H38.4216C38.4208 29.9882 38.4004 29.917 38.3626 29.8549L31.3761 17.7431C31.3389 17.6799 31.3193 17.608 31.3193 17.5347C31.3193 17.4614 31.3389 17.3895 31.3761 17.3263L33.554 13.556C33.5908 13.4997 33.6398 13.4524 33.6973 13.4175L43.3073 30.0609Z" fill="#00B8E3"/>
<path d="M45.7175 25.8859L43.3084 30.0561L33.6948 13.4163C33.7596 13.3812 33.832 13.3626 33.9056 13.3621H38.242C38.3119 13.3621 38.3807 13.3799 38.4418 13.4139C38.5029 13.4478 38.5544 13.4967 38.5914 13.556L45.7175 25.8859Z" fill="#33C6E9"/>
</svg>
