<svg width="60" height="60" viewBox="0 0 60 60" fill="none" xmlns="http://www.w3.org/2000/svg">
<path d="M42.5393 29.275C42.5391 26.2059 41.8735 23.1733 40.5885 20.3861C39.3034 17.5989 37.4294 15.1235 35.0956 13.1302C34.8527 13.0538 34.6075 12.9788 34.36 12.9053C32.8233 13.3161 31.3525 13.9424 29.9915 14.7656C32.495 16.2687 34.5668 18.3942 36.0052 20.9355C37.4436 23.4767 38.1996 26.3471 38.1996 29.2671C38.1996 32.1872 37.4436 35.0576 36.0052 37.5988C34.5668 40.1401 32.495 42.2656 29.9915 43.7686C31.3521 44.5921 32.8231 45.2177 34.36 45.6267C34.6075 45.5615 34.8527 45.4895 35.0956 45.413C37.4285 43.4205 39.3019 40.9461 40.5869 38.1602C41.8719 35.3743 42.5379 32.343 42.5393 29.275Z" fill="url(#paint0_linear_1216_14301)"/>
<path d="M34.7402 12.8265L34.3668 12.9188C34.486 12.8828 34.6143 12.858 34.7402 12.8265Z" fill="url(#paint1_linear_1216_14301)"/>
<path d="M4.33124 29.275C4.33622 25.6754 5.48599 22.1706 7.61427 19.2675C9.74256 16.3644 12.7391 14.2135 16.1704 13.1257C18.8821 10.7963 22.1381 9.18923 25.6364 8.4535C22.5397 7.80465 19.3374 7.8547 16.2625 8.59998C13.1876 9.34526 10.3177 10.767 7.86178 12.7617C5.40585 14.7563 3.42576 17.2737 2.06574 20.1304C0.705714 22.987 0 26.1111 0 29.275C0 32.4389 0.705714 35.563 2.06574 38.4197C3.42576 41.2763 5.40585 43.7937 7.86178 45.7883C10.3177 47.783 13.1876 49.2048 16.2625 49.95C19.3374 50.6953 22.5397 50.7454 25.6364 50.0965C22.1441 49.3589 18.8945 47.7518 16.1884 45.4243C12.7535 44.34 9.75287 42.1905 7.6211 39.2871C5.48933 36.3836 4.33708 32.877 4.33124 29.275Z" fill="url(#paint2_linear_1216_14301)"/>
<path d="M34.36 45.6357C34.4837 45.6695 34.6097 45.6987 34.7334 45.7302C34.6142 45.6942 34.486 45.6695 34.36 45.6357Z" fill="url(#paint3_linear_1216_14301)"/>
<path d="M51.2808 29.275C51.2806 26.2046 50.6144 23.1707 49.3281 20.3827C48.0419 17.5946 46.1662 15.1187 43.8304 13.1258C40.7612 12.1596 37.4805 12.0862 34.3712 12.9143C37.9763 13.8754 41.1631 16.0003 43.4363 18.9589C45.7095 21.9174 46.9418 25.544 46.9418 29.275C46.9418 33.0061 45.7095 36.6326 43.4363 39.5912C41.1631 42.5498 37.9763 44.6747 34.3712 45.6358C37.4802 46.4669 40.7617 46.3936 43.8304 45.4243C46.1665 43.4316 48.0425 40.9558 49.3287 38.1677C50.615 35.3796 51.281 32.3456 51.2808 29.275Z" fill="url(#paint4_linear_1216_14301)"/>
<path d="M24.9008 45.4243C21.4671 44.3406 18.4681 42.1907 16.3393 39.2867C14.2106 36.3827 13.0629 32.8757 13.0629 29.275C13.0629 25.6743 14.2106 22.1673 16.3393 19.2633C18.4681 16.3593 21.4671 14.2094 24.9008 13.1257C27.6106 10.7973 30.8641 9.19029 34.36 8.4535C31.2634 7.80465 28.061 7.8547 24.9861 8.59998C21.9113 9.34526 19.0413 10.767 16.5854 12.7617C14.1295 14.7563 12.1494 17.2737 10.7894 20.1304C9.42935 22.987 8.72363 26.1111 8.72363 29.275C8.72363 32.4389 9.42935 35.563 10.7894 38.4197C12.1494 41.2763 14.1295 43.7937 16.5854 45.7883C19.0413 47.783 21.9113 49.2048 24.9861 49.95C28.061 50.6953 31.2634 50.7454 34.36 50.0965C30.8638 49.3607 27.6101 47.7535 24.9008 45.4243Z" fill="url(#paint5_linear_1216_14301)"/>
<path d="M38.7263 8.00134C34.5188 8.00134 30.4057 9.24902 26.9073 11.5866C23.4089 13.9242 20.6822 17.2467 19.072 21.1339C17.4619 25.0212 17.0406 29.2986 17.8614 33.4253C18.6823 37.552 20.7084 41.3426 23.6836 44.3178C26.6587 47.2929 30.4493 49.3191 34.576 50.1399C38.7027 50.9608 42.9801 50.5395 46.8674 48.9293C50.7546 47.3192 54.0771 44.5925 56.4147 41.094C58.7523 37.5956 60 33.4825 60 29.275C59.9934 23.6349 57.75 18.2277 53.7618 14.2395C49.7737 10.2513 44.3664 8.00789 38.7263 8.00134ZM55.6584 29.275C55.6589 32.6245 54.666 35.8989 52.8054 38.6841C50.9448 41.4693 48.3 43.6401 45.2056 44.9221C42.1112 46.2041 38.706 46.5397 35.4209 45.8863C32.1357 45.233 29.1181 43.6201 26.7497 41.2517C24.3812 38.8832 22.7683 35.8656 22.115 32.5804C21.4616 29.2953 21.7972 25.8902 23.0792 22.7957C24.3612 19.7013 26.5321 17.0565 29.3172 15.1959C32.1024 13.3353 35.3768 12.3425 38.7263 12.3429C43.2153 12.3483 47.519 14.1339 50.6932 17.3081C53.8674 20.4823 55.6531 24.786 55.6584 29.275Z" fill="#383838"/>
<defs>
<linearGradient id="paint0_linear_1216_14301" x1="53.076" y1="29.275" x2="-0.489477" y2="29.275" gradientUnits="userSpaceOnUse">
<stop stop-color="#D53C97"/>
<stop offset="0.52" stop-color="#AC1BB5"/>
<stop offset="1" stop-color="#8934D9"/>
</linearGradient>
<linearGradient id="paint1_linear_1216_14301" x1="53.0761" y1="12.8693" x2="-0.489495" y2="12.8693" gradientUnits="userSpaceOnUse">
<stop stop-color="#D53C97"/>
<stop offset="0.52" stop-color="#AC1BB5"/>
<stop offset="1" stop-color="#8934D9"/>
</linearGradient>
<linearGradient id="paint2_linear_1216_14301" x1="53.076" y1="29.275" x2="-0.489471" y2="29.275" gradientUnits="userSpaceOnUse">
<stop stop-color="#D53C97"/>
<stop offset="0.52" stop-color="#AC1BB5"/>
<stop offset="1" stop-color="#8934D9"/>
</linearGradient>
<linearGradient id="paint3_linear_1216_14301" x1="53.076" y1="45.683" x2="-0.489583" y2="45.683" gradientUnits="userSpaceOnUse">
<stop stop-color="#D53C97"/>
<stop offset="0.52" stop-color="#AC1BB5"/>
<stop offset="1" stop-color="#8934D9"/>
</linearGradient>
<linearGradient id="paint4_linear_1216_14301" x1="53.0759" y1="29.275" x2="-0.489524" y2="29.275" gradientUnits="userSpaceOnUse">
<stop stop-color="#FF3B65"/>
<stop offset="0.61" stop-color="#F9597C"/>
<stop offset="1" stop-color="#D53C97"/>
</linearGradient>
<linearGradient id="paint5_linear_1216_14301" x1="53.076" y1="29.275" x2="-0.48946" y2="29.275" gradientUnits="userSpaceOnUse">
<stop stop-color="#FF3B65"/>
<stop offset="0.61" stop-color="#F9597C"/>
<stop offset="1" stop-color="#D53C97"/>
</linearGradient>
</defs>
</svg>
