<svg width="60" height="60" viewBox="0 0 60 60" fill="none" xmlns="http://www.w3.org/2000/svg">
<path d="M48.6042 49.0027C49.3881 48.8826 50.1664 48.7737 50.9419 48.6425C52.3591 48.3996 53.7009 47.9194 54.9562 47.227C56.1725 46.557 57.2047 45.6887 58.0304 44.5384C58.686 43.6255 59.1826 42.6539 59.5145 41.6042C59.7377 40.895 59.8939 40.144 59.9497 39.4041C60.0223 38.4465 60.0111 37.4777 59.9497 36.5173C59.8995 35.6853 59.7433 34.8562 59.6122 34.0298C59.5117 33.3876 59.3862 32.7455 59.2495 32.1089C59.1993 31.8716 58.9929 31.6371 59.0152 31.4193C59.057 31.0285 58.898 30.6907 58.806 30.3528C58.5549 29.412 58.2592 28.4795 57.9105 27.5693C57.6092 26.7876 57.2493 26.0198 56.8448 25.2828C56.432 24.5262 55.9326 23.8142 55.4751 23.0827C55.3858 22.9376 55.3328 22.7673 55.2296 22.6388C55.0037 22.3569 54.7414 22.1028 54.5183 21.818C54.1444 21.3434 53.8013 20.8436 53.4247 20.369C53.0258 19.8665 52.5627 19.4114 52.2 18.8837C51.5863 17.9987 50.8945 17.1863 50.1524 16.4101C49.0366 15.2431 47.8677 14.1487 46.4896 13.2776C45.2538 12.4987 43.951 11.8761 42.5925 11.3596C42.3525 11.2675 42.1043 11.1977 41.8588 11.1223C41.4236 10.9911 40.9912 10.8487 40.5504 10.7426C39.8949 10.5862 39.2365 10.4187 38.5698 10.3322C37.9756 10.254 37.3897 10.0837 36.7816 10.1256C36.6784 10.1312 36.5724 10.1312 36.4692 10.1256C35.9586 10.0837 35.4481 9.99715 34.9376 9.99994C34.3574 10.0027 33.7716 10.0502 33.1997 10.1367C32.2986 10.2735 31.3892 10.402 30.5132 10.6421C29.5062 10.9185 28.5326 11.3149 27.545 11.6611C27.3051 11.7449 27.0513 11.8035 26.8309 11.9236C26.3929 12.1637 25.9745 12.4401 25.5476 12.7025C24.9953 13.0431 24.3927 13.3251 23.9045 13.7411C23.2657 14.2827 22.5543 14.749 22.0159 15.4134C21.4664 16.0946 20.8526 16.7228 20.3198 17.418C19.2207 18.8558 18.4424 20.4779 17.7282 22.1307C17.6864 22.2284 17.5692 22.3289 17.466 22.3569C16.9722 22.4909 16.4673 22.5914 15.9707 22.7198C14.5368 23.0911 13.0974 23.4513 11.6719 23.8505C8.87384 24.635 6.27109 25.8607 3.82177 27.4102C2.15634 28.4627 0.940047 29.9117 0.365377 31.8074C0.052935 32.8404 -0.0865479 33.9097 0.0473557 35.0153C0.17289 36.0427 0.276108 37.0701 0.555074 38.0696C0.714084 38.6392 0.870305 39.2115 1.05163 39.7755C1.48682 41.1267 2.06149 42.4194 2.78401 43.6422C3.67949 45.1582 4.77583 46.5067 6.20134 47.5509C6.96013 48.1065 7.78587 48.5671 8.58929 49.0557C8.76504 49.1618 8.98822 49.1841 9.17233 49.2763C9.54336 49.4689 9.8837 49.7397 10.2743 49.8765C11.1865 50.2004 12.1154 50.4768 13.0472 50.7504C14.3723 51.1413 15.728 51.3144 17.1061 51.3758C18.5344 51.4372 19.9488 51.359 21.3492 51.0715C22.2782 50.8788 23.196 50.6443 24.0831 50.2786C25.2352 49.8011 26.2702 49.1311 27.2828 48.4192C28.58 47.5062 29.7544 46.4509 30.8759 45.3313C31.431 44.7757 31.9862 44.2229 32.5274 43.6534C32.6864 43.4859 32.8203 43.4831 33.01 43.578C33.4786 43.8125 33.9557 44.0359 34.4299 44.2592C35.0771 44.5608 35.7327 44.8483 36.3743 45.161C37.267 45.5938 38.1374 46.0823 39.044 46.4816C40.1292 46.959 41.2451 47.375 42.3498 47.8105C43.4489 48.2461 44.601 48.5029 45.7587 48.7039C46.6905 48.8659 47.6445 48.9105 48.6014 49.0082L48.6042 49.0027Z" fill="#FFFEFF"/>
<path d="M48.6043 49.0027C47.6474 48.905 46.6961 48.8603 45.7616 48.6984C44.6039 48.4974 43.4546 48.2405 42.3527 47.805C41.2479 47.3695 40.1321 46.9535 39.0469 46.476C38.1403 46.0768 37.2699 45.591 36.3772 45.1555C35.7356 44.8428 35.08 44.5552 34.4328 44.2537C33.9586 44.0304 33.4815 43.8098 33.0129 43.5725C32.8232 43.4776 32.6893 43.4804 32.5303 43.6479C31.9891 44.2174 31.4339 44.773 30.8788 45.3258C29.7573 46.4425 28.5829 47.5007 27.2857 48.4136C26.2758 49.1256 25.2409 49.7956 24.086 50.273C23.2016 50.6415 22.281 50.8733 21.3521 51.0659C19.9545 51.3563 18.5373 51.4344 17.109 51.3702C15.7309 51.3088 14.3724 51.1357 13.0501 50.7449C12.1211 50.4712 11.1894 50.1948 10.2771 49.871C9.88659 49.7342 9.54625 49.4606 9.17523 49.2707C8.99111 49.1758 8.76794 49.1535 8.59219 49.0502C7.78877 48.5616 6.96303 48.1009 6.20424 47.5453C4.77873 46.504 3.68239 45.1527 2.78691 43.6367C2.06439 42.4138 1.48693 41.1212 1.05453 39.7699C0.873202 39.206 0.716981 38.6364 0.557971 38.0641C0.276215 37.0646 0.175787 36.0372 0.0502528 35.0098C-0.0864405 33.9042 0.0558321 32.8349 0.368274 31.8019C0.942944 29.9034 2.15924 28.4572 3.82466 27.4046C6.27398 25.8551 8.87953 24.6295 11.6748 23.845C13.1003 23.4457 14.5397 23.0856 15.9736 22.7143C16.4702 22.5858 16.9751 22.4853 17.4689 22.3513C17.5693 22.3234 17.6893 22.2229 17.7311 22.1252C18.4453 20.4724 19.2236 18.8503 20.3227 17.4125C20.8527 16.7173 21.4693 16.0891 22.0188 15.4079C22.5572 14.7434 23.2658 14.28 23.9074 13.7355C24.3956 13.3196 24.9982 13.0376 25.5505 12.697C25.9773 12.4345 26.3958 12.1581 26.8338 11.918C27.0542 11.798 27.308 11.7393 27.5479 11.6556C28.5355 11.3094 29.5091 10.9129 30.5161 10.6366C31.3921 10.3964 32.3015 10.268 33.2026 10.1312C33.7744 10.0503 34.3603 10.0028 34.9405 10C35.451 10 35.9615 10.0838 36.472 10.1256C36.5753 10.134 36.6813 10.134 36.7845 10.1256C37.3926 10.0838 37.9785 10.2541 38.5727 10.3322C39.2394 10.4216 39.8978 10.5863 40.5533 10.7426C40.9941 10.8487 41.4265 10.9911 41.8617 11.1223C42.1072 11.1949 42.3554 11.2675 42.5954 11.3597C43.9539 11.8762 45.2567 12.4987 46.4925 13.2777C47.8734 14.1487 49.0423 15.2432 50.1553 16.4102C50.8946 17.1863 51.5892 17.9988 52.2029 18.8838C52.5656 19.4087 53.0287 19.8665 53.4276 20.3691C53.8042 20.8437 54.1473 21.3407 54.5211 21.8181C54.7443 22.1028 55.0065 22.3569 55.2325 22.6389C55.3357 22.7701 55.3887 22.9404 55.478 23.0828C55.9355 23.8171 56.4321 24.5262 56.8477 25.2828C57.2494 26.0199 57.6121 26.7848 57.9134 27.5694C58.2621 28.4795 58.5606 29.412 58.8089 30.3529C58.8981 30.6935 59.0599 31.0285 59.0181 31.4194C58.9958 31.6372 59.1994 31.8717 59.2524 32.109C59.3891 32.7455 59.5146 33.3849 59.6151 34.0298C59.7462 34.8562 59.8996 35.6826 59.9526 36.5174C60.0112 37.4778 60.0224 38.4466 59.9526 39.4042C59.8968 40.1468 59.7406 40.8951 59.5174 41.6042C59.1855 42.6567 58.6889 43.6283 58.0333 44.5385C57.2076 45.6859 56.1754 46.557 54.9591 47.2271C53.701 47.9195 52.3619 48.3997 50.9448 48.6426C50.1721 48.7766 49.3938 48.8827 48.6071 49.0027H48.6043ZM38.6898 35.7859C38.3495 36.3387 38.0398 36.9138 37.6632 37.4387C36.7399 38.723 35.783 39.9849 34.8401 41.2552C34.7006 41.4088 34.5611 41.5623 34.4244 41.7187C34.0506 42.1402 34.0478 42.143 34.5583 42.3803C37.1778 43.606 39.8029 44.8232 42.4168 46.0601C44.6513 47.1154 46.9891 47.5649 49.4551 47.3304C51.3493 47.1489 53.1291 46.5989 54.7722 45.6469C56.7194 44.5189 58.0835 42.9276 58.6359 40.6968C58.9483 39.4293 58.8898 38.159 58.7949 36.8803C58.7642 36.4727 58.7363 36.0763 58.5996 35.6798C58.5076 35.409 58.5745 35.0796 58.5773 34.778C58.5857 34.2113 58.4992 33.6613 58.3765 33.1085C58.2286 32.4496 58.0975 31.7907 57.9106 31.1402C57.269 28.9039 56.2479 26.8574 54.987 24.9143C53.8739 23.1945 52.7107 21.511 51.3493 19.9754C49.9768 18.4259 48.621 16.8597 47.1871 15.366C45.9429 14.0734 44.4058 13.1995 42.6958 12.6383C41.1308 12.1246 39.5351 11.7366 37.8892 11.6779C36.6339 11.6333 35.3701 11.6779 34.1148 11.7673C32.865 11.8538 31.6599 12.2056 30.4603 12.5574C28.1003 13.247 25.9271 14.3079 24.0078 15.8518C22.0383 17.4348 20.6686 19.4896 19.4802 21.6841C19.444 21.7483 19.444 21.8348 19.43 21.9102C19.5081 21.9214 19.5946 21.9577 19.6616 21.9353C20.3088 21.7399 21.0118 21.8041 21.6394 21.5193C21.7315 21.5193 21.8263 21.5389 21.9156 21.5249C23.1403 21.3183 24.3621 21.1033 25.5896 20.9023C26.1364 20.813 26.6915 20.7516 27.2411 20.679C27.9106 20.5924 28.5801 20.5059 29.2496 20.4193C29.5202 20.383 29.788 20.3384 30.0614 20.3132C30.7784 20.2518 31.4981 20.1513 32.215 20.1597C32.9794 20.1681 33.741 20.2853 34.5053 20.3551C34.6532 20.4138 34.801 20.4752 34.9489 20.531C35.6714 20.7934 36.4135 21.0168 37.1165 21.3267C38.3969 21.8879 39.3956 22.7617 39.9229 24.0963C40.2381 24.8947 40.4947 25.7072 40.4892 26.581C40.4836 27.4409 40.5728 28.312 40.4613 29.158C40.3022 30.3668 40.0484 31.5674 39.736 32.7455C39.4598 33.7785 39.0441 34.7752 38.6898 35.7887V35.7859ZM14.2496 44.8875C15.6668 44.9796 17.07 44.8316 18.4592 44.5915C20.1386 44.3012 21.7733 43.8405 23.3606 43.2179C24.0274 42.9555 24.6885 42.6763 25.3413 42.3776C25.9941 42.0788 26.6441 41.7717 27.2717 41.4255C27.8771 41.0905 28.5131 40.8169 29.0962 40.4344C29.9108 39.9011 30.7616 39.4321 31.5846 38.91C33.4536 37.7235 35.1191 36.3024 36.5167 34.577C37.2922 33.6194 37.9031 32.5585 38.4611 31.4613C39.1585 30.0877 39.6857 28.6638 39.7862 27.1199C39.9089 25.2465 39.2282 23.7221 37.666 22.6389C37.2113 22.3234 36.712 22.0749 36.2266 21.8097C35.7439 21.5445 35.2028 21.4188 34.6811 21.2681C34.1427 21.1117 33.5708 21.0084 33.0129 20.9889C32.0923 20.961 31.1661 21.0252 30.2427 21.0419C29.9219 21.0475 29.5816 20.894 29.297 21.1704C29.2775 21.1899 29.2301 21.1787 29.1966 21.1815C28.2956 21.2792 27.3861 21.3351 26.4934 21.4886C24.9731 21.7483 23.4332 21.8683 21.9323 22.2564C21.2684 22.4267 20.571 22.4658 19.8987 22.611C18.2388 22.9711 16.579 23.3313 14.9331 23.7473C13.2983 24.1605 11.6664 24.596 10.0568 25.0985C8.44155 25.6039 6.93792 26.3912 5.44545 27.1785C4.68946 27.5777 3.92509 27.963 3.28347 28.5409C3.05472 28.7475 2.80923 28.9346 2.58884 29.1496C1.20238 30.5148 0.518916 32.1899 0.429646 34.1164C0.371064 35.3448 0.530074 36.5341 0.942944 37.7067C1.72684 39.9402 3.01845 41.741 5.09954 42.9303C5.30318 43.0448 5.52635 43.2905 5.69931 43.2542C6.01175 43.19 6.1066 43.4385 6.30746 43.5166C6.36046 43.5362 6.41068 43.5641 6.46647 43.5864C7.42053 43.9633 8.38576 44.3095 9.40398 44.4715C10.3023 44.6139 11.1977 44.7897 12.1016 44.8735C12.8129 44.9405 13.5383 44.8875 14.2552 44.8875H14.2496Z" fill="#1D2A12"/>
<path d="M34.5053 20.3551C33.741 20.2853 32.9794 20.168 32.215 20.1596C31.4981 20.1513 30.7783 20.2518 30.0614 20.3132C29.7908 20.3355 29.5202 20.383 29.2496 20.4193C28.5801 20.5058 27.9106 20.5924 27.241 20.6789C26.6915 20.7515 26.1363 20.8129 25.5896 20.9023C24.3649 21.1033 23.1402 21.3183 21.9156 21.5249C21.8263 21.5388 21.7315 21.5221 21.6394 21.5193C21.6561 21.4188 21.645 21.3043 21.6924 21.2178C22.0188 20.6315 22.3201 20.0312 22.6939 19.4756C23.3495 18.504 24.1445 17.6553 25.0428 16.8931C26.1642 15.9411 27.414 15.2096 28.7642 14.6457C30.12 14.0817 31.526 13.6797 32.9487 13.3335C33.9585 13.0878 34.9768 12.9147 36.0117 12.8477C36.5139 12.8142 37.0244 12.87 37.5293 12.9091C38.2853 12.9649 39.0413 13.0264 39.7945 13.1157C41.6496 13.3363 43.3541 13.9672 44.9108 15.0002C46.0489 15.7568 47.1397 16.5693 48.0268 17.6246C48.6656 18.384 49.3491 19.1099 49.9517 19.8944C50.9643 21.2122 51.924 22.569 52.9199 23.898C54.0525 25.4112 55.0261 27.0193 55.8909 28.6944C56.5185 29.9145 56.9174 31.2155 57.1685 32.5584C57.3303 33.4267 57.414 34.3117 57.5284 35.1884C57.5535 35.3782 57.5674 35.5709 57.5814 35.7635C57.6093 36.2353 57.6623 36.7072 57.6511 37.179C57.6428 37.648 57.5591 38.1171 57.5312 38.5889C57.4726 39.5409 57.2299 40.4539 56.8979 41.3389C56.393 42.693 55.3636 43.6171 54.2198 44.4072C53.2128 45.1024 52.0913 45.563 50.8862 45.8227C49.6253 46.0935 48.3644 46.1996 47.0755 46.0851C46.0517 45.993 45.0865 45.7082 44.1464 45.3229C42.1183 44.4937 40.0958 43.659 38.0761 42.813C37.1304 42.4166 36.1931 41.995 35.2585 41.5734C35.1023 41.5036 34.9768 41.364 34.8373 41.2552C35.7802 39.9848 36.737 38.7229 37.6604 37.4386C38.0398 36.9138 38.3467 36.3386 38.687 35.7858C38.8293 35.8305 38.9716 35.9087 39.1138 35.9115C39.9201 35.9254 40.7346 36.0036 41.5297 35.9003C42.6985 35.7495 43.6805 35.1632 44.4449 34.2559C45.0279 33.5635 45.4631 32.7901 45.7951 31.9414C46.0685 31.2434 46.2079 30.5287 46.2554 29.7917C46.3112 28.8815 46.0824 28.0132 45.809 27.1533C45.491 26.1566 44.9275 25.2828 44.4226 24.381C44.1882 23.9622 43.9121 23.5546 43.608 23.1833C43.0891 22.5523 42.5981 21.8683 41.9732 21.3629C41.1893 20.7292 40.3524 20.1429 39.3816 19.7827C38.7707 19.5566 38.157 19.4114 37.507 19.3667C36.525 19.2997 35.6491 19.6543 34.7759 20.02C34.6615 20.0675 34.5946 20.2378 34.5053 20.3495V20.3551Z" fill="#DCE072"/>
<path d="M34.8372 41.2552C34.9767 41.3613 35.1022 41.5009 35.2584 41.5735C36.193 41.995 37.1303 42.4166 38.076 42.8131C40.0957 43.659 42.121 44.4938 44.1463 45.323C45.0864 45.7083 46.0516 45.993 47.0754 46.0852C48.3643 46.1996 49.6252 46.0935 50.8861 45.8227C52.0912 45.5631 53.2155 45.1024 54.2198 44.4072C55.3635 43.6171 56.3929 42.693 56.8978 41.339C57.227 40.4539 57.4725 39.541 57.5311 38.5889C57.559 38.1171 57.6427 37.6509 57.651 37.179C57.6594 36.7072 57.6092 36.2354 57.5813 35.7635C57.5701 35.5709 57.5534 35.3811 57.5283 35.1884C57.4139 34.3118 57.3302 33.4267 57.1684 32.5585C56.9174 31.2156 56.5184 29.9145 55.8908 28.6945C55.026 27.0193 54.0524 25.4112 52.9198 23.898C51.9239 22.5691 50.9642 21.2094 49.9516 19.8944C49.3462 19.1099 48.6655 18.384 48.0267 17.6246C47.1396 16.5693 46.0516 15.7569 44.9107 15.0003C43.354 13.9673 41.6496 13.3335 39.7944 13.1157C39.0412 13.0264 38.2852 12.9678 37.5292 12.9091C37.0243 12.87 36.5138 12.8142 36.0117 12.8477C34.9795 12.9147 33.9585 13.0878 32.9486 13.3335C31.5231 13.6825 30.1171 14.0817 28.7641 14.6457C27.4111 15.2096 26.1642 15.9411 25.0427 16.8932C24.1445 17.6526 23.3494 18.5041 22.6938 19.4757C22.32 20.0285 22.0159 20.6315 21.6923 21.2178C21.6449 21.3016 21.6561 21.416 21.6393 21.5193C21.0117 21.8041 20.3087 21.7399 19.6615 21.9353C19.5917 21.9549 19.508 21.9186 19.4299 21.9102C19.4467 21.8348 19.4467 21.751 19.4801 21.684C20.6658 19.4896 22.0383 17.4348 24.0078 15.8518C25.927 14.3079 28.1002 13.2497 30.4602 12.5574C31.6598 12.2056 32.8649 11.8538 34.1147 11.7672C35.37 11.6779 36.6338 11.6304 37.8891 11.6779C39.535 11.7365 41.1307 12.1274 42.6957 12.6383C44.4057 13.1995 45.9428 14.0706 47.187 15.366C48.6209 16.8569 49.9767 18.4231 51.3492 19.9754C52.7105 21.5109 53.8738 23.1945 54.9869 24.9143C56.245 26.8574 57.2688 28.9067 57.9105 31.1402C58.0974 31.7907 58.2285 32.4496 58.3763 33.1085C58.4991 33.6613 58.5884 34.2113 58.5772 34.778C58.5716 35.0795 58.5047 35.409 58.5995 35.6798C58.7362 36.079 58.7641 36.4727 58.7948 36.8803C58.8896 38.159 58.951 39.4293 58.6358 40.6968C58.0834 42.9303 56.7221 44.5217 54.7721 45.6468C53.129 46.5961 51.3492 47.1489 49.455 47.3304C46.989 47.5649 44.6512 47.1154 42.4167 46.06C39.8 44.826 37.1777 43.6088 34.5582 42.3803C34.0505 42.143 34.0505 42.1402 34.4243 41.7187C34.561 41.5623 34.7005 41.4088 34.84 41.2552H34.8372Z" fill="#A2B34E"/>
<path d="M14.2497 44.8903C13.5299 44.8903 12.8074 44.9433 12.096 44.8763C11.1922 44.7925 10.2967 44.6166 9.39843 44.4743C8.38021 44.3123 7.41498 43.9661 6.46092 43.5892C6.40792 43.5669 6.3577 43.5418 6.30191 43.5194C6.10106 43.4441 6.00621 43.1956 5.69376 43.257C5.5236 43.2905 5.29763 43.0476 5.09399 42.9331C3.0129 41.7438 1.72129 39.943 0.937393 37.7095C0.524523 36.5369 0.365513 35.3448 0.424096 34.1191C0.513365 32.1927 1.19683 30.5176 2.58329 29.1524C2.80089 28.9374 3.04917 28.7503 3.27792 28.5437C3.91954 27.9658 4.6867 27.5777 5.43991 27.1813C6.93516 26.394 8.436 25.6067 10.0512 25.1013C11.6608 24.596 13.2928 24.1605 14.9275 23.7501C16.5734 23.3341 18.2333 22.9739 19.8931 22.6138C20.5654 22.4686 21.2629 22.4295 21.9268 22.2592C23.4276 21.8711 24.9675 21.7511 26.4879 21.4914C27.3806 21.3379 28.29 21.2848 29.1911 21.1843C29.2246 21.1815 29.2748 21.1927 29.2915 21.1732C29.576 20.8968 29.9164 21.0503 30.2372 21.0447C31.1606 21.028 32.0867 20.9638 33.0073 20.9917C33.5681 21.0084 34.1371 21.1145 34.6755 21.2709C35.1972 21.4216 35.7356 21.5501 36.221 21.8125C36.7064 22.0777 37.2086 22.329 37.6605 22.6417C39.2199 23.7249 39.9034 25.2493 39.7806 27.1227C39.6774 28.6666 39.1502 30.0904 38.4555 31.4641C37.8976 32.5613 37.2867 33.6222 36.5111 34.5798C35.1135 36.3052 33.4481 37.7263 31.579 38.9128C30.7589 39.4349 29.9052 39.9067 29.0906 40.4372C28.5076 40.8197 27.8716 41.0933 27.2662 41.4283C26.6385 41.7745 25.9885 42.0816 25.3358 42.3803C24.683 42.6791 24.0218 42.9583 23.3551 43.2207C21.7678 43.8433 20.133 44.304 18.4537 44.5943C17.0616 44.8344 15.6612 44.9824 14.2441 44.8903H14.2497ZM22.6131 23.4737C21.8738 23.4737 21.1345 23.4402 20.3981 23.482C18.6629 23.5826 17.0393 24.0935 15.5245 24.9366C15.0949 25.1767 14.6848 25.4503 14.2664 25.7072C14.2971 25.4364 14.1688 25.3777 13.9372 25.4587C13.8507 25.4894 13.767 25.5341 13.6778 25.5592C12.6372 25.8579 11.5883 26.1399 10.5534 26.4554C10.174 26.5727 9.82246 26.7765 9.44865 26.9217C9.11947 27.0501 8.74844 27.0948 8.44716 27.2678C7.4373 27.8458 6.43302 28.4404 5.45664 29.077C4.70064 29.5684 4.0395 30.1854 3.47598 30.8973C2.86226 31.6707 2.48008 32.5445 2.22901 33.4993C1.99467 34.39 1.96399 35.275 2.16484 36.16C2.29317 36.7296 2.48565 37.2879 2.67256 37.8435C3.02685 38.8989 3.62942 39.8006 4.37983 40.6159C5.06051 41.3557 5.83046 41.9923 6.67851 42.5171C7.34245 42.9276 8.03708 43.3045 8.84608 43.3715C8.89908 43.3771 8.95209 43.4078 9.0023 43.4301C9.16968 43.5027 9.32869 43.6004 9.50165 43.6423C10.8965 43.9857 12.3136 44.1476 13.7503 44.1281C14.3166 44.1197 14.8829 44.1029 15.4464 44.0611C16.5483 43.9801 17.6558 43.9159 18.7522 43.7735C20.0326 43.606 21.2768 43.2542 22.5015 42.8326C24.192 42.2519 25.771 41.4339 27.3443 40.6047C29.1911 39.6303 31.0016 38.5973 32.6809 37.341C33.7075 36.5732 34.762 35.8445 35.5654 34.8283C36.0843 34.175 36.5893 33.5077 37.0663 32.8209C37.3452 32.4189 37.5545 31.9694 37.7832 31.5366C37.9004 31.3133 38.0036 31.0788 38.0929 30.8415C38.1291 30.7465 38.0873 30.6181 38.1264 30.526C38.2017 30.3445 38.3523 30.1882 38.3997 30.0039C38.5867 29.2389 38.7568 28.4712 38.9075 27.7006C39.0274 27.092 39.0135 26.4777 38.7987 25.8914C38.5392 25.1823 38.0789 24.6183 37.5015 24.1298C36.5809 23.3536 35.5487 22.798 34.3771 22.5356C33.6936 22.382 32.9906 22.2899 32.2932 22.2424C31.3837 22.181 30.466 22.1503 29.5537 22.1782C28.9177 22.1978 28.2844 22.3402 27.6456 22.4211C27.5229 22.4351 27.375 22.4518 27.2746 22.396C27.0235 22.2564 26.8143 22.3262 26.5939 22.4518C26.4963 22.5077 26.3847 22.5523 26.2731 22.5747C25.1907 22.7897 24.1027 22.9935 23.0231 23.2196C22.8753 23.2503 22.7497 23.3899 22.6158 23.482L22.6131 23.4737Z" fill="#A2B34E"/>
<path d="M34.5052 20.3552C34.5945 20.2435 34.6587 20.0732 34.7758 20.0257C35.649 19.6628 36.5249 19.3054 37.5069 19.3724C38.1541 19.4171 38.7706 19.5623 39.3816 19.7884C40.3524 20.1458 41.1893 20.7349 41.9732 21.3686C42.6008 21.8739 43.089 22.558 43.6079 23.1889C43.9148 23.5602 44.1881 23.9651 44.4225 24.3866C44.9274 25.2884 45.4909 26.1623 45.8089 27.159C46.0823 28.0161 46.3111 28.8844 46.2553 29.7973C46.2106 30.5344 46.0684 31.2491 45.795 31.9471C45.463 32.7958 45.0278 33.5692 44.4448 34.2616C43.6804 35.1689 42.6985 35.7552 41.5296 35.906C40.7373 36.0065 39.92 35.9311 39.1138 35.9171C38.9715 35.9171 38.8292 35.8362 38.6869 35.7915C39.0412 34.7781 39.4569 33.7814 39.7331 32.7484C40.0483 31.5702 40.2994 30.3669 40.4584 29.1608C40.57 28.3148 40.4807 27.4438 40.4863 26.5839C40.4918 25.7128 40.2352 24.8976 39.92 24.0991C39.3927 22.7646 38.3912 21.8907 37.1136 21.3295C36.4106 21.0196 35.6713 20.7991 34.946 20.5338C34.7954 20.4808 34.6503 20.4166 34.5024 20.3579L34.5052 20.3552Z" fill="#A2B34E"/>
<path d="M22.6131 23.4709C22.7498 23.3815 22.8725 23.2391 23.0204 23.2084C24.1028 22.9823 25.188 22.7785 26.2703 22.5635C26.3819 22.5412 26.4935 22.4993 26.5912 22.4407C26.8115 22.315 27.0208 22.248 27.2718 22.3848C27.3695 22.4379 27.5201 22.4239 27.6429 22.4099C28.2789 22.3318 28.9122 22.1866 29.551 22.167C30.4632 22.1391 31.3782 22.167 32.2904 22.2313C32.9906 22.2787 33.6936 22.3709 34.3743 22.5244C35.5432 22.7868 36.5753 23.3424 37.4987 24.1186C38.079 24.6072 38.5393 25.1711 38.7959 25.8803C39.0107 26.4666 39.0247 27.0808 38.9047 27.6894C38.7513 28.46 38.5811 29.2277 38.397 29.9927C38.3524 30.177 38.2017 30.3333 38.1236 30.5148C38.0846 30.6069 38.1264 30.7354 38.0901 30.8303C38.0009 31.0676 37.8976 31.3021 37.7805 31.5255C37.5517 31.961 37.3397 32.4105 37.0635 32.8097C36.5893 33.4965 36.0844 34.1638 35.5627 34.8171C34.7593 35.8306 33.7048 36.5592 32.6782 37.3298C30.9988 38.5861 29.1883 39.6164 27.3416 40.5935C25.7682 41.4255 24.1893 42.2407 22.4987 42.8214C21.2741 43.243 20.0327 43.5948 18.7494 43.7623C17.6531 43.9047 16.5484 43.9661 15.4437 44.0499C14.8802 44.0918 14.3139 44.1113 13.7476 44.1169C12.3109 44.1364 10.8937 43.9773 9.49891 43.6311C9.32595 43.5892 9.16694 43.4915 8.99956 43.4189C8.94655 43.3966 8.89634 43.3631 8.84334 43.3603C8.03433 43.2933 7.33971 42.9164 6.67577 42.506C5.82771 41.9811 5.05777 41.3445 4.37709 40.6047C3.62667 39.7895 3.02411 38.8877 2.66982 37.8323C2.48291 37.2768 2.29321 36.7184 2.1621 36.1488C1.96124 35.2638 1.99193 34.3788 2.22626 33.4882C2.47733 32.5361 2.8623 31.6595 3.47324 30.8861C4.03675 30.1742 4.6979 29.5572 5.4539 29.0658C6.43028 28.432 7.43177 27.8346 8.44441 27.2567C8.7457 27.0836 9.11672 27.0389 9.4459 26.9105C9.81972 26.7653 10.1712 26.5615 10.5506 26.4442C11.5856 26.1287 12.6345 25.8468 13.675 25.548C13.7643 25.5229 13.8452 25.4782 13.9345 25.4475C14.166 25.3666 14.2971 25.428 14.2636 25.696C12.774 26.9579 11.46 28.3567 10.6957 30.1909C10.1935 31.3998 9.7695 32.6227 9.7974 33.9656C9.80856 34.5379 10.0234 34.9818 10.4641 35.3001C10.8603 35.5849 11.2954 35.8222 11.7306 36.0427C12.7489 36.562 13.7476 37.1232 14.816 37.5392C15.4186 37.7737 16.0156 38.0334 16.6628 38.1255C17.1956 38.2037 17.7256 38.3293 18.2612 38.3544C19.8764 38.4298 21.4944 38.5275 23.0957 38.1981C25.5367 37.6955 27.7712 36.7519 29.6626 35.1019C30.1229 34.6998 30.5106 34.2057 30.8733 33.7115C31.102 33.4016 31.2304 33.0135 31.3866 32.6534C31.6349 32.0783 31.6739 31.464 31.5595 30.8694C31.4117 30.1044 31.1243 29.3785 30.692 28.7112C30.1647 27.896 29.6096 27.1087 28.9205 26.4191C28.2789 25.7798 27.509 25.3219 26.7446 24.8528C25.5311 24.1102 24.2506 23.5797 22.8056 23.5267C22.7414 23.5267 22.6773 23.482 22.6131 23.4597V23.4709Z" fill="#DCE072"/>
<path d="M22.6129 23.4708C22.6771 23.4932 22.7384 23.535 22.8054 23.5378C24.2504 23.5881 25.5309 24.1213 26.7444 24.864C27.5088 25.333 28.2815 25.7909 28.9203 26.4302C29.6094 27.117 30.1645 27.9071 30.6918 28.7224C31.1242 29.3896 31.4115 30.1127 31.5593 30.8805C31.6737 31.4752 31.6347 32.0922 31.3864 32.6645C31.2302 33.0247 31.1018 33.41 30.8731 33.7226C30.5104 34.2168 30.1227 34.7138 29.6624 35.113C27.771 36.763 25.5365 37.7067 23.0955 38.2092C21.4942 38.5386 19.8762 38.4409 18.261 38.3656C17.7254 38.3404 17.1954 38.2148 16.6626 38.1366C16.0154 38.0417 15.4184 37.7848 14.8158 37.5503C13.7474 37.1343 12.7515 36.5704 11.7304 36.0539C11.2952 35.8333 10.8601 35.596 10.4639 35.3112C10.0232 34.9957 9.80836 34.549 9.7972 33.9767C9.7693 32.6366 10.1933 31.411 10.6955 30.2021C11.4598 28.3678 12.7738 26.9663 14.2634 25.7071C14.6819 25.4503 15.092 25.1767 15.5216 24.9366C17.0364 24.0934 18.66 23.5825 20.3951 23.482C21.1316 23.4401 21.8709 23.4736 22.6101 23.4736L22.6129 23.4708Z" fill="#5E3007"/>
</svg>
