<svg width="60" height="60" viewBox="0 0 60 60" fill="none" xmlns="http://www.w3.org/2000/svg">
<path d="M23.2889 53.1896C24.1729 52.6035 21.8574 52.8245 21.6652 52.4306C20.7486 52.3541 19.8413 52.19 18.9559 51.9406C17.2938 51.5179 13.3546 48.8565 12.9415 46.3585C12.5283 43.8605 12.9415 39.0087 14.6997 36.1648C15.8226 34.4221 17.2671 32.9092 18.9559 31.7068C18.9559 31.7068 15.5259 23.5499 15.2281 17.3914C14.9303 11.2328 15.3722 0.20323 19.4459 0.00146893C23.5195 -0.200292 22.799 10.0703 22.1552 16.7477C21.7422 21.1841 21.6748 25.6459 21.9535 30.0927C23.6664 29.5449 25.4494 29.2472 27.2473 29.2088C28.8284 29.1729 30.4083 29.3212 31.9551 29.6508C31.9551 29.6508 33.2233 20.1776 37.4699 14.2785C41.7165 8.37937 46.1168 2.30731 48.9991 4.02709C51.8814 5.74686 48.2209 11.8958 45.6749 15.0951C43.1288 18.2945 38.7093 23.0983 37.2393 25.6636C36.2773 27.3714 35.4268 29.1397 34.6933 30.9574C37.3158 32.3048 39.4619 34.4241 40.8422 37.0295C42.831 41.1416 43.0231 46.2432 41.9471 48.3954C41.3864 49.3928 40.6127 50.2543 39.6811 50.9186C38.7495 51.5828 37.6828 52.0335 36.5572 52.2384C35.289 52.3345 29.9183 53.6604 29.9183 53.6604L23.2889 53.1896Z" fill="white"/>
<path d="M32.6661 29.7275C32.6661 29.7275 35.8655 21.3688 38.7382 16.6611C41.6109 11.9533 45.4636 8.40808 46.6741 9.12865C47.8847 9.84923 44.1954 14.2688 40.9864 18.5634C38.3513 22.3676 35.9636 26.3373 33.8383 30.4481L32.6661 29.7275Z" fill="#DD00A1"/>
<path d="M19.8302 31.1686L20.7429 30.4481C20.7429 30.4481 20.618 22.0894 20.7429 16.9973C20.8678 11.9052 21.1368 5.55456 19.4363 5.62181C17.7357 5.68907 16.554 10.5698 17.2169 17.5161C17.7071 22.1317 18.5812 26.6983 19.8302 31.1686Z" fill="#DD00A1"/>
<path d="M16.9575 49.1063C17.9869 49.1063 18.8214 48.2718 18.8214 47.2424C18.8214 46.213 17.9869 45.3785 16.9575 45.3785C15.9281 45.3785 15.0936 46.213 15.0936 47.2424C15.0936 48.2718 15.9281 49.1063 16.9575 49.1063Z" fill="#F9D8D2"/>
<path d="M38.9784 49.1063C40.0078 49.1063 40.8423 48.2718 40.8423 47.2424C40.8423 46.213 40.0078 45.3785 38.9784 45.3785C37.949 45.3785 37.1145 46.213 37.1145 47.2424C37.1145 48.2718 37.949 49.1063 38.9784 49.1063Z" fill="#F9D8D2"/>
<path d="M31.0617 47.079C31.0284 47.05 30.9858 47.0339 30.9416 47.0339C30.8974 47.0339 30.8548 47.05 30.8215 47.079C30.8215 47.079 30.2739 48.0398 29.4668 48.0974C29.1937 48.0883 28.9252 48.024 28.6775 47.9084C28.4299 47.7928 28.2081 47.6283 28.0257 47.4249V46.1182C28.5445 45.8396 29.3803 44.9749 29.3803 44.6771C29.3092 44.3568 29.1234 44.0736 28.858 43.8807C28.5926 43.6878 28.2658 43.5986 27.9392 43.6298C26.9784 43.6298 26.3059 44.2543 26.3059 44.7732C26.3059 45.292 27.3627 45.9549 27.6606 46.1567V47.5498C27.5131 47.7452 27.3251 47.9064 27.1095 48.0225C26.894 48.1386 26.6559 48.2067 26.4116 48.2223C25.643 48.2223 25.0665 47.1847 25.0665 47.1751C25.044 47.1338 25.0065 47.1028 24.9618 47.0885C24.9171 47.0742 24.8685 47.0777 24.8263 47.0982C24.7881 47.1187 24.7591 47.1528 24.7448 47.1937C24.7306 47.2347 24.7322 47.2794 24.7494 47.3192C24.7494 47.3768 25.4316 48.5586 26.4116 48.5586C26.6866 48.5493 26.9566 48.483 27.2047 48.3639C27.4528 48.2448 27.6734 48.0756 27.8527 47.8668C28.2588 48.2799 28.8024 48.5295 29.3803 48.5682H29.5148C29.8606 48.5024 30.1874 48.3605 30.4716 48.1528C30.7557 47.9451 30.9901 47.6767 31.1578 47.3672C31.1889 47.335 31.2063 47.2919 31.2063 47.2471C31.2063 47.2023 31.1889 47.1593 31.1578 47.127C31.13 47.1037 31.097 47.0872 31.0617 47.079Z" fill="#10110E"/>
<path d="M18.956 31.7067C18.956 31.7067 16.3331 24.9813 15.7759 21.4169C15.2186 17.8524 14.8151 12.0205 15.4877 8.11021C15.7578 6.29814 16.1396 4.50449 16.631 2.73951C16.631 2.73951 15.3724 11.8572 15.8431 15.8444C16.3139 19.8316 18.956 31.7067 18.956 31.7067Z" fill="#E5E5E5"/>
<path d="M31.9552 29.6411C31.9552 29.6411 33.8767 19.4665 36.6726 15.4601C39.4684 11.4537 42.9752 6.63067 44.695 5.40088L46.4436 4.1711C46.4436 4.1711 39.3915 11.5306 36.6726 17.6219C33.9536 23.7131 31.9552 29.6411 31.9552 29.6411Z" fill="#E5E5E5"/>
<path d="M20.7525 41.1703C20.4636 41.1703 20.1813 41.2559 19.9411 41.4164C19.701 41.5769 19.5138 41.805 19.4033 42.0718C19.2927 42.3386 19.2638 42.6323 19.3202 42.9156C19.3765 43.1988 19.5156 43.4591 19.7198 43.6633C19.9241 43.8675 20.1843 44.0066 20.4676 44.063C20.7509 44.1193 21.0445 44.0904 21.3113 43.9799C21.5782 43.8693 21.8063 43.6821 21.9667 43.442C22.1272 43.2018 22.2129 42.9195 22.2129 42.6307C22.2129 42.2466 22.0617 41.8781 21.7919 41.6048C21.5222 41.3314 21.1557 41.1753 20.7717 41.1703H20.7525ZM21.1368 42.525C21.057 42.525 20.979 42.5013 20.9126 42.457C20.8462 42.4126 20.7945 42.3496 20.764 42.2759C20.7334 42.2021 20.7255 42.121 20.741 42.0427C20.7566 41.9644 20.795 41.8925 20.8515 41.8361C20.9079 41.7797 20.9798 41.7412 21.0581 41.7257C21.1363 41.7101 21.2175 41.7181 21.2912 41.7486C21.3649 41.7792 21.428 41.8309 21.4723 41.8973C21.5166 41.9636 21.5403 42.0416 21.5403 42.1214C21.5416 42.1744 21.5324 42.2272 21.5133 42.2766C21.4942 42.3261 21.4655 42.3713 21.429 42.4096C21.3924 42.448 21.3486 42.4788 21.3001 42.5002C21.2516 42.5217 21.1994 42.5333 21.1464 42.5346L21.1368 42.525Z" fill="#10110E"/>
<path d="M35.1161 41.1703C34.8272 41.1684 34.5443 41.2522 34.3031 41.4111C34.0619 41.57 33.8733 41.7968 33.761 42.0629C33.6487 42.3291 33.6179 42.6225 33.6723 42.9061C33.7268 43.1898 33.8642 43.4509 34.0671 43.6565C34.27 43.862 34.5293 44.0028 34.8122 44.0611C35.0951 44.1193 35.3889 44.0923 35.6564 43.9835C35.924 43.8747 36.1533 43.6891 36.3154 43.45C36.4774 43.2109 36.5649 42.9291 36.5668 42.6403C36.5681 42.4485 36.5316 42.2584 36.4593 42.0807C36.3871 41.903 36.2806 41.7413 36.1459 41.6048C36.0112 41.4683 35.8509 41.3597 35.6742 41.2852C35.4975 41.2106 35.3078 41.1716 35.1161 41.1703ZM35.5484 42.525C35.4954 42.5263 35.4427 42.5171 35.3932 42.498C35.3438 42.4789 35.2986 42.4502 35.2602 42.4136C35.2219 42.3771 35.1911 42.3333 35.1696 42.2848C35.1482 42.2363 35.1365 42.1841 35.1353 42.1311C35.1352 42.0248 35.176 41.9225 35.2494 41.8455C35.3228 41.7686 35.423 41.7229 35.5292 41.718C35.5822 41.7167 35.6349 41.7259 35.6844 41.745C35.7338 41.7641 35.779 41.7927 35.8174 41.8293C35.8557 41.8659 35.8865 41.9097 35.908 41.9582C35.9294 42.0066 35.9411 42.0589 35.9423 42.1119C35.9436 42.1636 35.9347 42.2151 35.916 42.2634C35.8974 42.3116 35.8695 42.3558 35.8338 42.3933C35.7981 42.4307 35.7554 42.4608 35.708 42.4818C35.6607 42.5027 35.6098 42.5141 35.558 42.5154L35.5484 42.525Z" fill="#10110E"/>
<path opacity="0.2" d="M28.2082 52.9493C35.6899 52.9493 41.755 48.579 41.755 43.1879C41.755 37.7968 35.6899 33.4265 28.2082 33.4265C20.7265 33.4265 14.6614 37.7968 14.6614 43.1879C14.6614 48.579 20.7265 52.9493 28.2082 52.9493Z" fill="#8ACCCE"/>
<path d="M44.6085 37.7596V31.3032C45.113 31.188 45.5658 30.9103 45.8974 30.5129C46.2289 30.1154 46.4207 29.6201 46.4435 29.103C46.3768 28.4782 46.0813 27.9001 45.6139 27.48C45.1465 27.0599 44.5403 26.8275 43.9119 26.8275C43.2835 26.8275 42.6773 27.0599 42.2099 27.48C41.7425 27.9001 41.447 28.4782 41.3803 29.103C41.4073 29.6218 41.6031 30.1174 41.9378 30.5146C42.2725 30.9118 42.7279 31.1887 43.2346 31.3032V37.5962H43.0424C41.1209 30.9285 35.4427 26.7588 28.0256 26.7588C20.6085 26.7588 14.9015 30.8901 13.0184 37.5962H12.3747C11.6807 37.5646 11.002 37.8066 10.4846 38.2701C9.96712 38.7336 9.65225 39.3817 9.60767 40.075V45.0134C9.64739 45.7092 9.96049 46.3612 10.4788 46.8273C10.997 47.2934 11.6785 47.5358 12.3747 47.5017H13.249C13.9827 49.3942 15.1666 51.0793 16.6981 52.4113L15.4587 53.5354C15.3836 53.5991 15.3218 53.6769 15.2768 53.7645C15.2318 53.8521 15.2045 53.9477 15.1965 54.0459C15.1884 54.144 15.1998 54.2428 15.23 54.3365C15.2602 54.4303 15.3085 54.5172 15.3723 54.5922C18.1873 57.9837 22.7894 59.9725 27.9872 59.9725C33.1849 59.9725 37.7966 58.051 40.6117 54.5922C40.741 54.4391 40.8045 54.241 40.7883 54.0412C40.7721 53.8414 40.6775 53.6561 40.5252 53.5258L39.2762 52.3824C40.8039 51.0586 41.9875 49.3838 42.7253 47.5017H43.6861C44.3829 47.5357 45.0647 47.2917 45.5817 46.8233C46.0987 46.3549 46.4087 45.7005 46.4435 45.0037V40.075C46.4266 39.5432 46.2391 39.031 45.9086 38.614C45.5782 38.197 45.1223 37.8975 44.6085 37.7596ZM28.0256 33.9165C34.8855 33.9165 40.4579 38.4321 40.4579 43.9757C40.4579 49.9805 34.2033 52.6226 28.0256 52.6226C21.8479 52.6226 15.5933 49.9613 15.5933 43.9277C15.5933 38.4321 21.1369 33.8684 28.0256 33.8684V33.9165Z" fill="white"/>
<path d="M45.0696 43.3897H43.2346V42.4289C43.2346 41.2055 43.109 39.9854 42.8599 38.7876H43.6477C43.9903 38.7638 44.3284 38.8769 44.5877 39.102C44.8471 39.3272 45.0066 39.646 45.0312 39.9886L45.0696 43.3897Z" fill="#515151"/>
<path d="M43.6861 46.2912H42.7253C42.9078 45.6031 43.0426 44.9033 43.1289 44.1967H45.0504V45.0133C45.0479 45.1824 45.0121 45.3493 44.9451 45.5046C44.8781 45.6598 44.7811 45.8003 44.6598 45.9181C44.5384 46.0359 44.3951 46.1286 44.2379 46.1909C44.0807 46.2533 43.9128 46.2841 43.7438 46.2815H43.6861V46.2912Z" fill="#515151"/>
<path d="M28.0256 58.7043C23.4236 58.7043 19.3211 57.0518 16.7462 54.1118L17.9952 52.9493C20.9478 54.9199 24.4387 55.9269 27.9872 55.8316C31.5369 55.9359 35.0304 54.9281 37.9792 52.9493L39.2762 54.1118C36.7302 57.0518 32.6661 58.7043 28.0256 58.7043Z" fill="#515151"/>
<path d="M12.3747 38.8356H13.1913C12.9501 40.0344 12.8278 41.2541 12.8262 42.4769C12.807 42.7969 12.807 43.1177 12.8262 43.4377H11.0392V40.075C11.0341 39.753 11.1564 39.442 11.3796 39.2099C11.6027 38.9777 11.9086 38.8432 12.2306 38.8356H12.3747Z" fill="#515151"/>
<path d="M28.0257 33.0422C26.4685 33.0509 24.9199 33.274 23.4236 33.7051V28.6803C24.9211 28.2602 26.4704 28.0532 28.0257 28.0654C29.5841 28.0532 31.1366 28.2602 32.6374 28.6803V33.734C31.1445 33.2689 29.5892 33.0356 28.0257 33.0422Z" fill="black"/>
<path d="M10.9912 44.1967H12.9127C13.0069 44.8964 13.1448 45.5895 13.3258 46.2719H12.3651C12.0225 46.2957 11.6844 46.1826 11.425 45.9575C11.1657 45.7324 11.0062 45.4135 10.9816 45.071V44.1967H10.9912Z" fill="#515151"/>
<path d="M43.9167 30.1407C44.5535 30.1407 45.0696 29.6761 45.0696 29.1031C45.0696 28.53 44.5535 28.0654 43.9167 28.0654C43.28 28.0654 42.7638 28.53 42.7638 29.1031C42.7638 29.6761 43.28 30.1407 43.9167 30.1407Z" fill="#515151"/>
</svg>
