<svg width="120.9" height="116.23" viewBox="0 0 31.99 30.75" xml:space="preserve" xmlns="http://www.w3.org/2000/svg">
  <path style="fill:#9babc7" d="M108.53 161.52c-.01-.01 10.01-9.62 10.01-9.62s3.29 2.93 3.27 4.04c0 .25-9.3 9.38-9.3 9.38-.05.01-3.97-3.8-3.98-3.8z" transform="translate(-90.12 -134.94)"/>
  <path style="fill:#323232" d="M117.17 162.9c-.45-.4-.14-.3.9-1.32l1.19-1.2.02 1.2c.02.76-.08 1.18-.27 1.37-.34.33-1.45.28-1.84-.06zm-26.74-.57c-.4-.43-.4-.7-.1-5.1.42-6.5.55-9.43.65-14.37.1-5.63.22-6.35 1.14-7.24.78-.74 2.12-.81 3.1-.17 1.3.87 2.3 2.49 6.85 11.26 2.03 3.9 2.35 4.43 2.64 4.5.33.06.7-.5 2.66-4.2l3.35-6.27c2.38-4.42 4.18-6.15 6-5.74.84.2 1.44.6 1.76 1.21.48.95.8 4.26.8 8.37l.04 4.02-4.2 4.16-.13-1.82c-.06-.95-.11-2.2-.11-2.78a14 14 0 0 0-.18-2.03l-.27-1.6a2.75 2.75 0 0 0-.27-.88c-.15-.23-.23-.2-.55.18-.3.34-2.54 4.82-3.32 6.61l-.7 1.54a39.33 39.33 0 0 1-3.43 6.82c-.65.6-2.13.73-2.76.22-.56-.44-1.33-1.87-2.2-4.08-3.29-8.44-4.6-11.3-5.23-11.3-.32 0-.81 2.02-1.2 4.95-.39 2.83-.75 5.57-1.4 10.58-.17 1.4-.65 2.73-1.15 3.23-.42.42-1.38.38-1.8-.07z" transform="translate(-90.12 -134.94)"/>
  <path style="fill:#09185f" d="M122.1 145.9v11.65l-4.07 4.07-4.08 4.08h-11.64c6.6-6.6 13.03-13.36 19.8-19.8zm-9.27 18.86c.15-.24 0-.48-.82-1.31a8.38 8.38 0 0 1-1.02-1.13c0-.06.7.04 1.54.23 1.74.39 2.31.37 2.59-.07.3-.47-3.1-3.83-3.54-3.56-.54.34-.45.59.53 1.62l.98 1.02-1.76-.34-1.76-.35-.39.39-.38.38 1.75 1.77a11.3 11.3 0 0 0 1.93 1.7c.09-.03.25-.18.35-.35zm4.59-4.34c.7-.7 1-1.13.92-1.32-.16-.43-.4-.34-1.25.44-.67.61-.83.69-1.15.52-.5-.27-.46-.91.08-1.42.87-.81.29-1.4-.63-.63-.66.56-.77.56-1.12.07-.26-.37-.24-.43.36-1.05.63-.64.72-1.21.21-1.21-.32 0-2.08 1.8-2.08 2.12 0 .39 2.96 3.52 3.33 3.52.16 0 .76-.47 1.33-1.04zm3.12-3.12c1.2-1.17 1.08-2.31-.37-3.67-.77-.71-.96-.8-1.67-.8-.67 0-.92.1-1.5.62-.88.8-1.07 1.57-.63 2.54.17.38.52.88.77 1.12 1.27 1.18 2.32 1.24 3.4.19zm-1.9-.5c-.68-.3-1.47-1.31-1.47-1.9 0-1.37 1.94-1.3 2.8.1.48.77.47 1.1-.06 1.62-.5.5-.53.5-1.26.18z" transform="translate(-90.12 -134.94)"/>
</svg>
