<svg width="30" height="30" viewBox="0 0 30 30" fill="none" xmlns="http://www.w3.org/2000/svg">
<g clip-path="url(#clip0_676_21386)">
<path d="M19.1576 29.9482H19.5218L25.4658 26.9758L25.5647 26.836V3.11045L25.4658 2.9699L19.5218 0H19.1532L19.1576 29.9482Z" fill="#5294CF"/>
<path d="M11.4223 29.9482H11.0531L5.11409 26.9758L4.99357 26.7685L4.93243 3.23128L5.11409 2.9699L11.0531 0H11.4269L11.4223 29.9482Z" fill="#1F5B98"/>
<path d="M11.0635 0H19.5161V29.9482H11.0635V0Z" fill="#2D72B8"/>
<path d="M28.5772 14.3013L28.3763 14.2567L25.5084 13.9893L25.4658 14.0105L19.5165 13.7726H11.0635L5.11409 14.0105V9.47377L5.10786 9.47709L5.11409 9.46381L11.0635 8.08526H19.5165L25.4658 9.46381L27.6529 10.6263V9.87893L28.5772 9.77782L28.4815 9.59118L25.555 7.49855L25.4658 7.52751L19.5165 5.68401H11.0635L5.11409 7.52751L5.11409 2.9699L2.00281 6.61484V9.79817L2.02689 9.78073L2.9271 9.87893V10.6417L2.00281 11.1363V14.3038L2.02689 14.3013L2.9271 14.3146V15.644L2.15042 15.6556L2.00281 15.6415V18.8102L2.9271 19.3072V20.0788L2.04153 20.1766L2.00281 20.1475V23.3303L5.11409 26.9758L5.11409 22.4186L11.0635 24.2621H19.5165L25.4834 22.4132L25.5627 22.448L28.4507 20.3862L28.5772 20.1808L27.6529 20.0788V19.3227L27.5318 19.2743L25.555 20.3399L25.4834 20.4894L19.5165 21.8599V21.8616H11.0635V21.8599L5.11409 20.4836V15.9302L11.0635 16.1673V16.1731H19.5165L25.4658 15.9302L25.6013 15.9925L28.3811 15.7531L28.5772 15.6573L27.6529 15.644V14.3146L28.5772 14.3013Z" fill="#1A476F"/>
<path d="M25.4658 22.4186V26.9758L28.5772 23.3303V20.1683L25.4834 22.4132L25.4658 22.4186ZM25.4658 20.4935L25.4834 20.4894L28.5772 18.8256V15.644L25.4658 15.9302V20.4935ZM25.4838 9.46796L25.4658 9.46381V14.0105L28.5772 14.3013V11.1213L25.4838 9.46796ZM25.4838 7.54536L28.5772 9.77782V6.61567L25.4658 2.9699V7.52751L25.4838 7.53374V7.54536Z" fill="#2D72B8"/>
</g>
<defs>
<clipPath id="clip0_676_21386">
<rect width="30" height="30" fill="white"/>
</clipPath>
</defs>
</svg>