<svg width="60" height="60" viewBox="0 0 60 60" fill="none" xmlns="http://www.w3.org/2000/svg">
<path d="M38.3153 59.8964H39.0436L50.9317 53.9516L51.1295 53.6719V6.2209L50.9317 5.93979L39.0436 0H38.3063L38.3153 59.8964Z" fill="#5294CF"/>
<path d="M22.8446 59.8964H22.1061L10.2282 53.9516L9.98714 53.537L9.86486 6.46256L10.2282 5.93979L22.1061 0H22.8537L22.8446 59.8964Z" fill="#1F5B98"/>
<path d="M22.1271 0H39.0321V59.8964H22.1271V0Z" fill="#2D72B8"/>
<path d="M57.1544 28.6025L56.7527 28.5135L51.0168 27.9787L50.9317 28.021L39.033 27.5452H22.1271L10.2282 28.021V18.9475L10.2157 18.9542L10.2282 18.9276L22.1271 16.1705H39.033L50.9317 18.9276L55.3059 21.2527V19.7578L57.1544 19.5556L56.963 19.1823L51.11 14.9971L50.9317 15.055L39.033 11.368H22.1271L10.2282 15.055L10.2282 5.93979L4.00562 13.2297V19.5963L4.05378 19.5614L5.8542 19.7578V21.2834L4.00562 22.2726V28.6075L4.05378 28.6025L5.8542 28.6291V31.288L4.30084 31.3113L4.00562 31.283V37.6204L5.8542 38.6144V40.1576L4.08305 40.3532L4.00562 40.2951V46.6607L10.2282 53.9516L10.2282 44.8372L22.1271 48.5242H39.033L50.9668 44.8264L51.1254 44.896L56.9014 40.7724L57.1544 40.3615L55.3059 40.1576V38.6454L55.0636 38.5486L51.11 40.6798L50.9668 40.9787L39.033 43.7198V43.7232H22.1271V43.7198L10.2282 40.9671V31.8604L22.1271 32.3346V32.3462H39.033L50.9317 31.8604L51.2026 31.985L56.7623 31.5062L57.1544 31.3146L55.3059 31.288V28.6291L57.1544 28.6025Z" fill="#1A476F"/>
<path d="M50.9317 44.8372V53.9516L57.1544 46.6607V40.3366L50.9668 44.8264L50.9317 44.8372ZM50.9317 40.987L50.9668 40.9787L57.1544 37.6511V31.288L50.9317 31.8604V40.987ZM50.9676 18.9359L50.9317 18.9276V28.021L57.1544 28.6025V22.2425L50.9676 18.9359ZM50.9676 15.0907L57.1544 19.5556V13.2313L50.9317 5.93979V15.055L50.9676 15.0675V15.0907Z" fill="#2D72B8"/>
</svg>
