<svg width="60" height="60" viewBox="0 0 60 60" fill="none" xmlns="http://www.w3.org/2000/svg">
<path d="M43.4777 43.6794C43.8652 40.5049 43.7402 40.03 46.1148 40.5549L46.7146 40.6049C48.5393 40.6924 50.9139 40.3175 52.3136 39.6676C55.3256 38.2678 57.1128 35.9308 54.1383 36.5432C47.3645 37.9429 46.9021 35.6433 46.9021 35.6433C54.0508 25.0328 57.0503 11.5477 54.4632 8.24831C47.427 -0.750055 35.2292 3.51167 35.0293 3.61165H34.9668C33.6295 3.3492 32.1298 3.17423 30.4426 3.14924C27.3807 3.09924 25.0436 3.94909 23.2814 5.28635C23.2939 5.31134 1.54784 -3.64953 2.56016 16.5718C2.77262 20.871 8.72154 49.1284 15.8202 40.5924C18.4198 37.468 20.9193 34.831 20.9193 34.831C22.1691 35.6558 23.6563 36.0807 25.2185 35.9308L25.3435 35.8308C25.306 36.2182 25.3185 36.5931 25.3935 37.0431C23.5688 39.0802 24.1062 39.4426 20.4444 40.1925C16.7451 40.9549 18.9197 42.3171 20.3319 42.667C22.0566 43.092 26.0309 43.7044 28.7179 39.9425L28.6054 40.3675C29.3178 40.9424 29.2803 44.4917 29.3803 47.0288C29.4803 49.5658 29.6552 51.9279 30.1676 53.3276C30.6801 54.7273 31.2924 58.3142 36.1041 57.2894C40.1158 56.427 43.1903 55.1898 43.4652 43.6669" fill="black"/>
<path d="M34.5422 60.0014C32.3551 60.0014 30.9303 59.1515 30.068 58.3392C28.7682 57.1144 28.2558 55.5397 27.9434 54.6024C27.8934 54.4649 27.8559 54.3399 27.8184 54.2274C27.206 52.5652 26.9936 50.2032 26.8686 47.1537C26.8561 46.7038 26.8311 46.2164 26.8186 45.729C26.8186 45.429 26.8061 45.0791 26.7936 44.7042C24.7315 45.604 22.3069 45.7665 19.7199 45.1291C18.5701 44.8416 17.3703 44.2542 16.6204 43.3544C14.5583 45.0666 12.6087 44.8166 11.5339 44.4542C9.48424 43.7668 6.37231 41.6047 3.04791 30.7192C1.27324 24.8703 0.135945 18.7214 0.0359631 16.6968C-0.27648 10.3229 1.44821 5.77375 5.16003 3.14922C10.9465 -0.937532 19.6699 1.39954 22.9568 2.51184C25.1189 1.23707 27.6434 0.612186 30.4929 0.649679C32.0051 0.674675 33.4424 0.799652 34.7796 1.03711C38.329 -0.12518 49.577 -2.07483 56.4507 6.71108C58.7628 9.66054 57.9004 15.4845 56.7756 19.8462C55.5134 24.7328 53.3138 29.9318 50.6268 34.481C51.3391 34.456 52.3265 34.356 53.6387 34.0811C56.9256 33.4062 57.8379 35.3434 58.0504 35.9433C59.0752 39.0302 54.7385 41.3173 53.3888 41.9422C51.6766 42.742 48.8896 43.2169 46.615 43.1169H46.515L46.1026 43.0795C46.1026 43.1794 46.0776 43.2919 46.0651 43.3919L46.0151 43.8668C45.8651 49.7407 45.0153 53.4651 43.2781 55.9396C41.4409 58.5516 38.9039 59.289 36.6668 59.7639C35.9044 59.9264 35.2046 60.0014 34.5672 60.0014H34.5422ZM30.193 38.4178C31.6302 39.5676 31.7552 41.6672 31.8677 45.579C31.8802 46.0539 31.8927 46.5163 31.9052 46.9413C31.9552 48.216 32.0801 51.2155 32.5425 52.4652C32.605 52.6277 32.6675 52.8152 32.73 53.0276C33.2549 54.6274 33.4674 55.2897 35.5795 54.8398C38.554 54.2024 40.7036 53.74 40.9535 43.6169L43.4656 43.6793L40.966 43.3794L41.0285 42.8045C41.241 40.9298 41.4159 39.4426 42.7657 38.4928C43.6155 37.8929 44.5654 37.8054 45.3902 37.8804C44.7153 37.1805 44.4904 36.4807 44.4279 36.1557L44.2154 35.1184L44.8028 34.2436C47.9272 29.6069 50.5018 23.9204 51.8765 18.6214C53.2763 13.2224 52.8888 10.3479 52.4764 9.81051C46.8774 2.66181 37.1417 5.57378 36.0669 5.92372L35.8794 6.0237L34.9421 6.19867L34.4547 6.09869C33.2299 5.84873 31.8677 5.69876 30.4054 5.67376C28.1433 5.63627 26.3062 6.17367 24.8065 7.29847L23.6567 8.17331L22.3194 7.62341C19.7074 6.5611 12.0588 4.41149 8.047 7.24848C5.83491 8.81069 4.83509 11.8976 5.06005 16.4343C5.13504 17.9965 6.19734 23.8829 7.95952 29.5444C10.3716 37.318 12.4962 39.4801 13.1086 39.6551C13.1836 39.6176 13.446 39.4801 13.8834 38.9677C16.4955 35.8183 18.995 33.1938 19.095 33.0813L20.5572 31.5441L22.3194 32.7188C22.9318 33.1188 23.5942 33.3562 24.2816 33.4187L28.4683 29.8569L27.8684 36.0682C27.8684 36.1807 27.8559 36.3432 27.8934 36.6556L28.0809 37.8304L27.281 38.7177C27.281 38.7177 27.2685 38.7302 27.256 38.7427L29.2057 39.6426L30.193 38.4053V38.4178Z" fill="black"/>
<path d="M54.1383 36.5432C47.3645 37.9429 46.9021 35.6433 46.9021 35.6433C54.0508 25.0328 57.0502 11.5477 54.4632 8.24831C47.427 -0.750054 35.2292 3.51167 35.0292 3.61165H34.9668C33.6295 3.3492 32.1298 3.17423 30.4426 3.14924C27.3806 3.09924 25.0561 3.94909 23.2814 5.28635C23.2939 5.29884 1.54784 -3.64953 2.56016 16.5718C2.77262 20.871 8.72154 49.1284 15.8202 40.5924C18.4198 37.468 20.9193 34.831 20.9193 34.831C22.1691 35.6558 23.6563 36.0807 25.2185 35.9308L25.3435 35.8308C25.306 36.2182 25.3185 36.5931 25.3935 37.0431C23.5688 39.0802 24.1062 39.4426 20.4444 40.1925C16.7451 40.9548 18.9197 42.3171 20.3319 42.667C22.0566 43.092 26.0309 43.7043 28.7179 39.9425L28.6054 40.3675C29.3178 40.9423 29.8302 44.1043 29.7427 46.9663C29.6552 49.8282 29.6052 51.7904 30.1676 53.3276C30.73 54.8648 31.2924 58.3142 36.104 57.2894C40.1158 56.427 42.2029 54.2024 42.4904 50.4781C42.6903 47.8286 43.1653 48.2285 43.1903 45.854L43.5652 44.7292C43.9901 41.1423 43.6277 39.9925 46.1022 40.5299L46.7021 40.5799C48.5268 40.6674 50.9014 40.2925 52.3011 39.6426C55.3131 38.2428 57.1002 35.9058 54.1258 36.5182L54.1383 36.5432Z" fill="#336791"/>
<path d="M34.7796 58.4391C30.7303 58.4391 29.4555 55.2397 28.9306 53.9275C28.1683 52.0028 27.9933 44.8291 28.1683 38.5677C28.1808 38.1053 28.5807 37.7304 29.0306 37.7554C29.493 37.7679 29.8555 38.1553 29.843 38.6177C29.643 45.5915 29.9179 51.9028 30.4803 53.3026C31.3427 55.4772 32.6674 57.3643 36.3793 56.577C39.9661 55.8021 41.2409 54.5148 41.8408 51.053C42.3032 48.4035 43.203 40.8673 43.3155 39.3801C43.353 38.9177 43.7529 38.5677 44.2154 38.6052C44.6778 38.6427 45.0277 39.0427 44.9902 39.5051C44.8777 41.0548 43.9779 48.5909 43.503 51.3404C42.7906 55.4522 40.9659 57.3143 36.7417 58.2267C36.0293 58.3766 35.367 58.4516 34.7796 58.4516V58.4391Z" fill="white"/>
<path d="M13.0711 42.9419C12.6836 42.9419 12.3212 42.8669 12.0212 42.7669C9.39672 41.8921 6.90968 37.6428 4.61009 30.1317C2.87291 24.4203 1.76061 18.4714 1.67313 16.5342C1.38568 10.7728 2.87291 6.69851 6.08483 4.42393C12.4462 -0.0752499 23.1192 4.19897 23.5691 4.38643C23.9941 4.5614 24.2065 5.04881 24.0316 5.48623C23.8566 5.91115 23.3692 6.12362 22.9318 5.94865C22.8318 5.91115 12.6461 1.8244 7.04715 5.79867C4.33514 7.72332 3.08537 11.3102 3.33533 16.4592C3.42281 18.0839 4.44762 23.8829 6.2098 29.6568C8.24693 36.3181 10.559 40.5298 12.5461 41.1922C12.8461 41.2922 13.7834 41.6046 15.1207 39.9924C17.7077 36.8805 20.0823 34.4059 20.0948 34.3809C20.4197 34.0435 20.9446 34.031 21.2821 34.3559C21.6195 34.6809 21.632 35.2058 21.3071 35.5432C21.2821 35.5682 18.945 38.0053 16.4079 41.0672C15.1832 42.5294 14.0209 42.9669 13.0586 42.9669L13.0711 42.9419Z" fill="white"/>
<path d="M46.8528 36.4057C46.6903 36.4057 46.5278 36.3557 46.3903 36.2682C46.0029 36.0058 45.9029 35.4934 46.1654 35.1059C53.3891 24.3954 55.9261 11.4603 53.764 8.69826C47.3152 0.449764 36.3797 3.94913 35.3923 4.29906C35.3548 4.32406 35.3049 4.33656 35.2674 4.34905C34.755 4.51152 34.3675 4.22408 34.2176 3.89914C34.0426 3.51171 34.1926 3.04929 34.555 2.83683C34.8674 2.64936 38.1793 1.56206 42.1286 1.61205C47.5526 1.67454 52.0393 3.76166 55.0888 7.66095C58.1757 11.6102 54.3764 25.9201 47.5651 36.0433C47.4027 36.2807 47.1402 36.4182 46.8653 36.4182L46.8528 36.4057Z" fill="white"/>
<path d="M47.2272 41.3672C45.9774 41.3672 44.8651 41.1923 44.1903 40.7923C43.4779 40.3674 43.3529 39.7925 43.3279 39.4801C43.1404 36.2557 44.8651 35.6183 45.8275 35.3433C45.7025 35.1684 45.54 34.9684 45.3775 34.7684C44.8401 34.0936 44.1028 33.1812 43.5279 31.794C43.4404 31.5815 43.1654 31.0816 42.8405 30.5067C41.0908 27.3698 37.454 20.846 39.8036 17.4841C40.8784 15.9469 43.0155 15.322 46.1399 15.6344C45.1401 12.735 40.6534 4.07406 30.3678 3.89909C27.2308 3.8491 24.6563 4.81142 22.7192 6.76107C18.3825 11.1353 18.5324 19.0963 18.5324 19.1713C18.5324 19.6337 18.1825 20.0211 17.7201 20.0336C17.2577 20.0336 16.8702 19.6837 16.8577 19.2213C16.8577 18.8713 16.6828 10.4729 21.5194 5.58628C23.794 3.2992 26.7809 2.16191 30.3928 2.2244C37.1415 2.33688 41.4782 5.76125 43.9403 8.62323C46.6148 11.7352 47.9271 15.172 48.0396 16.3218C48.127 17.2466 47.4147 17.4216 47.3397 17.4341H47.0397C44.9276 17.0967 42.1906 16.9967 41.1908 18.4339C39.4411 20.9335 42.853 27.0574 44.3152 29.6694C44.6902 30.3442 44.9651 30.8317 45.0901 31.1316C45.565 32.2939 46.1899 33.0688 46.6898 33.6936C47.1397 34.256 47.5271 34.7309 47.6646 35.3058C47.7396 35.4308 48.6769 36.6931 53.926 35.6058C55.3132 35.3183 56.1381 35.5683 56.4005 36.3556C56.9004 37.8679 54.1509 39.6051 52.6262 40.3174C51.264 40.9423 49.1019 41.3422 47.2272 41.3422V41.3672ZM45.0026 39.3176C45.6275 39.905 49.6893 39.8425 51.9138 38.8177C53.0386 38.2928 53.8385 37.7054 54.3009 37.2805C54.2884 37.2805 54.2759 37.2805 54.2634 37.2805C50.814 37.9929 48.3645 37.8929 47.0022 36.993C46.9148 36.9305 46.8398 36.8806 46.7648 36.8181C46.6273 36.8681 46.5023 36.9055 46.4148 36.9305C45.64 37.143 44.9026 37.3555 45.0026 39.3301V39.3176Z" fill="white"/>
<path d="M22.7571 43.7544C21.9072 43.7544 21.0074 43.6419 20.0825 43.4044C19.8201 43.3419 17.483 42.7045 17.508 41.2173C17.533 39.8551 19.4827 39.4426 20.22 39.2927C22.807 38.7553 22.9695 38.5428 23.7694 37.5305C24.0068 37.2305 24.3068 36.8556 24.7067 36.4057C26.044 34.906 27.3187 35.4309 27.8561 35.6558C28.706 36.0058 29.4183 36.8556 29.7058 37.8679C29.9682 38.7803 29.8433 39.6676 29.3559 40.355C27.7561 42.5921 25.4691 43.7544 22.7571 43.7544ZM19.3702 41.2923C19.6201 41.4548 20.0326 41.6547 20.495 41.7797C22.7321 42.3421 25.8565 42.3796 27.9936 39.3801C28.2436 39.0302 28.1686 38.5678 28.1061 38.3303C27.9561 37.8179 27.6062 37.3555 27.2312 37.2055C26.7688 37.0181 26.5189 36.9181 25.969 37.5305C25.594 37.9429 25.3316 38.2804 25.0941 38.5803C24.0693 39.8801 23.5944 40.3175 20.5575 40.9549C19.9326 41.0798 19.5701 41.2173 19.3577 41.3048L19.3702 41.2923Z" fill="white"/>
<path d="M25.2189 37.7679C24.8064 37.7679 24.4565 37.4679 24.394 37.0555C24.3815 36.943 24.369 36.8305 24.3565 36.7181C22.3819 36.6681 20.4822 35.8057 19.0325 34.306C17.1828 32.3813 16.3455 29.7193 16.7329 26.9948C17.1453 24.0579 16.9954 21.4708 16.9079 20.0836C16.8829 19.6962 16.8704 19.4212 16.8704 19.2213C16.8704 18.9713 16.8704 18.2839 19.095 17.1591C19.8698 16.7592 21.4321 16.0718 23.1442 15.8969C25.9937 15.5969 27.8684 16.8717 28.4308 19.4712C29.9305 26.4199 28.5433 29.4819 27.5434 31.7315C27.356 32.1439 27.181 32.5438 27.0435 32.9187L26.9186 33.2562C26.3937 34.6684 25.9312 35.8932 26.0687 36.8055C26.1437 37.268 25.8188 37.6929 25.3688 37.7679C25.3313 37.7679 25.2814 37.7679 25.2439 37.7679H25.2189ZM18.5576 19.4587C18.5576 19.5962 18.5701 19.7711 18.5826 19.9836C18.6701 21.4333 18.8325 24.1329 18.3951 27.2323C18.0827 29.4444 18.7575 31.6065 20.2448 33.1562C21.4196 34.381 22.9568 35.0559 24.5315 35.0559C24.719 34.306 25.0064 33.5186 25.3189 32.6813L25.4438 32.3439C25.6063 31.9064 25.7938 31.494 25.9937 31.0566C26.9561 28.907 28.1558 26.245 26.7811 19.8336C26.5186 18.5964 25.8688 17.884 24.8189 17.634C22.5069 17.1091 19.2575 18.8463 18.5576 19.4587Z" fill="white"/>
<path d="M23.1818 19.0965C23.1443 19.3715 23.6818 20.109 24.3943 20.1965C25.0943 20.2965 25.7068 19.7215 25.7443 19.4465C25.7818 19.1715 25.2443 18.8715 24.5318 18.7715C23.8318 18.6715 23.2193 18.8215 23.1818 19.0965Z" fill="white"/>
<path d="M24.544 20.4839C24.4815 20.4839 24.419 20.4839 24.3565 20.4714C23.9065 20.4089 23.469 20.1339 23.1565 19.7214C23.044 19.5839 22.869 19.2964 22.9065 19.0464C22.919 18.9464 22.969 18.8089 23.1315 18.6964C23.4065 18.4839 23.969 18.4089 24.569 18.4964C24.944 18.5464 25.294 18.6589 25.5565 18.7964C26.0065 19.0464 26.044 19.3339 26.019 19.4839C25.9565 19.9089 25.2815 20.4839 24.544 20.4839ZM23.469 19.1464C23.5065 19.3339 23.919 19.8464 24.4315 19.9214C24.9565 19.9964 25.394 19.5839 25.4565 19.4214C25.394 19.3339 25.069 19.1214 24.494 19.0464C23.919 18.9714 23.5565 19.0714 23.469 19.1464Z" fill="white"/>
<path d="M44.6537 18.534C44.6912 18.809 44.1537 19.5465 43.4412 19.634C42.7412 19.734 42.1287 19.159 42.0912 18.884C42.0537 18.609 42.5912 18.309 43.3037 18.209C44.0162 18.109 44.6162 18.259 44.6537 18.534Z" fill="white"/>
<path d="M43.2909 19.784C42.5909 19.784 42.0034 19.234 41.9659 18.909C41.9034 18.4965 42.5909 18.1715 43.2909 18.0715C43.9909 17.9715 44.7409 18.0965 44.7909 18.509C44.8159 18.6965 44.6784 18.984 44.4284 19.2465C44.2659 19.4215 43.9284 19.709 43.4659 19.7715C43.4034 19.7715 43.3409 19.7715 43.2909 19.7715V19.784ZM43.7534 18.3215C43.6284 18.3215 43.4909 18.3215 43.3409 18.3465C42.6034 18.4465 42.2284 18.7465 42.2534 18.859C42.2784 19.0465 42.8159 19.5715 43.4409 19.484C43.8159 19.434 44.1034 19.184 44.2409 19.034C44.4534 18.809 44.5409 18.5965 44.5284 18.534C44.5159 18.434 44.2409 18.309 43.7534 18.309V18.3215Z" fill="white"/>
<path d="M45.6647 34.356C45.5023 34.356 45.3398 34.306 45.2023 34.2185C44.8149 33.9561 44.7149 33.4437 44.9774 33.0562C46.6146 30.6067 46.3146 28.0946 46.0272 25.6701C45.9022 24.6328 45.7772 23.558 45.8022 22.5206C45.8397 21.4583 45.9772 20.5835 46.1022 19.7337C46.2521 18.7338 46.4021 17.7965 46.3396 16.6717C46.3146 16.2093 46.6646 15.8094 47.127 15.7844C47.5894 15.7594 47.9893 16.1093 48.0143 16.5717C48.0893 17.859 47.9143 18.9338 47.7644 19.9711C47.6394 20.771 47.5144 21.5958 47.4894 22.5581C47.4644 23.4705 47.5769 24.4328 47.7019 25.4576C48.0143 28.0571 48.3643 31.0066 46.3771 33.9686C46.2146 34.206 45.9522 34.3435 45.6772 34.3435L45.6647 34.356Z" fill="white"/>
</svg>
