<svg width="60" height="60" viewBox="0 0 60 60" fill="none" xmlns="http://www.w3.org/2000/svg">
<path d="M51.6618 9.8837L22.5442 41.3837L59.1618 24.5308C58.103 18.8837 55.456 13.8543 51.6618 9.8837Z" fill="#D9411E"/>
<path d="M30.0443 0.530762C25.9854 0.530762 22.1913 1.32488 18.6619 2.82488L14.7795 35.7367L34.2796 0.883703C32.956 0.618997 31.5443 0.530762 30.0443 0.530762Z" fill="#D9411E"/>
<path d="M59.4265 26.2955L24.75 45.7072L57.3088 41.8249C58.8088 38.2072 59.6912 34.3249 59.6912 30.1778C59.6912 28.8543 59.6029 27.5308 59.4265 26.2955Z" fill="#D9411E"/>
<path d="M46.6324 54.7072C50.5148 52.0602 53.6912 48.5308 55.9854 44.472L25.5442 50.472L46.6324 54.7072Z" fill="#D9411E"/>
<path d="M36.1323 1.14841L19.1912 37.9425L50.6912 8.82488C46.6323 5.03076 41.6912 2.29547 36.1323 1.14841Z" fill="#D9411E"/>
<path d="M32.6029 59.6484C35.8677 59.3837 39.0441 58.5896 41.8677 57.3543L24.75 55.3249L32.6029 59.6484Z" fill="#D9411E"/>
<path d="M3.0442 18.0013C1.72067 20.9131 0.838314 24.1778 0.573608 27.5308L5.16184 35.7366L3.0442 18.0013Z" fill="#D9411E"/>
<path d="M16.103 3.97194C11.956 6.17782 8.33834 9.44253 5.69128 13.3249L10.0148 34.9425L16.103 3.97194Z" fill="#D9411E"/>
</svg>
