<svg width="60" height="60" viewBox="0 0 60 60" fill="none" xmlns="http://www.w3.org/2000/svg">
<path d="M59.9975 35.803C59.853 29.6057 57.6193 24.3992 53.507 20.3447C54.1469 18.5693 54.1758 17.2564 54.1758 17.2564C50.8397 7.11599 45.4929 2.42565 43.5689 0.844313C43.1766 0.522265 42.3963 0.390143 41.9091 0.534652C41.9091 0.534652 40.8934 0.803025 40.5342 0.914503C39.7993 1.13746 40.2947 0.753479 40.3112 0.637872C40.5012 0.29518 40.0965 0.12177 39.8612 0.0804817C38.1477 -0.237437 36.5499 0.427302 35.8026 1.53795C35.7902 1.5586 35.7489 1.59989 35.7489 1.59989L34.6259 3.4496C34.3657 3.51153 34.1428 3.66017 33.9983 3.87074C33.8662 4.07718 33.8455 4.32078 33.8909 4.55612C33.9941 5.09287 34.4442 5.55942 35.0635 5.59245C35.7159 5.62961 36.009 5.38601 36.009 5.38601C36.2031 5.92689 36.5499 6.36454 36.9545 6.68659C35.5012 6.187 33.8538 5.88973 32.2105 5.88973C27.5697 5.88973 23.6143 8.06149 21.6944 11.1333C20.3195 13.334 20.2947 16.092 20.2865 16.4471C20.5507 16.1086 20.815 15.8154 20.815 15.8154L20.1048 17.4504L22.1857 19.0854C18.9198 21.8228 16.4632 25.4975 15.175 29.8245C14.5639 28.9368 14.4359 27.4793 14.4359 27.4793C14.3327 26.7609 14.4359 25.2043 14.4359 25.2043L13.7836 25.4438C13.6143 24.7873 12.9496 23.7882 12.2848 22.9128C11.3022 21.6081 10.0553 20.5264 8.62256 19.7378C8.07343 19.4364 7.52429 19.1515 7.02471 18.9038C5.47227 18.1275 3.76707 17.6981 2.03297 17.694C1.59944 17.694 1.40951 17.7229 1.40951 17.7229C1.37648 17.727 1.33932 17.727 1.31042 17.7312C0.9347 17.7683 0.58375 17.95 0.327764 18.239C0.282347 18.2927 0.241058 18.3464 0.19977 18.4083C0.154353 18.4702 0.108936 18.5446 0.0717768 18.623C0.0511327 18.6643 0.0304886 18.7097 0.022231 18.7469C0.00984455 18.7799 0.00571573 18.8212 0.00158691 18.8583C0.00158691 18.8955 0.00158691 18.9285 0.00158691 18.9657C0.00158691 19.135 0.0593904 19.3084 0.158482 19.4777C0.170868 19.5107 0.187384 19.5396 0.203899 19.5685C0.232801 19.6222 0.26996 19.6676 0.30712 19.7171C0.356665 19.7708 0.402082 19.8286 0.459886 19.8782C0.484659 19.9112 0.509432 19.9318 0.534205 19.9566C0.546591 19.9649 0.554849 19.969 0.563106 19.9773C0.563106 19.9773 0.563106 19.9814 0.567235 19.9814C0.58375 20.002 0.608523 20.0185 0.625039 20.0351C0.649811 20.0516 0.670456 20.0681 0.6911 20.0805C0.6911 20.0805 0.6911 20.0846 0.695229 20.0846C0.728259 20.1176 0.773676 20.1465 0.810835 20.1713C0.872768 20.2209 0.926442 20.2621 0.984246 20.3034C0.988375 20.3034 0.988375 20.3076 0.992503 20.3117L1.02141 20.3406C1.02141 20.3406 1.03792 20.3488 1.04205 20.353C1.17004 20.4521 1.30216 20.5553 1.43429 20.6626C1.49209 20.7081 1.54164 20.7535 1.59944 20.7989C1.64486 20.8402 1.69027 20.8773 1.73569 20.9186C1.82652 20.9888 1.91323 21.0631 1.99581 21.1333C2.04535 21.1746 2.0949 21.2242 2.14444 21.2613C2.22702 21.3398 2.31373 21.4017 2.38392 21.4719C2.39217 21.4801 2.3963 21.4801 2.40043 21.4843C2.47062 21.5421 2.52842 21.5957 2.5821 21.6453C2.63164 21.6907 2.67293 21.7279 2.70596 21.7568C2.71422 21.7609 2.72248 21.7692 2.72661 21.7733C2.74725 21.7939 2.76377 21.8063 2.78028 21.8228C2.78441 21.827 2.78854 21.8311 2.78854 21.8352L2.7968 21.8393H2.80093C2.90415 21.9219 3.00737 21.9962 3.10646 22.0829C3.30877 22.244 3.50283 22.4091 3.69275 22.5825C3.7712 22.6569 3.85377 22.7394 3.93635 22.8138C4.01893 22.8922 4.09737 22.9748 4.17169 23.0574C4.24188 23.1234 4.30794 23.1936 4.37401 23.2638C4.56806 23.4785 4.75799 23.6973 4.93553 23.9203C4.94791 23.9409 4.9603 23.9533 4.97268 23.9698C5.06765 24.0896 5.16261 24.2134 5.24932 24.3332C5.34015 24.457 5.42273 24.5726 5.50117 24.6924C5.50943 24.7047 5.51769 24.7171 5.52595 24.7295C5.56311 24.7832 5.59614 24.8369 5.6333 24.8905C5.64155 24.9029 5.64568 24.9071 5.65394 24.9194L5.49704 25.1218L5.26996 25.4025C5.07591 25.6461 5.01397 25.9764 5.10481 26.2737L5.3897 27.2233L4.57632 28.3051C4.39878 28.5487 4.37401 28.8707 4.52264 29.1391L4.72908 29.5066L4.2873 29.874C3.86203 30.2291 3.72991 30.8278 3.96525 31.3315L5.24106 33.2308C5.24106 33.2308 5.05526 33.4248 4.41117 33.0491C4.23363 32.95 4.03957 32.8963 3.83726 32.8963H3.60605C3.40373 32.8963 3.2551 33.0821 3.30051 33.2803L4.19234 36.7237C4.24601 36.955 4.48136 37.1077 4.7167 37.0375C4.93965 36.9756 5.175 36.8476 5.2039 36.6123C5.2039 36.6123 7.96195 36.6907 8.87442 36.5255L10.3112 37.4009L12.7307 41.8889C13.8909 43.8914 15.2823 45.5099 16.6614 46.7898C20.3897 54.4529 28.2551 59.7336 37.3509 59.7336C41.6572 59.7336 45.687 58.5487 49.1304 56.4884C49.1923 58.1647 50.3112 59.552 52.0041 59.552C53.6969 59.552 54.4814 58.0697 54.4814 57.0623V52.0871C54.6589 51.8889 54.8364 51.6866 55.0057 51.4801V54.5726C55.0057 55.8484 55.5301 57.2563 57.2064 57.3596C57.2394 57.3637 57.2683 57.3678 57.3013 57.3678C57.3385 57.372 57.3757 57.372 57.4169 57.372C59.0313 57.372 60.0016 56.2737 60.0016 54.6717C60.0016 54.6717 60.0057 35.8071 60.0016 35.803H59.9975ZM38.9363 6.78155L38.924 6.79394C38.924 6.79394 38.9116 6.78155 38.9074 6.77329C38.9157 6.77329 38.924 6.77742 38.9363 6.78155ZM44.4318 14.8286C44.3038 14.7791 44.2336 14.7502 44.1965 14.7378C44.1965 14.746 44.1428 14.7378 43.9074 14.6676C43.99 14.3084 44.0313 13.9409 44.0313 13.5569C44.0313 13.173 43.9859 12.7725 43.8992 12.4009C43.6432 11.2902 43.0239 10.3241 42.1775 9.63869H42.1733C41.3352 8.95331 40.2823 8.54869 39.1304 8.54869C39.0561 8.54869 38.9735 8.54869 38.8992 8.54869C38.6969 8.56107 38.4987 8.58585 38.3046 8.61888C38.412 8.56933 38.5193 8.52391 38.6267 8.48675C38.7505 8.43721 38.9942 8.33399 39.2667 8.22251C39.9644 7.97891 41.6779 7.72705 42.5904 8.01194C43.0858 8.16883 43.9033 10.225 43.9033 10.225C44.9355 12.6073 44.5268 14.4612 44.4318 14.8245V14.8286Z" fill="white"/>
<path d="M43.014 4.69581C42.9397 3.88243 42.1428 2.95345 40.9001 2.35064C39.2238 1.53313 37.3741 1.60745 36.763 2.51579C36.6268 2.71811 36.5648 2.94932 36.5648 3.18879C36.5772 4.02281 37.3906 5.00547 38.687 5.64131C39.038 5.81059 39.3972 5.94271 39.7481 6.03355H39.7523C40.4046 5.67434 41.668 5.20365 42.6259 4.87335C42.6961 4.84858 42.7622 4.8238 42.8282 4.80316C42.8943 4.77839 42.9562 4.75774 43.0182 4.73297C43.0182 4.72058 43.0182 4.7082 43.0182 4.69581H43.014ZM43.3485 15.15C43.1544 16.0501 42.7085 16.8511 42.0892 17.4745C42.0727 17.4993 42.0561 17.5117 42.0355 17.5282C41.7176 17.8709 41.346 18.1599 40.9455 18.3952C41.7754 18.197 42.5227 17.7718 43.1255 17.1855C43.0636 17.4456 42.9934 17.7016 42.9067 17.9493H42.9232C43.3402 17.7346 43.7201 17.458 44.0586 17.1277C43.815 18.1929 43.3278 19.188 42.6424 20.088C42.7085 20.1004 42.7746 20.1169 42.8406 20.1335C43.27 19.6463 43.8068 18.9485 44.2857 18.0856C44.3889 17.8915 44.4921 17.6933 44.5912 17.4869C44.8348 16.9708 45.0495 16.401 45.2023 15.7899C44.5995 15.5505 43.9802 15.3358 43.3485 15.15ZM22.6259 23.164L23.3774 19.5059L23.0718 19.2334C18.9761 22.5942 16.1107 27.4043 15.2601 32.8791C15.3179 32.9328 15.3799 32.9824 15.4459 33.036C15.4459 33.036 18.6664 34.7165 20.929 36.2606C20.9372 32.8667 21.9984 29.7165 23.7985 27.1236C22.8902 25.3606 22.6259 23.164 22.6259 23.164ZM12.8117 28.3663V28.3539C12.6383 27.7181 12.5145 26.8469 12.9273 26.3267C12.9232 26.3143 12.9191 26.2978 12.915 26.2813C12.9067 26.24 12.8943 26.2028 12.8778 26.1574C12.8819 26.145 12.8778 26.1368 12.8778 26.1203C12.8076 25.8767 12.725 25.6331 12.6342 25.3936C12.3947 24.9023 12.114 24.4316 11.7919 23.9733C11.6144 23.7214 11.4245 23.4737 11.2221 23.2342L11.2139 23.2218C11.1726 23.1764 11.1313 23.1269 11.09 23.0773C10.9083 22.8709 10.7184 22.6686 10.5202 22.4745C10.4955 22.4456 10.4666 22.4167 10.4377 22.3961C10.1693 22.1318 9.8844 21.88 9.57887 21.6446C8.73246 20.9757 7.76632 20.406 6.70521 19.9724C6.42032 19.861 6.14369 19.7577 5.85468 19.6628C5.60695 19.5885 5.35509 19.4976 5.11562 19.3944L5.05369 19.3738C5.00414 19.3449 4.94634 19.3242 4.89266 19.3036C4.70274 19.2251 4.50455 19.1549 4.3105 19.0889C4.62016 19.2293 4.95047 19.4068 5.31793 19.6297C5.31793 19.6297 7.40711 20.7404 8.66227 22.1194C8.80265 22.2722 8.76549 22.3465 8.56731 22.1731C7.67136 21.3721 5.78036 19.9972 2.97689 19.4646C2.97689 19.4646 4.84725 20.6 6.73824 22.9411C6.80018 23.0154 6.85385 23.0856 6.91165 23.164C6.92817 23.1805 6.94468 23.2012 6.9612 23.2218C7.18828 23.5108 7.41124 23.8164 7.63007 24.1384C7.6342 24.1508 7.64245 24.1591 7.65484 24.1715C7.68374 24.2169 7.71264 24.2623 7.74567 24.3077C7.74567 24.3118 7.74568 24.316 7.75393 24.3201C7.77458 24.3614 7.80348 24.3944 7.82825 24.4316C7.86954 24.5018 7.91909 24.5761 7.9645 24.6463C7.97276 24.6628 7.98102 24.6752 7.9934 24.6917C8.00166 24.7123 8.01405 24.7288 8.02643 24.7495C8.02643 24.7577 8.03882 24.7701 8.04708 24.7784C8.22049 25.0633 8.39803 25.3605 8.56318 25.6661C8.56318 25.6661 8.7242 26.017 8.93064 26.5538C8.97193 26.6611 9.01322 26.7726 9.05451 26.8923C10.1486 27.9658 11.441 29.0724 12.3452 29.349L12.7911 29.2169L13.076 29.1302C13.076 29.1302 12.9356 28.8081 12.8159 28.3663H12.8117ZM6.63089 34.0765C6.61025 34.0806 6.58961 34.0847 6.56896 34.0889C5.26013 34.4935 4.95872 34.0558 4.95872 34.0558L4.54584 34.1343L4.83899 35.5133V35.5216C4.86376 35.534 4.8844 35.5422 4.90505 35.5463C4.92569 35.5546 4.94634 35.5587 4.96285 35.5629H4.97524C5.04956 35.5587 5.12388 35.5216 5.18994 35.472C5.3138 35.3812 5.46657 35.3523 5.61521 35.3853C5.70604 35.406 5.801 35.4142 5.90009 35.4142C5.96203 35.4142 6.02396 35.4142 6.08176 35.406C6.2593 35.3895 6.44097 35.3564 6.59373 35.3151C6.84972 35.2491 7.11809 35.2243 7.37408 35.2738C7.75393 35.344 8.237 35.3193 8.61273 35.278L6.63089 34.0765ZM7.75393 25.0674C7.7209 25.022 7.69613 24.9724 7.6631 24.9229C7.6631 24.9229 7.64658 24.894 7.6342 24.8816C7.62594 24.861 7.60942 24.8362 7.59291 24.8114C7.55162 24.7454 7.51033 24.6793 7.46492 24.6091C7.44014 24.5678 7.41124 24.5265 7.38234 24.4852C7.36169 24.4522 7.33692 24.4151 7.31215 24.3862C7.31628 24.382 7.31215 24.382 7.30802 24.3779C7.12635 24.1054 6.92404 23.8288 6.70934 23.5604C6.68457 23.5274 6.6598 23.4985 6.63915 23.4654C6.51529 23.3168 6.39142 23.1681 6.26343 23.0154C6.17672 22.9204 6.09002 22.8213 5.99919 22.7222C5.00414 21.6405 3.74072 20.6042 2.147 19.7412C2.147 19.7412 1.97359 19.6587 1.82495 19.5059C1.9034 19.7908 2.10984 20.1004 2.45253 20.344H2.45666C2.49382 20.3771 2.53511 20.4018 2.56814 20.4307C2.62594 20.472 2.67962 20.5174 2.73329 20.5546C2.73329 20.5546 2.73742 20.5574 2.74568 20.5629C2.74568 20.5629 2.76632 20.5794 2.77458 20.5876C3.34436 21.0294 4.09167 21.6859 4.3683 21.9336C4.41372 21.9749 4.44675 22.0079 4.46327 22.0203C4.46327 22.0203 4.47152 22.0245 4.47152 22.0286H4.47565C4.91744 22.363 5.33032 22.7264 5.71017 23.1103C5.91248 23.3168 6.11066 23.5274 6.29646 23.7462C6.36252 23.8246 6.42858 23.9031 6.49464 23.9857C6.51529 24.0146 6.54006 24.0435 6.5607 24.0724C6.69283 24.2334 6.81669 24.4027 6.9323 24.5761C6.95707 24.6008 6.96946 24.6256 6.98597 24.6504C7.04378 24.7288 7.10158 24.8114 7.15112 24.894H7.15525C7.40298 25.1789 7.84064 25.6661 8.38151 26.2235C8.19984 25.8519 7.98928 25.4638 7.75393 25.0674ZM59.1205 35.8065C59.1205 35.8065 59.1247 35.7899 59.1205 35.7858C58.9843 29.8444 56.4987 24.4852 52.5557 20.5959C51.8703 22.5034 50.8877 24.7784 49.7977 25.8312C49.905 25.7487 51.5937 24.4274 52.0974 23.3374C52.0685 23.4985 51.7093 25.1624 50.3468 27.1731C52.1387 29.7701 53.1833 32.9163 53.1833 36.3102C53.1833 45.2119 45.9661 52.4332 37.0561 52.4332C33.0595 52.4332 29.4013 50.9799 26.5896 48.5686C25.1775 49.5513 24.0504 50.4885 23.6581 51.1781L21.9075 50.0137L22.2874 51.5909L19.8349 48.0691H19.8307L17.2131 45.9592C20.7886 53.3085 28.332 58.3746 37.0561 58.3746C41.8786 58.3746 46.3419 56.8263 49.9711 54.2004V56.4464C49.9711 57.4126 50.7556 58.2012 51.73 58.2012C52.7044 58.2012 53.4847 57.4126 53.4847 56.4464V51.0418C54.2651 50.1748 54.9752 49.2458 55.6111 48.2631V54.51C55.6111 55.4803 56.3997 56.2689 57.3699 56.2689C58.3402 56.2689 59.1288 55.4803 59.1288 54.51V36.3102C59.1288 36.1409 59.1288 35.9757 59.1205 35.8065Z" fill="#F3B922"/>
<path d="M4.90506 35.5463C4.90506 35.5463 4.86377 35.5339 4.84313 35.5216C4.88029 35.5505 4.92158 35.5628 4.96286 35.5628C4.94635 35.5587 4.9257 35.5546 4.90506 35.5463ZM26.891 19.4563C28.3567 18.965 29.0999 19.2334 29.0999 19.2334L29.9918 17.5984L26.891 19.4563ZM17.2131 45.9592C18.1131 46.8056 19.005 47.4951 19.8018 48.0484C19.8101 48.0567 19.8225 48.0608 19.8307 48.0649L17.2131 45.9592ZM4.90506 35.5463C4.90506 35.5463 4.86377 35.5339 4.84313 35.5216C4.88029 35.5505 4.92158 35.5628 4.96286 35.5628C4.94635 35.5587 4.9257 35.5546 4.90506 35.5463ZM38.91 6.65287C38.91 6.65287 38.9183 6.66526 38.9265 6.67351C38.9307 6.66938 38.9348 6.66526 38.9389 6.66113C38.9265 6.657 38.9183 6.65287 38.91 6.65287ZM26.891 19.4563C28.3567 18.965 29.0999 19.2334 29.0999 19.2334L29.9918 17.5984L26.891 19.4563ZM26.891 19.4563C28.3567 18.965 29.0999 19.2334 29.0999 19.2334L29.9918 17.5984L26.891 19.4563ZM26.891 19.4563C28.3567 18.965 29.0999 19.2334 29.0999 19.2334L29.9918 17.5984L26.891 19.4563ZM4.90506 35.5463C4.90506 35.5463 4.86377 35.5339 4.84313 35.5216C4.88029 35.5505 4.92158 35.5628 4.96286 35.5628C4.94635 35.5587 4.9257 35.5546 4.90506 35.5463ZM26.891 19.4563C28.3567 18.965 29.0999 19.2334 29.0999 19.2334L29.9918 17.5984L26.891 19.4563ZM40.9909 2.16072C40.3303 1.83867 39.5954 1.66939 38.8935 1.66939H38.8894C38.7531 1.66939 38.621 1.67764 38.4889 1.69003L38.4104 1.70242C37.8737 1.76435 37.3906 1.92537 36.9942 2.18136L37.0727 2.05749L36.8497 2.01208L36.3667 1.91711C37.0149 1.02942 38.3196 0.562863 39.7936 0.699114C39.9092 0.7115 40.0083 0.624795 40.0207 0.513317C40.0289 0.39771 39.9463 0.298618 39.8307 0.286232C38.1668 0.133466 36.6887 0.699114 35.9703 1.76435C35.9579 1.78499 35.9455 1.80564 35.9455 1.83041H35.9207L34.8679 3.44891C34.616 3.50671 34.4013 3.65122 34.2651 3.85353C34.1371 4.05171 34.0999 4.28706 34.1619 4.51001C34.2362 4.766 34.4261 4.98483 34.6945 5.10869C34.8514 5.18301 35.0248 5.2243 35.2023 5.2243C35.5657 5.2243 35.896 5.05915 36.0818 4.79077C36.3625 5.57112 37.0438 6.28128 37.9852 6.73957C38.0884 6.78912 38.1999 6.83454 38.2989 6.87582C38.3237 6.81389 38.3567 6.75609 38.398 6.69416C38.4352 6.63635 38.4806 6.57855 38.5302 6.52075C38.5095 6.51662 38.493 6.50836 38.4724 6.5001C38.3691 6.46294 38.27 6.42166 38.1668 6.36798C37.0933 5.84362 36.3956 4.96831 36.3543 4.08474C36.3419 3.8783 36.3708 3.66773 36.4368 3.47368L36.4575 3.40762C36.4905 3.32917 36.5236 3.25485 36.5648 3.18879C36.5855 3.15163 36.6061 3.1186 36.6309 3.08557C36.6804 3.00712 36.7424 2.9328 36.8043 2.85849C37.1594 2.48276 37.6879 2.23091 38.3113 2.13594L38.3155 2.13181C38.3857 2.12356 38.4517 2.1153 38.526 2.10704L38.5962 2.09465C39.3312 2.03685 40.1115 2.19375 40.8093 2.53231C41.8539 3.04428 42.5475 3.89482 42.6177 4.75774V4.7949C42.692 4.77426 42.7581 4.75774 42.8241 4.74123C42.8902 4.72471 42.9521 4.7082 43.0141 4.69581C43.0141 4.69168 43.0223 4.69168 43.0264 4.69168C42.9315 3.69664 42.1553 2.72636 40.9909 2.16072ZM35.7969 4.44395C35.7845 4.48111 35.768 4.51827 35.7432 4.55543C35.5863 4.79077 35.1776 4.88161 34.8679 4.7371C34.711 4.66278 34.5995 4.53891 34.5582 4.39853C34.5293 4.28706 34.5458 4.17558 34.6078 4.08062C34.7151 3.92372 34.9174 3.82876 35.1445 3.82463C35.2643 3.82463 35.384 3.8494 35.4872 3.89895C35.578 3.94436 35.6524 3.99804 35.706 4.07236C35.768 4.14668 35.801 4.22925 35.8093 4.32834C35.7969 4.36963 35.7927 4.40679 35.7969 4.44395ZM53.5467 17.4828C50.3468 7.75939 44.8679 2.61901 43.0223 1.09961C42.6466 0.794076 42.147 0.690856 41.6804 0.827107L39.3601 1.52488C40.0083 1.58268 40.6771 1.76022 41.3089 2.06988C42.5227 2.66856 43.3237 3.6058 43.5549 4.55543C43.5095 4.57194 43.4558 4.58846 43.398 4.60498C43.2907 4.64213 43.1668 4.68342 43.0306 4.72884C43.0264 4.72884 43.0223 4.72884 43.0182 4.72884C42.9563 4.75361 42.8943 4.77426 42.8283 4.79903C42.7622 4.81967 42.6961 4.84445 42.6259 4.86922C41.6681 5.19952 40.4046 5.67021 39.7523 6.02942H39.7482C39.6367 6.09135 39.5458 6.14915 39.4757 6.20283C39.4757 6.20283 39.1825 6.39688 38.9389 6.657C38.9348 6.66113 38.9307 6.66526 38.9265 6.66938C38.877 6.71893 38.8316 6.77673 38.7903 6.83041C38.7449 6.88821 38.7077 6.95014 38.6788 7.01208C38.621 7.11943 38.5921 7.2309 38.6086 7.33412C38.621 7.41257 38.6581 7.49102 38.7325 7.56534C38.7779 7.60663 38.8357 7.65204 38.9141 7.6892C38.9885 7.72636 39.1784 7.70985 39.4302 7.66443C39.5376 7.64791 39.6532 7.62314 39.7812 7.59424C40.5079 7.4456 41.4657 7.202 41.8415 7.28458C41.8993 7.29696 41.9529 7.30935 42.0066 7.31761C42.4071 7.40431 42.7581 7.47037 43.0595 7.51992C43.7077 7.62727 44.1495 7.65617 44.4468 7.64791C44.1784 7.77178 43.815 7.89564 43.3402 7.96583C43.8894 8.85353 44.3146 9.66278 44.3146 9.66278C45.5781 11.9378 45.64 14.0352 45.2023 15.7858C45.0496 16.3969 44.8349 16.9667 44.5913 17.4828C44.4922 17.6892 44.389 17.8874 44.2857 18.0814C43.8068 18.9444 43.27 19.6421 42.8406 20.1293C44.1825 20.4679 45.4253 21.3721 46.5029 22.7346C46.1809 22.6809 45.8671 22.6355 45.5698 22.5984C45.5161 22.5942 45.4583 22.586 45.4046 22.5818L45.256 22.4084C44.4468 21.4753 43.5467 20.7941 42.5929 20.406C42.3039 20.2904 42.0107 20.2036 41.7135 20.1417C42.2296 19.4605 42.6383 18.7255 42.9108 17.9452C42.9975 17.6975 43.0677 17.4415 43.1297 17.1814C42.5269 17.7676 41.7795 18.1929 40.9496 18.3911C41.3501 18.1558 41.7217 17.8667 42.0397 17.524C42.0603 17.5075 42.0768 17.4951 42.0933 17.4704C42.7127 16.8469 43.1586 16.0459 43.3526 15.1458C43.4311 14.8032 43.4724 14.4481 43.4724 14.0806C43.4724 13.7131 43.4269 13.3292 43.3444 12.9741C43.1008 11.9089 42.5062 10.9799 41.6928 10.3234H41.6887C40.8877 9.66691 39.8762 9.2788 38.7696 9.2788C38.6994 9.2788 38.621 9.2788 38.5508 9.28293C38.3567 9.29531 38.1668 9.31596 37.981 9.34899C38.0801 9.30357 38.1833 9.25815 38.2866 9.22099C38.5797 9.10952 38.8935 9.02694 39.2073 8.98152C38.4476 8.67599 37.5475 8.52735 36.5112 8.70902C36.5112 8.70902 36.9075 8.15576 37.7292 7.92867V7.91629C36.0818 7.16071 34.1701 6.72719 32.1346 6.72719C27.6838 6.72719 23.844 8.78334 22.0479 11.7561C21.5442 12.5819 21.2015 13.4778 21.0529 14.4274C20.9951 14.7577 20.9662 15.0839 20.9579 15.4225C21.2139 15.1004 21.4658 14.8197 21.4658 14.8197L20.5781 16.9873L21.2469 17.586L23.076 19.2292L23.3815 19.5018L22.6301 23.1599C22.6301 23.1599 22.8943 25.3564 23.8027 27.1194C23.8233 27.1607 23.8481 27.202 23.8687 27.2433C24.967 29.1054 26.3667 29.6421 26.5359 29.7041L25.9125 30.7445C25.9125 30.7445 25.9579 30.7156 26.0322 30.6743C26.1932 30.5794 26.4864 30.4183 26.7589 30.311C26.8662 30.2697 26.9736 30.2367 27.0686 30.2202C27.0686 30.2202 27.0397 30.2862 26.9901 30.3977C26.8704 30.6826 26.6226 31.2647 26.4162 31.8304V31.8387C26.4162 31.8387 26.4079 31.8758 26.4038 31.8923C27.5599 31.0624 28.8894 30.406 30.3592 30.1624C30.3592 30.1624 30.7391 27.8296 32.0892 25.7404L26.5318 29.1797C26.5112 29.1756 26.4988 29.1714 26.474 29.1673L24.6037 26.0624L23.4104 24.0806L23.3113 23.9072L22.8365 23.1227L24.583 19.8279L23.7118 18.7255L22.0851 16.657C23.2494 16.7024 24.3807 17.0121 25.4005 17.5653C25.6482 17.6975 25.8918 17.8461 26.1272 18.0112L25.7804 18.7999L27.2089 17.5571C28.4765 16.6322 29.9752 16.0666 31.5359 15.9221L31.9158 15.8849L30.4129 18.8122L31.8332 21.0418L33.2907 23.325L33.5797 22.2887L34.0504 23.0319L34.3146 23.4448C34.9257 23.0567 35.6235 22.7594 36.4245 22.6149C33.6829 23.8907 32.3658 27.1235 31.8332 28.9031C31.6103 29.638 31.5236 30.1211 31.5236 30.1211C31.4616 30.1293 31.3997 30.1417 31.3419 30.1541C29.3146 30.5381 27.564 31.7065 26.1726 32.9989C23.9141 35.1046 22.6012 37.5529 22.6012 37.5529C22.3989 37.3548 22.1387 37.1359 21.8456 36.9088C21.569 36.6983 21.2634 36.4794 20.9331 36.2565C18.6705 34.7123 15.4501 33.0319 15.4501 33.0319C15.384 32.9782 15.3221 32.9287 15.2643 32.875C14.3353 32.041 14.4302 31.1822 14.5624 30.7528C14.6243 30.5587 14.6037 30.3564 14.5087 30.1747C13.5302 28.292 13.8398 26.0418 13.8398 26.0418L13.4393 26.0913C13.4393 26.0913 13.2411 25.4885 13.237 25.4844C12.948 24.7495 12.564 24.0393 12.0933 23.3705L11.9736 23.2136C11.9117 23.1269 11.8456 23.0443 11.7837 22.9617C11.697 22.8461 11.6061 22.7346 11.5112 22.6231C11.4162 22.5075 11.313 22.3919 11.2098 22.2804C11.1933 22.2557 11.1726 22.235 11.152 22.2144C10.8712 21.913 10.5657 21.6198 10.2478 21.3473C10.1776 21.2854 10.1074 21.2276 10.0372 21.1739C9.94635 21.0996 9.85964 21.0294 9.76468 20.9592C9.67385 20.8849 9.57888 20.8147 9.48392 20.7487C9.39309 20.6785 9.29399 20.6083 9.19903 20.5463C9.11233 20.4844 9.02562 20.4266 8.93479 20.3729C8.80679 20.2904 8.6788 20.2119 8.54668 20.1335C8.43933 20.0715 8.32785 20.0096 8.2205 19.9477C8.11728 19.894 8.01819 19.8403 7.9191 19.7908C7.71266 19.6875 7.50622 19.5885 7.29152 19.4976C7.24197 19.4728 7.19242 19.4522 7.14701 19.4316C7.09746 19.4109 7.05204 19.3944 7.0025 19.3738C6.94882 19.349 6.88689 19.3283 6.82909 19.3077C6.79193 19.2912 6.75477 19.2788 6.71761 19.2664L6.69284 19.2582C6.602 19.221 6.50704 19.1838 6.41208 19.1508C6.32124 19.1178 6.22628 19.0847 6.13132 19.0517C6.12306 19.0517 6.1148 19.0517 6.10655 19.0435C5.98681 19.0104 5.8712 18.9691 5.7556 18.9237C5.68128 18.8989 5.60696 18.87 5.53264 18.837C5.47897 18.8164 5.42116 18.7957 5.36336 18.7751L5.30968 18.7503C5.25601 18.7255 5.20233 18.7008 5.14866 18.6801C5.02067 18.6306 4.89267 18.581 4.76881 18.5356C4.64082 18.4902 4.50869 18.4489 4.38483 18.4076C4.29812 18.3828 4.20729 18.3581 4.12058 18.3333C4.01323 18.3003 3.89763 18.2714 3.79028 18.2466H3.78202C3.74486 18.2342 3.7077 18.2259 3.67054 18.2177C3.55907 18.1929 3.44759 18.1723 3.33611 18.1516C3.2494 18.1351 3.15857 18.1186 3.07186 18.1103C3.03883 18.1021 3.00993 18.098 2.9769 18.0938C2.96864 18.0938 2.96452 18.0938 2.95213 18.0938C2.93974 18.0897 2.93148 18.0856 2.9191 18.0856C2.89433 18.0814 2.86542 18.0773 2.84065 18.0773C2.83652 18.0732 2.82826 18.0732 2.82001 18.0773H2.7911L2.78698 18.0732C2.77046 18.0732 2.75807 18.0732 2.72917 18.0773C2.68376 18.0732 2.64247 18.0773 2.59705 18.0814C2.56402 18.0856 2.53099 18.0856 2.50209 18.0897C2.14288 18.1269 1.80432 18.3003 1.56072 18.5769C1.5153 18.6264 1.47401 18.6801 1.43685 18.7379C1.39144 18.7999 1.35015 18.87 1.31299 18.9444C1.29234 18.9856 1.27583 19.0269 1.26757 19.0641C1.25518 19.0971 1.25106 19.1343 1.24693 19.1714C1.24693 19.2045 1.2428 19.2375 1.2428 19.2747C1.24693 19.4357 1.29647 19.6008 1.39144 19.766C1.40382 19.7949 1.42034 19.8238 1.43685 19.8527C1.46575 19.9022 1.49878 19.9477 1.53594 19.9931C1.58136 20.0468 1.62678 20.1004 1.68045 20.15C1.70523 20.1789 1.73 20.1995 1.75477 20.2243C1.76303 20.2326 1.77129 20.2367 1.77954 20.2449C1.77954 20.2449 1.77954 20.2491 1.78367 20.2491C1.80019 20.2656 1.82496 20.2821 1.84148 20.2986C1.86212 20.3151 1.88276 20.3316 1.90341 20.344C1.90341 20.344 1.90341 20.3482 1.90754 20.3482C1.94057 20.3771 1.98186 20.406 2.01902 20.4307C2.07682 20.4762 2.13049 20.5174 2.18417 20.5546C2.1883 20.5546 2.1883 20.5587 2.19243 20.5629L2.22133 20.5918C2.22133 20.5918 2.23784 20.6 2.24197 20.6041C2.36171 20.6991 2.4897 20.7982 2.61769 20.9014C2.67137 20.9427 2.72091 20.9881 2.77459 21.0335C2.82001 21.0707 2.86129 21.1079 2.90671 21.145C2.99342 21.2152 3.07599 21.2854 3.15444 21.3515C3.20399 21.3927 3.2494 21.4382 3.29895 21.4753C3.3774 21.5496 3.45997 21.6116 3.52603 21.6776C3.53429 21.6859 3.53842 21.6859 3.54255 21.69C3.60861 21.7437 3.66641 21.7974 3.71596 21.8428C3.76551 21.8882 3.80267 21.9212 3.8357 21.9501C3.84395 21.9543 3.85221 21.9625 3.85634 21.9667C3.87698 21.9873 3.8935 21.9997 3.90589 22.0121C3.91001 22.0162 3.91414 22.0203 3.91414 22.0245C3.91827 22.0245 3.9224 22.0286 3.9224 22.0286H3.92653C4.02562 22.107 4.12471 22.1814 4.21968 22.2639C4.41373 22.4167 4.59953 22.5777 4.7812 22.7429C4.85964 22.8131 4.93809 22.8915 5.01654 22.9658C5.09499 23.0401 5.1693 23.1186 5.24362 23.197C5.30968 23.2631 5.37162 23.3292 5.43768 23.3952C5.62347 23.6017 5.80514 23.8122 5.97442 24.0269C5.98681 24.0434 5.9992 24.0558 6.01158 24.0724C6.10242 24.188 6.19325 24.3077 6.27583 24.4233C6.36253 24.5389 6.44098 24.6504 6.5153 24.766C6.52356 24.7784 6.53181 24.7908 6.54007 24.8032C6.57723 24.8527 6.60613 24.9064 6.64329 24.9559C6.65155 24.9683 6.65568 24.9724 6.66394 24.9848L6.51117 25.1789L6.29647 25.4472C6.26344 25.4885 6.23454 25.534 6.20977 25.5794C6.1148 25.7487 6.07764 25.9468 6.10655 26.1409C6.11067 26.1863 6.12306 26.2359 6.13545 26.2813L6.41208 27.1937L5.63173 28.2301C5.45832 28.4654 5.43768 28.7751 5.57806 29.0311L5.77624 29.382L5.35097 29.7371C4.94635 30.0757 4.81835 30.6496 5.04544 31.1326L6.26757 33.7462C6.26757 33.7462 5.69366 33.932 5.07434 33.5728C4.90506 33.4778 4.71926 33.4283 4.52521 33.4283H4.30225C4.1082 33.4283 3.96782 33.6058 4.00911 33.7957L4.47153 35.9097C4.52108 36.1326 4.74816 36.2771 4.97112 36.2111C5.18582 36.1491 5.4129 36.0294 5.44181 35.8023C5.44181 35.8023 8.48062 35.8766 9.35593 35.7197L10.735 36.5579L13.4517 41.2606C14.5624 43.1805 15.9001 44.733 17.2213 45.9592L19.839 48.0649H19.8431C21.6061 49.2912 22.9232 49.8279 22.9232 49.8279L22.7746 49.2169L22.5434 48.2466L23.5384 48.9113L24.294 49.415C24.5417 48.9774 25.0867 48.4406 25.8134 47.8543C26.602 47.2144 27.6053 46.5207 28.6747 45.8312C32.0149 43.676 35.9868 41.5909 35.9868 41.5909C41.4534 39.3449 44.2362 36.4547 45.5368 33.6347C44.6532 36.9708 41.9695 40.6413 35.3468 43.3581C35.3468 43.3581 32.3576 44.9229 29.3848 46.7437C30.2106 47.7263 31.0859 48.5604 31.8415 49.2045C32.9975 50.1954 34.4798 50.7239 36.0033 50.7197C36.2221 50.7197 36.441 50.7156 36.6557 50.7032C46.2717 50.278 52.9397 40.8601 50.4955 31.5496C50.1693 30.3027 49.806 29.1302 49.4468 28.3704C49.3807 28.2259 49.3105 28.0856 49.2403 27.9452C48.4971 26.4712 47.6259 25.2573 46.6639 24.3738C46.1891 23.932 45.6937 23.5686 45.1817 23.2961C44.8844 23.0319 44.5582 22.8172 44.2155 22.6438C45.4129 22.7635 46.5525 23.3498 47.5847 24.316C48.493 25.15 49.3188 26.273 50.0289 27.6355C50.1445 27.4786 50.2519 27.3259 50.3551 27.1731C51.7176 25.1624 52.0768 23.4984 52.1057 23.3374C51.602 24.4274 49.9133 25.7487 49.806 25.8312C50.896 24.7784 51.8786 22.5034 52.564 20.5959C53.1792 18.8948 53.5549 17.4828 53.5549 17.4828H53.5467ZM6.56072 24.0724C6.54007 24.0435 6.5153 24.0145 6.49465 23.9856C6.42859 23.9031 6.36253 23.8246 6.29647 23.7462C6.11067 23.5273 5.91249 23.3168 5.71018 23.1103C5.33033 22.7264 4.91745 22.363 4.47566 22.0286H4.47153C4.47153 22.0286 4.46741 22.0203 4.46328 22.0203C4.44676 22.0079 4.41373 21.9749 4.36831 21.9336C4.09168 21.6859 3.34437 21.0294 2.77459 20.5876C2.76633 20.5794 2.75395 20.5711 2.74569 20.5629C2.74569 20.5629 2.74156 20.5601 2.7333 20.5546C2.67963 20.5174 2.62595 20.472 2.56815 20.4307C2.53512 20.4018 2.49383 20.3771 2.45667 20.3482H2.45254C2.10985 20.1004 1.90341 19.7908 1.82496 19.5059C1.9736 19.6586 2.14701 19.7412 2.14701 19.7412C3.74073 20.6041 5.00415 21.6405 5.9992 22.7222C6.09003 22.8213 6.17674 22.9204 6.26344 23.0154C6.39143 23.1681 6.5153 23.3168 6.63916 23.4654C6.65981 23.4984 6.68458 23.5273 6.70935 23.5604C6.92405 23.8288 7.12636 24.1054 7.30803 24.3779C7.31216 24.382 7.31629 24.382 7.31216 24.3861C7.33693 24.415 7.36171 24.4522 7.38235 24.4852C7.41125 24.5265 7.44015 24.5678 7.46493 24.6091C7.51034 24.6793 7.55163 24.7453 7.59292 24.8114C7.60944 24.8362 7.62595 24.861 7.63421 24.8816C7.6466 24.894 7.65485 24.9105 7.66311 24.9188C7.69614 24.9724 7.72091 25.022 7.75394 25.0674C7.98929 25.4638 8.19986 25.8519 8.38152 26.2235C7.84065 25.6661 7.403 25.1789 7.15527 24.8981H7.15114C7.10159 24.8114 7.04379 24.7288 6.98598 24.6504C6.96947 24.6256 6.95708 24.6008 6.93231 24.5761C6.8167 24.4027 6.69284 24.2334 6.56072 24.0724ZM7.37409 35.2738C7.11811 35.2243 6.84973 35.2491 6.59375 35.3151C6.44098 35.3564 6.25931 35.3894 6.08177 35.406C6.02397 35.4101 5.96204 35.4142 5.9001 35.4142C5.80101 35.4142 5.70605 35.406 5.61522 35.3853C5.46658 35.3523 5.31381 35.3812 5.18995 35.472C5.12389 35.5216 5.04957 35.5587 4.97525 35.5628H4.96286C4.92158 35.5628 4.88029 35.5505 4.84313 35.5216V35.5133L4.54585 34.1343L4.95873 34.0558C4.95873 34.0558 5.26014 34.4935 6.56897 34.0889C6.58962 34.0847 6.61026 34.0806 6.63091 34.0765L8.61274 35.278C8.23702 35.3193 7.75394 35.344 7.37409 35.2738ZM12.787 29.2169L12.3411 29.349C11.4369 29.0723 10.1445 27.9658 9.05039 26.8965C9.00911 26.7726 8.96782 26.6611 8.92653 26.5538C8.72009 26.017 8.55906 25.6661 8.55906 25.6661C8.39391 25.3605 8.21637 25.0633 8.04296 24.7784C8.0347 24.7701 8.02645 24.7577 8.02232 24.7495C8.00993 24.7288 7.99754 24.7123 7.98929 24.6917C7.9769 24.6752 7.96864 24.6628 7.96039 24.6463C7.91497 24.5761 7.86542 24.5017 7.82413 24.4316C7.79936 24.3944 7.77046 24.3614 7.74982 24.3201C7.74569 24.3201 7.74156 24.3118 7.74156 24.3077C7.70853 24.2623 7.67963 24.2169 7.65072 24.1714C7.63834 24.1591 7.63008 24.1508 7.62595 24.1384C7.40712 23.8164 7.18417 23.5108 6.95708 23.2218C6.94057 23.2012 6.92405 23.1805 6.90754 23.164C6.84973 23.0856 6.79606 23.0154 6.73413 22.9411C4.84313 20.6 2.97277 19.4646 2.97277 19.4646C5.77624 19.9972 7.66724 21.3721 8.56319 22.1731C8.76138 22.3465 8.79854 22.2722 8.65816 22.1194C7.40299 20.7404 5.31381 19.6297 5.31381 19.6297C4.94635 19.4068 4.61604 19.2292 4.30638 19.0889C4.50044 19.1549 4.69862 19.2251 4.88854 19.3036C4.94222 19.3242 5.00002 19.3449 5.04957 19.3738L5.1115 19.3944C5.35097 19.4976 5.60283 19.5885 5.85056 19.6628C6.13958 19.7577 6.41621 19.861 6.7011 19.9724C7.7622 20.406 8.72835 20.9757 9.57475 21.6446C9.88029 21.8799 10.1652 22.1318 10.4335 22.3961C10.4625 22.4167 10.4914 22.4456 10.5161 22.4745C10.7143 22.6686 10.9042 22.8709 11.0859 23.0773C11.1272 23.1269 11.1685 23.1764 11.2098 23.2218L11.218 23.2342C11.4203 23.4737 11.6103 23.7214 11.7878 23.9733C12.1098 24.4316 12.3906 24.9022 12.6301 25.3936C12.7209 25.633 12.9232 26.3143 12.9274 26.3267C12.5145 26.8469 12.6383 27.7181 12.8117 28.3539V28.3663C12.9315 28.8081 13.0719 29.1302 13.0719 29.1302L12.787 29.2169ZM39.7605 17.0864C39.7605 17.0864 38.7655 16.8221 38.7655 15.823C38.7655 15.823 39.071 15.1582 39.0958 14.3325C39.1041 14.1467 39.0958 13.9526 39.0669 13.7586C39.0669 13.7586 38.2659 11.1946 39.7605 11.3886C39.7605 11.3886 39.7853 11.3886 39.8349 11.3886C39.839 11.3886 39.8431 11.3886 39.8473 11.3969H39.8596C39.8596 11.3969 39.8679 11.3886 39.872 11.3969C40.033 11.4051 40.3592 11.4712 40.8175 11.752H40.8217C41.0405 11.8841 41.2841 12.0575 41.5525 12.3011C41.5442 12.2763 41.4781 12.1483 41.3543 11.979C40.9909 11.4588 40.128 10.5298 38.7655 10.7652C38.7655 10.7652 39.7234 9.43569 41.7837 11.4671C41.7837 11.4671 42.114 11.8511 42.3906 12.4621C42.6796 13.1021 42.9108 13.9939 42.6466 14.9559C42.4814 15.5629 42.1181 16.2028 41.441 16.8221C41.441 16.8221 40.8299 17.3961 39.7605 17.0864Z" fill="#240F0D"/>
</svg>
