<svg width="60" height="60" viewBox="0 0 60 60" fill="none" xmlns="http://www.w3.org/2000/svg">
<g clip-path="url(#clip0_1151_14239)">
<path fill-rule="evenodd" clip-rule="evenodd" d="M14.7816 50.5355L4.0332 43.8107V15.07L30.3185 0.00134277L55.9668 15.095V45.3265L29.9112 60.0013L20.8653 54.3417V42.2239V40.5696L15.9605 37.5007V21.915L30.1623 13.7735L44.0396 21.94V38.2718L33.0526 44.4597V37.8822C36.3461 36.6139 38.7101 33.354 38.7101 29.5065C38.7101 24.5474 34.7826 20.5643 30.0001 20.5643C25.2174 20.5643 21.2902 24.5474 21.2902 29.5065C21.2902 33.354 23.6539 36.6139 26.9474 37.8822V50.3449L30.0888 52.3103L49.3527 41.4605V18.8769L30.2751 7.65L10.6474 18.902V40.1469L14.7816 42.7336V50.5355ZM30.0001 25.3978C32.1644 25.3978 33.8765 27.2625 33.8765 29.5065C33.8765 31.7505 32.1644 33.6152 30.0001 33.6152C27.8359 33.6152 26.1235 31.7505 26.1235 29.5065C26.1235 27.2625 27.8359 25.3978 30.0001 25.3978Z" fill="#123678"/>
</g>
<defs>
<clipPath id="clip0_1151_14239">
<rect width="60" height="60" fill="white" transform="translate(0 0.00134277)"/>
</clipPath>
</defs>
</svg>
