<svg width="60" height="60" viewBox="0 0 60 60" fill="none" xmlns="http://www.w3.org/2000/svg">
<path d="M59.092 23.6735C59.092 26.2905 59.1668 28.9074 59.0748 31.5186C58.885 37.1264 58.9483 42.7341 58.954 48.3419C58.954 50.7172 59.1208 53.0869 59.2128 55.4623C59.2301 55.8879 59.1956 56.3192 59.2358 56.7448C59.3969 58.3208 58.5399 59.2238 57.2343 59.8392C56.5211 60.1728 55.8827 59.9369 55.2788 59.5631C53.2485 58.3208 52.2477 56.3767 51.7933 54.1452C51.247 51.4419 51.0284 48.6985 50.8673 45.9435C50.7523 43.9822 50.5223 42.0267 50.4417 40.0539C50.367 38.2537 50.2462 36.4477 50.1829 34.6475C50.0794 31.7544 49.8321 28.8672 49.6538 25.9742C49.5215 23.8116 49.3259 21.6663 48.8946 19.5439C48.8716 19.4289 48.8486 19.3081 48.8198 19.1931C48.7335 18.871 48.6933 18.5029 48.3022 18.4109C47.8708 18.3074 47.7328 18.6985 47.5602 18.9573C46.0993 21.1429 45.0698 23.5528 43.9828 25.9281C41.061 32.3008 38.5591 38.8633 35.528 45.1843C34.9241 46.4496 34.3892 47.7495 33.653 48.9458C33.1124 49.8315 32.4222 50.5792 31.5364 51.1256C29.5292 52.3622 27.2861 51.8963 25.9114 49.9523C24.7381 48.2843 23.9789 46.4036 23.2542 44.5228C21.2585 39.335 19.372 34.1011 17.3129 28.9362C16.0303 25.7153 14.7592 22.4772 12.982 19.4807C12.8612 19.2794 12.7462 19.0608 12.5851 18.894C12.1998 18.4742 11.8317 18.5374 11.5959 19.0493C11.3256 19.636 11.1473 20.2571 11.038 20.8898C10.6066 23.3457 10.204 25.8016 9.84741 28.2748C9.48507 30.7652 9.12272 33.2556 8.81214 35.7518C8.24849 40.3012 7.7251 44.8507 7.1557 49.4001C6.87387 51.6375 6.66682 53.8921 5.75807 55.9971C5.58553 56.3883 5.41873 56.7851 5.20593 57.1532C4.36045 58.6486 3.14113 59.0915 1.51919 58.5163C1.07057 58.3553 0.742736 58.0562 0.518426 57.6478C0.133073 56.9404 -0.0394729 56.1754 0.0065394 55.3817C0.110067 53.4147 0.219346 51.4477 0.397644 49.4807C0.64496 46.7372 0.68522 43.9822 0.852015 41.233C1.12809 36.7065 1.14534 32.1628 1.50194 27.6536C1.82978 23.5182 1.61697 19.3944 1.84703 15.2706C2.00232 12.4638 1.84703 9.66281 1.98507 6.86181C2.08284 4.87178 2.64074 2.97953 4.09588 1.5474C5.20017 0.477612 6.59205 -0.270087 8.20823 0.092259C9.4333 0.368333 10.5491 0.99525 11.4866 1.88674C12.2861 2.64594 12.982 3.47991 13.5572 4.41741C15.7772 8.04663 17.8593 11.7564 19.7688 15.5639C22.449 20.9186 25.1292 26.2732 27.8152 31.6222C28.1258 32.2376 28.4709 32.8357 28.8332 33.4166C29.4889 34.4519 30.0123 34.4289 30.6335 33.3419C31.2144 32.3296 31.778 31.3116 32.3129 30.2763C35.3785 24.3465 38.4095 18.3936 41.5039 12.4753C42.7462 10.0942 43.9828 7.70729 45.4667 5.46419C46.4387 3.99755 47.4854 2.55391 48.9521 1.54165C50.0679 0.77094 51.1779 -0.132051 52.6848 0.0289922C54.8532 0.253302 56.6246 1.04126 57.5621 3.20959C58.2466 4.80276 58.3788 6.47646 58.4939 8.15591C58.5974 9.72608 58.839 11.2732 59.0058 12.8319C59.0805 13.5681 59.0805 14.3043 59.0805 15.0405C59.0863 17.9163 59.0805 20.792 59.0805 23.6735H59.092Z" fill="#333333"/>
</svg>
