<svg width="60" height="60" viewBox="0 0 60 60" fill="none" xmlns="http://www.w3.org/2000/svg">
<path d="M34.5542 9.73014C35.6088 8.67551 35.6088 6.96561 34.5542 5.91097C33.4996 4.85634 31.7897 4.85634 30.735 5.91097C29.6804 6.96561 29.6804 8.67551 30.735 9.73014C31.7897 10.7848 33.4996 10.7848 34.5542 9.73014Z" fill="#5D88D6"/>
<path d="M42.1902 17.3659C43.362 16.1942 43.362 14.2944 42.1902 13.1227C41.0185 11.9509 39.1188 11.9509 37.947 13.1227C36.7753 14.2944 36.7753 16.1942 37.947 17.3659C39.1188 18.5376 41.0185 18.5376 42.1902 17.3659Z" fill="#5D88D6"/>
<path d="M49.8252 25.0031C51.1139 23.7145 51.1139 21.6251 49.8252 20.3365C48.5365 19.0478 46.4472 19.0478 45.1585 20.3365C43.8699 21.6251 43.8699 23.7145 45.1585 25.0031C46.4472 26.2918 48.5365 26.2918 49.8252 25.0031Z" fill="#5D88D6"/>
<path d="M57.4547 32.6309C58.8604 31.2252 58.8604 28.946 57.4547 27.5402C56.0489 26.1345 53.7697 26.1345 52.364 27.5402C50.9582 28.946 50.9582 31.2252 52.364 32.6309C53.7697 34.0367 56.0489 34.0367 57.4547 32.6309Z" fill="#5D88D6"/>
<path d="M19.502 9.51826C20.4397 8.58056 20.4397 7.06025 19.502 6.12255C18.5643 5.18485 17.044 5.18485 16.1063 6.12255C15.1686 7.06025 15.1686 8.58056 16.1063 9.51826C17.044 10.456 18.5643 10.456 19.502 9.51826Z" fill="#32DBFC"/>
<path d="M27.1372 17.1537C28.1918 16.0991 28.1918 14.3892 27.1372 13.3346C26.0826 12.2799 24.3727 12.2799 23.318 13.3346C22.2634 14.3892 22.2634 16.0991 23.318 17.1537C24.3727 18.2084 26.0826 18.2084 27.1372 17.1537Z" fill="#32DBFC"/>
<path d="M34.7667 24.7832C35.9384 23.6114 35.9384 21.7117 34.7667 20.54C33.5949 19.3682 31.6952 19.3682 30.5235 20.54C29.3517 21.7117 29.3517 23.6114 30.5235 24.7832C31.6952 25.9549 33.5949 25.9549 34.7667 24.7832Z" fill="#32DBFC"/>
<path d="M42.3992 32.4148C43.6878 31.1262 43.6878 29.0368 42.3992 27.7482C41.1105 26.4595 39.0212 26.4595 37.7325 27.7482C36.4438 29.0368 36.4438 31.1262 37.7325 32.4148C39.0212 33.7035 41.1105 33.7035 42.3992 32.4148Z" fill="#32DBFC"/>
<path d="M50.0372 40.0562C51.4429 38.6504 51.4429 36.3712 50.0372 34.9655C48.6314 33.5597 46.3522 33.5597 44.9465 34.9655C43.5407 36.3712 43.5407 38.6504 44.9465 40.0562C46.3522 41.4619 48.6314 41.4619 50.0372 40.0562Z" fill="#32DBFC"/>
<path d="M4.45751 9.31433C5.27812 8.49372 5.27812 7.16326 4.45751 6.34265C3.63691 5.52205 2.30644 5.52205 1.48584 6.34265C0.665232 7.16326 0.665232 8.49372 1.48584 9.31433C2.30644 10.1349 3.63691 10.1349 4.45751 9.31433Z" fill="black"/>
<path d="M12.0826 16.9386C13.0203 16.0009 13.0203 14.4806 12.0826 13.5429C11.1449 12.6052 9.62457 12.6052 8.68687 13.5429C7.74917 14.4806 7.74917 16.0009 8.68687 16.9386C9.62457 17.8763 11.1449 17.8763 12.0826 16.9386Z" fill="black"/>
<path d="M19.7212 24.579C20.7758 23.5244 20.7758 21.8145 19.7212 20.7599C18.6666 19.7052 16.9567 19.7052 15.902 20.7599C14.8474 21.8145 14.8474 23.5244 15.902 24.579C16.9567 25.6337 18.6666 25.6337 19.7212 24.579Z" fill="black"/>
<path d="M27.3533 32.211C28.5251 31.0393 28.5251 29.1396 27.3533 27.9678C26.1816 26.7961 24.2819 26.7961 23.1101 27.9678C21.9384 29.1396 21.9384 31.0393 23.1101 32.211C24.2819 33.3828 26.1816 33.3828 27.3533 32.211Z" fill="black"/>
<path d="M34.9846 39.8447C36.2733 38.556 36.2733 36.4667 34.9846 35.178C33.696 33.8894 31.6066 33.8894 30.318 35.178C29.0293 36.4667 29.0293 38.556 30.318 39.8447C31.6066 41.1334 33.696 41.1334 34.9846 39.8447Z" fill="black"/>
<path d="M42.6124 47.4672C44.0181 46.0615 44.0181 43.7823 42.6124 42.3765C41.2066 40.9708 38.9274 40.9708 37.5217 42.3765C36.1159 43.7823 36.1159 46.0615 37.5217 47.4672C38.9274 48.873 41.2066 48.873 42.6124 47.4672Z" fill="black"/>
<path d="M19.503 39.1977C20.4407 38.26 20.4407 36.7397 19.503 35.802C18.5653 34.8643 17.045 34.8643 16.1073 35.802C15.1696 36.7397 15.1696 38.26 16.1073 39.1977C17.045 40.1354 18.5653 40.1354 19.503 39.1977Z" fill="#5D88D6"/>
<path d="M10.386 47.3212C11.7121 47.3212 12.7871 46.2462 12.7871 44.92C12.7871 43.5939 11.7121 42.5189 10.386 42.5189C9.05988 42.5189 7.98486 43.5939 7.98486 44.92C7.98486 46.2462 9.05988 47.3212 10.386 47.3212Z" fill="#5D88D6"/>
<path d="M2.96802 54.7463C4.29413 54.7463 5.36915 53.6713 5.36915 52.3452C5.36915 51.0191 4.29413 49.9441 2.96802 49.9441C1.64192 49.9441 0.566895 51.0191 0.566895 52.3452C0.566895 53.6713 1.64192 54.7463 2.96802 54.7463Z" fill="#5D88D6"/>
<path d="M17.8062 54.7423C19.1323 54.7423 20.2073 53.6672 20.2073 52.3411C20.2073 51.015 19.1323 49.94 17.8062 49.94C16.4801 49.94 15.405 51.015 15.405 52.3411C15.405 53.6672 16.4801 54.7423 17.8062 54.7423Z" fill="#5D88D6"/>
<path d="M34.3462 54.0443C35.2839 53.1066 35.2839 51.5863 34.3462 50.6486C33.4085 49.7109 31.8882 49.7109 30.9505 50.6486C30.0128 51.5863 30.0128 53.1066 30.9505 54.0443C31.8882 54.982 33.4085 54.982 34.3462 54.0443Z" fill="#5D88D6"/>
<path d="M26.9229 46.6171C27.8606 45.6794 27.8606 44.1591 26.9229 43.2214C25.9852 42.2837 24.4649 42.2837 23.5272 43.2214C22.5895 44.1591 22.5895 45.6794 23.5272 46.6171C24.4649 47.5548 25.9852 47.5548 26.9229 46.6171Z" fill="#5D88D6"/>
</svg>
