<svg width="60" height="60" viewBox="0 0 60 60" fill="none" xmlns="http://www.w3.org/2000/svg">
<path d="M57.9849 23.9298C56.8721 23.9298 55.9699 24.832 55.9699 25.945C55.9699 42.5273 42.5274 55.9698 25.9451 55.9698C24.8321 55.9698 23.9299 56.8719 23.9299 57.985C23.9299 59.0979 24.8321 60 25.9451 60C44.7532 60 60.0001 44.7531 60.0001 25.945C60.0001 24.832 59.098 23.9298 57.9849 23.9298Z" fill="#005EB8"/>
<path d="M45.8224 36.8436C47.7602 33.6824 49.6344 29.4673 49.2657 23.5663C48.5019 11.3427 37.4306 2.06962 26.9762 3.07457C22.8835 3.46799 18.6811 6.80403 19.0544 12.7795C19.2167 15.3762 20.4876 16.9088 22.5532 18.0871C24.519 19.2086 27.045 19.9191 29.9083 20.7243C33.3669 21.6972 37.3789 22.7899 40.4624 25.0622C44.158 27.7856 46.6843 30.9427 45.8224 36.8436Z" fill="#003B5C"/>
<path d="M6.49 15.4691C4.55214 18.6303 2.67803 22.8454 3.04675 28.7464C3.81053 40.97 14.8819 50.2431 25.3362 49.2382C29.4289 48.8448 33.6314 45.5088 33.258 39.5333C33.0957 36.9366 31.8248 35.404 29.7592 34.2256C27.7934 33.1042 25.2674 32.3937 22.4041 31.5884C18.9455 30.6155 14.9335 29.5228 11.8501 27.2505C8.15445 24.5272 5.62816 21.3701 6.49 15.4691Z" fill="#005EB8"/>
</svg>
