<svg width="60" height="60" fill="none" xmlns="http://www.w3.org/2000/svg" viewBox="0 0 60 60"><mask id="a" style="mask-type:luminance" maskUnits="userSpaceOnUse" x="0" y="0" width="60" height="60"><path d="M0 .074h59.926V60H0V.074Z" fill="#fff"/></mask><g mask="url(#a)"><path d="M58.797 27.369 32.632 1.204a3.86 3.86 0 0 0-5.46 0L21.741 6.64l6.89 6.891a4.585 4.585 0 0 1 5.804 5.844l6.644 6.642a4.584 4.584 0 0 1 5.742 2.58 4.592 4.592 0 0 1-4.245 6.349 4.598 4.598 0 0 1-3.25-1.345 4.594 4.594 0 0 1-.996-4.996l-6.195-6.193v16.302a4.592 4.592 0 1 1-5.281.869c.43-.43.94-.772 1.503-1.004V22.126a4.598 4.598 0 0 1-2.492-6.023l-6.794-6.795L1.128 27.246a3.864 3.864 0 0 0 0 5.46l26.167 26.166a3.864 3.864 0 0 0 5.459 0l26.043-26.044a3.864 3.864 0 0 0 0-5.46Z" fill="#F03C2E"/></g></svg>