<svg width="60" height="60" viewBox="0 0 60 60" fill="none" xmlns="http://www.w3.org/2000/svg">
<path d="M59.9981 30.0147C59.9981 42.2512 52.6782 52.7776 42.1821 57.4509L32.2155 47.4081C31.7994 46.9886 31.5659 46.422 31.5659 45.8314V41.5409C31.5659 40.9225 32.0671 40.4218 32.6851 40.4218H42.3078L44.9408 41.5691C45.4164 41.7761 45.9732 41.5858 46.2225 41.1299L51.9345 30.7229C52.1158 30.3927 52.2107 30.0224 52.2107 29.6461V27.1978C52.2107 26.9181 52.0961 26.6496 51.8947 26.4563L40.3522 14.9416C40.2573 14.8492 40.1367 14.7821 40.0054 14.7513L28.7683 12.0802C28.4172 11.9969 28.0913 11.8296 27.8185 11.5927L27.1086 10.9765L23.5044 7.85386C23.38 7.7461 23.1871 7.75166 23.0648 7.86242C21.6733 9.1231 20.9189 10.1606 20.555 11.5363C19.9477 13.6852 20.4682 15.5908 21.3248 16.7462C21.3778 16.8189 21.4312 16.8891 21.4868 16.9532L25.7851 21.2596C25.995 21.4666 26.1096 21.7492 26.1096 22.046L26.1126 27.0109C26.1126 27.3338 25.7226 27.4954 25.4943 27.2675L18.4886 20.2619C18.2996 20.0729 17.993 20.0724 17.8036 20.2615L14.92 23.1361C14.7301 23.3255 14.7301 23.6326 14.9195 23.8224L24.8763 33.7792C26.0228 34.9257 26.6673 36.481 26.6673 38.1027V47.994C26.6673 48.6569 26.9307 49.2928 27.3994 49.7615L36.8751 59.2401C35.0841 59.6597 33.232 59.9201 31.332 60.0013L23.8521 52.5215C22.8095 51.4789 22.2237 50.0647 22.2237 48.5901V38.3545C22.2237 37.7648 21.9893 37.1995 21.5728 36.783L11.7627 26.9729C11.5737 26.7838 11.2666 26.7834 11.0776 26.9729L8.17392 29.8697C7.98404 30.0592 7.98404 30.3662 8.17392 30.5556L16.6198 39.0016C16.8268 39.2115 16.9444 39.4942 16.9444 39.788V44.7405C16.9444 45.0625 16.5553 45.2242 16.3273 44.9963L5.15348 33.8331C4.97815 33.6582 4.6788 33.7818 4.67837 34.0294L4.66469 39.9591C4.66383 40.3311 4.81137 40.6878 5.07437 40.9512L23.4266 59.306C9.6604 56.2283 -0.535434 43.6834 0.0217826 28.8566C0.592684 13.6711 12.7086 1.12236 27.869 0.0750615C45.4001 -1.13602 59.9981 12.7337 59.9981 30.0147Z" fill="black"/>
</svg>
