<svg width="60" height="60" viewBox="0 0 60 60" fill="none" xmlns="http://www.w3.org/2000/svg">
<path fill-rule="evenodd" clip-rule="evenodd" d="M56.4959 28.2995C56.4104 30.4813 56.0895 32.631 55.5334 34.7487C54.9772 36.8663 54.1323 38.7808 52.9986 40.492C51.8863 42.2032 50.4638 43.5722 48.7312 44.5989C46.9986 45.6257 44.9023 46.139 42.4424 46.139C41.0521 46.139 39.8007 45.893 38.6884 45.4011C37.5761 44.9091 36.635 44.2139 35.8649 43.3155C35.3995 42.7596 35.0083 42.1372 34.6913 41.4484C34.1053 42.2755 33.4591 42.9941 32.7526 43.6043C31.8328 44.4171 30.8275 45.0267 29.7366 45.4332C28.6456 45.8396 27.4692 46.0428 26.2071 46.0428C24.6457 46.0428 23.2553 45.7112 22.036 45.0481C20.8168 44.3636 19.8007 43.3904 18.9879 42.1283C18.1751 40.8663 17.5868 39.3583 17.2232 37.6043C16.8809 35.8289 16.8168 33.8503 17.0307 31.6684C17.266 29.4866 17.6938 27.4652 18.3141 25.6043C18.9344 23.7433 19.7045 22.0856 20.6243 20.631C21.544 19.1551 22.5922 17.9037 23.7686 16.877C24.9665 15.8289 26.2606 15.0374 27.651 14.5027C29.0414 13.9679 30.4959 13.7005 32.0146 13.7005C34.4745 13.7005 36.4104 14.0535 37.8221 14.7594C39.2339 15.4652 40.5708 16.2781 41.8328 17.1979L40.2285 35.6791C40.1002 36.7914 40.1109 37.7005 40.2606 38.4064C40.4317 39.1123 40.6884 39.6578 41.0307 40.0428C41.3943 40.4278 41.8007 40.7059 42.2499 40.877C42.7205 41.0267 43.1804 41.1016 43.6296 41.1016C44.6563 41.1016 45.5975 40.7808 46.4531 40.139C47.3088 39.4973 48.0467 38.6096 48.667 37.4759C49.2874 36.3422 49.7793 35.016 50.143 33.4973C50.5066 31.9572 50.7098 30.2995 50.7526 28.5241C50.9023 25.6791 50.7633 23.0481 50.3355 20.631C49.9291 18.2139 49.2232 16.0535 48.2178 14.1497C47.2339 12.2246 45.9505 10.5989 44.3676 9.27273C42.7847 7.92513 40.9023 6.8984 38.7205 6.19251C36.5387 5.46524 34.0467 5.1016 31.2446 5.1016C28.6136 5.1016 26.1858 5.50802 23.9612 6.32086C21.7579 7.13369 19.7793 8.29947 18.0253 9.81818C16.2927 11.3369 14.7954 13.1551 13.5334 15.2727C12.2927 17.369 11.3088 19.7112 10.5815 22.2995C9.8756 24.8663 9.45849 27.6257 9.33014 30.5775C9.18041 33.6791 9.34084 36.5027 9.81143 39.0481C10.3034 41.5936 11.0842 43.8289 12.1537 45.754C13.2446 47.7005 14.6029 49.3262 16.2285 50.631C17.8542 51.9358 19.7473 52.9198 21.9077 53.5829C24.0681 54.246 26.4745 54.5775 29.1269 54.5775C30.9879 54.5775 32.8809 54.3636 34.8061 53.9358C36.7526 53.5294 38.389 53.0053 39.7152 52.3636L40.9344 57.1444C39.4371 58.107 37.5654 58.8235 35.3194 59.2941C33.0948 59.7647 30.9879 60 28.9986 60C25.5975 60 22.4959 59.5829 19.6938 58.7487C16.913 57.9358 14.4531 56.7166 12.3141 55.0909C10.1751 53.4866 8.38897 51.4973 6.95581 49.123C5.54405 46.7487 4.49592 44.0107 3.81143 40.9091C3.14833 37.8075 2.89164 34.3636 3.04137 30.5775C3.19111 27.0695 3.73656 23.7647 4.67774 20.6631C5.61891 17.5615 6.90234 14.7487 8.528 12.2246C10.1537 9.70053 12.1002 7.52941 14.3676 5.71123C16.6563 3.87166 19.2232 2.45989 22.0681 1.47594C24.913 0.491979 28.0146 0 31.3729 0C34.7098 0 37.7366 0.438503 40.4531 1.31551C43.1911 2.19251 45.5868 3.45455 47.6403 5.1016C49.6938 6.72727 51.405 8.70588 52.774 11.0374C54.143 13.3476 55.1376 15.9572 55.7579 18.8663C56.3783 21.7754 56.6243 24.9198 56.4959 28.2995ZM24.1216 35.4225C23.9932 34.3316 23.9825 33.0802 24.0895 31.6684C24.3034 29.6364 24.635 27.8503 25.0842 26.3102C25.5333 24.7487 26.1002 23.4439 26.7847 22.3957C27.4906 21.3262 28.3141 20.5241 29.2553 19.9893C30.2178 19.4545 31.3301 19.1872 32.5922 19.1872C33.5588 19.1872 34.4295 19.3205 35.2042 19.5871L33.8471 34.9141C33.6154 35.5974 33.3575 36.2053 33.0735 36.738C32.5815 37.6791 32.0574 38.4171 31.5013 38.9519C30.9451 39.4866 30.3997 39.8717 29.8649 40.107C29.3301 40.3209 28.8382 40.4278 28.389 40.4278C27.5761 40.4278 26.8702 40.246 26.2713 39.8824C25.6938 39.4973 25.2232 38.9305 24.8596 38.1818C24.4959 37.4332 24.2499 36.5134 24.1216 35.4225Z" fill="black"/>
</svg>
