<svg width="60" height="60" viewBox="0 0 60 60" fill="none" xmlns="http://www.w3.org/2000/svg">
<path d="M30.293 59.6157C25.4478 59.618 20.6752 58.4378 16.3895 56.1775C12.1038 53.9173 8.43443 50.6453 5.69989 46.6455C2.96536 42.6457 1.24827 38.039 0.69765 33.2252C0.147033 28.4113 0.779526 23.5359 2.54024 19.0219C4.30094 14.508 7.13667 10.4919 10.8013 7.32225C14.4659 4.15262 18.8487 1.92521 23.5693 0.833352C28.2899 -0.258511 33.2056 -0.18184 37.8898 1.05671C42.574 2.29526 46.8852 4.65826 50.4492 7.94063L43.4086 15.3281C40.5985 12.7945 37.1141 11.13 33.3773 10.5362C29.6406 9.94241 25.8118 10.4448 22.3548 11.9826C18.8977 13.5204 15.9607 16.0275 13.8995 19.2004C11.8382 22.3733 10.7412 26.0758 10.7412 29.8594C10.7412 33.643 11.8382 37.3455 13.8995 40.5184C15.9607 43.6912 18.8977 46.1984 22.3548 47.7362C25.8118 49.274 29.6406 49.7764 33.3773 49.1826C37.1141 48.5888 40.5985 46.9243 43.4086 44.3907L50.4492 51.75C44.9594 56.8146 37.7621 59.6233 30.293 59.6157ZM54.2555 44.7188C53.609 44.7188 52.989 44.462 52.5319 44.0048C52.0748 43.5477 51.818 42.9277 51.818 42.2813C51.818 41.6348 52.0748 41.0148 52.5319 40.5577C52.989 40.1006 53.609 39.8438 54.2555 39.8438C54.9019 39.8438 55.5219 40.1006 55.979 40.5577C56.4362 41.0148 56.693 41.6348 56.693 42.2813C56.693 42.9277 56.4362 43.5477 55.979 44.0048C55.5219 44.462 54.9019 44.7188 54.2555 44.7188Z" fill="#E03875"/>
<path d="M30.1045 36.2906C28.3939 36.2906 26.7533 35.611 25.5437 34.4014C24.3341 33.1918 23.6545 31.5512 23.6545 29.8406C23.6545 28.1299 24.3341 26.4894 25.5437 25.2797C26.7533 24.0701 28.3939 23.3906 30.1045 23.3906C31.8152 23.3906 33.4558 24.0701 34.6654 25.2797C35.875 26.4894 36.5545 28.1299 36.5545 29.8406C36.5545 31.5512 35.875 33.1918 34.6654 34.4014C33.4558 35.611 31.8152 36.2906 30.1045 36.2906ZM57.0577 36.3843C56.5756 36.3843 56.1043 36.2414 55.7035 35.9735C55.3026 35.7057 54.9902 35.325 54.8057 34.8796C54.6212 34.4342 54.5729 33.9441 54.667 33.4713C54.761 32.9985 54.9932 32.5641 55.3341 32.2233C55.675 31.8824 56.1093 31.6502 56.5821 31.5562C57.055 31.4621 57.5451 31.5104 57.9905 31.6949C58.4358 31.8794 58.8165 32.1918 59.0844 32.5926C59.3522 32.9935 59.4952 33.4647 59.4952 33.9468C59.4927 34.5925 59.2351 35.2111 58.7785 35.6677C58.3219 36.1243 57.7034 36.3819 57.0577 36.3843ZM49.8024 36.1031C49.1559 36.1031 48.5359 35.8463 48.0788 35.3892C47.6217 34.932 47.3649 34.312 47.3649 33.6656C47.3649 33.0191 47.6217 32.3991 48.0788 31.942C48.5359 31.4849 49.1559 31.2281 49.8024 31.2281C50.4488 31.2281 51.0688 31.4849 51.5259 31.942C51.983 32.3991 52.2399 33.0191 52.2399 33.6656C52.2399 34.312 51.983 34.932 51.5259 35.3892C51.0688 35.8463 50.4488 36.1031 49.8024 36.1031ZM57.0577 28.1812C56.5756 28.1812 56.1043 28.0383 55.7035 27.7704C55.3026 27.5026 54.9902 27.1219 54.8057 26.6765C54.6212 26.2311 54.5729 25.741 54.667 25.2682C54.761 24.7953 54.9932 24.361 55.3341 24.0201C55.675 23.6792 56.1093 23.4471 56.5821 23.353C57.055 23.259 57.5451 23.3073 57.9905 23.4918C58.4358 23.6762 58.8165 23.9887 59.0844 24.3895C59.3522 24.7904 59.4952 25.2616 59.4952 25.7437C59.4927 26.3894 59.2351 27.008 58.7785 27.4646C58.3219 27.9211 57.7034 28.1787 57.0577 28.1812ZM49.8024 28.4625C49.1559 28.4625 48.5359 28.2056 48.0788 27.7485C47.6217 27.2914 47.3649 26.6714 47.3649 26.025C47.3649 25.3785 47.6217 24.7585 48.0788 24.3014C48.5359 23.8443 49.1559 23.5875 49.8024 23.5875C50.4488 23.5875 51.0688 23.8443 51.5259 24.3014C51.983 24.7585 52.2399 25.3785 52.2399 26.025C52.2399 26.6714 51.983 27.2914 51.5259 27.7485C51.0688 28.2056 50.4488 28.4625 49.8024 28.4625ZM54.3952 19.9781C53.7487 19.9781 53.1287 19.7213 52.6716 19.2642C52.2145 18.807 51.9577 18.1871 51.9577 17.5406C51.9577 16.8941 52.2145 16.2741 52.6716 15.817C53.1287 15.3599 53.7487 15.1031 54.3952 15.1031C55.0416 15.1031 55.6616 15.3599 56.1187 15.817C56.5759 16.2741 56.8327 16.8941 56.8327 17.5406C56.8327 18.1871 56.5759 18.807 56.1187 19.2642C55.6616 19.7213 55.0416 19.9781 54.3952 19.9781Z" fill="#E03875"/>
</svg>
