<svg width="60" height="60" viewBox="0 0 60 60" fill="none" xmlns="http://www.w3.org/2000/svg">
<path d="M4.4095 45.0023C4.68069 45.4744 5.07402 45.8647 5.54818 46.1322L28.8423 59.5811L28.843 59.5804C29.3123 59.856 29.8468 60.0014 30.3911 60.0014C30.9353 60.0014 31.4698 59.856 31.9391 59.5804L55.2339 46.1315C55.7072 45.863 56.1001 45.473 56.3721 45.0019C56.6441 44.5307 56.7854 43.9954 56.7812 43.4513V16.5536L56.7805 16.5529C56.7846 16.0086 56.6433 15.4732 56.3711 15.0019C56.099 14.5306 55.7059 14.1405 55.2325 13.872L31.9377 0.423125V0.422382C31.4687 0.146723 30.9346 0.00137329 30.3907 0.00137329C29.8467 0.00137329 29.3127 0.146723 28.8437 0.422382V0.423125L5.54963 13.872C5.07601 14.1403 4.68269 14.5303 4.4104 15.0016C4.1381 15.473 3.99671 16.0085 4.00086 16.5529L4.00014 16.5536V43.4513C3.9949 43.9956 4.13603 44.5312 4.40876 45.0023" fill="#009639"/>
<path d="M22.9324 40.2415C22.9324 41.0361 22.6168 41.798 22.055 42.3599C21.4932 42.9217 20.7312 43.2373 19.9367 43.2373C19.1421 43.2373 18.3802 42.9217 17.8184 42.3599C17.2565 41.798 16.9409 41.0361 16.9409 40.2415L16.9417 40.2423L16.9446 19.6777C16.9712 19.2613 17.0811 18.8543 17.2676 18.481C17.4542 18.1077 17.7137 17.7756 18.0308 17.5042C18.3479 17.2329 18.7161 17.0279 19.1138 16.9013C19.5114 16.7746 19.9304 16.729 20.346 16.7671C21.1184 16.7572 21.8836 16.9154 22.5887 17.2306C23.2938 17.5459 23.9219 18.0107 24.4296 18.5929L25.3348 19.6763L37.8501 34.6536V19.7614H37.8486C37.8486 19.368 37.9261 18.9784 38.0767 18.615C38.2272 18.2515 38.4479 17.9213 38.7261 17.6431C39.0042 17.3649 39.3345 17.1442 39.6979 16.9937C40.0614 16.8431 40.451 16.7656 40.8444 16.7656C41.2378 16.7656 41.6273 16.8431 41.9908 16.9937C42.3543 17.1442 42.6845 17.3649 42.9627 17.6431C43.2409 17.9213 43.4615 18.2515 43.6121 18.615C43.7626 18.9784 43.8401 19.368 43.8401 19.7614H43.8394L43.8365 40.3244C43.8098 40.7409 43.6999 41.1477 43.5133 41.521C43.3267 41.8943 43.0672 42.2264 42.7501 42.4977C42.4331 42.7691 42.0648 42.9741 41.6672 43.1007C41.2696 43.2274 40.8506 43.2731 40.435 43.2351C39.6626 43.2452 38.8973 43.0871 38.1922 42.7718C37.487 42.4566 36.8589 41.9916 36.3515 41.4093L22.931 25.3486V40.2423L22.9324 40.2415Z" fill="white"/>
</svg>
