<svg width="60" height="60" viewBox="0 0 60 60" fill="none" xmlns="http://www.w3.org/2000/svg">
<path d="M27.1469 10.8H22.9469V16.0487C21.8287 16.54 20.7771 17.1552 19.8097 17.8768L6.90005 10.4234L4.80005 14.0607L20.3829 23.0575C22.093 21.0555 24.4584 19.6301 27.1469 19.1133V10.8Z" fill="#008774"/>
<path d="M31.3469 19.0597C34.107 19.5166 36.545 20.9274 38.311 22.942L46.8125 18.0337L44.7125 14.3963L38.8525 17.7796C37.8348 17.0365 36.7264 16.4102 35.5469 15.9205V0.600006H31.3469V19.0597Z" fill="#00AF9F"/>
<path d="M52.9551 19.3369L40.4776 26.5409C40.9747 27.8488 41.2469 29.2676 41.2469 30.75C41.2469 32.1394 41.0078 33.4729 40.5685 34.7117L52.709 41.721L54.809 38.0836L45.3396 32.6165C45.4105 32.0042 45.4469 31.3814 45.4469 30.75C45.4469 30.0222 45.3985 29.3058 45.3047 28.6037L55.0551 22.9743L52.9551 19.3369Z" fill="#008774"/>
<path d="M45.05 42.1488L38.483 38.3573C36.705 40.4788 34.1977 41.9684 31.3469 42.4403V59.1H35.5469V45.5795C36.8147 45.0532 38.0004 44.369 39.0796 43.5515L42.95 45.7861L45.05 42.1488Z" fill="#00AF9F"/>
<path d="M27.1469 50.1V42.3867C24.3686 41.8527 21.9355 40.3484 20.2139 38.2402L7.83041 45.3897L9.93041 49.027L19.5853 43.4527C20.6138 44.2483 21.7416 44.9218 22.9469 45.4514V50.1H27.1469Z" fill="#008774"/>
<path d="M9.91396 39.337L18.1752 34.5674C17.7679 33.3696 17.5469 32.0856 17.5469 30.75C17.5469 29.3213 17.7998 27.9517 18.2631 26.6834L7.09758 20.2369L4.99758 23.8743L13.4685 28.7649C13.3882 29.4154 13.3469 30.0779 13.3469 30.75C13.3469 31.3255 13.3772 31.8938 13.4363 32.4537L7.81396 35.6997L9.91396 39.337Z" fill="#00AF9F"/>
</svg>
