<svg width="60" height="60" viewBox="0 0 60 60" fill="none" xmlns="http://www.w3.org/2000/svg">
<path d="M16.4062 5.65769C7.34376 5.65769 0 4.39143 0 2.82925V33.3796C0 34.942 7.34376 36.2084 16.4062 36.2084C25.4688 36.2084 32.8124 34.9418 32.8124 33.3796V2.83019C32.8124 4.39237 25.4688 5.65769 16.4062 5.65769Z" fill="#B9CED9"/>
<path d="M0 2.83011V33.3796C0 34.942 7.34376 36.2082 16.4062 36.2082V5.65761C7.34532 5.65761 0 4.39229 0 2.83011Z" fill="#A1BDCC"/>
<path d="M30.5498 4.26449V34.8138C31.9874 34.3936 32.8126 33.9032 32.8126 33.3798V2.83011C32.8126 3.35355 31.9876 3.84511 30.5498 4.26449Z" fill="#A1BDCC"/>
<path d="M16.4062 5.65887C25.4672 5.65887 32.8124 4.39239 32.8124 2.83011C32.8124 1.26785 25.4672 0.00137329 16.4062 0.00137329C7.34532 0.00137329 0 1.26785 0 2.83011C0 4.39239 7.34532 5.65887 16.4062 5.65887Z" fill="#8AADBF"/>
<path d="M0 22.0638C0 23.6264 7.34376 24.8926 16.4062 24.8926C25.4688 24.8926 32.8124 23.6264 32.8124 22.0638V24.327C32.8124 25.8896 25.4688 27.1558 16.4062 27.1558C7.34376 27.1558 0 25.8902 0 24.328V22.0638Z" fill="#789EB2"/>
<path d="M32.8124 11.8818C32.8124 13.4443 25.4688 14.7105 16.4062 14.7105C7.34376 14.7105 0 13.4439 0 11.8818V14.1449C0 15.7074 7.34376 16.9733 16.4062 16.9733C25.4688 16.9733 32.8124 15.7071 32.8124 14.1449V11.8818Z" fill="#789EB2"/>
<path d="M56.25 20.6264H24.375C22.304 20.6264 20.625 22.3054 20.625 24.3764V56.2514C20.625 58.3224 22.304 60.0014 24.375 60.0014H56.25C58.321 60.0014 60 58.3224 60 56.2514V24.3764C60 22.3054 58.321 20.6264 56.25 20.6264Z" fill="#F80000"/>
<path d="M51.4463 33.0044C51.3703 33.1281 51.2781 33.2453 51.1696 33.356C51.0632 33.4645 50.9417 33.5578 50.805 33.6359C50.6596 33.7184 50.512 33.7802 50.3623 33.8215C50.2147 33.8649 50.0444 33.8866 49.8512 33.8866C49.53 33.8866 49.2523 33.841 49.0179 33.7498C48.7857 33.6587 48.5936 33.5361 48.4417 33.382C48.2898 33.2279 48.1759 33.0467 48.0999 32.8384C48.0261 32.6279 47.9892 32.4 47.9892 32.1548C47.9892 31.9334 48.0294 31.7218 48.1097 31.52C48.1921 31.316 48.3082 31.1348 48.458 30.9764C48.6056 30.8223 48.7911 30.6975 49.0146 30.6021C49.2403 30.5066 49.4921 30.4588 49.7698 30.4588C50.0737 30.4588 50.3232 30.4957 50.5185 30.5695C50.7138 30.6433 50.8755 30.7453 51.0036 30.8755C51.1273 30.9992 51.2173 31.1457 51.2737 31.3149C51.3302 31.482 51.3584 31.6578 51.3584 31.8423V32.0539H49.1579C49.1579 32.4988 49.2436 32.8373 49.415 33.0695C49.5865 33.3017 49.8588 33.4178 50.2321 33.4178C50.4361 33.4178 50.6194 33.3625 50.7822 33.2518C50.945 33.1389 51.0839 32.9968 51.1989 32.8254L51.4463 33.0044ZM50.2028 31.7674C50.2028 31.6372 50.1963 31.5037 50.1832 31.367C50.1702 31.2303 50.1474 31.1185 50.1149 31.0317C50.078 30.9297 50.027 30.8527 49.9619 30.8006C49.899 30.7485 49.8187 30.7225 49.721 30.7225C49.5539 30.7225 49.4204 30.8071 49.3206 30.9764C49.2208 31.1457 49.1665 31.4137 49.1579 31.7804L50.2028 31.7674Z" fill="white"/>
<path d="M47.6312 33.7824H45.5901V33.5448C45.6466 33.5404 45.7008 33.535 45.7529 33.5285C45.8072 33.522 45.8549 33.5111 45.8961 33.4959C45.9656 33.4699 46.0122 33.433 46.0361 33.3853C46.0622 33.3353 46.0752 33.2702 46.0752 33.1899V29.5832C46.0752 29.5007 46.0578 29.4248 46.0231 29.3553C45.9905 29.2837 45.946 29.2294 45.8896 29.1926C45.8462 29.1643 45.78 29.1372 45.6911 29.1112C45.6043 29.0851 45.5272 29.0699 45.4599 29.0656V28.828L47.0973 28.7433L47.1461 28.7954V33.1476C47.1461 33.2279 47.1602 33.293 47.1885 33.3429C47.2167 33.3928 47.2622 33.4319 47.3252 33.4601C47.3686 33.4797 47.4141 33.497 47.4619 33.5122C47.5096 33.5274 47.5661 33.5382 47.6312 33.5448V33.7824Z" fill="white"/>
<path d="M43.9658 33.8866C43.6642 33.8866 43.3972 33.8432 43.165 33.7563C42.935 33.6674 42.7451 33.5469 42.5954 33.395C42.4456 33.2409 42.3339 33.0586 42.2601 32.8481C42.1863 32.6376 42.1494 32.4087 42.1494 32.1613C42.1494 31.9356 42.1939 31.7208 42.2829 31.5168C42.374 31.3128 42.4966 31.1337 42.6507 30.9797C42.8091 30.8212 43.0055 30.6954 43.2399 30.6021C43.4764 30.5066 43.7369 30.4588 44.0211 30.4588C44.4204 30.4588 44.7362 30.5348 44.9684 30.6867C45.2006 30.8364 45.3167 31.0393 45.3167 31.2954C45.3167 31.4517 45.2755 31.5775 45.193 31.673C45.1105 31.7685 44.9684 31.8162 44.7666 31.8162C44.6038 31.8162 44.4671 31.7772 44.3564 31.6991C44.2479 31.6209 44.1937 31.5189 44.1937 31.3931C44.1937 31.2867 44.211 31.1815 44.2457 31.0773C44.2805 30.9731 44.3011 30.8939 44.3076 30.8397C44.2837 30.8006 44.2533 30.7713 44.2165 30.7518C44.1796 30.7301 44.1221 30.7192 44.0439 30.7192C43.9463 30.7192 43.8573 30.742 43.777 30.7876C43.6967 30.8332 43.6218 30.9135 43.5524 31.0285C43.4851 31.137 43.4309 31.2824 43.3896 31.4647C43.3506 31.647 43.331 31.8662 43.331 32.1222C43.331 32.5085 43.4211 32.8199 43.6012 33.0565C43.7835 33.293 44.0005 33.4113 44.2523 33.4113C44.4931 33.4113 44.6841 33.3581 44.8252 33.2518C44.9684 33.1433 45.0954 32.9903 45.206 32.7928L45.4502 32.9621C45.3829 33.0945 45.3026 33.216 45.2093 33.3267C45.116 33.4352 45.0042 33.5317 44.874 33.6164C44.7373 33.7053 44.5984 33.7726 44.4573 33.8182C44.3163 33.8638 44.1524 33.8866 43.9658 33.8866Z" fill="white"/>
<path d="M41.8564 33.714C41.7609 33.7553 41.6481 33.7932 41.5179 33.828C41.3877 33.8627 41.2499 33.88 41.1045 33.88C40.8375 33.88 40.6412 33.841 40.5153 33.7629C40.3894 33.6826 40.3037 33.5686 40.2581 33.4211H40.2386C40.1648 33.4948 40.0932 33.5578 40.0237 33.6099C39.9565 33.6619 39.8838 33.7064 39.8056 33.7433C39.7037 33.7911 39.6049 33.8258 39.5094 33.8475C39.4161 33.8714 39.2848 33.8833 39.1155 33.8833C38.8638 33.8833 38.649 33.8095 38.471 33.6619C38.2931 33.5122 38.2041 33.3147 38.2041 33.0695C38.2041 32.9284 38.2236 32.8091 38.2627 32.7114C38.3017 32.6116 38.3571 32.5237 38.4287 32.4478C38.4938 32.3783 38.5687 32.3208 38.6533 32.2752C38.7401 32.2297 38.8345 32.1873 38.9365 32.1483C39.1318 32.0767 39.3662 32.0029 39.6396 31.9269C39.9131 31.8488 40.1127 31.7794 40.2386 31.7186V31.4061C40.2386 31.3518 40.2343 31.2802 40.2256 31.1912C40.2169 31.1023 40.1984 31.0274 40.1702 30.9666C40.1398 30.8972 40.0921 30.8386 40.027 30.7909C39.9619 30.7431 39.8762 30.7192 39.7698 30.7192C39.6744 30.7192 39.5941 30.7333 39.529 30.7616C39.466 30.7876 39.415 30.8147 39.376 30.8429C39.3825 30.8863 39.4009 30.9525 39.4313 31.0415C39.4617 31.1305 39.4769 31.2162 39.4769 31.2987C39.4769 31.3356 39.4671 31.3822 39.4476 31.4386C39.428 31.4929 39.3998 31.5363 39.3629 31.5689C39.313 31.6123 39.2566 31.6459 39.1937 31.6698C39.1329 31.6936 39.0385 31.7056 38.9105 31.7056C38.7282 31.7056 38.5904 31.6622 38.4971 31.5754C38.4037 31.4864 38.3571 31.3714 38.3571 31.2303C38.3571 31.1088 38.4048 31.0003 38.5003 30.9048C38.598 30.8071 38.7162 30.7268 38.8551 30.6639C38.9918 30.5988 39.1492 30.5489 39.3271 30.5142C39.5051 30.4773 39.67 30.4588 39.8219 30.4588C40.0324 30.4588 40.2256 30.4718 40.4014 30.4979C40.5771 30.5218 40.7356 30.5728 40.8766 30.6509C41.0112 30.7268 41.1175 30.8375 41.1956 30.9829C41.2759 31.1261 41.3161 31.3139 41.3161 31.5461C41.3161 31.7913 41.3106 32.0821 41.2998 32.4185C41.2911 32.7548 41.2868 32.9762 41.2868 33.0825C41.2868 33.1802 41.3009 33.2572 41.3291 33.3136C41.3595 33.3701 41.405 33.4124 41.4658 33.4406C41.5027 33.458 41.5602 33.4688 41.6383 33.4731C41.7186 33.4753 41.7913 33.4764 41.8564 33.4764V33.714ZM40.2386 32.0181C40.1171 32.0593 39.9966 32.107 39.8773 32.1613C39.7579 32.2134 39.6602 32.2687 39.5843 32.3273C39.504 32.3881 39.4411 32.4662 39.3955 32.5617C39.3499 32.655 39.3271 32.7657 39.3271 32.8937C39.3271 33.063 39.3651 33.1856 39.4411 33.2616C39.5192 33.3375 39.6147 33.3755 39.7275 33.3755C39.8469 33.3755 39.9445 33.3516 40.0205 33.3039C40.0986 33.254 40.167 33.1932 40.2256 33.1216L40.2386 32.0181Z" fill="white"/>
<path d="M37.9079 31.1489C37.9079 31.3139 37.8569 31.4593 37.7549 31.5851C37.6529 31.7088 37.5183 31.7707 37.3512 31.7707C37.1928 31.7707 37.0583 31.7305 36.9476 31.6502C36.8391 31.5699 36.7848 31.4517 36.7848 31.2954C36.7848 31.2195 36.7902 31.1609 36.8011 31.1196C36.8119 31.0762 36.8217 31.0361 36.8304 30.9992C36.7306 31.0035 36.6253 31.0383 36.5146 31.1034C36.404 31.1685 36.3063 31.2553 36.2217 31.3638V33.1509C36.2217 33.2268 36.2336 33.2898 36.2575 33.3397C36.2813 33.3896 36.3215 33.4287 36.3779 33.4569C36.4257 33.4807 36.5027 33.5014 36.609 33.5187C36.7175 33.5339 36.7957 33.5426 36.8434 33.5448V33.7824H34.6657V33.5448C34.7199 33.5404 34.7742 33.535 34.8284 33.5285C34.8849 33.5198 34.9326 33.509 34.9717 33.4959C35.0411 33.4721 35.0889 33.4352 35.1149 33.3853C35.1409 33.3353 35.154 33.2702 35.154 33.1899V31.2954C35.154 31.2173 35.1355 31.1478 35.0986 31.0871C35.0617 31.0241 35.0172 30.9742 34.9652 30.9373C34.9261 30.9113 34.8762 30.8896 34.8154 30.8722C34.7568 30.8549 34.6917 30.8429 34.6201 30.8364V30.5988L36.1728 30.5142L36.2217 30.563V31.035H36.2347C36.3844 30.8614 36.5428 30.7258 36.7099 30.6281C36.8792 30.5283 37.055 30.4784 37.2373 30.4784C37.4391 30.4784 37.6008 30.5413 37.7223 30.6672C37.846 30.7909 37.9079 30.9514 37.9079 31.1489Z" fill="white"/>
<path d="M33.5003 29.6776C33.7282 29.8859 33.9083 30.1376 34.0407 30.4328C34.1752 30.7279 34.2425 31.0643 34.2425 31.4419C34.2425 31.7783 34.1861 32.0984 34.0732 32.4022C33.9604 32.706 33.7976 32.9675 33.585 33.1867C33.3614 33.4146 33.0988 33.5925 32.7972 33.7205C32.4955 33.8464 32.1364 33.9093 31.7197 33.9093C31.3833 33.9093 31.0654 33.854 30.7659 33.7433C30.4665 33.6327 30.2028 33.4721 29.9749 33.2616C29.7492 33.0554 29.5702 32.8047 29.4378 32.5096C29.3054 32.2145 29.2393 31.8857 29.2393 31.5233C29.2393 31.1457 29.3033 30.8039 29.4313 30.4979C29.5615 30.1897 29.7395 29.9261 29.9652 29.7069C30.1887 29.492 30.4534 29.3271 30.7594 29.2121C31.0676 29.0949 31.3953 29.0363 31.7425 29.0363C32.0876 29.0363 32.4109 29.0927 32.7126 29.2056C33.0164 29.3184 33.279 29.4758 33.5003 29.6776ZM32.6637 32.9816C32.7614 32.7841 32.8319 32.5606 32.8753 32.311C32.9187 32.0615 32.9404 31.7794 32.9404 31.4647C32.9404 31.1978 32.9209 30.9384 32.8818 30.6867C32.8449 30.4328 32.7809 30.2071 32.6898 30.0096C32.5965 29.8121 32.4728 29.6537 32.3187 29.5343C32.1646 29.415 31.9725 29.3553 31.7425 29.3553C31.3497 29.3553 31.0513 29.5419 30.8473 29.9152C30.6433 30.2863 30.5413 30.8115 30.5413 31.4907C30.5413 31.7794 30.563 32.0517 30.6064 32.3078C30.652 32.5639 30.7225 32.7874 30.818 32.9784C30.9157 33.1715 31.0394 33.3223 31.1891 33.4308C31.3389 33.5372 31.5233 33.5903 31.7425 33.5903C31.9573 33.5903 32.1418 33.5361 32.2959 33.4276C32.45 33.3191 32.5726 33.1704 32.6637 32.9816Z" fill="white"/>
<path d="M55.9938 41.3377C55.9178 41.4614 55.8256 41.5786 55.7171 41.6893C55.6108 41.7978 55.4892 41.8911 55.3525 41.9692C55.2071 42.0517 55.0595 42.1135 54.9098 42.1548C54.7622 42.1982 54.5919 42.2199 54.3987 42.2199C54.0776 42.2199 53.7998 42.1743 53.5654 42.0832C53.3332 41.992 53.1411 41.8694 52.9892 41.7153C52.8373 41.5612 52.7234 41.38 52.6474 41.1717C52.5736 40.9612 52.5368 40.7333 52.5368 40.4881C52.5368 40.2668 52.5769 40.0552 52.6572 39.8533C52.7397 39.6494 52.8558 39.4681 53.0055 39.3097C53.1531 39.1556 53.3386 39.0309 53.5621 38.9354C53.7878 38.8399 54.0396 38.7921 54.3174 38.7921C54.6212 38.7921 54.8707 38.829 55.066 38.9028C55.2614 38.9766 55.423 39.0786 55.5511 39.2088C55.6748 39.3325 55.7648 39.479 55.8213 39.6483C55.8777 39.8154 55.9059 39.9911 55.9059 40.1756V40.3872H53.7054C53.7054 40.8321 53.7911 41.1706 53.9625 41.4028C54.134 41.635 54.4063 41.7511 54.7796 41.7511C54.9836 41.7511 55.167 41.6958 55.3297 41.5851C55.4925 41.4723 55.6314 41.3301 55.7464 41.1587L55.9938 41.3377ZM54.7503 40.1007C54.7503 39.9705 54.7438 39.8371 54.7308 39.7004C54.7177 39.5636 54.695 39.4519 54.6624 39.3651C54.6255 39.2631 54.5745 39.186 54.5094 39.1339C54.4465 39.0819 54.3662 39.0558 54.2685 39.0558C54.1014 39.0558 53.968 39.1405 53.8681 39.3097C53.7683 39.479 53.7141 39.747 53.7054 40.1138L54.7503 40.1007Z" fill="white"/>
<path d="M50.5836 42.2264C50.3731 42.2264 50.167 42.1949 49.9651 42.132C49.7655 42.0712 49.6103 42.0061 49.4996 41.9367L49.402 42.158H49.1481L49.1058 40.9438H49.3434C49.376 41.0415 49.4302 41.1522 49.5062 41.2759C49.5821 41.3974 49.6689 41.507 49.7666 41.6046C49.8686 41.7023 49.9847 41.7848 50.1149 41.852C50.2473 41.9193 50.3883 41.953 50.5381 41.953C50.7355 41.953 50.882 41.915 50.9775 41.839C51.0752 41.7609 51.124 41.6415 51.124 41.4809C51.124 41.3941 51.1023 41.3225 51.0589 41.2661C51.0155 41.2097 50.9558 41.1609 50.8799 41.1196C50.7952 41.0762 50.7019 41.0393 50.5999 41.0089C50.5001 40.9786 50.3764 40.9417 50.2288 40.8983C50.0812 40.8549 49.9543 40.8115 49.848 40.7681C49.7438 40.7225 49.6353 40.652 49.5224 40.5565C49.4248 40.4718 49.3467 40.3698 49.2881 40.2505C49.2295 40.1311 49.2002 39.989 49.2002 39.824C49.2002 39.5181 49.3282 39.2707 49.5843 39.0819C49.8425 38.8931 50.18 38.7987 50.5967 38.7987C50.7941 38.7987 50.9753 38.8193 51.1403 38.8605C51.3074 38.8996 51.4473 38.943 51.5602 38.9907L51.6286 38.7987H51.8759L51.928 39.9087H51.6969C51.621 39.683 51.4907 39.4888 51.3063 39.326C51.1218 39.1611 50.9233 39.0786 50.7106 39.0786C50.5435 39.0786 50.4122 39.1133 50.3167 39.1828C50.2212 39.2522 50.1735 39.3488 50.1735 39.4725C50.1735 39.6374 50.2429 39.7568 50.3818 39.8306C50.5229 39.9043 50.7193 39.9738 50.971 40.0389C51.3595 40.1387 51.6437 40.2754 51.8239 40.449C52.004 40.6205 52.094 40.8397 52.094 41.1066C52.094 41.4625 51.9541 41.7381 51.6741 41.9334C51.3963 42.1287 51.0329 42.2264 50.5836 42.2264Z" fill="white"/>
<path d="M48.8258 42.0474C48.7303 42.0886 48.6175 42.1266 48.4873 42.1613C48.3571 42.196 48.2193 42.2134 48.0739 42.2134C47.8069 42.2134 47.6105 42.1743 47.4847 42.0962C47.3588 42.0159 47.2731 41.902 47.2275 41.7544H47.208C47.1342 41.8282 47.0626 41.8911 46.9931 41.9432C46.9259 41.9953 46.8532 42.0398 46.775 42.0767C46.673 42.1244 46.5743 42.1591 46.4788 42.1808C46.3855 42.2047 46.2542 42.2166 46.0849 42.2166C45.8332 42.2166 45.6184 42.1428 45.4404 41.9953C45.2625 41.8455 45.1735 41.6481 45.1735 41.4028C45.1735 41.2618 45.193 41.1424 45.2321 41.0448C45.2711 40.9449 45.3265 40.857 45.3981 40.7811C45.4632 40.7116 45.5381 40.6541 45.6227 40.6086C45.7095 40.563 45.8039 40.5207 45.9059 40.4816C46.1012 40.41 46.3356 40.3362 46.609 40.2602C46.8825 40.1821 47.0821 40.1127 47.208 40.0519V39.7394C47.208 39.6852 47.2036 39.6135 47.195 39.5246C47.1863 39.4356 47.1678 39.3607 47.1396 39.3C47.1092 39.2305 47.0615 39.1719 46.9964 39.1242C46.9313 39.0764 46.8456 39.0526 46.7392 39.0526C46.6437 39.0526 46.5635 39.0667 46.4983 39.0949C46.4354 39.1209 46.3844 39.1481 46.3454 39.1763C46.3519 39.2197 46.3703 39.2859 46.4007 39.3748C46.4311 39.4638 46.4463 39.5495 46.4463 39.632C46.4463 39.6689 46.4365 39.7155 46.417 39.772C46.3974 39.8262 46.3692 39.8696 46.3323 39.9022C46.2824 39.9456 46.226 39.9792 46.1631 40.0031C46.1023 40.027 46.0079 40.0389 45.8799 40.0389C45.6976 40.0389 45.5598 39.9955 45.4664 39.9087C45.3731 39.8197 45.3265 39.7047 45.3265 39.5636C45.3265 39.4421 45.3742 39.3336 45.4697 39.2381C45.5674 39.1405 45.6856 39.0602 45.8245 38.9972C45.9612 38.9321 46.1186 38.8822 46.2965 38.8475C46.4745 38.8106 46.6394 38.7921 46.7913 38.7921C47.0018 38.7921 47.195 38.8052 47.3707 38.8312C47.5465 38.8551 47.7049 38.9061 47.846 38.9842C47.9806 39.0602 48.0869 39.1708 48.165 39.3162C48.2453 39.4595 48.2855 39.6472 48.2855 39.8794C48.2855 40.1246 48.28 40.4154 48.2692 40.7518C48.2605 41.0882 48.2562 41.3095 48.2562 41.4158C48.2562 41.5135 48.2703 41.5905 48.2985 41.647C48.3289 41.7034 48.3744 41.7457 48.4352 41.7739C48.4721 41.7913 48.5296 41.8021 48.6077 41.8065C48.688 41.8086 48.7607 41.8097 48.8258 41.8097V42.0474ZM47.208 40.3514C47.0865 40.3926 46.966 40.4404 46.8467 40.4946C46.7273 40.5467 46.6296 40.602 46.5537 40.6606C46.4734 40.7214 46.4105 40.7995 46.3649 40.895C46.3193 40.9883 46.2965 41.099 46.2965 41.227C46.2965 41.3963 46.3345 41.5189 46.4105 41.5949C46.4886 41.6708 46.5841 41.7088 46.6969 41.7088C46.8163 41.7088 46.9139 41.6849 46.9899 41.6372C47.068 41.5873 47.1364 41.5265 47.195 41.4549L47.208 40.3514Z" fill="white"/>
<path d="M44.6852 40.5239C44.6852 41.0122 44.5235 41.4169 44.2002 41.7381C43.879 42.0593 43.471 42.2199 42.9762 42.2199C42.7852 42.2199 42.6203 42.2058 42.4814 42.1776C42.3447 42.1515 42.2286 42.119 42.1331 42.0799C42.0333 42.0387 41.953 41.9985 41.8922 41.9595C41.8336 41.9182 41.787 41.8846 41.7523 41.8586L41.2868 42.2817L41.0947 42.2069C41.1056 42.0484 41.1142 41.877 41.1208 41.6925C41.1294 41.5059 41.1338 41.2553 41.1338 40.9406V37.8937C41.1338 37.8112 41.1164 37.7353 41.0817 37.6658C41.0491 37.5942 41.0047 37.54 40.9482 37.5031C40.907 37.477 40.8462 37.4543 40.7659 37.4347C40.6878 37.4152 40.6151 37.4033 40.5478 37.3989V37.1613L42.1559 37.0767L42.2047 37.1287V39.2446H42.2243C42.3827 39.0905 42.5454 38.9777 42.7125 38.9061C42.8796 38.8345 43.0467 38.7987 43.2138 38.7987C43.6696 38.7987 44.0287 38.9538 44.2913 39.2642C44.5539 39.5745 44.6852 39.9944 44.6852 40.5239ZM43.5166 40.563C43.5166 40.398 43.5036 40.2396 43.4775 40.0877C43.4536 39.9336 43.4124 39.798 43.3538 39.6808C43.2952 39.5636 43.2182 39.4703 43.1227 39.4009C43.0272 39.3293 42.9089 39.2934 42.7679 39.2934C42.6355 39.2934 42.5259 39.3152 42.4391 39.3586C42.3523 39.402 42.2742 39.466 42.2047 39.5506V41.4451C42.2178 41.4885 42.2416 41.5461 42.2764 41.6177C42.3132 41.6871 42.3501 41.7414 42.387 41.7804C42.4391 41.8368 42.4944 41.8803 42.553 41.9106C42.6116 41.9388 42.6941 41.953 42.8004 41.953C43.0218 41.953 43.1965 41.8325 43.3245 41.5916C43.4526 41.3486 43.5166 41.0057 43.5166 40.563Z" fill="white"/>
<path d="M40.5511 42.0474C40.4556 42.0886 40.3428 42.1266 40.2126 42.1613C40.0823 42.196 39.9445 42.2134 39.7991 42.2134C39.5322 42.2134 39.3358 42.1743 39.2099 42.0962C39.0841 42.0159 38.9984 41.902 38.9528 41.7544H38.9333C38.8595 41.8282 38.7879 41.8911 38.7184 41.9432C38.6511 41.9953 38.5784 42.0398 38.5003 42.0767C38.3983 42.1244 38.2996 42.1591 38.2041 42.1808C38.1108 42.2047 37.9795 42.2166 37.8102 42.2166C37.5585 42.2166 37.3436 42.1428 37.1657 41.9953C36.9877 41.8455 36.8988 41.6481 36.8988 41.4028C36.8988 41.2618 36.9183 41.1424 36.9573 41.0448C36.9964 40.9449 37.0517 40.857 37.1234 40.7811C37.1885 40.7116 37.2633 40.6541 37.348 40.6086C37.4348 40.563 37.5292 40.5207 37.6312 40.4816C37.8265 40.41 38.0609 40.3362 38.3343 40.2602C38.6077 40.1821 38.8074 40.1127 38.9333 40.0519V39.7394C38.9333 39.6852 38.9289 39.6135 38.9202 39.5246C38.9116 39.4356 38.8931 39.3607 38.8649 39.3C38.8345 39.2305 38.7868 39.1719 38.7217 39.1242C38.6566 39.0764 38.5708 39.0526 38.4645 39.0526C38.369 39.0526 38.2887 39.0667 38.2236 39.0949C38.1607 39.1209 38.1097 39.1481 38.0706 39.1763C38.0771 39.2197 38.0956 39.2859 38.126 39.3748C38.1563 39.4638 38.1715 39.5495 38.1715 39.632C38.1715 39.6689 38.1618 39.7155 38.1422 39.772C38.1227 39.8262 38.0945 39.8696 38.0576 39.9022C38.0077 39.9456 37.9513 39.9792 37.8883 40.0031C37.8276 40.027 37.7332 40.0389 37.6051 40.0389C37.4228 40.0389 37.285 39.9955 37.1917 39.9087C37.0984 39.8197 37.0517 39.7047 37.0517 39.5636C37.0517 39.4421 37.0995 39.3336 37.195 39.2381C37.2926 39.1405 37.4109 39.0602 37.5498 38.9972C37.6865 38.9321 37.8438 38.8822 38.0218 38.8475C38.1997 38.8106 38.3647 38.7921 38.5166 38.7921C38.7271 38.7921 38.9202 38.8052 39.096 38.8312C39.2718 38.8551 39.4302 38.9061 39.5713 38.9842C39.7058 39.0602 39.8122 39.1708 39.8903 39.3162C39.9706 39.4595 40.0107 39.6472 40.0107 39.8794C40.0107 40.1246 40.0053 40.4154 39.9945 40.7518C39.9858 41.0882 39.9814 41.3095 39.9814 41.4158C39.9814 41.5135 39.9955 41.5905 40.0237 41.647C40.0541 41.7034 40.0997 41.7457 40.1605 41.7739C40.1974 41.7913 40.2549 41.8021 40.333 41.8065C40.4133 41.8086 40.486 41.8097 40.5511 41.8097V42.0474ZM38.9333 40.3514C38.8117 40.3926 38.6913 40.4404 38.5719 40.4946C38.4526 40.5467 38.3549 40.602 38.279 40.6606C38.1987 40.7214 38.1357 40.7995 38.0902 40.895C38.0446 40.9883 38.0218 41.099 38.0218 41.227C38.0218 41.3963 38.0598 41.5189 38.1357 41.5949C38.2139 41.6708 38.3093 41.7088 38.4222 41.7088C38.5415 41.7088 38.6392 41.6849 38.7152 41.6372C38.7933 41.5873 38.8616 41.5265 38.9202 41.4549L38.9333 40.3514Z" fill="white"/>
<path d="M36.6025 41.966C36.4636 42.0267 36.315 42.081 36.1566 42.1287C35.9981 42.1786 35.805 42.2036 35.5771 42.2036C35.2386 42.2036 34.9869 42.1211 34.8219 41.9562C34.6592 41.7913 34.5778 41.5558 34.5778 41.2498V39.2511H33.9919V38.8996H34.5908V37.9132H35.6488V38.8996H36.5602V39.2511H35.6553V41.035C35.6553 41.2889 35.69 41.469 35.7594 41.5754C35.831 41.6817 35.958 41.7349 36.1403 41.7349C36.1989 41.7349 36.2803 41.7305 36.3844 41.7218C36.4886 41.7132 36.5613 41.7034 36.6025 41.6925V41.966Z" fill="white"/>
<path d="M33.93 42.0474C33.8345 42.0886 33.7217 42.1266 33.5915 42.1613C33.4613 42.196 33.3235 42.2134 33.1781 42.2134C32.9111 42.2134 32.7147 42.1743 32.5889 42.0962C32.463 42.0159 32.3773 41.902 32.3317 41.7544H32.3122C32.2384 41.8282 32.1668 41.8911 32.0973 41.9432C32.03 41.9953 31.9573 42.0398 31.8792 42.0767C31.7772 42.1244 31.6785 42.1591 31.583 42.1808C31.4897 42.2047 31.3584 42.2166 31.1891 42.2166C30.9374 42.2166 30.7225 42.1428 30.5446 41.9953C30.3666 41.8455 30.2777 41.6481 30.2777 41.4028C30.2777 41.2618 30.2972 41.1424 30.3363 41.0448C30.3753 40.9449 30.4307 40.857 30.5023 40.7811C30.5674 40.7116 30.6422 40.6541 30.7269 40.6086C30.8137 40.563 30.9081 40.5207 31.0101 40.4816C31.2054 40.41 31.4398 40.3362 31.7132 40.2602C31.9866 40.1821 32.1863 40.1127 32.3122 40.0519V39.7394C32.3122 39.6852 32.3078 39.6135 32.2991 39.5246C32.2905 39.4356 32.272 39.3607 32.2438 39.3C32.2134 39.2305 32.1657 39.1719 32.1006 39.1242C32.0355 39.0764 31.9498 39.0526 31.8434 39.0526C31.7479 39.0526 31.6676 39.0667 31.6025 39.0949C31.5396 39.1209 31.4886 39.1481 31.4495 39.1763C31.456 39.2197 31.4745 39.2859 31.5049 39.3748C31.5353 39.4638 31.5504 39.5495 31.5504 39.632C31.5504 39.6689 31.5407 39.7155 31.5212 39.772C31.5016 39.8262 31.4734 39.8696 31.4365 39.9022C31.3866 39.9456 31.3302 39.9792 31.2672 40.0031C31.2065 40.027 31.1121 40.0389 30.984 40.0389C30.8018 40.0389 30.6639 39.9955 30.5706 39.9087C30.4773 39.8197 30.4307 39.7047 30.4307 39.5636C30.4307 39.4421 30.4784 39.3336 30.5739 39.2381C30.6715 39.1405 30.7898 39.0602 30.9287 38.9972C31.0654 38.9321 31.2228 38.8822 31.4007 38.8475C31.5787 38.8106 31.7436 38.7921 31.8955 38.7921C32.106 38.7921 32.2991 38.8052 32.4749 38.8312C32.6507 38.8551 32.8091 38.9061 32.9502 38.9842C33.0847 39.0602 33.1911 39.1708 33.2692 39.3162C33.3495 39.4595 33.3896 39.6472 33.3896 39.8794C33.3896 40.1246 33.3842 40.4154 33.3734 40.7518C33.3647 41.0882 33.3603 41.3095 33.3603 41.4158C33.3603 41.5135 33.3744 41.5905 33.4027 41.647C33.433 41.7034 33.4786 41.7457 33.5394 41.7739C33.5763 41.7913 33.6338 41.8021 33.7119 41.8065C33.7922 41.8086 33.8649 41.8097 33.93 41.8097V42.0474ZM32.3122 40.3514C32.1906 40.3926 32.0702 40.4404 31.9508 40.4946C31.8315 40.5467 31.7338 40.602 31.6579 40.6606C31.5776 40.7214 31.5146 40.7995 31.4691 40.895C31.4235 40.9883 31.4007 41.099 31.4007 41.227C31.4007 41.3963 31.4387 41.5189 31.5146 41.5949C31.5928 41.6708 31.6883 41.7088 31.8011 41.7088C31.9205 41.7088 32.0181 41.6849 32.0941 41.6372C32.1722 41.5873 32.2406 41.5265 32.2991 41.4549L32.3122 40.3514Z" fill="white"/>
<path d="M28.8454 37.9718C29.1275 38.1563 29.3554 38.4026 29.529 38.7108C29.7026 39.0168 29.7894 39.3922 29.7894 39.8371C29.7894 40.2277 29.7113 40.5684 29.555 40.8592C29.4009 41.1478 29.1959 41.3844 28.9398 41.5688C28.6794 41.7533 28.3831 41.8911 28.0511 41.9823C27.7212 42.0712 27.3751 42.1157 27.0127 42.1157H24.6852V41.8618C24.7547 41.8596 24.8415 41.8531 24.9456 41.8423C25.0498 41.8314 25.1192 41.8184 25.154 41.8032C25.2321 41.7707 25.2863 41.7273 25.3167 41.673C25.3471 41.6166 25.3623 41.5493 25.3623 41.4712V38.1964C25.3623 38.1227 25.3482 38.0565 25.32 37.9979C25.2918 37.9371 25.2364 37.8883 25.154 37.8514C25.0715 37.8145 24.9836 37.7895 24.8903 37.7765C24.7992 37.7635 24.7286 37.7548 24.6787 37.7505V37.4966H27.1364C27.399 37.4966 27.68 37.5302 27.9795 37.5975C28.279 37.6648 28.5676 37.7895 28.8454 37.9718ZM28.1813 41.2824C28.2876 41.1088 28.3647 40.9026 28.4124 40.6639C28.4623 40.423 28.4873 40.1463 28.4873 39.8338C28.4873 39.5278 28.4547 39.249 28.3896 38.9972C28.3245 38.7455 28.2291 38.5306 28.1032 38.3527C27.9773 38.1747 27.82 38.0369 27.6312 37.9393C27.4446 37.8416 27.2319 37.7928 26.9932 37.7928C26.9172 37.7928 26.8304 37.795 26.7327 37.7993C26.6373 37.8015 26.5656 37.8037 26.5179 37.8058V41.3117C26.5179 41.3898 26.5277 41.4592 26.5472 41.52C26.5689 41.5786 26.6047 41.6307 26.6546 41.6763C26.7045 41.7218 26.7653 41.7576 26.8369 41.7837C26.9107 41.8076 27.0062 41.8195 27.1234 41.8195C27.3686 41.8195 27.5791 41.7739 27.7549 41.6828C27.9307 41.5916 28.0728 41.4582 28.1813 41.2824Z" fill="white"/>
<path d="M47.9534 49.671C47.8775 49.7947 47.7852 49.9119 47.6767 50.0226C47.5704 50.1311 47.4489 50.2244 47.3122 50.3026C47.1668 50.385 47.0192 50.4469 46.8694 50.4881C46.7219 50.5315 46.5515 50.5532 46.3584 50.5532C46.0372 50.5532 45.7594 50.5076 45.525 50.4165C45.2928 50.3253 45.1008 50.2027 44.9489 50.0486C44.797 49.8946 44.683 49.7134 44.6071 49.505C44.5333 49.2945 44.4964 49.0667 44.4964 48.8214C44.4964 48.6001 44.5365 48.3885 44.6168 48.1867C44.6993 47.9827 44.8154 47.8015 44.9651 47.6431C45.1127 47.489 45.2983 47.3642 45.5218 47.2687C45.7475 47.1732 45.9992 47.1255 46.277 47.1255C46.5808 47.1255 46.8304 47.1624 47.0257 47.2362C47.221 47.3099 47.3827 47.4119 47.5107 47.5421C47.6344 47.6658 47.7245 47.8123 47.7809 47.9816C47.8373 48.1487 47.8655 48.3245 47.8655 48.5089V48.7205H45.665C45.665 49.1654 45.7507 49.5039 45.9222 49.7361C46.0936 49.9684 46.366 50.0845 46.7392 50.0845C46.9432 50.0845 47.1266 50.0291 47.2894 49.9184C47.4521 49.8056 47.591 49.6634 47.706 49.492L47.9534 49.671ZM46.7099 48.4341C46.7099 48.3039 46.7034 48.1704 46.6904 48.0337C46.6774 47.897 46.6546 47.7852 46.622 47.6984C46.5852 47.5964 46.5342 47.5194 46.4691 47.4673C46.4061 47.4152 46.3258 47.3891 46.2282 47.3891C46.0611 47.3891 45.9276 47.4738 45.8278 47.6431C45.728 47.8123 45.6737 48.0803 45.665 48.4471L46.7099 48.4341Z" fill="white"/>
<path d="M44.1383 49.671C44.0624 49.7947 43.9701 49.9119 43.8616 50.0226C43.7553 50.1311 43.6338 50.2244 43.4971 50.3026C43.3517 50.385 43.2041 50.4469 43.0543 50.4881C42.9068 50.5315 42.7364 50.5532 42.5433 50.5532C42.2221 50.5532 41.9443 50.5076 41.7099 50.4165C41.4777 50.3253 41.2857 50.2027 41.1338 50.0486C40.9819 49.8946 40.8679 49.7134 40.792 49.505C40.7182 49.2945 40.6813 49.0667 40.6813 48.8214C40.6813 48.6001 40.7214 48.3885 40.8017 48.1867C40.8842 47.9827 41.0003 47.8015 41.15 47.6431C41.2976 47.489 41.4832 47.3642 41.7067 47.2687C41.9324 47.1732 42.1841 47.1255 42.4619 47.1255C42.7657 47.1255 43.0153 47.1624 43.2106 47.2362C43.4059 47.3099 43.5676 47.4119 43.6956 47.5421C43.8193 47.6658 43.9094 47.8123 43.9658 47.9816C44.0222 48.1487 44.0504 48.3245 44.0504 48.5089V48.7205H41.8499C41.8499 49.1654 41.9356 49.5039 42.1071 49.7361C42.2785 49.9684 42.5509 50.0845 42.9241 50.0845C43.1281 50.0845 43.3115 50.0291 43.4743 49.9184C43.637 49.8056 43.7759 49.6634 43.8909 49.492L44.1383 49.671ZM42.8948 48.4341C42.8948 48.3039 42.8883 48.1704 42.8753 48.0337C42.8623 47.897 42.8395 47.7852 42.8069 47.6984C42.7701 47.5964 42.7191 47.5194 42.654 47.4673C42.591 47.4152 42.5107 47.3891 42.4131 47.3891C42.246 47.3891 42.1125 47.4738 42.0127 47.6431C41.9128 47.8123 41.8586 48.0803 41.8499 48.4471L42.8948 48.4341Z" fill="white"/>
<path d="M40.4111 47.8156C40.4111 47.9805 40.3601 48.1259 40.2581 48.2518C40.1561 48.3755 40.0216 48.4373 39.8545 48.4373C39.6961 48.4373 39.5615 48.3972 39.4508 48.3169C39.3423 48.2366 39.2881 48.1183 39.2881 47.9621C39.2881 47.8861 39.2935 47.8275 39.3043 47.7863C39.3152 47.7429 39.325 47.7027 39.3336 47.6658C39.2338 47.6702 39.1286 47.7049 39.0179 47.77C38.9072 47.8351 38.8096 47.9219 38.7249 48.0304V49.8175C38.7249 49.8935 38.7369 49.9564 38.7607 50.0063C38.7846 50.0562 38.8247 50.0953 38.8812 50.1235C38.9289 50.1474 39.006 50.168 39.1123 50.1854C39.2208 50.2006 39.2989 50.2092 39.3467 50.2114V50.449H37.1689V50.2114C37.2232 50.2071 37.2774 50.2016 37.3317 50.1951C37.3881 50.1865 37.4359 50.1756 37.4749 50.1626C37.5444 50.1387 37.5921 50.1018 37.6182 50.0519C37.6442 50.002 37.6572 49.9369 37.6572 49.8566V47.9621C37.6572 47.8839 37.6388 47.8145 37.6019 47.7537C37.565 47.6908 37.5205 47.6409 37.4684 47.604C37.4293 47.5779 37.3794 47.5562 37.3187 47.5389C37.2601 47.5215 37.195 47.5096 37.1234 47.5031V47.2654L38.6761 47.1808L38.7249 47.2296V47.7016H38.7379C38.8877 47.528 39.0461 47.3924 39.2132 47.2947C39.3825 47.1949 39.5583 47.145 39.7405 47.145C39.9424 47.145 40.104 47.2079 40.2256 47.3338C40.3493 47.4575 40.4111 47.6181 40.4111 47.8156Z" fill="white"/>
<path d="M36.876 47.0636H36.6253C36.5624 46.8835 36.4506 46.6925 36.29 46.4907C36.1316 46.2867 35.9808 46.175 35.8376 46.1554C35.7725 46.1467 35.6856 46.1391 35.5771 46.1326C35.4686 46.1261 35.3688 46.1229 35.2777 46.1229H34.5583V47.936H35.0172C35.1475 47.936 35.2603 47.9219 35.3558 47.8937C35.4513 47.8633 35.5359 47.8102 35.6097 47.7342C35.6639 47.6799 35.716 47.5899 35.7659 47.464C35.818 47.336 35.8495 47.2264 35.8603 47.1352H36.1077V49.0786H35.8603C35.8517 48.9809 35.818 48.8627 35.7594 48.7238C35.7008 48.5827 35.6509 48.4894 35.6097 48.4438C35.5468 48.3744 35.4665 48.3234 35.3688 48.2908C35.2711 48.2561 35.154 48.2388 35.0172 48.2388H34.5583V49.7687C34.5583 49.8468 34.5724 49.9141 34.6006 49.9705C34.631 50.0248 34.6874 50.0693 34.7698 50.104C34.8176 50.1235 34.8827 50.142 34.9652 50.1593C35.0498 50.1745 35.1333 50.1865 35.2158 50.1951V50.449H32.7256V50.1951C32.7885 50.1886 32.8721 50.1799 32.9762 50.1691C33.0804 50.1561 33.1531 50.1409 33.1943 50.1235C33.2725 50.0931 33.3267 50.0508 33.3571 49.9966C33.3875 49.9423 33.4027 49.8729 33.4027 49.7882V46.5298C33.4027 46.456 33.3886 46.392 33.3603 46.3377C33.3343 46.2813 33.279 46.2346 33.1943 46.1977C33.1336 46.1717 33.0533 46.1478 32.9534 46.1261C32.8536 46.1044 32.7777 46.0903 32.7256 46.0838V45.8299H36.876V47.0636Z" fill="white"/>
</svg>
