<svg width="60" height="60" viewBox="0 0 60 60" fill="none" xmlns="http://www.w3.org/2000/svg">
<path d="M53.6413 5.43475H6.34965C4.66714 5.43968 3.05495 6.11024 1.86522 7.29995C0.6755 8.48967 0.00493491 10.1019 0 11.7844L0 48.2156C0.00493491 49.8981 0.6755 51.5103 1.86522 52.7C3.05495 53.8897 4.66714 54.5603 6.34965 54.5652H53.6413C55.3238 54.5603 56.936 53.8897 58.1257 52.7C59.3154 51.5103 59.986 49.8981 59.9909 48.2156V11.7844C59.986 10.1019 59.3154 8.48967 58.1257 7.29995C56.936 6.11024 55.3238 5.43968 53.6413 5.43475V5.43475ZM25.3492 41.1615L13.8078 47.8686C13.4571 48.0724 13.0698 48.2051 12.6679 48.2592C12.2659 48.3132 11.8573 48.2876 11.4653 48.1838C10.6735 47.974 9.99756 47.4583 9.58603 46.7502C9.17451 46.042 9.06115 45.1994 9.2709 44.4077C9.48065 43.6159 9.99632 42.94 10.7045 42.5284L22.2458 35.8213C22.5965 35.6172 22.984 35.4841 23.3861 35.4298C23.7882 35.3754 24.1971 35.4008 24.5893 35.5046C24.9816 35.6083 25.3496 35.7884 25.6723 36.0344C25.9949 36.2804 26.2659 36.5876 26.4698 36.9385C26.6737 37.2893 26.8064 37.6769 26.8604 38.079C26.9144 38.4812 26.8887 38.89 26.7846 39.2822C26.6805 39.6744 26.5002 40.0422 26.2539 40.3647C26.0076 40.6872 25.7002 40.9579 25.3492 41.1615ZM29.8895 30.9429H29.8757C29.4701 30.9411 29.0689 30.8595 28.6949 30.7027C28.3209 30.5458 27.9814 30.3169 27.6959 30.0289C27.4104 29.7408 27.1844 29.3994 27.0309 29.0241C26.8773 28.6487 26.7992 28.2468 26.801 27.8412L26.8589 14.5454C26.8625 13.7287 27.1894 12.9467 27.7681 12.3705C28.3468 11.7943 29.1302 11.4707 29.9468 11.4706H29.9607C30.7797 11.4741 31.5638 11.8029 32.1404 12.3846C32.717 12.9663 33.0389 13.7532 33.0354 14.5722L32.9775 27.8681C32.9739 28.6847 32.6469 29.4667 32.0682 30.0429C31.4896 30.6192 30.7062 30.9427 29.8895 30.9429ZM50.3105 46.7414C50.1078 47.0928 49.8379 47.4007 49.5162 47.6477C49.1945 47.8947 48.8272 48.0759 48.4354 48.1808C48.0437 48.2858 47.635 48.3125 47.2329 48.2595C46.8308 48.2065 46.4431 48.0747 46.0919 47.8718L34.5336 41.1986C34.182 40.996 33.8738 40.7262 33.6265 40.4044C33.3793 40.0826 33.1978 39.7153 33.0926 39.3234C32.9874 38.9314 32.9605 38.5226 33.0134 38.1203C33.0662 37.718 33.1979 37.33 33.4008 36.9786C33.6037 36.6272 33.8739 36.3192 34.1959 36.0722C34.5179 35.8253 34.8854 35.6442 35.2774 35.5393C35.6694 35.4345 36.0782 35.4079 36.4805 35.4612C36.8828 35.5144 37.2706 35.6465 37.6219 35.8497L49.1801 42.5229C49.5314 42.7256 49.8392 42.9956 50.0861 43.3173C50.333 43.6391 50.5141 44.0063 50.6191 44.398C50.724 44.7898 50.7508 45.1983 50.6979 45.6004C50.6449 46.0025 50.5133 46.3902 50.3105 46.7414Z" fill="#FFC61C"/>
</svg>
