<svg width="60" height="60" viewBox="0 0 60 60" fill="none" xmlns="http://www.w3.org/2000/svg">
<path d="M57.6749 26.5364C57.5685 25.5773 57.4618 24.4049 57.0355 23.1261C56.7157 21.8472 56.183 20.4618 55.4369 18.9698C54.6908 17.4778 53.7319 15.9858 52.5596 14.4938C52.1333 13.9609 51.6004 13.3215 50.961 12.7886C51.8135 9.37834 49.8953 6.50089 49.8953 6.50089C46.6981 6.28774 44.5666 7.46002 43.8205 8.09946C43.7141 8.09946 43.6074 7.9929 43.3943 7.8863C42.8616 7.67318 42.3286 7.46002 41.6892 7.24689C41.0498 7.03374 40.5169 6.92717 39.8775 6.71402C39.2381 6.60745 38.5985 6.50089 38.0658 6.3943C37.9591 6.3943 37.8527 6.3943 37.746 6.3943C36.3605 1.91829 32.3108 0 32.3108 0C27.8348 2.87744 26.9823 6.82061 26.9823 6.82061C26.9823 6.82061 26.9823 6.92717 26.9823 7.03374C26.7691 7.1403 26.4494 7.1403 26.2362 7.24689C25.9165 7.35346 25.5968 7.46002 25.1705 7.56661C24.8508 7.67318 24.5311 7.77974 24.1048 7.9929C23.4654 8.31261 22.7194 8.63231 22.0799 8.95203C21.4405 9.27174 20.8011 9.69803 20.1616 10.1243C20.0551 10.1243 20.0551 10.0177 20.0551 10.0177C13.7673 7.67318 8.22559 10.5506 8.22559 10.5506C7.69274 17.1581 10.6767 21.4209 11.3162 22.1669C11.2096 22.5932 10.9965 23.0195 10.8899 23.4458C10.4636 24.9378 10.0373 26.5364 9.82418 28.1351C9.82418 28.3482 9.71759 28.5613 9.71759 28.7744C3.96272 31.6518 2.25757 37.5132 2.25757 37.5132C7.0533 43.0551 12.7016 43.3747 12.7016 43.3747C13.4476 44.6537 14.1936 45.8258 15.1528 46.9981C15.579 47.4244 16.0054 47.9573 16.3251 48.3836C14.6199 53.3925 16.5382 57.5489 16.5382 57.5489C21.8668 57.762 25.3837 55.2042 26.1297 54.5648C26.6625 54.778 27.1954 54.8844 27.7282 55.0978C29.3268 55.524 31.032 55.7372 32.737 55.8436C33.1633 55.8436 33.5898 55.8436 34.0161 55.8436H34.2292H34.3356H34.5488H34.7619C37.3197 59.467 41.6892 60 41.6892 60C44.8864 56.6961 44.9928 53.3925 44.9928 52.6464V52.54V52.4333C45.6322 52.007 46.2716 51.4743 46.9113 50.9414C48.19 49.769 49.2557 48.4903 50.2149 47.1048C50.3216 46.9981 50.428 46.8917 50.428 46.6786C54.0515 46.8917 56.5026 44.4406 56.5026 44.4406C55.8632 40.7104 53.7316 38.8987 53.3054 38.5791H53.199C53.199 38.3657 53.199 38.1526 53.199 37.9395C53.199 37.5132 53.199 37.087 53.199 36.7674V36.2345V36.1278V36.0213V35.9146V35.7015V35.382C53.199 35.2753 53.199 35.1688 53.199 35.0621C53.199 34.9557 53.199 34.849 53.199 34.7423V34.4227V34.1029C53.0923 33.6767 53.0923 33.2504 52.9858 32.9306C52.5596 31.3323 52.0266 29.8401 51.1741 28.4546C50.3216 27.0693 49.3624 25.8969 48.19 24.8313C47.0177 23.7655 45.7389 23.0195 44.3535 22.3801C42.968 21.7407 41.5825 21.4209 40.0906 21.2078C39.3445 21.1012 38.7052 21.1012 37.9591 21.1012H37.746H37.6395H37.5328H37.4264H37.2133C37.1066 21.1012 36.9999 21.1012 36.8934 21.1012C36.5736 21.1012 36.1474 21.2078 35.8278 21.2078C34.4423 21.4209 33.0569 21.9538 31.8845 22.6998C30.7122 23.4458 29.6465 24.2984 28.794 25.2575C27.9414 26.2167 27.302 27.389 26.8757 28.5613C26.4494 29.7337 26.2362 30.9057 26.1297 32.0781C26.1297 32.3979 26.1297 32.611 26.1297 32.9306C26.1297 33.0373 26.1297 33.0373 26.1297 33.144V33.3571C26.1297 33.4635 26.1297 33.6767 26.1297 33.7834C26.2362 34.316 26.3428 34.9557 26.4494 35.4884C26.7691 36.554 27.302 37.5132 27.8348 38.3657C28.4742 39.2185 29.2202 39.8579 29.9664 40.3906C30.7122 40.9236 31.565 41.3498 32.4175 41.5629C33.27 41.7761 34.0161 41.8828 34.8686 41.8828C34.975 41.8828 35.0817 41.8828 35.1881 41.8828H35.2948H35.4015C35.508 41.8828 35.6147 41.8828 35.6147 41.8828C35.6147 41.8828 35.6147 41.8828 35.7211 41.8828H35.8278H35.9342C36.0409 41.8828 36.1474 41.8828 36.2541 41.8828C36.3605 41.8828 36.4672 41.8828 36.5736 41.7761C36.7867 41.7761 36.8934 41.6696 37.1066 41.6696C37.4264 41.5629 37.746 41.4565 38.0658 41.2434C38.3853 41.1367 38.5985 40.9236 38.9183 40.7104C39.0247 40.7104 39.025 40.604 39.1314 40.4973C39.4512 40.2842 39.4512 39.8579 39.2381 39.6448C39.025 39.4317 38.7052 39.325 38.492 39.5381C38.3853 39.5381 38.3853 39.6448 38.2789 39.6448C38.0658 39.7512 37.8527 39.8579 37.5328 39.9643C37.3197 40.071 36.9999 40.071 36.7867 40.1775C36.6803 40.1775 36.4672 40.1775 36.3605 40.1775C36.2541 40.1775 36.2541 40.1775 36.1474 40.1775C36.0409 40.1775 36.0409 40.1775 35.9342 40.1775C35.8278 40.1775 35.8278 40.1775 35.7211 40.1775C35.6147 40.1775 35.508 40.1775 35.508 40.1775H35.4015H35.2948C35.1881 40.1775 35.1884 40.1775 35.0817 40.1775C34.4423 40.071 33.9094 39.9643 33.27 39.6448C32.6306 39.4317 32.0977 39.0054 31.5647 38.5791C31.032 38.1526 30.6058 37.5132 30.2859 36.9805C29.9664 36.4476 29.6465 35.7015 29.5398 34.9557C29.4334 34.6359 29.4334 34.2096 29.4334 33.8898C29.4334 33.7834 29.4334 33.6767 29.4334 33.5702V33.4635V33.3571C29.4334 33.144 29.4334 32.9306 29.5398 32.7174C29.8597 31.1189 30.6058 29.627 31.8845 28.3482C32.2044 28.0284 32.5239 27.8152 32.8437 27.4954C33.1633 27.2823 33.5898 27.0693 33.9094 26.8561C34.3356 26.643 34.7619 26.5364 35.0817 26.4298C35.508 26.3233 35.9342 26.2167 36.3605 26.2167C36.5736 26.2167 36.7867 26.2167 36.9999 26.2167H37.1066H37.3197H37.4264H37.6395C38.0658 26.2167 38.5985 26.3233 39.0247 26.4298C39.9839 26.6429 40.8364 26.9627 41.6892 27.4954C43.3943 28.4546 44.7797 29.9468 45.7389 31.6518C46.1652 32.5043 46.485 33.4635 46.6981 34.4227C46.6981 34.6359 46.8046 34.9557 46.8046 35.1688V35.382V35.5951C46.8046 35.7015 46.8046 35.7015 46.8046 35.8082C46.8046 35.9146 46.8046 35.9146 46.8046 36.0213V36.2345V36.4476C46.8046 36.554 46.8046 36.7671 46.8046 36.8738C46.8046 37.1937 46.8046 37.4068 46.6981 37.7264C46.6981 37.9395 46.5914 38.2593 46.5914 38.4724C46.5914 38.6856 46.4847 39.0054 46.3783 39.2185C46.2716 39.7512 46.0585 40.2842 45.8454 40.7104C45.4191 41.6696 44.8864 42.6288 44.2468 43.5878C42.968 45.2931 41.263 46.785 39.2381 47.6375C38.2789 48.064 37.2133 48.3836 36.1474 48.5967C35.6147 48.7034 35.0817 48.7034 34.5488 48.8098H34.4423H34.3356H34.1225H33.9094H33.803C33.4831 48.8098 33.27 48.8098 32.9502 48.8098C31.7781 48.7034 30.6058 48.4903 29.5398 48.1704C28.4742 47.8509 27.302 47.4244 26.3428 46.8917C24.3179 45.8258 22.5062 44.3339 21.0142 42.5221C20.2682 41.6696 19.6288 40.7104 19.2025 39.6448C18.6696 38.5791 18.2434 37.5132 17.9236 36.4476C17.6039 35.382 17.3908 34.2096 17.3908 33.144V32.9306V32.8241V32.611V31.9716V31.8649V31.6518V31.5454C17.3908 31.4387 17.3908 31.2256 17.3908 31.1189C17.3908 30.5862 17.4974 29.9468 17.4974 29.4138C17.6039 28.8809 17.7105 28.2415 17.8171 27.7088C17.9236 27.1758 18.0302 26.5364 18.2433 26.0035C18.5631 24.9378 18.9894 23.8721 19.4156 22.8064C20.3748 20.7815 21.5471 18.9698 23.0391 17.5844C23.3588 17.2646 23.7851 16.8384 24.2114 16.5186C24.6377 16.1989 25.064 15.8792 25.4903 15.6661C25.9165 15.3464 26.3428 15.1332 26.7691 14.9201C26.9822 14.8135 27.1954 14.7069 27.4085 14.6003C27.5151 14.6003 27.6217 14.4938 27.7282 14.4938C27.8348 14.4938 27.9414 14.3872 28.048 14.3872C28.4743 14.1741 29.0071 14.0675 29.4334 13.8543C29.5398 13.8543 29.6465 13.7478 29.7532 13.7478C29.8597 13.7478 29.9664 13.6412 30.0728 13.6412C30.2859 13.5346 30.6058 13.5346 30.8189 13.4281C30.9253 13.4281 31.032 13.3215 31.2451 13.3215C31.3516 13.3215 31.4583 13.3215 31.6714 13.2149C31.7781 13.2149 31.8845 13.2149 32.0977 13.1083H32.3108H32.5239C32.6306 13.1083 32.737 13.1083 32.9502 13.0018C33.0569 13.0018 33.27 13.0018 33.3767 12.8952C33.4831 12.8952 33.6963 12.8952 33.803 12.8952C33.9094 12.8952 34.0161 12.8952 34.1225 12.8952H34.3356H34.4423H34.5488C34.6555 12.8952 34.8686 12.8952 34.975 12.8952H35.1881H35.2948C35.4015 12.8952 35.508 12.8952 35.6147 12.8952C36.1474 12.8952 36.5736 12.8952 37.1066 12.8952C38.0658 12.8952 39.0247 13.0018 39.9839 13.2149C41.7957 13.5346 43.501 14.1741 45.0995 14.9201C46.6981 15.6661 48.0833 16.6252 49.2557 17.6909C49.3624 17.7975 49.3624 17.7975 49.4688 17.9041C49.5755 18.0106 49.5755 18.0106 49.6819 18.1172C49.7886 18.2238 50.0018 18.3304 50.1082 18.5435C50.2149 18.7566 50.428 18.7566 50.5347 18.9698C50.6411 19.1829 50.8543 19.2895 50.961 19.3961C51.4937 19.9289 51.9199 20.4618 52.3464 21.1012C53.199 22.1669 53.945 23.3392 54.4777 24.4049C54.4777 24.5115 54.5844 24.5115 54.5844 24.6181C54.5844 24.7247 54.6909 24.7247 54.6909 24.8313C54.7976 24.9378 54.7975 25.0444 54.904 25.2575C55.0107 25.3641 55.0107 25.4707 55.1171 25.6838C55.2238 25.7904 55.2238 25.8969 55.3302 26.1101C55.5436 26.643 55.7568 27.0693 55.8632 27.4954C56.0763 28.2415 56.2894 28.8809 56.3961 29.4138C56.5026 29.627 56.7157 29.8401 56.9288 29.7337C57.142 29.7337 57.3554 29.5205 57.3554 29.3071C57.7816 28.0284 57.7816 27.2823 57.6749 26.5364Z" fill="url(#paint0_linear_1154_14251)"/>
<defs>
<linearGradient id="paint0_linear_1154_14251" x1="30.1692" y1="76.2143" x2="30.1692" y2="6.80485" gradientUnits="userSpaceOnUse">
<stop stop-color="#FFF100"/>
<stop offset="1" stop-color="#F05A28"/>
</linearGradient>
</defs>
</svg>
