<svg width="60" height="60" viewBox="0 0 60 60" fill="none" xmlns="http://www.w3.org/2000/svg">
<rect width="60" height="60" rx="8" fill="#003B6F"/>
<path d="M30 7C30 7 22 14 18 22C15 28 16 33 19 36C20 37 21 38 22 38C20 35 20 31 22 28C24 25 27 23 30 23C33 23 36 25 38 28C40 31 40 35 38 38C39 38 40 37 41 36C44 33 45 28 42 22C38 14 30 7 30 7Z" fill="#6EA8D8"/>
<path d="M30 23C27 23 24 25 22 28C20 31 20 35 22 38C23 39 25 40 27 40L30 53L33 40C35 40 37 39 38 38C40 35 40 31 38 28C36 25 33 23 30 23Z" fill="#AACCEE"/>
<path d="M30 28C28 28 26 30 26 32C26 34 28 36 30 36C32 36 34 34 34 32C34 30 32 28 30 28Z" fill="#003B6F"/>
<path d="M22 38C19 36 18 34 18 30C16 32 15 35 16 38C17 41 19 43 22 44C21 42 21 40 22 38Z" fill="#4A8FBF"/>
<path d="M38 38C41 36 42 34 42 30C44 32 45 35 44 38C43 41 41 43 38 44C39 42 39 40 38 38Z" fill="#4A8FBF"/>
</svg>
