<svg width="60" height="60" viewBox="0 0 60 60" fill="none" xmlns="http://www.w3.org/2000/svg">
<path d="M60.0001 39.8965V41.4723C60.0001 42.2073 59.9373 42.939 59.8151 43.6642L59.4601 45.7437C58.0564 52.283 53.591 57.273 47.1225 59.1328L45.5603 59.5392C45.3027 59.597 43.6843 59.8827 43.4201 59.8993C41.5127 60.0281 39.6268 60.0463 37.8714 59.8712C32.9816 59.3839 27.3653 57.0781 23.1195 54.5723C21.6432 53.7019 20.2114 52.4746 18.7037 51.7297C16.7897 50.7849 13.9428 50.6114 12.8644 48.4955C10.853 44.5528 15.7725 40.9255 18.8854 43.6443C20.3138 44.8914 20.1437 46.1286 20.8307 47.6333C21.8925 49.959 24.5017 51.3366 26.6931 52.4928C33.4473 56.054 42.9082 58.3549 49.8159 54.0801C56.2365 50.1077 57.2885 42.3593 55.827 35.4566C54.0914 27.2589 49.0711 19.9631 43.0964 14.2398C42.6307 13.7938 42.3979 13.1364 42.5465 12.5071C42.8107 11.3872 44.0823 10.6654 45.2961 11.5326C46.784 12.5963 48.7128 14.8608 49.9282 16.3012C54.9897 22.3053 59.001 30.2436 59.9026 38.1143C59.9703 38.7056 60.0001 39.3002 60.0001 39.8948V39.8965Z" fill="#009EFF"/>
<path d="M0.054503 20.6684C-0.0148554 19.7335 -0.0198096 18.3047 0.054503 17.3731C1.29635 1.96723 14.9765 -2.75018 28.4617 1.47501C30.5986 2.14397 33.2838 3.70818 35.3497 3.99393C36.2117 4.11286 37.1167 3.95099 37.9589 4.02697C40.9743 4.30281 42.7479 7.3982 40.9842 10.0195C39.6549 11.9967 37.2174 12.3948 35.3084 10.9511C34.3869 10.2541 34.0567 9.02022 33.3333 8.14479C31.4227 5.82903 26.6254 4.43826 23.7123 3.90474C12.0271 1.76737 2.85031 7.91685 3.69252 20.2505C4.17307 27.2985 6.65016 32.533 10.5507 38.2827C10.9438 38.8625 11.9412 39.9394 12.0783 40.5473C12.2153 41.1551 11.8966 42.052 11.3451 42.3906C9.7812 43.3503 8.93734 42.0355 8.07531 40.9173C3.83454 35.4235 0.559829 27.548 0.054503 20.6684Z" fill="#009EFF"/>
<path d="M19.6632 9.01364C33.1138 7.79299 49.8176 24.1404 50.7572 37.2174C51.4756 47.2072 44.4555 51.505 35.1896 49.4503C24.0724 46.9842 12.5044 35.2815 10.171 24.1652C8.60381 16.6943 11.3666 9.76519 19.6632 9.01199V9.01364ZM34.4035 31.0464L26.3942 20.9988H22.0181V37.9656H26.4768V27.918L34.4861 37.9656H38.8623V20.9988H34.4035V31.0464Z" fill="#009EFF"/>
</svg>
