<svg width="60" height="60" viewBox="0 0 60 60" fill="none" xmlns="http://www.w3.org/2000/svg">
<path d="M59.024 25.8546C57.5528 24.8643 53.6879 24.4421 50.8781 25.1986C50.727 22.3994 49.2834 20.0402 46.6424 17.9833L45.6655 17.3273L45.014 18.3113C43.7339 20.2545 43.1944 22.8447 43.3846 25.1994C43.5357 26.6501 44.0397 28.2804 45.014 29.4635C41.3561 31.5853 37.9854 31.1035 23.0554 31.1035H0.00518935C-0.0623674 34.4752 0.479865 40.9597 4.60349 46.2389C5.05861 46.822 5.55817 47.3865 6.10041 47.9296C9.45335 51.287 14.5192 53.7493 22.0945 53.7555C33.6502 53.7662 43.5517 47.5189 49.5749 32.4156C51.5572 32.4485 56.7884 32.7702 59.3484 27.8235C59.4107 27.7399 60 26.5115 60 26.5115L59.024 25.8546ZM15.049 22.3745H8.56712V28.8564H15.049V22.3745ZM23.4225 22.3745H16.9406V28.8564H23.4225V22.3745ZM31.7969 22.3745H25.315V28.8564H31.7969V22.3745ZM40.1703 22.3745H33.6893V28.8564H40.1712V22.3745H40.1703ZM6.67464 22.3745H0.19275V28.8564H6.67464V22.3745ZM15.049 14.1877H8.56712V20.6696H15.049V14.1877ZM23.4225 14.1877H16.9406V20.6696H23.4225V14.1877ZM31.7969 14.1877H25.315V20.6696H31.7969V14.1877ZM31.7969 6H25.315V12.4819H31.7969V6Z" fill="#1D63ED"/>
</svg>
