<?xml version="1.0" encoding="UTF-8"?>
<svg xmlns="http://www.w3.org/2000/svg" xmlns:xlink="http://www.w3.org/1999/xlink" width="60" height="60" viewBox="0 0 60 60">
<path fill-rule="nonzero" fill="rgb(6.27451%, 52.941176%, 40.784314%)" fill-opacity="1" d="M 51.601562 29.640625 C 51.644531 27.835938 50.398438 26.257812 48.636719 25.886719 C 46.871094 25.511719 45.09375 26.445312 44.398438 28.109375 L 33.683594 28.109375 C 32.957031 26.492188 31.191406 25.609375 29.460938 25.996094 C 27.730469 26.382812 26.507812 27.933594 26.539062 29.707031 C 26.566406 31.476562 27.835938 32.988281 29.578125 33.316406 C 31.324219 33.648438 33.058594 32.707031 33.730469 31.066406 L 44.398438 31.066406 C 44.746094 31.910156 45.386719 32.59375 46.199219 33 C 44.832031 39.332031 39.84375 44.253906 33.492188 45.535156 C 32.597656 44 30.75 43.304688 29.066406 43.867188 C 27.382812 44.429688 26.328125 46.101562 26.539062 47.863281 C 26.75 49.625 28.171875 51 29.941406 51.148438 C 31.710938 51.296875 33.34375 50.183594 33.847656 48.480469 C 41.632812 47.007812 47.726562 40.914062 49.199219 33.125 C 50.644531 32.570312 51.597656 31.1875 51.601562 29.640625 Z M 51.601562 29.640625 "/>
<path fill-rule="nonzero" fill="rgb(0%, 0%, 0%)" fill-opacity="1" d="M 23.785156 47.574219 C 23.597656 47.574219 23.417969 47.539062 23.242188 47.472656 C 15.148438 44.253906 10.234375 35.984375 11.277344 27.335938 C 12.316406 18.683594 19.054688 11.820312 27.683594 10.617188 C 36.3125 9.410156 44.671875 14.167969 48.042969 22.199219 C 48.355469 22.953125 47.996094 23.820312 47.242188 24.132812 C 46.488281 24.445312 45.625 24.085938 45.3125 23.335938 C 42.476562 16.507812 35.394531 12.449219 28.070312 13.457031 C 20.746094 14.46875 15.023438 20.289062 14.140625 27.628906 C 13.257812 34.96875 17.4375 41.984375 24.3125 44.699219 C 24.96875 44.964844 25.34375 45.65625 25.214844 46.347656 C 25.082031 47.042969 24.480469 47.546875 23.773438 47.554688 Z M 23.785156 47.574219 "/>
</svg>
